<svg version="1.1" id="Capa_1" xmlns="http://www.w3.org/2000/svg" xmlns:xlink="http://www.w3.org/1999/xlink" x="0px" y="0px"
	 viewBox="0 0 225 229.1" style="enable-background:new 0 0 225 229.1;" xml:space="preserve">
<style type="text/css">
	@font-face {
			font-family: 'KaushanScript-Regular';
			font-style: normal;
			font-weight: 400;
			src: local('Kaushan Script'), local('KaushanScript-Regular'), url(https://fonts.gstatic.com/s/kaushanscript/v5/qx1LSqts-NtiKcLw4N03IEd0sm1ffa_JvZxsF_BEwQk.woff2) format('woff2');
			unicode-range: U+0000-00FF, U+0131, U+0152-0153, U+02C6, U+02DA, U+02DC, U+2000-206F, U+2074, U+20AC, U+2212, U+2215;
		}
	.st0{opacity:0.15;fill:#333333;}
	.st01{fill:#D1BB2C;}
	.st2{fill:#9570B3;}
	.st3{font-family:'KaushanScript-Regular';}
	.st4{font-size:14.3012px;}
	.st5{fill:#D37597;}
	.st6{fill:#5291BA;}
	.st7{fill:#75AE29;}
	.st8{font-size:22px;}
</style>
<g>
	<path class="st0" d="M0.3,46.5L179.7,5.1c0,0,21.3,148.3,41.4,179.4c-56.6,32.7-179.4,41.4-179.4,41.4L0.3,46.5z"/>
	<path class="st01" d="M0.3,46.5L178.5,0c0,0,15,93.9,46.5,178.1c-51.3,28-124.4,35.9-178.1,46.5C33.4,183.6,17.1,117.1,0.3,46.5z"/>
	<g id="_x30_3c_x5F_violeta-recursos">
		<g>
			<polygon class="st2" points="200,170.9 94.8,202.2 95.7,184.7 201.1,153.4 			"/>
			<text transform="matrix(0.9648 -0.263 0.263 0.9648 98.4712 197.2335)" class="st3 st4">PRESUPUESTO</text>
		</g>
	</g>
	<g id="_x30_3c_x5F_rosa-riesgo">
		<g>
			<polygon class="st5" points="192.5,145 96.5,168.2 97.4,151.4 193.4,128.2 			"/>
			<text transform="matrix(0.9766 -0.2149 0.2149 0.9766 96.9032 164.2228)" class="st3 st4">FACTIBILIDAD</text>
		</g>
	</g>
	<g id="_x30_3c_x5F_azul_x5F_contexto">
		<g>
			<polygon class="st6" points="186.8,117.9 78.7,142.7 76.5,121.1 184.6,96.3 			"/>
			<text transform="matrix(0.9771 -0.2126 0.2126 0.9771 83.1877 135.7728)" class="st3 st4">OPORTUNIDAD</text>
		</g>
	</g>
	<g id="_x30_3c_x5F_verde_x5F_analisis">
		<g>
			<polygon class="st7" points="171.4,91.4 102.3,107.2 106.3,87 175.4,71.4 			"/>
			<text transform="matrix(0.9771 -0.2126 0.2126 0.9771 107.7613 99.3043)" class="st3 st4">IMPACTO</text>
		</g>
	</g>
	<text transform="matrix(0.9518 -0.3067 0.3067 0.9518 25.0111 74.9062)"><tspan x="0" y="0" class="st3 st8">¡Recuerda las </tspan><tspan x="0" y="26.4" class="st3 st8">dimensiones!</tspan></text>
</g>
</svg>
