<svg xmlns="http://www.w3.org/2000/svg" viewBox="0 0 410 582"><defs><style>.cls-1{fill:#42210b;opacity:0.23;}.cls-2{fill:#d1cfcb;}.cls-3{font-size:26px;font-family:MyriadPro-Bold, Myriad Pro;font-weight:700;}.cls-3,.cls-6{fill:#333;}.cls-4{letter-spacing:-0.01em;}.cls-5{letter-spacing:-0.01em;}.cls-7{fill:#999;}</style></defs><title>pantallas_05a-proyectos-pa</title><g id="lapices"><polygon class="cls-1" points="21.43 581.62 13.55 17.67 393.53 13.38 401.13 578.53 21.43 581.62"/><polygon class="cls-2" points="17.43 574.62 9.55 10.67 389.53 6.38 397.13 571.53 17.43 574.62"/><text class="cls-3" transform="translate(33.53 57.96) rotate(-0.85)"><tspan class="cls-4">P</tspan><tspan class="cls-5" x="14.87" y="0">r</tspan><tspan x="24.54" y="0">opuesta 3</tspan></text><rect class="cls-6" x="33.35" y="93.9" width="131" height="18" transform="translate(-0.89 0.86) rotate(-0.5)"/><rect class="cls-7" x="33.52" y="116.09" width="318" height="11" transform="translate(-1.05 1.67) rotate(-0.5)"/><rect class="cls-7" x="33.66" y="132.09" width="318" height="11" transform="translate(-1.18 1.67) rotate(-0.5)"/><rect class="cls-7" x="33.8" y="148.09" width="318" height="11" transform="translate(-1.32 1.67) rotate(-0.5)"/><rect class="cls-7" x="33.94" y="164.09" width="318" height="11" transform="translate(-1.46 1.68) rotate(-0.5)"/><rect class="cls-6" x="34.56" y="232.9" width="131" height="18" transform="translate(-2.09 0.88) rotate(-0.5)"/><rect class="cls-7" x="34.72" y="255.09" width="318" height="11" transform="translate(-2.25 1.69) rotate(-0.5)"/><rect class="cls-7" x="34.86" y="271.08" width="318" height="11" transform="translate(-2.39 1.69) rotate(-0.5)"/><rect class="cls-7" x="35" y="287.08" width="318" height="11" transform="translate(-2.53 1.69) rotate(-0.5)"/><rect class="cls-7" x="35.14" y="303.08" width="318" height="11" transform="translate(-2.66 1.69) rotate(-0.5)"/><rect class="cls-6" x="35.69" y="363.89" width="131" height="18" transform="translate(-3.22 0.89) rotate(-0.5)"/><rect class="cls-7" x="35.86" y="386.08" width="318" height="11" transform="translate(-3.38 1.7) rotate(-0.5)"/><rect class="cls-7" x="36" y="402.08" width="318" height="11" transform="translate(-3.52 1.7) rotate(-0.5)"/><rect class="cls-7" x="36.13" y="418.08" width="318" height="11" transform="translate(-3.66 1.7) rotate(-0.5)"/><rect class="cls-7" x="36.27" y="434.08" width="318" height="11" transform="translate(-3.8 1.71) rotate(-0.5)"/></g></svg>