<svg xmlns="http://www.w3.org/2000/svg" xmlns:xlink="http://www.w3.org/1999/xlink" viewBox="0 0 1366 768"><defs><style>.cls-1{isolation:isolate;}.cls-2{fill:#5c432f;}.cls-3{mask:url(#mask);}.cls-35,.cls-4{fill:#3f2e20;mix-blend-mode:multiply;}.cls-25,.cls-27,.cls-4{opacity:0.2;}.cls-29,.cls-5{fill:#42210b;}.cls-5{opacity:0.3;}.cls-6{fill:#c4ab18;}.cls-7{fill:#d3bd18;}.cls-8{fill:#ad9715;}.cls-9{fill:#d9d7d3;}.cls-10{font-size:15px;}.cls-10,.cls-14,.cls-25,.cls-30,.cls-33{fill:#333;}.cls-10,.cls-30{font-family:MyriadPro-Bold, Myriad Pro;font-weight:700;}.cls-11{letter-spacing:0.01em;}.cls-12{letter-spacing:0em;}.cls-13{letter-spacing:-0.03em;}.cls-14{font-size:11px;font-family:MyriadPro-Regular, Myriad Pro;}.cls-15{letter-spacing:-0.02em;}.cls-16{letter-spacing:-0.01em;}.cls-17{letter-spacing:-0.01em;}.cls-18{letter-spacing:-0.01em;}.cls-19{letter-spacing:-0.01em;}.cls-20{letter-spacing:-0.01em;}.cls-21{letter-spacing:0em;}.cls-22{letter-spacing:0.01em;}.cls-23{letter-spacing:0em;}.cls-24{fill:#d1cfcb;}.cls-26{fill:#005187;}.cls-27,.cls-28{fill:none;stroke-miterlimit:10;stroke-width:1.74px;}.cls-27{stroke:#000;}.cls-28{stroke:#7c181f;}.cls-29{opacity:0.23;}.cls-30{font-size:26px;}.cls-31{letter-spacing:-0.01em;}.cls-32{letter-spacing:-0.01em;}.cls-34{fill:#999;}.cls-35{opacity:0.3;}.cls-36{fill:#fbca7e;}.cls-37{fill:#fff;}.cls-38{fill:#e6e6e6;}</style><mask id="mask" x="-201.3" y="-585.33" width="1698.19" height="1648.51" maskUnits="userSpaceOnUse"><image width="2448" height="2376" transform="translate(-196.79 -585.33) rotate(0.16) scale(0.69)" xlink:href="../../../texturas/IMG_8625-w.jpg"/></mask></defs><title>pantallas_05a-proyectos-pa</title><g class="cls-1"><g id="lapices"><rect class="cls-2" x="-11.56" y="-6.04" width="1388.87" height="780.86"/><g class="cls-3"><rect class="cls-4" x="292.45" y="-310.05" width="780.86" height="1388.87" transform="translate(296.62 1066.21) rotate(-89.84)"/></g><path class="cls-5" d="M1222,747,1192,46C973,59.94,649.88,60,647,60v-.31L129.34,45.79,101.65,65.54l-1.19,151,26.24,14.84L100,741c138-20,542-6,542-6C648.85,734.72,946,728,1222,747Z"/><path class="cls-6" d="M641.86,734.46S924,723,1211,730L1192,36C972,50,647,50,647,50Z"/><path class="cls-7" d="M647,49.69,129.34,35.79,101.65,55.54l-1.19,151,26.24,14.84-7.41,499.52C260.26,714.42,642,735,642,735Z"/><polygon class="cls-8" points="647 49 580 48 372 723 642 735 647 49"/><rect class="cls-9" x="201" y="28" width="303" height="116" transform="translate(-3.98 18.35) rotate(-2.97)"/><text class="cls-10" transform="translate(242.29 53.9) rotate(-2.73)">PR<tspan class="cls-11" x="17.61" y="0">E</tspan><tspan class="cls-12" x="25.72" y="0">VENCIÓN DE ADI</tspan><tspan class="cls-13" x="136.99" y="0">C</tspan><tspan x="145.47" y="0">CIONES</tspan></text><text class="cls-14" transform="translate(242.44 70.2) rotate(-2.73)"><tspan class="cls-15">P</tspan><tspan class="cls-16" x="5.68" y="0">r</tspan><tspan x="9.16" y="0">e</tspan><tspan class="cls-17" x="14.67" y="0">v</tspan><tspan x="19.85" y="0">ención de </tspan><tspan class="cls-18" x="67.5" y="0">A</tspan><tspan x="74.1" y="0">di</tspan><tspan class="cls-19" x="82.87" y="0">c</tspan><tspan x="87.73" y="0">cione</tspan><tspan class="cls-20" x="112.89" y="0">s</tspan><tspan x="117.13" y="0">, </tspan><tspan class="cls-19" x="121.74" y="0">t</tspan><tspan class="cls-21" x="125.31" y="0">e</tspan><tspan class="cls-22" x="130.79" y="0">x</tspan><tspan class="cls-19" x="136.02" y="0">t</tspan><tspan x="139.6" y="0">o desc</tspan><tspan class="cls-23" x="168.97" y="0">r</tspan><tspan x="172.61" y="0">ipti</tspan><tspan class="cls-16" x="187.66" y="0">v</tspan><tspan x="192.84" y="0">o</tspan></text><path class="cls-24" d="M223.51,208c-64.57-6.12-181.75-11.89-181.75-11.89L53.66,14.36S201.91,28.06,235.4,26.25C235.4,26.25,221.36,180.37,223.51,208Z"/><polygon class="cls-25" points="56.84 184.99 216.12 200.5 218.85 42.89 56.84 184.99"/><rect class="cls-26" x="59.41" y="32.01" width="158.34" height="158.34" transform="translate(18.59 242.21) rotate(-86.26)"/><path class="cls-27" d="M152.12,21.69c-.17-3.37-.2-3.28-.32-3.46-.45-.72-12.26-.88-13-.17s.19,22.75,4.53,31.22,9.85,6.85,8.15-14.34"/><path class="cls-28" d="M151.24,22.14a22.51,22.51,0,0,0-.31-3.32c-.45-.72-12.26-.88-13-.17s.19,22.75,4.54,31.22,9.85,6.85,8.15-14.34"/><polygon class="cls-29" points="830.43 697.62 822.55 133.67 1202.53 129.38 1210.13 694.53 830.43 697.62"/><polygon class="cls-24" points="826.43 690.62 818.55 126.67 1198.53 122.38 1206.13 687.53 826.43 690.62"/><text class="cls-30" transform="translate(842.53 173.96) rotate(-0.85)"><tspan class="cls-31">P</tspan><tspan class="cls-32" x="14.87" y="0">r</tspan><tspan x="24.54" y="0">opuesta 3</tspan></text><rect class="cls-33" x="842.35" y="209.9" width="131" height="18" transform="translate(-1.86 7.87) rotate(-0.5)"/><rect class="cls-34" x="842.52" y="232.09" width="318" height="11" transform="translate(-2.02 8.68) rotate(-0.5)"/><rect class="cls-34" x="842.66" y="248.09" width="318" height="11" transform="translate(-2.16 8.68) rotate(-0.5)"/><rect class="cls-34" x="842.8" y="264.09" width="318" height="11" transform="translate(-2.3 8.68) rotate(-0.5)"/><rect class="cls-34" x="842.94" y="280.09" width="318" height="11" transform="translate(-2.43 8.68) rotate(-0.5)"/><rect class="cls-33" x="843.56" y="348.9" width="131" height="18" transform="translate(-3.06 7.88) rotate(-0.5)"/><rect class="cls-34" x="843.72" y="371.09" width="318" height="11" transform="translate(-3.22 8.69) rotate(-0.5)"/><rect class="cls-34" x="843.86" y="387.08" width="318" height="11" transform="translate(-3.36 8.7) rotate(-0.5)"/><rect class="cls-34" x="844" y="403.08" width="318" height="11" transform="translate(-3.5 8.7) rotate(-0.5)"/><rect class="cls-34" x="844.14" y="419.08" width="318" height="11" transform="translate(-3.64 8.7) rotate(-0.5)"/><rect class="cls-33" x="844.69" y="479.89" width="131" height="18" transform="translate(-4.2 7.9) rotate(-0.5)"/><rect class="cls-34" x="844.86" y="502.08" width="318" height="11" transform="translate(-4.36 8.71) rotate(-0.5)"/><rect class="cls-34" x="845" y="518.08" width="318" height="11" transform="translate(-4.49 8.71) rotate(-0.5)"/><rect class="cls-34" x="845.13" y="534.08" width="318" height="11" transform="translate(-4.63 8.71) rotate(-0.5)"/><rect class="cls-34" x="845.27" y="550.08" width="318" height="11" transform="translate(-4.77 8.71) rotate(-0.5)"/><polygon class="cls-29" points="85.69 746.85 61.6 183.35 441.3 168.14 465.14 732.84 85.69 746.85"/><polygon class="cls-24" points="81.69 741.85 57.6 178.35 437.3 163.14 461.14 727.84 81.69 741.85"/><text class="cls-30" transform="matrix(1, -0.04, 0.04, 1, 82.93, 224.94)"><tspan class="cls-31">P</tspan><tspan class="cls-32" x="14.87" y="0">r</tspan><tspan x="24.54" y="0">opuesta 1</tspan></text><rect class="cls-33" x="84.02" y="258.98" width="131" height="18" transform="translate(-9.92 5.78) rotate(-2.14)"/><rect class="cls-34" x="84.68" y="278.47" width="318" height="11" transform="translate(-10.45 9.31) rotate(-2.14)"/><rect class="cls-34" x="85.28" y="294.46" width="318" height="11" transform="translate(-11.05 9.34) rotate(-2.14)"/><rect class="cls-34" x="85.88" y="310.45" width="318" height="11" transform="translate(-11.64 9.38) rotate(-2.14)"/><rect class="cls-34" x="86.48" y="326.43" width="318" height="11" transform="translate(-12.24 9.41) rotate(-2.14)"/><rect class="cls-33" x="89.22" y="397.88" width="131" height="18" transform="translate(-15.11 6.07) rotate(-2.14)"/><rect class="cls-34" x="89.88" y="417.37" width="318" height="11" transform="translate(-15.64 9.6) rotate(-2.14)"/><rect class="cls-34" x="90.48" y="433.36" width="318" height="11" transform="translate(-16.24 9.64) rotate(-2.14)"/><rect class="cls-34" x="91.08" y="449.35" width="318" height="11" transform="translate(-16.83 9.67) rotate(-2.14)"/><rect class="cls-34" x="91.68" y="465.34" width="318" height="11" transform="translate(-17.43 9.7) rotate(-2.14)"/><rect class="cls-33" x="94.12" y="528.79" width="131" height="18" transform="translate(-20 6.34) rotate(-2.14)"/><rect class="cls-34" x="94.78" y="548.28" width="318" height="11" transform="translate(-20.53 9.88) rotate(-2.14)"/><rect class="cls-34" x="95.38" y="564.27" width="318" height="11" transform="translate(-21.13 9.91) rotate(-2.14)"/><rect class="cls-34" x="95.98" y="580.26" width="318" height="11" transform="translate(-21.73 9.94) rotate(-2.14)"/><rect class="cls-34" x="96.57" y="596.25" width="318" height="11" transform="translate(-22.32 9.98) rotate(-2.14)"/><polygon class="cls-29" points="437.91 655.65 461 92 840 105 826.92 670.07 437.91 655.65"/><polygon class="cls-24" points="442.68 649.83 460.56 86.11 840.34 99.17 822.13 664.08 442.68 649.83"/><text class="cls-30" transform="matrix(1, 0.03, -0.03, 1, 482.35, 134.44)"><tspan class="cls-31">P</tspan><tspan class="cls-32" x="14.87" y="0">r</tspan><tspan x="24.54" y="0">opuesta 2</tspan></text><rect class="cls-33" x="480.06" y="173.32" width="131" height="18" transform="translate(7.12 -20.07) rotate(2.12)"/><rect class="cls-34" x="479.27" y="199.77" width="318" height="11" transform="translate(8.04 -23.49) rotate(2.12)"/><rect class="cls-34" x="478.68" y="215.75" width="318" height="11" transform="translate(8.63 -23.45) rotate(2.12)"/><rect class="cls-34" x="478.09" y="231.74" width="318" height="11" transform="translate(9.22 -23.42) rotate(2.12)"/><rect class="cls-34" x="477.49" y="247.73" width="318" height="11" transform="translate(9.81 -23.39) rotate(2.12)"/><rect class="cls-33" x="474.91" y="312.22" width="131" height="18" transform="translate(12.26 -19.78) rotate(2.12)"/><rect class="cls-34" x="474.13" y="338.67" width="318" height="11" transform="translate(13.17 -23.2) rotate(2.12)"/><rect class="cls-34" x="473.53" y="354.66" width="318" height="11" transform="translate(13.77 -23.17) rotate(2.12)"/><rect class="cls-34" x="472.94" y="370.65" width="318" height="11" transform="translate(14.36 -23.13) rotate(2.12)"/><rect class="cls-34" x="472.35" y="386.64" width="318" height="11" transform="translate(14.95 -23.1) rotate(2.12)"/><rect class="cls-33" x="470.06" y="443.13" width="131" height="18" transform="matrix(1, 0.04, -0.04, 1, 17.1, -19.51)"/><rect class="cls-34" x="469.28" y="469.58" width="318" height="11" transform="translate(18.02 -22.93) rotate(2.12)"/><rect class="cls-34" x="468.68" y="485.57" width="318" height="11" transform="translate(18.61 -22.9) rotate(2.12)"/><rect class="cls-34" x="468.09" y="501.56" width="318" height="11" transform="translate(19.2 -22.87) rotate(2.12)"/><rect class="cls-34" x="467.5" y="517.55" width="318" height="11" transform="translate(19.79 -22.83) rotate(2.12)"/><path class="cls-35" d="M1343.92,579.27c.13-3.67-1.1-8.09-6.53-11.16l-295.65,80.24-26.34,10.79a4,4,0,0,0-.45-.11l-17.1,7.13,17.59-.66h0l33.35-1.19.18.13,292.42-76.25L1342,586l.24-.07a17.43,17.43,0,0,0,1.66-6.66h0Z"/><polygon class="cls-36" points="998.37 659.04 1048.84 657.68 1047.18 647.65 1041.86 641.66 998.37 659.04"/><path class="cls-37" d="M1049,657.81l294-75.94s6.15-11.61-4.71-17.87l-296.34,77.66a5.33,5.33,0,0,0,1.43,3.27,13.51,13.51,0,0,0,3.89,2.73Z"/><path class="cls-38" d="M1049,657.81s-3-2-3.43-4.84a7.6,7.6,0,0,1,1.65-5.32l297.44-72.44-2.6,8.9Z"/><path class="cls-33" d="M1018,654.89a3.75,3.75,0,0,0-3-2.78l-17.16,7,17.6-.51S1018.5,657.29,1018,654.89Z"/></g></g></svg>