<svg xmlns="http://www.w3.org/2000/svg" viewBox="0 0 435 611"><defs><style>.cls-1{fill:#42210b;opacity:0.23;}.cls-2{fill:#d1cfcb;}.cls-3{font-size:26px;font-family:MyriadPro-Bold, Myriad Pro;font-weight:700;}.cls-3,.cls-6{fill:#333;}.cls-4{letter-spacing:-0.01em;}.cls-5{letter-spacing:-0.01em;}.cls-7{fill:#999;}</style></defs><title>pantallas_05a-proyectos-pa</title><g id="lapices"><polygon class="cls-1" points="43.69 610.85 19.6 47.35 399.3 32.14 423.14 596.84 43.69 610.85"/><polygon class="cls-2" points="39.69 605.85 15.6 42.35 395.3 27.14 419.14 591.84 39.69 605.85"/><text class="cls-3" transform="matrix(1, -0.04, 0.04, 1, 40.93, 88.94)"><tspan class="cls-4">P</tspan><tspan class="cls-5" x="14.87" y="0">r</tspan><tspan x="24.54" y="0">opuesta 1</tspan></text><rect class="cls-6" x="42.02" y="122.98" width="131" height="18" transform="translate(-4.86 4.11) rotate(-2.14)"/><rect class="cls-7" x="42.68" y="142.47" width="318" height="11" transform="translate(-5.39 7.65) rotate(-2.14)"/><rect class="cls-7" x="43.28" y="158.46" width="318" height="11" transform="translate(-5.99 7.68) rotate(-2.14)"/><rect class="cls-7" x="43.88" y="174.45" width="318" height="11" transform="translate(-6.59 7.71) rotate(-2.14)"/><rect class="cls-7" x="44.48" y="190.43" width="318" height="11" transform="translate(-7.18 7.75) rotate(-2.14)"/><rect class="cls-6" x="47.22" y="261.88" width="131" height="18" transform="translate(-10.05 4.4) rotate(-2.14)"/><rect class="cls-7" x="47.88" y="281.37" width="318" height="11" transform="translate(-10.58 7.94) rotate(-2.14)"/><rect class="cls-7" x="48.48" y="297.36" width="318" height="11" transform="translate(-11.18 7.97) rotate(-2.14)"/><rect class="cls-7" x="49.08" y="313.35" width="318" height="11" transform="translate(-11.78 8) rotate(-2.14)"/><rect class="cls-7" x="49.68" y="329.34" width="318" height="11" transform="translate(-12.38 8.04) rotate(-2.14)"/><rect class="cls-6" x="52.12" y="392.79" width="131" height="18" transform="translate(-14.94 4.68) rotate(-2.14)"/><rect class="cls-7" x="52.78" y="412.28" width="318" height="11" transform="translate(-15.47 8.21) rotate(-2.14)"/><rect class="cls-7" x="53.38" y="428.27" width="318" height="11" transform="translate(-16.07 8.25) rotate(-2.14)"/><rect class="cls-7" x="53.98" y="444.26" width="318" height="11" transform="translate(-16.67 8.28) rotate(-2.14)"/><rect class="cls-7" x="54.57" y="460.25" width="318" height="11" transform="translate(-17.27 8.31) rotate(-2.14)"/></g></svg>