<svg xmlns="http://www.w3.org/2000/svg" viewBox="0 0 372 190"><defs><style>.cls-1{isolation:isolate;}.cls-2{fill:#3f2e20;opacity:0.3;mix-blend-mode:multiply;}.cls-3{fill:#fbca7e;}.cls-4{fill:#fff;}.cls-5{fill:#e6e6e6;}.cls-6{fill:#333;}</style></defs><title>pantallas_05a-proyectos-pa</title><g class="cls-1"><g id="lapices"><path class="cls-2" d="M359.92,51.27c.13-3.67-1.1-8.09-6.53-11.16L57.74,120.35,31.41,131.15A4,4,0,0,0,31,131l-17.1,7.13,17.59-.66h0l33.35-1.19.18.13L357.4,60.19,358,58l.24-.07a17.43,17.43,0,0,0,1.66-6.66h0Z"/><polygon class="cls-3" points="14.37 131.04 64.84 129.68 63.19 119.65 57.86 113.66 14.37 131.04"/><path class="cls-4" d="M65,129.81l294-75.94S365.06,42.26,354.2,36L57.86,113.66a5.33,5.33,0,0,0,1.43,3.27,13.51,13.51,0,0,0,3.89,2.73Z"/><path class="cls-5" d="M65,129.81s-3-2-3.43-4.84a7.6,7.6,0,0,1,1.65-5.32L360.63,47.21l-2.6,8.9Z"/><path class="cls-6" d="M34,126.89a3.75,3.75,0,0,0-3-2.78l-17.16,7,17.6-.51S34.5,129.29,34,126.89Z"/></g></g></svg>