<svg xmlns="http://www.w3.org/2000/svg" viewBox="0 0 464 234"><defs><style>.cls-1{fill:#d9d7d3;}.cls-2{font-size:15px;font-family:MyriadPro-Bold, Myriad Pro;font-weight:700;}.cls-17,.cls-2,.cls-6{fill:#333;}.cls-3{letter-spacing:0.01em;}.cls-4{letter-spacing:0em;}.cls-5{letter-spacing:-0.03em;}.cls-6{font-size:11px;font-family:MyriadPro-Regular, Myriad Pro;}.cls-7{letter-spacing:-0.02em;}.cls-8{letter-spacing:-0.01em;}.cls-9{letter-spacing:-0.01em;}.cls-10{letter-spacing:-0.01em;}.cls-11{letter-spacing:-0.01em;}.cls-12{letter-spacing:-0.01em;}.cls-13{letter-spacing:0em;}.cls-14{letter-spacing:0.01em;}.cls-15{letter-spacing:0em;}.cls-16{fill:#d1cfcb;}.cls-17,.cls-19{opacity:0.2;}.cls-18{fill:#005187;}.cls-19,.cls-20{fill:none;stroke-miterlimit:10;stroke-width:1.74px;}.cls-19{stroke:#000;}.cls-20{stroke:#7c181f;}</style></defs><title>pantallas_05a-proyectos-pa</title><g id="lapices"><rect class="cls-1" x="158.88" y="30" width="303" height="116" transform="translate(-4.14 16.18) rotate(-2.97)"/><text class="cls-2" transform="translate(200.17 55.9) rotate(-2.73)">PR<tspan class="cls-3" x="17.61" y="0">E</tspan><tspan class="cls-4" x="25.72" y="0">VENCIÓN DE ADI</tspan><tspan class="cls-5" x="136.99" y="0">C</tspan><tspan x="145.47" y="0">CIONES</tspan></text><text class="cls-6" transform="translate(200.32 72.2) rotate(-2.73)"><tspan class="cls-7">P</tspan><tspan class="cls-8" x="5.68" y="0">r</tspan><tspan x="9.16" y="0">e</tspan><tspan class="cls-9" x="14.67" y="0">v</tspan><tspan x="19.85" y="0">ención de </tspan><tspan class="cls-10" x="67.5" y="0">A</tspan><tspan x="74.1" y="0">di</tspan><tspan class="cls-11" x="82.87" y="0">c</tspan><tspan x="87.73" y="0">cione</tspan><tspan class="cls-12" x="112.89" y="0">s</tspan><tspan x="117.13" y="0">, </tspan><tspan class="cls-11" x="121.74" y="0">t</tspan><tspan class="cls-13" x="125.31" y="0">e</tspan><tspan class="cls-14" x="130.79" y="0">x</tspan><tspan class="cls-11" x="136.02" y="0">t</tspan><tspan x="139.6" y="0">o desc</tspan><tspan class="cls-15" x="168.97" y="0">r</tspan><tspan x="172.61" y="0">ipti</tspan><tspan class="cls-8" x="187.66" y="0">v</tspan><tspan x="192.84" y="0">o</tspan></text><path class="cls-16" d="M181.39,210C116.83,203.88-.35,198.11-.35,198.11L11.54,16.36S159.8,30.06,193.29,28.25C193.29,28.25,179.25,182.37,181.39,210Z"/><polygon class="cls-17" points="14.73 186.99 174 202.5 176.73 44.89 14.73 186.99"/><rect class="cls-18" x="17.3" y="34.01" width="158.34" height="158.34" transform="translate(-22.77 202.05) rotate(-86.26)"/><path class="cls-19" d="M110,23.69c-.17-3.37-.2-3.28-.32-3.46-.45-.72-12.26-.88-13-.17s.19,22.75,4.53,31.22,9.85,6.85,8.15-14.34"/><path class="cls-20" d="M109.12,24.14a22.51,22.51,0,0,0-.31-3.32c-.45-.72-12.26-.88-13-.17S96,43.4,100.35,51.87s9.85,6.85,8.15-14.34"/></g></svg>