<svg xmlns="http://www.w3.org/2000/svg" viewBox="0 0 1139 760"><defs><style>.cls-1{fill:#42210b;opacity:0.3;}.cls-2{fill:#c4ab18;}.cls-3{fill:#d3bd18;}.cls-4{fill:#ad9715;}</style></defs><title>pantallas_05a-proyectos-pa</title><g id="lapices"><path class="cls-1" d="M1139,729,1109,28C890,41.94,566.88,42,564,42v-.31L46.34,27.79,18.65,47.54l-1.19,151L43.7,213.39,17,723c138-20,542-6,542-6C565.85,716.72,863,710,1139,729Z"/><path class="cls-2" d="M558.86,716.46S841,705,1128,712L1109,18C889,32,564,32,564,32Z"/><path class="cls-3" d="M564,31.69,46.34,17.79,18.65,37.54l-1.19,151L43.7,203.39,36.29,702.91C177.26,696.42,559,717,559,717Z"/><polygon class="cls-4" points="564 31 497 30 289 705 559 717 564 31"/></g></svg>