<svg xmlns="http://www.w3.org/2000/svg" viewBox="0 0 417 594"><defs><style>.cls-1{fill:#42210b;opacity:0.23;}.cls-2{fill:#d1cfcb;}.cls-3{font-size:26px;font-family:MyriadPro-Bold, Myriad Pro;font-weight:700;}.cls-3,.cls-6{fill:#333;}.cls-4{letter-spacing:-0.01em;}.cls-5{letter-spacing:-0.01em;}.cls-7{fill:#999;}</style></defs><title>pantallas_05a-proyectos-pa</title><g id="lapices"><polygon class="cls-1" points="-0.09 579.65 23 16 402 29 388.93 594.07 -0.09 579.65"/><polygon class="cls-2" points="4.68 573.83 22.56 10.11 402.34 23.17 384.13 588.08 4.68 573.83"/><text class="cls-3" transform="matrix(1, 0.03, -0.03, 1, 44.35, 58.44)"><tspan class="cls-4">P</tspan><tspan class="cls-5" x="14.87" y="0">r</tspan><tspan x="24.54" y="0">opuesta 2</tspan></text><rect class="cls-6" x="42.06" y="97.32" width="131" height="18" transform="translate(4.01 -3.91) rotate(2.12)"/><rect class="cls-7" x="41.27" y="123.77" width="318" height="11" transform="translate(4.92 -7.32) rotate(2.12)"/><rect class="cls-7" x="40.68" y="139.75" width="318" height="11" transform="translate(5.51 -7.29) rotate(2.12)"/><rect class="cls-7" x="40.09" y="155.74" width="318" height="11" transform="translate(6.11 -7.26) rotate(2.12)"/><rect class="cls-7" x="39.49" y="171.73" width="318" height="11" transform="translate(6.7 -7.23) rotate(2.12)"/><rect class="cls-6" x="36.91" y="236.22" width="131" height="18" transform="translate(9.15 -3.62) rotate(2.12)"/><rect class="cls-7" x="36.13" y="262.67" width="318" height="11" transform="translate(10.06 -7.04) rotate(2.12)"/><rect class="cls-7" x="35.53" y="278.66" width="318" height="11" transform="translate(10.65 -7.01) rotate(2.12)"/><rect class="cls-7" x="34.94" y="294.65" width="318" height="11" transform="translate(11.24 -6.97) rotate(2.12)"/><rect class="cls-7" x="34.35" y="310.64" width="318" height="11" transform="translate(11.83 -6.94) rotate(2.12)"/><rect class="cls-6" x="32.06" y="367.13" width="131" height="18" transform="matrix(1, 0.04, -0.04, 1, 13.99, -3.35)"/><rect class="cls-7" x="31.28" y="393.58" width="318" height="11" transform="translate(14.9 -6.77) rotate(2.12)"/><rect class="cls-7" x="30.68" y="409.57" width="318" height="11" transform="translate(15.49 -6.74) rotate(2.12)"/><rect class="cls-7" x="30.09" y="425.56" width="318" height="11" transform="translate(16.09 -6.7) rotate(2.12)"/><rect class="cls-7" x="29.5" y="441.55" width="318" height="11" transform="translate(16.68 -6.67) rotate(2.12)"/></g></svg>