<svg xmlns="http://www.w3.org/2000/svg" viewBox="0 0 382.45 565.42"><defs><style>.cls-1{fill:#412312;opacity:0.23;}.cls-2{fill:#d0ceca;}.cls-3{font-size:25.57px;font-family:MyriadPro-Bold, Myriad Pro;font-weight:700;}.cls-3,.cls-6{fill:#333;}.cls-4{letter-spacing:-0.01em;}.cls-5{letter-spacing:-0.01em;}.cls-7{fill:#989898;}</style></defs><title>pantallas_06a</title><g id="proyecto-03_6a"><polygon class="cls-1" points="3.67 559.86 8.7 5.12 382.45 9.5 377.13 565.42 3.67 559.86"/><polygon class="cls-2" points="0 554.75 5.02 0 378.77 4.39 373.45 560.3 0 554.75"/><text class="cls-3" transform="translate(27.6 47.11) rotate(0.47)"><tspan class="cls-4">P</tspan><tspan class="cls-5" x="14.63" y="0">r</tspan><tspan x="24.14" y="0">opuesta 3</tspan></text><rect class="cls-6" x="26.32" y="83.87" width="128.85" height="17.71" transform="translate(1.34 -1.29) rotate(0.82)"/><rect class="cls-7" x="26.04" y="107.81" width="312.79" height="10.82" transform="translate(1.65 -2.61) rotate(0.82)"/><rect class="cls-7" x="25.81" y="123.54" width="312.79" height="10.82" transform="translate(1.87 -2.6) rotate(0.82)"/><rect class="cls-6" x="24.18" y="161.56" width="128.85" height="17.71" transform="translate(2.46 -1.26) rotate(0.82)"/><rect class="cls-7" x="23.89" y="185.5" width="312.79" height="10.82" transform="translate(2.76 -2.57) rotate(0.82)"/><rect class="cls-7" x="23.67" y="201.24" width="312.79" height="10.82" transform="translate(2.99 -2.57) rotate(0.82)"/><rect class="cls-6" x="22.18" y="241.22" width="128.85" height="17.71" transform="translate(3.6 -1.22) rotate(0.82)"/><rect class="cls-7" x="21.9" y="265.16" width="312.79" height="10.82" transform="translate(3.91 -2.53) rotate(0.82)"/><rect class="cls-7" x="21.67" y="280.9" width="312.79" height="10.82" transform="translate(4.13 -2.53) rotate(0.82)"/><rect class="cls-7" x="21.9" y="367.16" width="312.79" height="10.82" transform="translate(5.37 -2.52) rotate(0.82)"/><rect class="cls-7" x="21.67" y="382.9" width="312.79" height="10.82" transform="translate(5.6 -2.52) rotate(0.82)"/><rect class="cls-7" x="22.46" y="454.02" width="312.79" height="10.82" transform="translate(6.62 -2.52) rotate(0.82)"/><rect class="cls-7" x="22.23" y="469.75" width="312.79" height="10.82" transform="translate(6.85 -2.52) rotate(0.82)"/><rect class="cls-7" x="22.55" y="484.51" width="312.79" height="10.82" transform="translate(7.06 -2.52) rotate(0.82)"/><rect class="cls-7" x="22.33" y="500.24" width="312.79" height="10.82" transform="translate(7.28 -2.52) rotate(0.82)"/><rect class="cls-6" x="22.48" y="339.58" width="128.85" height="17.71" transform="translate(5.02 -1.21) rotate(0.82)"/></g></svg>