<?xml version="1.0" encoding="utf-8"?>
<!-- Generator: Adobe Illustrator 19.1.0, SVG Export Plug-In . SVG Version: 6.00 Build 0)  -->
<svg version="1.1" xmlns="http://www.w3.org/2000/svg" xmlns:xlink="http://www.w3.org/1999/xlink" x="0px" y="0px"
	 viewBox="0 0 504.1 226" style="enable-background:new 0 0 504.1 226;" xml:space="preserve">
<style type="text/css">
	.st0{fill:#F0EEE9;}
	.st1{fill:#333333;}
	.st2{font-family:'Roboto-Black';}
	.st3{font-size:15px;}
	.st4{fill:none;}
	.st5{font-family:'Roboto-Regular';}
	.st6{font-size:11px;}
	.st7{fill:#D1CFCB;}
	.st8{opacity:0.2;fill:#333333;}
	.st9{fill:#81A6BF;}
	.st10{clip-path:url(#SVGID_2_);}
	.st11{fill:#1A1A1A;}
	.st12{fill:#997B5B;}
	.st13{fill:#B3B3B3;}
	.st14{fill:#CCA479;}
	.st15{fill:#3A83B5;}
	.st16{fill:none;stroke:#36739C;stroke-width:2.5578;stroke-miterlimit:10;}
	.st17{opacity:0.46;fill:#2D4454;}
	.st18{fill:#FFFFFF;}
	.st19{opacity:0.16;fill:#2D4454;}
	.st20{fill:#BF8085;}
	.st21{opacity:0.67;fill:#E6E6E6;}
	.st22{fill:none;stroke:#4D4D4D;stroke-width:2.5578;stroke-miterlimit:10;}
	.st23{fill:#36739C;}
	.st24{opacity:0.2;fill:none;stroke:#000000;stroke-width:2.4664;stroke-miterlimit:10;}
	.st25{fill:none;stroke:#7C181F;stroke-width:2.4664;stroke-miterlimit:10;}
</style>
<g id="texto_x5F_06">
	<g>
		<g>
			
				<rect x="164.5" y="19.6" transform="matrix(0.9987 -5.173679e-02 5.173679e-02 0.9987 -3.5922 16.4519)" class="st0" width="303" height="116"/>
			<text transform="matrix(0.9989 -4.769000e-02 4.769000e-02 0.9989 205.7792 45.4683)" class="st1 st2 st3">EDUCACIÓN</text>
			<polygon class="st4" points="205.5,52.6 442.8,42.6 448.5,126.6 209.5,137.6 			"/>
			<text transform="matrix(0.9989 -4.769000e-02 4.769000e-02 0.9989 205.9375 61.9686)" class="st1 st5 st6">Prevención de Adicciones, texto descriptivo</text>
		</g>
	</g>
</g>
<g id="foto_x5F_06">
	<g>
		<path class="st7" d="M190.3,202.8C125.2,197,7,191.8,7,191.8C13,91.9,18,8.5,18,8.5s149.6,13,183.3,11
			C201.3,19.5,188,175,190.3,202.8z"/>
		<polygon class="st8" points="22.1,180.5 182.8,195.3 184.7,36.4 		"/>
		
			<rect x="24.3" y="25.8" transform="matrix(0.9982 6.017605e-02 -6.017605e-02 0.9982 6.5473 -6.0767)" class="st9" width="159.6" height="159.6"/>
		<g>
			<defs>
				
					<rect id="SVGID_1_" x="24.3" y="25.8" transform="matrix(0.9982 6.017605e-02 -6.017605e-02 0.9982 6.5473 -6.0767)" width="159.6" height="159.6"/>
			</defs>
			<clipPath id="SVGID_2_">
				<use xlink:href="#SVGID_1_"  style="overflow:visible;"/>
			</clipPath>
			<g class="st10">
				<path class="st11" d="M96.8,47.2c0,0-21.6-7.9-20,30.3c0,0-2.5,37.9-4.3,38.2c0,0,2.4,0.2,4.1-2.2c0,0-5.1,22,17,26.1
					c0,0,37.6,13.1,40.9-23.4c0-0.4,0.1-0.9,0.1-1.3c2.5-38.1,5.5-43.3,5.2-51.6S108.7,30.5,96.8,47.2z"/>
				<path class="st12" d="M134,100.7c0,0,13.8-4.1-3.7,20.7L134,100.7z"/>
				<path class="st12" d="M78.8,96.2c0,0-13.2-5.9,0.9,21L78.8,96.2z"/>
				<g>
					<polygon class="st13" points="83.7,141.6 122.8,144.2 119.2,156.8 82.9,154.4 					"/>
					<path class="st14" d="M155.4,167.8c-3.1-5.3-38.2-16.2-38.2-16.2l1.8-26.4l-13.4-0.9l-0.4,0l-13.4-0.9l-1.8,26.4
						c0,0-29.4,5.7-33.2,10.6c-3.7,4.9-1.5,22.1-1.5,22.1l46.1,1.4l52.6,6.1C153.9,189.9,158.4,173.1,155.4,167.8z"/>
					<path class="st12" d="M89.9,149.7l1-14.5l27.2,1.8C118.1,137.1,111.2,151.1,89.9,149.7z"/>
					<path class="st14" d="M134.4,98c-2.2,19.5-3.6,33.4-11.1,38.6c-8.3,5.7-15.1,8.4-19.3,8.1c-4.2-0.3-10.6-4.6-20.4-13.4
						c-7.1-6.4-5.2-19.8-4.5-36.7c1.1-29,12.5-46.5,31.3-45.2S137.3,72.1,134.4,98z"/>
					<g>
						<g>
							<path class="st12" d="M98.2,113.8c4.1,3.4,9.8,4.3,14.3,1.1c1.5-1.1,0.1-3.7-1.5-2.5c-3.3,2.4-7.5,2-10.7-0.6
								C98.8,110.5,96.7,112.6,98.2,113.8L98.2,113.8z"/>
						</g>
					</g>
					<g>
						
							<ellipse transform="matrix(0.9978 6.685170e-02 -6.685170e-02 0.9978 6.5695 -5.957)" class="st11" cx="92.3" cy="95.2" rx="2.1" ry="3.4"/>
						
							<ellipse transform="matrix(0.9978 6.685170e-02 -6.685170e-02 0.9978 6.7695 -7.9429)" class="st11" cx="122.1" cy="97.2" rx="2.1" ry="3.4"/>
					</g>
					<polygon class="st13" points="97.5,163.6 97.6,175 88.6,170.1 95,162.9 					"/>
					<polygon class="st13" points="112.8,165.8 112.2,174.3 119.3,170.5 113.7,165 					"/>
					<path class="st15" d="M87.9,168.4l15.5,7.9l17.4-5.7l2.8-19.9l32.7,12.9c0,0,11.8,3.4,10.2,12.6c-1.9,11.1-4,14.3-4,14.3
						L45,181.7c0,0-4.8-18.3,0.5-22.2c5.3-3.9,32.7-10.6,32.7-10.6L87.9,168.4z"/>
					<polyline class="st16" points="123.6,170.6 94.8,178.7 94.3,185.9 					"/>
					<polygon class="st17" points="86,170 88.1,176.9 97.6,163 					"/>
					<polygon class="st18" points="83.8,141.6 97.6,163 81.5,176.5 76.4,147.1 					"/>
					<polygon class="st17" points="112.8,165.8 120.4,179.1 123.4,172.5 					"/>
					<polygon class="st18" points="122.8,144.2 128.1,151 125.5,179.4 112.8,165.8 					"/>
					<polygon class="st19" points="117.5,155.5 129.1,151.5 122.8,144.2 					"/>
					<polygon class="st19" points="90.3,153 77.8,146.5 83.7,141.6 					"/>
					<polygon class="st18" points="96.1,123.3 115.1,124.5 110.3,129.4 100.9,128.3 					"/>
					<g>
						<path class="st20" d="M96.1,123.3c0,0,2.4,5.2,3.8,6s9.6,1.3,11.1,0.7c1.4-0.6,4.2-5.5,4.2-5.5
							C108.7,129.7,102.4,129.6,96.1,123.3z"/>
					</g>
				</g>
				
					<rect x="77.3" y="89.1" transform="matrix(0.9978 6.685170e-02 -6.685170e-02 0.9978 6.5618 -5.8217)" class="st21" width="25.9" height="12.1"/>
				
					<rect x="109.1" y="91.2" transform="matrix(0.9978 6.685170e-02 -6.685170e-02 0.9978 6.7753 -7.9424)" class="st21" width="25.9" height="12.1"/>
				
					<rect x="77.3" y="89.1" transform="matrix(0.9978 6.685170e-02 -6.685170e-02 0.9978 6.5618 -5.8217)" class="st22" width="25.9" height="12.1"/>
				
					<rect x="109.1" y="91.2" transform="matrix(0.9978 6.685170e-02 -6.685170e-02 0.9978 6.7753 -7.9424)" class="st22" width="25.9" height="12.1"/>
				<line class="st22" x1="103.1" y1="98.6" x2="109" y2="99"/>
				<path class="st11" d="M93.4,59.4c0,0,17.4,35.1,46.9,27.7c0,0-4.2-0.7-4.9-2.3c0,0,5.9,1.7,12.4-2.6c0,0-11.1-1.4-14.3-11.6
					c-3.2-10.3-9.6-31.4-39.6-18.9c0,0-16,10-14.4,34.5C79.5,86.2,91.2,77.6,93.4,59.4z"/>
				<path class="st1" d="M111.4,62.5c0,0,8,12.3,21.7,13.6c0,0-2.7-10.6,0.9-14c0,0-1-7.1-7-8.2C127.1,53.9,123.9,63.1,111.4,62.5z"
					/>
				<circle class="st23" cx="103.2" cy="184.3" r="3.7"/>
			</g>
		</g>
		<g>
			<path class="st24" d="M117.3,15.4c-0.2-3.4-0.2-3.3-0.3-3.5c-0.5-0.7-12.4-0.8-13.1-0.1c-0.7,0.7,0.3,22.9,4.7,31.5
				c4.4,8.5,10,6.9,8.1-14.5"/>
			<path class="st25" d="M116.5,15.8c-0.1-2-0.2-3.2-0.3-3.3c-0.5-0.7-12.4-0.8-13.1-0.1c-0.7,0.7,0.3,22.9,4.7,31.5
				c4.4,8.5,10,6.9,8.1-14.5"/>
		</g>
	</g>
</g>
</svg>
