<?xml version="1.0" encoding="utf-8"?>
<!-- Generator: Adobe Illustrator 21.1.0, SVG Export Plug-In . SVG Version: 6.00 Build 0)  -->
<svg version="1.1" xmlns="http://www.w3.org/2000/svg" xmlns:xlink="http://www.w3.org/1999/xlink" x="0px" y="0px"
	 viewBox="0 0 445.5 208.2" style="enable-background:new 0 0 445.5 208.2;" xml:space="preserve">
<style type="text/css">
	.st0{fill:#593F2D;}
	.st1{clip-path:url(#SVGID_2_);}
	.st2{fill:#523A29;}
	.st3{fill:#543928;}
	.st4{opacity:0.3;fill:#42210B;}
	.st5{fill:#C4AB18;}
	.st6{fill:#D3BD18;}
	.st7{fill:#AD9715;}
	.st8{opacity:9.000000e-02;clip-path:url(#SVGID_4_);}
	.st9{fill:#C7B316;}
	.st10{opacity:0.3;fill:#3F2E20;}
	.st11{fill:#FBCA7E;}
	.st12{fill:#FFFFFF;}
	.st13{fill:#E6E6E6;}
	.st14{fill:#333333;}
	.st15{opacity:0.23;fill:#42210B;}
	.st16{fill:#D1CFCB;}
	.st17{fill:#999999;}
	.st18{opacity:0.23;fill:#535353;}
	.st19{fill:#F0EEE9;}
	.st20{fill:#4D4D4D;}
	.st21{opacity:0.2;fill:#333333;}
	.st22{fill:#81A6BF;}
	.st23{clip-path:url(#SVGID_6_);}
	.st24{fill:#1A1A1A;}
	.st25{fill:#997B5B;}
	.st26{fill:#B3B3B3;}
	.st27{fill:#AD8B66;}
	.st28{fill:#3A83B5;}
	.st29{fill:none;stroke:#36739C;stroke-width:2.1425;stroke-miterlimit:10;}
	.st30{opacity:0.46;fill:#2D4454;}
	.st31{opacity:0.16;fill:#2D4454;}
	.st32{fill:#8C5E62;}
	.st33{opacity:0.67;fill:#E6E6E6;}
	.st34{fill:none;stroke:#4D4D4D;stroke-width:2.1425;stroke-miterlimit:10;}
	.st35{fill:#36739C;}
	.st36{opacity:0.2;fill:none;stroke:#000000;stroke-width:2.066;stroke-miterlimit:10;}
	.st37{fill:none;stroke:#7C181F;stroke-width:2.066;stroke-miterlimit:10;}
	.st38{fill:none;}
	.st39{font-family:'ZillaSlab-Medium';}
	.st40{font-size:22px;}
	.st41{clip-path:url(#SVGID_8_);}
	.st42{font-family:'KaushanScript-Regular';}
	.st43{font-size:22.9984px;}
	.st44{opacity:0.23;fill:#412312;}
	.st45{fill:#EDEAE5;}
	.st46{fill:#666666;}
	.st47{fill:#CCCBCB;}
	.st48{display:none;}
	.st49{display:inline;}
	.st50{fill:#51A333;}
	.st51{fill:#3F732E;}
	.st52{fill:none;stroke:#4E4D4D;stroke-width:3.012;stroke-miterlimit:10;}
	.st53{opacity:0.55;}
	.st54{fill:#F0EDE6;stroke:#E6E6E6;stroke-width:4;stroke-miterlimit:10;}
	.st55{fill:#EAE4DA;}
	.st56{fill:#F0EDE6;}
	.st57{fill:none;stroke:#F0EDE6;stroke-linecap:round;stroke-miterlimit:10;}
	.st58{fill:#D3BD18;stroke:#E6E6E6;stroke-width:4;stroke-miterlimit:10;}
	.st59{fill:#BFAB16;}
	.st60{fill:#86272D;stroke:#E6E6E6;stroke-width:4;stroke-miterlimit:10;}
	.st61{fill:#86272D;}
	.st62{fill:#808080;stroke:#E6E6E6;stroke-width:4;stroke-miterlimit:10;}
	.st63{fill:#808080;}
	.st64{fill:#F2F2F2;}
	.st65{fill:#8F6387;}
	.st66{fill:#F2CCC0;}
	.st67{fill:#EAAE99;}
	.st68{fill:none;stroke:#000000;stroke-width:2.0201;stroke-miterlimit:10;}
	.st69{fill:#AD373C;}
	.st70{fill:#669BB3;}
	.st71{opacity:0.44;fill:#F2CCC0;}
	.st72{fill:#6E4C68;}
	.st73{fill:none;stroke:#163D57;stroke-width:7.4071;stroke-miterlimit:10;}
	.st74{fill:#FFFFFF;stroke:#B3B3B3;stroke-width:0.8845;stroke-miterlimit:10;}
	.st75{clip-path:url(#SVGID_10_);}
	.st76{fill:none;stroke:#36739C;stroke-width:1.187;stroke-miterlimit:10;}
	.st77{fill:none;stroke:#4D4D4D;stroke-width:1.187;stroke-miterlimit:10;}
	.st78{fill:#B3B3B3;stroke:#B3B3B3;stroke-width:0.8438;stroke-miterlimit:10;}
	.st79{fill:none;stroke:#B3B3B3;stroke-width:4.0316;stroke-linecap:round;stroke-miterlimit:10;}
	.st80{fill:none;stroke:#B3B3B3;stroke-width:2.419;stroke-linecap:round;stroke-miterlimit:10;}
	.st81{fill:none;stroke:#B3B3B3;stroke-width:2;stroke-miterlimit:10;}
	.st82{fill:#D3BD18;stroke:#E6E6E6;stroke-width:0.7936;stroke-miterlimit:10;}
	.st83{clip-path:url(#SVGID_12_);}
	.st84{clip-path:url(#SVGID_14_);}
	.st85{fill:#B3B3B3;stroke:#B3B3B3;stroke-width:0.8236;stroke-miterlimit:10;}
	.st86{clip-path:url(#SVGID_16_);}
	.st87{clip-path:url(#SVGID_18_);}
	.st88{fill:#497D9E;}
	.st89{clip-path:url(#SVGID_20_);fill:#416F8C;}
	.st90{fill:none;stroke:#FFFFFF;stroke-width:2.4065;stroke-linecap:round;stroke-miterlimit:10;}
	.st91{clip-path:url(#SVGID_22_);fill:#416F8C;}
</style>
<g id="fondo_x5F_05a">
</g>
<g id="carpeta_x5F_05a">
</g>
<g id="lapiz_x5F_05a">
</g>
<g id="proyecto-01_x5F_05a">
</g>
<g id="tarjeta_x5F_05a">
	<g>
		<path class="st18" d="M445.5,88.3l-4.1-78.8L181.7,23c1.4-10.6-17.2,0.6-17.2,0.6c-10,0.3-11.8,7.9-36.6,4.9l0.1-0.8
			c0-2.4,0-2.3-0.1-2.5c-0.3-0.5-8.7-1-9.2-0.6c0,0-0.1,0.1-0.1,0.3c-0.3,0-0.5,0.1-0.5,0.1c-0.1,0.1-0.2,0.9-0.3,2.1
			c-30.8-3.9-99-8-99-8S9.2,100.8,0,182.7c0,0,121.1,18.8,166.7,25.5c-0.1-8.1,2.3-81.6,5.1-105.7L445.5,88.3z"/>
		<g>
			<g>
				
					<rect x="134.8" y="7.8" transform="matrix(0.9987 -5.173679e-02 5.173679e-02 0.9987 -2.0604 14.8766)" class="st19" width="303" height="78.9"/>
				<polygon class="st38" points="194.2,33.9 439,23.4 439,99.8 194.2,110.3 				"/>
				<text transform="matrix(0.9989 -4.769000e-02 4.769000e-02 0.9989 194.817 52.0652)" class="st20 st39 st40">EDUCACIÓN</text>
			</g>
			<g>
				<g>
					<path class="st16" d="M158.6,197c-54.3-7.2-153.1-15.1-153.1-15.1C15,85.8,22.9,5.5,22.9,5.5S147.6,21.7,176,20.6
						C176,20.6,157.9,170.1,158.6,197z"/>
					<polygon class="st21" points="20.9,149.7 154.9,167.1 161.5,34.2 					"/>
					
						<rect x="25" y="22.7" transform="matrix(9.785372e-02 -0.9952 0.9952 9.785372e-02 -6.2825 172.2952)" class="st22" width="133.7" height="133.7"/>
					<g>
						<defs>
							
								<rect id="SVGID_7_" x="25" y="22.7" transform="matrix(9.785372e-02 -0.9952 0.9952 9.785372e-02 -6.2825 172.2952)" width="133.7" height="133.7"/>
						</defs>
						<clipPath id="SVGID_2_">
							<use xlink:href="#SVGID_7_"  style="overflow:visible;"/>
						</clipPath>
						<g class="st1">
							<path class="st24" d="M87.6,40.5c0,0-17.8-7.3-17.7,24.7c0,0-3.3,31.6-4.8,31.8c0,0,2,0.2,3.5-1.7c0,0-4.9,18.2,13.4,22.4
								c0,0,31.1,12.2,34.9-18.3c0-0.4,0.1-0.7,0.1-1.1c3.3-31.8,6-36,6-43C123,48.3,98,26.8,87.6,40.5z"/>
							<path class="st25" d="M117,86.4c0,0,11.7-3-3.7,17.2L117,86.4z"/>
							<path class="st25" d="M71,80.9c0,0-10.8-5.3,0.1,17.6L71,80.9z"/>
							<g>
								<polygon class="st26" points="73.7,119.1 106.2,122.5 102.8,132.9 72.5,129.7 								"/>
								<path class="st27" d="M132.8,143.2c-2.4-4.6-31.5-14.8-31.5-14.8l2.3-22l-11.2-1.2l-0.3,0L80.9,104l-2.3,22
									c0,0-24.8,3.9-28.1,7.8c-3.3,4-1.9,18.5-1.9,18.5l38.5,2.6l43.8,6.8C130.8,161.7,135.2,147.8,132.8,143.2z"/>
								<path class="st25" d="M78.6,126l1.3-12.1l22.7,2.4C102.6,116.3,96.3,127.9,78.6,126z"/>
								<path class="st27" d="M117.4,84.2c-2.4,16.3-4.1,27.8-10.5,31.9c-7.1,4.5-12.9,6.5-16.4,6.2c-3.5-0.4-8.7-4.2-16.6-11.8
									c-5.8-5.6-3.7-16.8-2.6-30.8C73,55.4,83.1,41.1,98.8,42.7S120.7,62.5,117.4,84.2z"/>
								<g>
									<g>
										<path class="st25" d="M86.7,96.3c3.3,3,8.1,3.8,11.9,1.3c1.3-0.9,0.1-3-1.2-2.1c-2.9,1.9-6.4,1.4-8.9-0.9
											C87.2,93.4,85.5,95.2,86.7,96.3L86.7,96.3z"/>
									</g>
								</g>
								<g>
									
										<ellipse transform="matrix(0.1045 -0.9945 0.9945 0.1045 -6.3346 153.8896)" class="st24" cx="82.3" cy="80.5" rx="2.9" ry="1.8"/>
									
										<ellipse transform="matrix(0.1045 -0.9945 0.9945 0.1045 13.3283 180.9516)" class="st24" cx="107.1" cy="83.1" rx="2.9" ry="1.8"/>
								</g>
								<polygon class="st26" points="84.5,137.9 84.2,147.4 76.8,143.1 82.4,137.2 								"/>
								<polygon class="st26" points="97.2,140.2 96.4,147.3 102.5,144.3 98,139.6 								"/>
								<path class="st28" d="M76.3,141.6l12.7,7.1l14.7-4.2l3-16.6l26.9,11.8c0,0,9.8,3.2,8.1,10.9c-2,9.2-3.8,11.8-3.8,11.8
									l-98.1-11c0,0-3.4-15.4,1.1-18.6c4.5-3.1,27.7-7.9,27.7-7.9L76.3,141.6z"/>
								<polyline class="st29" points="106.1,144.6 81.8,150.4 81.1,156.5 								"/>
								<polygon class="st30" points="74.7,142.9 76.2,148.8 84.6,137.4 								"/>
								<polygon class="st12" points="73.7,119.1 84.6,137.4 70.7,148.2 67.3,123.4 								"/>
								<polygon class="st30" points="97.2,140.2 103.2,151.6 105.9,146.1 								"/>
								<polygon class="st12" points="106.2,122.5 110.5,128.3 107.4,152 97.2,140.2 								"/>
								<polygon class="st31" points="101.5,131.8 111.3,128.8 106.2,122.5 								"/>
								<polygon class="st31" points="78.8,128.8 68.5,123 73.7,119.1 								"/>
								<polygon class="st12" points="84.6,104.1 100.4,105.8 96.3,109.7 88.4,108.5 								"/>
								<g>
									<path class="st32" d="M84.6,104.1c0,0,1.9,4.4,3,5.1c1.1,0.7,8,1.4,9.2,1c1.2-0.5,3.7-4.4,3.7-4.4
										C94.9,109.8,89.6,109.6,84.6,104.1z"/>
								</g>
							</g>
							
								<rect x="69.7" y="75.3" transform="matrix(0.9945 0.1045 -0.1045 0.9945 8.8395 -7.9827)" class="st33" width="21.7" height="10.1"/>
							
								<rect x="96.3" y="78.1" transform="matrix(0.9945 0.1045 -0.1045 0.9945 9.2764 -10.7415)" class="st33" width="21.7" height="10.1"/>
							
								<rect x="69.7" y="75.3" transform="matrix(0.9945 0.1045 -0.1045 0.9945 8.8395 -7.9827)" class="st34" width="21.7" height="10.1"/>
							
								<rect x="96.3" y="78.1" transform="matrix(0.9945 0.1045 -0.1045 0.9945 9.2764 -10.7415)" class="st34" width="21.7" height="10.1"/>
							<line class="st34" x1="91.2" y1="83.7" x2="96.1" y2="84.2"/>
							<path class="st24" d="M84.4,50.5c0,0,13.4,30,38.4,24.7c0,0-3.5-0.7-4-2c0,0,4.9,1.6,10.5-1.8c0,0-9.2-1.5-11.6-10.2
								c-2.4-8.7-7-26.6-32.5-17.1c0,0-13.7,7.9-13.1,28.4C71.9,72.6,81.9,65.7,84.4,50.5z"/>
							<path class="st14" d="M99.3,53.7c0,0,6.3,10.5,17.7,12.1c0,0-1.9-9,1.2-11.7c0,0-0.6-6-5.6-7
								C112.7,47.1,109.7,54.6,99.3,53.7z"/>
							
								<ellipse transform="matrix(0.1045 -0.9945 0.9945 0.1045 -75.2243 227.3367)" class="st35" cx="88.6" cy="155.4" rx="3.1" ry="3.1"/>
						</g>
					</g>
					<g>
						<path class="st36" d="M105.8,14.4c-0.1-2.8-0.1-2.8-0.2-2.9c-0.4-0.6-10.3-1.1-11-0.5c-0.6,0.6-0.5,19.2,3,26.5
							c3.4,7.3,8.1,6.1,7.3-11.9"/>
						<path class="st37" d="M105,14.8c0-1.7-0.1-2.7-0.2-2.8c-0.4-0.6-10.3-1.1-11-0.5c-0.6,0.6-0.5,19.2,3,26.5
							c3.4,7.3,8.1,6.1,7.3-11.9"/>
					</g>
				</g>
				<g>
					<text transform="matrix(0.9933 0.1156 -0.1156 0.9933 53.5795 178.0905)" class="st24 st42 st43">JUAN</text>
				</g>
			</g>
		</g>
	</g>
</g>
<g id="proyecto-01_x5F_05b">
</g>
<g id="proyecto-02_x5F_05b" class="st48">
</g>
<g id="proyecto-03_x5F_05b" class="st48">
</g>
<g id="Layer_11">
</g>
<g id="noticia_2">
</g>
<g id="noticia_1_1_">
</g>
<g id="Layer_13">
</g>
</svg>
