<svg xmlns="http://www.w3.org/2000/svg" viewBox="0 0 118.17 118.17"><defs><style>.cls-1{fill:#f2f2f2;}.cls-2{fill:#8f6387;}.cls-3{fill:#b3b3b3;}.cls-12,.cls-4{fill:#f2ccc0;}.cls-5{fill:#999;}.cls-6{fill:#eaae99;}.cls-7{fill:#1a1a1a;}.cls-8{fill:#e6e6e6;opacity:0.67;}.cls-9{fill:none;stroke:#000;stroke-miterlimit:10;stroke-width:2.02px;}.cls-10{fill:#ad373c;}.cls-11{fill:#669bb3;}.cls-12{opacity:0.44;}.cls-13{fill:#6e4c68;}</style></defs><title>menu-lateral-08</title><g id="lapices"><circle class="cls-1" cx="59.08" cy="59.08" r="55.38"/><path class="cls-2" d="M52.22,85.5s-21.59,9.3-23.08,13,.62,9.59.62,9.59L60,114.46l30.86-6.37s2.07-8.13,0-11.18S66,85.87,66,85.87Z"/><path class="cls-3" d="M54.12,18.1c-8.26-6.55-21.62-5.27-28.49,2.72-3.84,4.47-5.32,11.87-1.11,16a18.15,18.15,0,0,0-8.79,18.55A18.15,18.15,0,0,0,30.42,69.7,10.53,10.53,0,0,0,40.08,80c2.52.12,5.32-.64,7.39.8.82.57,1.41,1.42,2.26,1.94,3.81,2.3,7.64-3.6,12.06-4.11,2.89-.34,5.44,1.7,8.08,2.92s6.64,1.09,7.5-1.68A12.28,12.28,0,0,0,93,62.16c5.47-2.58,10.23-7,12.4-12.64s1.44-12.52-2.54-17.08-11.27-6.13-16.42-3A18.41,18.41,0,0,0,53.87,17.92"/><polygon class="cls-4" points="50.75 77.05 53 90.03 60.01 97.73 65.31 89.85 67.67 75.65 50.75 77.05"/><path class="cls-5" d="M19.34,41.31s.77,13.5,12.81,12.07v3.18S17,58.36,17.91,43.45Z"/><path class="cls-6" d="M52.14,85l-1.1-6L67,80S63.94,87.07,52.14,85Z"/><path class="cls-6" d="M83.66,55.06s1.81-2.66,3.27.84S85.32,65.45,82.12,67s-1.86-2.15-1.86-2.15Z"/><path class="cls-5" d="M76.06,71.51s-3.13,2.83,1.31,8.32a4.76,4.76,0,0,1-.61,1.21,3.26,3.26,0,0,1-1.12.72,8.09,8.09,0,0,1-3.15-6.89S73.48,70.17,76.06,71.51Z"/><path class="cls-5" d="M46.27,80.2s2.78-.9,1.7-7.12l2.36,3.39s1.35,3.57-1.68,5.31Z"/><path class="cls-6" d="M32.76,51.47s-3.47.14-2.63,5.15,5,9,5,9S36.67,54,32.76,51.47Z"/><path class="cls-4" d="M85.35,56.56c0,13.19-20.84,26.62-26.32,26.62S32.15,69.75,32.15,56.56s11.91-23.89,26.6-23.89S85.35,43.37,85.35,56.56Z"/><ellipse class="cls-7" cx="48.65" cy="58.94" rx="1.68" ry="2.69"/><ellipse class="cls-7" cx="68.17" cy="58.94" rx="1.68" ry="2.69"/><circle class="cls-8" cx="44.94" cy="55.57" r="11.45"/><circle class="cls-8" cx="72.21" cy="55.91" r="11.45"/><circle class="cls-9" cx="44.94" cy="55.57" r="11.45"/><circle class="cls-9" cx="72.21" cy="55.91" r="11.45"/><path class="cls-10" d="M53.36,74.76a5.8,5.8,0,0,1,5.39-3.37,4.51,4.51,0,0,1,4.71,3.37H53.36Z"/><path class="cls-10" d="M58.41,77.79c2.69,0,4.1-3,4.1-3l-4.1-1.68-4.26,1.68A4.44,4.44,0,0,0,58.41,77.79Z"/><path class="cls-6" d="M56.82,63.53a2,2,0,0,1,1.46-2.76,2,2,0,0,1,1.93,2.63c-.39,1.24,1.56,1.77,1.95.54a4.08,4.08,0,0,0-3.88-5.19,4,4,0,0,0-3.41,5.33c.43,1.22,2.39.69,1.95-.54Z"/><path d="M57.7,56.17c.14-.39.28-.93.77-.94.65,0,1.17.66,1.42,1.18.57,1.17,2.31.15,1.74-1a3.73,3.73,0,0,0-3.36-2.17c-1.42.09-2.09,1.21-2.52,2.42s1.51,1.75,1.95.54Z"/><path class="cls-5" d="M43.67,37.82a9.7,9.7,0,0,1-4.91-5.41c-2.41-6.06.45-13.47,5.85-17.15s12.7-3.85,18.74-1.38a18.23,18.23,0,0,1,7.16,5c2.3,2.76,3.49,6.27,4.4,9.74a10,10,0,0,0,1.24,3.26,3.15,3.15,0,0,0,3,1.48,1.91,1.91,0,0,0,1.43-2.62c2.74,2.83,1.64,7.93-1.43,10.42S71.79,44,67.87,43.62a33.63,33.63,0,0,1-16-6.16,10.81,10.81,0,0,0-3.64-2.07,3.06,3.06,0,0,0-3.58,1.48"/><path class="cls-5" d="M36.29,43.77s-9.75,3.81-11.77-7L23,37.7c-.14.1-1.5,1.05-1.47,1.23.35,1.84,2.75,12.17,11.94,10.13Z"/><circle class="cls-11" cx="33.84" cy="67.65" r="2.81"/><circle class="cls-11" cx="83.65" cy="67.65" r="2.81"/><path class="cls-12" d="M31.82,68.3a2.17,2.17,0,0,1,2.4-2.68A5,5,0,0,0,31.82,68.3Z"/><path class="cls-12" d="M81.59,68.3A2.17,2.17,0,0,1,84,65.63,5,5,0,0,0,81.59,68.3Z"/><path class="cls-5" d="M82.12,45.16s5.65-3.37,4.27-15.67l2.82-1.22s6.21,13.14-5.56,19.88Z"/><path class="cls-5" d="M84.74,51.47s16.93-3.05,15.5-21.28l2.57,2.25s2.23,20-17.47,21.65Z"/><path class="cls-13" d="M52.22,85.5S38.43,91.4,33,94.56s-5.11,5-4.79,8.35.66,5.18.66,5.18L57.79,114,60,97.73,53,90Z"/><circle class="cls-13" cx="60.95" cy="105.09" r="0.97"/></g></svg>