<svg xmlns="http://www.w3.org/2000/svg" viewBox="0 0 132.95 92.5"><defs><style>.cls-1,.cls-2{fill:gray;}.cls-1{stroke:#e6e6e6;stroke-miterlimit:10;stroke-width:4px;}.cls-3{fill:#b3b3b3;}</style></defs><title>menu-lateral</title><g id="lapices"><path class="cls-1" d="M76.92,73.76l52.24-41.88L122.78,29l0-.14-.74-.18-1.3-.59-.25.2L47.54,10l0-.22A2,2,0,0,0,46.09,8.3L40.31,6.74C29.61,1.55,20.59.62,13.49,4c-9,4.23-11.34,13.7-11.43,14.1a2,2,0,0,0,2.29,2.38c4.58-.92,30.76-6.82,34.82-7.73l6.37,1.82a1.94,1.94,0,0,0,2.42-1.37l69.7,17.42L66.49,71.69a121.36,121.36,0,0,0-14.06-.77c-15.46,0-28.13,2.59-29.28,5.88h-.1V85.6S26,90.5,52.44,90.5s29.38-4.9,29.38-4.9V76.79h-.1C81.33,75.67,79.62,74.64,76.92,73.76ZM121.2,31.49l2.39,1.08L73.39,72.82c-.91-.2-1.89-.39-2.92-.56Z"/><path class="cls-2" d="M23.06,85.6V76.79H81.82V85.6s-2.94,4.9-29.38,4.9S23.06,85.6,23.06,85.6Z"/><ellipse class="cls-3" cx="52.44" cy="77.28" rx="29.38" ry="6.37"/><polygon class="cls-3" points="68.04 80.87 66.21 78.58 123.59 32.58 121.2 31.49 67.07 75 65.23 72.71 120.77 28.07 129.16 31.88 68.04 80.87"/><rect class="cls-3" x="77.9" y="-24.92" width="2.94" height="88.83" transform="translate(41.2 91.77) rotate(-75.96)"/><path class="cls-2" d="M48,12.26,47.5,9.81A2,2,0,0,0,46.09,8.3L40.31,6.74C29.61,1.55,20.59.62,13.49,4c-9,4.23-11.34,13.7-11.43,14.1a2,2,0,0,0,2.29,2.38c4.58-.92,30.76-6.82,34.82-7.73l6.37,1.82A2,2,0,0,0,48,12.26Z"/></g></svg>