<svg version="1.1" xmlns="http://www.w3.org/2000/svg" xmlns:xlink="http://www.w3.org/1999/xlink" x="0px" y="0px"
	 viewBox="0 0 169.7 138.3" style="enable-background:new 0 0 169.7 138.3;" xml:space="preserve">
<style type="text/css">
	.st0{fill:#51A333;}
	.st1{fill:#3F732E;}
	.st2{fill:none;stroke:#4E4D4D;stroke-width:3.012;stroke-miterlimit:10;}
	.st3{fill:none;}
	.st4{fill:#333333;}
	.st5{font-family:'Roboto-Regular';}
	.st6{font-size:14px;}
	.st7{fill:#93272D;}
</style>
<g id="fondo_x5F_verde">
	<path class="st0" d="M156.8,0L3.2,2.5C12.1,93.7,0,138.3,0,138.3l151.1-1.4c0,0,12.8-7.1,17.1-22.8C171.7,101.4,156.8,0,156.8,0z"
		/>
	<path class="st1" d="M156.8,104.1c0.4-0.2,11.4,0,12.8,4.3c0,0,0,10-5.7,17.1c-8.2,10.3-12.8,11.4-12.8,11.4S166.8,124,156.8,104.1
		z"/>
	<rect x="77" y="67" class="st2" width="54.2" height="54.2"/>
</g>
<g id="texto_x5F_postit">
	<rect x="15.7" y="14.6" class="st3" width="132.6" height="46.7"/>
	<text transform="matrix(1 0 0 1 15.6839 25.1144)"><tspan x="0" y="0" class="st4 st5 st6">¿Esta es la propuesta </tspan><tspan x="0" y="19" class="st4 st5 st6">que selecccionás?</tspan></text>
</g>
<g id="tilde">
	<path class="st7" d="M72.7,70.1l0.3,0.1l0.1,0.1l0.3,0.1l0.4,0.2c0.3,0.1,0.5,0.2,0.7,0.3c0.4,0.2,0.8,0.4,1.2,0.6
		c0.8,0.4,1.5,0.8,2.1,1.3c1.3,0.9,2.6,1.8,3.7,2.7c2.3,1.9,4.3,3.9,6.2,6c3.6,4.2,6.5,8.8,8.8,13.4c2.3,4.6,4,9.4,5.4,14.2
		c1.3,4.8,2.3,9.6,2.9,14.3l-0.9,0.2v0c-0.4-4.3-0.4-8.6-0.2-13c0.2-4.3,0.6-8.7,1.3-13c1.3-8.7,3.6-17.3,7-25.6
		c3.4-8.3,8-16.4,13.8-23.6c5.8-7.3,12.8-13.7,20.7-19l9.4,16.8c-7,3.1-13.6,7.2-19.5,12.3c-5.9,5.1-11.1,11.3-15.5,18.2
		c-4.4,6.9-7.9,14.4-10.6,22.3c-1.4,4-2.5,8-3.5,12.1c-0.9,4.1-1.7,8.3-2.1,12.5v0l0.6,3l-1.6-2.9c-2.3-4.2-4.8-8.2-7.6-12
		c-2.8-3.7-5.8-7.2-9-10.2c-3.2-3-6.7-5.6-10.3-7.4c-1.8-0.9-3.6-1.7-5.3-2.2c-0.9-0.3-1.7-0.5-2.5-0.6c-0.4-0.1-0.8-0.1-1.1-0.1
		c-0.2,0-0.3,0-0.5,0c-0.1,0-0.1,0-0.1,0c0,0,0,0,0,0l0,0c0,0,0,0,0,0l0.2,0L72.7,70.1z"/>
</g>
</svg>
