<svg xmlns="http://www.w3.org/2000/svg" xmlns:xlink="http://www.w3.org/1999/xlink" viewBox="0 0 274 55"><defs><style>.cls-1{fill:none;}.cls-2{clip-path:url(#clip-path);}.cls-3{fill:#523a29;}.cls-4{fill:#543928;}.cls-5{fill:#497d9e;}.cls-6{clip-path:url(#clip-path-2);}.cls-7{fill:#416f8c;}.cls-8{font-size:29.64px;fill:#fff;font-family:Roboto-Bold, Roboto;font-weight:700;}.cls-9{letter-spacing:-0.01em;}</style><clipPath id="clip-path"><rect class="cls-1" x="-903.56" y="198.96" width="1388.87" height="780.86"/></clipPath><clipPath id="clip-path-2"><rect class="cls-1" x="1.5" y="2" width="271" height="51" rx="8.97" ry="8.97"/></clipPath></defs><title>pantallas_02-objetivos</title><g id="Layer_11" data-name="Layer 11"><g class="cls-2"><path class="cls-3" d="M140.86,28.35l-.33,5.25,4,.23c-2.94,3.12-3.27,6.2-2.67,10.34.75,5.23,0,10.75-.21,16.14-.2,5.08-.62,10.14-.8,15.22-.21,5.9-.28,11.8-.4,17.69l.07,0c-2.25-1-3.29-3-3.34-5.67a86.42,86.42,0,0,1,0-9.81c1.11-11.77.8-23.55.73-35.34A95.63,95.63,0,0,1,139,30.07c.08-.63,1.2-1.1,1.83-1.64Z"/><path class="cls-3" d="M236.1,91.24l-4.66-4.43c2-3.8,3.31-7.64.81-11.74-.33-.54-.92-1.48-.77-1.7,3.32-4.93-2.39-8.87-1.16-13.64.23-.89-1-2.26-1.56-3.49l3-6.41c3.85,4.85,4.23,6.27,4.48,11.39.28,5.47,1.22,10.92,1.26,16.38C237.51,82,236.63,86.41,236.1,91.24Z"/><path class="cls-3" d="M55,66.45c.28-6.88,1.48-13.93.58-20.61-.95-7,.54-13.44.77-21.08,3.75,4.8,3.91,10.08,3,14.69-1.47,7.49-2.69,14.75-1.34,22.44.27,1.51-1.17,3.4-1.82,5.12Z"/><path class="cls-3" d="M193.13,44.43l4.34,14.87c-.07,3.68-4.23,3.51-7.75,6.22.26-7,.42-13,.81-19C190.57,45.85,191.95,45.33,193.13,44.43Z"/><path class="cls-3" d="M33.75,9.09c.5.29,1.45.67,1.42.86-.62,4.41,2.1,8.89-.37,13.34-.54,1,.12,2.92.4,4.37.43,2.28-.16,3.79-2.53,4.63A10.18,10.18,0,0,1,32,29.92c-.05-5.12.87-10.22-.62-15.39C31,13.12,33,10.81,33.91,8.92Z"/><path class="cls-3" d="M140.85,28.43c-.7-5.09-2.88-10.68-1.71-15.15,1.25-4.79-2.62-9.54,1.32-14.74,3.72,10.49.69,20.16.39,29.78A.4.4,0,0,1,140.85,28.43Z"/><path class="cls-3" d="M77.24,67.29l-.52-17.52c.73-1.21,2.26-1.33,3.17.64a12.74,12.74,0,0,1,1.32,6.2A93.33,93.33,0,0,1,79,67.23Z"/><path class="cls-3" d="M83.25,15.22l-4.62.89c.74-3.63,1.77-6.69,1.87-9.79S79.77,0,79.13-4.76C81-3,82-2.47,82.4-1.59,84.57,3.55,82.82,9,83.25,15.22Z"/><path class="cls-3" d="M33.91,8.92c-2.61-6.5-2.84-12.9.6-19.69l-2.35-3.7c3.45-.3,4.51.93,3.95,4.41C35.29-5,34.39.08,33.64,5.16a22,22,0,0,0,.11,3.93Z"/><path class="cls-3" d="M13.09,20.47c2.66,6.26.41,12.47.59,19.77-1.36-1.3-2.74-2.07-2.68-2.66C11.56,31.87,12.36,26.17,13.09,20.47Z"/><path class="cls-3" d="M33.68,34.56c.59,5.08-.26,9.58,1,14.2.72,2.55-.34,3.45-3.56,3.84,0-4.85,2.06-9.55.67-14.51C31.59,37.21,33,35.74,33.68,34.56Z"/><path class="cls-3" d="M111.85,17.4l1,15.61c-4.48-.82-2.25-4.89-2.68-7.32-.47-2.63.18-5.51.34-8.29Z"/><path class="cls-3" d="M168.12,32.87c3.93,3,2.78,8,5,11.3C167.2,40.59,166.87,39.86,168.12,32.87Z"/><path class="cls-3" d="M247.45,23.46c5.51,2.85,6,4.19,4.46,10.45C248.27,31.76,249.3,27.23,247.45,23.46Z"/><path class="cls-3" d="M163.25-11.81c.44.42,1.22.8,1.23,1.21.09,4.06.06,8.13.06,12.86C161.62-2.11,161.33-6.62,163.25-11.81Z"/><path class="cls-3" d="M165.87,13.22c-2.39-2.1-2.29-4.57-1-7.39C167.7,10.15,167.7,10.15,165.87,13.22Z"/><path class="cls-3" d="M207.69,41c2.54,4,2.54,4-1.92,10Z"/><path class="cls-3" d="M230.2,30.81l1.86,8.08C229.41,36.29,229.41,36.29,230.2,30.81Z"/><path class="cls-3" d="M226.63,14.42c1.87,5.5,1.87,5.5-1.15,7.68Z"/><path class="cls-3" d="M216.52,17.76l-2.85,6.37C212.71,20,211.91,17.55,216.52,17.76Z"/><path class="cls-3" d="M246.83,52.52l2,6.45C246.57,57.52,246.57,57.52,246.83,52.52Z"/><path class="cls-3" d="M174.77,39.36l-.87-4.86,1.33-.37,1.3,4.81Z"/><path class="cls-3" d="M12,50.71l.18-4.42C13.8,48.08,13.8,48.08,12,50.71Z"/><path class="cls-3" d="M81.42,33.06c-2.51-1.77-3.2-3.34.19-4.39Z"/><path class="cls-3" d="M147.84,12.41c-.06-1-.14-2-.12-3.07,0-.11.62-.21.95-.32l.63,3Z"/><path class="cls-3" d="M48.45,2.07a13.47,13.47,0,0,1,.66,2.42c0,.44-.37.94-.58,1.42a7.76,7.76,0,0,1-1.67-1.36c-.15-.2.3-1,.47-1.48Z"/><path class="cls-3" d="M174.86,50V52.8l-.7.12-.5-2.74Z"/><path class="cls-3" d="M263.52,27.4l-2.85,2.88C260.55,27.76,260.55,27.76,263.52,27.4Z"/><path class="cls-4" d="M182.39,46.87c-2.15-.5-2.1,3.45-2.43,6.67C182.12,54,182.06,50,182.39,46.87Z"/><path class="cls-4" d="M240.92,51.87c-.83-1.67.39-3.61.39-3.61L241,45.95c-.9.25-.09-.75-.09-.75l.09.75a8,8,0,0,0,1.57-.75,19.37,19.37,0,0,1,.83-8.28c-2.21,0-4.85-.94-5,3.34,2.48,4.94,1.21,6.89,1.21,6.89l.44,3.06c-1.26,1.33-1.7,2.67-1.65,5C239.82,55.26,240.59,53.92,240.92,51.87Z"/><path class="cls-4" d="M186.53,30.31c0,1.61-.66,1.95-.83,3.28,1.33-.17,2.86.22,2.48-3.28Z"/><path class="cls-4" d="M105,30.31c1.6,3.84,5.18-3.39,3.26-6.67C106.16,23.87,105.11,26.09,105,30.31Z"/><path class="cls-4" d="M41.56,40.26q.58-7.83-3.31-6.67C37.87,38.81,39,41,41.56,40.26Z"/><path class="cls-4" d="M166,28.65c1.49,2.11,5.4,8.83,6.57,1.66-2.81.67-2.49-5-4.08-6.67-.23,2-.94,1-1.66,0A14.24,14.24,0,0,1,166,28.65Z"/><path class="cls-4" d="M197.23,33.59c.22,3.16-.94,3.67-.84,6.67C199.22,41.49,199.66,33.93,197.23,33.59Z"/><path class="cls-4" d="M138.76,36.92c-2.32-1.49-7.39-6.06-9.87-1.66l-1.26-.83-.39,2.5c-3.2,2.94,2.54,8.23,0,1.66l1.21-.83,1.27-.83c3.75.17,3.92,7.55,7.39,8.28C136.39,39.93,138.43,40.09,138.76,36.92Z"/><path class="cls-4" d="M82.77,46.87c1.21-4.78-.05-5.17.78-11.61-2.37.67-2.65,5.66-4.09,8.28C82.05,41.65,81.45,46.15,82.77,46.87Z"/><path class="cls-4" d="M259.84,41.87c2,1.61,2.76-7.44,1.66-6.61C261.5,38.53,259.24,37.37,259.84,41.87Z"/><path class="cls-4" d="M6.14,61.81c.11-4.11.11-8-.83-9.94C2.13,50.87,4.1,62.76,6.14,61.81Z"/><path class="cls-4" d="M260.67,58.48c-1.54-.72-1.49-4.72-4.13-3.28.49,2.89-1,9.72.83,9.94C257.64,61.2,260,61.42,260.67,58.48Z"/><path class="cls-4" d="M227.74,17c2.1-.17,3.2-2.39,3.3-6.61-1.15.05-1.81-.78-2.48-1.67C227.51,12.65,228.68,11.82,227.74,17Z"/><path class="cls-4" d="M197.23,20.31V15.37h-2.49v3.28C195.85,18.76,195.91,20.81,197.23,20.31Z"/><path class="cls-4" d="M219.46,3.76C217.87,3,215.27,8.2,217,8.71,216.76,4.87,219.41,6.87,219.46,3.76Z"/><path class="cls-4" d="M250,.42C248,2.1,246.1,3.76,245.83,8.71,248.26,8,249.58,5.21,250,.42Z"/><path class="cls-4" d="M20.16,7H17.67v5Q20.32,12.45,20.16,7Z"/><path class="cls-4" d="M208.76,5.43c-.23,1-2,6.33,0,6.61C209.48,9.09,211.52,6.87,208.76,5.43Z"/><path class="cls-4" d="M241,45.95l-.09-.75S240.11,46.2,241,45.95Z"/></g><rect class="cls-5" x="1.5" y="2" width="271" height="51" rx="8.97" ry="8.97"/><g class="cls-6"><path class="cls-7" d="M266.54,92.61V89.12H266v-.56h-.56V88h-.56v-.56h-.56v-.56h-.56v-.56h-.56v-.56h-.56v-.56h-.56v-.56h-.56v-.56h-.56v-.56h-.56v0h4.7v-3.4h-.56v-.56H264V79h-.56V78.4h-.56v-.56h-.56v-.56h-.56v-.56h-.56v-.56h-.56V75.6h-.56v-.54h6.45V71.54h-.56V71h-.56v-.56h-.56v-.56h-.56V69.3h-.56v-.56h-.56v-.56h-.56v-.56H262v-.56h-.56V66.5h-.56v-.56h-.56v-.56h-.56v-.56h-.56v-.56h-.56v-.56h-.56v-.56h-.56v-.56H257V62h-.56v-.56h-.56v-.56h-.56v-.56h-.56v-.56h-.56v-.56h-.56v-.56h-.56v-.56h-.56v-.56H252V57h-.56v-.56h-.56v-.56h-.56v-.56h-.56v-.56h-.56V54.2h-.56v-.56H248v-.56h-.56v-.56h-.56V52h-.56V51.4h-.56v-.56h-.56v-.56h-.56v-.56h-.56v-.56h-.56V48.6H243V48h-.56v-.56h-.56v-.56h-.56v-.56h-.56v-.56h-.56v-.56h-.56v-.56h-.56v-.56h-.56v-.56H238V43h-.56v-.56h-.56v-.56h-.56v-.56h-.56v-.56h-.56v-.56h-.56v-.56h-.56v-.56h-.56v-.56h-.56V38h-.56v-.56h-.56v-.56h-.56V36.3h-.56v-.56h-.56v-.56h-.56v-.56H229v-.56h-.56V33.5h-.56v-.56h-.56v-.56h-.56v-.56h-.56v-.56h-.56V30.7h-.56v-.56h-.56v-.56H224V29h-.56v-.56h-.56v-.56h-.56v-.56h-.56v-.56h-.56v-.56h-.56v-.56h-.56v-.56h-.56v-.56h-.56V24h-.56v-.56h-.56v-.56h-.56v-.56h-.56v-.56h-.56v-.56h-.56v-.56H215v-.56h-.56v-.56h-.56V19h-.56V18.4h-.56v-.56h-.56v-.56h-.56v-.56h-.56v-.56h-.56V15.6H210V15H195.9v2.8h-.24v-.56h-.56v-.56h-.56v-.56H194v-.56h-.56v-.56H176.26V17.3h-.39v-.56h-.56v-.56h-.56v-.56h-.56v-.56h-4.33V23.6l-.08-.14h-.22l-.34-.56H169l-.34-.56h-.22l-.34-.56h-.22l-.34-.56h-.22l-.34-.56h-.22l-.34-.56h-.22l-.34-.56h-.22l-.34-.56h-.22l-.34-.56h-.22l-.34-.56H164l-.34-.56h-.22l-.34-.56h-.22l-.34-.56h-.22l-.34-.56h-.22l-.34-.56h-4.34v2.8h-.34v-.56h-.56v-.56h-.56V16.2H155v-.56h-.56v-.56h-14.1v4.48h-.11V19h-.56v-.56h-.56v-.56h-.56v-.56H138v-.56h-.56v-.56h-.56v-.56h-.56V15.1H132V19h-.48v-.56H131V17.9h-.56v-.56h-.56v-.56h-.56v-.56h-.56v-.56h-.56V15.1h-4.36v7.84h-.19v-.56h-.56v-.56h-.56v-.56H122v-.56h-.56v-.56h-.56v-.56h-.56V19h-.56v-.56h-.56v-.56h-.56v-.56H118v-.56h-.56v-.56h-.56v-.56h-.56v-.56H112v7.34c-.08-.08-.14-.17-.23-.24l-.07,0a6.38,6.38,0,0,0-.49-.51l-.07,0a6.39,6.39,0,0,0-.49-.51l-.07,0a6.38,6.38,0,0,0-.49-.51l-.07,0a6.38,6.38,0,0,0-.49-.51l-.07,0a6.39,6.39,0,0,0-.49-.51l-.07,0a6.4,6.4,0,0,0-.49-.51l-.07,0a6.38,6.38,0,0,0-.49-.51l-.07,0a6.39,6.39,0,0,0-.49-.51l-.07,0a6.4,6.4,0,0,0-.49-.51l-.07,0a6.38,6.38,0,0,0-.49-.51,10.1,10.1,0,0,0-10.56-.56,7.87,7.87,0,0,0-3.07,3.53c0,.08-.06.17-.09.25v-.23h-.56V19h-.56v-.56h-.56v-.56h-.56v-.56h-.56v-.56h-.56v-.56h-.56v-.56H88v-.56H83.67V22l-.21-.2a6.07,6.07,0,0,0-.56-.56,6.08,6.08,0,0,0-.56-.56,6.07,6.07,0,0,0-.56-.56,6.09,6.09,0,0,0-.56-.56,6.07,6.07,0,0,0-.56-.56,6.07,6.07,0,0,0-.56-.56,6.09,6.09,0,0,0-.56-.56,6.07,6.07,0,0,0-.56-.56,6.6,6.6,0,0,0-2.25-1.67,9.48,9.48,0,0,0-4-.81,10.39,10.39,0,0,0-4,.76,6.27,6.27,0,0,0-2.76,2.09,5.09,5.09,0,0,0-1,3,5.23,5.23,0,0,0,1.88,4,6.54,6.54,0,0,0,.56.56,6.54,6.54,0,0,0,.56.56,6.53,6.53,0,0,0,.56.56,6.54,6.54,0,0,0,.56.56,6.54,6.54,0,0,0,.56.56,6.53,6.53,0,0,0,.56.56,6.55,6.55,0,0,0,.56.56,6.53,6.53,0,0,0,.56.56,6.55,6.55,0,0,0,.56.56,6.55,6.55,0,0,0,.56.56,6.54,6.54,0,0,0,.56.56,6.54,6.54,0,0,0,.56.56,6.53,6.53,0,0,0,.56.56,6.54,6.54,0,0,0,.56.56l.09.11a4.71,4.71,0,0,1-1.92.35c-.29,0-.55,0-.81,0,0,0,0-.05,0-.08H71.5a4.87,4.87,0,0,1,0-.56h-.51a4.86,4.86,0,0,1,0-.56h-.51a4.86,4.86,0,0,1,0-.56h-.51a4.87,4.87,0,0,1,0-.56h-.51a4.86,4.86,0,0,1,0-.56H68.7a4.86,4.86,0,0,1,0-.56H64.3a6,6,0,0,0,2.07,4.72,6.35,6.35,0,0,0,.56.56,6.36,6.36,0,0,0,.56.56A6.36,6.36,0,0,0,68,36a6.35,6.35,0,0,0,.56.56,6.36,6.36,0,0,0,.56.56,6.36,6.36,0,0,0,.56.56,6.36,6.36,0,0,0,.56.56,6.35,6.35,0,0,0,.56.56,6.36,6.36,0,0,0,.56.56,6.36,6.36,0,0,0,.56.56,6.35,6.35,0,0,0,.56.56,6.36,6.36,0,0,0,.56.56,6.36,6.36,0,0,0,.56.56,6.35,6.35,0,0,0,.56.56,6.36,6.36,0,0,0,.56.56,6.36,6.36,0,0,0,.56.56,6.35,6.35,0,0,0,.56.56,6.36,6.36,0,0,0,.56.56,6.36,6.36,0,0,0,.56.56,6.36,6.36,0,0,0,.56.56,6.35,6.35,0,0,0,.56.56,6.36,6.36,0,0,0,.56.56,6.36,6.36,0,0,0,.56.56,6.35,6.35,0,0,0,.56.56,6.36,6.36,0,0,0,.56.56,6.36,6.36,0,0,0,.56.56,6.35,6.35,0,0,0,.56.56A6.36,6.36,0,0,0,82,50a6.36,6.36,0,0,0,.56.56,6.35,6.35,0,0,0,.56.56,6.36,6.36,0,0,0,.56.56,6.36,6.36,0,0,0,.56.56,6.36,6.36,0,0,0,.56.56,6.35,6.35,0,0,0,.56.56,6.36,6.36,0,0,0,.56.56,6.36,6.36,0,0,0,.56.56,6.35,6.35,0,0,0,.56.56,6.36,6.36,0,0,0,.56.56,6.36,6.36,0,0,0,.56.56,6.35,6.35,0,0,0,.56.56,6.36,6.36,0,0,0,.56.56,6.36,6.36,0,0,0,.56.56,6.35,6.35,0,0,0,.56.56,6.36,6.36,0,0,0,.56.56,6.36,6.36,0,0,0,.56.56,6.36,6.36,0,0,0,.56.56,14503.14,14503.14,0,0,1,1.12,1.12,7255.33,7255.33,0,0,0,1.12,1.12,14503.14,14503.14,0,0,1,1.12,1.12,14500.76,14500.76,0,0,1,1.12,1.12,14515,14515,0,0,0,1.12,1.12,7250.58,7250.58,0,0,1,1.12,1.12,14507.89,14507.89,0,0,0,1.12,1.12A14496,14496,0,0,1,101,69a14519.8,14519.8,0,0,1,1.12,1.12,7251.77,7251.77,0,0,0,1.12,1.12,14500.77,14500.77,0,0,1,1.12,1.12,14512.66,14512.66,0,0,0,1.12,1.12,14479.42,14479.42,0,0,0,1.12,1.12,14515,14515,0,0,1,1.12,1.12,7251.77,7251.77,0,0,0,1.12,1.12A14498.39,14498.39,0,0,1,110,78a14515,14515,0,0,1,1.12,1.12,14507.89,14507.89,0,0,0,1.12,1.12,7247,7247,0,0,1,1.12,1.12,14517.4,14517.4,0,0,0,1.12,1.12,14500.77,14500.77,0,0,1,1.12,1.12,14491.27,14491.27,0,0,1,1.12,1.12,7258.9,7258.9,0,0,0,1.12,1.12,14522.17,14522.17,0,0,1,1.12,1.12A14507.9,14507.9,0,0,0,120.07,88a14498.39,14498.39,0,0,0,1.12,1.12,14496,14496,0,0,1,1.12,1.12,7.32,7.32,0,0,0,2.59,1.86,10.77,10.77,0,0,0,4.43.89,9.06,9.06,0,0,0,5.57-1.56,4.94,4.94,0,0,0,1.84-2.65h.08v.56h.56v.56h.56v.56h.56V91h.56v.56h.56v.56h.56v.56h4.34v-8.4l.31.29a14534.08,14534.08,0,0,0,1.12,1.12,7250,7250,0,0,1,1.12,1.12A88505545.83,88505545.83,0,0,1,148.18,88a12645512.08,12645512.08,0,0,1,1.12,1.12,14496,14496,0,0,0,1.12,1.12,7.71,7.71,0,0,0,1.94,1.6,9.41,9.41,0,0,0,4.8,1.19,13.87,13.87,0,0,0,4.75-.78A7.53,7.53,0,0,0,165.22,90V85.49a6.59,6.59,0,0,0,.5.5l0,0a6.57,6.57,0,0,0,.53.53l0,0a6.56,6.56,0,0,0,.53.53l0,0a6.57,6.57,0,0,0,.53.53l0,0a6.57,6.57,0,0,0,.53.53l0,0a6.56,6.56,0,0,0,.53.53l0,0a6.57,6.57,0,0,0,.53.53l0,0a6.57,6.57,0,0,0,.53.53l0,0a6.57,6.57,0,0,0,.53.53l0,0a6.56,6.56,0,0,0,.53.53A8.43,8.43,0,0,0,176.62,93a8.35,8.35,0,0,0,5.91-2,6.45,6.45,0,0,0,1.75-2.76h.33v.56h.56v.56h.56v.56h.56v.56h.56V91h.56v.56H188v.56h.56v.56h4.34V88.19H193v.56h.56v.56h.56v.56h.56v.56h.56V91h.56v.56h.56v.56h.56v.56H211v-2.8h.31v.56h.56V91h.56v.56H213v.56h.56v.56h4.34V84.14l.07.11h.22l.34.56h.22l.34.56h.22l.34.56h.22l.34.56h.22l.34.56H221l.34.56h.22l.34.56h.22l.34.56h.22l.34.56h.22l.34.56h.22l.34.56h.22l.34.56h.22l.34.56h.22l.34.56H226l.34.56h4.34v-9h.05v.56h.56v.56h.56v.56h.56v.56H233v.56h.56V87h.56v.56h.56v.56h.56v.56h.56v.56h.56v.56h.56v.56h.56V91H238v.56h.56v.56h.56v.56h4.34v-9H244v.56h.56v.56h.56v.56h.56v.56h.56v.56h.56V87h.56v.56h.56v.56h.56v.56h.56v.56h.56v.56h.56v.56h.56v.56h.56v.56h.56v.56h.56v.56Z"/></g><text class="cls-8" transform="translate(63.32 36.21) rotate(-0.04)">SIGUIE<tspan class="cls-9" x="91.88" y="0">N</tspan><tspan x="112.39" y="0">TE</tspan></text></g></svg>