<svg xmlns="http://www.w3.org/2000/svg" xmlns:xlink="http://www.w3.org/1999/xlink" viewBox="0 0 121 121"><defs><style>.cls-1,.cls-11,.cls-12,.cls-15{fill:none;}.cls-2{fill:#f2f2f2;}.cls-3{fill:#a67c52;}.cls-4{fill:#4e5c7a;}.cls-5{fill:#f2ccc0;}.cls-6{fill:#eaae99;}.cls-7{fill:#1a1a1a;}.cls-8{fill:#556a99;}.cls-10,.cls-9{fill:#e6e6e6;}.cls-10{opacity:0.38;}.cls-11{stroke:#1a1a1a;stroke-width:2px;}.cls-11,.cls-12,.cls-15{stroke-miterlimit:10;}.cls-12{stroke:#c79482;stroke-linecap:round;stroke-width:3px;}.cls-13{fill:#404b63;}.cls-14{fill:#cc9864;}.cls-15{stroke:#0071bc;stroke-width:7.41px;}.cls-16{clip-path:url(#clip-path);}.cls-17{fill:#523a29;}.cls-18{fill:#543928;}</style><clipPath id="clip-path"><rect class="cls-1" x="-735.56" y="225.96" width="1388.87" height="780.86"/></clipPath></defs><title>pantallas_02-objetivos</title><g id="Layer_11" data-name="Layer 11"><circle class="cls-2" cx="60.62" cy="60.94" r="55.38"/><path class="cls-3" d="M38,44s2,24,1,30l1-1s2,7,7,9c4.64,1.86,21.59,1.74,26,1,6-1,6-8,6-8l1,3,2.18-31.25Z"/><path class="cls-4" d="M50,87s-17.83,9.66-19.32,13.36.62,9.59.62,9.59l30.22,6.37L92.38,110s2.07-8.13,0-11.18S70,87,70,87Z"/><polygon class="cls-5" points="49.29 78.91 51 92 61.17 99.59 70 92 71 77.51 49.29 78.91"/><path class="cls-6" d="M50,87l-1-5,19.52,1.87S63.72,89,50,87Z"/><path class="cls-6" d="M82.2,54.92s1.81-2.66,3.27.84-1.61,9.55-4.81,11.11-1.86-2.15-1.86-2.15Z"/><path class="cls-6" d="M37.29,52.33s-3.47.14-2.63,5.15,5,9,5,9S41.2,54.82,37.29,52.33Z"/><path class="cls-5" d="M82.88,54.92C80,83,72,85,60.67,86,50,84,41,84,38,54.92,38,39.5,48,27,60.44,27S82.88,39.5,82.88,54.92Z"/><ellipse class="cls-7" cx="50.18" cy="55.79" rx="1.68" ry="2.69"/><ellipse class="cls-7" cx="69.71" cy="55.79" rx="1.68" ry="2.69"/><path class="cls-6" d="M58.36,61.39a2,2,0,0,1,1.46-2.76,2,2,0,0,1,1.93,2.63c-.39,1.24,1.56,1.77,1.95.54a4.08,4.08,0,0,0-3.88-5.19,4,4,0,0,0-3.41,5.33c.43,1.22,2.39.69,1.95-.54Z"/><path d="M59.24,53c.14-.39.28-.93.77-.94.65,0,1.17.66,1.42,1.18.57,1.17,2.31.15,1.74-1a3.73,3.73,0,0,0-3.36-2.17c-1.42.09-2.09,1.21-2.52,2.42s1.51,1.75,1.95.54Z"/><path class="cls-8" d="M50,87s-10,6.26-15.41,9.42-5.11,5-4.79,8.35.66,5.18.66,5.18l28.87,5.91,2.22-16.27-10-7.7Z"/><circle class="cls-9" cx="62.49" cy="106.95" r="0.97"/><path class="cls-10" d="M38.5,48.5l19.35-.28S60,63,48.5,62.5C36.56,62,38.5,48.5,38.5,48.5Z"/><path class="cls-10" d="M81.9,49l-19.35-.28S60.36,63.48,71.9,63C83.84,62.5,81.9,49,81.9,49Z"/><path class="cls-11" d="M38.5,48.5l19.35-.28S60,63,48.5,62.5C36.56,62,38.5,48.5,38.5,48.5Z"/><path class="cls-11" d="M81.9,49l-19.35-.28S60.36,63.48,71.9,63C83.84,62.5,81.9,49,81.9,49Z"/><path class="cls-12" d="M54,73a16.49,16.49,0,0,0,13,0"/><path class="cls-3" d="M60,33S58,46,36,49c0,0,2-24,23-25l2,1,1-1s20,4,22,25C84,49,65,49,60,33Z"/><path class="cls-13" d="M61.17,99.59S56,98,53,105l-1-7,5.67-1.4Z"/><path class="cls-4" d="M49.57,84.83S45,87,44,90c2,6,9,15,9,15,4-9,7-6.58,7-6.58S50.13,91.66,49.57,84.83Z"/><polygon class="cls-13" points="63 98 70 105 70 96 63 98"/><path class="cls-4" d="M63,98s6.77-5.21,7.39-11.61c0,0,3.14-.34,6.37,3.63L70,105S66,97,63,98Z"/><path class="cls-14" d="M46,31a46.75,46.75,0,0,0-5,6l3-1.08L47,39l1,3a10.27,10.27,0,0,0,7-6l-5,2S45,35,46,31Z"/><path class="cls-14" d="M66,38s5.72-.85,5.36-7.43C71.36,30.57,76,32,77,38l-3-2s-2,5,0,7C74,43,70,43,66,38Z"/><circle class="cls-15" cx="60.62" cy="60.94" r="55.38"/><g class="cls-16"><path class="cls-17" d="M3.88,90.54l-.7,8.4-.37-8.27Z"/><path class="cls-17" d="M70.6.81,72,5.43l-4.16-2.3Z"/><path class="cls-17" d="M7.24,56.86l.29,3.72-.9.2L5.95,57.1Z"/><path class="cls-17" d="M76,104.93v3.15h-.86v-3.15Z"/><path class="cls-18" d="M11.86,136.92c-1.55-5.83.61-5.44,1.66-9.94-2.59-3.28-3.92-3-7.45-6.67v3.34c-.49.11-.93.27-.77,1.66,1.38-.11,2.1,1.27,2.43,3.33-2.43.61-4,2.89-4.91,6.61C4.3,139.86,9.26,139.14,11.86,136.92Z"/><path class="cls-18" d="M120.2,115.09l1.21,1.95v6.61h1.66V117c-1.66,0-1.21-3.06-1.21-3.06L120.58,112v-4.95h-1.65V112C120.58,112,120.2,115.09,120.2,115.09Z"/><path class="cls-18" d="M11,110.37c-1.11.05-1.82-.78-2.49-1.67a13,13,0,0,1-.82,5C9.6,114.14,10.81,113.31,11,110.37Z"/><path class="cls-18" d="M34.92,98.76c-1.1-2.17-3-2.17-3.31,1.67C32.71,102.59,34.69,102.59,34.92,98.76Z"/><path class="cls-18" d="M120.58,70.53c.39-2.55,2.59-1.39,1.65-6.61C120.42,62.71,118.82,70,120.58,70.53Z"/><path class="cls-18" d="M103.32,63.92c1.93-1.05,3.81-2.22,4.08-6.61C104.86,52.37,104.36,60.87,103.32,63.92Z"/><path class="cls-18" d="M89.3,63.92c1.27-2.5.88-7.39-1.65-6.61C87.43,61.09,87.81,63.54,89.3,63.92Z"/><path class="cls-18" d="M65.42,68.87c-1.6.39-1.81-1.83-3.31-1.61V72.2C64,72.7,65.2,71.81,65.42,68.87Z"/><path class="cls-18" d="M23.39,105.42c-5-1.33-.55,7.56,0,0Z"/><path class="cls-18" d="M112.37,127c-.89-4.22,3.53-5.83.83-8.33C112.92,120.64,109.88,124.92,112.37,127Z"/><path class="cls-18" d="M30.78,9.15c.77-6.33,4.63,1.39,4.14-4.95-1.22-2-3.69-1.44-3.31-6.67-2.87-.89-4.25,1.44-4.92,5C28.57,3.65,28.9,8,30.78,9.15Z"/><path class="cls-18" d="M64.59,12.48c2.54,4.39,5.9-4.44,2.48-6.61C66.8,9.21,64.81,9.1,64.59,12.48Z"/><path class="cls-18" d="M32.43,19.1c1.82.33,2.65-1.34,2.48-4.95C32.71,13,33.31,17.59,32.43,19.1Z"/><path class="cls-18" d="M42.36,58.93c3.92-2.78,6.24,7.22,7.39,0-1.1-1.67-2.47-2.73-3.3-4.94.27-3.39,2.26-3.28,2.48-6.67-2.27-6.11-4.31.5-6.57,3.33C42.42,54.76,43.9,55.76,42.36,58.93Z"/><path class="cls-18" d="M5.29,49c-1,.28-2.37-.28-2.48,1.66.5.11.93.23.83,1.67C4.63,52.09,5.57,51.82,5.29,49Z"/><path class="cls-18" d="M70.33,19.1c3.92-.89,7.06-10.56,5.79-16.56H73.64C73.14,12.43,73.25,13.65,70.33,19.1Z"/></g></g></svg>