<svg xmlns="http://www.w3.org/2000/svg" xmlns:xlink="http://www.w3.org/1999/xlink" viewBox="0 0 122 121"><defs><style>.cls-1,.cls-10,.cls-15{fill:none;}.cls-2{fill:#f2f2f2;}.cls-3{fill:#8f6387;}.cls-4{fill:#66472a;}.cls-13,.cls-5{fill:#f2ccc0;}.cls-6{fill:#7a5532;}.cls-7{fill:#eaae99;}.cls-8{fill:#1a1a1a;}.cls-9{fill:#e6e6e6;opacity:0.67;}.cls-10{stroke:#000;stroke-width:2.02px;}.cls-10,.cls-15{stroke-miterlimit:10;}.cls-11{fill:#ad373c;}.cls-12{fill:#669bb3;}.cls-13{opacity:0.44;}.cls-14{fill:#6e4c68;}.cls-15{stroke:#0071bc;stroke-width:7.41px;}.cls-16{clip-path:url(#clip-path);}.cls-17{fill:#523a29;}.cls-18{fill:#543928;}</style><clipPath id="clip-path"><rect class="cls-1" x="-583.56" y="225.96" width="1388.87" height="780.86"/></clipPath></defs><title>pantallas_02-objetivos</title><g id="Layer_11" data-name="Layer 11"><circle class="cls-2" cx="60.62" cy="60.94" r="55.38"/><path class="cls-3" d="M53.75,87.36s-21.59,9.3-23.08,13,.62,9.59.62,9.59l30.22,6.37L92.38,110s2.07-8.13,0-11.18-24.87-11-24.87-11Z"/><path class="cls-4" d="M55.66,20C47.4,13.41,34,14.69,27.17,22.68c-3.84,4.47-5.32,11.87-1.11,16a18.15,18.15,0,0,0-8.79,18.55A18.15,18.15,0,0,0,32,71.55a10.53,10.53,0,0,0,9.66,10.28c2.52.12,5.32-.64,7.39.8.82.57,1.41,1.42,2.26,1.94,3.81,2.3,7.64-3.6,12.06-4.11,2.89-.34,5.44,1.7,8.08,2.92s6.64,1.09,7.5-1.68A12.28,12.28,0,0,0,94.49,64c5.47-2.58,10.23-7,12.4-12.64s1.44-12.52-2.54-17.08-11.27-6.13-16.42-3A18.41,18.41,0,0,0,55.4,19.78"/><polygon class="cls-5" points="52.29 78.91 54.54 91.89 61.55 99.59 66.85 91.71 69.2 77.51 52.29 78.91"/><path class="cls-6" d="M20.87,43.17s.77,13.5,12.81,12.07v3.18s-15.18,1.8-14.24-13.11Z"/><path class="cls-7" d="M53.67,86.91l-1.1-6,15.94,1S65.48,88.93,53.67,86.91Z"/><path class="cls-7" d="M85.2,56.92s1.81-2.66,3.27.84-1.61,9.55-4.81,11.11-1.86-2.15-1.86-2.15Z"/><path class="cls-6" d="M77.6,73.37s-3.13,2.83,1.31,8.32a4.76,4.76,0,0,1-.61,1.21,3.26,3.26,0,0,1-1.12.72A8.09,8.09,0,0,1,74,76.74S75,72,77.6,73.37Z"/><path class="cls-6" d="M47.81,82.06s2.78-.9,1.7-7.12l2.36,3.39s1.35,3.57-1.68,5.31Z"/><path class="cls-7" d="M34.29,53.33s-3.47.14-2.63,5.15,5,9,5,9S38.2,55.82,34.29,53.33Z"/><path class="cls-5" d="M86.88,58.42C86.88,71.61,66,85,60.56,85S33.68,71.61,33.68,58.42s11.91-23.89,26.6-23.89S86.88,45.23,86.88,58.42Z"/><ellipse class="cls-8" cx="50.18" cy="60.79" rx="1.68" ry="2.69"/><ellipse class="cls-8" cx="69.71" cy="60.79" rx="1.68" ry="2.69"/><circle class="cls-9" cx="46.48" cy="57.43" r="11.45"/><circle class="cls-9" cx="73.75" cy="57.76" r="11.45"/><circle class="cls-10" cx="46.48" cy="57.43" r="11.45"/><circle class="cls-10" cx="73.75" cy="57.76" r="11.45"/><path class="cls-11" d="M54.9,76.62a5.8,5.8,0,0,1,5.39-3.37A4.51,4.51,0,0,1,65,76.62H54.9Z"/><path class="cls-11" d="M59.95,79.65c2.69,0,4.1-3,4.1-3l-4.1-1.68-4.26,1.68A4.44,4.44,0,0,0,59.95,79.65Z"/><path class="cls-7" d="M58.36,65.39a2,2,0,0,1,1.46-2.76,2,2,0,0,1,1.93,2.63c-.39,1.24,1.56,1.77,1.95.54a4.08,4.08,0,0,0-3.88-5.19,4,4,0,0,0-3.41,5.33c.43,1.22,2.39.69,1.95-.54Z"/><path d="M59.24,58c.14-.39.28-.93.77-.94.65,0,1.17.66,1.42,1.18.57,1.17,2.31.15,1.74-1a3.73,3.73,0,0,0-3.36-2.17c-1.42.09-2.09,1.21-2.52,2.42s1.51,1.75,1.95.54Z"/><path class="cls-6" d="M45.21,39.68a9.7,9.7,0,0,1-4.91-5.41c-2.41-6.06.45-13.47,5.85-17.15s12.7-3.85,18.74-1.38a18.23,18.23,0,0,1,7.16,5c2.3,2.76,3.49,6.27,4.4,9.74a10,10,0,0,0,1.24,3.26,3.15,3.15,0,0,0,3,1.48,1.91,1.91,0,0,0,1.43-2.62c2.74,2.83,1.64,7.93-1.43,10.42s-7.34,2.86-11.26,2.44a33.63,33.63,0,0,1-16-6.16,10.81,10.81,0,0,0-3.64-2.07,3.06,3.06,0,0,0-3.58,1.48"/><path class="cls-6" d="M37.83,45.63s-9.75,3.81-11.77-7l-1.49.89c-.14.1-1.5,1.05-1.47,1.23C23.44,42.62,25.85,53,35,50.92Z"/><circle class="cls-12" cx="35.38" cy="69.5" r="2.81"/><circle class="cls-12" cx="85.18" cy="69.5" r="2.81"/><path class="cls-13" d="M33.36,70.16a2.17,2.17,0,0,1,2.4-2.68A5,5,0,0,0,33.36,70.16Z"/><path class="cls-13" d="M83.12,70.16a2.17,2.17,0,0,1,2.4-2.68A5,5,0,0,0,83.12,70.16Z"/><path class="cls-6" d="M83.66,47s5.65-3.37,4.27-15.67l2.82-1.22S97,43.27,85.18,50Z"/><path class="cls-6" d="M86.27,53.33s16.93-3.05,15.5-21.28l2.57,2.25s2.23,20-17.47,21.65Z"/><path class="cls-14" d="M53.75,87.36S40,93.26,34.59,96.42s-5.11,5-4.79,8.35.66,5.18.66,5.18l28.87,5.91,2.22-16.27-7-7.7Z"/><circle class="cls-14" cx="62.49" cy="106.95" r="0.97"/><circle class="cls-15" cx="60.62" cy="60.94" r="55.38"/><g class="cls-16"><path class="cls-17" d="M12.36,35.23,8.29,37.71c-.26-4.42.61-8.94-1-11.6-2.27-3.84,2.34-7.26-.38-10.88.75.37,2.07.62,2.15,1.13.44,2.66,1.29,5.64.65,8C8.63,28.6,10.33,31.51,12.36,35.23Z"/><path class="cls-17" d="M16.33,31.47V44.89C13.75,42.26,13.64,37.83,16.33,31.47Z"/><path class="cls-17" d="M62.33-.06V-11H63L63.49,0Z"/><path class="cls-17" d="M62.39,26.31V17h.7v9.45Z"/><path class="cls-17" d="M22.4,117.67c2.43,2.07,2.25,3.82.28,5.74Z"/><path class="cls-17" d="M98.6,115.39v-6.86l.69,0,.34,6.86Z"/><path class="cls-17" d="M34.69,43.34v5.05a17.23,17.23,0,0,1-1.26-3.05,10.84,10.84,0,0,1,.18-2.2Z"/><path class="cls-17" d="M-1.1,96V91c.46.07,1,.1,1,.17.13,1.68.19,3.36.27,5Z"/><path class="cls-18" d="M55.13,2.54c-1.21,2.94-1.21,10.94.83,9.94,2.31-1.66-.22-7.06,0-9.94L57.17.59l-.38-3.05c1.54-.67,1.48-4.72,4.08-3.28.44-5.22-1.77-6.5,0-10-3.42,0-1.66,9.56-4.91,13.28L54.69-.51Z"/><path class="cls-18" d="M104.55,75.54c2,2.55,2.42-5.66.83-5-.06,1.06-.11,2-.83,1.66Z"/><path class="cls-18" d="M118.57,58.93c-.33,6.22.66,9.78,3.26,9.94C121.11,64.82,121.11,59.32,118.57,58.93Z"/><path class="cls-18" d="M84.81,110.37c.66-.56,1-4.4,0-4.95C82.88,104.31,83,111.86,84.81,110.37Z"/><path class="cls-18" d="M88.89-4.13C86.79-5,85.69-6.9,85.57-.79,87.68.09,88.78,2,88.89-4.13Z"/><path class="cls-18" d="M2.4,34V29.1H.74V34Z"/></g></g></svg>