<svg xmlns="http://www.w3.org/2000/svg" viewBox="0 0 449 276"><defs><style>.cls-1,.cls-17,.cls-4{fill:#f2f2f2;}.cls-1{stroke:#b3b3b3;stroke-width:2px;}.cls-1,.cls-17,.cls-19,.cls-20{stroke-miterlimit:10;}.cls-2{font-size:12px;}.cls-2,.cls-5{font-family:Roboto-Regular, Roboto;}.cls-3{letter-spacing:-0.01em;}.cls-5{font-size:15px;}.cls-6{letter-spacing:-0.02em;}.cls-7{letter-spacing:-0.01em;}.cls-8{letter-spacing:-0.01em;}.cls-9{letter-spacing:-0.01em;}.cls-10{letter-spacing:-0.02em;}.cls-11{letter-spacing:0em;}.cls-12{letter-spacing:-0.01em;}.cls-13{letter-spacing:-0.01em;}.cls-14{fill:gray;}.cls-15{fill:#f7931e;}.cls-16{fill:#c6782a;}.cls-17,.cls-18{stroke:#c6782a;}.cls-18{fill:none;stroke-linecap:round;stroke-linejoin:round;}.cls-19{fill:#999;stroke:#ccc;}.cls-19,.cls-20{stroke-width:0.91px;}.cls-20{fill:#ccc;stroke:#999;}</style></defs><title>notificacion_seguridad_01</title><g id="noticia_1" data-name="noticia 1"><rect class="cls-1" x="-0.12" y="-0.15" width="448.9" height="275.84" rx="27.55" ry="27.55"/><text class="cls-2" transform="translate(92.33 43.67)">Juana Ma<tspan class="cls-3" x="52.89" y="0">r</tspan><tspan x="56.84" y="0">echal</tspan></text><text class="cls-2" transform="translate(92.33 63.67)">@Juana_Ma<tspan class="cls-3" x="66.11" y="0">r</tspan><tspan x="70.06" y="0">echal</tspan></text><circle cx="189" cy="40" r="6"/><path class="cls-4" d="M188.34,42l4.07-11.18h1.8L189,44.71H187.7l-2.34-6h1.77Z"/><text class="cls-5" transform="translate(36 102.25)">Un riesgo que nadie admite públicamente: que <tspan x="0" y="20">integ</tspan><tspan class="cls-6" x="33.18" y="20">r</tspan><tspan x="37.96" y="20">antes de la </tspan><tspan class="cls-7" x="114.32" y="20">P</tspan><tspan x="123.69" y="20">olicía utilicen la facultad de perseguir </tspan><tspan x="0" y="40">la </tspan><tspan class="cls-8" x="15.51" y="40">v</tspan><tspan x="22.68" y="40">enta de d</tspan><tspan class="cls-9" x="84.26" y="40">r</tspan><tspan x="89.19" y="40">oga en baja escala pa</tspan><tspan class="cls-10" x="233.78" y="40">r</tspan><tspan class="cls-11" x="238.56" y="40">a </tspan><tspan class="cls-12" x="250.43" y="40">v</tspan><tspan x="257.59" y="40">oltear un kiosco </tspan><tspan x="0" y="60">en beneficio del competidor; o que les o</tspan><tspan class="cls-9" x="264.63" y="60">t</tspan><tspan x="269.39" y="60">o</tspan><tspan class="cls-13" x="277.94" y="60">r</tspan><tspan x="282.88" y="60">gue más </tspan><tspan x="0" y="80">poder y acceso a información calificada que podría ser </tspan><tspan x="0" y="100">utilizada por algunos con fines ilíci</tspan><tspan class="cls-9" x="229.93" y="100">t</tspan><tspan x="234.68" y="100">os. </tspan></text><path class="cls-14" d="M48,254.75v-2.86l1.35.49a18.13,18.13,0,0,1-2.85-5.13,18.12,18.12,0,0,1-2.85,5.13l1.35-.49v5.86H60.48v-3H48Z"/><path class="cls-14" d="M57.48,250.11l-1.35-.49A18.13,18.13,0,0,1,59,254.75a18.12,18.12,0,0,1,2.85-5.13l-1.35.49v-5.86H45v3H57.48Z"/><path class="cls-14" d="M84.63,251.27h0a4.16,4.16,0,0,0,1-2.77,3.86,3.86,0,0,0-3.7-4,3.7,3.7,0,0,0-3.39,2.41,3.7,3.7,0,0,0-3.39-2.41,3.86,3.86,0,0,0-3.7,4,4.16,4.16,0,0,0,1,2.77h0c.08.08.16.16.25.23L78.58,257l5.84-5.53.18-.17Z"/><path class="cls-14" d="M101.22,245.75l.49-1.35a18.12,18.12,0,0,1-5.13,2.85,18.13,18.13,0,0,1,5.13,2.85l-.49-1.35h6.34v7.5h3v-10.5Z"/><path class="cls-15" d="M412,51c0,7.18-10,8-10,8s-10-.82-10-8,0-18,10-18S412,43.82,412,51Z"/><polygon class="cls-16" points="414 37 408 37 411.44 39.7 414 37"/><polygon class="cls-16" points="390 37 396 37 392.56 39.7 390 37"/><circle class="cls-17" cx="397" cy="42" r="5"/><circle class="cls-17" cx="407" cy="42" r="5"/><path class="cls-4" d="M402,49s0-2-3-2c0,0,3-4,6,0C405,47,402,47,402,49Z"/><circle class="cls-15" cx="397" cy="42" r="2"/><circle class="cls-15" cx="407" cy="42" r="2"/><circle class="cls-16" cx="400" cy="58" r="1"/><circle class="cls-16" cx="398" cy="58" r="1"/><circle class="cls-16" cx="396" cy="58" r="1"/><circle class="cls-16" cx="408" cy="58" r="1"/><circle class="cls-16" cx="406" cy="58" r="1"/><circle class="cls-16" cx="404" cy="58" r="1"/><path class="cls-18" d="M394,46s1.68,7,0,9.75"/><path class="cls-18" d="M410.36,46s-1.68,7,0,9.75"/><rect class="cls-19" x="36.5" y="28.5" width="40.89" height="40.89"/><path class="cls-20" d="M55.5,35.5c-4,0-7,4-7,8s1,8,3,9,0,3-4,5-6.79,10.89-6.79,10.89H69.6s.9-5.89-5.1-10.89c0,0-8-2-6-4s5-5,4-11S55.5,35.5,55.5,35.5Z"/></g></svg>