<svg xmlns="http://www.w3.org/2000/svg" xmlns:xlink="http://www.w3.org/1999/xlink" viewBox="0 0 585 628">
    <defs>
        <style>
            @font-face {
            font-family: 'Roboto-Medium';
            font-style: normal;
            font-weight: 400;
            src: local('Roboto-Medium'), local('Roboto-Regular'), local('Roboto'), url(https://fonts.gstatic.com/s/roboto/v16/RxZJdnzeo3R5zSexge8UUVtXRa8TVwTICgirnJhmVJw.woff2) format('woff2');
            unicode-range: U+0000-00FF, U+0131, U+0152-0153, U+02C6, U+02DA, U+02DC, U+2000-206F, U+2074, U+20AC, U+2212, U+2215;
            }
            .cls-1,.cls-10,.cls-11,.cls-47,.cls-49,.cls-57,.cls-76,.cls-8,.cls-82,.cls-83{fill:none;}.cls-2{isolation:isolate;}.cls-3{clip-path:url(#clip-path);}.cls-4{opacity:0.09;mix-blend-mode:multiply;}.cls-5{fill:#c7b316;}.cls-36,.cls-45,.cls-6{fill:#fff;}.cls-10,.cls-11,.cls-6,.cls-7,.cls-8{stroke:#b3b3b3;}.cls-10,.cls-11,.cls-24,.cls-45,.cls-47,.cls-49,.cls-56,.cls-57,.cls-6,.cls-7,.cls-76,.cls-8,.cls-81,.cls-82,.cls-83{stroke-miterlimit:10;}.cls-6{stroke-width:0.88px;}.cls-41,.cls-7{fill:#b3b3b3;}.cls-7{stroke-width:0.84px;}.cls-10,.cls-47,.cls-76,.cls-8,.cls-83{stroke-linecap:round;}.cls-8{stroke-width:4.03px;}.cls-9{fill:#f2f2f2;}.cls-10{stroke-width:2.42px;}.cls-11{stroke-width:2px;}.cls-12{font-size:15px;font-family:Roboto-Regular, Roboto;}.cls-13{letter-spacing:-0.05em;}.cls-14{letter-spacing:0.02em;}.cls-15{letter-spacing:-0.01em;}.cls-16{letter-spacing:-0.01em;}.cls-17{letter-spacing:-0.02em;}.cls-18{letter-spacing:-0.01em;}.cls-19{letter-spacing:-0.01em;}.cls-20{letter-spacing:-0.03em;}.cls-21{letter-spacing:-0.01em;}.cls-22{letter-spacing:0em;}.cls-23{letter-spacing:-0.01em;}.cls-24,.cls-26{fill:#d3bd18;}.cls-24,.cls-47{stroke:#e6e6e6;}.cls-24{stroke-width:0.79px;}.cls-25{fill:#bfab16;}.cls-27{font-size:12px;}.cls-27,.cls-50,.cls-53{font-family:Roboto-Bold, Roboto;font-weight:700;}.cls-28{fill:#be637c;}.cls-29{clip-path:url(#clip-path-2);}.cls-30,.cls-60,.cls-84{fill:#333;}.cls-30{opacity:0.2;}.cls-31{fill:#447360;}.cls-32{clip-path:url(#clip-path-3);}.cls-33,.cls-38{fill:#101c47;}.cls-34{fill:#999;}.cls-35{fill:#162661;}.cls-37{fill:#f2ccc0;}.cls-38{opacity:0.6;}.cls-39{fill:#93321e;}.cls-40{fill:#692415;}.cls-42{fill:#1a1a1a;}.cls-43{fill:#eaae99;}.cls-44{letter-spacing:-0.02em;}.cls-45,.cls-56,.cls-57{stroke:#4d4d4d;}.cls-45{stroke-width:0.9px;}.cls-46{fill:#662d91;}.cls-47,.cls-49{stroke-width:2.7px;}.cls-48{fill:#e6e6e6;}.cls-49{stroke:#512473;}.cls-50{font-size:11.23px;}.cls-50,.cls-53,.cls-59{fill:#93278f;}.cls-51{letter-spacing:-0.01em;}.cls-52{letter-spacing:0em;}.cls-53{font-size:11.71px;}.cls-54{clip-path:url(#clip-path-4);}.cls-55{fill:#b0a29b;}.cls-56{fill:#c8d6d5;}.cls-56,.cls-57{stroke-width:0.5px;}.cls-58{fill:#a67c52;}.cls-60{font-size:17px;font-family:Roboto-Medium, Roboto;}.cls-61{letter-spacing:0.01em;}.cls-62{letter-spacing:-0.01em;}.cls-63{letter-spacing:-0.01em;}.cls-64{letter-spacing:-0.01em;}.cls-65{letter-spacing:0em;}.cls-66{letter-spacing:-0.01em;}.cls-67{letter-spacing:-0.02em;}.cls-68{letter-spacing:-0.01em;}.cls-69{letter-spacing:-0.01em;}.cls-70{clip-path:url(#clip-path-5);}.cls-71{fill:#c7b299;}.cls-72{fill:#4d4d4d;}.cls-73{fill:#826141;}.cls-74{fill:#603813;}.cls-75{fill:#9e4b85;}.cls-76{stroke:#eaae99;stroke-width:2.38px;}.cls-77{fill:#8c6239;}.cls-78{fill:#754c24;}.cls-79{fill:#9c1f24;}.cls-80{fill:#c15155;}.cls-81{fill:#d0fbff;opacity:0.3;}.cls-81,.cls-82,.cls-83{stroke:#333;}.cls-85,.cls-86{fill:#705338;}.cls-86{opacity:0.4;}.cls-87{opacity:0.37;}.cls-88{fill:#315c45;}.cls-89{fill:#2b523d;}.cls-90{fill:#254735;}</style>
        <clipPath id="clip-path">
            <path class="cls-1" d="M486.12,1858.61l-19-694c-219,13.94-542.11,14-545,14v-.31l-517.69-13.9-27.69,19.75-1.19,151,26.24,14.84-7.41,499.52c141-6.49,522.71,14.09,522.71,14.09v-.54C-76,1862.79,202.67,1851.7,486.12,1858.61Z"/>
        </clipPath>
        <clipPath id="clip-path-2">
            <ellipse class="cls-1" cx="68.42" cy="121.65" rx="36.58" ry="38.14"/>
        </clipPath>
        <clipPath id="clip-path-3">
            <rect class="cls-1" x="29.53" y="82.38" width="79.64" height="79.64" transform="translate(-55.02 187.57) rotate(-88.15)"/>
        </clipPath>
        <clipPath id="clip-path-4">
            <rect class="cls-1" x="129.25" y="298.85" width="31.11" height="26.15"/>
        </clipPath>
        <clipPath id="clip-path-5">
            <rect class="cls-1" x="130.33" y="331.67" width="265.34" height="211.33"/>
        </clipPath>
    </defs>
    <title>notificacion_seguridad_03</title>
    <g class="cls-2" transform="translate(0 -58)">
        <g id="carpeta_05a">
            <rect class="cls-45" x="118" y="261" width="295.83" height="401"/>
            <rect class="cls-46" x="124.46" y="267.53" width="281.9" height="29.04"/>
            <polyline class="cls-47" points="144.13 276.02 137.52 282.03 144.44 287.46"/>
            <path class="cls-47" d="M394,283.23a5.41,5.41,0,1,1-5.41-5.41"/>
            <polygon class="cls-48" points="387.92 274.44 388.64 281.1 393.66 277.41 387.92 274.44"/>
            <line class="cls-49" x1="369.41" y1="267.53" x2="369.41" y2="296.57"/>
            <line class="cls-49" x1="160.35" y1="267.53" x2="160.35" y2="296.57"/>
            <text class="cls-50" transform="translate(163.6 316.91)">
                Juan Manuel Girisso –
                <tspan class="cls-51" x="116.2" y="0">F</tspan>
                <tspan class="cls-52" x="122.23" y="0">undación </tspan>
            </text>
            <text class="cls-53" transform="translate(149.79 559.41)">3.000</text>
            <g class="cls-54">
                <rect class="cls-34" x="129.25" y="298.85" width="31.11" height="26.15"/>
                <polygon class="cls-55" points="126 320 164 320 167 328 123 328 126 320"/>
                <rect class="cls-56" x="132" y="306" width="13" height="6"/>
                <line class="cls-57" x1="138.5" y1="312" x2="138.5" y2="306"/>
                <line class="cls-57" x1="132" y1="309.5" x2="145" y2="309.5"/>
                <rect class="cls-58" x="149" y="303" width="8" height="17"/>
                <rect class="cls-56" x="151" y="305" width="4" height="5"/>
                <line class="cls-57" x1="126" y1="320" x2="164" y2="320"/>
            </g>
            <path class="cls-59" d="M142.13,555.35h0a3.75,3.75,0,0,0,.94-2.5,3.48,3.48,0,0,0-3.33-3.6,3.33,3.33,0,0,0-3.05,2.17,3.33,3.33,0,0,0-3.05-2.17,3.48,3.48,0,0,0-3.33,3.6,3.75,3.75,0,0,0,.94,2.5h0c.07.08.15.14.22.21l5.22,4.94,5.26-5,.17-.16Z"/>
            <text class="cls-60" transform="translate(132.42 580.13)">
                Los Consejos barriales si
                <tspan class="cls-61" x="190.8" y="0">r</tspan>
                <tspan class="cls-62" x="196.93" y="0">v</tspan>
                <tspan x="205.23" y="0">en pa</tspan>
                <tspan class="cls-63" x="246.81" y="0">r</tspan>
                <tspan x="252.54" y="0">a </tspan>
                <tspan x="0" y="20">discutir el p</tspan>
                <tspan class="cls-64" x="88.53" y="20">r</tspan>
                <tspan x="94.35" y="20">esupues</tspan>
                <tspan class="cls-63" x="158.6" y="20">t</tspan>
                <tspan class="cls-65" x="164.01" y="20">o </tspan>
                <tspan x="0" y="40">pa</tspan>
                <tspan class="cls-14" x="18.77" y="40">r</tspan>
                <tspan x="25.16" y="40">ticipati</tspan>
                <tspan class="cls-66" x="77.16" y="40">v</tspan>
                <tspan class="cls-65" x="85.44" y="40">o, pe</tspan>
                <tspan class="cls-67" x="121.78" y="40">r</tspan>
                <tspan class="cls-65" x="127.46" y="40">o nunca pa</tspan>
                <tspan class="cls-68" x="210.82" y="40">r</tspan>
                <tspan x="216.55" y="40">a </tspan>
                <tspan x="0" y="60">medir el deli</tspan>
                <tspan class="cls-69" x="93.16" y="60">t</tspan>
                <tspan x="98.56" y="60">o. #cont</tspan>
                <tspan class="cls-67" x="161.28" y="60">r</tspan>
                <tspan x="166.96" y="60">olciudadano</tspan>
            </text>
            <g class="cls-70">
                <rect class="cls-71" x="125.79" y="318.27" width="310.69" height="239.24"/>
                <path class="cls-72" d="M196.4,422s7-6.39,13-3.58,26.93,10,35.09,3.58c0,0-5.38-2.55-5.13-6.39s-32.77-26.24-46.51-1.53c0,0-7.05,4.34-10,10-2.61,5-17.25,30.68-.43,49.19C182.39,473.19,178.77,431.4,196.4,422Z"/>
                <path class="cls-72" d="M237.73,419.4s16.53,3.68,16.47,27.9c0,0,1.89,18.38-6.3,29.28C247.9,476.58,250.18,435.75,237.73,419.4Z"/>
                <polygon class="cls-33" points="183.74 482.98 250.54 480.24 253.28 487.56 182.82 492.13 183.74 482.98"/>
                <path class="cls-35" d="M143,529.19s-1.83-31.11,54-46.67h41.18s43.92,1.83,55.82,45.75l-6,27.89-133.24-1.72Z"/>
                <polygon class="cls-36" points="188.11 485.3 179.16 492.13 187.4 507.69 189.4 557.61 248 560.96 251.45 501.28 253.28 486.64 245.5 482.07 188.11 485.3"/>
                <path class="cls-37" d="M185.57,443.64s-.92-7.32-4.58-6.41-4.58,10.07-3.66,13.73,4.58,11.9,4.58,11.9Z"/>
                <polygon class="cls-37" points="208.47 501.46 216.03 516.22 225.83 500.58 240.09 488.12 235.67 482.07 192.55 486.81 203.87 500.71 208.47 501.46"/>
                <path class="cls-43" d="M232.23,500.71s-16,5.44-28.37,0l-4.58-5.62,12.26-4.82S231.79,487.38,232.23,500.71Z"/>
                <path class="cls-38" d="M248.72,485.09s-4.12,14.87-.46,40.24l8.24-35.94-2.8-6.86-5.43-.46Z"/>
                <path class="cls-37" d="M251.45,451.87c4.8,24.81-15.77,45.75-35.23,45.75S174.68,476.34,181,451.87c7.32-28.37,15.77-45.75,35.23-45.75S246,423.51,251.45,451.87Z"/>
                <path class="cls-37" d="M249.64,443.64s0-3.66,2.73-4.58,5.49,3.66,3.66,12.81-5.49,12.81-6.41,11S249.65,443.64,249.64,443.64Z"/>
                <path class="cls-38" d="M188.31,485.73s4.58,25.62,1.83,44.84l-8.86-40.05,5.66-7.53Z"/>
                <ellipse class="cls-42" cx="209.58" cy="444.64" rx="2.29" ry="3.66"/>
                <ellipse class="cls-42" cx="236.12" cy="444.64" rx="2.29" ry="3.66"/>
                <path class="cls-43" d="M216,478.37a83.22,83.22,0,0,0,14.2-.64c1.73-.23,1.75-3,0-2.75a83.22,83.22,0,0,1-14.2.64c-1.77-.07-1.76,2.67,0,2.75Z"/>
                <path class="cls-34" d="M198.14,441l19.22-3.66v-6.41S203.63,431.83,198.14,441Z"/>
                <path class="cls-34" d="M226.51,430.91v6.41l19.22,2.75S237.49,431.83,226.51,430.91Z"/>
                <path class="cls-33" d="M183.74,483l-17.39,11,7.32,20.13H181l-4.58,6.41L179.5,561h13.3S193.35,500.59,183.74,483Z"/>
                <path class="cls-33" d="M250.54,480.24s-5.85,50.31-4,83.25L254.2,560c0,26.52,4.58-2.94,4.58-44.1L256,509.52l4.58,1.83,6.41-21Z"/>
                <path class="cls-72" d="M181.29,455.42l1.78-24L192.81,414s1-12.77,9.34-15.07,31.79-6.38,41,16.86a2.62,2.62,0,0,0,3-.77s2.36,7.92-5.82,7.41-20.8-8.64-32.37-4.57-13.36-.79-13.36-.79S185.08,427.32,181.29,455.42Z"/>
                <path class="cls-72" d="M237.73,419.4s11.89,21.72,11.6,36c0,0,1.5-24.27-6.68-36Z"/>
                <polygon class="cls-34" points="189.85 489.56 200.14 525.8 208.47 501.46 192.55 486.81 189.85 489.56"/>
                <polygon class="cls-36" points="188.31 485.73 198.61 521.97 206.94 497.62 191.02 482.98 188.31 485.73"/>
                <polygon class="cls-34" points="225.83 500.58 237.72 523.95 245.5 486.67 242.31 487.58 225.83 500.58"/>
                <polygon class="cls-36" points="225.83 495.99 237.72 519.35 245.5 482.07 242.31 482.98 225.83 495.99"/>
                <path class="cls-72" d="M239.55,472.09c-2.38-10.3-13-11.68-15.79-11.87v0h-.68v0c-2.8.18-13.41,1.56-15.79,11.87C204.55,484,211,495,211,495s5.32-19.49,12.47-22.72c7.15,3.23,12.47,22.72,12.47,22.72S242.3,484,239.55,472.09Z"/>
                <path class="cls-37" d="M216.27,453.34l-.92,2.4a3.8,3.8,0,0,0-.37,2,3.1,3.1,0,0,0,1.28,1.77,16.36,16.36,0,0,0,5,2.32,4,4,0,0,0,4.34-.3l2.83-1.76a4.77,4.77,0,0,0,1.23-1,3.23,3.23,0,0,0,.41-3,9.54,9.54,0,0,0-1.55-2.7"/>
                <path class="cls-43" d="M214.94,453c-1,2.58-2.26,5,.06,7.26a14.75,14.75,0,0,0,8.29,3.43c2.35.06,5.94-2.16,7.39-3.89,2-2.35.59-5.2-.93-7.34-1-1.43-3.4-.06-2.37,1.39,1.43,2,1.47,3.58-.53,5.35a5.78,5.78,0,0,1-5.17,1.34,9.26,9.26,0,0,1-4-1.65c-1.86-1.9-.81-3.35-.12-5.15.63-1.65-2-2.37-2.65-.73Z"/>
                <polygon class="cls-73" points="143 455 148 487 169 495 175 469 143 455"/>
                <polygon class="cls-74" points="310.48 495.47 335 507 391.26 495.81 387.08 458.14 384.99 422.35 306.76 420 303 453.9 312.62 473.21 310.48 495.47"/>
                <polygon class="cls-37" points="331.64 472.41 333.02 493.46 363.13 493.86 361.94 466.12 331.64 472.41"/>
                <path class="cls-43" d="M332,477.39l.56,8.55s22.88,2.94,29.22-8.15Z"/>
                <ellipse class="cls-37" cx="348.04" cy="434.46" rx="33.83" ry="48.78"/>
                <ellipse class="cls-42" cx="322.1" cy="432.83" rx="2.43" ry="3.89"/>
                <ellipse class="cls-42" cx="346.92" cy="432.83" rx="2.43" ry="3.89"/>
                <path class="cls-75" d="M332.53,485.94S306.34,497.51,300,509s6,56,6,56l93,7s18.11-63.27,9-70-45.19-15.72-45.19-15.72S351.44,501.82,332.53,485.94Z"/>
                <path class="cls-76" d="M324.34,447.68s4.56,4.56,10.89,0"/>
                <path class="cls-77" d="M383.64,530.77l-6.88-7.42,2-13.7s-7.83-7-8.62-8.59,3.21-22.39,3.21-22.39l-10.74-8.11,5.78-23.61-9.74-14,.4-16.24-5.68-6.28L343,407.56l9.6-8.84-11.45-1.07-8.87,3.26,2,8.56-13.35.28-3.54,4.54,1.62,8.36-9.17,7.48,5.93,10.69L308.17,458l2.77,9.88,8,6.59L311.54,488l2,10,5,6.23-11.4,14.59,4.65,11.62L303.1,522l-2.34-5.91,7.41-9.45,2-4.05-1.8-4.24-1.14-9.71-4-4.64,3.19-11.48-8.61-8.1.37-9.57,5.65-14.46-2.57-10.27,11-40.61L322.76,383h13.32l16.57-4.36,8.91,1.67,15.35,12.06,10.86,19.34,3.31,35.47,5.94,5.94-2,9.11-.37,6.81,4.72,5.07,2.77,8.32,5.15,15.85L399,513.34l.06,8Z"/>
                <path class="cls-78" d="M383.4,535l-.94-7.92a1.81,1.81,0,0,0-2.26-1.72q-4-3.7-1.14-7.65a18,18,0,0,0,.67-1.8,12,12,0,0,0,.53-3.33,6.91,6.91,0,0,0-2.54-5.22c-3.79-3.21-7.61-4.1-7.36-10.08.19-4.43,2.56-8.41,3.64-12.63.54-2.11,1.13-4.62-.13-6.6-1.5-2.35-4.28-2-6.43-3.19-9.11-5.19.71-17.78,1.73-24.36,1.16-7.43-7.11-8.23-8.74-14.61s.86-12.8-1-19.11c-1.39-4.76-4.46-7.68-9.39-8.38-1.59-.23-4.38.43-4.13-1.09.15-.91,2.07-2.39,2.7-3.07a32.58,32.58,0,0,0,4.45-5.33,1.81,1.81,0,0,0-1.07-2.62c-6.62-2.6-15.6-1-21.69,2.37a1.8,1.8,0,0,0-.64,2.44,10.85,10.85,0,0,1,1.77,7.66l1.78-1.78c-5.36-.71-12.16-1.12-16.41,2.94-3.93,3.76-3.51,9.37-.12,13.28l.79-3c-4.36,1.51-10.8,4.65-10.29,10.24.2,2.21,1.55,3.71,3,5.23,2.38,2.44,3.19,4.28,1.36,7.6-1.05,1.9-2.4,3.62-3.42,5.55-2.85,5.42-4.39,12.15-1,17.72,1.51,2.47,3.61,3.19,5.73,4.86,5.07,4-1.62,8.9-3.31,12.88-2.28,5.36-1.51,12,3.27,15.8,1.6,1.26,3.41,1,2.52,3.79-.6,1.86-3.16,3.63-4.57,4.9-2.15,1.93-4.25,3.73-5.51,6.39a10.33,10.33,0,0,0-.91,7.08c.7,2.37,2.45,2.67,3.7,4.31q2.08.45.63,2.53a15,15,0,0,1-2.14,1.09,8.91,8.91,0,0,0-2.59,2c-1.4,1.72-1.83,3.6-.46,5.42s4.46,0,3.08-1.8c-.87-1.15,5.47-4.5,6.21-5.82a4.14,4.14,0,0,0,.28-3.73c-1.25-2.81-5-2.73-5.29-6.2-.35-3.84,3-6.49,5.52-8.78s7.85-6.72,5.92-10.81c-.92-2-3.52-2.41-5-3.85-4.14-4.19-2.35-10.49.79-14.59,2.49-3.25,6.71-6.89,3.26-11.11-1.41-1.72-3.55-2.24-5.31-3.48-4.35-3.06-5-8-3.55-12.81,1.6-5.24,8.62-11.12,6.72-17-.65-2-2.26-2.95-3.49-4.51-4.14-5.26,1.24-8,5.69-9.5a1.81,1.81,0,0,0,.79-3c-4.23-4.88.1-9.49,5.1-10.32a30.12,30.12,0,0,1,8.92.18c1,.14,1.69-.93,1.78-1.78a13.73,13.73,0,0,0-2.26-9.46l-.64,2.44c5.32-2.92,13.19-4.28,18.94-2L350,397.12c-2.1,3.51-14,12.51-4.09,14.4,4,.77,7.6.5,9.53,4.72,1.31,2.87,1.36,6.12,1.22,9.21-.24,5.21-.94,11,2.1,15.58,1.35,2,3.5,2.85,5,4.61,3.58,4.11-.2,9.58-1.83,13.89-1.84,4.89-2.66,10.59.37,15.23a10.94,10.94,0,0,0,4.45,3.68c1.26.68,3.81,1.14,4.27,2.77s-1.35,5.16-1.92,6.76c-1.77,5-3.63,10.59-1.2,15.72,1.47,3.12,3.66,3.65,6.22,5.6,4.84,3.69.42,7.79-.17,12.34-.56,4.28,2.65,8.48,7.16,7.15l-2.26-1.72.94,7.92c.27,2.25,3.84,2.28,3.57,0Z"/>
                <path class="cls-78" d="M342.07,385.13c11.54-13.58,30.19,4.33,36.71,14.48a62.4,62.4,0,0,1,9.51,36.72c-.22,4.3-1.68,9.81,1.13,13.6.79,1.07,1.85,1.38,2.74,2.21,2.14,2,2.73,4.14,1.47,6.79-1,2.18-2.46,4.24-2.69,6.73a6.43,6.43,0,0,0,1.4,4.94c.71.83,1.86,1.13,2.57,1.88,2.17,2.34,2.11,4.28,2.44,7s1.63,4.64,3,7c2.07,3.58,3.9,8,4.06,12.19.27,7.33-8.26,10.42-7.45,18,.32,3-1.07,5.29-1.93,8.26a59.71,59.71,0,0,0-2.06,11.7c-.19,2.29,3.37,2.27,3.57,0a54,54,0,0,1,2.72-13.27c.55-1.59,1.66-3.26,2-4.89.35-1.91-.79-4.12-.17-6.09.91-2.88,4.54-5,5.86-7.81a14.11,14.11,0,0,0,.81-8.13,33.59,33.59,0,0,0-3.15-9.67c-.91-1.84-2.2-3.48-3-5.38-.91-2.24-.47-4.32-.86-6.65-.36-2.16-1.34-3.22-2.84-4.67-5.23-5-1.52-7.1,0-12.16a8.17,8.17,0,0,0,0-5.49,5.59,5.59,0,0,0-1.76-2.28c-2.29-1.83-4.07-1.82-4.73-5.26-.61-3.15.39-6.89.48-10.07a66.36,66.36,0,0,0-.52-10.24c-1.62-12.73-6.81-25.12-15.54-34.63-8.59-9.35-25.7-19.87-36.31-7.39-1.48,1.74,1,4.27,2.52,2.52Z"/>
                <path class="cls-78" d="M343.09,382.69c-11.62-2.53-25-3.72-31.7,8.26-3.37,6-4.57,13.3-6.28,19.91-1.78,6.89-5.45,15.24-4.65,22.46.45,4.07,3.53,7.3,2.26,11.58-1,3.44-3.63,6.2-5.15,9.41-2.22,4.69-2.56,9.77,1.6,13.42,2.74,2.41,6.39,3.32,6.35,7.79,0,2.85-3.06,5.49-3.12,8.63a5.9,5.9,0,0,0,2.27,5.18c.55.41,1.41.52,1.91.92,4.74,3.74,1.53,7.37-1,10.46a1.8,1.8,0,0,0,.79,3l4.33.92-1.25-2.19c-1.92,6.29-10.07,9.25-9.13,16.75a6.34,6.34,0,0,0,3.93,5.19c2.39,1.2,3.95,2.06,3.82,5.23a17.23,17.23,0,0,1-1.62,5.58c-.87,2.12,2.57,3,3.44.95,2-4.9,3-10.39-1.59-14-2.19-1.68-5-1.53-4.32-5.29.45-2.37,2.11-4,3.67-5.66,2.27-2.48,4.25-4.57,5.25-7.84a1.8,1.8,0,0,0-1.25-2.19l-4.33-.92.79,3c2.87-3.46,6-7.74,4-12.43-.75-1.81-2-2.5-3.43-3.58-4.27-3.13-2-5.07-.31-9.19,2-5,.19-8.18-3.94-11-1.17-.8-2.73-1.53-3.64-2.63-2.11-2.58-1.34-5.64-.14-8.29,1.36-3,3.57-5.5,4.84-8.55,2.94-7-2.44-11.83-1.24-18.83,1.29-7.51,3.79-15,5.69-22.36,1.76-6.82,3.3-15.43,9.75-19.48,6.64-4.17,15.3-2.33,22.44-.77,2.24.49,3.19-2.95.95-3.44Z"/>
                <polygon class="cls-36" points="333.22 463.94 334.5 460.95 340.55 460.95 342.33 463.94 338.76 466.56 334.72 466.98 333.22 463.94"/>
                <path class="cls-79" d="M329,462.4c1.68,2.85,4.08,6.37,7.79,6.38,4.21,0,7.18-4.3,9.29-7.38,1.3-1.9-1.79-3.68-3.08-1.8s-3.59,5.66-6.21,5.61c-2.22,0-3.75-3-4.71-4.61a1.78,1.78,0,0,0-3.08,1.8Z"/>
                <path class="cls-80" d="M326.62,458.92c2.62,3,7.65,2,11.17,1.8,2-.11,4.06-.15,6.08-.33,2.18-.19,2.86-1.08,4.54-2.42s-.74-3.94-2.52-2.52c-1.36,1.08-1.35,1.35-3,1.43l-4.71.26c-2.24.13-7.39,1.16-9-.73-1.52-1.73-4,.8-2.52,2.52Z"/>
                <path class="cls-42" d="M309.87,425.68a1.84,1.84,0,0,1,0-1.34,4.66,4.66,0,0,1,.64-1.16,10.43,10.43,0,0,1,1.54-1.72,11.72,11.72,0,0,1,3.89-2.28,8.85,8.85,0,0,1,4.89-.38,5.84,5.84,0,0,1,2.37,1.14,3.74,3.74,0,0,1,1.37,2.16,8.92,8.92,0,0,0-3.85.43c-1,.32-2,.73-3.22,1.13a35.78,35.78,0,0,1-3.69,1.07c-.65.14-1.33.29-2,.38A3.65,3.65,0,0,0,309.87,425.68Z"/>
                <path class="cls-42" d="M335.86,421.38a7.8,7.8,0,0,1,4.14-3.27,10.45,10.45,0,0,1,10.19,1.82,7.77,7.77,0,0,1,2.74,4.51c-1.77-.47-3.18-.89-4.55-1.24s-2.62-.62-3.89-.86-2.55-.41-3.94-.55S337.69,421.55,335.86,421.38Z"/>
                <path class="cls-73" d="M198,441.5c0,4.29-3,8.5-1.22,12.4.91,2-17.24-2-16.78.1,2,9,13,5,13,7,0,11-1.08,15-14,15-19.61,0-37.91-10.74-45-36-8-28.5,8.89-46,28.5-46,16.84,0,29.85,10,33.5,31,.3,1.73,9,4,9,12C205,443,198,439.65,198,441.5Z"/>
                <ellipse class="cls-42" cx="184.5" cy="428.5" rx="1.5" ry="3.5"/>
                <path class="cls-81" d="M194,420l-19-3s-1,23,10,23C200,439.94,194,420,194,420Z"/>
                <path class="cls-82" d="M194,420l-19-3s-1,23,10,23C200,439.94,194,420,194,420Z"/>
                <path class="cls-83" d="M196.5,424.5s-.23-1.45-1.62-.23"/>
                <path class="cls-84" d="M134.75,438.5a28.05,28.05,0,0,1,.63-4,24.9,24.9,0,0,1,1.23-3.86,23.83,23.83,0,0,1,1.82-3.57,18.77,18.77,0,0,1,2.42-3.18h0l.11-.12.15,0L174.39,416a.5.5,0,1,1,.22,1l-33.28,7.68.26-.16h0a17.67,17.67,0,0,0-1.73,3.26,21.89,21.89,0,0,0-1.12,3.51,22.33,22.33,0,0,0-.53,3.61,24.89,24.89,0,0,0,0,3.6v.06a1.76,1.76,0,1,1-3.51.23A1.9,1.9,0,0,1,134.75,438.5Z"/>
                <path class="cls-85" d="M144.5,427.5c2-8-16-16-9,3,5.27,14.29,11,6,11,6"/>
                <path class="cls-73" d="M145.5,427.5c2-8-16-16-9,3,5.27,14.29,11,6,11,6"/>
                <path class="cls-86" d="M147,429s-7.66-10.64-7.83-3.32S143,434,143,434l-2-6"/>
                <path class="cls-87" d="M146,426s4-1,8,4,12,21,12,21,3.25-11.73,31.63-7.36L196,451s-15-9-24,1c0,0,6.05,18,20.53,15,0,0,1,10.17-11.24,9.08S161,475,159,473,158,445,146,426Z"/>
                <path class="cls-88" d="M145.5,474l-13,11.5s-14,15-8,57l5,14,63,4s.09-2.07,0-5.62c-.22-13.76-2.58-49.72-20.49-73Z"/>
                <path class="cls-89" d="M141,472l-7,11s22,1.29,34.48,16.14L172,482S153.44,475,141,472Z"/>
                <polygon class="cls-73" points="167 531 176 559.52 155 564 145.5 535.66 167 531"/>
                <polygon class="cls-90" points="143 531 146 539 168 531 164 519 143 531"/>
                <path class="cls-89" d="M141,490c7.09-2.78,23-1,27,32v4l-26,9S118,499,141,490Z"/>
                <path class="cls-73" d="M210,520l-20,36,18,11s4-31,15-38c11-1,26-12,26-12s2-5-13,1c0,0,16-4,15-7s-10.35-.75-16,2c0,0,14-7,10.61-11.69C244.4,499.62,233,509,230,509c0,0,12-13,6-12-8,7-20,13-20,13s-.52,1.09,1-8c.52-3.13-2.59-2.6-5,2C209.79,508.21,207.13,510.93,210,520Z"/>
            </g>
        </g>
    </g>
</svg>