<?xml version="1.0" encoding="utf-8"?>
<!-- Generator: Adobe Illustrator 19.1.0, SVG Export Plug-In . SVG Version: 6.00 Build 0)  -->
<svg version="1.1" xmlns="http://www.w3.org/2000/svg" xmlns:xlink="http://www.w3.org/1999/xlink" x="0px" y="0px"
	 viewBox="0 0 504.1 226" style="enable-background:new 0 0 504.1 226;" xml:space="preserve">
<style type="text/css">
	.st0{fill:#F0EEE9;}
	.st1{fill:#333333;}
	.st2{font-family:'Roboto-Black';}
	.st3{font-size:15px;}
	.st4{fill:none;}
	.st5{font-family:'Roboto-Regular';}
	.st6{font-size:11px;}
	.st7{fill:#D1CFCB;}
	.st8{opacity:0.2;fill:#333333;}
	.st9{fill:#C98D9D;}
	.st10{clip-path:url(#SVGID_2_);}
	.st11{fill:#563222;}
	.st12{fill:#47291C;}
	.st13{fill:#B3B3B3;}
	.st14{fill:#F2CCC0;}
	.st15{fill:#EAAE99;}
	.st16{fill:#E0E0E0;}
	.st17{fill:#9E494C;}
	.st18{fill:#1A1A1A;}
	.st19{fill:#49708A;}
	.st20{fill:#3D5D73;}
	.st21{opacity:0.46;fill:#2D4454;}
	.st22{fill:#FFFFFF;}
	.st23{opacity:0.16;fill:#2D4454;}
	.st24{fill:#613826;}
	.st25{opacity:0.2;fill:none;stroke:#000000;stroke-width:2.4453;stroke-miterlimit:10;}
	.st26{fill:none;stroke:#7C181F;stroke-width:2.4453;stroke-miterlimit:10;}
</style>
<g id="texto_x5F_05">
	<g>
		<g>
			
				<rect x="179.4" y="28.9" transform="matrix(0.9987 -5.173679e-02 5.173679e-02 0.9987 -4.0515 17.2358)" class="st0" width="303" height="116"/>
			<text transform="matrix(0.9989 -4.769000e-02 4.769000e-02 0.9989 220.6926 54.7319)"><tspan x="0" y="0" class="st1 st2 st3">PREVENCIÓN SOCIAL </tspan><tspan x="0" y="18" class="st1 st2 st3">DE ADICCIONES </tspan></text>
			<polygon class="st4" points="220.4,87.6 457.7,77.6 463.4,161.6 224.4,172.6 			"/>
			<text transform="matrix(0.9989 -4.769000e-02 4.769000e-02 0.9989 220.8509 96.9673)" class="st1 st5 st6">Prevención de Adicciones, texto descriptivo</text>
		</g>
	</g>
</g>
<g id="foto_x5F_05">
	<g>
		<path class="st7" d="M199.9,213.7C135.7,204.5,19,193.3,19,193.3C30.1,94.7,39.4,12.3,39.4,12.3S186.8,33,220.3,32.7
			C220.3,32.7,199,186,199.9,213.7z"/>
		<polygon class="st8" points="34.5,182.9 192.8,205.8 203,48.6 		"/>
		
			<rect x="40.5" y="33.9" transform="matrix(0.9937 0.1121 -0.1121 0.9937 13.42 -12.6958)" class="st9" width="158.3" height="158.3"/>
		<g>
			<defs>
				
					<rect id="SVGID_1_" x="40.5" y="33.9" transform="matrix(0.9937 0.1121 -0.1121 0.9937 13.42 -12.6958)" width="158.3" height="158.3"/>
			</defs>
			<clipPath id="SVGID_2_">
				<use xlink:href="#SVGID_1_"  style="overflow:visible;"/>
			</clipPath>
			<g class="st10">
				<path class="st11" d="M126.5,44.7c-10.7-1.1-29.9,3.2-33.1,25.3s-7.1,85.4-7.1,85.4l30.1,13l30.4,1.4l9-87c0,0,0.3-2.5,0-6.3
					C155,66.3,150.5,47.2,126.5,44.7z"/>
				<polygon class="st12" points="92.8,118.3 98.7,165.6 129.7,169.7 144.3,123.7 				"/>
				<polygon class="st13" points="98.1,144.9 136.3,148.9 132.3,161.9 96.8,158.2 				"/>
				<path class="st14" d="M169.5,174.7c-3-5.7-39.4-18.4-39.4-18.4l2.9-27.5l-14-1.5l-0.4,0l-14-1.5l-2.9,27.5c0,0-31,4.9-35.1,9.8
					c-4.1,5-2.4,23.1-2.4,23.1l48.1,3.2l54.8,8.4C167.1,197.8,172.5,180.4,169.5,174.7z"/>
				<path class="st15" d="M101.7,153.3l1.6-15.1l28.4,2.9C131.7,141.2,123.9,155.7,101.7,153.3z"/>
				<path class="st14" d="M149.4,100.9c-3,20.3-6.6,33-13.1,39.9c-6.6,6.9-15.2,8.3-19.7,7.8c-4.4-0.5-12.9-4.7-19.8-15
					c-5.6-8.4-4.6-20.9-3.3-38.5c2.2-30.3,13.9-47.9,33.5-45.9C146.5,51.2,153.4,73.9,149.4,100.9z"/>
				<g>
					<polygon class="st16" points="107.3,123.9 109.9,127.6 117.6,130.8 127.5,129.4 130.3,126.3 					"/>
					<path class="st17" d="M107.3,123.9l11,2.2l12.1,0.2l-8.8-3.5c0,0-1.6,1.3-3,1.1c-1.4-0.1-2.7-1.7-2.7-1.7L107.3,123.9z"/>
					<path class="st17" d="M107.3,123.9c0,0,2.4,5.6,3.8,6.5c0.7,0.4,3.5,1.6,7,1.8c3.5,0.3,7.6-0.4,8.3-0.7c1.5-0.6,4-5.2,4-5.2
						C122.9,130.6,115.4,132.3,107.3,123.9z"/>
				</g>
				<g>
					<g>
						<path class="st15" d="M114.4,114.7c2.8,3.4,7.2,4,10.5,1c0.5-0.5-0.2-1.2-0.7-0.7c-2.9,2.7-6.6,1.9-9-1
							C114.7,113.4,114,114.2,114.4,114.7L114.4,114.7z"/>
					</g>
				</g>
				<g>
					
						<ellipse transform="matrix(0.9946 0.1033 -0.1033 0.9946 10.5706 -10.7408)" class="st18" cx="109" cy="96.7" rx="2.2" ry="3.6"/>
					
						<ellipse transform="matrix(0.9946 0.1033 -0.1033 0.9946 10.9844 -13.3856)" class="st18" cx="134.7" cy="99.4" rx="2.2" ry="3.6"/>
				</g>
				<polygon class="st13" points="109.2,168.2 108.8,180.1 99.5,174.6 106.6,167.3 				"/>
				<polygon class="st13" points="125,171 124.1,179.9 131.7,176.2 126,170.2 				"/>
				<path class="st12" d="M100.2,86.8c0,0,9.9-5.3,18.5,1.9C118.7,88.7,109.7,85.1,100.2,86.8z"/>
				<path class="st19" d="M101.5,173.1l13.5,8.6l15.8-5.5l3.5-20.7l28.6,14.2c0,0,10.4,3.8,8.5,13.4c-2.3,11.5-4.2,14.8-4.2,14.8
					l-52.5,9.1L62.5,186c0,0-3.4-19.2,1.5-23.2c4.9-4,29.8-10.4,29.8-10.4L101.5,173.1z"/>
				<polygon class="st20" points="98.5,176.3 113.7,185.1 115.5,185.3 134.9,179.2 131.8,175.3 116,179.9 114.3,179.8 101.5,173.1 
									"/>
				<path class="st12" d="M126.4,89.5c0,0,9.9-5.3,18.5,1.9C145,91.4,136,87.8,126.4,89.5z"/>
				<polygon class="st21" points="96.9,174.4 98.8,181.7 109.2,167.6 				"/>
				<path class="st11" d="M93.3,78.5l2,0.2l38.3,4l2.2-12.7l1.5,12.2l1.5-5.4l1.2,6.6l13.7,1.4c0,0,3.4-32.9-26.8-36.1
					S93.3,78.5,93.3,78.5z"/>
				<polygon class="st22" points="98.1,144.9 109.2,167.6 94.4,181.3 91.3,150.5 				"/>
				<polygon class="st21" points="125,171 132.5,185.3 135.9,178.4 				"/>
				<polygon class="st22" points="136.3,148.9 141.6,156.1 137.9,185.8 125,171 				"/>
				<polygon class="st21" points="86.9,175.1 85.6,162.4 86.4,154.5 90,162.9 91.7,172 				"/>
				<polygon class="st21" points="141.5,159.3 140.8,166.4 145.9,177.7 148,163.1 148.7,181.8 150.9,180.9 152.3,158.6 				"/>
				<polygon class="st11" points="93.4,69.9 78.2,172.4 83.8,179.3 87,157.2 87.1,173.4 91.7,172 92.7,163.2 91,127.1 				"/>
				<polygon class="st11" points="153.6,181.2 156.2,78.3 151.6,96.6 141.1,154.7 140.9,165.5 146.1,175 149.2,162.8 148.5,186.9 
									"/>
				<polygon class="st23" points="130.4,160.5 142.7,156.7 136.3,148.9 				"/>
				
					<rect x="112.2" y="181.6" transform="matrix(0.1033 -0.9946 0.9946 0.1033 -78.5441 277.9164)" class="st19" width="5.4" height="1.8"/>
				<polygon class="st19" points="104.2,179.6 106.3,175.6 105,174.9 102.6,178.7 				"/>
				<polygon class="st19" points="123,177.9 124.3,182.5 126,182 124.7,177.4 				"/>
				<path class="st24" d="M119.4,49.4c0,0-10.5,5.1-12.1,30.5l-4.5-0.5C102.8,79.5,106.6,49.1,119.4,49.4z"/>
				<polygon class="st23" points="104.1,157 92,149.8 98.1,144.9 				"/>
			</g>
		</g>
		<g>
			<path class="st25" d="M137.3,24.3c0-3.4,0-3.3-0.2-3.5c-0.4-0.7-12.2-1.5-13-0.8c-0.8,0.7-0.9,22.7,3.1,31.4
				c3.9,8.7,9.5,7.3,8.8-13.9"/>
			<path class="st26" d="M136.4,24.7c0-2-0.1-3.2-0.2-3.3c-0.4-0.7-12.2-1.5-13-0.8c-0.8,0.7-0.9,22.7,3.1,31.4
				c3.9,8.7,9.5,7.3,8.8-13.9"/>
		</g>
	</g>
</g>
</svg>
