<svg xmlns="http://www.w3.org/2000/svg" xmlns:xlink="http://www.w3.org/1999/xlink" viewBox="0 0 445 227"><defs><style>.cls-1,.cls-29,.cls-30{fill:none;}.cls-2{isolation:isolate;}.cls-3{clip-path:url(#clip-path);}.cls-4{opacity:0.09;mix-blend-mode:multiply;}.cls-5{fill:#535353;opacity:0.23;}.cls-6{fill:#f0eee9;}.cls-7{font-size:22px;fill:#4d4d4d;font-family:ZillaSlab-Medium, Zilla Slab;}.cls-8{letter-spacing:-0.01em;}.cls-9{letter-spacing:-0.01em;}.cls-10{letter-spacing:-0.01em;}.cls-11{letter-spacing:-0.02em;}.cls-12{letter-spacing:-0.03em;}.cls-13{fill:#d1cfcb;}.cls-14,.cls-28{fill:#333;}.cls-14,.cls-29{opacity:0.2;}.cls-15{fill:#c98d9d;}.cls-16{clip-path:url(#clip-path-2);}.cls-17,.cls-31{fill:#1a1a1a;}.cls-18{fill:#b3b3b3;}.cls-19{fill:#e0d1ac;}.cls-20{fill:#c9bc9b;}.cls-21{fill:#e0e0e0;}.cls-22{fill:#c27173;}.cls-23{fill:#49708a;}.cls-24{fill:#3d5d73;}.cls-25,.cls-27{fill:#2d4454;}.cls-25{opacity:0.46;}.cls-26{fill:#fff;}.cls-27{opacity:0.16;}.cls-29{stroke:#000;}.cls-29,.cls-30{stroke-miterlimit:10;stroke-width:2.2px;}.cls-30{stroke:#7c181f;}.cls-31{font-size:24.5px;font-family:KaushanScript-Regular, Kaushan Script;}.cls-32{letter-spacing:-0.02em;}.cls-33{letter-spacing:0em;}</style><clipPath id="clip-path"><path class="cls-1" d="M1059.12,1437.61l-19-694c-219,13.94-542.11,14-545,14v-.31L-22.53,743.4l-27.69,19.75-1.19,151L-25.18,929l-7.41,499.52c141-6.49,522.71,14.09,522.71,14.09v-.54C497,1441.79,775.67,1430.7,1059.12,1437.61Z"/></clipPath><clipPath id="clip-path-2"><rect class="cls-1" x="21.96" y="30.34" width="142.46" height="142.46" transform="translate(-18.18 182.79) rotate(-83.56)"/></clipPath></defs><title>notificacion_adicciones_01</title><g class="cls-2"><g id="tarjeta_05a"><path class="cls-5" d="M445,106.78,440.89,28,181.15,41.44c1.39-10.57,2.29-17.26,2.29-17.26-10,.27-34.29-2.24-59.07-5.25l.07-.77c0-2.4,0-2.34-.11-2.47-.3-.52-8.68-1-9.23-.55a.56.56,0,0,0-.1.26,1.23,1.23,0,0,0-.54.14,6.45,6.45,0,0,0-.27,2.15c-30.77-3.86-99-8-99-8S8.74,119.25-.5,201.14c0,0,121.07,18.8,166.7,25.53-.08-8.14,2.32-81.63,5.07-105.71Z"/><rect class="cls-6" x="134.32" y="26.23" width="303" height="78.9" transform="translate(-3.02 14.88) rotate(-2.97)"/><text class="cls-7" transform="translate(194.32 61.51) rotate(-2.73)"><tspan class="cls-8">P</tspan><tspan x="12.65" y="0">REVE</tspan><tspan class="cls-9" x="66.81" y="0">N</tspan><tspan x="82.94" y="0">C</tspan><tspan class="cls-9" x="97.15" y="0">I</tspan><tspan class="cls-10" x="104.19" y="0">Ó</tspan><tspan x="119.83" y="0">N SOCIA</tspan><tspan class="cls-11" x="204.77" y="0">L</tspan><tspan x="216.32" y="0"> </tspan><tspan class="cls-9" x="-1.38" y="29">D</tspan><tspan x="13.84" y="29">E</tspan><tspan class="cls-12" x="26.82" y="29"> </tspan><tspan x="30.93" y="29">A</tspan><tspan class="cls-9" x="45.45" y="29">DI</tspan><tspan x="67.72" y="29">CC</tspan><tspan class="cls-9" x="96.14" y="29">I</tspan><tspan class="cls-10" x="103.18" y="29">O</tspan><tspan x="118.85" y="29">NES</tspan></text><path class="cls-13" d="M162.35,219.51C104.6,211-.5,201.14-.5,201.14L21,11S153.55,30.14,183.8,29.33C183.8,29.33,162,190.47,162.35,219.51Z"/><polygon class="cls-14" points="16.61 164.45 159.1 185.12 168.22 43.58 16.61 164.45"/><rect class="cls-15" x="21.96" y="30.34" width="142.46" height="142.46" transform="translate(-18.18 182.79) rotate(-83.56)"/><g class="cls-16"><path class="cls-17" d="M99.38,40.07c-9.59-1-26.94,2.85-29.82,22.74s-6.37,76.86-6.37,76.86l27,11.69,27.33,1.22,8.13-78.29a36,36,0,0,0,0-5.65C125.06,59.51,121,42.31,99.38,40.07Z"/><polygon class="cls-17" points="69.08 106.36 74.35 148.9 102.23 152.6 115.41 111.17 69.08 106.36"/><polygon class="cls-18" points="73.86 130.28 108.21 133.84 104.57 145.58 72.61 142.26 73.86 130.28"/><path class="cls-19" d="M138.09,157.13c-2.7-5.13-35.42-16.6-35.42-16.6l2.57-24.77-12.6-1.31-.37,0-12.6-1.31-2.57,24.77s-27.91,4.37-31.6,8.83-2.16,20.77-2.16,20.77l43.31,2.88,49.28,7.54S140.79,162.26,138.09,157.13Z"/><path class="cls-20" d="M77.11,137.88l1.41-13.58L104.08,127S97.08,140,77.11,137.88Z"/><path class="cls-19" d="M120,90.65c-2.71,18.29-5.91,29.67-11.81,35.92a22.49,22.49,0,0,1-17.69,7c-4-.41-11.63-4.22-17.83-13.53-5-7.53-4.18-18.84-3-34.66,2-27.24,12.48-43.12,30.13-41.28S123.56,66.35,120,90.65Z"/><polygon class="cls-21" points="82.08 111.37 84.42 114.72 91.4 117.56 100.27 116.34 102.85 113.53 82.08 111.37"/><path class="cls-22" d="M82.08,111.37,92,113.32l10.88.21-8-3.19a4.56,4.56,0,0,1-2.73,1,4.56,4.56,0,0,1-2.46-1.57Z"/><path class="cls-22" d="M82.08,111.37s2.15,5,3.38,5.82a16.53,16.53,0,0,0,6.29,1.67,26.15,26.15,0,0,0,7.5-.61c1.37-.51,3.6-4.71,3.6-4.71C96.18,117.39,89.38,118.92,82.08,111.37Z"/><path class="cls-20" d="M88.16,103.43c2.71,3.27,7,3.79,10.13.91.91-.82-.44-2.16-1.34-1.34-2.46,2.23-5.45,1.5-7.45-.91-.78-.94-2.12.41-1.34,1.34Z"/><polygon class="cls-18" points="83.8 151.23 83.49 161.96 75.12 157.05 81.45 150.44 83.8 151.23"/><polygon class="cls-18" points="98.06 153.78 97.24 161.77 104.04 158.44 98.95 153.07 98.06 153.78"/><path class="cls-17" d="M73.7,79.45s8.63-5.24,16.75.76A34,34,0,0,0,73.7,79.45Z"/><path class="cls-23" d="M76.88,155.62,89,163.34l14.24-5,3.15-18.65,25.73,12.77s9.34,3.39,7.63,12.1c-2,10.37-3.81,13.33-3.81,13.33l-47.29,8.18L41.75,167.32S38.7,150,43.11,146.46s26.81-9.33,26.81-9.33Z"/><polygon class="cls-24" points="74.15 158.57 87.87 166.45 89.47 166.62 106.99 161.17 104.12 157.64 89.96 161.83 88.36 161.66 76.88 155.62 74.15 158.57"/><path class="cls-17" d="M100.75,81.36s9.25-4,16.51,3A34,34,0,0,0,100.75,81.36Z"/><polygon class="cls-25" points="72.72 156.81 74.45 163.44 83.85 150.69 72.72 156.81"/><path class="cls-17" d="M69.51,70.51l1.77.17,34.51,3.59,2-11.44,1.36,11,1.34-4.85,1,5.93,12.35,1.28S127,46.53,99.81,43.71,69.51,70.51,69.51,70.51Z"/><polygon class="cls-26" points="73.86 130.28 83.85 150.69 70.46 163.03 67.69 135.29 73.86 130.28"/><polygon class="cls-25" points="98.06 153.78 104.81 166.6 107.87 160.46 98.06 153.78"/><polygon class="cls-26" points="108.21 133.84 113.01 140.4 109.6 167.1 98.06 153.78 108.21 133.84"/><polygon class="cls-25" points="63.77 157.49 62.53 146.06 63.27 138.95 66.53 146.47 68.09 154.71 63.77 157.49"/><polygon class="cls-25" points="112.89 143.21 112.23 149.6 116.82 159.77 118.71 146.64 119.32 163.53 121.37 162.66 122.64 142.61 112.89 143.21"/><polygon class="cls-17" points="69.56 62.81 55.94 155.06 60.95 161.24 63.83 141.35 63.93 155.89 68.09 154.71 68.92 146.72 67.45 114.27 69.56 62.81"/><polygon class="cls-17" points="123.76 162.91 126.12 70.3 121.98 86.82 112.51 139.13 112.31 148.81 117.07 157.37 119.83 146.36 119.19 168.09 123.76 162.91"/><polygon class="cls-27" points="102.89 144.3 113.94 140.9 108.21 133.84 102.89 144.3"/><rect class="cls-23" x="86.51" y="163.34" width="4.82" height="1.61" transform="translate(-83.53 235.62) rotate(-84.07)"/><polygon class="cls-23" points="79.3 161.53 81.23 157.91 80.07 157.3 77.91 160.73 79.3 161.53"/><polygon class="cls-23" points="96.19 159.99 97.39 164.16 98.91 163.69 97.79 159.51 96.19 159.99"/><path class="cls-28" d="M93,44.35S83.55,49,82.17,71.82l-4.08-.42S81.49,44.07,93,44.35Z"/><polygon class="cls-27" points="79.19 141.17 68.38 134.73 73.86 130.28 79.19 141.17"/><path class="cls-17" d="M74.94,86.5A10.75,10.75,0,0,1,78,85.23a12.71,12.71,0,0,1,3.34-.42,9,9,0,0,1,3.39.6,5,5,0,0,1,2.66,2.15,9.58,9.58,0,0,0-3-1,19.81,19.81,0,0,0-3.06-.21C79.29,86.35,77.19,86.54,74.94,86.5Z"/><circle class="cls-17" cx="81.18" cy="86.57" r="1.7"/><path class="cls-17" d="M114.06,90.9c-2.22-.37-4.25-.94-6.3-1.29a19.81,19.81,0,0,0-3-.36,9.58,9.58,0,0,0-3.11.4,5,5,0,0,1,3-1.63,9,9,0,0,1,3.44,0,12.71,12.71,0,0,1,3.21,1A10.75,10.75,0,0,1,114.06,90.9Z"/><circle class="cls-17" cx="107.91" cy="89.83" r="1.7" transform="translate(-0.15 179.47) rotate(-79.45)"/></g><path class="cls-29" d="M109.14,21.71c0-3,0-3-.14-3.13-.38-.66-11-1.31-11.68-.7s-.79,20.45,2.76,28.25,8.56,6.57,7.93-12.55"/><path class="cls-30" d="M108.33,22.08a20.26,20.26,0,0,0-.14-3c-.37-.66-11-1.31-11.68-.7s-.79,20.45,2.76,28.25,8.56,6.57,7.93-12.55"/><text class="cls-31" transform="translate(41.78 193.52) rotate(7.18)">A<tspan class="cls-32" x="15.73" y="0">L</tspan><tspan class="cls-33" x="27.54" y="0">ICIA</tspan></text></g></g></svg>