<svg version="1.1" id="Capa_1" xmlns="http://www.w3.org/2000/svg" xmlns:xlink="http://www.w3.org/1999/xlink" x="0px" y="0px"
	 viewBox="0 0 45.1 53.1" style="enable-background:new 0 0 45.1 53.1;" xml:space="preserve">
<style type="text/css">
	.st14{fill:#608640;stroke:#FFFFFF;stroke-width:2;stroke-miterlimit:10;}
	.st15{fill:#FFFFFF;stroke:#FFFFFF;stroke-width:0.6468;stroke-linecap:round;stroke-linejoin:round;stroke-miterlimit:10;}
</style>
<g>
	<polygon class="st14" points="40.9,51.9 1.3,52.1 1,1.3 44.1,1 44,24.3 40.8,26 	"/>
	<g id="tilde_1_">
		<path class="st15" d="M40,14.9c-2.7,1.2-5.3,2.8-7.5,4.8c-2.3,2-4.3,4.4-6,7c-1.7,2.7-3.1,5.6-4.1,8.6c-0.5,1.5-1,3.1-1.4,4.7
			c-0.3,1.5-0.6,3.1-0.8,4.6c0,0,0,0.1,0,0.1c0,0,0,0,0,0.1l-0.4,0c-0.9-1.6-1.9-3.2-2.9-4.6c-1.1-1.4-2.2-2.8-3.5-3.9
			c-1.2-1.2-2.6-2.2-4-2.9c-0.7-0.3-1.4-0.7-2.1-0.8c-0.3-0.1-0.7-0.2-1-0.2c-0.2,0-0.3,0-0.4,0H5.8l2-8.2l0.1,0l0,0l0.1,0l0.2,0.1
			c0.1,0,0.2,0.1,0.3,0.1c0.2,0.1,0.3,0.2,0.5,0.2c0.3,0.2,0.6,0.3,0.8,0.5c0.5,0.3,1,0.7,1.4,1c0.9,0.7,1.7,1.5,2.4,2.3
			c1.4,1.6,2.5,3.4,3.4,5.2c0.9,1.8,1.5,3.6,2.1,5.5c0.2,0.9,0.5,1.8,0.6,2.7c0-0.7,0-1.4,0.1-2.1c0.1-1.7,0.2-3.4,0.5-5
			c0.5-3.4,1.4-6.7,2.7-9.9c1.3-3.2,3.1-6.3,5.3-9.1c2.2-2.8,5-5.3,8-7.3L40,14.9z"/>
		<path class="st15" d="M20.2,44.8L20.2,44.8c0,0,0-0.1,0-0.1C20.2,44.7,20.2,44.8,20.2,44.8z"/>
	</g>
</g>
</svg>
