<svg xmlns="http://www.w3.org/2000/svg" xmlns:xlink="http://www.w3.org/1999/xlink" viewBox="0 0 579 698">
    <defs>
        <style>.cls-1,.cls-35,.cls-36,.cls-38,.cls-40,.cls-41,.cls-61{fill:none;}.cls-2{isolation:isolate;}.cls-3{clip-path:url(#clip-path);}.cls-4{fill:#523a29;}.cls-5{fill:#543928;}.cls-6{clip-path:url(#clip-path-2);}.cls-7{opacity:0.09;mix-blend-mode:multiply;}.cls-8{fill:#c7b316;}.cls-32,.cls-9{fill:#fff;}.cls-37,.cls-38,.cls-40,.cls-41,.cls-51,.cls-9{stroke:#b3b3b3;}.cls-35,.cls-36,.cls-37,.cls-38,.cls-40,.cls-41,.cls-42,.cls-51,.cls-60,.cls-62,.cls-63,.cls-9{stroke-miterlimit:10;}.cls-9{stroke-width:0.88px;}.cls-10{font-size:15px;}.cls-10,.cls-52{font-family:Roboto-Regular, Roboto;}.cls-11{letter-spacing:-0.03em;}.cls-12{letter-spacing:-0.01em;}.cls-13{letter-spacing:-0.02em;}.cls-14{letter-spacing:-0.01em;}.cls-15{letter-spacing:-0.01em;}.cls-16{letter-spacing:-0.05em;}.cls-17{letter-spacing:0.02em;}.cls-18{letter-spacing:-0.01em;}.cls-19{letter-spacing:-0.01em;}.cls-20{letter-spacing:-0.01em;}.cls-21{letter-spacing:-0.01em;}.cls-22{fill:#cc8383;}.cls-23{clip-path:url(#clip-path-3);}.cls-24{clip-path:url(#clip-path-4);}.cls-25{fill:#c6aa6d;}.cls-26,.cls-34{fill:#6e6e6e;}.cls-27{fill:#7a7a7a;}.cls-28{fill:#f2ccc0;}.cls-29{fill:#eaae99;}.cls-30{fill:#1a1a1a;}.cls-31{fill:#ad9360;}.cls-33{fill:#5c5c5c;opacity:0.23;}.cls-34{opacity:0.31;}.cls-35,.cls-36{stroke:#eaae99;}.cls-35,.cls-36,.cls-38,.cls-40,.cls-61{stroke-linecap:round;}.cls-35{stroke-width:1.28px;}.cls-36{stroke-width:0.85px;}.cls-37{fill:#b3b3b3;stroke-width:0.8px;}.cls-38{stroke-width:4.03px;}.cls-39,.cls-51,.cls-60{fill:#f2f2f2;}.cls-40{stroke-width:2.42px;}.cls-41,.cls-51{stroke-width:2px;}.cls-42,.cls-44{fill:#d3bd18;}.cls-42{stroke:#e6e6e6;stroke-width:0.79px;}.cls-43{fill:#bfab16;}.cls-45,.cls-52{font-size:12px;}.cls-45{font-family:Roboto-Bold, Roboto;font-weight:700;}.cls-46{letter-spacing:-0.02em;}.cls-47{letter-spacing:-0.06em;}.cls-48{letter-spacing:-0.01em;}.cls-49{letter-spacing:-0.01em;}.cls-50{letter-spacing:0.01em;}.cls-53{letter-spacing:0em;}.cls-54{letter-spacing:-0.02em;}.cls-55{letter-spacing:-0.01em;}.cls-56{letter-spacing:-0.01em;}.cls-57{fill:gray;}.cls-58{fill:#f7931e;}.cls-59{fill:#c6782a;}.cls-60,.cls-61{stroke:#c6782a;}.cls-61{stroke-linejoin:round;}.cls-62{fill:#999;stroke:#ccc;}.cls-62,.cls-63{stroke-width:0.91px;}.cls-63{fill:#ccc;stroke:#999;}</style>
        <clipPath id="clip-path">
            <rect class="cls-1" x="-1203.56" y="743.96" width="1388.87" height="780.86"/>
        </clipPath>
        <clipPath id="clip-path-2">
            <path class="cls-1" d="M30.12,1479.61l-19-694c-219,13.94-542.11,14-545,14v-.31l-517.69-13.9-27.69,19.75-1.19,151,26.24,14.84-7.41,499.52c141-6.49,522.71,14.09,522.71,14.09v-.54C-532,1483.79-253.33,1472.7,30.12,1479.61Z"/>
        </clipPath>
        <clipPath id="clip-path-3">
            <ellipse class="cls-1" cx="68.48" cy="121.64" rx="36.99" ry="38.64"/>
        </clipPath>
        <clipPath id="clip-path-4">
            <rect class="cls-1" x="33.56" y="89.57" width="70.59" height="70.7" transform="translate(-0.3 0.17) rotate(-0.14)"/>
        </clipPath>
    </defs>
    <title>notificacion_juridico_01</title>
    <g class="cls-2">
        <g id="fondo_05a">
            <rect class="cls-51" x="44.88" y="324.85" width="448.9" height="198.84" rx="27.55" ry="27.55"/>
            <text class="cls-52" transform="translate(137.33 361.67)">
                Lau
                <tspan class="cls-13" x="19.6" y="0">r</tspan>
                <tspan x="23.43" y="0">a McGoojil</tspan>
            </text>
            <text class="cls-52" transform="translate(137.33 381.67)">
                @Lau
                <tspan class="cls-13" x="30.38" y="0">r</tspan>
                <tspan x="34.2" y="0">a_McGoojil</tspan>
            </text>
            <circle cx="228" cy="358" r="6"/>
            <path class="cls-39" d="M227.34,360l4.07-11.18h1.8L228,362.71H226.7l-2.34-6h1.77Z"/>
            <text class="cls-10" transform="translate(81 420.25)">
                No h
                <tspan class="cls-21" x="31.22" y="0">a</tspan>
                <tspan x="39.27" y="0">y inn</tspan>
                <tspan class="cls-21" x="70.28" y="0">ov</tspan>
                <tspan x="85.88" y="0">ación en materia de d</tspan>
                <tspan class="cls-15" x="229.33" y="0">r</tspan>
                <tspan x="234.26" y="0">ogas. El p</tspan>
                <tspan class="cls-15" x="299.08" y="0">r</tspan>
                <tspan x="304.01" y="0">oblema es </tspan>
                <tspan x="0" y="20">siemp</tspan>
                <tspan class="cls-14" x="40.88" y="20">r</tspan>
                <tspan x="45.82" y="20">e el mismo y las her</tspan>
                <tspan class="cls-13" x="178.06" y="20">r</tspan>
                <tspan class="cls-53" x="182.84" y="20">amientas legales pa</tspan>
                <tspan class="cls-54" x="316.29" y="20">r</tspan>
                <tspan class="cls-53" x="321.08" y="20">a </tspan>
                <tspan x="0" y="40">abo</tspan>
                <tspan class="cls-14" x="25.13" y="40">r</tspan>
                <tspan x="30.07" y="40">darlo existen y son e</tspan>
                <tspan class="cls-55" x="166.3" y="40">f</tspan>
                <tspan x="171.33" y="40">ecti</tspan>
                <tspan class="cls-56" x="195.67" y="40">v</tspan>
                <tspan x="202.83" y="40">as. La guer</tspan>
                <tspan class="cls-13" x="276.03" y="40">r</tspan>
                <tspan x="280.82" y="40">a cont</tspan>
                <tspan class="cls-13" x="322.27" y="40">r</tspan>
                <tspan x="327.05" y="40">a las </tspan>
                <tspan x="0" y="60">d</tspan>
                <tspan class="cls-15" x="8.46" y="60">r</tspan>
                <tspan x="13.39" y="60">ogas continúa.</tspan>
            </text>
            <path class="cls-57" d="M87,506.75v-2.86l1.35.49a18.13,18.13,0,0,1-2.85-5.13,18.12,18.12,0,0,1-2.85,5.13l1.35-.49v5.86H99.48v-3H87Z"/>
            <path class="cls-57" d="M96.48,502.11l-1.35-.49A18.13,18.13,0,0,1,98,506.75a18.12,18.12,0,0,1,2.85-5.13l-1.35.49v-5.86H84v3H96.48Z"/>
            <path class="cls-57" d="M123.63,503.27h0a4.16,4.16,0,0,0,1-2.77,3.86,3.86,0,0,0-3.7-4,3.7,3.7,0,0,0-3.39,2.41,3.7,3.7,0,0,0-3.39-2.41,3.86,3.86,0,0,0-3.7,4,4.16,4.16,0,0,0,1,2.77h0c.08.08.16.16.25.23l5.79,5.48,5.84-5.53.18-.17Z"/>
            <path class="cls-57" d="M140.22,497.75l.49-1.35a18.12,18.12,0,0,1-5.13,2.85,18.13,18.13,0,0,1,5.13,2.85l-.49-1.35h6.34v7.5h3v-10.5Z"/>
            <path class="cls-58" d="M457,369c0,7.18-10,8-10,8s-10-.82-10-8,0-18,10-18S457,361.82,457,369Z"/>
            <polygon class="cls-59" points="459 355 453 355 456.44 357.7 459 355"/>
            <polygon class="cls-59" points="435 355 441 355 437.56 357.7 435 355"/>
            <circle class="cls-60" cx="442" cy="360" r="5"/>
            <circle class="cls-60" cx="452" cy="360" r="5"/>
            <path class="cls-39" d="M447,367s0-2-3-2c0,0,3-4,6,0C450,365,447,365,447,367Z"/>
            <circle class="cls-58" cx="442" cy="360" r="2"/>
            <circle class="cls-58" cx="452" cy="360" r="2"/>
            <circle class="cls-59" cx="445" cy="376" r="1"/>
            <circle class="cls-59" cx="443" cy="376" r="1"/>
            <circle class="cls-59" cx="441" cy="376" r="1"/>
            <circle class="cls-59" cx="453" cy="376" r="1"/>
            <circle class="cls-59" cx="451" cy="376" r="1"/>
            <circle class="cls-59" cx="449" cy="376" r="1"/>
            <path class="cls-61" d="M439,364s1.68,7,0,9.75"/>
            <path class="cls-61" d="M455.36,364s-1.68,7,0,9.75"/>
            <rect class="cls-62" x="80.5" y="345.5" width="40.89" height="40.89"/>
            <path class="cls-63" d="M99.5,352.5c-4,0-7,4-7,8s1,8,3,9,0,3-4,5-6.79,10.89-6.79,10.89H113.6s.9-5.89-5.1-10.89c0,0-8-2-6-4s5-5,4-11S99.5,352.5,99.5,352.5Z"/>
        </g>
    </g>
</svg>