<?xml version="1.0" encoding="utf-8"?>
<!-- Generator: Adobe Illustrator 21.1.0, SVG Export Plug-In . SVG Version: 6.00 Build 0)  -->
<svg version="1.1" xmlns="http://www.w3.org/2000/svg" xmlns:xlink="http://www.w3.org/1999/xlink" x="0px" y="0px"
	 viewBox="0 0 526 482.2" style="enable-background:new 0 0 526 482.2;" xml:space="preserve">
<style type="text/css">
	.st0{fill:#ADADAD;}
	.st1{fill:none;}
	.st2{font-family:'Roboto-Bold';}
	.st3{font-size:15.7706px;}
	.st4{font-family:'Roboto-Regular';}
	.st5{font-size:12.266px;}
	.st6{fill:#6F8FA3;}
</style>
<g id="Enrique_x5F_03">
	<title>notificacion_adicciones_02</title>
	<g>
		<path class="st0" d="M426.5,433.7h-322c0,0-22.3,23.4-66.3,23.4c30.8-4.2,31.5-23.4,31.5-23.4H39.8c-10.9,0-19.8-8.7-19.8-19.5
			v-59.5c0-10.8,8.9-19.5,19.8-19.5h386.7c10.9,0,19.8,8.7,19.8,19.5v59.5C446.3,425,437.4,433.7,426.5,433.7z"/>
		<rect x="41.3" y="346.3" class="st1" width="238.4" height="45.6"/>
		<text transform="matrix(1 0 0 1 41.3418 358.1053)" class="st2 st3">Diputada Enrique</text>
		<rect x="41.3" y="369.1" class="st1" width="399" height="134.1"/>
		<text transform="matrix(1 0 0 1 41.3408 378.2556)"><tspan x="0" y="0" class="st4 st5">Es una pérdida de tiempo. Dada la idiosincrasia de nuestras fuerzas de </tspan><tspan x="0" y="14.7" class="st4 st5">seguridad, debe llegar un saneamiento antes de cualquier intento de </tspan><tspan x="0" y="29.4" class="st4 st5">formación.</tspan></text>
	</g>
</g>
<g id="azul_x5F_02b">
	<path class="st6" d="M110.9,308.1h317.5c0,0,22,23.4,65.4,23.4c-30.4-4.2-31-23.4-31-23.4h29.4c10.8,0,19.5-8.7,19.5-19.5v-12
		c0-10.8-8.7-19.5-19.5-19.5H110.9c-10.8,0-19.5,8.7-19.5,19.5v12C91.3,299.3,100.1,308.1,110.9,308.1z"/>
	<rect x="110.3" y="271.2" class="st1" width="376.2" height="26.9"/>
	<text transform="matrix(1 0 0 1 110.3145 280.4099)"><tspan x="0" y="0" class="st4 st5">¿Y no crees en la cooperación interinstitucional, aunque sea en lo </tspan><tspan x="0" y="14.7" class="st4 st5">que respecta a la capacitación?</tspan></text>
</g>
<g id="Enrique_x5F_02">
	<g>
		<path class="st0" d="M420.8,241.3H103.3c0,0-22,23.4-65.4,23.4c30.4-4.2,31-23.4,31-23.4H39.6c-10.8,0-19.5-8.7-19.5-19.5v-38.4
			c0-10.8,8.7-19.5,19.5-19.5h381.2c10.8,0,19.5,8.7,19.5,19.5v38.4C440.3,232.5,431.6,241.3,420.8,241.3z"/>
		<rect x="41.3" y="174.9" class="st1" width="238.4" height="45.6"/>
		<text transform="matrix(1 0 0 1 41.3418 186.6936)" class="st2 st3">Diputada Enrique</text>
		<rect x="41.3" y="197.6" class="st1" width="376.2" height="60.7"/>
		<text transform="matrix(1 0 0 1 41.3408 206.8445)"><tspan x="0" y="0" class="st4 st5">No sirve importar fórmulas exitosas del exterior. Hay que concentrar</tspan><tspan x="371.6" y="0" class="st4 st5">-</tspan><tspan x="0" y="14.7" class="st4 st5">se en combatir la corrupción</tspan></text>
	</g>
</g>
<g id="azul_x5F_01b">
	<path class="st6" d="M112.1,147.1h317.5c0,0,22,23.4,65.4,23.4c-30.4-4.2-31-23.4-31-23.4h29.4c10.8,0,19.5-8.7,19.5-19.5v-8
		c0-10.8-8.7-19.5-19.5-19.5H112.1c-10.8,0-19.5,8.7-19.5,19.5v8C92.6,138.4,101.3,147.1,112.1,147.1z"/>
	<rect x="111.6" y="113.3" class="st1" width="376.2" height="26.9"/>
	<text transform="matrix(1 0 0 1 111.5527 122.4529)"><tspan x="0" y="0" class="st4 st5">¡Estamos avanzando! Con respecto a las fuerzas de seguridad y la </tspan><tspan x="0" y="14.7" class="st4 st5">narcocriminalidad… ¿Qué opinas?</tspan></text>
</g>
<g id="Enrique_x5F_01">
	<g>
		<path class="st0" d="M420.8,85H103.3c0,0-22,23.4-65.4,23.4C68.3,104.3,69,85,69,85H39.6C28.8,85,20,76.3,20,65.5V47
			c0-10.8,8.7-19.5,19.5-19.5h381.2c10.8,0,19.5,8.7,19.5,19.5v18.4C440.3,76.3,431.6,85,420.8,85z"/>
		<rect x="41.3" y="38.6" class="st1" width="238.4" height="45.6"/>
		<text transform="matrix(1 0 0 1 41.3418 50.45)" class="st2 st3">Diputada Enrique</text>
		<rect x="41.3" y="61.4" class="st1" width="376.2" height="60.7"/>
		<text transform="matrix(1 0 0 1 41.3408 70.6018)" class="st4 st5">¡Hola! ¿Cómo va el armado del plan de la organización?</text>
	</g>
</g>
</svg>
