<svg xmlns="http://www.w3.org/2000/svg" viewBox="0 0 395.83 570.94"><defs><style>.cls-1{fill:#412312;opacity:0.23;}.cls-2{fill:#d0ceca;}.cls-3{font-size:25.57px;font-family:MyriadPro-Bold, Myriad Pro;font-weight:700;}.cls-3,.cls-6{fill:#333;}.cls-4{letter-spacing:-0.01em;}.cls-5{letter-spacing:-0.01em;}.cls-7{fill:#989898;}</style></defs><title>pantallas_07a</title><g id="proyecto-02_07a"><polygon class="cls-1" points="22.48 570.94 3.89 16.48 377.49 4.95 395.83 560.59 22.48 570.94"/><polygon class="cls-2" points="18.59 565.98 0 11.52 373.6 0 391.94 555.64 18.59 565.98"/><text class="cls-3" transform="translate(24.52 57.63) rotate(-1.97)"><tspan class="cls-4">P</tspan><tspan class="cls-5" x="14.63" y="0">r</tspan><tspan x="24.14" y="0">opuesta 2</tspan></text><rect class="cls-6" x="25.17" y="91.66" width="128.85" height="17.71" transform="translate(-2.8 2.57) rotate(-1.62)"/><rect class="cls-7" x="25.67" y="111.68" width="312.79" height="10.82" transform="translate(-3.23 5.18) rotate(-1.62)"/><rect class="cls-7" x="26.12" y="127.41" width="312.79" height="10.82" transform="translate(-3.67 5.2) rotate(-1.62)"/><rect class="cls-6" x="26.34" y="169.37" width="128.85" height="17.71" transform="translate(-4.99 2.63) rotate(-1.62)"/><rect class="cls-7" x="26.84" y="189.39" width="312.79" height="10.82" transform="translate(-5.42 5.24) rotate(-1.62)"/><rect class="cls-7" x="27.28" y="205.12" width="312.79" height="10.82" transform="matrix(1, -0.03, 0.03, 1, -5.86, 5.26)"/><rect class="cls-6" x="27.73" y="249.04" width="128.85" height="17.71" transform="translate(-7.24 2.7) rotate(-1.62)"/><rect class="cls-7" x="28.23" y="269.06" width="312.79" height="10.82" transform="translate(-7.67 5.32) rotate(-1.62)"/><rect class="cls-7" x="28.68" y="284.8" width="312.79" height="10.82" transform="translate(-8.11 5.33) rotate(-1.62)"/><rect class="cls-7" x="28.23" y="372.06" width="312.79" height="10.82" transform="translate(-10.57 5.36) rotate(-1.62)"/><rect class="cls-7" x="28.68" y="387.8" width="312.79" height="10.82" transform="translate(-11.01 5.37) rotate(-1.62)"/><rect class="cls-7" x="36.83" y="457.72" width="312.79" height="10.82" transform="translate(-12.98 5.63) rotate(-1.62)"/><rect class="cls-7" x="37.28" y="473.46" width="312.79" height="10.82" transform="translate(-13.43 5.65) rotate(-1.62)"/><rect class="cls-7" x="38.22" y="488.18" width="312.79" height="10.82" transform="translate(-13.84 5.68) rotate(-1.62)"/><rect class="cls-7" x="38.67" y="503.92" width="312.79" height="10.82" transform="translate(-14.28 5.7) rotate(-1.62)"/><rect class="cls-6" x="32.21" y="347.3" width="128.85" height="17.71" transform="translate(-10 2.87) rotate(-1.62)"/></g></svg>