<?xml version="1.0" encoding="utf-8"?>
<!-- Generator: Adobe Illustrator 19.1.0, SVG Export Plug-In . SVG Version: 6.00 Build 0)  -->
<svg version="1.1" xmlns="http://www.w3.org/2000/svg" xmlns:xlink="http://www.w3.org/1999/xlink" x="0px" y="0px"
	 viewBox="0 0 504.1 226" style="enable-background:new 0 0 504.1 226;" xml:space="preserve">
<style type="text/css">
	.st0{fill:#F0EEE9;}
	.st1{fill:#333333;}
	.st2{font-family:'Roboto-Black';}
	.st3{font-size:15px;}
	.st4{fill:none;}
	.st5{font-family:'Roboto-Regular';}
	.st6{font-size:11px;}
	.st7{fill:#D1CFCB;}
	.st8{opacity:0.2;fill:#333333;}
	.st9{fill:#447360;}
	.st10{clip-path:url(#SVGID_2_);}
	.st11{fill:#101C47;}
	.st12{fill:#999999;}
	.st13{fill:#162661;}
	.st14{fill:#FFFFFF;}
	.st15{fill:#F2CCC0;}
	.st16{opacity:0.6;fill:#101C47;}
	.st17{fill:#93321E;}
	.st18{fill:#692415;}
	.st19{fill:#B3B3B3;}
	.st20{fill:#1A1A1A;}
	.st21{fill:#EAAE99;}
	.st22{opacity:0.2;fill:none;stroke:#000000;stroke-width:2.4376;stroke-miterlimit:10;}
	.st23{fill:none;stroke:#7C181F;stroke-width:2.4376;stroke-miterlimit:10;}
</style>
<g id="texto_x5F_07">
	<g>
		<g>
			
				<rect x="179.9" y="25" transform="matrix(0.9987 -5.173679e-02 5.173679e-02 0.9987 -3.8491 17.2556)" class="st0" width="303" height="116"/>
			<text transform="matrix(0.9989 -4.769000e-02 4.769000e-02 0.9989 221.1747 50.8337)" class="st1 st2 st3">SEGURIDAD</text>
			<polygon class="st4" points="220.9,58 458.2,48 463.9,132 224.9,143 			"/>
			<text transform="matrix(0.9989 -4.769000e-02 4.769000e-02 0.9989 221.3331 67.334)" class="st1 st5 st6">Prevención de Adicciones, texto descriptivo</text>
		</g>
	</g>
</g>
<g id="foto_x5F_07">
	<g>
		<path class="st7" d="M199.9,208.8c-64.5-4-181.4-5.8-181.4-5.8c3.2-98.8,5.8-181.4,5.8-181.4s148.1,8.7,181.4,5.8
			C205.7,27.4,196.8,181.3,199.9,208.8z"/>
		<polygon class="st8" points="33.1,191.4 192.3,201.6 189.8,44.5 		"/>
		
			<rect x="33.2" y="36.3" transform="matrix(0.9995 3.219905e-02 -3.219905e-02 0.9995 3.7662 -3.5496)" class="st9" width="157.8" height="157.8"/>
		<g>
			<defs>
				
					<rect id="SVGID_1_" x="33.2" y="36.3" transform="matrix(0.9995 3.219905e-02 -3.219905e-02 0.9995 3.7662 -3.5496)" width="157.8" height="157.8"/>
			</defs>
			<clipPath id="SVGID_2_">
				<use xlink:href="#SVGID_1_"  style="overflow:visible;"/>
			</clipPath>
			<g class="st10">
				<polygon class="st11" points="74,142.1 153.3,142.7 156.2,151.5 72.4,152.9 				"/>
				<path class="st12" d="M89.6,66.5c0,0-8.7-0.2-12.2,4c-3.5,4.2-4.1,17.2-4.1,17.2l5.1,7.9l77.9,8.1c0,0,4.9-11.7,2.1-20.6
					s-13.6-11.9-13.6-11.9L89.6,66.5z"/>
				<path class="st13" d="M23.1,194.6c0,0-0.4-37,66.7-52.2l48.8,2.4c0,0,52,4.7,63.5,57.4l-47.3,0.4l-85.7-4.1L23.1,194.6z"/>
				<polygon class="st14" points="79.1,145.1 68.1,152.7 76.9,171.6 76.7,198.8 147.2,202.2 153.2,167.7 156.2,150.4 147.3,144.6 
									"/>
				<path class="st15" d="M78.4,95.6c0,0-0.7-8.7-5.1-7.9c-4.4,0.9-6,11.7-5.1,16.1c0.9,4.4,4.7,14.4,4.7,14.4L78.4,95.6z"/>
				<path class="st16" d="M148.2,148.2c0,0-5.7,17.4-2.8,47.7l11.8-42.1l-2.9-8.3l-6.4-0.9L148.2,148.2z"/>
				<path class="st15" d="M156.1,109.1c4.3,29.7-21.3,53.3-44.4,52.2s-48-27.6-39.1-56.3c10.3-33.2,21.3-53.3,44.4-52.2
					C140,54,151.2,75.2,156.1,109.1z"/>
				<path class="st15" d="M154.4,99.2c0,0,0.2-4.3,3.5-5.3s6.3,4.7,3.6,15.4c-2.7,10.7-7.2,14.9-8.2,12.6
					C152.3,119.8,154.4,99.2,154.4,99.2z"/>
				<path class="st16" d="M79.3,145.6c0,0,4,30.6-0.4,53.3l-8.2-48l7.1-8.6L79.3,145.6z"/>
				<path class="st14" d="M98,133.5l0.7-6.1l26,1.3l-1.3,6.8c0,0-7.2,4.3-11.8,4C106.8,139.1,98,133.5,98,133.5z"/>
				<polygon class="st17" points="114.4,184.3 118.5,166 103.3,165.3 107.3,184 				"/>
				<polygon class="st18" points="104.1,171.8 115.2,180.8 117.9,168.8 104.2,169.4 				"/>
				<path class="st19" d="M73.8,101.1c0,0-3.8,22.9,5.7,29.8c9.4,7,9.4,7,9.4,7s15.9,8.4,18.2,6.3s2.3-5,2.3-5l5.4,0.3
					c0,0-0.1,5.1,3.1,5.3c3.3,0.2,22.4-2.7,28.2-9c5.7-6.2,8.9-15,9.2-32c0,0,4.2,13.6-0.9,30.8c-5.2,17.1-15.3,24.3-15.3,24.3
					l-0.9-4.4l-1.5,7.5c0,0-11.4,10.3-17.9,11.1c-6.6,0.8-24.9-2.3-28.9-9l0.3-6.5l-2.3,3.1c0,0-12.3-15.8-15-26.8
					C70,122.9,68.3,112.6,73.8,101.1z"/>
				<g>
					
						<ellipse transform="matrix(0.9988 4.828019e-02 -4.828019e-02 0.9988 4.7722 -4.5902)" class="st20" cx="97.4" cy="96.5" rx="2.7" ry="4.3"/>
					
						<ellipse transform="matrix(0.9988 4.828019e-02 -4.828019e-02 0.9988 4.8823 -6.1072)" class="st20" cx="128.9" cy="98" rx="2.7" ry="4.3"/>
				</g>
				<g>
					<g>
						<path class="st21" d="M96,134.8c9,6.4,21.3,9.1,30.2,1.1c1.4-1.3-0.7-3.4-2.1-2.1c-7.8,7.1-18.8,3.9-26.6-1.6
							C96,131.1,94.5,133.7,96,134.8L96,134.8z"/>
					</g>
				</g>
				<g>
					<g>
						<path class="st21" d="M96.7,128.3c9,3.6,19.9,5,29.2,1.4c1.8-0.7,1-3.6-0.8-2.9c-8.8,3.4-19,2-27.6-1.4
							C95.7,124.7,94.9,127.6,96.7,128.3L96.7,128.3z"/>
					</g>
				</g>
				<path class="st12" d="M131.4,126.4c-1.5-10-14.7-10.2-18-10.6l0,0c0,0-0.1,0-0.4,0c-0.3,0-0.4,0-0.4,0l0,0
					c-3.3,0.1-17.2-1.7-20.6,10.4c-3.9,13.9-3.5,28.7-3.5,28.7s8.8-31.6,23.8-24.8c14.4-5.4,20.9,26.9,20.9,26.9
					S133.6,140.7,131.4,126.4z"/>
				<g>
					<path class="st15" d="M104.8,107.2c-0.4,0.9-0.8,1.9-1.2,2.8c-0.3,0.7-0.7,1.5-0.6,2.4c0.1,0.9,0.7,1.6,1.4,2.2
						c1.7,1.4,3.8,2.2,5.9,3c1.1,0.4,2.3,0.9,3.5,0.6c0.6-0.1,1.1-0.4,1.7-0.7c1.2-0.6,2.3-1.3,3.5-1.9c0.5-0.3,1.1-0.6,1.5-1.1
						c0.8-0.9,1-2.3,0.7-3.5c-0.3-1.2-1-2.3-1.7-3.3"/>
				</g>
				<g>
					<g>
						<path class="st21" d="M103.9,106.6c-1.2,2.6-3,5.4-0.8,8c1.9,2.3,6.5,4.4,9.5,4.6c2.7,0.2,7-2.1,8.7-4.1
							c2.2-2.5,0.7-5.7-0.9-8.1c-0.8-1.2-2.7-0.1-1.9,1.1c1.9,3,1.8,4.7-1.2,7c-1.7,1.3-3.9,2-6,1.5c-1.4-0.3-3.3-1-4.4-1.9
							c-2.4-1.9-2.1-4.6-1-7C106.4,106.5,104.4,105.3,103.9,106.6L103.9,106.6z"/>
					</g>
				</g>
				<path class="st12" d="M82.7,93.8l23.2-0.5l1.3-7.5C107.1,85.8,90.9,84.2,82.7,93.8z"/>
				<path class="st12" d="M121.2,86.4l-0.4,7.6l22.6,4.4C143.4,98.4,134.2,88.1,121.2,86.4z"/>
				<polygon class="st12" points="110.1,141.3 104.1,171.8 110.2,172.9 				"/>
				<polygon class="st12" points="113.3,142.9 113.3,173.1 118.1,173.6 				"/>
				<path class="st11" d="M74,142.1l-21.2,12l7.5,24.3l8.7,0.4l-5.8,7.3l-2.4,11.6l17.8,1.7C78.6,199.4,84.4,163.5,74,142.1z"/>
				<path class="st11" d="M153.3,142.7c0,0-8.6,20.2-8.3,59.4l15.2,0.7c0,0,0.4-7.6,0.8-17.4l-2.9-7.8l5.3,2.4l8.8-24.6L153.3,142.7
					z"/>
				<polygon class="st17" points="107.9,184 101.6,200 117.9,200.8 113.3,184.2 				"/>
				<polygon class="st18" points="113.3,184.2 107.9,184 117,197.5 				"/>
			</g>
		</g>
		<g>
			<path class="st22" d="M122.6,25.6c-0.3-3.3-0.3-3.3-0.4-3.4c-0.5-0.7-12.2-0.5-13,0.3c-0.7,0.7,0.9,22.6,5.5,30.9
				c4.6,8.3,10,6.5,7.6-14.6"/>
			<path class="st23" d="M121.8,26.1c-0.2-1.9-0.3-3.2-0.4-3.3c-0.5-0.7-12.2-0.5-13,0.3c-0.7,0.7,0.9,22.6,5.5,30.9
				c4.6,8.3,10,6.5,7.6-14.6"/>
		</g>
	</g>
</g>
</svg>
