<svg xmlns="http://www.w3.org/2000/svg" xmlns:xlink="http://www.w3.org/1999/xlink" viewBox="0 0 458 220"><defs><style>.cls-1,.cls-25,.cls-26{fill:none;}.cls-2{isolation:isolate;}.cls-3{clip-path:url(#clip-path);}.cls-4{opacity:0.09;mix-blend-mode:multiply;}.cls-5{fill:#535353;opacity:0.23;}.cls-6{fill:#f0eee9;}.cls-7{font-size:22px;fill:#4d4d4d;font-family:ZillaSlab-Medium, Zilla Slab;}.cls-8{letter-spacing:-0.03em;}.cls-9{fill:#d1cfcb;}.cls-10{fill:#333;}.cls-10,.cls-25{opacity:0.2;}.cls-11{fill:#447360;}.cls-12{clip-path:url(#clip-path-2);}.cls-13,.cls-18{fill:#101c47;}.cls-14{fill:#999;}.cls-15{fill:#162661;}.cls-16{fill:#fff;}.cls-17{fill:#f2baa7;}.cls-18{opacity:0.6;}.cls-19{fill:#93321e;}.cls-20{fill:#692415;}.cls-21{fill:#b3b3b3;}.cls-22,.cls-27{fill:#1a1a1a;}.cls-23{fill:#eaae99;}.cls-24{fill:#dba390;}.cls-25{stroke:#000;}.cls-25,.cls-26{stroke-miterlimit:10;stroke-width:2.11px;}.cls-26{stroke:#7c181f;}.cls-27{font-size:23.46px;font-family:KaushanScript-Regular, Kaushan Script;}.cls-28{letter-spacing:-0.05em;}</style><clipPath id="clip-path"><path class="cls-1" d="M1215.12,1379.61l-19-694c-219,13.94-542.11,14-545,14v-.31L133.47,685.4l-27.69,19.75-1.19,151L130.82,871l-7.41,499.52c141-6.49,522.71,14.09,522.71,14.09v-.54C653,1383.79,931.67,1372.7,1215.12,1379.61Z"/></clipPath><clipPath id="clip-path-2"><rect class="cls-1" x="24" y="33.72" width="136.4" height="136.4" transform="translate(-12.63 190.8) rotate(-88.15)"/></clipPath></defs><title>notificacion_seguridad_01</title><g class="cls-2"><g id="tarjeta_05a"><path class="cls-5" d="M458,99.78,453.89,21,194.15,34.44c1.39-10.57-1.71,13.74-1.71,13.74-10,.27-34.29-2.24-59.07-5.25l.07-.77c0-2.4,0-2.34-.11-2.47-.3-.52-8.68-1-9.23-.55a.56.56,0,0,0-.1.26,1.23,1.23,0,0,0-.54.14,6.45,6.45,0,0,0-.27,2.15c-30.77-3.86-99-8-99-8S21.74,112.25,12.5,194.14c0,0,121.07,18.8,166.7,25.53-.08-8.14,2.32-81.63,5.07-105.71Z"/><rect class="cls-6" x="147.32" y="19.23" width="303" height="78.9" transform="translate(-2.64 15.54) rotate(-2.97)"/><text class="cls-7" transform="translate(207.32 63.51) rotate(-2.73)">SEGURI<tspan class="cls-8" x="76.8" y="0">D</tspan><tspan x="91.56" y="0">AD</tspan></text><path class="cls-9" d="M167.31,207.24c-55.76-3.68-156.82-5.05-156.82-5.05C13.66,103.46,16.32,21,16.32,21s128,8.1,156.82,5.05C173.14,26,164.78,179.84,167.31,207.24Z"/><polygon class="cls-10" points="23.93 167.81 161.51 176.61 159.36 40.83 23.93 167.81"/><rect class="cls-11" x="24" y="33.72" width="136.4" height="136.4" transform="translate(-12.63 190.8) rotate(-88.15)"/><g class="cls-12"><polygon class="cls-13" points="59.27 125.22 127.86 125.72 130.31 133.35 57.88 134.55 59.27 125.22"/><path class="cls-14" d="M72.77,59.88s-7.51-.17-10.51,3.45S58.72,78.2,58.72,78.2L63.1,85l67.34,7s4.25-10.13,1.8-17.77-11.72-10.3-11.72-10.3Z"/><path class="cls-15" d="M15.25,170.56s-.33-32,57.64-45.15l42.2,2S160,131.5,170,177.1l-40.91.37L55,173.89Z"/><polygon class="cls-16" points="63.64 127.81 54.13 134.37 61.8 150.72 61.6 174.21 122.56 177.16 127.76 147.33 130.36 132.42 122.61 127.34 63.64 127.81"/><path class="cls-17" d="M63.1,85s-.58-7.55-4.37-6.79-5.19,10.09-4.43,13.88,4.1,12.42,4.1,12.42Z"/><path class="cls-18" d="M123.4,130.49s-5,15-2.46,41.21l10.22-36.43-2.53-7.17-5.55-.74Z"/><path class="cls-17" d="M130.21,96.69c3.69,25.66-18.43,46.11-38.37,45.14S50.32,118,58,93.2C66.91,64.49,76.43,47.1,96.37,48.06S126,67.35,130.21,96.69Z"/><path class="cls-17" d="M128.76,88.16s.16-3.75,3-4.55,5.45,4,3.12,13.31-6.26,12.86-7.11,10.94S128.77,88.16,128.76,88.16Z"/><path class="cls-18" d="M63.82,128.26s3.42,26.48-.35,46l-7.09-41.49,6.17-7.44Z"/><path class="cls-16" d="M80,117.82l.58-5.3L103,113.6l-1.14,5.86s-6.22,3.7-10.22,3.42S80,117.82,80,117.82Z"/><polygon class="cls-19" points="94.17 161.69 97.75 145.88 84.62 145.25 88.07 161.39 94.17 161.69"/><polygon class="cls-20" points="85.29 150.92 94.85 158.68 97.19 148.34 85.39 148.83 85.29 150.92"/><path class="cls-21" d="M59.08,89.78S55.8,109.54,64,115.58l8.17,6s13.75,7.24,15.72,5.46a6.36,6.36,0,0,0,2-4.32l4.69.23s-.09,4.41,2.72,4.55,19.38-2.35,24.34-7.75,7.67-12.93,7.92-27.65c0,0,3.66,11.76-.82,26.58s-13.23,21-13.23,21l-.76-3.8-1.26,6.52s-9.83,8.92-15.5,9.59-21.52-2-25-7.79l.27-5.63-2,2.72s-10.62-13.67-13-23.19S54.35,99.71,59.08,89.78Z"/><ellipse class="cls-22" cx="79.51" cy="85.78" rx="3.76" ry="2.35" transform="translate(-10.01 161.05) rotate(-87.23)"/><ellipse class="cls-22" cx="106.7" cy="87.1" rx="3.76" ry="2.35" transform="translate(14.55 189.47) rotate(-87.23)"/><path class="cls-23" d="M78.32,118.88c7.78,5.55,18.41,7.88,26.1,1,1.24-1.11-.59-2.93-1.82-1.82-6.84,6.14-16.24,3.41-23-1.39-1.35-1-2.64,1.27-1.3,2.23Z"/><path class="cls-23" d="M78.9,113.27c7.87,3.09,17.18,4.28,25.22,1.19,1.53-.59.87-3.08-.69-2.49-7.67,2.95-16.36,1.76-23.85-1.19-1.54-.61-2.21,1.88-.69,2.49Z"/><path class="cls-14" d="M108.85,111.6c-1.34-8.63-12.73-8.81-15.58-9.14v0h-.35l-.35,0v0c-2.88.05-14.87-1.49-17.82,9a93,93,0,0,0-3,24.79s7.64-27.32,20.56-21.41c12.45-4.68,18,23.27,18,23.27A168.45,168.45,0,0,0,108.85,111.6Z"/><path class="cls-17" d="M85.93,95l-1.06,2.41a3.9,3.9,0,0,0-.48,2,3.18,3.18,0,0,0,1.22,1.88A16.79,16.79,0,0,0,90.66,104a4.06,4.06,0,0,0,4.47-.1l3-1.66a4.89,4.89,0,0,0,1.31-.93,3.31,3.31,0,0,0,.56-3,9.79,9.79,0,0,0-1.46-2.84"/><path class="cls-24" d="M85.1,94.55c-1,2.26-2.59,4.71-.72,6.94,1.64,2,5.66,3.81,8.17,4,2.35.18,6.06-1.83,7.55-3.52,1.92-2.17.58-5-.74-7-.66-1-2.32-.08-1.66,1,1.64,2.56,1.57,4.09-1.07,6a6.34,6.34,0,0,1-5.22,1.28,10.6,10.6,0,0,1-3.77-1.62c-2-1.65-1.84-3.95-.89-6.09.49-1.12-1.16-2.1-1.66-1Z"/><path class="cls-14" d="M66.76,83.48l20.07-.43,1.09-6.48S73.87,75.16,66.76,83.48Z"/><path class="cls-14" d="M100.08,77l-.34,6.56,19.54,3.83S111.28,78.55,100.08,77Z"/><polygon class="cls-14" points="90.49 124.56 85.29 150.92 90.53 151.87 90.49 124.56"/><polygon class="cls-14" points="93.25 125.92 93.22 151.98 97.43 152.44 93.25 125.92"/><path class="cls-13" d="M59.27,125.22,40.91,135.61l6.5,21,7.5.36-5,6.34-2,10,15.39,1.47S68.24,143.75,59.27,125.22Z"/><path class="cls-13" d="M127.86,125.72s-7.43,17.5-7.18,51.35l13.13.63.73-15L132,156l4.6,2.1,7.61-21.25Z"/><polygon class="cls-19" points="88.54 161.41 83.17 175.25 97.24 175.93 93.23 161.64 88.54 161.41"/><polygon class="cls-20" points="93.23 161.64 88.54 161.41 96.44 173.07 93.23 161.64"/></g><path class="cls-25" d="M101.31,24.48c-.24-2.89-.27-2.82-.37-3-.41-.6-10.58-.41-11.2.23s.81,19.58,4.8,26.75,8.67,5.61,6.61-12.58"/><path class="cls-26" d="M100.56,24.9A19.39,19.39,0,0,0,100.2,22c-.41-.61-10.58-.41-11.2.23s.81,19.58,4.8,26.75,8.67,5.62,6.61-12.58"/><text class="cls-27" transform="translate(60.54 195.41) rotate(0.77)"><tspan class="cls-28">L</tspan><tspan x="10.65" y="0">UIS</tspan></text></g></g></svg>