<svg xmlns="http://www.w3.org/2000/svg" viewBox="0 0 299 380"><defs><style>.cls-1,.cls-12,.cls-14{opacity:0.2;}.cls-2{fill:#c4ab18;}.cls-3{fill:#c2c2c2;}.cls-4{fill:#d1cfcb;}.cls-5{fill:#d3bd18;}.cls-6,.cls-7{fill:#4d4d4d;}.cls-7{font-size:22.46px;font-family:MyriadPro-Regular, Myriad Pro;}.cls-8{letter-spacing:0em;}.cls-9{letter-spacing:-0.05em;}.cls-10{letter-spacing:-0.06em;}.cls-11{letter-spacing:0em;}.cls-12{fill:#333;}.cls-13{fill:#005187;}.cls-14,.cls-15{fill:none;stroke-miterlimit:10;stroke-width:1.74px;}.cls-14{stroke:#000;}.cls-15{stroke:#7c181f;}</style></defs><title>pantallas_04-carpetas</title><g id="lapices"><path class="cls-1" d="M280.49,172.54l3.85-69.63,7.29-4.3L289.58,21l-14.43-9.89L14.2,20.5l9.17,354.34h.13V376s95.11,1.34,195.43-3.08l50.34,2.28.28-5q5.26-.35,10.47-.72l-.43-6.35q3.8,0,7.26.14Z"/><path class="cls-2" d="M19.5,373S157.21,375,276,366.48L255.67,63.73,18.76,69.86Z"/><polygon class="cls-3" points="50.42 371.22 43.59 36.11 265.25 22.73 274.14 366.45 50.42 371.22"/><polygon class="cls-4" points="39.13 361.99 62.23 24.29 284.27 28.92 265.27 372.22 39.13 361.99"/><path class="cls-5" d="M10.2,17.5l261-9.42L285.58,18l2.05,77.64-13.35,7.88,8.57,256.79c-72.55-2-263.49,11.57-263.49,11.57Z"/><path class="cls-6" d="M55.12,256.41c7.93-.43,15.86-.73,23.79-1.1l23.8-.89c15.87-.58,31.74-1,47.61-1.46,15.87-.33,31.75-.75,47.62-1l23.81-.34c7.94,0,15.88-.15,23.82-.13-7.93.43-15.86.73-23.79,1.11l-23.8.89c-15.87.57-31.74,1-47.61,1.46-15.87.33-31.75.75-47.62,1l-23.81.34C71,256.32,63.06,256.43,55.12,256.41Z"/><path class="cls-6" d="M52.53,156.53c7.93-.43,15.86-.73,23.79-1.1l23.8-.89c15.87-.58,31.74-1,47.61-1.46,15.87-.33,31.75-.75,47.62-1l23.81-.34c7.94,0,15.88-.15,23.82-.13-7.93.43-15.86.73-23.79,1.11l-23.8.89c-15.87.57-31.74,1-47.61,1.46-15.87.33-31.75.75-47.62,1l-23.81.34C68.41,156.45,60.47,156.55,52.53,156.53Z"/><text class="cls-7" transform="matrix(1, -0.03, 0.03, 1, 88.22, 187.33)">POLÍTI<tspan class="cls-8" x="59.92" y="0">C</tspan><tspan x="73.04" y="0">AS DE </tspan><tspan x="9.64" y="26.95">L</tspan><tspan class="cls-9" x="20.24" y="26.95">A</tspan><tspan class="cls-10" x="32.79" y="26.95">V</tspan><tspan x="44.04" y="26.95">ADO DE </tspan><tspan x="27.42" y="53.9">DINE</tspan><tspan class="cls-11" x="73.58" y="53.9">R</tspan><tspan x="85.73" y="53.9">O</tspan></text><path class="cls-4" d="M269.8,124.72c-41.25-3.14-116-5.43-116-5.43l5.43-116s94.71,7,116,5.43C275.24,8.68,268.11,107.13,269.8,124.72Z"/><polygon class="cls-12" points="163.24 112.02 265 120.03 264.88 19.48 163.24 112.02"/><rect class="cls-13" x="164" y="13.49" width="100.99" height="100.99" transform="translate(140.55 275.26) rotate(-87.32)"/><path class="cls-14" d="M222.07,6.76c-.15-2.15-.17-2.09-.24-2.21-.3-.45-7.83-.42-8.3,0s.39,14.5,3.26,19.86,6.36,4.25,5-9.24"/><path class="cls-15" d="M221.51,7.05a14.36,14.36,0,0,0-.24-2.11c-.29-.45-7.83-.42-8.29,0s.39,14.5,3.26,19.86,6.36,4.25,5-9.24"/></g></svg>