<?xml version="1.0" encoding="utf-8"?>
<!-- Generator: Adobe Illustrator 19.1.0, SVG Export Plug-In . SVG Version: 6.00 Build 0)  -->
<svg version="1.1" id="Capa_1" xmlns="http://www.w3.org/2000/svg" xmlns:xlink="http://www.w3.org/1999/xlink" x="0px" y="0px"
	 viewBox="-310 73.8 338.2 414.2" style="enable-background:new -310 73.8 338.2 414.2;" xml:space="preserve">
<style type="text/css">
	.st0{opacity:0.2;}
	.st1{fill:#C4AB18;}
	.st2{fill:#A8A59E;}
	.st3{fill:#E6E6E6;}
	.st4{fill:#D3BD18;}
	.st5{fill:#4D4D4D;}
	.st6{fill:none;}
	.st7{font-family:'ZillaSlab-Medium';}
	.st8{font-size:21px;}
	.st9{fill:#D1CFCB;}
	.st10{opacity:0.2;fill:#333333;}
	.st11{fill:#CC8383;}
	.st12{opacity:0.2;fill:none;stroke:#000000;stroke-width:1.7393;stroke-miterlimit:10;}
	.st13{fill:none;stroke:#7C181F;stroke-width:1.7393;stroke-miterlimit:10;}
	.st14{clip-path:url(#SVGID_2_);}
	.st15{fill:#C6AA6D;}
	.st16{fill:#6E6E6E;}
	.st17{fill:#7A7A7A;}
	.st18{fill:#F2CCC0;}
	.st19{fill:#EAAE99;}
	.st20{fill:#1A1A1A;}
	.st21{fill:#AD9360;}
	.st22{fill:#FFFFFF;}
	.st23{opacity:0.23;fill:#5C5C5C;}
	.st24{opacity:0.31;fill:#6E6E6E;}
	.st25{fill:none;stroke:#EAAE99;stroke-width:2.0391;stroke-linecap:round;stroke-miterlimit:10;}
	.st26{fill:none;stroke:#EAAE99;stroke-width:1.3594;stroke-linecap:round;stroke-miterlimit:10;}
</style>
<g>
	<path class="st0" d="M22.6,97.5L7.1,85.5l-291-6.4l-12.7,394.9c0,0,0.1,0,0.1,0l-0.1,1.3c0,0,153.1,11,285.9,9.3l0-4l10.6,0.2
		l9.4-291.5l10.5-5.4L22.6,97.5z"/>
	<g>
		<path class="st1" d="M-304.3,473.2c0,0,153.1,11,285.9,9.3l-3.1-338.2l-264.1-8.5L-304.3,473.2z"/>
		<polygon class="st2" points="-277.5,472.7 -263.5,99.3 -16,98.8 -28.3,481.8 		"/>
		<polygon class="st3" points="-260.2,473.1 -243.1,96.2 4.4,95.6 -7.9,478.7 		"/>
		<path class="st4" d="M-291.7,76.9l291,6.4l15.4,11.9L12,181.8l-15.4,7.9l-7,286.3c-80.6-6.9-294-4.1-294-4.1L-291.7,76.9z"/>
	</g>
	<g>
		<g>
			<path class="st5" d="M-257.1,345.7c0,0,3.3,0,9.1,0.1c5.8,0.1,14.1,0.2,24.1,0.4c10,0.2,21.6,0.4,34,0.8
				c12.4,0.4,25.7,0.7,39,1.1c13.3,0.5,26.5,0.9,39,1.4c12.4,0.4,24,1,34,1.4c9.9,0.4,18.2,0.9,24,1.1c5.8,0.3,9.1,0.5,9.1,0.5
				s-3.3,0-9.1-0.1c-5.8-0.1-14.1-0.2-24.1-0.4c-10-0.2-21.6-0.4-34-0.8c-12.4-0.4-25.7-0.7-39-1.1c-13.3-0.5-26.5-0.9-39-1.4
				c-12.4-0.4-24-1-34-1.4c-9.9-0.4-18.2-0.9-24-1.1C-253.8,345.9-257.1,345.7-257.1,345.7z"/>
		</g>
		<g>
			<path class="st5" d="M-253.5,234.4c0,0,3.3,0,9.1,0.1c5.8,0.1,14.1,0.2,24.1,0.4c10,0.2,21.6,0.4,34,0.8
				c12.4,0.4,25.7,0.7,39,1.1c13.3,0.5,26.5,0.9,39,1.4c12.4,0.4,24,1,34,1.4c9.9,0.4,18.2,0.9,24,1.1c5.8,0.3,9.1,0.5,9.1,0.5
				s-3.3,0-9.1-0.1c-5.8-0.1-14.1-0.2-24.1-0.4c-10-0.2-21.6-0.4-34-0.8c-12.4-0.4-25.7-0.7-39-1.1c-13.3-0.5-26.5-0.9-39-1.4
				c-12.4-0.4-24-1-34-1.4c-9.9-0.4-18.2-0.9-24-1.1C-250.2,234.6-253.5,234.4-253.5,234.4z"/>
		</g>
		<g>
			
				<rect x="-264.5" y="245.2" transform="matrix(0.9995 3.207724e-02 -3.207724e-02 0.9995 9.6578 4.9557)" class="st6" width="229.7" height="116.5"/>
			<text transform="matrix(0.9995 3.208000e-02 -3.208000e-02 0.9995 -244.9457 256.5852)"><tspan x="0" y="0" class="st5 st7 st8">FORTALECIMIENTO </tspan><tspan x="-15.9" y="27" class="st5 st7 st8">DEL PODER JUDICIAL Y </tspan><tspan x="15" y="54" class="st5 st7 st8">DEL MINISTERIO </tspan><tspan x="16.4" y="81" class="st5 st7 st8">PÚBLICO FISCAL</tspan></text>
		</g>
	</g>
	<g>
		<path class="st9" d="M9.8,207.1c-46.1,0.3-129.4,4.5-129.4,4.5c-2.4-70.5-4.5-129.4-4.5-129.4s105.9-0.8,129.4-4.5
			C5.3,77.7,6.3,187.7,9.8,207.1z"/>
		<polygon class="st10" points="-109.8,202.7 4,202.4 -5.3,90.7 		"/>
		
			<rect x="-113.5" y="88.4" transform="matrix(0.9994 -3.466101e-02 3.466101e-02 0.9994 -5.0486 -1.8954)" class="st11" width="112.6" height="112.6"/>
		<g>
			<path class="st12" d="M-54,80.4c-0.4-2.4-0.4-2.3-0.5-2.4c-0.4-0.5-8.7,0.2-9.2,0.8c-0.5,0.6,1.7,16.1,5.4,21.8
				c3.7,5.7,7.5,4.1,4.7-10.7"/>
			<path class="st13" d="M-54.6,80.8c-0.2-1.4-0.4-2.2-0.5-2.3c-0.4-0.5-8.7,0.2-9.2,0.8c-0.5,0.6,1.7,16.1,5.4,21.8
				c3.7,5.7,7.5,4.1,4.7-10.7"/>
		</g>
		<g>
			<defs>
				
					<rect id="SVGID_1_" x="-113.5" y="88.4" transform="matrix(0.9994 -3.466101e-02 3.466101e-02 0.9994 -5.0486 -1.8954)" width="112.6" height="112.6"/>
			</defs>
			<clipPath id="SVGID_2_">
				<use xlink:href="#SVGID_1_"  style="overflow:visible;"/>
			</clipPath>
			<g class="st14">
				<g>
					<g>
						<path class="st15" d="M-38,138.8c-0.7,1.7-0.2,3.8,1.2,5.1c1,0.9,2.4-0.6,1.4-1.4c-0.9-0.8-1.2-2-0.7-3.1
							c0.2-0.5-0.2-1.1-0.7-1.3C-37.4,137.9-37.8,138.3-38,138.8L-38,138.8z"/>
					</g>
				</g>
				<g>
					<g>
						<path class="st15" d="M-39.8,143.1c1.7-1.1,3.8-0.2,5.5-1.5c1.3-1,2.5-3,2.6-4.6c0.1-1.7-1.6-4-3.4-2.4
							c-1.4,1.3,0.1,3.3,1.8,3.1c2.1-0.3,2.6-2.7,0.9-3.8c-0.6-0.4-1.3,0-1.5,0.6c-0.2,0.5-0.8,3-1.6,3c0.2,0.6,0.3,1.3,0.5,1.9
							c1.1-0.6,1.1-0.6,1.8-1.7c0.4-0.6,0-1.3-0.6-1.5c-3.1-1.1,1.6-2.2,1.7-2.4c0.8-1.1,1.4-2,1.7-3.4c0.5-2.3-0.4-4.1-2.5-5
							c-1.1-0.4-1.8,1.4-0.8,1.9c0.9,0.4,1.1,0.5,2.1,0.5c-0.3-0.2-0.7-0.5-1-0.7c-0.8,1-1.6,2.1-2.4,3.1c0.1,0.7,0.2,1.3,0.3,2
							c1.6-0.3,2.3-1.5,2-3.1c-0.2-0.9-1.4-0.9-1.9-0.2c-0.5,0.7-1,1.5-1.5,2.2c0.6,0,1.2,0,1.8,0c-0.2-0.5-0.5-0.9-0.7-1.4
							c-0.2-0.7-0.9-0.9-1.5-0.6c-0.2,0.1-0.4,0.2-0.6,0.3c0.5,0.1,0.9,0.2,1.4,0.4c-0.5-0.6-1.5-2.6-1.1-3.4
							c0.6,0.2,1.3,0.3,1.9,0.5c0.1-1.5,0.1-1.3-0.3-2.8c-0.3-1-1.7-0.9-2,0c-0.8,2.4,0.7,4.4,3.3,4.3c-0.2-0.6-0.5-1.2-0.7-1.7
							c-0.2-0.1-0.4-0.2-0.6-0.3c0.7-1.1-1.1-2.2-1.8-1c-1.7,2.8,1.6,5.3,3.8,2.8c0.5-0.6,0.2-1.8-0.7-1.7c-0.4-0.6-0.9-1.1-1.3-1.7
							c-0.7,0-1.3,0-2,0c0.1,0.7,0.1,1.5,0.2,2.2c0,1,1.4,1.4,1.9,0.5c0.9-1.7,1.3-6-2-4.6c-3,1.3-1.8,6.1-0.4,8
							c0.4,0.5,0.8,0.6,1.4,0.4c0.2-0.1,0.4-0.2,0.6-0.3c-0.5-0.2-1-0.4-1.5-0.6c0.3,1.1,0.2,1,0.9,1.9c0.5,0.6,1.3,0.7,1.8,0
							c0.5-0.7,1-1.5,1.5-2.2c-0.6-0.1-1.2-0.2-1.9-0.2c-0.2,0.2-0.4,0.4-0.5,0.6c-1.1,0.2-0.9,2.1,0.3,2c3.2-0.4,4.8-2.5,4.4-5.7
							c-0.1-0.4-0.6-0.7-1-0.7c-0.4-0.1-0.7-0.1-1.1-0.2c-0.3,0.6-0.5,1.2-0.8,1.9c1.7,3.2,1.6,4.8-0.3,4.6c-0.2,0-0.4,0-0.6,0
							c-0.3,0.2-0.8,0.2-1.2,0.5c-0.7,0.4-1.2,1.2-1.4,2c-0.4,1.8,1,3.1,2.6,3.7c-0.2-0.5-0.4-1-0.6-1.5c-0.4,0.3-0.7,0.7-1.1,1
							c-0.9,0.5-0.4,1.8,0.5,1.9c2.3,0.2,3-2.8,3.5-4.5c-0.5,0.2-1,0.4-1.5,0.6c-0.2,1.2-0.7,2.3-1.3,3.3c-1.1,1.3-2.5,1.8-4,1.7
							c-1,0.3-1.3,0.2-2.2,0.7C-41.9,142-40.9,143.8-39.8,143.1L-39.8,143.1z"/>
					</g>
				</g>
				<polygon class="st16" points="-74.9,173.6 -42.8,171.8 -37.2,176.3 -54.7,193.5 -76.9,184.2 				"/>
				<path class="st17" d="M-70.3,175.9c0,0-25.5,6.2-30.1,10.2c-4.6,4-5.3,19.7-5.3,19.7l50.1,12.6l50-19.8c0,0-0.6-13.9-10.9-19.1
					s-29-4.4-29-4.4L-70.3,175.9z"/>
				<polygon class="st18" points="-67.7,162 -70.8,178.7 -61.9,193.7 -44.1,183.2 -46.6,161 				"/>
				<path class="st15" d="M-88.1,121.6c1.1,3.3,2.9,19.6,2.9,22.4c0,2.8,1.6,8.6,4.6,10.4c3,1.8,7.5,7.3,7.9,7
					c0.4-0.3,32.4-5.7,32.4-5.7s3.3-4.7,2.7-10.8c-0.6-6.1,0.7-17.7,2.3-19.5s-0.8-15-2.7-16c-1.8-1-4.9-8.8-12.8-9
					c-4.5-0.1-17.5-2.5-26.6,3.1C-84.4,107.8-88.5,120.2-88.1,121.6z"/>
				<path class="st19" d="M-68.2,165.4l-1.9,10.7c0,0,20.7,0.2,23.1-11.7L-68.2,165.4z"/>
				<path class="st19" d="M-40,133.4c0,0,2.1-5.5,3.7-4.8c1.6,0.7,1.8,6.3,0.9,7.7c-0.8,1.5-4,8.1-4,8.1l-1.9-4.6L-40,133.4z"/>
				<path class="st19" d="M-80.7,130.5c0,0-3.9-3.7-3.8,0.9c0.1,4.6,5.7,13,5.7,13S-76.9,134.1-80.7,130.5z"/>
				<path class="st18" d="M-38.6,132.8c-0.2,2.8-0.3,5.3-0.5,7.7c-1.5,23.1-3.2,27.5-18.7,28.4c-16.1,0.9-18.3-6.1-22.3-33.8
					c-3.8-26.4,7.5-33.1,19-33.7S-36.9,103.7-38.6,132.8z"/>
				<g>
					
						<ellipse transform="matrix(0.9985 -5.480955e-02 5.480955e-02 0.9985 -7.3089 -3.5574)" class="st20" cx="-68.5" cy="131.5" rx="1.7" ry="2.7"/>
					
						<ellipse transform="matrix(0.9985 -5.480955e-02 5.480955e-02 0.9985 -7.2201 -2.4803)" class="st20" cx="-48.8" cy="130.4" rx="1.7" ry="2.7"/>
				</g>
				<polygon class="st15" points="-76.2,127.6 -76.4,130.3 -62.2,128.4 -61.8,124.1 				"/>
				<polygon class="st15" points="-54.5,124 -54.2,128 -44.3,128.2 -44.1,126.1 				"/>
				<g>
					<g>
						<path class="st15" d="M-90,115.1c-0.8,2.2,1,6.1,3.7,5.2c2.5-0.8,3.2-4.5,1.2-6.1c-0.3-0.3-0.9-0.4-1.2-0.2
							c-0.7,0.5-0.9,1.5,0,2c1.2,0.6,2.2-1.2,1-1.8c0,0-0.1,0-0.1,0c0.2,0.3,0.3,0.6,0.5,0.9c0,0,0-0.1,0-0.1
							c-0.2,0.3-0.3,0.6-0.5,0.9c0,0,0.1,0,0.1-0.1c-0.4-0.1-0.8-0.1-1.2-0.2c0.8,0.7,0.8,2.3-0.3,2.7c-1.1,0.4-1.4-2-1.2-2.6
							C-87.6,114.4-89.5,113.9-90,115.1L-90,115.1z"/>
					</g>
				</g>
				<g>
					<g>
						<path class="st15" d="M-89.7,115.3c-0.2,1-0.1,2,0.5,3c0.5,0.9,1.6,1.6,2.6,1c1.7-1,1.4-3.7,0.2-4.9c-0.5-0.5-1.2-0.3-1.6,0.2
							c-0.6,0.8-0.8,1.9-0.5,2.8c0.2,0.5,0.6,0.9,1.2,0.8c0.5,0,0.9-0.4,1.3-0.6c1.1-0.6,0.1-2.4-1-1.8c-0.3,0.2-0.5,0.3-0.8,0.5
							c0.2,0,0.3-0.1,0.5-0.1c0,0-0.1,0-0.1,0c0.2,0.1,0.5,0.2,0.7,0.3c0.1,0.3,0.1,0.3,0.1,0.1c0-0.1,0-0.2,0-0.3
							c0-0.3,0.2-0.4,0.3-0.7c-0.5,0.1-1.1,0.1-1.6,0.2c0.5,0.5,0.4,1,0.3,1.5c0,0,0,0.1-0.1,0.1c-0.1,0.2,0,0.2,0.3,0
							c0,0-0.2-0.4-0.2-0.5c-0.1-0.3-0.2-0.7-0.1-1.1c0.1-0.5-0.1-1.1-0.7-1.3C-88.9,114.4-89.6,114.7-89.7,115.3L-89.7,115.3z"/>
					</g>
				</g>
				<g>
					<g>
						<path class="st15" d="M-87,107.5c-0.6,1.7-0.6,4.7,1.3,5.7c2.3,1.2,3.3-2.3,3.2-4c0-0.9-0.5-1.7-1.5-1.8c-1,0-1.6,0.8-1.9,1.7
							c-0.2,0.8-0.1,1.8,0.8,2.1c1.1,0.3,1.7-0.9,1.9-1.8c-0.6,0.1-1.1,0.3-1.7,0.4c0.4,0.4,0.8,0.8,1.2,1c0.2,0.1,0.5,0.2,0.7,0.3
							c0.1,0,0.2,0.1,0.3,0.1c0.4,0.2,0.4,0,0-0.7c-0.7,1.1,1.1,2.1,1.8,1c0.4-0.7,0.2-1.6-0.5-2c-0.3-0.2-0.7-0.2-1-0.4
							c-0.4-0.2-0.8-0.5-1.1-0.8c-0.5-0.6-1.5-0.2-1.7,0.4c0,0.2-0.1,0.3-0.2,0.4c-0.1,0.2-0.1,0.2,0,0c0.3,0,0.5-0.1,0.8-0.1
							c0,0-0.1,0-0.1,0c0.2,0.2,0.4,0.3,0.6,0.5c0,0.2,0,0.2,0,0c0.1-0.3-0.1-0.5-0.6-0.6c-0.1,0.1,0,0.9,0,1c0,0.3-0.1,0.5-0.2,0.7
							c0,0.1-0.1,0.3-0.2,0.4c-0.2,0.2-0.2,0.3-0.1,0.1c0,0.1-0.1-0.5-0.2-0.6c-0.1-0.3-0.2-0.6-0.2-0.9c-0.1-0.6,0.1-1.2,0.2-1.8
							C-84.6,106.7-86.6,106.2-87,107.5L-87,107.5z"/>
					</g>
				</g>
				<g>
					<g>
						<path class="st15" d="M-83.9,111.5c0.1,1,0.4,2,0.7,2.9c0.4,1.2,2.4,0.7,2-0.5c-0.3-0.9-0.5-1.9-0.7-2.9
							c-0.1-0.5-0.8-0.8-1.3-0.7C-83.7,110.4-83.9,111-83.9,111.5L-83.9,111.5z"/>
					</g>
				</g>
				<g>
					<g>
						<path class="st15" d="M-83.8,138.6c-2.8,0.8-5,4.6-3.9,7.4c0.4,1.1,1.7,1.8,2.9,1.4c0.5-0.2,0.9-0.6,1.1-1.1
							c0.1-0.3,0-0.6,0.1-0.9c-0.1-0.2,0-0.3,0.1-0.5c0.2,0,0.3-0.1,0.4-0.2c0.3-0.5,0.6-1,0.9-1.5c-1.2,0.1-2.2,0.7-2.8,1.8
							c-0.4,0.7,0.1,1.5,0.9,1.5c0.8,0.1,1.5-0.2,2-0.8c-0.5-0.1-1.1-0.1-1.6-0.2c0.1,0.2,0.2,0.3,0.3,0.5c0.7,1.1,2.4,0.1,1.8-1
							c-0.1-0.2-0.2-0.3-0.3-0.5c-0.3-0.5-1.2-0.7-1.6-0.2c-0.2,0.1-0.4,0.1-0.5,0.2c0.3,0.5,0.6,1,0.9,1.5c0.2-0.5,0.5-0.7,1.1-0.8
							c0.7-0.1,1.3-0.8,0.9-1.5c-0.9-1.5-3.6-1.1-4.2,0.6c0,0.1-0.1,1.2,0,1.2c-0.4,0.2-0.1-1.9-0.1-1.9c0.3-1.4,1-2.6,2.4-3
							C-82,140.2-82.5,138.3-83.8,138.6L-83.8,138.6z"/>
					</g>
				</g>
				<g>
					<g>
						<path class="st15" d="M-81.3,150.2c0.2,0.1,0.4,0.3,0.6,0.5c0-0.5,0-1,0-1.4C-81,149.6-81.2,149.9-81.3,150.2
							c0.6,0,1.2-0.1,1.9-0.2c-0.4-0.7-0.8-1.3-1.3-1.9c-0.4-0.4-1.1-0.4-1.4,0c-0.4,0.4-0.4,1,0,1.4c0.4,0.5,0.7,1,1,1.5
							c0.4,0.8,1.6,0.5,1.9-0.2c0,0,0-0.1,0.1-0.2c0.3-0.4,0.4-1,0-1.4c-0.3-0.3-0.6-0.6-1-0.8C-81.4,147.8-82.4,149.6-81.3,150.2
							L-81.3,150.2z"/>
					</g>
				</g>
				<g>
					<g>
						<path class="st15" d="M-79,106.1c2-0.6,2.2-3,0.9-4.4c-1.3-1.5-3.5-1.4-4.9-0.1c-1.1,0.9-2.3,3.8-0.1,4.2
							c1.9,0.4,2.8-2.3,1.5-3.5c0.1,0.3,0.2,0.7,0.3,1c-0.1,0.3,0,0.2,0,0.5c-0.1,0.3-0.3,0.5-0.4,0.7c0.6,0.3,1.2,0.5,1.9,0.8
							c0-0.1,0.1-0.3,0.1-0.4c0.4-1.3-1.6-1.8-2-0.5c0,0.1-0.1,0.3-0.1,0.4c-0.3,1.1,1.2,1.7,1.9,0.8c0.7-1.1,1.2-2.9-0.2-3.7
							c-1.1-0.6-2.7-0.3-3.1,0.9c-0.1,0.3,0,0.8,0.3,1c0.2,0.2,0.2,0.7,0.7,0.3c0.1-0.1,0.2-0.4,0.3-0.6c0.3-0.4,0.7-0.8,1.2-0.9
							c0.4-0.1,0.8,0,1.1,0.3c0.2,0.2,0.7,1,0.1,1.2C-80.8,104.5-80.2,106.4-79,106.1L-79,106.1z"/>
					</g>
				</g>
				<g>
					<g>
						<path class="st15" d="M-81.6,105.4c0.3,0.9,0.3,2,1.4,2.3c1,0.3,1.9-0.4,1.9-1.4c0-0.3-0.2-0.7-0.5-0.9c-1.5-0.8-4,0.4-4,2.3
							c0,0.8,0.6,1.6,1.5,1.7c0.8,0,1.1-0.6,1.8-0.9c1.2-0.6,0.2-2.3-1-1.8c-0.2,0.1-0.4,0.3-0.6,0.4c-0.1,0.1-0.2,0.1-0.2,0.2
							c0,0,0,0-0.1,0.1c-0.2,0.1,0,0.2,0.7,0.3c0.2-0.1,0.6-0.7,0.9-0.5c-0.2-0.3-0.3-0.6-0.5-0.9c0,0,0,0.1,0,0.1
							c0-0.2,0.1-0.3,0.1-0.5c0,0,0-0.1,0.1-0.1c0.2,0,0.3-0.1,0.5-0.1c0.2,0.3,0.3,0.3,0.2,0.1c0-0.1-0.1-0.2-0.1-0.3
							c0-0.2-0.1-0.4-0.2-0.7c-0.2-0.5-0.7-0.9-1.3-0.7C-81.4,104.3-81.9,104.9-81.6,105.4L-81.6,105.4z"/>
					</g>
				</g>
				<g>
					<g>
						<path class="st15" d="M-70,100.1c-0.9,0.6-1.7,0.1-2.4-0.5c-0.2-0.2-0.3-0.3-0.5-0.5c-0.3-0.5-0.4-0.3-0.5,0.5
							c0.1,0,1.1-0.5,1.2-0.6c-0.4-0.5-0.8-1.1-1.2-1.6c-1,1.1-3.3,2.8-2.2,4.5c1.2,1.7,3.1,0.7,4.3-0.4c-0.5-0.4-1.1-0.8-1.6-1.2
							c-0.2,0.3-0.4,0.6-0.5,0.9c-0.7,1.1,1.1,2.2,1.8,1c0.2-0.3,0.4-0.6,0.5-0.9c0.6-1-0.8-2-1.6-1.2c-0.3,0.3-0.5,0.5-0.9,0.7
							c-0.4,0.2,0.1-0.1,0.2-0.3c0.5-0.5,1-1.1,1.5-1.6c0.8-0.9-0.2-2-1.2-1.6c-0.7,0.3-1.7,0.6-1.9,1.4c-0.2,0.9,0.6,1.7,1.2,2.3
							c1.3,1.4,3.3,2.2,5,1C-68,101-69,99.3-70,100.1L-70,100.1z"/>
					</g>
				</g>
				<g>
					<g>
						<path class="st15" d="M-77.9,102.2c0.1,0.8,0.9,1.3,1.6,1.3c0.8,0,1.4-0.4,1.9-1c0.9-1-0.5-2.4-1.4-1.4c0,0-0.5,0.4-0.5,0.4
							c0,0,0.1,0,0.1,0c0,0.1,0.2,0.5,0.2,0.2c-0.1-0.5-0.8-0.8-1.3-0.7C-77.8,101.1-78,101.7-77.9,102.2L-77.9,102.2z"/>
					</g>
				</g>
				<g>
					<g>
						<path class="st15" d="M-69.1,101.7c0-0.2,0-1,0.1-1.2c-0.2,0.2-0.4,0.3-0.6,0.5c0.5-0.2,1.5,0.2,2,0.3c1,0.2,1.9-1.4,0.8-1.9
							c-0.8-0.3-2.3-1.3-1.2-2.2c0.8-0.6,2.1-0.5,2.9-0.3c1.3,0.3,1.8-1.6,0.5-2c-1.8-0.5-4.6-0.2-5.7,1.6c-1.1,1.8,0.8,4,2.4,4.7
							c0.3-0.6,0.5-1.2,0.8-1.9c-0.9-0.2-2.3-0.7-3.2-0.3c-1,0.5-0.8,1.7-0.8,2.6C-71.2,103.1-69.2,103.1-69.1,101.7L-69.1,101.7z"
							/>
					</g>
				</g>
				<g>
					<g>
						<path class="st15" d="M-65.3,95.4c-0.1,0-0.2,0.1-0.4,0.1c0.4,0.2,0.8,0.3,1.2,0.5c-0.4-0.8-1.1-1.2-2-1.3
							c-0.4,0-0.9,0.4-1,0.7c-0.2,0.9-0.3,2.2,0.8,2.5c1.1,0.3,1.8-0.7,1.8-1.7c-0.7,0.1-1.3,0.2-2,0.3c0.1,0.2,0.1,0.4,0.1,0.6
							c0,0.2-0.1,0.4-0.2,0.5c0,0,0,0.1-0.1,0.1c0.2,0,0.2-0.1,0.2-0.1c0-0.1-0.3-0.4-0.4-0.4c-0.5,0.4-1.1,0.8-1.6,1.2
							c0.6,0.6,1.4,0.9,2.2,1c-0.2-0.1-0.5-0.2-0.7-0.3c0.4,0.3,0.8,0.6,1.3,0.8c0.5,0.2,1.1,0.1,1.4-0.4c0.3-0.4,0.1-1.2-0.4-1.4
							c-0.4-0.2-0.8-0.5-1.2-0.7c-0.5-0.2-0.8-0.1-1.2-0.5c-0.8-0.8-2.3,0.3-1.6,1.2c0.7,1,1.9,2,3.2,1.1c1.1-0.7,1.2-2.3,0.9-3.4
							c-0.3-1.1-2-0.9-2,0.3c0.2-0.1,0.3-0.2,0.5-0.3c0.2,0,0.3,0.1,0.5,0.1c0.2,0.4,0.3,0.5,0.3,0.2c0-0.1,0-0.2,0.1-0.3
							c-0.3,0.2-0.7,0.5-1,0.7c0.1,0,0.2,0.2,0.2,0.3c0.2,0.4,0.8,0.6,1.2,0.5c0.1,0,0.2-0.1,0.4-0.1
							C-63.6,96.9-64.1,94.9-65.3,95.4L-65.3,95.4z"/>
					</g>
				</g>
				<g>
					<g>
						<path class="st15" d="M-65,100.5c2.5,1,5.8-3.1,3.1-4.7c-1-0.6-2.1,0.8-1.2,1.6c0.5,0.5,1.2,0.7,1.8,0.2
							c0.6-0.5,0.6-1.3,0.1-1.8c-0.9-1-2.3,0.5-1.4,1.4c0,0,0,0,0.1,0.1c-0.1-0.2-0.2-0.5-0.3-0.7c0,0,0,0.1,0,0.1
							c0-0.2,0.1-0.3,0.1-0.5c0,0,0,0.1-0.1,0.1c0.1-0.1,0.2-0.2,0.4-0.4c0,0-0.1,0-0.1,0c0.3,0,0.5-0.1,0.8-0.1c0,0,0,0,0.1,0.1
							c-0.4,0.5-0.8,1.1-1.2,1.6c0,0,0.1,0,0,0.1c-0.1,0.2-0.2,0.4-0.4,0.5c-0.3,0.3-0.7,0.6-1.1,0.4c-0.5-0.2-1.1,0.2-1.3,0.7
							C-65.9,99.8-65.5,100.3-65,100.5L-65,100.5z"/>
					</g>
				</g>
				<g>
					<g>
						<path class="st15" d="M-65.4,98.6c0.1,0.2,0.2,0.4,0.3,0.6c0.5,1,2.3,0.3,1.9-0.8c-0.1-0.3-0.2-0.5-0.3-0.8
							c-0.3,0.4-0.7,0.9-1,1.3c0.3,0,0.7,0,1,0c1.3,0,1.3-2,0-2c-0.3,0-0.7,0-1,0c-0.6,0-1.2,0.7-1,1.3c0.1,0.3,0.2,0.5,0.3,0.8
							c0.6-0.3,1.2-0.5,1.9-0.8c-0.1-0.2-0.2-0.4-0.3-0.6C-64.3,96.5-66.1,97.5-65.4,98.6L-65.4,98.6z"/>
					</g>
				</g>
				<g>
					<g>
						<path class="st15" d="M-62.1,101.4c0.8,1.3,2.3,0.6,3.2-0.2c0.9-0.9,1.4-2.1,1.4-3.3c-0.7,0-1.4,0-2,0c0,0.7,0.2,1.3,0.7,1.8
							c0.2-0.6,0.5-1.2,0.7-1.7c-0.6,0.1-1.2,0.1-1.8,0.1c0.2,0.6,0.5,1.2,0.7,1.7c0.5-0.4,1-0.9,1.5-1.3c1-0.9-0.5-2.3-1.4-1.4
							c-0.5,0.4-1,0.9-1.5,1.3c-0.7,0.6-0.1,1.8,0.7,1.7c0.6,0,1.2,0,1.8-0.1c0.9-0.1,1.3-1,0.7-1.7c-0.1-0.1-0.1-0.2-0.1-0.3
							c0-1.3-2-1.3-2,0c0,0.5-0.2,1-0.5,1.5c-0.1,0.2-0.3,0.4-0.5,0.5c-0.1,0.1-0.2,0.1-0.3,0.2c-0.3,0.3-0.2-0.6,0.4,0.3
							C-61.1,99.3-62.9,100.3-62.1,101.4L-62.1,101.4z"/>
					</g>
				</g>
				<g>
					<g>
						<path class="st15" d="M-56.5,97.6c-0.2-0.9-1.3-1.2-2.1-0.7c-0.3,0.2-0.5,0.6-0.7,0.8c-0.1,0.1-0.3,0.3-0.4,0.4
							c-0.1,0.1-0.1,0.1-0.2,0.2c-0.3,0.1-0.1,0.2,0.7,0.4c-0.2,0.4-0.5,0.8-0.7,1.3c0.7-0.1,1.3-0.2,2-0.3c0.5-0.1,0.8-0.8,0.7-1.3
							c-0.2-0.6-0.7-0.8-1.3-0.7c-0.7,0.1-1.3,0.2-2,0.3c-0.5,0.1-0.8,0.8-0.7,1.3c0.3,1,1.3,1.3,2.2,0.9c0.4-0.2,0.7-0.5,1-0.7
							c0.2-0.2,0.5-0.7,0.7-0.9c-0.2,0-0.3,0.1-0.5,0.1c0,0,0,0,0,0c-0.1-0.1-0.3-0.2-0.4-0.3c0,0,0.1,0.1,0.1,0.1
							c-0.1-0.1-0.2-0.3-0.3-0.4c0,0,0,0.1,0,0.1C-58.2,99.4-56.2,98.9-56.5,97.6L-56.5,97.6z"/>
					</g>
				</g>
				<g>
					<g>
						<path class="st15" d="M-53.9,100.5c-0.1-0.5-0.1-1.1,0-1.6c0-0.1,0.1-0.5,0.2-0.5c-0.2,0.1,0.3,0.4,0.4,0.5
							c0.9,0.8,2.1-0.2,1.6-1.2c-0.7-1.6-2.8-1.4-3.8-0.3c-0.5,0.5-1.1,1.4-1.1,2.2c0,0.9,0.8,1.4,1.6,1.3c0.8-0.2,1-0.9,1.5-1.5
							c0.2-0.3,0.6-0.6,0.9-0.9c0.4-0.2,0.8-0.2,1.1-0.4c1.5-0.7-0.2-1.3-0.5-1.4c-0.2-0.1-0.4-0.1-0.7-0.1c-0.4,0-0.8,0.2-1.1,0.4
							c-0.7,0.5-0.9,1.3-0.7,2.2c0.2,1.3,2.2,0.7,2-0.5c0,0.2,1.3,0.2,1.5,0.2c0.4-0.1,0.8-0.4,1-0.7c0.5-0.9-0.1-1.8-1-2.1
							c-0.9-0.2-2,0.1-2.7,0.7c-0.5,0.3-0.9,0.7-1.2,1.1c-0.2,0.2-0.3,0.4-0.5,0.7c0,0.1-0.1,0.2-0.1,0.2c-0.3,0.4,0,0.4,0.7,0.2
							c0.1,0.2,0.2,0.5,0.3,0.7c0-0.1,0.9-1.6,1.1-1c0.5-0.4,1.1-0.8,1.6-1.2c-0.9-0.8-2.4-1.5-3.4-0.3c-0.9,1-0.8,2.7-0.6,4
							C-55.7,102.3-53.7,101.8-53.9,100.5L-53.9,100.5z"/>
					</g>
				</g>
				<g>
					<g>
						<path class="st15" d="M-53.8,97.8c-0.7,1.1-0.3,2.6,0.8,3.4c0.9,0.6,2.8,1,3.4-0.2c0.6-1.3-0.8-2.6-2-1.7
							c-0.1,0.1-0.3,0.3-0.4,0.4c-0.1,0.2-0.1,0.1,0,0.1c-0.1,0-0.3-0.1-0.4-0.2c-0.5-0.5-0.8-1.1-1.3-1.6c-1-0.8-2.4,0.6-1.4,1.4
							c0.9,0.7,1.2,1.9,2.4,2.2c0.5,0.1,1,0.2,1.4,0c0.3-0.1,0.5-0.3,0.7-0.5c0.1-0.1,0.2-0.2,0.3-0.3c0.2-0.2,0.1-0.2-0.2,0.1
							c-0.3,0-0.5-0.1-0.8-0.1c0.5-0.8,0.5-1.2,0.1-1.1c-0.1,0-0.2,0-0.3,0c-0.2,0-0.3-0.1-0.4-0.2c-0.2-0.2-0.3-0.4-0.1-0.6
							C-51.3,97.7-53.1,96.6-53.8,97.8L-53.8,97.8z"/>
					</g>
				</g>
				<g>
					<g>
						<path class="st15" d="M-59.8,100.4c0.6,0.8,2,0.8,2.7,0.1c0.4-0.4,0.6-0.9,0.5-1.5c-0.1-0.6-0.7-1.1-1.3-1
							c0.1,0.7,0.2,1.3,0.3,2c0.3-0.1,0.5-0.2,0.8-0.3c0.5-0.2,0.9-0.7,0.7-1.3c-0.1-0.5-0.7-0.9-1.3-0.7c-0.3,0.1-0.5,0.2-0.8,0.3
							c-0.5,0.2-0.8,0.6-0.7,1.1c0.1,0.5,0.5,0.9,1,0.9c0,0-0.1,0-0.1,0c-0.1-0.1-0.3-0.2-0.4-0.3c0-0.2-0.1-0.4-0.1-0.7
							c0,0,0.1-0.1,0.1-0.1c0,0,0.2,0,0,0c-0.1,0,0.1,0.1,0,0c-0.3-0.4-1.1-0.4-1.4,0C-60.2,99.4-60.1,99.9-59.8,100.4L-59.8,100.4z
							"/>
					</g>
				</g>
				<g>
					<g>
						<path class="st15" d="M-52.8,97.5c-0.3,1.4,0.2,2.7,1.3,3.7c1.2,1,2.8,1.3,4.4,1.3c1.3,0,1.3-2,0-2c-1.3,0-4.1-0.4-3.7-2.4
							C-50.6,96.8-52.5,96.2-52.8,97.5L-52.8,97.5z"/>
					</g>
				</g>
				<g>
					<g>
						<path class="st15" d="M-44.9,102.4c-0.3-0.4-0.6-0.8-0.8-1.2c-0.1-0.3-0.6-1-0.5-1.3c-0.1,0.2,0.1,0,0.2,0
							c0.2-0.1,0.4-0.2,0.7-0.2c0.2-0.1,1.2-0.4,1.2,0.1c0.5-0.3,1-0.6,1.5-0.9c-0.4-0.3-0.8-0.5-1.2-0.8c-0.2,0.6-0.3,1.3-0.5,1.9
							c-0.2,0-0.2,0.2-0.3,0.4c-0.7,1.1,1.1,2.2,1.8,1c0.8-1.4,0.5-3.5-1.4-3.5c-1,0-1.4,1.4-0.5,1.9c0.4,0.3,0.8,0.5,1.2,0.8
							c0.7,0.4,1.5-0.1,1.5-0.9c0-1.1-0.7-2-1.7-2.2c-1.1-0.3-2.3,0.2-3.3,0.6c-2.3,1.2-0.4,4.3,0.7,5.7
							C-45.5,104.8-44.1,103.4-44.9,102.4L-44.9,102.4z"/>
					</g>
				</g>
				<g>
					<g>
						<path class="st15" d="M-42.9,101.8c1.5-1.7-0.3-4.1-2.4-3.9c-2.1,0.2-3.2,2.6-2.1,4.3c0.7,1.1,2.5,0.1,1.8-1
							c-0.3-0.4-0.2-1.1,0.3-1.2c0.2-0.1,0.6,0,0.8,0.1c0.1,0.1,0.1,0.1,0.1,0.2c0.1,0.2-0.1,0.2,0.1,0.1
							C-45.2,101.4-43.8,102.8-42.9,101.8L-42.9,101.8z"/>
					</g>
				</g>
				<g>
					<g>
						<path class="st15" d="M-53.3,98.2c0.3-1.5,2.2-1.7,2.6-0.1c0.3,1.3,2.3,0.7,2-0.5c-0.4-1.5-1.7-2.6-3.3-2.6
							c-1.5,0-2.9,1.2-3.2,2.7C-55.5,99-53.5,99.5-53.3,98.2L-53.3,98.2z"/>
					</g>
				</g>
				<g>
					<g>
						<path class="st15" d="M-51,101.4c0.7,0.9,2,1.2,3.1,0.8c0.5-0.2,0.9-0.7,0.7-1.3c-0.1-0.5-0.7-0.9-1.3-0.7
							c-0.4,0.2-0.8,0.1-1.1-0.3c-0.4-0.4-1.1-0.4-1.4,0C-51.4,100.4-51.3,101-51,101.4L-51,101.4z"/>
					</g>
				</g>
				<g>
					<g>
						<path class="st15" d="M-50.6,100.4c0.7,0.1,1.4-0.1,2-0.4c1.1-0.7,0.1-2.4-1-1.8c-0.3,0.2-0.6,0.2-1,0.2c-0.5-0.1-1,0.5-1,1
							C-51.6,100-51.1,100.3-50.6,100.4L-50.6,100.4z"/>
					</g>
				</g>
				<g>
					<g>
						<path class="st15" d="M-48.7,101.3c0.4-0.3,0.8-0.5,1.3-0.6c1.3-0.3,0.7-2.3-0.5-2c-0.8,0.2-1.5,0.6-2.2,1.1
							c-0.4,0.4-0.4,1.1,0,1.4C-49.8,101.8-49.2,101.7-48.7,101.3L-48.7,101.3z"/>
					</g>
				</g>
				<g>
					<g>
						<path class="st15" d="M-43.5,103.5c1.3,0,1.3-2,0-2C-44.8,101.4-44.8,103.5-43.5,103.5L-43.5,103.5z"/>
					</g>
				</g>
				<g>
					<g>
						<path class="st15" d="M-44.3,105.3c1.3,0.6,3.2,0.5,4-0.9c0.7-1.2,0.3-3-1-3.6c-0.4-0.2-0.9-0.2-1.2,0.2
							c-0.3,0.3-0.4,0.9-0.2,1.2c0.5,0.7,1.3,1.1,2.2,0.9c0.7-0.2,0.9-0.9,0.6-1.5c-0.5-1-1.6-1.2-2.5-0.8c-0.5,0.2-0.6,1-0.4,1.4
							c0.3,0.5,0.9,0.6,1.4,0.4c-0.2,0.1-0.4-0.2-0.3,0c0.2-0.5,0.4-1,0.6-1.5c0,0,0.1,0.1,0.1,0.1c-0.5,0.5-0.9,0.9-1.4,1.4
							c0.3,0.1,0.5,0.5,0.3,0.8c-0.2,0.4-0.9,0.4-1.2,0.2c-0.5-0.2-1.1-0.1-1.4,0.4C-44.9,104.3-44.8,105-44.3,105.3L-44.3,105.3z"
							/>
					</g>
				</g>
				<g>
					<g>
						<path class="st15" d="M-45.1,101.6C-45.1,101.6-45.1,101.5-45.1,101.6c-0.5-0.3-1-0.5-1.5-0.7c0,0.1,0,0.1,0,0.2
							c-0.4,0.8,0.5,2.1,1.4,1.4c0.5-0.4,0.9-0.8,1.3-1.3c-0.6-0.3-1.2-0.7-1.8-1c-0.3,0.8-0.6,1.6,0,2.3c0.6,0.8,1.3,0.6,2.2,0.5
							c-0.3,0-0.5-0.1-0.8-0.1c0.1,0,0.1,0.1,0.2,0.1c-0.2-0.2-0.3-0.4-0.5-0.6c0.3,0.7,0.2,1.6,0.4,2.3c0.2,0.8,0.6,1.5,1.1,2.2
							c0.7,1.1,2.5,0.1,1.8-1c-0.4-0.5-0.7-1.1-0.9-1.7c-0.2-0.6-0.2-1.3-0.3-1.9c-0.1-0.5-0.3-0.8-0.7-1.1
							c-0.2-0.1-0.4-0.2-0.6-0.2c-0.1,0-0.2,0-0.3,0c-0.4,0-0.4,0.1,0.2,0.2c0.5-1.2-1-2.2-1.8-1c-0.1,0.2-0.3,0.4-0.5,0.6
							c0.5,0.5,0.9,0.9,1.4,1.4c0.3-0.6,0.4-1.1,0.2-1.8c-0.2-0.7-0.9-0.9-1.5-0.6c-0.4,0.2-0.6,0.4-0.8,0.8
							C-47.4,101.7-45.6,102.8-45.1,101.6L-45.1,101.6z"/>
					</g>
				</g>
				<g>
					<g>
						<path class="st15" d="M-38.7,107.8c0,0-0.1-0.1-0.1-0.1c-1-0.9-2.4,0.6-1.4,1.4c0,0,0.1,0.1,0.1,0.1
							C-39.2,110.1-37.8,108.7-38.7,107.8L-38.7,107.8z"/>
					</g>
				</g>
				<g>
					<g>
						<path class="st15" d="M-41.9,108.2c0,0,0,0.1,0,0.1c0.1,0.3,0.4,0.6,0.7,0.7c0,0,0.1,0,0.1,0c0.3,0.1,0.8,0,1-0.3
							c0.7-0.7,0.6-1.7,1.1-2.5c0.7-1.3,1.9,0.5,2.3,1.2c0.5-0.5,0.9-0.9,1.4-1.4c-0.7-0.4-1.3-0.7-2-1c-0.5-0.2-1-0.5-1.6-0.5
							c-1.1,0-1.6,1.2-1.6,2.1c0,0.5,0.5,1,1,1c0.6,0,0.8-0.3,1.3-0.5c0.2-0.1,0-0.4,0.4,0.1c0.1,0.2,0.3,0.8,0.3,0.4
							c0.1-0.2,0.2-0.5,0.3-0.7c-0.3,0.3-0.6,0.5-1,0.5c0.3,0,0.5,0.1,0.8,0.1c-0.1,0-0.1-0.1-0.2-0.1c0.2,0.2,0.3,0.4,0.5,0.6
							c-0.2-0.1-0.5-0.2-0.7-0.3c0.6,0.2,1.3,0.3,1.9,0.5c0,0.4,0.1,0.1,0.2-0.2c0.1-0.2,0.2-0.5,0.2-0.7c0-0.5-0.3-1-0.8-1.2
							c-1-0.5-2,0.2-2.3,1.2c-0.3,1.3,1.7,1.8,2,0.5c-0.4-0.8-0.8-1-1-0.6c-0.1,0.1-0.1,0.2-0.2,0.3c-0.1,0.2-0.1,0.4-0.1,0.7
							c0.1,0.9,1.4,1.5,1.9,0.5c0.7-1.5-0.8-2.9-2.2-2.2c-1.4,0.7-1,3.1,0.7,2.7c0.6-0.1,1.5-0.6,1.9-1.1c0.5-0.7,0.1-1.4-0.3-2.1
							c-0.4-0.6-1-1.1-1.8-1.2c-0.4-0.1-0.8,0-1.2,0.2c-0.2,0.1-0.3,0.2-0.4,0.3c-0.2,0.2-0.4,0.2-0.1,0.2c0.3,0.3,0.7,0.7,1,1
							c0-0.4-0.4-0.1-0.4,0c0,0.1,0.9,0.4,1,0.4c0.5,0.2,1,0.5,1.5,0.8c0.9,0.5,1.9-0.5,1.4-1.4c-0.9-1.5-2.3-3.1-4.2-2.6
							c-0.7,0.2-1.3,0.7-1.6,1.4c-0.3,0.6-0.4,1.7-0.7,2.1c0.3-0.1,0.7-0.2,1-0.3c0,0-0.1,0-0.1,0c0.2,0.2,0.5,0.5,0.7,0.7
							c0,0,0-0.1,0-0.1C-40.2,106.4-42.2,106.9-41.9,108.2L-41.9,108.2z"/>
					</g>
				</g>
				<g>
					<g>
						<path class="st15" d="M-38,111c0-0.4,0.1-0.6,0.5-0.5c0.4-0.1,0.5,0,0.4,0.5c0.1,0.3,0,2.8,0.7,2.5c-0.3,0-0.5,0.1-0.8,0.1
							c-0.4-0.1,0.2,0.9,0.3,1c0.4-0.5,0.8-1,1.2-1.5c-2.4-0.7-1.9,2.9-1,4c1.6,1.7,4.4,1.1,4.6-1.3c0.1-1.3-1.9-1.3-2,0
							c-0.1,1.2-1.7-0.7-1.5-0.8c-0.3,0-0.5,0.1-0.8,0.1c0.1,0,0.1,0,0.2,0.1c0.8,0.2,1.7-0.8,1.2-1.5c-0.5-0.7-0.2-1.5-1.2-1.9
							c-0.7-0.3-1.6,0.1-1.9,0.8c-0.8,1.7,1.6,2.7,2.7,1.5c1.1-1.2,0.7-4.3-0.5-5.3c-1.7-1.4-3.4,0.3-3.9,1.9
							C-40.4,111.7-38.4,112.3-38,111L-38,111z"/>
					</g>
				</g>
				<g>
					<g>
						<path class="st15" d="M-34.4,115.7c-0.2,0.3-0.5,0.6-0.9,0.7c-0.1,0.1-0.3,0.1-0.5,0.1c0,0-0.1,0-0.1,0
							c0.4,0.4,0.4,0.7-0.1,0.9c-0.3-0.4-0.7-0.9-1-1.3c-0.1,1-0.3,2,0.2,2.9c0.4,0.8,1.3,1.3,2.2,1.3c0.5-0.1,1-0.4,1-1
							c0-0.5-0.5-1.1-1-1c-0.7,0.1-0.5-1.1-0.5-1.6c0.1-0.6-0.3-1.3-1-1.3c-1.7,0-2.3,2.5-0.6,3.1c1.5,0.5,3.1-0.6,3.9-1.8
							c0.3-0.4,0.1-1.1-0.4-1.4C-33.5,115.1-34.1,115.3-34.4,115.7L-34.4,115.7z"/>
					</g>
				</g>
				<g>
					<g>
						<path class="st15" d="M-36.2,119.9c-0.2,0.5-0.1,0.9,0,1.4c0,0.4-0.1,0.8-0.5,0.9c0.3,0.5,0.6,1,0.9,1.5
							c0.1-0.1,0.3-0.3,0.3-0.4c0.1-0.1,0.1-0.1,0.2-0.2c-0.3-0.3-0.5-0.3-0.5,0c-0.3,0.2-0.2,0.5-0.6,0.6c-1.2,0.4-0.7,2.4,0.5,2
							c1.5-0.5,2.6-2.1,1.9-3.7c-0.3-0.7-1-1.1-1.8-1c-0.8,0.2-1.4,1-1.8,1.6c-0.4,0.6,0.1,1.6,0.9,1.5c0.9-0.1,1.6-0.5,2.1-1.2
							c0.2-0.3,0.4-0.7,0.4-1.1c0.1-0.5-0.2-1.1,0-1.5C-33.8,119.2-35.8,118.6-36.2,119.9L-36.2,119.9z"/>
					</g>
				</g>
				<g>
					<g>
						<path class="st15" d="M-37.7,125.6c-0.1,1,0.2,2,0.9,2.7c0.7,0.8,2,0.8,2.4-0.3c0.2-0.5-0.2-1-0.6-1.2c-0.5-0.2-1,0-1.3,0.4
							c0.2-0.3,0.8,0.1,0.4,0.4c-0.5-0.3-1-0.6-1.5-0.9c0,0.4,0.1,0.8,0.2,1.2c0.2,0.5,0.7,0.9,1.3,0.7c0.5-0.1,0.9-0.7,0.7-1.3
							c-0.1-0.2-0.1-0.4-0.1-0.7c0-0.7-0.9-1.4-1.5-0.9c-0.9,0.7-1.2,1.9-0.3,2.8c0.8,0.8,2.2,0.5,2.7-0.4c-0.6-0.3-1.2-0.5-1.9-0.8
							c0,0,0,0.1,0,0.1c0.1-0.1,0.2-0.3,0.3-0.4c0,0,0,0-0.1,0.1c0.1-0.1,0.3-0.2,0.4-0.3c0.2,0,0.3,0,0.5,0.1
							c-0.1,0-0.1-0.1-0.1-0.1c0-0.1-0.1-0.2-0.2-0.3c-0.1-0.3-0.1-0.6-0.1-0.9c0.1-0.5-0.5-1-1-1C-37.3,124.6-37.6,125-37.7,125.6
							L-37.7,125.6z"/>
					</g>
				</g>
				<g>
					<g>
						<path class="st15" d="M-37.7,144.3C-37.6,144.3-37.7,144.2-37.7,144.3c0-0.2,0-0.3-0.1-0.5c0,0,0,0.1,0,0.1
							c0-0.2,0.1-0.3,0.1-0.5c0,0-0.1,0.1-0.1,0.1c0.3-0.2,0.6-0.3,0.9-0.5c-0.1,0-0.1,0-0.2,0c0.2,0,0.3,0.1,0.5,0.1
							c-0.5-0.2-1-0.4-1.5-0.1c-0.4,0.2-0.8,0.6-0.8,1.1c-0.1,0.6,0.2,1,0.7,1.3c0.3,0.1,0.6,0.1,0.9,0c0.1-0.1,0.3-0.1,0.4-0.2
							c-0.1,0-0.1,0-0.1,0c0.1,0.2-0.1,0.5-0.4,0.7c-0.4,0.3-0.7,0.9-0.4,1.4c0.2,0.4,1,0.7,1.4,0.4c1-0.7,1.8-2,1.2-3.3
							c-0.2-0.5-0.7-0.9-1.2-1.1c-0.7-0.2-1.1,0.1-1.7,0.2c0.2,0,0.4,0,0.5,0c-0.1,0-0.1,0-0.2-0.1c0.2,0.4,0.5,0.8,0.7,1.3
							c-0.1,0.1-0.1,0.1-0.2,0.2c-0.2,0-0.4,0-0.5,0c0.7,0.1,1.2,0.3,1.7-0.4c0.3-0.4,0.3-1,0-1.4c-0.6-0.9-1.9-1.1-2.8-0.6
							C-39.8,143.2-38.8,145-37.7,144.3L-37.7,144.3z"/>
					</g>
				</g>
				<g>
					<g>
						<path class="st15" d="M-38.1,145.1c-0.7,0.4-1.2,1.2-1.1,2c0.1,0.4,0.2,0.8,0.5,1.1c0.1,0.2,0.3,0.3,0.4,0.4
							c0,0,0.1,0.1,0.1,0.1c0.1,0.2,0.2,0.2,0.4-0.2c-1.3,0-1.3,2.1,0,2c1,0,1.8-0.9,1.7-2c0-0.5-0.3-0.9-0.6-1.3
							c-0.1-0.2-0.3-0.3-0.4-0.4c-0.2-0.2-0.2,0,0,0C-35.9,146.2-36.9,144.5-38.1,145.1L-38.1,145.1z"/>
					</g>
				</g>
				<g>
					<g>
						<path class="st15" d="M-63,102.2c0.7,1.2,0.3,2.6-0.8,3.5c-0.8,0.6-3.1,1.4-3.1-0.3c0-1.1,1.3-2,0.7-3.2
							c-0.4-0.8-1.5-0.9-2.1-0.3c-0.4,0.4-0.4,1.3,0.2,1.6c0.5,0.2,0.8,0.2,1.3,0.2c1.3-0.2,0.7-2.2-0.5-2c-0.1,0-0.2,0-0.3,0
							c0.3,0,0.5,0.1,0.8,0.1c-0.1,0-0.2-0.1-0.2-0.1c0.1,0.5,0.1,1.1,0.2,1.6c0,0,0.1-0.1,0.1-0.1c-0.3,0.1-0.7,0.2-1,0.3
							c0,0-0.1,0-0.1-0.1c-0.1-0.2-0.2-0.5-0.3-0.7c0,0.3-0.4,0.8-0.5,1.1c-0.2,0.4-0.3,0.7-0.3,1.2c-0.1,0.7,0,1.5,0.4,2.1
							c0.8,1.4,2.5,1.6,4,1.2c3.1-0.8,5-4.2,3.4-7.1C-61.9,100-63.7,101.1-63,102.2L-63,102.2z"/>
					</g>
				</g>
				<g>
					<g>
						<path class="st15" d="M-65.8,102.8c0.4,0.5,0.7,0.9,1.1,1.4c0.5-0.5,1-1,1.4-1.4c-1.5-1.2-4.1-1-4.3,1.3
							c-0.1,0.7,0.1,1.3,0.8,1.6c0.6,0.2,1.7-0.5,1.9-0.1c0.3,0.6,1.1,0.7,1.6,0.2c0.4-0.4,0.8-0.9,0.8-1.6c0-0.2,0-0.7-0.1-0.8
							c-0.8-0.3-0.9-0.2-0.6,0.2c0.2,0.3,0.3,0.6,0.5,1c0.4-0.5,0.8-1,1.2-1.5c-3-0.6-5.2,1-5.5,4c-0.1,0.5,0.5,1.1,1,1
							c1.8-0.2,1.4-1.9,0.5-2.9c-1.5-1.5-3.9-2-5.9-1.3c-5.1,1.8-4.7,8.4-0.6,11c1.1,0.7,2.1-1.1,1-1.8c-2.1-1.4-3.1-4.1-1.3-6.2
							c0.8-0.9,1.8-1.4,3-1.3c0.5,0,2.4,1.1,2.6,0.9c0.3-0.2,0.6-0.3,0.9-0.5c-0.1,0-0.1,0-0.2,0c0.3,0.3,0.7,0.7,1,1
							c1-0.7,1.9-1.4,2.9-2.1c0.9,0.2,1.5-0.7,1.2-1.5c-0.4-1-1.2-2.9-2.6-2.5c-1.8,0.5-0.3,2.4-1.2,3.3c0.5,0.1,1.1,0.1,1.6,0.2
							c-0.4-0.7-0.9-1.3-1.7-1.5c-0.4-0.1-1.7,0.6-1.4,0.6c0.2,0.2,0.5,0.5,0.7,0.7c0.3-0.1,0.5-0.1,0.8-0.2c1,0.8,2.3-0.4,1.4-1.4
							c-0.4-0.5-0.7-0.9-1.1-1.4C-65.2,100.4-66.6,101.8-65.8,102.8L-65.8,102.8z"/>
					</g>
				</g>
				<g>
					<g>
						<path class="st15" d="M-69.1,111.9c-1.3-0.2-4-1.3-3.2-3.2c0.2-0.5,0.8-0.9,1.3-1.1c0.3-0.2,2.2-0.9,2.4-0.5c0-0.3,0-0.7,0-1
							c0,0.1-0.1,0.1-0.1,0.2c0.5-0.1,0.9-0.2,1.4-0.4c-0.6-0.3-1-0.7-1.2-1.5c-0.4,0.4-0.8,0.8-1.3,1.3c0.8,0.3,1.5,0.7,2.1,1.2
							c0.3-0.6,0.5-1.2,0.8-1.9c-0.7-0.2-1.3-0.3-2.1-0.3c-1.3,0.1-1.3,2.1,0,2c0.6,0,1,0,1.5,0.2c1.2,0.4,1.7-1.2,0.8-1.9
							c-0.8-0.6-1.7-1-2.6-1.4c-0.7-0.3-1.4,0.6-1.3,1.3c0.3,1.2,1,2.1,2.2,2.7c0.5,0.2,1.1,0.1,1.4-0.4c0.7-1.2-0.5-2.1-1.6-2.2
							c-1.7-0.2-3.6,0.5-4.8,1.7c-2.9,2.9,0.5,6.6,3.7,7.1C-68.4,114.1-67.8,112.1-69.1,111.9L-69.1,111.9z"/>
					</g>
				</g>
				<g>
					<g>
						<path class="st15" d="M-70.2,104.6c-0.6,0.2-1.1,0.6-1.2,1.3c-0.1,0.9,0.6,1.6,1.5,1.2c0.5-0.2,0.8-0.7,1-1.2
							c0.1-0.2,0.1-0.5,0.1-0.7c0-0.1-0.1-0.6-0.1-0.6c-0.1,0.1-0.2,0.3-0.3,0.4c-0.3,0.3-0.6,0-0.2,0.2c0.2,0.1,0.4,0.2,0.6,0.2
							c0.4,0.1,0.9,0,1.2-0.2c0.7-0.4,0.6-1.3,0-1.8c-0.3-0.2-0.6-0.4-0.9-0.7c0.1,0.5,0.1,1.1,0.2,1.6c0.4-0.3,0.6-0.7,0.8-1.2
							c0.2-0.5-0.2-1.1-0.7-1.3c-0.6-0.2-1,0.2-1.3,0.7c0,0.1-0.2,0.2-0.3,0.3c-0.6,0.5-0.3,1.3,0.2,1.6c0.3,0.2,0.6,0.4,0.9,0.7
							c0-0.6,0-1.2,0-1.8c0,0,0,0-0.1,0c0.2,0,0.4,0,0.5,0c-0.4-0.1-0.7-0.3-1.1-0.4c-0.4-0.1-0.9,0-1.2,0.3
							c-0.4,0.3-0.5,0.7-0.5,1.2c0,0.1,0.1,0.4,0.1,0.5c0,0.1,0,0-0.1,0.1c0.5,0.4,1,0.8,1.5,1.2c-0.1,0.1-0.2,0.1-0.3,0.2
							C-68.4,106.2-68.9,104.2-70.2,104.6L-70.2,104.6z"/>
					</g>
				</g>
				<g>
					<g>
						<path class="st15" d="M-69.7,104.3c-3.1-1.3-5.3,1.7-5,4.6c0.4,2.8,2.8,6.9,6.1,4.8c1.1-0.7,0.1-2.5-1-1.8
							c-1.7,1.1-2.6-1.5-2.9-2.7c-0.2-1-0.1-4,1.8-3.2C-69.6,106.6-68.5,104.8-69.7,104.3L-69.7,104.3z"/>
					</g>
				</g>
				<g>
					<g>
						<path class="st15" d="M-70.9,111.3c0.2,0.9,1.3,1.5,2.2,1.1c0.4-0.2,0.7-0.5,0.8-1c0.1-0.2,0.1-0.4,0.1-0.6
							c0-0.1,0-0.3-0.1-0.4c-0.1-0.3-0.1-0.3-0.1-0.1c-0.1,0.2-0.2,0.5-0.3,0.7c0,0,0,0,0,0c-0.2,0.1-0.5,0.2-0.7,0.3c0,0,0,0,0.1,0
							c-0.2,0-0.3-0.1-0.5-0.1c0,0,0,0,0.1,0c-0.1-0.1-0.2-0.2-0.4-0.4c0,0,0,0,0,0c0.1-0.4,0.1-0.8,0.2-1.2c0,0,0,0,0,0
							c-0.9,1,0.5,2.4,1.4,1.4c0,0,0,0,0,0c0.3-0.3,0.4-0.8,0.2-1.2c-0.4-0.6-1.2-0.8-1.8-0.3c-0.3,0.3-0.4,0.6-0.3,1
							c0,0.1,0.1,0.5,0.2,0.5c0-0.1,0-0.2,0-0.3c0.3-0.4,0.6-0.4,0.9-0.1C-69.3,109.5-71.2,110.1-70.9,111.3L-70.9,111.3z"/>
					</g>
				</g>
				<g>
					<g>
						<path class="st15" d="M-69.2,110.8c-0.1,0.3-0.2,0.6-0.3,0.9c-0.2,0.5,0.2,1.1,0.7,1.3c0.6,0.2,1.1-0.2,1.3-0.7
							c0.1-0.3,0.2-0.6,0.3-0.9c0.2-0.5-0.2-1.1-0.7-1.3C-68.5,110-69,110.3-69.2,110.8L-69.2,110.8z"/>
					</g>
				</g>
				<g>
					<g>
						<path class="st15" d="M-74.7,108.3c-2.9-1.9-4.6,2.5-4.5,4.7c0,1.2,0.6,2.5,1.7,3.1c1.2,0.6,2.5,0.2,3.3-0.9
							c0.7-1.1-1-2.1-1.8-1c-0.5,0.7-1-0.3-1.1-0.7c-0.1-0.5,0-1,0-1.5c0.1-0.6,0.5-2.5,1.4-1.9C-74.6,110.8-73.6,109-74.7,108.3
							L-74.7,108.3z"/>
					</g>
				</g>
				<g>
					<g>
						<path class="st15" d="M-76.6,111.6c-0.3,0-0.9,0.2-1.2,0c-0.3-0.2,0.2-0.6,0.4-0.8c0.3-0.3,0.8-0.6,1.2-0.7
							c0.2-0.1,0.5-0.2,0.8-0.2c0.1,0,0.2,0,0.3-0.1c0.3,0,0.3,0-0.1-0.1c0.2-0.6,0.5-1.2,0.7-1.7c-0.4,0-0.7,0-1-0.1
							c-1.3-0.4-1.8,1.6-0.5,2c0.5,0.2,1,0.2,1.6,0.2c0.9-0.1,1.3-1,0.7-1.7c-0.7-0.8-2.1-0.5-3-0.2c-1,0.4-2,1-2.7,1.9
							c-0.6,0.9-0.7,2,0,2.9c0.7,0.8,1.8,0.8,2.8,0.7C-75.3,113.5-75.3,111.4-76.6,111.6L-76.6,111.6z"/>
					</g>
				</g>
				<g>
					<g>
						<path class="st15" d="M-76.7,108.4c-0.1,0.8-0.3,1.8,0.3,2.5c0.5,0.6,1.4,0.7,2,0.1c0.5-0.5,0.6-1.4,0.3-2
							c-0.4-0.8-1.1-1.1-2-1.2c0.2,0.6,0.5,1.2,0.7,1.7c0.3-0.2,0.6-0.5,1-0.6c0.2-0.1,0.9-0.6,1.1-0.5c0.2,0.1,0.3,0.8,0.3,1
							c0,0.2,0.1,0.4,0.1,0.6c0,0.2,0,0.7,0.2,0.3c0.3-0.1,0.7-0.2,1-0.3c0,0-0.1,0-0.1,0c-1.3-0.2-1.8,1.8-0.5,2c0,0,0.1,0,0.1,0
							c0.3,0.1,0.8,0,1-0.3c0.6-0.7,0.4-1.6,0.3-2.5c-0.1-0.8-0.3-1.9-1-2.5c-1.4-1.3-3.7,0.4-4.9,1.3c-0.8,0.6,0,1.7,0.7,1.7
							c0.2,0.2,0.5,0,0.6-0.4c0.2,0.1,0.5,0.2,0.7,0.3c-0.1-0.1,0-0.8,0-0.8C-74.5,107.7-76.5,107.1-76.7,108.4L-76.7,108.4z"/>
					</g>
				</g>
				<g>
					<g>
						<path class="st15" d="M-71.8,109.7c1.1,0.5,3.7,0.4,4.2,1.8c0.4,1.2,2.4,0.7,2-0.5c-0.9-2.6-3.5-2.3-5.6-3.2
							C-72.4,107.2-73,109.2-71.8,109.7L-71.8,109.7z"/>
					</g>
				</g>
				<g>
					<g>
						<path class="st15" d="M-66,107.6c1.1-0.7,0.8-2.5-0.6-2.6c-1.3-0.1-1.9,1.2-1.8,2.3c0.1,1.2,1.1,2.1,2.3,2.2
							c1.3,0.1,2.4-0.7,3.3-1.5c0.9-0.8-0.2-2.1-1.2-1.6c-0.4,0.2-0.7,0.2-1.1,0.2c-1.3-0.1-1.3,2,0,2c0.8,0,1.5-0.1,2.2-0.5
							c-0.4-0.5-0.8-1.1-1.2-1.6c-0.4,0.4-0.9,0.9-1.4,1c-0.1,0-0.4,0-0.5-0.1c-0.2-0.2,0.1-2.2-0.7-1.6
							C-68.2,106.5-67.1,108.3-66,107.6L-66,107.6z"/>
					</g>
				</g>
				<g>
					<g>
						<path class="st15" d="M-67.4,106.7c-1.4,0.8-3.3,3.3-1.5,4.7c0.9,0.7,2.2,0.5,3.3,0.4c0.9,0,2.5,0.1,2.1,1.4
							c-0.3,0.9-1.3,1.1-2.1,1.3c-1.3,0.3-0.7,2.3,0.5,2c2.2-0.5,4.7-2.4,3.5-5c-0.5-1-1.6-1.5-2.6-1.7c-0.7-0.1-1.5,0-2.2,0
							c-0.2,0-1.1,0.1-1.2,0c-0.3-0.4,1-1.3,1.2-1.4C-65.2,107.8-66.2,106-67.4,106.7L-67.4,106.7z"/>
					</g>
				</g>
				<g>
					<g>
						<path class="st15" d="M-65.2,114.7c0.7,0.7,2,0.4,2.2-0.6c0.1-0.4,0-0.9-0.5-1.2c-1.1-0.5-2.4,0.4-2.1,1.6
							c0.3,1.2,1.8,1.4,2.7,0.6c0.8-0.7,1-1.9,0.5-2.8c-0.6-1-1.9-1.2-2.7-0.5c-0.7,0.6-0.1,1.7,0.7,1.7c0.4,0,0.8-0.1,1.1-0.4
							c1-0.9-0.5-2.3-1.4-1.4c0,0-0.1,0.1-0.1,0.1c0.1-0.1,0.3-0.2,0.4-0.3c0,0,0,0,0,0c0.2,0.6,0.5,1.2,0.7,1.7
							c-0.1,0.1-0.2,0.1-0.3,0.1c0,0-0.1-0.1-0.1-0.1c0,0-0.1-0.3,0,0.1c0,0.1-0.1,0.1-0.1,0.2c0,0,0,0,0,0c0.6-0.2,0.6,0.2,0.1,1.1
							c-0.2,0-0.3-0.1-0.5-0.1c0,0,0.1,0,0.1,0c-0.2-0.4-0.3-0.8-0.5-1.2c0,0,0-0.1,0-0.1c0.1-0.1,0.2-0.2,0.4-0.4
							c0.2,0,0.3,0,0.5-0.1c0.1,0.1,0.3,0.2,0.4,0.3c0,0,0,0-0.1-0.1C-64.7,112.3-66.1,113.8-65.2,114.7L-65.2,114.7z"/>
					</g>
				</g>
				<g>
					<g>
						<path class="st15" d="M-63.1,111.3c-0.5-0.9,0.1-1.9,1.2-1.9c1.3,0,1.3-2,0-2c-2.6,0-4.2,2.7-2.9,5
							C-64.2,113.5-62.5,112.5-63.1,111.3L-63.1,111.3z"/>
					</g>
				</g>
				<g>
					<g>
						<path class="st15" d="M-76.3,114.2c-0.6,0.6-1.2,1.1-1.8,1.7c-1,0.9,0.5,2.3,1.4,1.4c0.6-0.6,1.2-1.1,1.8-1.7
							C-73.9,114.7-75.3,113.3-76.3,114.2L-76.3,114.2z"/>
					</g>
				</g>
				<g>
					<g>
						<path class="st15" d="M-61,103.9c-0.4,0.8-0.7,1.6-0.9,2.5c0.7,0,1.3,0,2,0c-0.3-1.2-1.3-3.4,0.2-4c0.6-0.2,1.2-0.2,1.8-0.1
							c0.2,0,1.9,0.5,1.9,0.9c0.2-0.3,0.3-0.6,0.5-0.9c0.3-0.2-0.1,0-0.3,0c-0.4,0-0.8,0-1.2,0c-0.7,0-1.5,0-2.2-0.1
							c-1.3-0.1-1.3,1.9,0,2c1.1,0.1,2-0.9,1.4-2c-0.3-0.4-0.7-0.6-1.2-0.5c-1.1,0.2-1.7,1.5-1.6,2.5c0.1,1.3,1.2,2.1,2.4,2.4
							c2.6,0.5,5.4-1.9,4.1-4.5c-0.4-0.8-1.6-0.5-1.9,0.2c-0.2,0.5-0.1,1,0.2,1.5c0.7,1.1,2.4,0.1,1.8-1c0,0,0,0,0,0.1
							c-0.6,0.1-1.2,0.2-1.9,0.2c0.4,0.8-0.7,1.4-1.3,1.5c-0.3,0-0.6,0.1-0.9,0c-0.2-0.1-0.9-0.8-0.4-0.8c-0.4-0.2-0.8-0.3-1.2-0.5
							c0,0.1,0.1,0.1,0.1,0.2c0-0.3,0-0.7,0-1c0,0.1-0.1,0.1-0.1,0.2c0.2-0.2,0.4-0.3,0.6-0.5c-0.1,0-0.1,0-0.2,0c0,0.7,0,1.4,0,2
							c1.3,0.1,2.7,0.2,4,0c0.6-0.1,1.1-0.2,1.3-0.9c0.6-1.7-2-2.9-3.3-3.1c-1.5-0.3-3.5-0.1-4.5,1.2c-1.3,1.5-0.4,3.8,0,5.5
							c0.2,0.9,1.8,1,2,0c0.1-0.7,0.4-1.4,0.7-2C-58.6,103.8-60.4,102.7-61,103.9L-61,103.9z"/>
					</g>
				</g>
				<g>
					<g>
						<path class="st15" d="M-53.8,102.2c-0.1,0.2-0.2,0.4-0.3,0.6c-0.3,0.6-0.1,1.3,0.6,1.5c0.3,0.1,0.6,0.1,0.9,0
							c0.1,0,0.7-0.3,0.8-0.4c0,0.1-0.7,0.1-0.6-0.1c0,0.1,0,0.4,0,0.5c0,0.4,0.1,0.8,0.4,1.1c0.2,0.2,0.7,0.4,1,0.3
							c0.4-0.2,0.7-0.4,0.8-0.8c0.1-0.3,0-0.8-0.3-1c0,0,0,0,0,0c-0.4-0.4-1-0.4-1.4,0c-0.4,0.4-0.4,1.1,0,1.4c0,0,0,0,0,0
							c-0.1-0.3-0.2-0.7-0.3-1c0,0,0,0,0,0.1c0.2-0.2,0.5-0.5,0.7-0.7c0,0,0,0-0.1,0c0.3,0.1,0.7,0.2,1,0.3c0,0,0,0-0.1-0.1
							c0.1,0.1,0.2,0.3,0.3,0.4c-0.1-0.4,0-0.8-0.1-1.2c-0.2-0.5-0.5-0.9-0.9-1.1c-0.4-0.2-0.8-0.2-1.3,0c-0.2,0.1-0.3,0.1-0.4,0.2
							c-0.3,0.2-0.1,0,0.1,0.1c0.2,0.5,0.4,1,0.6,1.5c0.1-0.2,0.2-0.4,0.3-0.6c0.2-0.5,0.1-1.1-0.4-1.4
							C-52.9,101.6-53.6,101.7-53.8,102.2L-53.8,102.2z"/>
					</g>
				</g>
				<g>
					<g>
						<path class="st15" d="M-50.7,104.1c0.5-0.4,0.7-0.6,1-1.1c0.4-0.7-0.1-1.5-0.9-1.5c-2.5-0.1-5,2.5-4.6,5.1
							c0.5,2.7,4,2.6,4.9,0.2c1-2.6-2.2-3.7-4-2.4c-2.4,1.6-2.7,4.8-2.2,7.5c0.2,1.3,2.2,0.7,2-0.5c-0.3-1.4-0.3-2.9,0.5-4.2
							c0.2-0.3,0.4-0.6,0.7-0.9c0.4-0.2,0.6-0.6,0.5-1.2c0.4-0.9,1.3-1.6,2.3-1.5c-0.3-0.5-0.6-1-0.9-1.5c-0.1,0.1-0.2,0.2-0.3,0.4
							C-52.8,103.2-51.8,104.9-50.7,104.1L-50.7,104.1z"/>
					</g>
				</g>
				<g>
					<g>
						<path class="st15" d="M-56.6,107.1c-2.2,0.4-2.8,3-1.4,4.6c0.9,1,2.3-0.5,1.4-1.4c-0.5-0.5-0.1-1.1,0.5-1.2
							c0.5-0.1,0.8-0.8,0.7-1.3C-55.5,107.3-56.1,107-56.6,107.1L-56.6,107.1z"/>
					</g>
				</g>
				<g>
					<g>
						<path class="st15" d="M-57.8,106.4c-1.4-1.4-3.5-1.3-3.7,1c-0.1,1.7,0.7,4.2,2.3,5.2c1.7,1,3-0.4,2.3-2.1
							c-0.4-1-1.7-2.1-1.7-3.3c-0.1-1.5,2.9-1.2,3.9-1.3c0.9-0.1,1.5-1.4,0.5-1.9c-2.7-1.2-5.8,0.8-5.4,3.8c0.5,3.4,4.3,4.5,7,2.9
							c1.1-0.7,0.1-2.4-1-1.8c-1.3,0.8-3.2,0.8-3.9-0.9c-0.5-1.3,0.7-3,2.2-2.3c0.2-0.6,0.3-1.3,0.5-1.9c-1.9,0.2-4.8-0.1-5.8,2
							c-0.4,0.9-0.2,1.8,0.2,2.7c0.4,0.9,1.7,2.3,1.5,3.2c0.1-0.2,0.2-0.5,0.3-0.7c-0.1,0.1-0.1,0.1-0.2,0.2
							c0.2-0.1,0.5-0.2,0.7-0.3c-0.6,0-1-1.2-1.2-1.6c-0.1-0.2-0.4-1.8-0.2-1.5C-58.3,108.8-56.8,107.4-57.8,106.4L-57.8,106.4z"/>
					</g>
				</g>
				<g>
					<g>
						<path class="st15" d="M-54.9,107.8c-0.7,0.8-1,1.8-0.8,2.9c0.1,0.5,0.3,0.9,0.6,1.3c0.1,0.1,0.2,0.3,0.3,0.4
							c0.1-0.3,0.2-0.7,0.2-1c-0.1,0-0.4,0.3-0.5,0.2c-1.1-0.7-2.1,1.1-1,1.8c0.9,0.6,2.9,0.2,3.2-1c0.3-1.1-1.5-1.9-0.6-3.1
							C-52.6,108.2-54.1,106.8-54.9,107.8L-54.9,107.8z"/>
					</g>
				</g>
				<g>
					<g>
						<path class="st15" d="M-56.8,110.9c-1,1-2,2.5-1.9,4c0.1,1.5,1.4,2,2.7,2.1c1.3,0.1,1.3-1.9,0-2c-0.1,0-0.6,0-0.7-0.2
							c-0.1-0.1,0.2-0.7,0.2-0.8c0.2-0.7,0.6-1.2,1.1-1.7C-54.4,111.4-55.9,110-56.8,110.9L-56.8,110.9z"/>
					</g>
				</g>
				<g>
					<g>
						<path class="st15" d="M-56.9,115.6c-0.1,0.7,0.2,1.5,1,1.6c0.5,0.1,1.1-0.1,1.3-0.7c0.1-0.5-0.2-1.2-0.7-1.3c0,0,0,0,0.1,0
							c0.1,0.1,0.2,0.2,0.4,0.4c0,0,0,0,0,0.1c0,0.2,0,0.4,0,0.5c0,0,0-0.1,0-0.1c0.1-0.5-0.1-1.1-0.7-1.3
							C-56.1,114.8-56.8,115.1-56.9,115.6L-56.9,115.6z"/>
					</g>
				</g>
				<g>
					<g>
						<path class="st15" d="M-55.1,117.4c0.2-0.3,0.4-0.5,0.5-0.9c0.1-0.5-0.2-1.1-0.7-1.3c-0.5-0.1-1.1,0.2-1.3,0.7c0,0,0,0,0.1,0
							c-0.3,0.4-0.4,1,0,1.4C-56.2,117.8-55.5,117.9-55.1,117.4L-55.1,117.4z"/>
					</g>
				</g>
				<g>
					<g>
						<path class="st15" d="M-55.7,114.6c-0.4-0.5,1.3-1.8,1.6-2c0.8-0.5,1.7-0.7,2.6-0.6c1.3,0.1,1.3-2,0-2
							c-1.7-0.1-3.3,0.5-4.6,1.6c-1,0.9-2.4,2.8-1.4,4.1C-56.7,116.6-54.9,115.6-55.7,114.6L-55.7,114.6z"/>
					</g>
				</g>
				<g>
					<g>
						<path class="st15" d="M-50.7,111.7c1.3,0,1.3-2,0-2C-52,109.6-52,111.7-50.7,111.7L-50.7,111.7z"/>
					</g>
				</g>
				<g>
					<g>
						<path class="st15" d="M-50.7,109.4c1.2,0.4,2.7,0.2,3.6-0.8c0.9-0.9,0.8-2.2-0.2-3.1c-2.1-1.7-5.6-0.3-5.4,2.6
							c0.1,1.2,1,2.2,2.1,2.5c1.3,0.3,2.4-0.4,3.2-1.4c1.7-2.1,2.5-5.5-0.6-6.7c-1.2-0.5-1.8,1.5-0.5,2c1.9,0.7-0.5,4.8-1.7,4.1
							c-1-0.6,0.1-1.8,1-1.7c0.1,0,0.3,0.1,0.4,0.1c0.5,0.1,0.6,0.3,0.2,0.4c-0.3,0.4-1.1,0.2-1.5,0.1
							C-51.4,107-51.9,109-50.7,109.4L-50.7,109.4z"/>
					</g>
				</g>
				<g>
					<g>
						<path class="st15" d="M-46.1,105.3c0.5-0.2,0.9-0.4,1.4-0.6c1-0.5,0.3-2.3-0.8-1.9c-0.6,0.2-1,0.2-1.6,0.2
							c-0.6,0-1.2,0.2-1.5,0.8c-0.6,1.1,0.4,2.5,1.1,3.2c0.9,0.9,2.4-0.5,1.4-1.4c-0.2-0.2-0.4-0.4-0.5-0.7
							c-0.1-0.1-0.1-0.2-0.1-0.3c0-0.2-0.1-0.2-0.3,0.1c-0.3,0.2-0.3,0.3-0.1,0.3c0.2,0.1,0.7,0,0.9,0c0.4,0,0.8-0.1,1.2-0.3
							c-0.3-0.6-0.5-1.2-0.8-1.9c-0.5,0.2-0.9,0.4-1.4,0.6c-0.5,0.2-0.6,1-0.4,1.4C-47.2,105.4-46.6,105.5-46.1,105.3L-46.1,105.3z"
							/>
					</g>
				</g>
				<g>
					<g>
						<path class="st15" d="M-43.6,106.3c-0.7-0.7-1.8-0.8-2.6-0.3c-1,0.6-1.5,2.1-1.7,3.2c-0.2,1.2,0,2.4,0.8,3.3
							c0.9,1,2.1,1.1,3.4,1c1.3-0.1,1.3-2.1,0-2c-1.1,0.1-2.1,0-2.2-1.3c0-0.2,0.6-2.8,0.9-2.6C-44.1,108.6-42.6,107.2-43.6,106.3
							L-43.6,106.3z"/>
					</g>
				</g>
				<g>
					<g>
						<path class="st15" d="M-44.9,111c0,1.1,0.6,1.9,1.6,2.2c0.9,0.3,1.5-0.7,1.2-1.5c-0.4-0.9-1.6-1.4-2.6-1.1
							c-1,0.3-1.8,1.5-1,2.4c0.9,0.9,2.3,0.2,3-0.6c0.4-0.5,0.7-1.1,0.9-1.7c0.1-0.3,0.2-0.6,0.2-0.9c0-0.2,0.1-0.4,0.1-0.6
							c0.1-0.4,0.1-0.4,0-0.1c-0.3,0-0.5,0.1-0.8,0.1c0.3,0.1,0.6,0.5,0.8,0.8c0.2-0.5,0.4-1,0.6-1.5c-0.7,0.2-1.4-0.1-2.2,0.1
							c-0.7,0.1-1.3,0.6-1.6,1.2c-0.8,1.5,0.1,2.9,1.3,3.8c1,0.8,2.1-1,1-1.8c-0.5-0.4-0.9-1.2,0-1.3c0.7-0.1,1.3,0.1,2.1-0.1
							c0.6-0.2,1-0.9,0.6-1.5c-0.7-0.9-2.2-2.6-3.3-1.3c-0.4,0.5-0.5,1.3-0.6,1.9c-0.1,0.4-0.2,0.8-0.4,1.1
							c-0.1,0.2-0.5,0.6-0.4,0.6c0.2,0.2,0.3,0.4,0.5,0.6c-0.1,0.2-0.1,0.3-0.2,0.5c0,0,0.1,0,0.1,0c0,0,0.1,0.1,0.2,0.2
							c0.4-0.5,0.8-1,1.2-1.5c-0.1,0-0.2-0.1-0.1-0.3C-42.8,109.7-44.8,109.7-44.9,111L-44.9,111z"/>
					</g>
				</g>
				<g>
					<g>
						<path class="st15" d="M-43.4,111.9c-0.6,2.6,0.9,5.2,3.5,5.9c1.3,0.4,1.8-1.6,0.5-2c-1.4-0.4-2.4-2-2-3.4
							C-41.1,111.2-43.1,110.7-43.4,111.9L-43.4,111.9z"/>
					</g>
				</g>
				<g>
					<g>
						<path class="st15" d="M-40.9,116.1c0.4,0.2,0.9,0.6,1,1.1c0,0.2-0.1,0.4,0,0.4c-1-0.8-2.5,0.6-1.4,1.4c1.2,1,2.9,0.5,3.4-1
							c0.5-1.6-0.7-3-1.9-3.7C-41,113.7-42,115.4-40.9,116.1L-40.9,116.1z"/>
					</g>
				</g>
				<g>
					<g>
						<path class="st15" d="M-41.6,114.8c-0.2,1.3-0.3,2.5,0.1,3.8c0.1,0.2,1.6,2.4,2,1.9c-0.8,1.1,1,2.1,1.8,1
							c0.6-0.9,0.2-1.9-0.6-2.6c-0.5-0.4-1-0.5-1.3-1.1c-0.4-0.8-0.2-1.7-0.1-2.5C-39.4,114.1-41.4,113.5-41.6,114.8L-41.6,114.8z"
							/>
					</g>
				</g>
				<g>
					<g>
						<path class="st15" d="M-38.7,123c0.2,0.1,0.3,0.2,0.5,0.3c-0.2-0.4-0.3-0.8-0.5-1.2c0,0.1-0.2,0.2-0.2,0.3
							c-0.2,0.2-0.5,0.3-0.8,0.5c-0.6,0.3-1.1,0.7-1.5,1.3c-0.5,0.6,0.2,1.5,0.9,1.5c0.1,0,0.2,0,0.4,0c1.3,0,1.3-2,0-2
							c-0.1,0-0.2,0-0.4,0c0.3,0.5,0.6,1,0.9,1.5c0.3-0.3,0.9-0.6,1.4-0.9c0.6-0.4,1.1-0.9,1.4-1.6c0.1-0.4-0.1-1-0.5-1.2
							c-0.2-0.1-0.3-0.2-0.5-0.3c-0.5-0.2-1.1-0.1-1.4,0.4C-39.3,122-39.2,122.7-38.7,123L-38.7,123z"/>
					</g>
				</g>
				<g>
					<g>
						<path class="st15" d="M-37.6,123.9c0.5-1.3,0.5-2.7,0.3-4c-0.2-1.3-2.2-0.7-2,0.5c0.2,1,0,2-0.3,2.9
							C-40,124.6-38.1,125.2-37.6,123.9L-37.6,123.9z"/>
					</g>
				</g>
				<g>
					<g>
						<path class="st15" d="M-38.4,117.8c-1.7-1.2-2-3.3-0.9-5c0.7-1.1-1.1-2.1-1.8-1c-1.7,2.7-0.9,6,1.7,7.8
							C-38.3,120.3-37.3,118.5-38.4,117.8L-38.4,117.8z"/>
					</g>
				</g>
				<g>
					<g>
						<path class="st15" d="M-38.8,111.1c-0.8-0.9-2.1-1.5-3.3-1.1c-1.3,0.4-2,1.7-1.5,3c0.5,1.2,2.3,1.7,3,0.4
							c0.8-1.3-0.4-2.5-1.6-2.9c-1.2-0.4-1.8,1.6-0.5,2c0,0,0.3,0.1,0.3,0.1c0-0.1,0-0.1,0-0.2c0.2-0.1,0.4-0.1,0.6-0.2
							c0,0,0-0.2,0.1-0.2c0.4-0.4,1.2,0.3,1.4,0.5C-39.4,113.5-37.9,112.1-38.8,111.1L-38.8,111.1z"/>
					</g>
				</g>
				<g>
					<g>
						<path class="st15" d="M-43.9,106.1c-0.7-0.4-1.4-1.1-2.3-1.2c-0.8-0.1-1.2,0.5-1.9,0.6c0.4,0.2,0.8,0.5,1.3,0.7
							c-0.5-1.4-0.6-2.9-1.9-3.9c-1-0.7-2.2-0.6-3,0.3c0.6,0.2,1.2,0.5,1.7,0.7c0-0.1,0-0.3,0-0.4c-0.7,0-1.4,0-2,0
							c0.1,2.7,2.9,3.7,3.6,0.8c0.3-1.3-1.5-1.8-2-0.5c-0.4,1-0.3,1.8,0.4,2.7c0.5,0.7,2,0.6,1.9-0.5c-0.2-1.6-0.7-3.4-2.5-3.8
							c-0.9-0.2-1.3,0.3-2,0.4c-0.7,0.1,0.3,0.8-0.5-0.1c-0.2-0.3-0.3-0.8-0.5-1.1c-0.2-0.3-0.5-0.5-0.9-0.5c-0.2,0-0.4,0.1-0.5,0
							c0.2,0.2,0.5,0.5,0.7,0.7c0-0.1-0.1-0.2-0.1-0.4c-0.6,0.3-1.2,0.5-1.9,0.8c0.4,0.8,0.4,1.5,1.4,1.8c0.8,0.3,1.6-0.1,2.2-0.6
							c1-0.8,0-2.6-1-1.8c-0.6,0.5-0.6,0.1-0.9-0.5c-0.5-1.1-2.1-0.3-1.9,0.8c0.2,1,0.9,1.3,1.9,1.1c-0.3-0.2-0.6-0.3-0.9-0.5
							c0.6,0.8,0.5,2,1.6,2.5c1.4,0.5,3.3-1.6,3.6,1c0.6-0.2,1.3-0.3,1.9-0.5c-0.1-0.4-0.1-0.8-0.2-1.1c-0.7-0.2-1.3-0.4-2-0.5
							c-0.2,0.7-0.1,0.6,0.4-0.3c0-1.3-2-1.3-2,0c0,0.1,0,0.3,0,0.4c0,0.9,1.1,1.4,1.7,0.7c0.7-0.7,1.4,2.4,1.5,2.7
							c0.2,0.6,0.7,0.8,1.3,0.7c0.2,0,0.7-0.3,0.8-0.3c0.7,0,1.3,0.4,1.8,0.7C-43.8,108.6-42.8,106.8-43.9,106.1L-43.9,106.1z"/>
					</g>
				</g>
				<g>
					<g>
						<path class="st15" d="M-51.4,104c0.4,0.3,0.8,0.6,1.2,0.8c0.5,0.3,1.1,0.1,1.4-0.4c0.3-0.5,0.1-1.1-0.4-1.4
							c-0.4-0.3-0.8-0.6-1.2-0.8c-0.5-0.3-1.1-0.1-1.4,0.4C-52,103.1-51.8,103.7-51.4,104L-51.4,104z"/>
					</g>
				</g>
				<g>
					<g>
						<path class="st15" d="M-46.6,105.7c1.3,1,1.3,3.1,2.7,3.9c1.2,0.7,2.5-0.7,1.8-1.9c-0.3-0.6-1.1-0.6-1.6-0.2
							c-0.8,0.7-1.5,2-1.1,3.2c0.3,1,1.5,1.5,2.2,0.6c0.9-1-0.6-2.4-1.4-1.4c0,0.1-0.1,0.1-0.1,0.2c0.2-0.1,0.5-0.2,0.7-0.3
							c-0.1,0-0.1,0-0.2,0c0.3,0.2,0.6,0.3,0.9,0.5c-0.3-0.4,0.3-1,0.5-1.3c-0.5-0.1-1.1-0.1-1.6-0.2c0,0.1,0.1,0.1,0.1,0.2
							c0-0.3-0.1-0.5-0.1-0.8c0.1-0.1,0.2-0.2,0.3-0.3c0.3,0,0.5,0.1,0.8,0.1c-0.5-0.3-0.9-1.7-1.2-2.3c-0.4-0.7-0.9-1.2-1.6-1.7
							C-46.6,103.1-47.6,104.9-46.6,105.7L-46.6,105.7z"/>
					</g>
				</g>
				<g>
					<g>
						<path class="st15" d="M-45.3,108.5c0.2,0.7,0.6,1.4,1.1,1.9c0.9,0.9,2.4-0.5,1.4-1.4c-0.3-0.3-0.5-0.6-0.6-1
							C-43.7,106.7-45.7,107.3-45.3,108.5L-45.3,108.5z"/>
					</g>
				</g>
				<g>
					<g>
						<path class="st15" d="M-80.9,113.5c-1,1-1.4,2.3-0.9,3.6c0.5,1.4,1.7,1.9,3.1,2.2c-0.2-0.2-0.4-0.3-0.6-0.5
							c0,0.1,0.1,0.2,0.1,0.3c0-0.3-0.1-0.5-0.1-0.8c-0.1,0.9-0.4,1.7-0.6,2.5c-0.3,1.3,1.6,1.8,2,0.5c0.3-1,1.1-2.6,0.4-3.6
							c-0.3-0.4-0.7-0.4-1.1-0.6c-1.1-0.3-1.8-1.3-0.8-2.3C-78.5,114-80,112.5-80.9,113.5L-80.9,113.5z"/>
					</g>
				</g>
				<g>
					<g>
						<path class="st15" d="M-78.4,115.8c0-0.5,0.4,0.1,0.4,0.2c0.1,0.3-0.2,1-0.6,0.8c-0.5-0.2-1.1-0.2-1.4,0.4
							c-0.3,0.4-0.1,1.2,0.4,1.4c1,0.4,2.1,0.3,2.9-0.4c0.8-0.7,1-2,0.7-3c-0.4-1-1.4-1.8-2.5-1.5c-1,0.2-1.7,1.1-1.8,2.2
							c-0.1,0.5,0.5,1,1,1C-78.9,116.8-78.5,116.4-78.4,115.8L-78.4,115.8z"/>
					</g>
				</g>
				<g>
					<g>
						<path class="st15" d="M-79.1,116.4c0.7,1.4-0.4,3.3-0.8,4.7c-0.4,1.3,1.6,1.8,2,0.5c0.7-2,1.6-4.2,0.6-6.2
							C-77.9,114.2-79.6,115.2-79.1,116.4L-79.1,116.4z"/>
					</g>
				</g>
				<g>
					<g>
						<path class="st15" d="M-77.8,123.4c0.2,0.1,0.4,0.2,0.6,0.3c0.1-0.6,0.2-1.2,0.2-1.9c-0.4,0.1-0.9-0.2-1.1-0.7
							c-0.3-1.3-2.3-0.7-2,0.5c0.4,1.6,2,2.5,3.6,2.1c0.9-0.2,1-1.4,0.2-1.9c-0.2-0.1-0.4-0.2-0.6-0.3
							C-77.9,121-79,122.7-77.8,123.4L-77.8,123.4z"/>
					</g>
				</g>
				<g>
					<g>
						<path class="st15" d="M-78.2,120.1c0-0.1,0-0.2,0.1-0.3c0.9-0.9-0.5-2.4-1.4-1.4c-0.6,0.6-0.8,1.4-0.6,2.3
							C-79.9,121.9-77.9,121.4-78.2,120.1L-78.2,120.1z"/>
					</g>
				</g>
				<g>
					<g>
						<path class="st21" d="M-85.9,107.1c-3.1,1.5-1.1,5.9,1.2,7c1.2,0.6,2.8,0.6,3.7-0.5c1-1.2,0.9-3.2,0.6-4.7
							c-0.3-1.3-2.2-0.7-2,0.5c0.2,1.1,0.3,4-1.6,2.7c-0.8-0.6-2.2-2.6-0.8-3.3C-83.7,108.3-84.7,106.6-85.9,107.1L-85.9,107.1z"/>
					</g>
				</g>
				<g>
					<g>
						<path class="st21" d="M-83.9,109.3c0.1,1.1,0.6,2,1.5,2.6c0.5,0.3,1.1,0.1,1.4-0.4c0.3-0.5,0.1-1.1-0.4-1.4
							c-0.3-0.2-0.5-0.5-0.5-0.9C-81.9,108-84,108-83.9,109.3L-83.9,109.3z"/>
					</g>
				</g>
				<g>
					<g>
						<path class="st21" d="M-76.5,99.8c-0.8,2,0,4.4,1.9,5.5c1.5,0.9,4.3,1,4.5-1.3c0.1-1.3-1.9-1.3-2,0c0.1-0.5,0.2-0.1-0.1-0.1
							c-0.2,0-0.4,0-0.7,0c-0.5-0.1-0.9-0.4-1.2-0.7c-0.7-0.8-0.7-1.8-0.3-2.7C-74,99.1-76,98.6-76.5,99.8L-76.5,99.8z"/>
					</g>
				</g>
				<g>
					<g>
						<path class="st21" d="M-72.4,103.7C-72.4,103.7-72.4,103.6-72.4,103.7c0.2,0.1,0.4,0.2,0.6,0.3c0,0,0,0-0.1-0.1
							c0.1,0.1,0.2,0.3,0.3,0.4c0,0,0-0.1,0-0.1c0,0.3-0.1,0.5-0.1,0.8c0,0,0,0,0-0.1c0.2-0.5,0.1-1.1-0.4-1.4
							c-0.4-0.3-1.2-0.1-1.4,0.4c-0.4,0.9,0.1,1.7,1,1.8c0.5,0.1,1-0.5,1-1C-71.4,104.1-71.8,103.7-72.4,103.7L-72.4,103.7z"/>
					</g>
				</g>
				<g>
					<g>
						<path class="st21" d="M-70.6,104.7c0,0.5,0,1,0,1.5c0,1.3,2,1.3,2,0c0-0.5,0-1,0-1.5C-68.5,103.3-70.5,103.3-70.6,104.7
							L-70.6,104.7z"/>
					</g>
				</g>
				<g>
					<g>
						<path class="st21" d="M-34.3,128c-1.6,0.8-3.4,2.8-2.5,4.8c0.9,2.1,3.3,2,5.2,1.6c1.3-0.3,0.7-2.3-0.5-2
							c-0.8,0.2-2.3,0.6-2.8-0.4c-0.4-0.9,1-1.9,1.6-2.2C-32.1,129.1-33.1,127.4-34.3,128L-34.3,128z"/>
					</g>
				</g>
				<g>
					<g>
						<path class="st21" d="M-74.6,110.1C-74.7,110-74.7,110-74.6,110.1c0,0.1,0,0.2,0,0.4c0.2-0.5,0.1-1.1-0.4-1.4
							c-0.4-0.3-1.2-0.1-1.4,0.4c-0.3,0.7-0.3,1.6,0.4,2.1c0.4,0.3,1,0.4,1.4,0C-74.3,111.2-74.2,110.5-74.6,110.1L-74.6,110.1z"/>
					</g>
				</g>
				<g>
					<g>
						<path class="st21" d="M-74.3,109.8c0.3,0.2-0.1-0.1,0.1,0.1c-0.1-0.1,0.1,0.2,0,0c0-0.1,0,0.1,0,0c0.1-0.1-0.2,0.1-0.1,0.1
							c-0.4,0.3-0.4,1.1,0,1.4c0.4,0.4,1,0.3,1.4,0c1-0.8,1-2.4,0-3.2c-0.4-0.3-1-0.4-1.4,0C-74.6,108.8-74.7,109.5-74.3,109.8
							L-74.3,109.8z"/>
					</g>
				</g>
				<g>
					<g>
						<path class="st21" d="M-72.3,111.3c0.1,0.2,0.1,0.4,0,0.5c-0.6,1.1,1.1,2.2,1.8,1c0.5-0.8,0.5-1.7,0-2.6
							c-0.2-0.5-0.9-0.6-1.4-0.4C-72.4,110.2-72.5,110.8-72.3,111.3L-72.3,111.3z"/>
					</g>
				</g>
				<g>
					<g>
						<path class="st21" d="M-77.2,113.2c-1.9,0.8-3.5,2.2-4.1,4.3c-0.7,2.3,0.2,3.9,2.1,5.1c1.1,0.7,2.1-1.1,1-1.8
							c-1.4-0.9-1.7-1.9-1-3.3c0.5-1,1.4-1.9,2.5-2.3C-75.5,114.7-76,112.7-77.2,113.2L-77.2,113.2z"/>
					</g>
				</g>
				<g>
					<g>
						<path class="st21" d="M-65.9,109.2c1.1-2.2,3.3,1,3.5,2.1c0.3,1.6-0.4,3.1-1.7,4.1c-1,0.8,0,2.5,1,1.8
							c2.6-1.9,3.7-5.4,1.9-8.3c-1.4-2.3-5-3.7-6.5-0.7C-68.3,109.3-66.5,110.4-65.9,109.2L-65.9,109.2z"/>
					</g>
				</g>
				<g>
					<g>
						<path class="st21" d="M-66.8,114.2c0.2,1.7,1.6,3.2,3.5,3c0.5,0,1-0.4,1-1c0-0.5-0.5-1.1-1-1c-0.6,0.1-1.3-0.3-1.4-1
							c-0.1-0.5-0.4-1-1-1C-66.3,113.1-66.8,113.6-66.8,114.2L-66.8,114.2z"/>
					</g>
				</g>
				<path class="st22" d="M-70.3,175.9c0,0,1.6,12.1,11.8,12.1c10.5,0,13.6-7.9,13.5-13.3l11.5,2.2l-2.7,33.7l-19.3,7.6l-21.7-5.4
					l-6-33.5L-70.3,175.9z"/>
				<g>
					<g>
						<path class="st21" d="M-64.2,103.7c-1.7-0.8-3.2-2.9-2-4.8c1.2-1.8,3.5-1.5,5.1-0.5c1.1,0.7,2.1-1.1,1-1.8
							c-2.5-1.6-6.2-1.5-7.9,1.2c-1.7,2.8,0.1,6.3,2.8,7.6C-64,106.1-63,104.3-64.2,103.7L-64.2,103.7z"/>
					</g>
				</g>
				<g>
					<g>
						<path class="st21" d="M-62,102.2c1.3,0,1.3-2,0-2C-63.3,100.2-63.3,102.2-62,102.2L-62,102.2z"/>
					</g>
				</g>
				<g>
					<g>
						<path class="st21" d="M-62.3,99.8c-0.1-0.2-0.2-0.3-0.3-0.5c-0.7-1.1-2.4-0.1-1.8,1c0.1,0.2,0.2,0.3,0.3,0.5
							C-63.4,102-61.6,101-62.3,99.8L-62.3,99.8z"/>
					</g>
				</g>
				<g>
					<g>
						<path class="st21" d="M-55.4,102.2c-2.2-1.4-4,1.1-4.7,2.9c-0.9,2.2-1.2,5.2,0.3,7.2c2.5,3.6,11.5,2,9.4-3.1
							c-0.5-1.2-2.5-0.7-2,0.5c1.2,3-5.2,3.5-6.1,0.5c-0.3-1-0.2-2.1,0-3.1c0.1-0.5,1.1-3.9,2.2-3.2
							C-55.3,104.6-54.3,102.9-55.4,102.2L-55.4,102.2z"/>
					</g>
				</g>
				<g>
					<g>
						<path class="st21" d="M-53.4,107.6c-0.8,0.5-1.5,1.2-1.7,2.1c-0.2,0.9,0.2,1.9,1.1,2.3c1.2,0.6,2.2-1.2,1-1.8
							c-0.1-0.1-0.1-0.1-0.1-0.3c0.1-0.3,0.4-0.5,0.7-0.6C-51.3,108.6-52.3,106.8-53.4,107.6L-53.4,107.6z"/>
					</g>
				</g>
				<g>
					<g>
						<path class="st21" d="M-49.3,103.4c-0.8-0.8-1.9-2.3-1.2-3.5c0.8-1.3,2.5-0.7,3.4,0c1.1,0.8,2.1-1,1-1.8
							c-1.8-1.4-4.6-1.5-6.1,0.5c-1.4,2-0.1,4.6,1.4,6.2C-49.9,105.8-48.4,104.3-49.3,103.4L-49.3,103.4z"/>
					</g>
				</g>
				<g>
					<g>
						<path class="st21" d="M-46.3,103.8c1.3,0,1.3-2,0-2C-47.6,101.7-47.6,103.8-46.3,103.8L-46.3,103.8z"/>
					</g>
				</g>
				<g>
					<g>
						<path class="st21" d="M-46.2,101.5c-0.1,0.3-0.3,0.6-0.4,0.9c0.5,0,1-0.5,1-1c0-0.6-0.5-1-1-1c-1.2-0.1-1.8,1.3-1.3,2.2
							C-47.3,103.7-45.6,102.6-46.2,101.5L-46.2,101.5z"/>
					</g>
				</g>
				<g>
					<g>
						<path class="st21" d="M-44.4,104.9c-0.5-1.1,0.4-2.2,1.5-2.3c1.2-0.2,2.1,0.5,2.8,1.4c0.8,1,2.3-0.4,1.4-1.4
							c-1.4-1.7-3.7-2.6-5.8-1.6c-1.9,0.9-2.6,3.1-1.8,5C-45.6,107.1-43.9,106.1-44.4,104.9L-44.4,104.9z"/>
					</g>
				</g>
				<g>
					<g>
						<path class="st21" d="M-34.7,139.2c-0.5,0.7-1.4,0.5-1.9-0.1c-0.4-0.5-0.7-0.9-1.4-0.8c-1.2,0.1-1.6,2-1.1,2.9
							c0.3,0.5,0.9,0.8,1.4,0.7c0.7-0.2,1.1-0.9,1.4-1.5c0.2-0.6,0.3-1.4,0.7-1.9c0.7-0.8,0.8,0.4,0.9,0.9c0.1,1.3,2.2,1.3,2,0
							c-0.2-1.6-0.9-3.5-2.8-3.2c-0.8,0.1-1.4,0.6-1.9,1.3c-0.3,0.4-0.4,0.8-0.6,1.3c-0.1,0.2-0.1,0.4-0.2,0.6
							c0,0.1-0.1,0.3-0.1,0.4c-0.1,0.2,0,0.3,0.4,0.2c0.2,0.2,0.4,0.3,0.6,0.5c0,0,0-0.3,0-0.3c-0.2,0.1-0.5,0.2-0.7,0.3
							c0.1,0,0.1,0,0.2,0c-0.2-0.1-0.5-0.2-0.7-0.3c0.4,0.3,0.6,0.8,1.1,1.1c0.5,0.3,1.1,0.5,1.7,0.6c1.2,0.1,2.2-0.6,2.9-1.5
							C-32.1,139.2-33.9,138.2-34.7,139.2L-34.7,139.2z"/>
					</g>
				</g>
				<g>
					<g>
						<path class="st21" d="M-40.4,111.2c-3-1.5-3.2,3.4-2.8,5.2c0.6,2.7,3.1,4.6,5.9,3.9c1.3-0.3,0.7-2.3-0.5-2
							c-1.3,0.3-2.5-0.5-3.1-1.7c-0.3-0.7-0.4-1.5-0.4-2.2c0-0.4,0-0.8,0.1-1.1c0.2-0.3,0.1-0.4-0.2-0.4
							C-40.3,113.5-39.3,111.7-40.4,111.2L-40.4,111.2z"/>
					</g>
				</g>
				<g>
					<g>
						<path class="st21" d="M-39.8,116.5c-0.3,0.7-0.2,1.6,0.3,2.2c0.3,0.4,0.9,0.7,1.4,0.4c0.4-0.3,0.7-1,0.4-1.4
							c-0.2-0.3-0.2-0.3-0.1-0.6c0.2-0.5-0.2-1.1-0.7-1.3C-39.2,115.6-39.6,116-39.8,116.5L-39.8,116.5z"/>
					</g>
				</g>
				<g>
					<g>
						<path class="st21" d="M-38.7,116.8c0.3-0.6,1.1-0.8,1.5-0.2c0.7,1.1,2.5,0.1,1.8-1c-1.2-1.9-4-1.9-5,0.2
							C-41.1,116.9-39.3,118-38.7,116.8L-38.7,116.8z"/>
					</g>
				</g>
				<g>
					<g>
						<path class="st21" d="M-37.1,121.9c0.6-0.3,1.1,0.2,1.1,0.8c0,0.7-0.5,1.3-1,1.6c-1.1,0.8,0,2.5,1,1.8c1.4-1,2.5-2.6,1.9-4.4
							c-0.6-1.6-2.5-2.4-4-1.5C-39.3,120.8-38.2,122.6-37.1,121.9L-37.1,121.9z"/>
					</g>
				</g>
				<g>
					<g>
						<path class="st21" d="M-85,121.6c-0.4,0.6-1,1.4-1.8,1.5c-0.9,0.1-1.7-0.9-1.9-1.6c-0.7-1.8,0.9-3.2,2.6-3
							c1.3,0.1,1.3-1.9,0-2c-0.9-0.1-1.7,0.2-2,1.1c-0.1,0.4-0.1,0.7,0.1,1.1c0.2,0.3,0.8,0.8,0.6,1.1c0.2-0.2,0.3-0.4,0.5-0.6
							c-0.1,0.1-0.8,0.1-1.2,0.3c-1.1,0.7-0.1,2.5,1,1.8c0,0,0.6,0,0.8-0.1c0.4-0.2,0.7-0.5,0.8-0.9c0.3-1.1-0.6-1.8-0.9-2.7
							c0,0.3,0.1,0.5,0.1,0.8c0-0.1,0.1-0.2,0.1-0.3c-0.2,0.2-0.3,0.4-0.5,0.6c0.1-0.2,0.3-0.2,0.5-0.1c0-0.7,0-1.4,0-2
							c-3.2-0.3-5.7,2.9-4.4,5.9c0.5,1.3,1.7,2.6,3.2,2.8c1.6,0.2,2.9-0.9,3.8-2.1C-82.8,122-84.2,120.6-85,121.6L-85,121.6z"/>
					</g>
				</g>
				<g>
					<g>
						<path class="st21" d="M-84,124.1c-3.1-0.5-4,3.9-3.3,6.1c0.8,2.6,3.7,3.9,6.2,2.8c1.2-0.5,0.2-2.3-1-1.8
							c-1.2,0.5-2.5-0.2-3.1-1.3c-0.3-0.6-0.3-1.3-0.2-1.9c0-0.3,0.5-2.1,0.9-2C-83.2,126.3-82.7,124.3-84,124.1L-84,124.1z"/>
					</g>
				</g>
				<g>
					<g>
						<path class="st21" d="M-80.8,128.7c-1.6-0.5-3.1,1-2.6,2.6c0.4,1.2,2.4,0.7,2-0.5c0-0.2-0.1-0.2,0.1-0.1
							C-80.1,131-79.6,129-80.8,128.7L-80.8,128.7z"/>
					</g>
				</g>
				<g>
					<g>
						<path class="st21" d="M-83.5,136.4c-0.6-0.8-1.6-0.9-2.5-0.5c-1,0.6-1.4,1.9-1.6,3c-0.4,2.5,0,6.1,2.8,7.1
							c1.8,0.7,4.4-0.6,4-2.8c-0.5-2.6-3.4-1.4-4,0.4c-0.5,1.2,1.5,1.8,2,0.5c-0.2,0.5-1.9-0.4-2-0.5c-0.5-0.6-0.7-1.5-0.8-2.2
							c-0.1-0.6,0-1.1,0-1.7c0-0.2,0.5-2,0.7-1.8C-84.2,138.9-82.7,137.5-83.5,136.4L-83.5,136.4z"/>
					</g>
				</g>
				<g>
					<g>
						<path class="st21" d="M-79.6,150.1c0.3,0.1,0.4,1.4,0.5,1.7c0,0.3-0.1,1.5-0.7,1.2c-1.2-0.6-2.2,1.2-1,1.8
							c1.6,0.9,3.4-0.3,3.7-2.1c0.3-1.6-0.2-4-1.9-4.5C-80.4,147.7-80.9,149.7-79.6,150.1L-79.6,150.1z"/>
					</g>
				</g>
				<polygon class="st23" points="-92.8,182.4 -93.5,186.5 -82.9,211.4 -89.5,182.2 				"/>
				<g>
					<g>
						<path class="st21" d="M-80.1,151.7c-0.1-0.1-0.2-0.3-0.1-0.3c0.5-0.1,1-0.4,1-1c0-0.5-0.5-1.1-1-1c-0.9,0.1-1.7,0.6-2,1.5
							c-0.3,0.8,0,1.7,0.6,2.3c0.4,0.4,1,0.4,1.4,0C-79.7,152.7-79.7,152-80.1,151.7L-80.1,151.7z"/>
					</g>
				</g>
				<g>
					<g>
						<path class="st21" d="M-39.4,144.7c-0.2,1.6,0.1,3.3,0.8,4.7c0.6,1.2,1.9,2.4,3.3,1.6c1.1-0.7,1.2-2.3,0.5-3.2
							c-0.9-1.1-2.4-0.5-2.6,0.9c-0.2,1.3,1.9,1.3,2,0c0-0.1,0-0.2,0-0.2c-0.1,0.2-0.2,0.5-0.3,0.7c0,0,0,0,0,0.1
							c-0.3,0-0.5-0.1-0.8-0.1c0.1,0.2,0.1,0.2,0-0.1c-0.2-0.2-0.3-0.4-0.4-0.7c-0.2-0.3-0.3-0.7-0.4-1.1c-0.2-0.9-0.2-1.7-0.1-2.6
							C-37.2,143.4-39.2,143.4-39.4,144.7L-39.4,144.7z"/>
					</g>
				</g>
				<polygon class="st16" points="-93.2,181.7 -83.3,210.7 -69.3,215.9 -75.3,172.9 				"/>
				<polygon class="st16" points="-42.8,171.8 -41.6,213.7 -31,208.5 -27.4,173.8 				"/>
				<polygon class="st24" points="-72.6,176.5 -69.8,210.3 -74.7,177 				"/>
				<polygon class="st24" points="-44.6,174.8 -41.9,208.7 -42.7,174.9 				"/>
				<path class="st22" d="M-64,149.3l13.8-0.4c0,0,0.5,7.6-6.6,7.7C-65,156.7-64,149.3-64,149.3z"/>
				<line class="st25" x1="-62.7" y1="149.2" x2="-47.5" y2="148.6"/>
				<line class="st26" x1="-60.1" y1="157.1" x2="-53.4" y2="156.8"/>
				<g>
					<path class="st21" d="M-44.5,148.8l-7.9-4.1l-10.1,0.6l-7.9,5.6l-8.5-8.1c1.5,18.4,8.4,24.1,8.4,24.1c6,4.6,23,2.2,27.3-2.8
						c4.3-5,4.1-23.5,4.1-23.5L-44.5,148.8z M-53.1,161.3l-2.3-3.8l-2.6,0.1l-1.9,3.7l-8.5-5.4l7.2-7.2l7.8-0.5l8.1,3.9L-53.1,161.3
						z"/>
				</g>
				<path class="st25" d="M-63.1,142c0,0,1.9,3.9,5.3,3.7c3.4-0.2,4.6-4.3,4.6-4.3"/>
			</g>
		</g>
	</g>
</g>
</svg>
