<svg xmlns="http://www.w3.org/2000/svg" viewBox="0 0 307 391"><defs><style>.cls-1,.cls-10,.cls-12{opacity:0.2;}.cls-2{fill:#c4ab18;}.cls-3{fill:#a8a59e;}.cls-4{fill:#d1cfcb;}.cls-5{fill:#d3bd18;}.cls-6,.cls-7{fill:#4d4d4d;}.cls-7{font-size:22.46px;font-family:MyriadPro-Regular, Myriad Pro;}.cls-8{letter-spacing:0.01em;}.cls-9{letter-spacing:-0.02em;}.cls-10{fill:#333;}.cls-11{fill:#005187;}.cls-12,.cls-13{fill:none;stroke-miterlimit:10;stroke-width:1.74px;}.cls-12{stroke:#000;}.cls-13{stroke:#7c181f;}</style></defs><title>pantallas_04-carpetas</title><g id="lapices"><path class="cls-1" d="M288.69,23.61l-261-7.69L13.62,370.11h.13l-.08,1.19S151,382.25,270.07,381.56V375.2q3.79.3,7.24.62L285.56,119l13.84-7,3-77.61Z"/><path class="cls-2" d="M6.67,367.3S144,378.25,263.07,377.56L262.6,74.13,25.79,64.73Z"/><polygon class="cls-3" points="30.67 367.06 45.8 32.23 267.86 33.39 254.22 376.95 30.67 367.06"/><polygon class="cls-4" points="34.26 367.46 52.08 29.43 274.17 30.6 260.53 374.15 34.26 367.46"/><path class="cls-5" d="M20.68,11.92l261,7.69,13.75,10.82-3,77.61-13.84,7-8.26,256.8C198,365.08,6.62,366.11,6.62,366.11Z"/><path class="cls-6" d="M49.85,253.26c7.94.09,15.88.31,23.82.46l23.81.67c15.87.47,31.73,1.11,47.6,1.66,15.86.71,31.73,1.33,47.58,2.12l23.79,1.22c7.93.48,15.85.89,23.78,1.43-7.94-.09-15.88-.31-23.82-.45l-23.81-.67c-15.87-.47-31.73-1.11-47.6-1.66-15.86-.71-31.73-1.33-47.58-2.12l-23.79-1.22C65.7,254.21,57.78,253.8,49.85,253.26Z"/><path class="cls-6" d="M53.81,153.43c7.94.09,15.88.31,23.82.46l23.81.67c15.87.47,31.73,1.11,47.6,1.66,15.86.71,31.73,1.33,47.58,2.12l23.79,1.22c7.93.48,15.85.89,23.78,1.43-7.94-.09-15.88-.31-23.82-.45l-23.81-.67c-15.87-.47-31.73-1.11-47.6-1.66-15.86-.71-31.73-1.33-47.58-2.12l-23.79-1.22C69.67,154.38,61.74,154,53.81,153.43Z"/><text class="cls-7" transform="matrix(1, 0.04, -0.04, 1, 74.55, 196)">PR<tspan class="cls-8" x="24.03" y="0">E</tspan><tspan x="35.28" y="0">VENCIÓN DE</tspan><tspan x="17.83" y="26.95">ADI</tspan><tspan class="cls-9" x="51.9" y="26.95">C</tspan><tspan x="64.46" y="26.95">CIONES</tspan></text><path class="cls-4" d="M281.77,138.52c-41-5.83-115.44-13-115.44-13l13-115.44s94,13.17,115.44,13C294.79,23.08,281.23,120.85,281.77,138.52Z"/><polygon class="cls-10" points="176.27 118.87 277.28 133.52 283.75 33.18 176.27 118.87"/><rect class="cls-11" x="180.06" y="23.79" width="100.99" height="100.99" transform="translate(130.9 295.07) rotate(-83.56)"/><path class="cls-12" d="M241.87,17.68c0-2.15,0-2.1-.1-2.22-.27-.47-7.79-.93-8.28-.5s-.56,14.5,2,20,6.07,4.66,5.62-8.89"/><path class="cls-13" d="M241.29,17.94a14.36,14.36,0,0,0-.1-2.12c-.26-.47-7.78-.93-8.28-.5s-.56,14.5,2,20,6.07,4.66,5.62-8.89"/></g></svg>