<svg xmlns="http://www.w3.org/2000/svg" viewBox="0 0 293 387"><defs><style>.cls-1,.cls-10,.cls-12{opacity:0.2;}.cls-2{fill:#c4ab18;}.cls-3{fill:#b3b3b3;}.cls-4{fill:#d1cfcb;}.cls-5{fill:#d3bd18;}.cls-6,.cls-7{fill:#4d4d4d;}.cls-7{font-size:22.46px;font-family:MyriadPro-Regular, Myriad Pro;}.cls-8{letter-spacing:0em;}.cls-9{letter-spacing:-0.01em;}.cls-10{fill:#333;}.cls-11{fill:#005187;}.cls-12,.cls-13{fill:none;stroke-miterlimit:10;stroke-width:1.74px;}.cls-12{stroke:#000;}.cls-13{stroke:#7c181f;}</style></defs><title>pantallas_04-carpetas</title><g id="lapices"><path class="cls-1" d="M288.29,363.71,276,107.08,289.21,99,286,21.41l-14.57-9.68L10.66,25,25,379.13h.13l0,1.2s108.7-.06,216.18-7.24l27.64-.38,0-1.63q6.33-.5,12.61-1l-.52-6.34C283.56,363.67,286,363.68,288.29,363.71Z"/><path class="cls-2" d="M21.15,377.31s137.73-.07,256.4-10.29L252.79,64.6,16,74.19Z"/><polygon class="cls-3" points="41.22 372.81 36.87 37.66 258.62 25.92 264.96 369.69 41.22 372.81"/><polygon class="cls-4" points="48.66 375.26 39.37 36.89 260.84 20.28 274.74 363.83 48.66 375.26"/><path class="cls-5" d="M6.66,22,267.45,8.73,282,18.41,285.21,96,272,104.08l12.32,256.63C211.73,359.78,21,376.13,21,376.13Z"/><path class="cls-6" d="M55.06,260.19c7.92-.55,15.85-1,23.78-1.45l23.78-1.24c15.86-.81,31.72-1.43,47.58-2.16,15.87-.56,31.73-1.21,47.6-1.7l23.81-.68c7.94-.16,15.87-.38,23.82-.47-7.92.55-15.85,1-23.78,1.45l-23.78,1.24c-15.86.8-31.72,1.44-47.58,2.16-15.87.56-31.73,1.22-47.6,1.69l-23.81.68C70.94,259.87,63,260.09,55.06,260.19Z"/><path class="cls-6" d="M51,160.36c7.92-.55,15.85-1,23.78-1.45l23.78-1.24c15.86-.81,31.72-1.43,47.58-2.16,15.87-.56,31.73-1.21,47.6-1.7l23.81-.68c7.94-.16,15.87-.38,23.82-.47-7.92.55-15.85,1-23.78,1.45l-23.78,1.24c-15.86.8-31.72,1.44-47.58,2.16-15.87.56-31.73,1.22-47.6,1.69l-23.81.68C66.9,160,59,160.26,51,160.36Z"/><text class="cls-7" transform="translate(87.3 200.63) rotate(-2.32)">POLÍTI<tspan class="cls-8" x="59.92" y="0">C</tspan><tspan x="73.04" y="0">AS DE </tspan><tspan x="8.33" y="26.95">SEGURI</tspan><tspan class="cls-9" x="76.95" y="26.95">D</tspan><tspan x="91.59" y="26.95">AD</tspan></text><path class="cls-4" d="M277.05,127.25c-41.29-2.54-116.11-3.74-116.11-3.74L164.68,7.39s94.8,5.6,116.11,3.74C280.79,11.13,275.1,109.68,277.05,127.25Z"/><polygon class="cls-10" points="170.32 116.1 272.18 122.62 270.59 22.09 170.32 116.1"/><rect class="cls-11" x="170.37" y="16.82" width="100.99" height="100.99" transform="translate(146.47 285.91) rotate(-88.15)"/><path class="cls-12" d="M227.61,10c-.18-2.14-.2-2.09-.28-2.2-.3-.45-7.83-.3-8.29.17s.6,14.5,3.55,19.81,6.42,4.16,4.89-9.32"/><path class="cls-13" d="M227.05,10.29a14.36,14.36,0,0,0-.27-2.11c-.3-.45-7.83-.3-8.29.17s.6,14.5,3.55,19.81,6.42,4.16,4.89-9.32"/></g></svg>