<svg xmlns="http://www.w3.org/2000/svg" viewBox="0 0 307 390"><defs><style>.cls-1,.cls-11,.cls-13{opacity:0.2;}.cls-2{fill:#c4ab18;}.cls-3{fill:#a8a59e;}.cls-4{fill:#e6e6e6;}.cls-5{fill:#d3bd18;}.cls-6,.cls-7{fill:#4d4d4d;}.cls-7{font-size:22.46px;font-family:MyriadPro-Regular, Myriad Pro;}.cls-8{letter-spacing:0em;}.cls-9{letter-spacing:-0.03em;}.cls-10{fill:#d1cfcb;}.cls-11{fill:#333;}.cls-12{fill:#005187;}.cls-13,.cls-14{fill:none;stroke-miterlimit:10;stroke-width:1.74px;}.cls-13{stroke:#000;}.cls-14{stroke:#7c181f;}</style></defs><title>pantallas_04-carpetas</title><g id="lapices"><path class="cls-1" d="M300.25,35,286.42,24.26,25.36,18.55,14,372.83h.13L14.06,374s137.37,9.91,256.47,8.32l0-3.6L280,379l8.39-261.49,9.46-4.87Z"/><path class="cls-2" d="M7.06,372s137.37,9.91,256.47,8.32L260.75,76.93,23.87,69.33Z"/><polygon class="cls-3" points="31.04 371.61 43.63 36.67 265.69 36.15 254.67 379.8 31.04 371.61"/><polygon class="cls-4" points="46.64 371.98 61.9 33.82 283.99 33.3 272.96 376.96 46.64 371.98"/><path class="cls-5" d="M18.36,16.55l261.06,5.71L293.25,33l-2.45,77.63L277,117.69l-6.31,256.85C198.4,368.35,7,370.83,7,370.83Z"/><path class="cls-6" d="M49.37,257.67c7.94,0,15.88.19,23.82.28l23.81.49c15.87.34,31.74.87,47.61,1.29,15.87.59,31.74,1.09,47.6,1.76l23.79,1c7.93.42,15.86.77,23.79,1.25-7.94,0-15.88-.19-23.82-.27L192.16,263c-15.87-.35-31.74-.87-47.61-1.3-15.87-.59-31.74-1.09-47.6-1.76l-23.79-1C65.23,258.5,57.29,258.15,49.37,257.67Z"/><path class="cls-6" d="M52.57,157.81c7.94,0,15.88.19,23.82.28l23.81.49c15.87.34,31.74.87,47.61,1.29,15.87.59,31.74,1.09,47.6,1.76l23.79,1c7.93.42,15.86.77,23.79,1.25-7.94,0-15.88-.19-23.82-.27l-23.81-.49c-15.87-.35-31.74-.87-47.61-1.3-15.87-.59-31.74-1.09-47.6-1.76l-23.79-1C68.43,158.64,60.5,158.29,52.57,157.81Z"/><text class="cls-7" transform="translate(61.25 188.81) rotate(1.84)">FUNCION<tspan class="cls-8" x="88.9" y="0">A</tspan><tspan x="102.55" y="0">MIEN</tspan><tspan class="cls-9" x="151.81" y="0">T</tspan><tspan x="162.36" y="0">O </tspan><tspan x="35.48" y="26.95">DEL PODER </tspan><tspan x="45.96" y="53.9">JUDICIAL</tspan></text><path class="cls-10" d="M288.78,133.36c-41.37.23-116.1,4-116.1,4l-4-116.1s95-.75,116.1-4C284.75,17.26,285.65,116,288.78,133.36Z"/><polygon class="cls-11" points="181.54 129.38 283.61 129.07 275.3 28.87 181.54 129.38"/><rect class="cls-12" x="178.22" y="26.83" width="100.99" height="100.99" transform="translate(-2.54 7.97) rotate(-1.99)"/><path class="cls-13" d="M231.6,19.67c-.32-2.13-.34-2.07-.42-2.18-.33-.43-7.84.22-8.27.72s1.57,14.42,4.87,19.52,6.69,3.72,4.26-9.62"/><path class="cls-14" d="M231.07,20a14.36,14.36,0,0,0-.41-2.09c-.33-.43-7.83.22-8.26.72s1.57,14.42,4.87,19.52,6.69,3.72,4.26-9.62"/></g></svg>