<?xml version="1.0" encoding="utf-8"?>
<!-- Generator: Adobe Illustrator 19.1.0, SVG Export Plug-In . SVG Version: 6.00 Build 0)  -->
<svg version="1.1" id="Capa_1" xmlns="http://www.w3.org/2000/svg" xmlns:xlink="http://www.w3.org/1999/xlink" x="0px" y="0px"
	 viewBox="-310 73.8 338.2 414.2" style="enable-background:new -310 73.8 338.2 414.2;" xml:space="preserve">
<style type="text/css">
	.st0{opacity:0.2;}
	.st1{fill:#C4AB18;}
	.st2{fill:#C2C2C2;}
	.st3{fill:#D1CFCB;}
	.st4{fill:#D3BD18;}
	.st5{fill:#4D4D4D;}
	.st6{fill:none;}
	.st7{font-family:'ZillaSlab-Medium';}
	.st8{font-size:22px;}
	.st9{opacity:0.2;fill:#333333;}
	.st10{fill:#005187;}
	.st11{fill:#8070A3;}
	.st12{opacity:0.2;fill:none;stroke:#000000;stroke-width:1.7393;stroke-miterlimit:10;}
	.st13{fill:none;stroke:#7C181F;stroke-width:1.7393;stroke-miterlimit:10;}
	.st14{clip-path:url(#SVGID_2_);}
	.st15{fill:#1A1A1A;}
	.st16{fill:#6E3539;}
	.st17{fill:#F2CCC0;}
	.st18{fill:#EAAE99;}
	.st19{fill:none;stroke:#E6E6E6;stroke-width:0.7501;stroke-miterlimit:10;}
	.st20{fill:#7D3027;}
	.st21{fill:#F28461;}
	.st22{fill:#D16A49;}
	.st23{fill:#F2C5B5;}
	.st24{fill:#333333;}
</style>
<g>
	<path class="st0" d="M3.5,261.7l4.3-77.6l8.1-4.8l-2.3-86.5l-16.1-11l-290.9,10.5l10.2,395c0,0,0.1,0,0.1,0l0,1.3
		c0,0,106,1.5,217.9-3.4l56.1,2.5l0.3-5.6c3.9-0.3,7.8-0.5,11.7-0.8l-0.5-7.1c2.8,0,5.5,0.1,8.1,0.2L3.5,261.7z"/>
	<g>
		<path class="st1" d="M-287.4,485.2c0,0,153.5,2.2,286-7.3l-22.7-337.5l-264.1,6.8L-287.4,485.2z"/>
		<polygon class="st2" points="-252.9,483.2 -260.5,109.7 -13.4,94.7 -3.5,477.9 		"/>
		<polygon class="st3" points="-265.5,472.9 -239.8,96.5 7.8,101.6 -13.4,484.3 		"/>
		<path class="st4" d="M-297.8,88.9L-6.9,78.4l16.1,11l2.3,86.5l-14.9,8.8L6.2,471c-80.9-2.2-293.7,12.9-293.7,12.9L-297.8,88.9z"/>
	</g>
	<g>
		<g>
			<path class="st5" d="M-247.7,355.2c0,0,3.3-0.2,9.1-0.4c5.8-0.2,14.1-0.6,24-1c10-0.3,21.6-0.8,34-1.2c12.4-0.4,25.7-0.8,39-1.1
				c13.3-0.3,26.5-0.6,39-0.9c12.4-0.3,24.1-0.4,34-0.6c10-0.2,18.3-0.2,24.1-0.3c5.8,0,9.1,0,9.1,0s-3.3,0.2-9.1,0.4
				c-5.8,0.2-14.1,0.6-24,1c-10,0.3-21.6,0.8-34,1.2c-12.4,0.4-25.7,0.8-39,1.1c-13.3,0.3-26.5,0.6-39,0.9
				c-12.4,0.3-24.1,0.4-34,0.6c-10,0.2-18.3,0.2-24.1,0.3C-244.4,355.2-247.7,355.2-247.7,355.2z"/>
		</g>
		<g>
			<path class="st5" d="M-250.6,243.9c0,0,3.3-0.2,9.1-0.4c5.8-0.2,14.1-0.6,24-1c10-0.3,21.6-0.8,34-1.2c12.4-0.4,25.7-0.8,39-1.1
				c13.3-0.3,26.5-0.6,39-0.9c12.4-0.3,24.1-0.4,34-0.6c10-0.2,18.3-0.2,24.1-0.3c5.8,0,9.1,0,9.1,0s-3.3,0.2-9.1,0.4
				c-5.8,0.2-14.1,0.6-24,1c-10,0.3-21.6,0.8-34,1.2c-12.4,0.4-25.7,0.8-39,1.1c-13.3,0.3-26.5,0.6-39,0.9
				c-12.4,0.3-24.1,0.4-34,0.6c-10,0.2-18.3,0.2-24.1,0.3C-247.3,243.9-250.6,243.9-250.6,243.9z"/>
		</g>
		<g>
			
				<rect x="-258.1" y="258.7" transform="matrix(0.9997 -2.585787e-02 2.585787e-02 0.9997 -7.8745 -3.5593)" class="st6" width="233.1" height="88.1"/>
			<text transform="matrix(0.9997 -2.586000e-02 2.586000e-02 0.9997 -220.0404 275.8229)"><tspan x="0" y="0" class="st5 st7 st8">PREVENCIÓN Y </tspan><tspan x="4.1" y="29" class="st5 st7 st8">CONTROL DEL </tspan><tspan x="-30.8" y="58" class="st5 st7 st8">LAVADO DE ACTIVOS </tspan></text>
		</g>
	</g>
	<g>
		<path class="st3" d="M-8.4,208.4c-46-3.5-129.4-6.1-129.4-6.1c3.3-70.5,6.1-129.4,6.1-129.4s105.6,7.8,129.4,6.1
			C-2.3,79.1-10.3,188.8-8.4,208.4z"/>
		<polygon class="st9" points="-127.2,194.3 -13.7,203.2 -13.9,91.1 		"/>
		
			<rect x="-126.3" y="84.4" transform="matrix(0.9989 4.677575e-02 -4.677575e-02 0.9989 6.5058 3.4293)" class="st10" width="112.6" height="112.6"/>
		
			<rect x="-126.3" y="84.4" transform="matrix(0.9989 4.677575e-02 -4.677575e-02 0.9989 6.5058 3.4293)" class="st11" width="112.6" height="112.6"/>
		<g>
			<path class="st12" d="M-61.6,76.9c-0.2-2.4-0.2-2.3-0.3-2.5c-0.3-0.5-8.7-0.5-9.2,0.1c-0.5,0.5,0.4,16.2,3.6,22.1
				c3.2,6,7.1,4.7,5.6-10.3"/>
			<path class="st13" d="M-62.2,77.3c-0.1-1.4-0.2-2.3-0.3-2.4c-0.3-0.5-8.7-0.5-9.2,0.1c-0.5,0.5,0.4,16.2,3.6,22.1
				c3.2,6,7.1,4.7,5.6-10.3"/>
		</g>
		<g>
			<defs>
				
					<rect id="SVGID_1_" x="-126.3" y="84.4" transform="matrix(0.9989 4.677575e-02 -4.677575e-02 0.9989 6.5058 3.4293)" width="112.6" height="112.6"/>
			</defs>
			<clipPath id="SVGID_2_">
				<use xlink:href="#SVGID_1_"  style="overflow:visible;"/>
			</clipPath>
			<g class="st14">
				<path class="st15" d="M-39.6,151.1c0,0,1.5,12.6-8.7,19.3C-48.3,170.4-57.6,163.8-39.6,151.1z"/>
				<path class="st15" d="M-105.7,148.2c0,0-1.6,13.5,12,17.1l6.5,0.3C-87.1,165.6-94.2,147.3-105.7,148.2z"/>
				<path class="st16" d="M-129.7,194.7c0,0,8.4-32.8,56.1-30.9C-27,165.7-16,187-14,199.8l-62.3,7.9L-129.7,194.7z"/>
				<path class="st17" d="M-92.1,160.9l-1.8,10.9c0,0,7.2,9.8,19.9,10.1s21.2-9.7,21.2-9.7l-1.7-9.6L-92.1,160.9z"/>
				<path class="st18" d="M-56.3,165c0,0-12.8,11-37.6,6.4l1.7-9.5L-56.3,165z"/>
				<path class="st18" d="M-39,138.5c0,0,3.5-3,5.7-1.8s0.6,9.4-6.3,14.4L-39,138.5z"/>
				<path class="st18" d="M-105,135.6c0,0-3.2-4.9-5.6-4.9c-2.5,0-2.6,10.1,4.9,17.5L-105,135.6z"/>
				<circle class="st19" cx="-39" cy="158.6" r="8.3"/>
				<circle class="st19" cx="-106" cy="155.6" r="8.3"/>
				
					<ellipse transform="matrix(0.999 4.411418e-02 -4.411418e-02 0.999 5.9767 3.3132)" class="st17" cx="-72.1" cy="137.1" rx="35.9" ry="32.3"/>
				<path class="st15" d="M-93.6,111.1c0,0,22.5,25.8,42.7,21.6c0,0-5.3-2.1-6.1-3.9c0,0,13.8,5.1,20.5,4.4c0,0,1.8-10.5-8.6-19.9
					S-78.9,97.3-93.6,111.1z"/>
				<path class="st15" d="M-89.3,115.5c0,0-6,13.7-18.5,16.7c0,0,0.8-20.6,14.2-21.1L-89.3,115.5z"/>
				<path class="st15" d="M-47.4,177.3c0,0-10-3.8-10.2-7.8c0,0,3.3-9.4,8.7-5.9C-48.9,163.6-43.4,170.7-47.4,177.3z"/>
				<path class="st15" d="M-47.4,183.1c0,0,9.7-7.1,6.9-12.3s-8.1-4-10.9,0.2C-54.1,175.2-47.4,183.1-47.4,183.1z"/>
				<path class="st15" d="M-46.5,188.3c0,0,2.4-11.5-6.5-14.2S-55.8,187.1-46.5,188.3z"/>
				<path class="st15" d="M-51.3,192c0,0,1.1-13.3,7.4-12.9s2.3,9.4,0.6,9.9C-45.2,189.5-51.3,192-51.3,192z"/>
				<path class="st15" d="M-46.2,192.2c0,0-1.6-6.6-6.6-9C-57.8,180.9-59,196.7-46.2,192.2z"/>
				<path class="st15" d="M-46.3,194.5c0,0,5.1-1.5,5,3.7c-0.1,5.3-5.6,8.7-5.6,8.7s-7.8-1.5-7.8-8
					C-54.6,193.7-50.3,193.8-46.3,194.5z"/>
				<path class="st20" d="M-53,191.9l0.1,3.1c0,0,9.6,2,10.8,0.3l-1.3-6.3L-53,191.9z"/>
				<g>
					
						<ellipse transform="matrix(0.999 4.411418e-02 -4.411418e-02 0.999 6.0205 3.7888)" class="st15" cx="-82.8" cy="138.3" rx="1.9" ry="3"/>
					
						<ellipse transform="matrix(0.999 4.411418e-02 -4.411418e-02 0.999 6.084 2.8311)" class="st15" cx="-61.1" cy="139.3" rx="1.9" ry="3"/>
				</g>
				<g>
					<g>
						<path class="st18" d="M-76.9,145.4c-0.5,1.5-0.5,3.2,0.6,4.5c0.9,1.1,2.4,1.7,3.8,1.6c3-0.1,5.2-3,4.3-5.9
							c-0.5-1.4-2.6-0.8-2.2,0.6c0.5,1.5-0.5,3-2.1,3c-0.6,0-1.3-0.2-1.8-0.6c-0.9-0.7-0.8-1.7-0.4-2.8
							C-74.3,144.6-76.5,144-76.9,145.4L-76.9,145.4z"/>
					</g>
				</g>
				<g>
					<g>
						<path class="st21" d="M-78.8,158.4c0.3,1.7,3.7,2.3,5,2.4c2,0.2,4.6-0.1,6.1-1.6c1-1.1-0.6-2.7-1.6-1.6c-0.8,0.8-2.2,1-3.2,1
							c-1,0-2.1-0.1-3-0.5c-0.4-0.1-0.6-0.3-1-0.5c-0.3-0.2-0.2-0.4-0.1,0.1C-76.8,156.4-79,157-78.8,158.4L-78.8,158.4z"/>
					</g>
				</g>
				<path class="st22" d="M-73.4,156.4c0,0-4.3,0-8.7-1.6c0,0,8,10.8,18.3,0.3C-63.9,155.1-68.7,156.7-73.4,156.4z"/>
				
					<ellipse transform="matrix(0.999 4.411418e-02 -4.411418e-02 0.999 6.4142 4.1211)" class="st23" cx="-90.2" cy="147.4" rx="5" ry="2.3"/>
				
					<ellipse transform="matrix(0.999 4.411418e-02 -4.411418e-02 0.999 6.522 2.4938)" class="st23" cx="-53.2" cy="149" rx="5" ry="2.3"/>
				<g>
					<path class="st15" d="M-90.9,132.1c0,0-0.1,0-0.2-0.1c-0.1-0.1-0.2-0.3-0.3-0.5c-0.2-0.5-0.3-1.4,0-2.3
						c0.1-0.5,0.4-0.9,0.7-1.3c0.3-0.4,0.7-0.8,1.1-1.2c0.4-0.3,0.9-0.6,1.4-0.9l0.4-0.2l0.4-0.2l0.7-0.3l0.9-0.2
						c0.3,0,0.6-0.1,0.9-0.1c0.6,0,1.2,0.1,1.8,0.3c0.6,0.2,1.1,0.5,1.5,0.8c0.4,0.3,0.7,0.7,1,1c0.5,0.7,0.8,1.3,0.9,1.8
						c0.1,0.4,0.2,0.7,0.2,0.7s-0.2-0.2-0.5-0.5c-0.3-0.3-0.8-0.7-1.4-1.1c-0.3-0.2-0.6-0.3-1-0.4c-0.4-0.1-0.7-0.2-1.1-0.2
						c-0.4,0-0.7,0-1.1,0.1l-0.6,0.2c-0.2,0.1-0.3,0.1-0.5,0.2l-0.7,0.3l-0.1,0l0,0l0,0c0,0,0.1-0.1,0.1,0l0,0l0,0l-0.1,0.1
						l-0.3,0.2c-0.4,0.2-0.7,0.5-1.1,0.7c-0.3,0.2-0.6,0.4-0.9,0.6c-0.3,0.2-0.5,0.4-0.8,0.6c-0.5,0.4-0.8,0.8-1.1,1.2
						c-0.1,0.2-0.2,0.3-0.2,0.5C-90.9,132-90.9,132.1-90.9,132.1z"/>
				</g>
				<path class="st24" d="M-67.8,116.5c0,0,8.7,8.5,18.1,9.2c0,0-5-7.8-4.7-10.2c0,0,3.5-2.5,11.1,2.6c0,0-3.9-6.7-16.4-11.1
					c0,0-1.8,6.3,1,9.6C-58.6,116.5-60.1,119.1-67.8,116.5z"/>
			</g>
		</g>
	</g>
</g>
</svg>
