<svg xmlns="http://www.w3.org/2000/svg" viewBox="0 0 203 199"><defs><style>.cls-1{isolation:isolate;}.cls-2{fill:#3f2e20;opacity:0.3;mix-blend-mode:multiply;}.cls-3{fill:#cac9c7;}.cls-4{fill:#aaa;}.cls-5{fill:#919191;}.cls-6{opacity:0.1;}.cls-7{fill:#cfd0ca;}.cls-8{fill:#756459;}.cls-9{fill:#c1bdbe;}.cls-10{fill:#633b00;}.cls-11{fill:#260e0b;}.cls-12{fill:#724203;}</style></defs><title>pantallas_04-carpetas</title><g class="cls-1"><g id="lapices"><path class="cls-2" d="M195.2,99.06c10.58,41.65-9.35,83.78-51,94.36S37.69,163.62,27.11,122A77.81,77.81,0,0,1,83.37,27.4C125,16.82,184.62,57.41,195.2,99.06Z"/><circle class="cls-3" cx="87.03" cy="90.87" r="77.81" transform="translate(-19.69 24.22) rotate(-14.25)"/><path class="cls-4" d="M133.87,118.82s23.36,13.62,26.85,12.73a7.85,7.85,0,0,0,5.52-4.18l-28.8-17Z"/><path class="cls-5" d="M136.26,118.6s21.61,12.16,23.56,9.65L137.7,115.37Z"/><path class="cls-6" d="M85.6,36.09l72.32,24.43s14.93,30.65-4,66.08C138.3,155.76,117,161,117,161L42.52,123.54Z"/><circle class="cls-7" cx="90.09" cy="91.13" r="55.53" transform="translate(-19.66 24.99) rotate(-14.25)"/><circle class="cls-8" cx="86.02" cy="89" r="55.53" transform="translate(-19.27 23.92) rotate(-14.25)"/><circle class="cls-9" cx="86.69" cy="89.54" r="55.53" transform="translate(-19.38 24.1) rotate(-14.25)"/><circle class="cls-10" cx="85.2" cy="89.21" r="46.5" transform="translate(-19.34 23.72) rotate(-14.25)"/><circle class="cls-11" cx="86.69" cy="89.54" r="46.5" transform="translate(-19.38 24.1) rotate(-14.25)"/><path class="cls-7" d="M136.5,116.11,142,101.8l20.63,11.86s7,2.93,7.51,8c0,0-3.07,9.33-6.31,9.08s-4.69-1.63-14.3-7C139.71,118.32,136.5,116.11,136.5,116.11Z"/><path class="cls-12" d="M62.72,129.38A20.73,20.73,0,0,0,60,126.91c-1-.68-.21-2.27-1.55-3s-2.77-.32-3.48-1.37-.69-2.73-1.28-3-.47-2.14-1.4-2.34-2,.14-2.73-1.56-.28-2.26-1.4-3.21-2.5-1.26-3.39-4.45.45-3.39.09-4,1-2.14.33-3S43,98.5,42.91,96.26a5.73,5.73,0,0,0-1-3.52c-.43-.84-.48-2.36-1.06-3.88s.58-1.75.4-2.72a9.06,9.06,0,0,1,.27-4.65c.68-1.92,1.9-2,1.39-4s.62-3.28.92-4.38,1-2.35.86-3.45a1.3,1.3,0,0,1,.7-1.42s-1.35-.33-1.78,2.31-.73,1.85-1.44,2.4.37,2.08.25,2.43S41,76.58,40.79,77.3s.31,1.52,0,2.39.06,1.37-.52,2.24a5.85,5.85,0,0,0-.86,3.78,5.17,5.17,0,0,1,.38,2.67c-.22.56-.87,2.69-.61,3.07a4.4,4.4,0,0,1,.23,2.27,6.59,6.59,0,0,0,.71,2.8c.22.31,1.4,1,.88,2.11a5.42,5.42,0,0,0,0,3.92c.47.69.25,1.93.48,2.57s1.77,2.1,2,3.14a15.92,15.92,0,0,0,1.23,3.83c.52.89,1.67.67,2,1.67s.87,2.44,1.67,2.85a5,5,0,0,1,2.35,2.4c.54,1.23,2.17,1.4,2.38,2.15a3.62,3.62,0,0,0,1.84,2.34,3.73,3.73,0,0,1,1.56,1c.27.22.76,1.8,2.14,2.09S60.28,128.78,62.72,129.38Z"/></g></g></svg>