<svg xmlns="http://www.w3.org/2000/svg" viewBox="0 0 305 402"><defs><style>.cls-1,.cls-11,.cls-13{opacity:0.2;}.cls-2{fill:#c4ab18;}.cls-3{fill:#ccc;}.cls-4{fill:#d1cfcb;}.cls-5{fill:#d3bd18;}.cls-6,.cls-7{fill:#4d4d4d;}.cls-7{font-size:22.46px;font-family:MyriadPro-Regular, Myriad Pro;}.cls-8{letter-spacing:0em;}.cls-9{letter-spacing:-0.08em;}.cls-10{letter-spacing:-0.06em;}.cls-11{fill:#333;}.cls-12{fill:#005187;}.cls-13,.cls-14{fill:none;stroke-miterlimit:10;stroke-width:1.74px;}.cls-13{stroke:#000;}.cls-14{stroke:#7c181f;}</style></defs><title>pantallas_04-carpetas</title><g id="lapices"><path class="cls-1" d="M292.83,351.35l5.53-.86-10-68.69L277.6,112.21l13.11-8.28-4.4-77.54-14.72-9.45-21.37,1.42L249,10.22l-72.14,13L11,34.24,30.91,388.14H31l0,1.19s11.49-.19,30.65-.74l.19,2.06,36-3.27c50.84-1.93,123.09-5.6,189.34-12.35l-.62-6.34c2.53,0,5-.07,7.27-.08Z"/><path class="cls-2" d="M26.08,386.32S163.78,384.1,282.28,372L252.8,70,16.17,83.32Z"/><polygon class="cls-3" points="56.91 387.64 26.91 53.81 247.12 25.13 279.77 367.4 56.91 387.64"/><polygon class="cls-4" points="69.66 382.22 25.47 46.62 244.03 7.22 293.36 347.49 69.66 382.22"/><path class="cls-5" d="M6,31.24l260.55-17.3,14.72,9.45,4.4,77.54-13.11,8.28,16.33,256.41c-72.57.2-263,19.53-263,19.53Z"/><path class="cls-6" d="M58.15,268.68c7.91-.67,15.83-1.21,23.75-1.82l23.76-1.61c15.84-1.05,31.7-1.93,47.54-2.9,15.86-.81,31.71-1.71,47.57-2.44l23.79-1.06c7.94-.28,15.87-.63,23.81-.85-7.91.67-15.83,1.21-23.75,1.82l-23.76,1.61c-15.84,1-31.7,1.93-47.54,2.9-15.86.81-31.71,1.71-47.57,2.44L82,267.83C74,268.11,66.09,268.46,58.15,268.68Z"/><path class="cls-6" d="M52.55,168.93c7.91-.67,15.83-1.21,23.75-1.82l23.76-1.61c15.84-1.05,31.7-1.93,47.54-2.9,15.86-.81,31.71-1.71,47.57-2.44L219,159.1c7.94-.28,15.87-.63,23.81-.85-7.91.67-15.83,1.21-23.75,1.82l-23.76,1.61c-15.84,1-31.7,1.93-47.54,2.9-15.86.81-31.71,1.71-47.57,2.44l-23.79,1.06C68.42,168.36,60.49,168.71,52.55,168.93Z"/><text class="cls-7" transform="translate(104.82 207.77) rotate(-3.21)">POLÍTI<tspan class="cls-8" x="59.92" y="0">C</tspan><tspan x="73.04" y="0">AS</tspan><tspan x="-10.21" y="26.95">EDU</tspan><tspan class="cls-8" x="30.33" y="26.95">C</tspan><tspan class="cls-9" x="43.45" y="26.95">A</tspan><tspan x="55.46" y="26.95">TI</tspan><tspan class="cls-10" x="71.99" y="26.95">V</tspan><tspan x="83.25" y="26.95">AS</tspan></text><path class="cls-4" d="M286.17,123.23C245,127.45,171,138.43,171,138.43L155.8,23.26S250.24,13.36,271,8.06C271,8.06,281.38,106.21,286.17,123.23Z"/><polygon class="cls-11" points="179.04 129.6 280.61 119.46 262.69 20.52 179.04 129.6"/><rect class="cls-12" x="170.48" y="22.75" width="100.99" height="100.99" transform="translate(-7.68 29.54) rotate(-7.52)"/><path class="cls-13" d="M218.3,15.58c-.53-2.09-.53-2-.63-2.13-.37-.39-7.78,1-8.16,1.51s3,14.21,6.73,19,7,3.06,3.31-10"/><path class="cls-14" d="M217.81,16a14.36,14.36,0,0,0-.61-2c-.37-.39-7.78,1-8.15,1.51s3,14.21,6.73,19,7,3.06,3.31-10"/></g></svg>