<svg xmlns="http://www.w3.org/2000/svg" xmlns:xlink="http://www.w3.org/1999/xlink" viewBox="0 0 228 176"><defs><style>.cls-1{fill:none;}.cls-2{isolation:isolate;}.cls-3{fill:#3f2e20;opacity:0.3;mix-blend-mode:multiply;}.cls-4{fill:#fbca7e;}.cls-5{fill:#fff;}.cls-6{fill:#e6e6e6;}.cls-7{fill:#333;}.cls-8{fill:#666;}.cls-9{fill:#5b5b5b;}.cls-10{fill:#515151;}.cls-11{fill:#243056;}.cls-12{fill:#252e4c;}.cls-13,.cls-16{opacity:0.5;}.cls-13{mix-blend-mode:lighten;}.cls-14{clip-path:url(#clip-path);}.cls-15{fill:#384775;}.cls-16{fill:#777;}.cls-17{fill:#20293f;}</style><clipPath id="clip-path"><path class="cls-1" d="M208.46,25.75a9,9,0,0,1,3.15,5.1,9.14,9.14,0,0,1-.38,6s-22.1,9.9-33.35,12.23-38,8.3-51.38,13c0,0-.64-8.83-5.34-14,0,0,23.73-6,33.54-9S195.11,25.45,208.46,25.75Z"/></clipPath></defs><title>pantallas_04-carpetas</title><g class="cls-2"><g id="lapices"><path class="cls-3" d="M145.52,168.7a5.37,5.37,0,0,0,1.16-5.81L20.92,100.37,8.61,96a1.84,1.84,0,0,0-.12-.17l-8-2.76,6.23,5.13h0L18.48,108l0,.1L141.94,171l.88-.56.1.05a8,8,0,0,0,2.6-1.78h0Z"/><polygon class="cls-4" points="2.8 90.82 20.52 105.73 23 101.79 23 98.11 2.8 90.82"/><path class="cls-5" d="M20.52,105.81l123.87,63.48s5.64-2.11,3.83-7.56L23,98.11a2.44,2.44,0,0,0-.5,1.56,6.19,6.19,0,0,0,.5,2.12Z"/><path class="cls-6" d="M20.52,105.81a3.91,3.91,0,0,1,.3-2.7A3.48,3.48,0,0,1,23,101.79l124,65.74-3.6,2.26Z"/><path class="cls-7" d="M10.8,95.39a1.72,1.72,0,0,0-.19-1.88l-8-2.83,6.19,5.19S10.23,96.35,10.8,95.39Z"/><path class="cls-3" d="M43.21,78.91h0a6,6,0,0,0,1.13,2.86c10.44.81,25.23-1.4,25.23-1.4C89,78.49,120.23,68.29,125.46,66.54c0,.05-.46-.2-.46-.2l.32-.63h0l5.74-2c13.43-4.61,40.43-10.22,51.71-12.46s33.55-11.9,33.55-11.9l2.86-1.6c.23-.66-.13-1.32,0-1.91l.67-.35h0l7.56-1.74c2.76-5.76-1.42-6.6-1.42-6.6l-5.53,2.61a6.24,6.24,0,0,0-6.22-6l-6,1.64-1.13-.6s-12-1.33-27.25,3.88A217,217,0,0,0,154,39.29l-.42.81-20.89,5.61q5.11.22,10.12.2c-8.58,2.2-16.5,4.13-16.5,4.13l-4.85,1c-2.16.22-8.38,1.72-15.91,3.68-17.79,4.53-39.82,11-39.82,11C57.78,68.06,42.33,76.5,42.33,76.5a15.61,15.61,0,0,0-.3,2.16h0l.47.08c0,.18.37.15.43.33ZM195.13,26.83c-.12,0-1.84.28-4.44.74A34,34,0,0,1,195.13,26.83Zm-32.44,9.53-.28.14v0Zm-.35.52c5.47-1.18,27.29-8.34,32.77-7.94l-33,8.87A8.8,8.8,0,0,0,162.33,36.88Z"/><path class="cls-8" d="M213.15,28.16l7.8-3.64s4.47.84,1.75,6.61l-9.88,2.61Z"/><path class="cls-9" d="M212.28,28.61l2.34-1.14s1.49,1.74,1.08,5.52l-2.28.6Z"/><path class="cls-8" d="M212.28,25.78s4,2.81,1.74,9.4l-2.79,1.66L206.6,25.77S209.21,25.75,212.28,25.78Z"/><path class="cls-8" d="M121.15,48.11s6.1,2.75,5.34,14l-6.05,2.69s1.31-7.43-4.13-15.64Z"/><path class="cls-10" d="M201.53,23.08l.34,3.14-12.15,3.89s2.29-3.13.72-3.54c-4.49-1.15-30.8,7.91-34.21,8.26a88.53,88.53,0,0,1,16.67-6.76,152.68,152.68,0,0,1,16.94-3.7Z"/><path class="cls-8" d="M203.37,23.12l-1.63-.84s-12-1.24-27.23,4.08a216.84,216.84,0,0,0-25.73,10.78l-.52,1s5.74.32,7.17-.46,1.76-3.45,1.76-3.45,24.29-9.16,32.66-9.88l8.36-.73L198,24.76S202,24.84,203.37,23.12Z"/><path class="cls-8" d="M60.69,64.18l4,14.81S49.89,81.43,39.44,80.7c0,0-2-3.34-1.56-5.44C37.88,75.26,52.8,66.66,60.69,64.18Z"/><path class="cls-11" d="M208.46,25.75a9,9,0,0,1,3.15,5.1,9.14,9.14,0,0,1-.38,6s-22.1,9.9-33.35,12.23-38,8.3-51.38,13c0,0-.64-8.83-5.34-14,0,0,23.73-6,33.54-9S195.11,25.45,208.46,25.75Z"/><path class="cls-12" d="M116.31,49.12s6.17,7.06,4.91,15.3c0,0-35.3,12.35-56.54,14.57,0,0-5-7.59-4-14.81C60.69,64.18,100.6,52.21,116.31,49.12Z"/><g class="cls-13"><g class="cls-14"><path class="cls-15" d="M215,31.53S174.3,45.38,127.5,43.74L209,21.2S217.09,21,215,31.53Z"/></g></g><path class="cls-16" d="M221.45,26.08a3,3,0,0,1,1,1.59l-7.81,2.58-.31-1.4Z"/><path class="cls-16" d="M213.68,27.43a12.61,12.61,0,0,0-3.19.66l.58.92,3-.62Z"/><polygon class="cls-16" points="123.56 51.62 124.59 53.92 120.04 55.47 118.99 53.19 123.56 51.62"/><path class="cls-16" d="M60.77,68.79a81.06,81.06,0,0,0-22.71,8.68l.19.62s18.22-5.24,23.21-6.25Z"/><path class="cls-17" d="M120,55.47,60.77,68.79a10.2,10.2,0,0,1-.07-4.61s48.69-14.31,55.62-15.06A17.45,17.45,0,0,1,120,55.47Z"/></g></g></svg>