<?xml version="1.0" encoding="utf-8"?>
<!-- Generator: Adobe Illustrator 19.1.0, SVG Export Plug-In . SVG Version: 6.00 Build 0)  -->
<svg version="1.1" id="Capa_1" xmlns="http://www.w3.org/2000/svg" xmlns:xlink="http://www.w3.org/1999/xlink" x="0px" y="0px"
	 viewBox="0 0 338.2 414.2" style="enable-background:new 0 0 338.2 414.2;" xml:space="preserve">
<style type="text/css">
	.st0{opacity:0.2;}
	.st1{fill:#C4AB18;}
	.st2{fill:#A8A59E;}
	.st3{fill:#D1CFCB;}
	.st4{fill:#D3BD18;}
	.st5{fill:#4D4D4D;}
	.st6{fill:none;}
	.st7{font-family:'ZillaSlab-Medium';}
	.st8{font-size:22px;}
	.st9{opacity:0.2;fill:#333333;}
	.st10{fill:#C98D9D;}
	.st11{clip-path:url(#SVGID_2_);}
	.st12{fill:#563222;}
	.st13{fill:#47291C;}
	.st14{fill:#B3B3B3;}
	.st15{fill:#F2CCC0;}
	.st16{fill:#EAAE99;}
	.st17{fill:#E0E0E0;}
	.st18{fill:#9E494C;}
	.st19{fill:#1A1A1A;}
	.st20{fill:#49708A;}
	.st21{fill:#3D5D73;}
	.st22{opacity:0.46;fill:#2D4454;}
	.st23{fill:#FFFFFF;}
	.st24{opacity:0.16;fill:#2D4454;}
	.st25{fill:#613826;}
	.st26{opacity:0.2;fill:none;stroke:#000000;stroke-width:1.7393;stroke-miterlimit:10;}
	.st27{fill:none;stroke:#7C181F;stroke-width:1.7393;stroke-miterlimit:10;}
</style>
<g>
	<path class="st0" d="M322.8,15.1l-291-8.6L16.2,401.4c0,0,0.1,0,0.1,0l-0.1,1.3c0,0,153,12.2,285.8,11.4l0-7.1
		c2.8,0.2,5.5,0.5,8.1,0.7l9.2-286.3l15.4-7.8l3.4-86.5L322.8,15.1z"/>
	<g>
		<path class="st1" d="M8.5,398.2c0,0,153,12.2,285.8,11.4l-0.5-338.2L29.8,61L8.5,398.2z"/>
		<polygon class="st2" points="35.2,398 52.1,24.7 299.6,26 284.4,409 		"/>
		<polygon class="st3" points="39.2,398.4 59.1,21.6 306.7,22.9 291.4,405.9 		"/>
		<path class="st4" d="M24.1,2.1l291,8.6l15.3,12.1l-3.4,86.5l-15.4,7.8l-9.2,286.3c-80.6-7.5-293.9-6.4-293.9-6.4L24.1,2.1z"/>
	</g>
	<g>
		<g>
			<path class="st5" d="M56.6,271.1c8.9,0.1,17.7,0.4,26.5,0.6l26.5,0.8c17.7,0.5,35.4,1.3,53.1,1.9c17.7,0.8,35.4,1.5,53,2.3
				l26.5,1.3c8.8,0.5,17.7,1,26.5,1.5c-8.9-0.1-17.7-0.4-26.5-0.6l-26.5-0.8c-17.7-0.5-35.4-1.3-53.1-1.9c-17.7-0.8-35.4-1.5-53-2.3
				l-26.5-1.3C74.3,272.1,65.4,271.7,56.6,271.1z"/>
		</g>
		<g>
			<path class="st5" d="M61,159.8c8.9,0.1,17.7,0.4,26.5,0.6l26.5,0.8c17.7,0.5,35.4,1.3,53.1,1.9c17.7,0.8,35.4,1.5,53,2.3
				l26.5,1.3c8.8,0.5,17.7,1,26.5,1.5c-8.9-0.1-17.7-0.4-26.5-0.6l-26.5-0.8c-17.7-0.5-35.4-1.3-53.1-1.9c-17.7-0.8-35.4-1.5-53-2.3
				l-26.5-1.3C78.7,160.9,69.8,160.4,61,159.8z"/>
		</g>
		
			<rect x="56.3" y="193.8" transform="matrix(0.9992 3.966175e-02 -3.966175e-02 0.9992 9.5654 -6.4289)" class="st6" width="221" height="88.1"/>
		<text transform="matrix(0.9992 3.966000e-02 -3.966000e-02 0.9992 59.1901 204.675)"><tspan x="0" y="0" class="st5 st7 st8">PREVENCIÓN SOCIAL </tspan><tspan x="27.2" y="29" class="st5 st7 st8">DE ADICCIONES</tspan></text>
	</g>
	<g>
		<path class="st3" d="M315.1,143.2c-45.7-6.5-128.7-14.5-128.7-14.5C194.3,58.6,201,0,201,0s104.8,14.7,128.7,14.5
			C329.6,14.5,314.5,123.5,315.1,143.2z"/>
		<polygon class="st9" points="197.5,121.3 310.1,137.6 317.3,25.8 		"/>
		
			<rect x="201.7" y="15.3" transform="matrix(0.9937 0.1121 -0.1121 0.9937 9.652 -28.4725)" class="st10" width="112.6" height="112.6"/>
		<g>
			<defs>
				
					<rect id="SVGID_1_" x="201.7" y="15.3" transform="matrix(0.9937 0.1121 -0.1121 0.9937 9.652 -28.4725)" width="112.6" height="112.6"/>
			</defs>
			<clipPath id="SVGID_2_">
				<use xlink:href="#SVGID_1_"  style="overflow:visible;"/>
			</clipPath>
			<g class="st11">
				<path class="st12" d="M262.9,23c-7.6-0.8-21.3,2.3-23.6,18s-5,60.7-5,60.7l21.4,9.2l21.6,1l6.4-61.9c0,0,0.2-1.8,0-4.5
					C283.2,38.4,280,24.8,262.9,23z"/>
				<polygon class="st13" points="239,75.4 243.1,109 265.2,111.9 275.6,79.2 				"/>
				<polygon class="st14" points="242.8,94.3 269.9,97.1 267,106.4 241.8,103.8 				"/>
				<path class="st15" d="M293.5,115.5c-2.1-4.1-28-13.1-28-13.1l2-19.6l-10-1l-0.3,0l-10-1l-2,19.6c0,0-22.1,3.5-25,7
					s-1.7,16.4-1.7,16.4l34.2,2.3l38.9,6C291.8,131.9,295.7,119.6,293.5,115.5z"/>
				<path class="st16" d="M245.3,100.3l1.1-10.7l20.2,2.1C266.6,91.7,261.1,101.9,245.3,100.3z"/>
				<path class="st15" d="M279.2,63c-2.1,14.5-4.7,23.4-9.3,28.4c-4.7,4.9-10.8,5.9-14,5.6c-3.1-0.3-9.2-3.3-14.1-10.7
					c-4-6-3.3-14.9-2.4-27.4c1.6-21.5,9.9-34.1,23.8-32.6C277.2,27.7,282,43.8,279.2,63z"/>
				<g>
					<polygon class="st17" points="249.3,79.4 251.1,82 256.6,84.2 263.6,83.3 265.7,81.1 					"/>
					<path class="st18" d="M249.3,79.4l7.8,1.5l8.6,0.2l-6.3-2.5c0,0-1.1,0.9-2.2,0.8c-1-0.1-1.9-1.2-1.9-1.2L249.3,79.4z"/>
					<path class="st18" d="M249.3,79.4c0,0,1.7,4,2.7,4.6c0.5,0.3,2.5,1.1,5,1.3s5.4-0.3,5.9-0.5c1.1-0.4,2.8-3.7,2.8-3.7
						C260.4,84.1,255,85.3,249.3,79.4z"/>
				</g>
				<g>
					<g>
						<path class="st16" d="M254.3,72.8c2,2.4,5.1,2.9,7.5,0.7c0.4-0.3-0.2-0.9-0.5-0.5c-2.1,1.9-4.7,1.3-6.4-0.7
							C254.6,71.9,254,72.4,254.3,72.8L254.3,72.8z"/>
					</g>
				</g>
				<g>
					
						<ellipse transform="matrix(0.9946 0.1033 -0.1033 0.9946 7.5377 -25.5543)" class="st19" cx="250.5" cy="60" rx="1.6" ry="2.5"/>
					
						<ellipse transform="matrix(0.9946 0.1033 -0.1033 0.9946 7.8321 -27.4355)" class="st19" cx="268.8" cy="61.9" rx="1.6" ry="2.5"/>
				</g>
				<polygon class="st14" points="250.6,110.8 250.4,119.3 243.8,115.5 248.8,110.2 				"/>
				<polygon class="st14" points="261.9,112.9 261.2,119.2 266.6,116.5 262.6,112.3 				"/>
				<path class="st13" d="M244.2,53c0,0,7.1-3.7,13.2,1.4C257.4,54.3,251,51.8,244.2,53z"/>
				<path class="st20" d="M245.2,114.3l9.6,6.1l11.3-3.9l2.5-14.7l20.3,10.1c0,0,7.4,2.7,6,9.6c-1.6,8.2-3,10.5-3,10.5l-37.4,6.5
					l-37.1-14.8c0,0-2.4-13.7,1.1-16.5s21.2-7.4,21.2-7.4L245.2,114.3z"/>
				<polygon class="st21" points="243,116.6 253.8,122.9 255.1,123 268.9,118.7 266.7,115.9 255.5,119.2 254.2,119.1 245.2,114.3 
									"/>
				<path class="st13" d="M262.9,54.9c0,0,7.1-3.7,13.2,1.4C276.1,56.3,269.7,53.7,262.9,54.9z"/>
				<polygon class="st22" points="241.9,115.3 243.2,120.5 250.7,110.4 				"/>
				<path class="st12" d="M239.3,47.1l1.4,0.1L268,50l1.6-9l1.1,8.7l1.1-3.8l0.8,4.7l9.8,1c0,0,2.4-23.4-19-25.6
					S239.3,47.1,239.3,47.1z"/>
				<polygon class="st23" points="242.8,94.3 250.7,110.4 240.1,120.2 237.9,98.2 				"/>
				<polygon class="st22" points="261.9,112.9 267.2,123 269.6,118.1 				"/>
				<polygon class="st23" points="269.9,97.1 273.7,102.3 271,123.4 261.9,112.9 				"/>
				<polygon class="st22" points="234.8,115.8 233.8,106.8 234.4,101.1 237,107.1 238.2,113.6 				"/>
				<polygon class="st22" points="273.6,104.5 273.1,109.6 276.7,117.6 278.2,107.2 278.7,120.6 280.3,119.9 281.3,104 				"/>
				<polygon class="st12" points="239.4,41 228.6,113.9 232.6,118.8 234.8,103 234.9,114.5 238.2,113.6 238.9,107.3 237.7,81.6 				
					"/>
				<polygon class="st12" points="282.2,120.1 284.1,46.9 280.8,60 273.3,101.3 273.1,108.9 276.9,115.7 279.1,107 278.6,124.2 				
					"/>
				<polygon class="st24" points="265.7,105.4 274.4,102.7 269.9,97.1 				"/>
				
					<rect x="252.8" y="120.4" transform="matrix(0.1033 -0.9946 0.9946 0.1033 107.9509 361.8435)" class="st20" width="3.8" height="1.3"/>
				<polygon class="st20" points="247.1,119 248.6,116.1 247.7,115.6 246,118.4 				"/>
				<polygon class="st20" points="260.4,117.8 261.4,121.1 262.6,120.7 261.7,117.4 				"/>
				<path class="st25" d="M257.9,26.4c0,0-7.5,3.7-8.6,21.7l-3.2-0.3C246.1,47.8,248.8,26.2,257.9,26.4z"/>
				<polygon class="st24" points="247,102.9 238.4,97.8 242.8,94.3 				"/>
			</g>
		</g>
		<g>
			<path class="st26" d="M270.6,8.5c0-2.4,0-2.3-0.1-2.5c-0.3-0.5-8.7-1-9.2-0.6c-0.6,0.5-0.6,16.2,2.2,22.3
				c2.8,6.2,6.8,5.2,6.3-9.9"/>
			<path class="st27" d="M270,8.8c0-1.4-0.1-2.3-0.1-2.4c-0.3-0.5-8.7-1-9.2-0.6c-0.6,0.5-0.6,16.2,2.2,22.3
				c2.8,6.2,6.8,5.2,6.3-9.9"/>
		</g>
	</g>
</g>
</svg>
