<?xml version="1.0" encoding="utf-8"?>
<!-- Generator: Adobe Illustrator 19.1.0, SVG Export Plug-In . SVG Version: 6.00 Build 0)  -->
<svg version="1.1" id="Capa_1" xmlns="http://www.w3.org/2000/svg" xmlns:xlink="http://www.w3.org/1999/xlink" x="0px" y="0px"
	 viewBox="-310 73.8 338.2 414.2" style="enable-background:new -310 73.8 338.2 414.2;" xml:space="preserve">
<style type="text/css">
	.st0{opacity:0.2;}
	.st1{fill:#C4AB18;}
	.st2{fill:#B3B3B3;}
	.st3{fill:#D1CFCB;}
	.st4{fill:#D3BD18;}
	.st5{fill:#4D4D4D;}
	.st6{fill:none;}
	.st7{font-family:'ZillaSlab-Medium';}
	.st8{font-size:22px;}
	.st9{opacity:0.2;fill:#333333;}
	.st10{fill:#447360;}
	.st11{clip-path:url(#SVGID_2_);}
	.st12{fill:#101C47;}
	.st13{fill:#999999;}
	.st14{fill:#162661;}
	.st15{fill:#FFFFFF;}
	.st16{fill:#F2CCC0;}
	.st17{opacity:0.6;fill:#101C47;}
	.st18{fill:#93321E;}
	.st19{fill:#692415;}
	.st20{fill:#1A1A1A;}
	.st21{fill:#EAAE99;}
	.st22{opacity:0.2;fill:none;stroke:#000000;stroke-width:1.7393;stroke-miterlimit:10;}
	.st23{fill:none;stroke:#7C181F;stroke-width:1.7393;stroke-miterlimit:10;}
</style>
<g>
	<path class="st0" d="M15.6,470.3L1.8,184.2l14.8-9L13,88.7L-3.2,77.9l-290.7,14.7l16,394.8c0,0,0.1,0,0.1,0l0,1.3
		c0,0,121.2-0.1,241-8.1l30.8-0.4l0-1.8c4.7-0.4,9.4-0.8,14.1-1.2l-0.6-7.1C10.3,470.2,13,470.2,15.6,470.3z"/>
	<g>
		<path class="st1" d="M-282.2,485.4c0,0,153.5-0.1,285.8-11.5L-24,136.8l-264,10.7L-282.2,485.4z"/>
		<polygon class="st2" points="-259.9,480.4 -264.7,106.8 -17.5,93.7 -10.4,476.9 		"/>
		<polygon class="st3" points="-251.6,483.1 -261.9,105.9 -15,87.4 0.5,470.4 		"/>
		<path class="st4" d="M-298.4,89.3L-7.7,74.5L8.6,85.3l3.6,86.5l-14.8,9l13.7,286.1c-80.9-1-293.5,17.2-293.5,17.2L-298.4,89.3z"/>
	</g>
	<g>
		<g>
			<path class="st5" d="M-244.4,354.8c0,0,3.3-0.2,9.1-0.6c5.8-0.3,14.1-0.8,24-1.3c9.9-0.5,21.5-1.1,34-1.7
				c12.4-0.5,25.7-1.1,39-1.7c13.3-0.5,26.5-1,39-1.4c12.4-0.5,24-0.8,34-1.1c10-0.3,18.2-0.5,24.1-0.6c5.8-0.1,9.1-0.2,9.1-0.2
				s-3.3,0.2-9.1,0.6c-5.8,0.3-14.1,0.8-24,1.3c-9.9,0.5-21.5,1.1-34,1.7c-12.4,0.5-25.7,1.1-39,1.7c-13.3,0.5-26.5,1-39,1.4
				c-12.4,0.5-24,0.8-34,1.1c-10,0.3-18.2,0.5-24.1,0.6C-241.1,354.8-244.4,354.8-244.4,354.8z"/>
		</g>
		<g>
			<path class="st5" d="M-248.9,243.6c0,0,3.3-0.2,9.1-0.6c5.8-0.3,14.1-0.8,24-1.3c9.9-0.5,21.5-1.1,34-1.7
				c12.4-0.5,25.7-1.1,39-1.7c13.3-0.5,26.5-1,39-1.4c12.4-0.5,24-0.8,34-1.1c10-0.3,18.2-0.5,24.1-0.6c5.8-0.1,9.1-0.2,9.1-0.2
				s-3.3,0.2-9.1,0.6c-5.8,0.3-14.1,0.8-24,1.3c-9.9,0.5-21.5,1.1-34,1.7c-12.4,0.5-25.7,1.1-39,1.7c-13.3,0.5-26.5,1-39,1.4
				c-12.4,0.5-24,0.8-34,1.1c-10,0.3-18.2,0.5-24.1,0.6C-245.6,243.5-248.9,243.6-248.9,243.6z"/>
		</g>
		<g>
			
				<rect x="-221.8" y="281.8" transform="matrix(0.9992 -4.043785e-02 4.043785e-02 0.9992 -13.2853 -5.2247)" class="st6" width="172" height="88.1"/>
			<text transform="matrix(0.9992 -4.044000e-02 4.044000e-02 0.9992 -198.0365 299.3564)" class="st5 st7 st8">SEGURIDAD</text>
		</g>
	</g>
	<g>
		<path class="st3" d="M3,206.7c-46-2.8-129.4-4.2-129.4-4.2c2.3-70.5,4.2-129.4,4.2-129.4s105.7,6.2,129.4,4.2
			C7.2,77.2,0.9,187.1,3,206.7z"/>
		<polygon class="st9" points="-116,194.2 -2.4,201.5 -4.2,89.4 		"/>
		
			<rect x="-115.9" y="83.6" transform="matrix(0.9995 3.219905e-02 -3.219905e-02 0.9995 4.4721 1.9916)" class="st10" width="112.6" height="112.6"/>
		<g>
			<defs>
				
					<rect id="SVGID_1_" x="-115.9" y="83.6" transform="matrix(0.9995 3.219905e-02 -3.219905e-02 0.9995 4.4721 1.9916)" width="112.6" height="112.6"/>
			</defs>
			<clipPath id="SVGID_2_">
				<use xlink:href="#SVGID_1_"  style="overflow:visible;"/>
			</clipPath>
			<g class="st11">
				<polygon class="st12" points="-86.8,159.1 -30.2,159.5 -28.1,165.8 -87.9,166.8 				"/>
				<path class="st13" d="M-75.6,105.2c0,0-6.2-0.1-8.7,2.8c-2.5,3-2.9,12.3-2.9,12.3l3.6,5.6l55.6,5.8c0,0,3.5-8.4,1.5-14.7
					c-2-6.3-9.7-8.5-9.7-8.5L-75.6,105.2z"/>
				<path class="st14" d="M-123.1,196.5c0,0-0.3-26.4,47.6-37.3l34.8,1.7c0,0,37.1,3.3,45.3,41l-33.8,0.3l-61.1-3L-123.1,196.5z"/>
				<polygon class="st15" points="-83.2,161.2 -91,166.6 -84.7,180.1 -84.9,199.5 -34.6,201.9 -30.3,177.3 -28.1,165 -34.5,160.8 
									"/>
				<path class="st16" d="M-83.6,125.9c0,0-0.5-6.2-3.6-5.6c-3.1,0.6-4.3,8.3-3.7,11.5c0.6,3.1,3.4,10.2,3.4,10.2L-83.6,125.9z"/>
				<path class="st17" d="M-33.9,163.4c0,0-4.1,12.4-2,34l8.4-30.1l-2.1-5.9l-4.6-0.6L-33.9,163.4z"/>
				<path class="st16" d="M-28.2,135.5c3,21.2-15.2,38.1-31.7,37.3s-34.3-19.7-27.9-40.1c7.4-23.7,15.2-38.1,31.7-37.3
					C-39.7,96.2-31.7,111.3-28.2,135.5z"/>
				<path class="st16" d="M-29.4,128.5c0,0,0.1-3.1,2.5-3.8c2.4-0.7,4.5,3.3,2.6,11c-1.9,7.7-5.2,10.6-5.9,9
					C-30.9,143.2-29.4,128.5-29.4,128.5z"/>
				<path class="st17" d="M-83,161.6c0,0,2.8,21.9-0.3,38l-5.9-34.2l5.1-6.1L-83,161.6z"/>
				<path class="st15" d="M-69.7,153l0.5-4.4l18.5,0.9l-0.9,4.8c0,0-5.1,3.1-8.4,2.8S-69.7,153-69.7,153z"/>
				<polygon class="st18" points="-58,189.2 -55,176.1 -65.9,175.6 -63,188.9 				"/>
				<polygon class="st19" points="-65.3,180.3 -57.4,186.7 -55.5,178.2 -65.2,178.6 				"/>
				<path class="st2" d="M-86.9,129.8c0,0-2.7,16.3,4,21.3c6.7,5,6.7,5,6.7,5s11.3,6,13,4.5s1.6-3.6,1.6-3.6l3.9,0.2
					c0,0-0.1,3.6,2.2,3.8c2.3,0.1,16-1.9,20.1-6.4s6.3-10.7,6.5-22.8c0,0,3,9.7-0.7,21.9S-40.4,171-40.4,171l-0.6-3.1l-1,5.4
					c0,0-8.1,7.4-12.8,7.9s-17.8-1.6-20.6-6.4l0.2-4.6l-1.7,2.2c0,0-8.8-11.3-10.7-19.1C-89.6,145.4-90.8,138-86.9,129.8z"/>
				<g>
					
						<ellipse transform="matrix(0.9988 4.828019e-02 -4.828019e-02 0.9988 6.0271 3.5312)" class="st20" cx="-70.1" cy="126.5" rx="1.9" ry="3.1"/>
					
						<ellipse transform="matrix(0.9988 4.828019e-02 -4.828019e-02 0.9988 6.1057 2.4488)" class="st20" cx="-47.6" cy="127.6" rx="1.9" ry="3.1"/>
				</g>
				<g>
					<g>
						<path class="st21" d="M-71.1,153.8c6.4,4.6,15.2,6.5,21.5,0.8c1-0.9-0.5-2.4-1.5-1.5c-5.6,5.1-13.4,2.8-19-1.1
							C-71.1,151.2-72.2,153.1-71.1,153.8L-71.1,153.8z"/>
					</g>
				</g>
				<g>
					<g>
						<path class="st21" d="M-70.6,149.2c6.5,2.6,14.2,3.5,20.8,1c1.3-0.5,0.7-2.5-0.6-2.1c-6.3,2.4-13.5,1.5-19.7-1
							C-71.3,146.7-71.8,148.7-70.6,149.2L-70.6,149.2z"/>
					</g>
				</g>
				<path class="st13" d="M-45.9,147.8c-1.1-7.1-10.5-7.3-12.9-7.5l0,0c0,0-0.1,0-0.3,0c-0.2,0-0.3,0-0.3,0l0,0
					c-2.4,0-12.3-1.2-14.7,7.4c-2.8,9.9-2.5,20.5-2.5,20.5s6.3-22.5,17-17.7c10.3-3.9,14.9,19.2,14.9,19.2S-44.3,158.1-45.9,147.8z"
					/>
				<g>
					<path class="st16" d="M-64.8,134.2c-0.3,0.7-0.6,1.3-0.9,2c-0.2,0.5-0.5,1.1-0.4,1.7c0.1,0.6,0.5,1.1,1,1.6
						c1.2,1,2.7,1.6,4.2,2.2c0.8,0.3,1.7,0.6,2.5,0.4c0.4-0.1,0.8-0.3,1.2-0.5c0.8-0.5,1.6-0.9,2.5-1.4c0.4-0.2,0.8-0.4,1.1-0.8
						c0.6-0.7,0.7-1.6,0.5-2.5c-0.2-0.9-0.7-1.6-1.2-2.3"/>
				</g>
				<g>
					<g>
						<path class="st21" d="M-65.5,133.8c-0.8,1.9-2.1,3.9-0.6,5.7c1.4,1.6,4.7,3.1,6.7,3.3c1.9,0.1,5-1.5,6.2-2.9
							c1.6-1.8,0.5-4.1-0.6-5.8c-0.5-0.9-1.9-0.1-1.4,0.8c1.4,2.1,1.3,3.4-0.9,5c-1.2,0.9-2.8,1.4-4.3,1.1c-1-0.2-2.3-0.7-3.1-1.3
							c-1.7-1.4-1.5-3.3-0.7-5C-63.7,133.6-65.1,132.8-65.5,133.8L-65.5,133.8z"/>
					</g>
				</g>
				<path class="st13" d="M-80.6,124.6l16.6-0.4l0.9-5.3C-63.1,118.9-74.7,117.8-80.6,124.6z"/>
				<path class="st13" d="M-53.1,119.3l-0.3,5.4l16.1,3.2C-37.3,127.9-43.9,120.6-53.1,119.3z"/>
				<polygon class="st13" points="-61,158.5 -65.3,180.3 -61,181.1 				"/>
				<polygon class="st13" points="-58.7,159.7 -58.8,181.2 -55.3,181.5 				"/>
				<path class="st12" d="M-86.8,159.1l-15.2,8.6l5.4,17.3l6.2,0.3l-4.1,5.2l-1.7,8.2l12.7,1.2C-83.5,200-79.4,174.4-86.8,159.1z"/>
				<path class="st12" d="M-30.2,159.5c0,0-6.1,14.4-5.9,42.4l10.8,0.5c0,0,0.3-5.4,0.6-12.4l-2.1-5.5l3.8,1.7l6.3-17.5L-30.2,159.5
					z"/>
				<polygon class="st18" points="-62.6,189 -67.1,200.4 -55.4,200.9 -58.8,189.1 				"/>
				<polygon class="st19" points="-58.8,189.1 -62.6,189 -56.1,198.6 				"/>
			</g>
		</g>
		<g>
			<path class="st22" d="M-52.1,75.9c-0.2-2.4-0.2-2.3-0.3-2.5c-0.3-0.5-8.7-0.3-9.2,0.2c-0.5,0.5,0.7,16.2,4,22.1
				c3.3,5.9,7.2,4.6,5.5-10.4"/>
			<path class="st23" d="M-52.7,76.3c-0.1-1.4-0.2-2.3-0.3-2.3c-0.3-0.5-8.7-0.3-9.2,0.2c-0.5,0.5,0.7,16.2,4,22.1
				c3.3,5.9,7.2,4.6,5.5-10.4"/>
		</g>
	</g>
</g>
</svg>
