<?xml version="1.0" encoding="utf-8"?>
<!-- Generator: Adobe Illustrator 19.1.0, SVG Export Plug-In . SVG Version: 6.00 Build 0)  -->
<svg version="1.1" id="Capa_1" xmlns="http://www.w3.org/2000/svg" xmlns:xlink="http://www.w3.org/1999/xlink" x="0px" y="0px"
	 viewBox="0 0 338.2 414.2" style="enable-background:new 0 0 338.2 414.2;" xml:space="preserve">
<style type="text/css">
	.st0{opacity:0.2;}
	.st1{fill:#C4AB18;}
	.st2{fill:#CCCCCC;}
	.st3{fill:#D1CFCB;}
	.st4{fill:#D3BD18;}
	.st5{fill:#4D4D4D;}
	.st6{fill:none;}
	.st7{font-family:'ZillaSlab-Medium';}
	.st8{font-size:22px;}
	.st9{opacity:0.2;fill:#333333;}
	.st10{fill:#81A6BF;}
	.st11{clip-path:url(#SVGID_2_);}
	.st12{fill:#1A1A1A;}
	.st13{fill:#997B5B;}
	.st14{fill:#B3B3B3;}
	.st15{fill:#CCA479;}
	.st16{fill:#3A83B5;}
	.st17{fill:none;stroke:#36739C;stroke-width:1.8037;stroke-miterlimit:10;}
	.st18{opacity:0.46;fill:#2D4454;}
	.st19{fill:#FFFFFF;}
	.st20{opacity:0.16;fill:#2D4454;}
	.st21{fill:#BF8085;}
	.st22{opacity:0.67;fill:#E6E6E6;}
	.st23{fill:none;stroke:#4D4D4D;stroke-width:1.8037;stroke-miterlimit:10;}
	.st24{fill:#333333;}
	.st25{fill:#36739C;}
	.st26{opacity:0.2;fill:none;stroke:#000000;stroke-width:1.7393;stroke-miterlimit:10;}
	.st27{fill:none;stroke:#7C181F;stroke-width:1.7393;stroke-miterlimit:10;}
</style>
<g>
	<path class="st0" d="M316.3,385.3l6.2-0.6l-6.9-77.1l-1.7-189.4l15.1-8.4l-0.2-86.6L313,11.8l-23.9,0.3l-0.8-9.1L207.3,13L22,15.2
		l0.6,395.1c0,0,0.1,0,0.1,0l0,1.3c0,0,12.8,0.5,34.2,1l0.1,2.3l40.3-1.5c56.7,0.9,137.3,1.3,211.5-2.2l-0.3-7.1
		c2.8,0.1,5.5,0.2,8.1,0.4L316.3,385.3z"/>
	<g>
		<path class="st1" d="M17.3,408c0,0,153.4,5.9,286-0.3L288.9,69.7L24.7,70.1L17.3,408z"/>
		<polygon class="st2" points="51.5,411.3 38.5,37.9 285.3,19.4 300.8,402.4 		"/>
		<polygon class="st3" points="66.1,406.1 37.3,29.8 283,-0.7 317.2,381 		"/>
		<path class="st4" d="M16.6,11.5l291.1-3.4l15.8,11.4l0.2,86.6l-15.1,8.4l2.6,286.4c-80.8-4.2-294,5.7-294,5.7L16.6,11.5z"/>
	</g>
	<g>
		<g>
			<path class="st5" d="M60.2,279c0,0,3.3-0.1,9.1-0.2c5.8-0.1,14.1-0.3,24.1-0.4c10-0.1,21.6-0.3,34-0.4c12.4-0.1,25.7-0.1,39-0.2
				c13.3,0,26.5,0.1,39,0.1c12.4,0,24.1,0.2,34,0.3c10,0.1,18.3,0.3,24.1,0.3c5.8,0.1,9.1,0.2,9.1,0.2s-3.3,0.1-9.1,0.2
				c-5.8,0.1-14.1,0.3-24.1,0.4c-10,0.1-21.6,0.3-34,0.4c-12.4,0.1-25.7,0.1-39,0.2c-13.3,0-26.5-0.1-39-0.1
				c-12.4,0-24.1-0.2-34-0.3c-10-0.1-18.3-0.3-24.1-0.3C63.5,279.1,60.2,279,60.2,279z"/>
		</g>
		<g>
			<path class="st5" d="M60,167.6c0,0,3.3-0.1,9.1-0.2c5.8-0.1,14.1-0.3,24.1-0.4c10-0.1,21.6-0.3,34-0.4c12.4-0.1,25.7-0.1,39-0.2
				c13.3,0,26.5,0.1,39,0.1c12.4,0,24.1,0.2,34,0.3c10,0.1,18.3,0.3,24.1,0.3c5.8,0.1,9.1,0.2,9.1,0.2s-3.3,0.1-9.1,0.2
				c-5.8,0.1-14.1,0.3-24.1,0.4c-10,0.1-21.6,0.3-34,0.4c-12.4,0.1-25.7,0.1-39,0.2c-13.3,0-26.5-0.1-39-0.1
				c-12.4,0-24.1-0.2-34-0.3c-10-0.1-18.3-0.3-24.1-0.3C63.3,167.7,60,167.6,60,167.6z"/>
		</g>
		<g>
			
				<rect x="83.5" y="213.2" transform="matrix(1 -1.476890e-03 1.476890e-03 1 -0.3797 0.2506)" class="st6" width="172" height="88.1"/>
			<text transform="matrix(1 -1.471919e-03 1.471919e-03 1 106.0452 228.3789)" class="st5 st7 st8">EDUCACIÓN</text>
		</g>
	</g>
	<g>
		<path class="st3" d="M322.8,131c-46.1,2.2-129.1,9.9-129.1,9.9c-5.4-70.4-9.9-129.1-9.9-129.1s105.7-5.3,129.1-9.9
			C312.9,1.9,318.5,111.7,322.8,131z"/>
		<polygon class="st9" points="203.2,131.5 316.9,126.4 302.9,15.2 		"/>
		
			<rect x="197" y="15.1" transform="matrix(0.9971 -7.651743e-02 7.651743e-02 0.9971 -4.7186 19.5906)" class="st10" width="112.6" height="112.6"/>
		<g>
			<defs>
				
					<rect id="SVGID_1_" x="197" y="15.1" transform="matrix(0.9971 -7.651743e-02 7.651743e-02 0.9971 -4.7186 19.5906)" width="112.6" height="112.6"/>
			</defs>
			<clipPath id="SVGID_2_">
				<use xlink:href="#SVGID_1_"  style="overflow:visible;"/>
			</clipPath>
			<g class="st11">
				<path class="st12" d="M242.5,31.3c0,0-15.8-3.4-11.1,23.1c0,0,1.9,26.7,0.7,27.1c0,0,1.7-0.1,2.6-1.9c0,0-1.4,15.8,14.4,16.6
					c0,0,27.5,5.6,26.3-20.3c0-0.3,0-0.6-0.1-0.9c-1.9-26.9-0.3-30.7-1.4-36.6C273,32.6,249.2,18.4,242.5,31.3z"/>
				<path class="st13" d="M273.6,65.1c0,0,9.3-4.2-0.6,14.8L273.6,65.1z"/>
				<path class="st13" d="M234.7,67.2c0,0-9.8-2.8,2.6,14.6L234.7,67.2z"/>
				<g>
					<polygon class="st14" points="242.5,98.4 270,96.5 268.7,105.6 243.1,107.4 					"/>
					<path class="st15" d="M295,109.8c-2.7-3.4-28.3-7.7-28.3-7.7l-1.3-18.6l-9.5,0.7l-0.3,0l-9.5,0.7l1.3,18.6
						c0,0-20,6.8-22.2,10.6c-2.1,3.8,1.1,15.6,1.1,15.6l32.3-3.5l37.3-0.8C296.1,125.4,297.7,113.3,295,109.8z"/>
					<path class="st13" d="M247.6,103.5l-0.7-10.2l19.2-1.3C266.1,92,262.6,102.5,247.6,103.5z"/>
					<path class="st15" d="M273.7,63.1c0.4,13.8,0.7,23.7-4.1,28c-5.2,4.8-9.7,7.3-12.7,7.5c-3,0.2-7.8-2.2-15.5-7.4
						c-5.6-3.8-5.5-13.4-6.7-25.2c-2-20.4,4.3-33.7,17.5-34.6C265.4,30.5,273.2,44.7,273.7,63.1z"/>
					<g>
						<g>
							<path class="st13" d="M250,77.7c3.2,2,7.3,1.9,10-0.8c1-0.9-0.5-2.4-1.5-1.5c-2.1,2-5.1,2-7.5,0.5
								C249.9,75.2,248.9,77,250,77.7L250,77.7z"/>
						</g>
					</g>
					<g>
						
							<ellipse transform="matrix(0.9976 -6.984621e-02 6.984621e-02 0.9976 -3.9574 17.2011)" class="st12" cx="244" cy="65.2" rx="1.5" ry="2.4"/>
						
							<ellipse transform="matrix(0.9976 -6.984621e-02 6.984621e-02 0.9976 -3.8034 18.6637)" class="st12" cx="265" cy="63.7" rx="1.5" ry="2.4"/>
					</g>
					<polygon class="st14" points="254.2,112.5 255.4,120.4 248.6,117.9 252.4,112.2 					"/>
					<polygon class="st14" points="265.1,112.5 265.5,118.5 270.1,115.2 265.6,111.9 					"/>
					<path class="st16" d="M248,116.7l11.6,4l11.6-5.6l0.1-14.2l24.1,5.8c0,0,8.6,1.2,8.3,7.9c-0.3,7.9-1.4,10.3-1.4,10.3l-82.9,5.2
						c0,0-5.1-12.3-1.8-15.5c3.3-3.2,21.8-10.6,21.8-10.6L248,116.7z"/>
					<polyline class="st17" points="273.1,114.9 253.8,123.3 254.1,128.4 					"/>
					<polygon class="st18" points="246.8,118 248.9,122.7 254.2,112.1 					"/>
					<polygon class="st19" points="242.5,98.4 254.2,112.1 244.3,123 237.9,103 					"/>
					<polygon class="st18" points="265.1,112.5 271.7,121.1 273.2,116.2 					"/>
					<polygon class="st19" points="270,96.5 274.4,100.7 275.3,120.9 265.1,112.5 					"/>
					<polygon class="st20" points="267.4,104.9 275.1,101 270,96.5 					"/>
					<polygon class="st20" points="248.1,105.8 238.8,102.5 242.5,98.4 					"/>
					<polygon class="st19" points="249.3,84.5 262.7,83.5 259.9,87.3 253.2,87.5 					"/>
					<g>
						<path class="st21" d="M249.3,84.5c0,0,2.2,3.4,3.2,3.8c1,0.4,6.9,0,7.8-0.5c0.9-0.6,2.4-4.2,2.4-4.2
							C258.8,87.7,254.3,88.3,249.3,84.5z"/>
					</g>
				</g>
				
					<rect x="233.4" y="61.1" transform="matrix(0.9976 -6.984621e-02 6.984621e-02 0.9976 -3.9721 17.1024)" class="st22" width="18.3" height="8.5"/>
				
					<rect x="255.8" y="59.5" transform="matrix(0.9976 -6.984621e-02 6.984621e-02 0.9976 -3.8078 18.6642)" class="st22" width="18.3" height="8.5"/>
				
					<rect x="233.4" y="61.1" transform="matrix(0.9976 -6.984621e-02 6.984621e-02 0.9976 -3.9721 17.1024)" class="st23" width="18.3" height="8.5"/>
				
					<rect x="255.8" y="59.5" transform="matrix(0.9976 -6.984621e-02 6.984621e-02 0.9976 -3.8078 18.6642)" class="st23" width="18.3" height="8.5"/>
				<line class="st23" x1="251.9" y1="66.6" x2="256" y2="66.3"/>
				<path class="st12" d="M241.3,40.1c0,0,15.5,22.9,35.4,14.8c0,0-3-0.1-3.6-1.1c0,0,4.3,0.6,8.4-3c0,0-7.9,0.1-11.1-6.8
					s-9.7-21-29.5-9.4c0,0-10.2,8.6-6.7,25.5C234.2,60.2,241.5,53,241.3,40.1z"/>
				<path class="st24" d="M254.2,40.5c0,0,6.8,7.8,16.5,7.4c0,0-2.9-7.2-0.7-9.9c0,0-1.4-4.9-5.6-5C264.3,33,263,39.8,254.2,40.5z"
					/>
				<circle class="st25" cx="260.2" cy="126.4" r="2.6"/>
			</g>
		</g>
		<g>
			<path class="st26" d="M253.8,7c-0.5-2.4-0.5-2.3-0.6-2.4c-0.4-0.5-8.7,0.6-9.2,1.2c-0.5,0.6,2.4,16,6.3,21.5
				c3.9,5.5,7.6,3.8,4.3-10.9"/>
			<path class="st27" d="M253.2,7.4c-0.3-1.4-0.5-2.2-0.6-2.3c-0.4-0.5-8.7,0.6-9.2,1.2c-0.5,0.6,2.4,16,6.3,21.5
				c3.9,5.5,7.6,3.8,4.3-10.9"/>
		</g>
	</g>
</g>
</svg>
