<svg xmlns="http://www.w3.org/2000/svg" xmlns:xlink="http://www.w3.org/1999/xlink" viewBox="0 0 1003 733"><defs><style>.cls-1{isolation:isolate;}.cls-2,.cls-28{fill:#3f2e20;}.cls-2{opacity:0.3;mix-blend-mode:multiply;}.cls-3{fill:#171813;}.cls-4{fill:#d3bd18;}.cls-5{fill:#273e70;}.cls-6{opacity:0.5;font-size:14px;fill:#ccc;font-family:MyriadPro-Regular, Myriad Pro;}.cls-7{fill:#1d2c54;}.cls-12,.cls-19,.cls-25,.cls-7{opacity:0.49;}.cls-8{fill:url(#linear-gradient);}.cls-32,.cls-9{fill:#d1cfcb;}.cls-10,.cls-31,.cls-35{fill:#70272d;}.cls-11{letter-spacing:-0.01em;}.cls-12{fill:#5c2b2d;}.cls-13{fill:#a8a59e;}.cls-14,.cls-29,.cls-34{fill:none;stroke-miterlimit:10;}.cls-14{stroke:#86272d;stroke-width:3px;}.cls-15{fill:#274f70;}.cls-16{letter-spacing:0.01em;}.cls-17{letter-spacing:-0.04em;}.cls-18{letter-spacing:-0.02em;}.cls-19{fill:#1d3b54;}.cls-20{fill:#999;}.cls-21{fill:#27705a;}.cls-22{letter-spacing:0.01em;}.cls-23{letter-spacing:0em;}.cls-24{letter-spacing:0em;}.cls-25{fill:#1d544a;}.cls-26{fill:#86272d;}.cls-27,.cls-30{fill:#b2b0ab;}.cls-27{opacity:0.7;}.cls-29{stroke:#afafaf;}.cls-30{opacity:0.4;}.cls-31,.cls-35{opacity:0.8;}.cls-32{font-size:19.96px;}.cls-32,.cls-35{font-family:MyriadPro-BoldCond, Myriad Pro;font-weight:700;}.cls-33{font-size:12px;fill:#777;font-family:MyriadPro-Cond, Myriad Pro;}.cls-34{stroke:#999;}.cls-35{font-size:19px;}.cls-36{letter-spacing:0.02em;}.cls-37{letter-spacing:0em;}</style><linearGradient id="linear-gradient" x1="918.14" y1="354.52" x2="970.49" y2="354.52" gradientUnits="userSpaceOnUse"><stop offset="0" stop-color="#8b8987"/><stop offset="0.09" stop-color="#b4b2af"/><stop offset="1" stop-color="#d1cfcb"/></linearGradient></defs><title>pantallas_03c-cuaderno</title><g class="cls-1"><g id="lapices"><path class="cls-2" d="M988.15,683c0,10.81-8.23,19.77-19.16,19.77l-945.36.45A19.58,19.58,0,0,1,4.15,683.47L3.85,40.63a19.26,19.26,0,0,1,19.46-19.4l945.36-.45a19,19,0,0,1,19.17,19.39Z"/><path class="cls-3" d="M976,673.37C976,684,967.59,693,956.94,693H35.36A19.65,19.65,0,0,1,16,673.37V40.27A19.34,19.34,0,0,1,35.36,21H956.94A19.08,19.08,0,0,1,976,40.27Z"/><rect class="cls-4" x="105.39" y="25.2" width="184.06" height="184.06" transform="translate(66.68 305.98) rotate(-86)"/><rect class="cls-5" x="951" y="390" width="40" height="96" rx="5.5" ry="5.5" transform="translate(1942 876) rotate(180)"/><text class="cls-6" transform="translate(967.75 411) rotate(90)">OPRENAR</text><polygon class="cls-7" points="973 390 983 486 959 486 959 390 973 390"/><polygon class="cls-8" points="970.49 34 949.2 34 918.14 665.87 958.88 675.05 970.49 34"/><polygon class="cls-9" points="157.33 36 35 36 35 671 139.91 671 157.33 36"/><rect class="cls-10" x="15" y="51" width="40" height="96" rx="5.5" ry="5.5"/><text class="cls-6" transform="translate(38.25 125) rotate(-90)">Emp<tspan class="cls-11" x="26.53" y="0">r</tspan><tspan x="30.97" y="0">esa</tspan></text><polygon class="cls-12" points="30 147 38.67 51 45 51 45 147 30 147"/><polygon class="cls-13" points="161.33 38 39 38 39 680 143.91 680 161.33 38"/><polygon class="cls-13" points="898.86 23 959 23 959 681 912.41 681 898.86 23"/><path class="cls-14" d="M201.75,30.34,189.67,64.79s-4,8.5,2.5,11.5,11,2,14.5-5,13.7-39.5,13.7-39.5,5.8-12-3.7-14-12.5.44-16,8.47"/><rect class="cls-15" x="16" y="165" width="54" height="96" rx="5.5" ry="5.5"/><text class="cls-6" transform="translate(39.25 255) rotate(-90)"><tspan class="cls-16">M</tspan><tspan x="11.42" y="0">isión /</tspan><tspan class="cls-17" x="46.75" y="0"> </tspan><tspan class="cls-18" x="49.21" y="0">V</tspan><tspan x="56.8" y="0">isión</tspan></text><polygon class="cls-19" points="38 167 31 263 59 263 59 167 38 167"/><path class="cls-20" d="M484,33.1l7.37,640.27c-46.81,19.36-446.38,0-446.38,0V32.52S437.89,12.14,484,33.1Z"/><path class="cls-9" d="M495.15,33.27l7.12,640.18C547.54,683.36,949,683.79,949,683.79V13.16S535.66,8.59,495.15,33.27Z"/><rect class="cls-21" x="23" y="286" width="40" height="96" rx="5.5" ry="5.5"/><text class="cls-6" transform="translate(46.25 355) rotate(-90)"><tspan class="cls-22">M</tspan><tspan class="cls-23" x="11.34" y="0">a</tspan><tspan x="18.03" y="0">t</tspan><tspan class="cls-24" x="22.67" y="0">r</tspan><tspan x="27.3" y="0">iz</tspan></text><polygon class="cls-25" points="53 382 43 286 67 286 67 382 53 382"/><path class="cls-9" d="M495,33l7.37,640.27C455.57,692.6,56,679,56,679V27.23S448.89,12,495,33Z"/><path class="cls-9" d="M495,34l7.37,640.27C455.57,693.6,56,680,56,680V28.23S448.89,13,495,34Z"/><path class="cls-10" d="M495.65,33.1S506.8-3.4,531,24.67Z"/><path class="cls-26" d="M516.19,14.29C523.9,14.45,531,24.67,531,24.67l-13.72,3.27S521,18.65,516.19,14.29Z"/><polygon class="cls-26" points="556 677.24 556 733.39 577 719.83 577 677.55 556 677.24"/><polygon class="cls-10" points="556 677.24 556 706.28 577.3 677.55 556 677.24"/><polygon class="cls-27" points="495.65 33.1 503.03 673.37 491.41 676.42 495.65 33.1"/><path class="cls-28" d="M196.16,272c1,0,1.94-.78,2.9-.78-1,0-1.94.78-2.9.78Z"/><path class="cls-29" d="M79.5,140.64s123-4.14,220-4.14,168,4.14,168,4.14"/><path class="cls-29" d="M79.5,163.26s123.33-3.76,220.33-3.76,167.67,3.76,167.67,3.76"/><path class="cls-29" d="M79.5,185.89s123.67-3.39,220.67-3.39,167.33,3.39,167.33,3.39"/><path class="cls-29" d="M79.5,208.52s124-3,221-3,167,3,167,3"/><path class="cls-29" d="M79.5,231.14s124.33-2.64,221.33-2.64,166.67,2.64,166.67,2.64"/><path class="cls-29" d="M79.5,253.77s124.67-2.27,221.67-2.27,166.33,2.27,166.33,2.27"/><path class="cls-29" d="M79.5,276.4s125-1.9,222-1.9,166,1.9,166,1.9"/><path class="cls-29" d="M79.5,299s125.33-1.52,222.33-1.52S467.5,299,467.5,299"/><path class="cls-29" d="M79.5,321.65s125.67-1.15,222.67-1.15,165.33,1.15,165.33,1.15"/><path class="cls-29" d="M79.5,344.27s126-.77,223-.77,165,.77,165,.77"/><path class="cls-29" d="M79.5,366.9s126.33-.4,223.33-.4,164.67.4,164.67.4"/><path class="cls-29" d="M79.5,389.53s126.67,0,223.67,0,164.33,0,164.33,0"/><path class="cls-29" d="M79.5,412.15s127,.35,224,.35,164-.35,164-.35"/><path class="cls-29" d="M79.5,434.78s127.33.72,224.33.72,163.67-.72,163.67-.72"/><path class="cls-29" d="M79.5,457.41s127.67,1.09,224.67,1.09,163.33-1.09,163.33-1.09"/><path class="cls-29" d="M79.5,480s128,1.47,225,1.47,163-1.47,163-1.47"/><path class="cls-29" d="M79.5,502.66s128.33,1.84,225.33,1.84,162.67-1.84,162.67-1.84"/><path class="cls-29" d="M79.5,525.28s128.67,2.22,225.67,2.22,162.33-2.22,162.33-2.22"/><path class="cls-29" d="M79.5,547.91s129,2.59,226,2.59,162-2.59,162-2.59"/><path class="cls-29" d="M79.5,570.54s129.33,3,226.33,3,161.67-3,161.67-3"/><path class="cls-29" d="M79.5,593.16s129.67,3.34,226.67,3.34,161.33-3.34,161.33-3.34"/><path class="cls-29" d="M79.5,615.79s130,3.71,227,3.71,161-3.71,161-3.71"/><path class="cls-30" d="M463.77,27.71,435.49,682.11s43.17-.66,64.83-6.78L495.65,34.1S472.74,28.41,463.77,27.71Z"/><circle class="cls-31" cx="89.36" cy="114.37" r="10.37" transform="translate(-2.24 1.79) rotate(-1.13)"/><text class="cls-32" transform="translate(81.03 120.93) rotate(-1.13)">10</text><circle class="cls-31" cx="289.37" cy="107.37" r="10.37"/><text class="cls-32" transform="translate(280.91 113.85)">11</text><rect class="cls-9" x="261" y="123" width="16" height="524"/><text class="cls-33" transform="translate(104.77 119.77) rotate(-2.81)">M</text><text class="cls-33" transform="translate(111.98 119.42) rotate(-2.84)">i</text><text class="cls-33" transform="translate(114.19 119.31) rotate(-2.87)">é</text><text class="cls-33" transform="translate(118.57 119.09) rotate(-2.9)">r</text><text class="cls-33" transform="translate(121.37 118.95) rotate(-2.92)">c</text><text class="cls-33" transform="matrix(1, -0.05, 0.05, 1, 124.89, 118.77)">o</text><text class="cls-33" transform="translate(129.51 118.53) rotate(-3)">l</text><text class="cls-33" transform="matrix(1, -0.05, 0.05, 1, 131.79, 118.41)">e</text><text class="cls-33" transform="translate(136.14 118.18) rotate(-3.11)">s</text><text class="cls-33" transform="translate(304.75 113.9) rotate(-0.65)">J</text><text class="cls-33" transform="matrix(1, -0.01, 0.01, 1, 307.99, 113.86)">u</text><text class="cls-33" transform="translate(312.73 113.81) rotate(-0.71)">e</text><text class="cls-33" transform="matrix(1, -0.01, 0.01, 1, 317.09, 113.75)">v</text><text class="cls-33" transform="translate(321.1 113.7) rotate(-0.78)">e</text><text class="cls-33" transform="translate(325.45 113.64) rotate(-0.81)">s</text><path class="cls-34" d="M79,51s194.5-7.5,388,0"/><rect class="cls-9" x="207" y="33" width="118" height="29"/><text class="cls-35" transform="translate(241.22 53.93)">O<tspan class="cls-36" x="9.14" y="0">c</tspan><tspan x="15.64" y="0">tub</tspan><tspan class="cls-37" x="38.63" y="0">r</tspan><tspan x="44.14" y="0">e</tspan></text><circle class="cls-31" cx="227.25" cy="48.75" r="1.75"/><circle class="cls-31" cx="307.25" cy="48.75" r="1.75"/><circle class="cls-31" cx="269.25" cy="652.75" r="3.89" transform="translate(-382.7 381.57) rotate(-45)"/><path class="cls-29" d="M524.5,140.64s123-4.14,220-4.14,168,4.14,168,4.14"/><path class="cls-29" d="M524.5,163.26s123.33-3.76,220.33-3.76,167.67,3.76,167.67,3.76"/><path class="cls-29" d="M524.5,185.89s123.67-3.39,220.67-3.39,167.33,3.39,167.33,3.39"/><path class="cls-29" d="M524.5,208.52s124-3,221-3,167,3,167,3"/><path class="cls-29" d="M524.5,231.14s124.33-2.64,221.33-2.64,166.67,2.64,166.67,2.64"/><path class="cls-29" d="M524.5,253.77s124.67-2.27,221.67-2.27,166.33,2.27,166.33,2.27"/><path class="cls-29" d="M524.5,276.4s125-1.9,222-1.9,166,1.9,166,1.9"/><path class="cls-29" d="M524.5,299s125.33-1.52,222.33-1.52S912.5,299,912.5,299"/><path class="cls-29" d="M524.5,321.65s125.67-1.15,222.67-1.15,165.33,1.15,165.33,1.15"/><path class="cls-29" d="M524.5,344.27s126-.77,223-.77,165,.77,165,.77"/><path class="cls-29" d="M524.5,366.9s126.33-.4,223.33-.4,164.67.4,164.67.4"/><path class="cls-29" d="M524.5,389.53s126.67,0,223.67,0,164.33,0,164.33,0"/><path class="cls-29" d="M524.5,412.15s127,.35,224,.35,164-.35,164-.35"/><path class="cls-29" d="M524.5,434.78s127.33.72,224.33.72,163.67-.72,163.67-.72"/><path class="cls-29" d="M524.5,457.41s127.67,1.09,224.67,1.09,163.33-1.09,163.33-1.09"/><path class="cls-29" d="M524.5,480s128,1.47,225,1.47,163-1.47,163-1.47"/><path class="cls-29" d="M524.5,502.66s128.33,1.84,225.33,1.84,162.67-1.84,162.67-1.84"/><path class="cls-29" d="M524.5,525.28s128.67,2.22,225.67,2.22,162.33-2.22,162.33-2.22"/><path class="cls-29" d="M524.5,547.91s129,2.59,226,2.59,162-2.59,162-2.59"/><path class="cls-29" d="M524.5,570.54s129.33,3,226.33,3,161.67-3,161.67-3"/><path class="cls-29" d="M524.5,593.16s129.67,3.34,226.67,3.34,161.33-3.34,161.33-3.34"/><path class="cls-29" d="M524.5,615.79s130,3.71,227,3.71,161-3.71,161-3.71"/><circle class="cls-31" cx="534.35" cy="114.37" r="10.37" transform="translate(-4.16 21.54) rotate(-2.3)"/><text class="cls-32" transform="translate(526.1 120.95) rotate(-1.8)">12</text><circle class="cls-31" cx="734.37" cy="107.37" r="10.37"/><text class="cls-32" transform="translate(725.91 113.85)">13</text><rect class="cls-9" x="706" y="123" width="16" height="524"/><text class="cls-33" transform="matrix(1, -0.05, 0.05, 1, 549.78, 119.77)">V</text><text class="cls-33" transform="matrix(1, -0.05, 0.05, 1, 554.52, 119.54)">i</text><text class="cls-33" transform="translate(556.73 119.43) rotate(-2.85)">e</text><text class="cls-33" transform="translate(561.09 119.21) rotate(-2.88)">r</text><text class="cls-33" transform="translate(564.06 119.06) rotate(-2.91)">n</text><text class="cls-33" transform="translate(568.91 118.82) rotate(-2.95)">e</text><text class="cls-33" transform="matrix(1, -0.05, 0.05, 1, 573.26, 118.59)">s</text><text class="cls-33" transform="translate(749.73 113.9) rotate(-0.65)">S</text><text class="cls-33" transform="translate(754.18 113.85) rotate(-0.68)">á</text><text class="cls-33" transform="matrix(1, -0.01, 0.01, 1, 758.56, 113.8)">b</text><text class="cls-33" transform="translate(763.35 113.74) rotate(-0.75)">a</text><text class="cls-33" transform="translate(767.7 113.68) rotate(-0.79)">d</text><text class="cls-33" transform="matrix(1, -0.01, 0.01, 1, 772.51, 113.61)">o</text><path class="cls-34" d="M524,51s195-17,388.5-9.5"/><rect class="cls-9" x="652" y="33" width="118" height="29"/><text class="cls-35" transform="matrix(1, -0.04, 0.04, 1, 685.46, 47.95)">O<tspan class="cls-36" x="9.14" y="0">c</tspan><tspan x="15.64" y="0">tub</tspan><tspan class="cls-37" x="38.63" y="0">r</tspan><tspan x="44.14" y="0">e</tspan></text><circle class="cls-31" cx="671.3" cy="43.33" r="1.75" transform="matrix(1, -0.04, 0.04, 1, -1.19, 26.57)"/><circle class="cls-31" cx="751.23" cy="40.17" r="1.75" transform="translate(-1 29.72) rotate(-2.27)"/><circle class="cls-31" cx="714.25" cy="652.75" r="3.89" transform="translate(-252.36 696.24) rotate(-45)"/><rect class="cls-9" x="721.5" y="338.5" width="209" height="39"/><circle class="cls-31" cx="737.37" cy="364.37" r="10.37"/><text class="cls-32" transform="translate(728.91 370.85)">14</text><text class="cls-33" transform="matrix(1, -0.01, 0.01, 1, 752.75, 370.9)">D</text><text class="cls-33" transform="matrix(1, -0.01, 0.01, 1, 758.18, 370.84)">o</text><text class="cls-33" transform="translate(762.79 370.78) rotate(-0.74)">m</text><text class="cls-33" transform="translate(770.21 370.69) rotate(-0.78)">i</text><text class="cls-33" transform="translate(772.42 370.66) rotate(-0.81)">n</text><text class="cls-33" transform="translate(777.29 370.59) rotate(-0.87)">g</text><text class="cls-33" transform="translate(782.08 370.51) rotate(-0.94)">o</text></g></g></svg>