<svg id="cuaderno" xmlns="http://www.w3.org/2000/svg" viewBox="0 0 270 274"><defs><style>.cls-1,.cls-2,.cls-3,.cls-4{fill:none;stroke-miterlimit:10;stroke-width:1.74px;}.cls-1{stroke:#000;opacity:0.2;}.cls-2{stroke:#7c181f;}.cls-3{stroke:#0f0f3f;}.cls-4{stroke:#b5b00d;}</style></defs><title>pantallas_03b-cuaderno</title><path class="cls-1" d="M66.2,236.75s19.63-33.32,20.9-36.69,1.85-12.75-1-15.19-9.54,1.15-14.2,7.69S44.08,235.71,44,236.85s13,10.28,14.34,10.06,17-25.45,18.65-38.17-5.76-15.09-20,9.77"/><path class="cls-2" d="M67.63,236.75s19.63-33.32,20.9-36.69,1.85-12.75-1-15.19S78,186,73.34,192.56,45.5,235.71,45.46,236.85s13,10.28,14.34,10.06,17-25.45,18.65-38.17-5.76-15.09-20,9.77"/><path class="cls-1" d="M138.15,172.55s-25.82-28.78-28.65-31-11.58-5.61-14.76-3.66-1.79,9.44,3,15.87,32.7,39.57,33.77,40,13.71-9.26,13.91-10.63-19.09-23.94-30.73-29.31-16.11.93,3.28,22"/><path class="cls-3" d="M139.31,170.91s-25.82-28.78-28.65-31-11.58-5.61-14.76-3.65-1.79,9.44,3,15.87,32.7,39.58,33.77,40,13.71-9.26,13.91-10.63-19.09-23.94-30.73-29.31-16.11.93,3.28,22"/><path class="cls-1" d="M202.25,77.24S183.32,43.52,181,40.73s-10.09-8-13.61-6.79-3.81,8.82-.5,16.14,23.29,45.77,24.25,46.37,15.41-6,15.9-7.34S193.67,61.58,183.47,53.8,167.53,51.19,181.88,76"/><path class="cls-4" d="M203,76S184,42.29,181.76,39.5s-10.09-8-13.61-6.8-3.81,8.82-.5,16.15,23.29,45.76,24.25,46.37,15.41-6,15.9-7.34-13.42-27.53-23.61-35.31S168.25,50,182.59,74.73"/></svg>