<svg xmlns="http://www.w3.org/2000/svg" xmlns:xlink="http://www.w3.org/1999/xlink" viewBox="0 0 1001 742"><defs><style>.cls-1{isolation:isolate;}.cls-2,.cls-28{fill:#3f2e20;}.cls-2{opacity:0.3;mix-blend-mode:multiply;}.cls-3{fill:#171813;}.cls-4{fill:#d3bd18;}.cls-5{fill:url(#linear-gradient);}.cls-32,.cls-6{fill:#d1cfcb;}.cls-31,.cls-35,.cls-7{fill:#70272d;}.cls-8{opacity:0.5;font-size:14px;fill:#ccc;font-family:MyriadPro-Regular, Myriad Pro;}.cls-9{letter-spacing:-0.01em;}.cls-10{fill:#5c2b2d;}.cls-10,.cls-17,.cls-22,.cls-25{opacity:0.49;}.cls-11{fill:#a8a59e;}.cls-12,.cls-29,.cls-34{fill:none;stroke-miterlimit:10;}.cls-12{stroke:#86272d;stroke-width:3px;}.cls-13{fill:#274f70;}.cls-14{letter-spacing:0.01em;}.cls-15{letter-spacing:-0.04em;}.cls-16{letter-spacing:-0.02em;}.cls-17{fill:#1d3b54;}.cls-18{fill:#27705a;}.cls-19{letter-spacing:0.01em;}.cls-20{letter-spacing:0em;}.cls-21{letter-spacing:0em;}.cls-22{fill:#1d544a;}.cls-23{fill:#999;}.cls-24{fill:#273e70;}.cls-25{fill:#1d2c54;}.cls-26{fill:#86272d;}.cls-27,.cls-30{fill:#b2b0ab;}.cls-27{opacity:0.7;}.cls-29{stroke:#afafaf;}.cls-30{opacity:0.4;}.cls-31,.cls-35{opacity:0.8;}.cls-32{font-size:19.96px;}.cls-32,.cls-35{font-family:MyriadPro-BoldCond, Myriad Pro;font-weight:700;}.cls-33{font-size:12px;fill:#777;font-family:MyriadPro-Cond, Myriad Pro;}.cls-34{stroke:#999;}.cls-35{font-size:19px;}.cls-36{letter-spacing:0.02em;}.cls-37{letter-spacing:0em;}.cls-38{opacity:0.23;}</style><linearGradient id="linear-gradient" x1="922.14" y1="361.52" x2="974.49" y2="361.52" gradientUnits="userSpaceOnUse"><stop offset="0" stop-color="#8b8987"/><stop offset="0.09" stop-color="#b4b2af"/><stop offset="1" stop-color="#d1cfcb"/></linearGradient></defs><title>pantallas_03b-cuaderno</title><g class="cls-1"><g id="lapices"><path class="cls-2" d="M992.15,690c0,10.81-8.23,19.77-19.16,19.77l-945.36.45A19.58,19.58,0,0,1,8.15,690.47L7.85,47.63a19.26,19.26,0,0,1,19.46-19.4l945.36-.45a19,19,0,0,1,19.17,19.39Z"/><path class="cls-3" d="M980,680.37C980,691,971.59,700,960.94,700H39.36A19.65,19.65,0,0,1,20,680.37V47.27A19.34,19.34,0,0,1,39.36,28H960.94A19.08,19.08,0,0,1,980,47.27Z"/><rect class="cls-4" x="109.39" y="32.2" width="184.06" height="184.06" transform="translate(63.42 316.48) rotate(-86)"/><polygon class="cls-5" points="974.49 41 953.2 41 922.14 672.87 962.88 682.05 974.49 41"/><polygon class="cls-6" points="161.33 43 39 43 39 678 143.91 678 161.33 43"/><rect class="cls-7" x="21" y="58" width="40" height="96" rx="5.5" ry="5.5"/><text class="cls-8" transform="translate(44.25 132) rotate(-90)">Emp<tspan class="cls-9" x="26.53" y="0">r</tspan><tspan x="30.97" y="0">esa</tspan></text><polygon class="cls-10" points="36 154 44.67 58 51 58 51 154 36 154"/><polygon class="cls-11" points="165.33 45 43 45 43 687 147.91 687 165.33 45"/><polygon class="cls-11" points="902.86 30 963 30 963 688 916.41 688 902.86 30"/><path class="cls-12" d="M205.75,37.34,193.67,71.79s-4,8.5,2.5,11.5,11,2,14.5-5,13.7-39.5,13.7-39.5,5.8-12-3.7-14-12.5.44-16,8.47"/><rect class="cls-13" x="22" y="173" width="54" height="96" rx="5.5" ry="5.5"/><text class="cls-8" transform="translate(45.25 263) rotate(-90)"><tspan class="cls-14">M</tspan><tspan x="11.42" y="0">isión /</tspan><tspan class="cls-15" x="46.75" y="0"> </tspan><tspan class="cls-16" x="49.21" y="0">V</tspan><tspan x="56.8" y="0">isión</tspan></text><polygon class="cls-17" points="44 175 37 271 65 271 65 175 44 175"/><rect class="cls-18" x="25" y="291" width="40" height="96" rx="5.5" ry="5.5"/><text class="cls-8" transform="translate(48.25 360) rotate(-90)"><tspan class="cls-19">M</tspan><tspan class="cls-20" x="11.34" y="0">a</tspan><tspan x="18.03" y="0">t</tspan><tspan class="cls-21" x="22.67" y="0">r</tspan><tspan x="27.3" y="0">iz</tspan></text><polygon class="cls-22" points="55 291 45 387 69 387 69 291 55 291"/><path class="cls-23" d="M488,40.1l7.37,640.27c-46.81,19.36-446.38,0-446.38,0V39.52S441.89,19.14,488,40.1Z"/><path class="cls-6" d="M499.15,40.27l7.12,640.18C551.54,690.36,953,690.79,953,690.79V20.16S539.66,15.59,499.15,40.27Z"/><rect class="cls-24" x="25" y="414" width="47" height="96" rx="5.5" ry="5.5"/><text class="cls-8" transform="translate(48.25 489) rotate(-90)">OPRENAR</text><polygon class="cls-25" points="55 414 45 510 69 510 69 414 55 414"/><path class="cls-6" d="M499,40l7.37,640.27C459.57,699.6,60,686,60,686V34.23S452.89,19,499,40Z"/><path class="cls-6" d="M499,41l7.37,640.27C459.57,700.6,60,687,60,687V35.23S452.89,20,499,41Z"/><path class="cls-7" d="M499.65,40.1S510.8,3.6,535,31.67Z"/><path class="cls-26" d="M520.19,21.29C527.9,21.45,535,31.67,535,31.67l-13.72,3.27S525,25.65,520.19,21.29Z"/><polygon class="cls-27" points="499.65 40.1 507.03 680.37 495.41 683.42 499.65 40.1"/><path class="cls-28" d="M200.16,279c1,0,1.94-.78,2.9-.78-1,0-1.94.78-2.9.78Z"/><path class="cls-29" d="M83.5,147.64s123-4.14,220-4.14,168,4.14,168,4.14"/><path class="cls-29" d="M83.5,170.26s123.33-3.76,220.33-3.76,167.67,3.76,167.67,3.76"/><path class="cls-29" d="M83.5,192.89s123.67-3.39,220.67-3.39,167.33,3.39,167.33,3.39"/><path class="cls-29" d="M83.5,215.52s124-3,221-3,167,3,167,3"/><path class="cls-29" d="M83.5,238.14s124.33-2.64,221.33-2.64,166.67,2.64,166.67,2.64"/><path class="cls-29" d="M83.5,260.77s124.67-2.27,221.67-2.27,166.33,2.27,166.33,2.27"/><path class="cls-29" d="M83.5,283.4s125-1.9,222-1.9,166,1.9,166,1.9"/><path class="cls-29" d="M83.5,306s125.33-1.52,222.33-1.52S471.5,306,471.5,306"/><path class="cls-29" d="M83.5,328.65s125.67-1.15,222.67-1.15,165.33,1.15,165.33,1.15"/><path class="cls-29" d="M83.5,351.27s126-.77,223-.77,165,.77,165,.77"/><path class="cls-29" d="M83.5,373.9s126.33-.4,223.33-.4,164.67.4,164.67.4"/><path class="cls-29" d="M83.5,396.53s126.67,0,223.67,0,164.33,0,164.33,0"/><path class="cls-29" d="M83.5,419.15s127,.35,224,.35,164-.35,164-.35"/><path class="cls-29" d="M83.5,441.78s127.33.72,224.33.72,163.67-.72,163.67-.72"/><path class="cls-29" d="M83.5,464.41s127.67,1.09,224.67,1.09,163.33-1.09,163.33-1.09"/><path class="cls-29" d="M83.5,487s128,1.47,225,1.47,163-1.47,163-1.47"/><path class="cls-29" d="M83.5,509.66s128.33,1.84,225.33,1.84,162.67-1.84,162.67-1.84"/><path class="cls-29" d="M83.5,532.28s128.67,2.22,225.67,2.22,162.33-2.22,162.33-2.22"/><path class="cls-29" d="M83.5,554.91s129,2.59,226,2.59,162-2.59,162-2.59"/><path class="cls-29" d="M83.5,577.54s129.33,3,226.33,3,161.67-3,161.67-3"/><path class="cls-29" d="M83.5,600.16s129.67,3.34,226.67,3.34,161.33-3.34,161.33-3.34"/><path class="cls-29" d="M83.5,622.79s130,3.71,227,3.71,161-3.71,161-3.71"/><path class="cls-30" d="M467.77,34.71,439.49,689.11s43.17-.66,64.83-6.78L499.65,41.1S476.74,35.41,467.77,34.71Z"/><circle class="cls-31" cx="93.36" cy="121.37" r="10.37" transform="translate(-2.38 1.87) rotate(-1.13)"/><text class="cls-32" transform="translate(85.03 127.93) rotate(-1.13)">15</text><circle class="cls-31" cx="293.37" cy="114.37" r="10.37"/><text class="cls-32" transform="translate(284.91 120.85)">16</text><rect class="cls-6" x="265" y="130" width="16" height="524"/><text class="cls-33" transform="translate(108.77 126.77) rotate(-2.8)">L</text><text class="cls-33" transform="translate(112.71 126.58) rotate(-2.83)">u</text><text class="cls-33" transform="translate(117.48 126.34) rotate(-2.86)">n</text><text class="cls-33" transform="matrix(1, -0.05, 0.05, 1, 122.34, 126.1)">e</text><text class="cls-33" transform="translate(126.68 125.88) rotate(-2.94)">s</text><text class="cls-33" transform="matrix(1, -0.01, 0.01, 1, 308.74, 120.9)">M</text><text class="cls-33" transform="translate(315.95 120.82) rotate(-0.7)">a</text><text class="cls-33" transform="matrix(1, -0.01, 0.01, 1, 320.31, 120.76)">r</text><text class="cls-33" transform="translate(323.57 120.72) rotate(-0.76)">t</text><text class="cls-33" transform="translate(326.55 120.68) rotate(-0.79)">e</text><text class="cls-33" transform="translate(330.89 120.62) rotate(-0.83)">s</text><path class="cls-34" d="M83,58s194.5-7.5,388,0"/><rect class="cls-6" x="211" y="40" width="118" height="29"/><text class="cls-35" transform="translate(245.22 60.93)">O<tspan class="cls-36" x="9.14" y="0">c</tspan><tspan x="15.64" y="0">tub</tspan><tspan class="cls-37" x="38.63" y="0">r</tspan><tspan x="44.14" y="0">e</tspan></text><circle class="cls-31" cx="231.25" cy="55.75" r="1.75"/><circle class="cls-31" cx="311.25" cy="55.75" r="1.75"/><circle class="cls-31" cx="273.25" cy="659.75" r="3.89" transform="translate(-386.48 386.45) rotate(-45)"/><path class="cls-29" d="M528.5,147.64s123-4.14,220-4.14,168,4.14,168,4.14"/><path class="cls-29" d="M528.5,170.26s123.33-3.76,220.33-3.76,167.67,3.76,167.67,3.76"/><path class="cls-29" d="M528.5,192.89s123.67-3.39,220.67-3.39,167.33,3.39,167.33,3.39"/><path class="cls-29" d="M528.5,215.52s124-3,221-3,167,3,167,3"/><path class="cls-29" d="M528.5,238.14s124.33-2.64,221.33-2.64,166.67,2.64,166.67,2.64"/><path class="cls-29" d="M528.5,260.77s124.67-2.27,221.67-2.27,166.33,2.27,166.33,2.27"/><path class="cls-29" d="M528.5,283.4s125-1.9,222-1.9,166,1.9,166,1.9"/><path class="cls-29" d="M528.5,306s125.33-1.52,222.33-1.52S916.5,306,916.5,306"/><path class="cls-29" d="M528.5,328.65s125.67-1.15,222.67-1.15,165.33,1.15,165.33,1.15"/><path class="cls-29" d="M528.5,351.27s126-.77,223-.77,165,.77,165,.77"/><path class="cls-29" d="M528.5,373.9s126.33-.4,223.33-.4,164.67.4,164.67.4"/><path class="cls-29" d="M528.5,396.53s126.67,0,223.67,0,164.33,0,164.33,0"/><path class="cls-29" d="M528.5,419.15s127,.35,224,.35,164-.35,164-.35"/><path class="cls-29" d="M528.5,441.78s127.33.72,224.33.72,163.67-.72,163.67-.72"/><path class="cls-29" d="M528.5,464.41s127.67,1.09,224.67,1.09,163.33-1.09,163.33-1.09"/><path class="cls-29" d="M528.5,487s128,1.47,225,1.47,163-1.47,163-1.47"/><path class="cls-29" d="M528.5,509.66s128.33,1.84,225.33,1.84,162.67-1.84,162.67-1.84"/><path class="cls-29" d="M528.5,532.28s128.67,2.22,225.67,2.22,162.33-2.22,162.33-2.22"/><path class="cls-29" d="M528.5,554.91s129,2.59,226,2.59,162-2.59,162-2.59"/><path class="cls-29" d="M528.5,577.54s129.33,3,226.33,3,161.67-3,161.67-3"/><path class="cls-29" d="M528.5,600.16s129.67,3.34,226.67,3.34,161.33-3.34,161.33-3.34"/><path class="cls-29" d="M528.5,622.79s130,3.71,227,3.71,161-3.71,161-3.71"/><circle class="cls-31" cx="538.35" cy="121.37" r="10.37" transform="translate(-4.44 21.71) rotate(-2.3)"/><text class="cls-32" transform="translate(530.1 127.95) rotate(-1.8)">17</text><circle class="cls-31" cx="738.37" cy="114.37" r="10.37"/><text class="cls-32" transform="translate(729.91 120.85)">18</text><rect class="cls-6" x="710" y="130" width="16" height="524"/><text class="cls-33" transform="translate(553.77 126.77) rotate(-2.81)">M</text><text class="cls-33" transform="translate(560.98 126.42) rotate(-2.84)">i</text><text class="cls-33" transform="translate(563.19 126.31) rotate(-2.87)">é</text><text class="cls-33" transform="translate(567.57 126.09) rotate(-2.9)">r</text><text class="cls-33" transform="translate(570.37 125.95) rotate(-2.92)">c</text><text class="cls-33" transform="matrix(1, -0.05, 0.05, 1, 573.89, 125.77)">o</text><text class="cls-33" transform="translate(578.51 125.53) rotate(-3)">l</text><text class="cls-33" transform="matrix(1, -0.05, 0.05, 1, 580.79, 125.41)">e</text><text class="cls-33" transform="translate(585.14 125.18) rotate(-3.11)">s</text><text class="cls-33" transform="translate(753.75 120.9) rotate(-0.65)">J</text><text class="cls-33" transform="matrix(1, -0.01, 0.01, 1, 756.99, 120.86)">u</text><text class="cls-33" transform="translate(761.73 120.81) rotate(-0.71)">e</text><text class="cls-33" transform="matrix(1, -0.01, 0.01, 1, 766.09, 120.75)">v</text><text class="cls-33" transform="translate(770.1 120.7) rotate(-0.78)">e</text><text class="cls-33" transform="translate(774.45 120.64) rotate(-0.81)">s</text><path class="cls-34" d="M528,58s195-17,388.5-9.5"/><rect class="cls-6" x="656" y="40" width="118" height="29"/><text class="cls-35" transform="matrix(1, -0.04, 0.04, 1, 689.46, 54.95)">O<tspan class="cls-36" x="9.14" y="0">c</tspan><tspan x="15.64" y="0">tub</tspan><tspan class="cls-37" x="38.63" y="0">r</tspan><tspan x="44.14" y="0">e</tspan></text><circle class="cls-31" cx="675.3" cy="50.33" r="1.75" transform="matrix(1, -0.04, 0.04, 1, -1.46, 26.73)"/><circle class="cls-31" cx="755.23" cy="47.17" r="1.75" transform="translate(-1.27 29.89) rotate(-2.27)"/><circle class="cls-31" cx="718.25" cy="659.75" r="3.89" transform="translate(-256.14 701.12) rotate(-45)"/><polygon class="cls-38" points="520 35 559 694 574.5 700 527.98 32.67 520 35"/><path class="cls-26" d="M520,35s23,117,40,652l21,1s-4-269-46-657Z"/><polygon class="cls-26" points="560 684.24 560 740.39 581 726.83 581 684.55 560 684.24"/></g></g></svg>