<svg xmlns="http://www.w3.org/2000/svg" xmlns:xlink="http://www.w3.org/1999/xlink" viewBox="0 0 194 418"><defs><style>.cls-1{fill:none;}.cls-2{isolation:isolate;}.cls-3{fill:#3f2e20;opacity:0.3;mix-blend-mode:multiply;}.cls-4{fill:#666;}.cls-5{fill:#5b5b5b;}.cls-6{fill:#515151;}.cls-7{fill:#243056;}.cls-8{fill:#252e4c;}.cls-12,.cls-9{opacity:0.5;}.cls-9{mix-blend-mode:lighten;}.cls-10{clip-path:url(#clip-path);}.cls-11{fill:#384775;}.cls-12{fill:#777;}.cls-13{fill:#20293f;}</style><clipPath id="clip-path"><path class="cls-1" d="M32,68s2.69-4.91,9.71-7.42a18.63,18.63,0,0,1,12.23-.45S78.44,103,85.44,125.3s24.5,75.37,36.76,101.59c0,0-17.79,3.07-27.24,13.66,0,0-16.89-46.93-25.11-66.2S34.06,95.14,32,68Z"/></clipPath></defs><title>pantallas_03b-cuaderno</title><g class="cls-2"><g id="cuaderno"><path class="cls-3" d="M174.9,400.67h0c4.14-1,5.67-2.66,5.67-2.66.37-21.35-5.94-51.17-5.94-51.17-6.21-39.3-30.77-101.57-35-112,.11,0-.34,1-.34,1l-1.31-.58h0l-4.76-11.44c-11-26.77-25.74-81-31.69-103.67S73.25,53.29,73.25,53.29l-3.6-5.61c-1.38-.39-2.67.43-3.88.28L65,46.63h0L60.53,31.47c-12.05-4.91-13.26,3.71-13.26,3.71l6,10.94c-12.35,2-11.46,13.39-11.46,13.39l4.07,12.1L44.78,74S43.55,98.56,56,129a442.2,442.2,0,0,0,24.71,51.21l1.71.76,14,41.82q-.18-10.43-.83-20.61C101.1,219.34,106,235.2,106,235.2l2.57,9.75c.71,4.36,4.52,16.83,9.45,31.93,11.39,35.64,27.17,79.67,27.17,79.67,5.88,15.81,24.94,46.2,24.94,46.2a31.82,31.82,0,0,0,4.43.34h0l.1-1c.36-.12.26-.76.61-.9ZM50.32,98c.07.24.79,3.72,2.05,8.94A69.29,69.29,0,0,1,50.32,98ZM73.69,162.8l.32.56h-.08Zm1.1.65c-3.07-11-20.31-54.5-20.16-65.7l22.09,66.11A17.93,17.93,0,0,0,74.79,163.45Z"/><path class="cls-4" d="M35.91,58,27,42.92S27.75,33.69,40,38l7.29,19.51Z"/><path class="cls-5" d="M37,59.66l-2.79-4.52s3.22-3.37,11-3.31l1.68,4.5Z"/><path class="cls-4" d="M31.26,60.23S36.16,51.62,50,54.81l3.93,5.32L32.39,71.75S31.81,66.48,31.26,60.23Z"/><path class="cls-4" d="M95,240.55s4.35-12.94,27.24-13.66l6.67,11.73S113.54,237.47,98,250.17Z"/><path class="cls-6" d="M28,82.59l6.31-1.32,10.35,23.85s-6.82-4-7.32-.74C35.86,113.73,59.55,165.26,61,172.1c.11.57-9.87-14.62-17.08-32.44A311.22,311.22,0,0,1,32.94,106Z"/><path class="cls-4" d="M27.66,78.85l-1.37,3.48S26.21,107,40.08,136.74a442,442,0,0,0,27.07,50l2.17.86s-.5-11.7-2.38-14.45-7.36-2.88-7.36-2.88S36.1,122.85,32.95,106L29.78,89.23l2.29.24S31.42,81.34,27.66,78.85Z"/><path class="cls-4" d="M139.77,359.93,169,348.87s7.95,29.5,8.57,50.84c0,0-6.37,4.69-10.72,4.27C166.85,404,146.39,375.45,139.77,359.93Z"/><path class="cls-7" d="M32,68s2.69-4.91,9.71-7.42a18.63,18.63,0,0,1,12.23-.45S78.44,103,85.44,125.3s24.5,75.37,36.76,101.59c0,0-17.79,3.07-27.24,13.66,0,0-16.89-46.93-25.11-66.2S34.06,95.14,32,68Z"/><path class="cls-8" d="M98,250.17s13.07-14,30-13c0,0,32.19,69.09,41,111.74,0,0-14.39,11.65-29.23,11.07C139.77,359.93,107.42,281.41,98,250.17Z"/><g class="cls-9"><g class="cls-10"><path class="cls-11" d="M42.36,53.51s36.32,79.8,42.44,175L22.63,67.9S20.58,51.45,42.36,53.51Z"/></g></g><path class="cls-12" d="M30,41.57a6.2,6.2,0,0,1,3-2.32l6.81,15.33-2.77.92Z"/><path class="cls-12" d="M34.31,57.07a25.7,25.7,0,0,0,2,6.34L38,62l-1.87-6Z"/><polygon class="cls-12" points="101.58 234.97 106.05 232.4 110.11 241.33 105.7 243.91 101.58 234.97"/><path class="cls-12" d="M149.1,358.86a165.22,165.22,0,0,0,22.19,44.3l1.23-.51s-14.3-35.9-17.36-45.81Z"/><path class="cls-13" d="M110.11,241.33l39,117.52a20.79,20.79,0,0,1-9.33,1.08S100.91,264.06,98,250.17A35.57,35.57,0,0,1,110.11,241.33Z"/></g></g></svg>