<svg id="cuaderno" xmlns="http://www.w3.org/2000/svg" xmlns:xlink="http://www.w3.org/1999/xlink" viewBox="0 0 1032 780"><defs><style>.cls-1,.cls-2{fill:#171813;}.cls-1{opacity:0.2;}.cls-3{fill:#273e70;}.cls-4{opacity:0.5;font-size:14px;fill:#ccc;font-family:MyriadPro-Regular, Myriad Pro;}.cls-5{fill:#1d2c54;}.cls-11,.cls-16,.cls-22,.cls-5{opacity:0.49;}.cls-6{fill:url(#linear-gradient);}.cls-7{fill:#27705a;}.cls-8{letter-spacing:0.01em;}.cls-9{letter-spacing:0em;}.cls-10{letter-spacing:0em;}.cls-11{fill:#1d544a;}.cls-12,.cls-30{fill:#d1cfcb;}.cls-13{fill:#a8a59e;}.cls-14,.cls-29,.cls-33{fill:#70272d;}.cls-15{letter-spacing:-0.01em;}.cls-16{fill:#5c2b2d;}.cls-17{fill:#999;}.cls-18{fill:#274f70;}.cls-19{letter-spacing:0.01em;}.cls-20{letter-spacing:-0.04em;}.cls-21{letter-spacing:-0.02em;}.cls-22{fill:#1d3b54;}.cls-23{fill:#d3bd18;}.cls-24{fill:#86272d;}.cls-25,.cls-28{fill:#b2b0ab;}.cls-25{opacity:0.7;}.cls-26{fill:#3f2e20;}.cls-27,.cls-32,.cls-36{fill:none;stroke-miterlimit:10;}.cls-27{stroke:#afafaf;}.cls-28{opacity:0.4;}.cls-29,.cls-33{opacity:0.8;}.cls-30{font-size:19.96px;}.cls-30,.cls-33{font-family:MyriadPro-BoldCond, Myriad Pro;font-weight:700;}.cls-31{font-size:12px;fill:#777;font-family:MyriadPro-Cond, Myriad Pro;}.cls-32{stroke:#999;}.cls-33{font-size:19px;}.cls-34{letter-spacing:0.02em;}.cls-35{letter-spacing:0em;}.cls-36{stroke:#86272d;stroke-width:3px;}</style><linearGradient id="linear-gradient" x1="935.14" y1="381.52" x2="987.49" y2="381.52" gradientUnits="userSpaceOnUse"><stop offset="0" stop-color="#8b8987"/><stop offset="0.09" stop-color="#b4b2af"/><stop offset="1" stop-color="#d1cfcb"/></linearGradient></defs><title>pantallas_03b-cuaderno</title><path class="cls-1" d="M1005.15,710c0,10.81-8.23,19.77-19.16,19.77l-945.36.45a19.58,19.58,0,0,1-19.48-19.76l-.3-642.84a19.26,19.26,0,0,1,19.46-19.4l945.36-.45a19,19,0,0,1,19.17,19.39Z"/><path class="cls-2" d="M993,700.37C993,711,984.59,720,973.94,720H52.36A19.65,19.65,0,0,1,33,700.37V67.27A19.34,19.34,0,0,1,52.36,48H973.94A19.08,19.08,0,0,1,993,67.27Z"/><rect class="cls-3" x="968" y="417" width="40" height="96" rx="5.5" ry="5.5" transform="translate(1976 930) rotate(180)"/><text class="cls-4" transform="translate(984.75 438) rotate(90)">OPRENAR</text><polygon class="cls-5" points="990 417 1000 513 976 513 976 417 990 417"/><polygon class="cls-6" points="987.49 61 966.2 61 935.14 692.87 975.88 702.05 987.49 61"/><rect class="cls-7" x="966" y="295" width="40" height="96" rx="5.5" ry="5.5" transform="translate(1972 686) rotate(180)"/><text class="cls-4" transform="translate(982.75 322) rotate(90)"><tspan class="cls-8">M</tspan><tspan class="cls-9" x="11.34" y="0">a</tspan><tspan x="18.03" y="0">t</tspan><tspan class="cls-10" x="22.67" y="0">r</tspan><tspan x="27.3" y="0">iz</tspan></text><polygon class="cls-11" points="985 295 995 391 971 391 971 295 985 295"/><polygon class="cls-12" points="174.33 63 52 63 52 698 156.91 698 174.33 63"/><polygon class="cls-13" points="178.33 65 56 65 56 707 160.91 707 178.33 65"/><polygon class="cls-13" points="915.86 50 976 50 976 708 929.41 708 915.86 50"/><rect class="cls-14" x="33" y="78" width="40" height="96" rx="5.5" ry="5.5"/><text class="cls-4" transform="translate(56.25 152) rotate(-90)">Emp<tspan class="cls-15" x="26.53" y="0">r</tspan><tspan x="30.97" y="0">esa</tspan></text><polygon class="cls-16" points="48 174 56.67 78 63 78 63 174 48 174"/><path class="cls-17" d="M501,60.1l7.37,640.27c-46.81,19.36-446.38,0-446.38,0V59.52S454.89,39.14,501,60.1Z"/><path class="cls-12" d="M512.15,60.27l7.12,640.18C564.54,710.36,966,710.79,966,710.79V40.16S552.66,35.59,512.15,60.27Z"/><path class="cls-12" d="M512,60l7.37,640.27C472.57,719.6,73,706,73,706V54.23S465.89,39,512,60Z"/><rect class="cls-18" x="31" y="193" width="54" height="96" rx="5.5" ry="5.5"/><text class="cls-4" transform="translate(54.25 283) rotate(-90)"><tspan class="cls-19">M</tspan><tspan x="11.42" y="0">isión /</tspan><tspan class="cls-20" x="46.75" y="0"> </tspan><tspan class="cls-21" x="49.21" y="0">V</tspan><tspan x="56.8" y="0">isión</tspan></text><polygon class="cls-22" points="66 193 59 289 87 289 87 193 66 193"/><rect class="cls-23" x="122.39" y="43.2" width="184.06" height="184.06" transform="translate(64.54 339.68) rotate(-86)"/><path class="cls-12" d="M512,61l7.37,640.27C472.57,720.6,73,707,73,707V55.23S465.89,40,512,61Z"/><path class="cls-14" d="M512.65,60.1S523.8,23.6,548,51.67Z"/><path class="cls-24" d="M533.19,41.29C540.9,41.45,548,51.67,548,51.67l-13.72,3.27S538,45.65,533.19,41.29Z"/><polygon class="cls-24" points="573 704.24 573 760.39 594 746.83 594 704.55 573 704.24"/><polygon class="cls-14" points="573 704.24 573 733.28 594.3 704.55 573 704.24"/><polygon class="cls-25" points="512.65 60.1 520.03 700.37 508.41 703.42 512.65 60.1"/><path class="cls-26" d="M213.16,299c1,0,1.94-.78,2.9-.78-1,0-1.94.78-2.9.78Z"/><path class="cls-27" d="M96.5,167.64s123-4.14,220-4.14,168,4.14,168,4.14"/><path class="cls-27" d="M96.5,190.26s123.33-3.76,220.33-3.76,167.67,3.76,167.67,3.76"/><path class="cls-27" d="M96.5,212.89s123.67-3.39,220.67-3.39,167.33,3.39,167.33,3.39"/><path class="cls-27" d="M96.5,235.52s124-3,221-3,167,3,167,3"/><path class="cls-27" d="M96.5,258.14s124.33-2.64,221.33-2.64,166.67,2.64,166.67,2.64"/><path class="cls-27" d="M96.5,280.77s124.67-2.27,221.67-2.27,166.33,2.27,166.33,2.27"/><path class="cls-27" d="M96.5,303.4s125-1.9,222-1.9,166,1.9,166,1.9"/><path class="cls-27" d="M96.5,326s125.33-1.52,222.33-1.52S484.5,326,484.5,326"/><path class="cls-27" d="M96.5,348.65s125.67-1.15,222.67-1.15,165.33,1.15,165.33,1.15"/><path class="cls-27" d="M96.5,371.27s126-.77,223-.77,165,.77,165,.77"/><path class="cls-27" d="M96.5,393.9s126.33-.4,223.33-.4,164.67.4,164.67.4"/><path class="cls-27" d="M96.5,416.53s126.67,0,223.67,0,164.33,0,164.33,0"/><path class="cls-27" d="M96.5,439.15s127,.35,224,.35,164-.35,164-.35"/><path class="cls-27" d="M96.5,461.78s127.33.72,224.33.72,163.67-.72,163.67-.72"/><path class="cls-27" d="M96.5,484.41s127.67,1.09,224.67,1.09,163.33-1.09,163.33-1.09"/><path class="cls-27" d="M96.5,507s128,1.47,225,1.47,163-1.47,163-1.47"/><path class="cls-27" d="M96.5,529.66s128.33,1.84,225.33,1.84,162.67-1.84,162.67-1.84"/><path class="cls-27" d="M96.5,552.28s128.67,2.22,225.67,2.22,162.33-2.22,162.33-2.22"/><path class="cls-27" d="M96.5,574.91s129,2.59,226,2.59,162-2.59,162-2.59"/><path class="cls-27" d="M96.5,597.54s129.33,3,226.33,3,161.67-3,161.67-3"/><path class="cls-27" d="M96.5,620.16s129.67,3.34,226.67,3.34,161.33-3.34,161.33-3.34"/><path class="cls-27" d="M96.5,642.79s130,3.71,227,3.71,161-3.71,161-3.71"/><rect class="cls-12" x="290.5" y="363.5" width="209" height="39"/><path class="cls-28" d="M480.77,54.71,452.49,709.11s43.17-.66,64.83-6.78L512.65,61.1S489.74,55.41,480.77,54.71Z"/><circle class="cls-29" cx="106.36" cy="141.37" r="10.37" transform="translate(-2.77 2.13) rotate(-1.13)"/><text class="cls-30" transform="translate(102.03 147.93) rotate(-1.13)">5</text><circle class="cls-29" cx="306.37" cy="134.37" r="10.37"/><text class="cls-30" transform="translate(301.91 140.85)">6</text><rect class="cls-12" x="278" y="150" width="16" height="524"/><text class="cls-31" transform="matrix(1, -0.05, 0.05, 1, 121.78, 146.77)">V</text><text class="cls-31" transform="matrix(1, -0.05, 0.05, 1, 126.52, 146.54)">i</text><text class="cls-31" transform="translate(128.73 146.43) rotate(-2.85)">e</text><text class="cls-31" transform="translate(133.09 146.21) rotate(-2.88)">r</text><text class="cls-31" transform="translate(136.06 146.06) rotate(-2.91)">n</text><text class="cls-31" transform="translate(140.91 145.82) rotate(-2.95)">e</text><text class="cls-31" transform="matrix(1, -0.05, 0.05, 1, 145.26, 145.59)">s</text><text class="cls-31" transform="translate(321.73 140.9) rotate(-0.65)">S</text><text class="cls-31" transform="translate(326.18 140.85) rotate(-0.68)">á</text><text class="cls-31" transform="matrix(1, -0.01, 0.01, 1, 330.56, 140.8)">b</text><text class="cls-31" transform="translate(335.35 140.74) rotate(-0.75)">a</text><text class="cls-31" transform="translate(339.7 140.68) rotate(-0.79)">d</text><text class="cls-31" transform="matrix(1, -0.01, 0.01, 1, 344.51, 140.61)">o</text><circle class="cls-29" cx="306.37" cy="389.37" r="10.37"/><text class="cls-30" transform="translate(301.91 395.85)">7</text><text class="cls-31" transform="matrix(1, -0.01, 0.01, 1, 321.75, 395.9)">D</text><text class="cls-31" transform="matrix(1, -0.01, 0.01, 1, 327.18, 395.84)">o</text><text class="cls-31" transform="translate(331.79 395.78) rotate(-0.74)">m</text><text class="cls-31" transform="translate(339.21 395.69) rotate(-0.78)">i</text><text class="cls-31" transform="translate(341.42 395.66) rotate(-0.81)">n</text><text class="cls-31" transform="translate(346.29 395.59) rotate(-0.87)">g</text><text class="cls-31" transform="translate(351.08 395.51) rotate(-0.94)">o</text><path class="cls-32" d="M96,78s194.5-7.5,388,0"/><rect class="cls-12" x="224" y="60" width="118" height="29"/><text class="cls-33" transform="translate(258.22 80.93)">O<tspan class="cls-34" x="9.14" y="0">c</tspan><tspan x="15.64" y="0">tub</tspan><tspan class="cls-35" x="38.63" y="0">r</tspan><tspan x="44.14" y="0">e</tspan></text><circle class="cls-29" cx="244.25" cy="75.75" r="1.75"/><circle class="cls-29" cx="324.25" cy="75.75" r="1.75"/><circle class="cls-29" cx="286.25" cy="679.75" r="3.89" transform="translate(-396.82 401.5) rotate(-45)"/><path class="cls-27" d="M541.5,167.64s123-4.14,220-4.14,168,4.14,168,4.14"/><path class="cls-27" d="M541.5,190.26s123.33-3.76,220.33-3.76,167.67,3.76,167.67,3.76"/><path class="cls-27" d="M541.5,212.89s123.67-3.39,220.67-3.39,167.33,3.39,167.33,3.39"/><path class="cls-27" d="M541.5,235.52s124-3,221-3,167,3,167,3"/><path class="cls-27" d="M541.5,258.14s124.33-2.64,221.33-2.64,166.67,2.64,166.67,2.64"/><path class="cls-27" d="M541.5,280.77s124.67-2.27,221.67-2.27,166.33,2.27,166.33,2.27"/><path class="cls-27" d="M541.5,303.4s125-1.9,222-1.9,166,1.9,166,1.9"/><path class="cls-27" d="M541.5,326s125.33-1.52,222.33-1.52S929.5,326,929.5,326"/><path class="cls-27" d="M541.5,348.65s125.67-1.15,222.67-1.15,165.33,1.15,165.33,1.15"/><path class="cls-27" d="M541.5,371.27s126-.77,223-.77,165,.77,165,.77"/><path class="cls-27" d="M541.5,393.9s126.33-.4,223.33-.4,164.67.4,164.67.4"/><path class="cls-27" d="M541.5,416.53s126.67,0,223.67,0,164.33,0,164.33,0"/><path class="cls-27" d="M541.5,439.15s127,.35,224,.35,164-.35,164-.35"/><path class="cls-27" d="M541.5,461.78s127.33.72,224.33.72,163.67-.72,163.67-.72"/><path class="cls-27" d="M541.5,484.41s127.67,1.09,224.67,1.09,163.33-1.09,163.33-1.09"/><path class="cls-27" d="M541.5,507s128,1.47,225,1.47,163-1.47,163-1.47"/><path class="cls-27" d="M541.5,529.66s128.33,1.84,225.33,1.84,162.67-1.84,162.67-1.84"/><path class="cls-27" d="M541.5,552.28s128.67,2.22,225.67,2.22,162.33-2.22,162.33-2.22"/><path class="cls-27" d="M541.5,574.91s129,2.59,226,2.59,162-2.59,162-2.59"/><path class="cls-27" d="M541.5,597.54s129.33,3,226.33,3,161.67-3,161.67-3"/><path class="cls-27" d="M541.5,620.16s129.67,3.34,226.67,3.34,161.33-3.34,161.33-3.34"/><path class="cls-27" d="M541.5,642.79s130,3.71,227,3.71,161-3.71,161-3.71"/><circle class="cls-29" cx="551.35" cy="141.37" r="10.37" transform="translate(-5.23 22.25) rotate(-2.3)"/><text class="cls-30" transform="translate(548.15 148.02) rotate(-2.3)">8</text><circle class="cls-29" cx="751.37" cy="134.37" r="10.37"/><text class="cls-30" transform="translate(746.91 140.85)">9</text><rect class="cls-12" x="723" y="150" width="16" height="524"/><text class="cls-31" transform="translate(566.77 146.77) rotate(-2.8)">L</text><text class="cls-31" transform="translate(570.71 146.58) rotate(-2.83)">u</text><text class="cls-31" transform="translate(575.48 146.34) rotate(-2.86)">n</text><text class="cls-31" transform="matrix(1, -0.05, 0.05, 1, 580.34, 146.1)">e</text><text class="cls-31" transform="translate(584.68 145.88) rotate(-2.94)">s</text><text class="cls-31" transform="matrix(1, -0.01, 0.01, 1, 766.74, 140.9)">M</text><text class="cls-31" transform="translate(773.95 140.82) rotate(-0.7)">a</text><text class="cls-31" transform="matrix(1, -0.01, 0.01, 1, 778.31, 140.76)">r</text><text class="cls-31" transform="translate(781.57 140.72) rotate(-0.76)">t</text><text class="cls-31" transform="translate(784.55 140.68) rotate(-0.79)">e</text><text class="cls-31" transform="translate(788.89 140.62) rotate(-0.83)">s</text><path class="cls-32" d="M541,78s195-17,388.5-9.5"/><rect class="cls-12" x="669" y="60" width="118" height="29"/><text class="cls-33" transform="matrix(1, -0.04, 0.04, 1, 702.46, 74.95)">O<tspan class="cls-34" x="9.14" y="0">c</tspan><tspan x="15.64" y="0">tub</tspan><tspan class="cls-35" x="38.63" y="0">r</tspan><tspan x="44.14" y="0">e</tspan></text><circle class="cls-29" cx="688.3" cy="70.33" r="1.75" transform="translate(-2.24 27.26) rotate(-2.27)"/><circle class="cls-29" cx="768.23" cy="67.17" r="1.75" transform="translate(-2.05 30.42) rotate(-2.27)"/><circle class="cls-29" cx="731.25" cy="679.75" r="3.89" transform="translate(-266.48 716.17) rotate(-45)"/><path class="cls-36" d="M220.75,49.34,208.67,83.79s-4,8.5,2.5,11.5,11,2,14.5-5,13.7-39.5,13.7-39.5,5.8-12-3.7-14-12.5.44-16,8.47"/></svg>