<svg id="lapices" xmlns="http://www.w3.org/2000/svg" xmlns:xlink="http://www.w3.org/1999/xlink" viewBox="0 0 987.15 727.76"><defs><style>.cls-1,.cls-2{fill:#171813;}.cls-1{opacity:0.2;}.cls-3{fill:#273e70;}.cls-4{opacity:0.5;font-size:14px;fill:#ccc;font-family:MyriadPro-Regular, Myriad Pro;}.cls-5{fill:#1d2c54;}.cls-11,.cls-18,.cls-22,.cls-5{opacity:0.49;}.cls-6{fill:url(#linear-gradient);}.cls-7{fill:#27705a;}.cls-8{letter-spacing:0.01em;}.cls-9{letter-spacing:0em;}.cls-10{letter-spacing:0em;}.cls-11{fill:#1d544a;}.cls-12,.cls-29{fill:#d1cfcb;}.cls-13{fill:#a8a59e;}.cls-14{fill:#274f70;}.cls-15{letter-spacing:0.01em;}.cls-16{letter-spacing:-0.04em;}.cls-17{letter-spacing:-0.02em;}.cls-18{fill:#1d3b54;}.cls-19{fill:#999;}.cls-20,.cls-28,.cls-32{fill:#70272d;}.cls-21{letter-spacing:-0.01em;}.cls-22{fill:#5c2b2d;}.cls-23{fill:#86272d;}.cls-24,.cls-27{fill:#b2b0ab;}.cls-24{opacity:0.7;}.cls-25{fill:#3f2e20;}.cls-26,.cls-31,.cls-38{fill:none;stroke-miterlimit:10;}.cls-26{stroke:#afafaf;}.cls-27{opacity:0.4;}.cls-28,.cls-32{opacity:0.8;}.cls-29{font-size:19.96px;}.cls-29,.cls-32{font-family:MyriadPro-BoldCond, Myriad Pro;font-weight:700;}.cls-30{font-size:12px;fill:#777;font-family:MyriadPro-Cond, Myriad Pro;}.cls-31{stroke:#999;}.cls-32{font-size:19px;}.cls-33{letter-spacing:0.02em;}.cls-34{letter-spacing:0em;}.cls-35{fill:#493e07;opacity:0.1;}.cls-36{fill:#d3bd18;}.cls-37{fill:#ccb21d;}.cls-38{stroke:#86272d;stroke-width:3px;}.cls-39{fill:#fff;}.cls-40{fill:#0071bc;}</style><linearGradient id="linear-gradient" x1="914.29" y1="348.89" x2="966.65" y2="348.89" gradientUnits="userSpaceOnUse"><stop offset="0" stop-color="#8b8987"/><stop offset="0.09" stop-color="#b4b2af"/><stop offset="1" stop-color="#d1cfcb"/></linearGradient></defs><title>pantallas_03a-cuaderno</title><path class="cls-1" d="M984.3,677.37c0,10.81-8.23,19.77-19.16,19.77l-945.36.45A19.58,19.58,0,0,1,.3,677.84L0,35a19.26,19.26,0,0,1,19.46-19.4l945.36-.45A19,19,0,0,1,984,34.53Z"/><path class="cls-2" d="M972.15,667.74c0,10.65-8.41,19.63-19.06,19.63H31.51a19.65,19.65,0,0,1-19.36-19.63V34.64A19.34,19.34,0,0,1,31.51,15.37H953.09a19.08,19.08,0,0,1,19.06,19.27Z"/><rect class="cls-3" x="947.15" y="384.37" width="40" height="96" rx="5.5" ry="5.5" transform="translate(1934.3 864.74) rotate(180)"/><text class="cls-4" transform="translate(963.91 405.37) rotate(90)">OPRENAR</text><polygon class="cls-5" points="969.15 384.37 979.15 480.37 955.15 480.37 955.15 384.37 969.15 384.37"/><polygon class="cls-6" points="966.65 28.37 945.35 28.37 914.29 660.24 955.03 669.42 966.65 28.37"/><rect class="cls-7" x="945.15" y="262.37" width="40" height="96" rx="5.5" ry="5.5" transform="translate(1930.3 620.74) rotate(180)"/><text class="cls-4" transform="translate(961.91 289.37) rotate(90)"><tspan class="cls-8">M</tspan><tspan class="cls-9" x="11.34" y="0">a</tspan><tspan x="18.03" y="0">t</tspan><tspan class="cls-10" x="22.67" y="0">r</tspan><tspan x="27.3" y="0">iz</tspan></text><polygon class="cls-11" points="964.15 262.37 974.15 358.37 950.15 358.37 950.15 262.37 964.15 262.37"/><polygon class="cls-12" points="153.49 30.37 31.15 30.37 31.15 665.37 136.06 665.37 153.49 30.37"/><polygon class="cls-13" points="157.49 32.37 35.15 32.37 35.15 674.37 140.06 674.37 157.49 32.37"/><polygon class="cls-13" points="895.01 17.37 955.15 17.37 955.15 675.37 908.56 675.37 895.01 17.37"/><rect class="cls-14" x="940.15" y="150.37" width="40" height="96" rx="5.5" ry="5.5" transform="translate(1920.3 396.74) rotate(180)"/><text class="cls-4" transform="translate(956.91 156.37) rotate(90)"><tspan class="cls-15">M</tspan><tspan x="11.42" y="0">isión /</tspan><tspan class="cls-16" x="46.75" y="0"> </tspan><tspan class="cls-17" x="49.21" y="0">V</tspan><tspan x="56.8" y="0">isión</tspan></text><polygon class="cls-18" points="952.15 150.37 959.15 246.37 945.15 246.37 945.15 150.37 952.15 150.37"/><path class="cls-19" d="M480.17,27.47l7.37,640.27c-46.81,19.36-446.38,0-446.38,0V26.89S434,6.51,480.17,27.47Z"/><rect class="cls-20" x="20.15" y="45.37" width="40" height="96" rx="5.5" ry="5.5"/><text class="cls-4" transform="translate(43.4 119.37) rotate(-90)">Emp<tspan class="cls-21" x="26.53" y="0">r</tspan><tspan x="30.97" y="0">esa</tspan></text><polygon class="cls-22" points="40.15 141.37 48.82 45.37 55.15 45.37 55.15 141.37 40.15 141.37"/><path class="cls-12" d="M491.3,27.65l7.12,640.18c45.27,9.9,446.73,10.33,446.73,10.33V7.53S531.81,3,491.3,27.65Z"/><path class="cls-12" d="M491.17,27.34l7.37,640.27C451.73,687,52.15,673.42,52.15,673.42V21.6S445,6.39,491.17,27.34Z"/><path class="cls-12" d="M491.17,28.34l7.37,640.27C451.73,688,52.15,674.42,52.15,674.42V22.6S445,7.39,491.17,28.34Z"/><path class="cls-20" d="M491.8,27.47S503-9,527.15,19Z"/><path class="cls-23" d="M512.34,8.66C520.05,8.82,527.15,19,527.15,19l-13.72,3.27S517.15,13,512.34,8.66Z"/><polygon class="cls-23" points="552.15 671.61 552.15 727.76 573.15 714.21 573.15 671.92 552.15 671.61"/><polygon class="cls-20" points="552.15 671.61 552.15 700.65 573.45 671.92 552.15 671.61"/><polygon class="cls-24" points="491.8 27.47 499.18 667.74 487.56 670.79 491.8 27.47"/><path class="cls-25" d="M192.31,266.35c1,0,1.94-.78,2.9-.78-1,0-1.94.78-2.9.78Z"/><path class="cls-26" d="M75.65,135s123-4.14,220-4.14,168,4.14,168,4.14"/><path class="cls-26" d="M75.65,157.63S199,153.87,296,153.87s167.67,3.76,167.67,3.76"/><path class="cls-26" d="M75.65,180.26s123.67-3.39,220.67-3.39,167.33,3.39,167.33,3.39"/><path class="cls-26" d="M75.65,202.89s124-3,221-3,167,3,167,3"/><path class="cls-26" d="M75.65,225.51S200,222.87,297,222.87s166.67,2.64,166.67,2.64"/><path class="cls-26" d="M75.65,248.14s124.67-2.27,221.67-2.27,166.33,2.27,166.33,2.27"/><path class="cls-26" d="M75.65,270.77s125-1.9,222-1.9,166,1.9,166,1.9"/><path class="cls-26" d="M75.65,293.39S201,291.87,298,291.87s165.67,1.52,165.67,1.52"/><path class="cls-26" d="M75.65,316s125.67-1.15,222.67-1.15S463.65,316,463.65,316"/><path class="cls-26" d="M75.65,338.65s126-.77,223-.77,165,.77,165,.77"/><path class="cls-26" d="M75.65,361.27s126.33-.4,223.33-.4,164.67.4,164.67.4"/><path class="cls-26" d="M75.65,383.9s126.67,0,223.67,0,164.33,0,164.33,0"/><path class="cls-26" d="M75.65,406.52s127,.35,224,.35,164-.35,164-.35"/><path class="cls-26" d="M75.65,429.15s127.33.72,224.33.72,163.67-.72,163.67-.72"/><path class="cls-26" d="M75.65,451.78s127.67,1.09,224.67,1.09,163.33-1.09,163.33-1.09"/><path class="cls-26" d="M75.65,474.4s128,1.47,225,1.47,163-1.47,163-1.47"/><path class="cls-26" d="M75.65,497S204,498.87,301,498.87,463.65,497,463.65,497"/><path class="cls-26" d="M75.65,519.66s128.67,2.22,225.67,2.22,162.33-2.22,162.33-2.22"/><path class="cls-26" d="M75.65,542.28s129,2.59,226,2.59,162-2.59,162-2.59"/><path class="cls-26" d="M75.65,564.91s129.33,3,226.33,3,161.67-3,161.67-3"/><path class="cls-26" d="M75.65,587.53s129.67,3.34,226.67,3.34,161.33-3.34,161.33-3.34"/><path class="cls-26" d="M75.65,610.16s130,3.71,227,3.71,161-3.71,161-3.71"/><path class="cls-27" d="M459.92,22.08,431.64,676.48s43.17-.66,64.83-6.78L491.8,28.47S468.9,22.78,459.92,22.08Z"/><circle class="cls-28" cx="85.52" cy="108.74" r="10.37" transform="translate(-2.13 1.71) rotate(-1.13)"/><text class="cls-29" transform="translate(81.14 115.28) rotate(-1.13)">1</text><circle class="cls-28" cx="285.53" cy="101.74" r="10.37"/><text class="cls-29" transform="translate(281.06 108.22)">2</text><rect class="cls-12" x="257.15" y="117.37" width="16" height="524"/><text class="cls-30" transform="translate(100.92 114.14) rotate(-2.8)">L</text><text class="cls-30" transform="translate(104.86 113.95) rotate(-2.83)">u</text><text class="cls-30" transform="translate(109.63 113.71) rotate(-2.86)">n</text><text class="cls-30" transform="matrix(1, -0.05, 0.05, 1, 114.49, 113.47)">e</text><text class="cls-30" transform="translate(118.83 113.25) rotate(-2.94)">s</text><text class="cls-30" transform="matrix(1, -0.01, 0.01, 1, 300.9, 108.31)">M</text><text class="cls-30" transform="translate(308.11 108.23) rotate(-0.7)">a</text><text class="cls-30" transform="translate(312.47 108.18) rotate(-0.73)">r</text><text class="cls-30" transform="translate(315.73 108.13) rotate(-0.76)">t</text><text class="cls-30" transform="translate(318.71 108.09) rotate(-0.79)">e</text><text class="cls-30" transform="translate(323.05 108.04) rotate(-0.83)">s</text><path class="cls-31" d="M75.15,45.37s194.5-7.5,388,0"/><rect class="cls-12" x="203.15" y="27.37" width="118" height="29"/><text class="cls-32" transform="translate(237.37 48.3)">O<tspan class="cls-33" x="9.14" y="0">c</tspan><tspan x="15.64" y="0">tub</tspan><tspan class="cls-34" x="38.63" y="0">r</tspan><tspan x="44.14" y="0">e</tspan></text><circle class="cls-28" cx="223.4" cy="43.12" r="1.75"/><circle class="cls-28" cx="303.4" cy="43.12" r="1.75"/><circle class="cls-28" cx="265.4" cy="647.12" r="3.89" transform="translate(-379.85 377.21) rotate(-45)"/><path class="cls-26" d="M520.65,135s123-4.14,220-4.14,168,4.14,168,4.14"/><path class="cls-26" d="M520.65,157.63S644,153.87,741,153.87s167.67,3.76,167.67,3.76"/><path class="cls-26" d="M520.65,180.26s123.67-3.39,220.67-3.39,167.33,3.39,167.33,3.39"/><path class="cls-26" d="M520.65,202.89s124-3,221-3,167,3,167,3"/><path class="cls-26" d="M520.65,225.51S645,222.87,742,222.87s166.67,2.64,166.67,2.64"/><path class="cls-26" d="M520.65,248.14s124.67-2.27,221.67-2.27,166.33,2.27,166.33,2.27"/><path class="cls-26" d="M520.65,270.77s125-1.9,222-1.9,166,1.9,166,1.9"/><path class="cls-26" d="M520.65,293.39S646,291.87,743,291.87s165.67,1.52,165.67,1.52"/><path class="cls-26" d="M520.65,316s125.67-1.15,222.67-1.15S908.65,316,908.65,316"/><path class="cls-26" d="M520.65,338.65s126-.77,223-.77,165,.77,165,.77"/><path class="cls-26" d="M520.65,361.27s126.33-.4,223.33-.4,164.67.4,164.67.4"/><path class="cls-26" d="M520.65,383.9s126.67,0,223.67,0,164.33,0,164.33,0"/><path class="cls-26" d="M520.65,406.52s127,.35,224,.35,164-.35,164-.35"/><path class="cls-26" d="M520.65,429.15s127.33.72,224.33.72,163.67-.72,163.67-.72"/><path class="cls-26" d="M520.65,451.78s127.67,1.09,224.67,1.09,163.33-1.09,163.33-1.09"/><path class="cls-26" d="M520.65,474.4s128,1.47,225,1.47,163-1.47,163-1.47"/><path class="cls-26" d="M520.65,497S649,498.87,746,498.87,908.65,497,908.65,497"/><path class="cls-26" d="M520.65,519.66s128.67,2.22,225.67,2.22,162.33-2.22,162.33-2.22"/><path class="cls-26" d="M520.65,542.28s129,2.59,226,2.59,162-2.59,162-2.59"/><path class="cls-26" d="M520.65,564.91s129.33,3,226.33,3,161.67-3,161.67-3"/><path class="cls-26" d="M520.65,587.53s129.67,3.34,226.67,3.34,161.33-3.34,161.33-3.34"/><path class="cls-26" d="M520.65,610.16s130,3.71,227,3.71,161-3.71,161-3.71"/><circle class="cls-28" cx="530.5" cy="108.75" r="10.37" transform="matrix(1, -0.04, 0.04, 1, -3.94, 21.38)"/><text class="cls-29" transform="translate(527.24 115.4) rotate(-2.3)">3</text><circle class="cls-28" cx="730.53" cy="101.74" r="10.37"/><text class="cls-29" transform="translate(726.06 108.22)">4</text><rect class="cls-12" x="702.15" y="117.37" width="16" height="524"/><text class="cls-30" transform="translate(545.92 114.14) rotate(-2.81)">M</text><text class="cls-30" transform="translate(553.14 113.79) rotate(-2.84)">i</text><text class="cls-30" transform="translate(555.34 113.68) rotate(-2.87)">é</text><text class="cls-30" transform="translate(559.72 113.46) rotate(-2.9)">r</text><text class="cls-30" transform="translate(562.52 113.32) rotate(-2.92)">c</text><text class="cls-30" transform="matrix(1, -0.05, 0.05, 1, 566.05, 113.14)">o</text><text class="cls-30" transform="translate(570.66 112.9) rotate(-3)">l</text><text class="cls-30" transform="matrix(1, -0.05, 0.05, 1, 572.94, 112.78)">e</text><text class="cls-30" transform="translate(577.29 112.55) rotate(-3.11)">s</text><text class="cls-30" transform="translate(745.91 108.31) rotate(-0.65)">J</text><text class="cls-30" transform="translate(749.15 108.28) rotate(-0.67)">u</text><text class="cls-30" transform="translate(753.89 108.22) rotate(-0.71)">e</text><text class="cls-30" transform="matrix(1, -0.01, 0.01, 1, 758.25, 108.17)">v</text><text class="cls-30" transform="translate(762.26 108.11) rotate(-0.78)">e</text><text class="cls-30" transform="translate(766.61 108.06) rotate(-0.81)">s</text><path class="cls-31" d="M520.15,45.37s195-17,388.5-9.5"/><rect class="cls-12" x="648.15" y="27.37" width="118" height="29"/><text class="cls-32" transform="translate(681.59 42.36) rotate(-2.26)">O<tspan class="cls-33" x="9.14" y="0">c</tspan><tspan x="15.64" y="0">tub</tspan><tspan class="cls-34" x="38.63" y="0">r</tspan><tspan x="44.14" y="0">e</tspan></text><circle class="cls-28" cx="667.45" cy="37.7" r="1.75" transform="translate(-0.97 26.41) rotate(-2.27)"/><circle class="cls-28" cx="747.39" cy="34.54" r="1.75" transform="translate(-0.78 29.57) rotate(-2.27)"/><circle class="cls-28" cx="710.4" cy="647.12" r="3.89" transform="translate(-249.51 691.87) rotate(-45)"/><polygon class="cls-35" points="890.8 191.98 707.19 204.84 701.34 15.23 877.95 8.37 890.8 191.98"/><rect class="cls-36" x="707.54" y="8.58" width="184.06" height="184.06" transform="translate(-5.07 56.09) rotate(-4)"/><polygon class="cls-37" points="714.19 198.84 799.57 8.66 701.34 15.23 714.19 198.84"/><path class="cls-38" d="M786,11l8.67,24.73s2.87,6.1-1.79,8.26-7.89,1.44-10.41-3.59S772.59,12,772.59,12s-4.16-8.61,2.66-10,9,.32,11.49,6.08"/><polygon class="cls-39" points="102.15 155.03 367.15 132.95 391.15 377.79 123.28 401.79 102.15 155.03"/><polygon class="cls-40" points="119.15 168.25 352.97 148.77 374.15 364.8 137.79 385.98 119.15 168.25"/><rect class="cls-40" x="119.15" y="462.37" width="300" height="72"/><rect class="cls-40" x="569.15" y="211.37" width="293" height="342"/></svg>