<svg xmlns="http://www.w3.org/2000/svg" xmlns:xlink="http://www.w3.org/1999/xlink" viewBox="0 0 50 51"><defs><style>.cls-1,.cls-11{fill:none;}.cls-2{isolation:isolate;}.cls-3{clip-path:url(#clip-path);}.cls-4{fill:#523a29;}.cls-5{fill:#543928;}.cls-6{clip-path:url(#clip-path-2);}.cls-7{opacity:0.09;mix-blend-mode:multiply;}.cls-8{fill:#497d9e;}.cls-9{clip-path:url(#clip-path-3);}.cls-10{fill:#416f8c;}.cls-11{stroke:#fff;stroke-linecap:round;stroke-miterlimit:10;stroke-width:2.41px;}</style><clipPath id="clip-path"><rect class="cls-1" x="-524.56" y="320.96" width="1388.87" height="780.86"/></clipPath><clipPath id="clip-path-2"><path class="cls-1" d="M709.12,1056.61l-19-694c-219,13.94-542.11,14-545,14v-.31l-517.69-13.9-27.69,19.75-1.19,151L-375.18,548l-7.41,499.52c141-6.49,522.71,14.09,522.71,14.09v-.54C147,1060.79,425.67,1049.7,709.12,1056.61Z"/></clipPath><clipPath id="clip-path-3"><circle class="cls-1" cx="25.63" cy="25.06" r="22.83"/></clipPath></defs><title>notificacion_adicciones_01</title><g class="cls-2"><g id="fondo_05a"><g class="cls-3"><path class="cls-4" d="M44.77.25a21.55,21.55,0,0,1-1.22,1.91c-.05.07-.56-.31-.86-.49l1-2.27Z"/><path class="cls-5" d="M11.14,49.43c-2-8.55-2.09,5.72,0,0Z"/><path class="cls-5" d="M46.56-2c-4.25-4.77-4.31,7.5-4.08,16.61C45.67,12.71,46.5,6.1,46.56-2Z"/></g></g><g id="Layer_13" data-name="Layer 13"><circle class="cls-8" cx="25.63" cy="25.06" r="22.83"/><g class="cls-9"><path class="cls-10" d="M65.21,52.17l.07-.05-.36-.23.07-.05-.36-.23.07-.05-.36-.23.07-.05L64.06,51l.07-.05-.36-.23.07-.05-.36-.23.07-.05-.36-.23.07-.05-.36-.23.07-.05-.36-.23.07-.05-.36-.23.07-.05L62.05,49l.07-.05-.36-.23.07-.05-.36-.23.07-.05-.36-.23.07-.05-.36-.23.07-.05-.36-.23.07-.05-.36-.23.07-.05L60,47l.07-.05-.36-.23.07-.05-.36-.23.07-.05-.36-.23.07-.05-.36-.23L59,45.8l-.36-.23.07-.05-.36-.23.07-.05L58,45l.07-.05-.36-.23.07-.05-.36-.23.07-.05-.36-.23.07-.05-.36-.23.07-.05-.36-.23.07-.05-.36-.23.07-.05L56,43l.07-.05-.36-.23.07-.05-.36-.23.07-.05-.36-.23.07-.05-.36-.23.07-.05-.36-.23.07-.05-.36-.23.07-.05L54,41l.07-.05-.36-.23.07-.05-.36-.23.07-.05-.36-.23.07-.05-.36-.23.07-.05-.36-.23.07-.05-.36-.23.07-.05L52,39l.07-.05-.36-.23.07-.05-.36-.23.07-.05-.36-.23.07-.05-.36-.23.07-.05-.36-.23.07-.05-.36-.23.07-.05L50,37l.07-.05-.36-.23.07-.05-.36-.23.07-.05-.36-.23L49.2,36l-.36-.23.07-.05-.36-.23.07-.05-.36-.23.07-.05L48,34.94l.07-.05-.36-.23.07-.05-.36-.23.07-.05-.36-.23L47.2,34l-.36-.23.07-.05-.36-.23.07-.05-.36-.23.07-.05L46,32.93l.07-.05-.36-.23.07-.05-.36-.23.07-.05-.36-.23.07-.05-.36-.23.07-.05-.36-.23.07-.05-.36-.23.07-.05L44,30.92l.07-.05-.36-.23.07-.05-.36-.23.07-.05-.36-.23.07-.05-.36-.23.07-.05-.36-.23.07-.05-.36-.23.07-.05L42,28.91l.07-.05-.36-.23.07-.05-.36-.23.07-.05-.36-.23.07-.05-.36-.23.07-.05-.36-.23.07-.05-.36-.23.07-.05-.36-.23.07-.05-.36-.23.07-.05-.36-.23.07-.05L39.08,26l.07-.05-.36-.23.07-.05-.36-.23.07-.05-.36-.23.07-.05-.36-.23.07-.05-.36-.23.07-.05-.36-.23.07-.05L37.07,24l.07-.05-.36-.23.07-.05-.36-.23.07-.05-15.27-10a1.2,1.2,0,0,0-1.37,2,1.21,1.21,0,0,0,.29.29,1.21,1.21,0,0,0,.29.29,1.21,1.21,0,0,0,.29.29,1.21,1.21,0,0,0,.29.29,1.21,1.21,0,0,0,.29.29,1.21,1.21,0,0,0,.29.29,1.21,1.21,0,0,0,.29.29,1.21,1.21,0,0,0,.29.29,1.21,1.21,0,0,0,.29.29,1.21,1.21,0,0,0,.29.29,1.21,1.21,0,0,0,.29.29,1.21,1.21,0,0,0,.29.29,1.21,1.21,0,0,0,.29.29,1.21,1.21,0,0,0,.29.29,1.21,1.21,0,0,0,.29.29,1.21,1.21,0,0,0,.29.29,1.21,1.21,0,0,0,.29.29,1.21,1.21,0,0,0,.29.29,1.21,1.21,0,0,0,.29.29,1.21,1.21,0,0,0,.29.29,1.21,1.21,0,0,0,.29.29,1.21,1.21,0,0,0,.29.29,1.21,1.21,0,0,0,.29.29,1.21,1.21,0,0,0,.29.29,1.21,1.21,0,0,0,.29.29,1.21,1.21,0,0,0,.29.29,1.21,1.21,0,0,0,.29.29,1.21,1.21,0,0,0,.29.29,1.21,1.21,0,0,0,.29.29,1.21,1.21,0,0,0,.29.29,1.21,1.21,0,0,0,.29.29,1.21,1.21,0,0,0,.29.29,1.21,1.21,0,0,0,.29.29,137.43,137.43,0,0,1,.49.49l-10,7.36a1.2,1.2,0,0,0-.25,1.68,1.19,1.19,0,0,0,.27.26v0a1.18,1.18,0,0,0,.27.26v0a1.19,1.19,0,0,0,.27.26v0a1.19,1.19,0,0,0,.27.26v0a1.18,1.18,0,0,0,.27.26v0a1.19,1.19,0,0,0,.27.26v0a1.19,1.19,0,0,0,.27.26v0a1.18,1.18,0,0,0,.27.26v0a1.19,1.19,0,0,0,.27.26v0a1.19,1.19,0,0,0,.27.26v0a1.19,1.19,0,0,0,.27.26v0a1.19,1.19,0,0,0,.27.26v0a1.19,1.19,0,0,0,.27.26v0a1.19,1.19,0,0,0,.27.26v0a1.19,1.19,0,0,0,.27.26v0a1.19,1.19,0,0,0,.27.26v0a1.19,1.19,0,0,0,.27.26v0a1.18,1.18,0,0,0,.27.26v0a1.19,1.19,0,0,0,.27.26v0a1.19,1.19,0,0,0,.27.26v0a1.18,1.18,0,0,0,.27.26v0a1.19,1.19,0,0,0,.27.26v0a1.19,1.19,0,0,0,.27.26v0a1.18,1.18,0,0,0,.27.26v0a1.19,1.19,0,0,0,.27.26v0a1.19,1.19,0,0,0,.27.26v0a1.18,1.18,0,0,0,.27.26v0a1.19,1.19,0,0,0,.27.26v0a1.19,1.19,0,0,0,.27.26v0a1.18,1.18,0,0,0,.27.26v0a1.19,1.19,0,0,0,.27.26v0a1.19,1.19,0,0,0,.27.26v0a1.19,1.19,0,0,0,.27.26v0a1.19,1.19,0,0,0,.27.26v0a1.19,1.19,0,0,0,.27.26v0a1.19,1.19,0,0,0,.27.26v0a1.18,1.18,0,0,0,.27.26v0a1.19,1.19,0,0,0,.27.26v0a1.19,1.19,0,0,0,.27.26v0a1.18,1.18,0,0,0,.27.26v0a1.19,1.19,0,0,0,.27.26v0a1.19,1.19,0,0,0,.27.26v0a1.18,1.18,0,0,0,.27.26v0a1.19,1.19,0,0,0,.27.26v0a1.19,1.19,0,0,0,.27.26v0a1.18,1.18,0,0,0,.27.26v0a1.19,1.19,0,0,0,.27.26v0a1.19,1.19,0,0,0,.27.26v0a1.18,1.18,0,0,0,.27.26v0a1.19,1.19,0,0,0,.27.26v0a1.19,1.19,0,0,0,.27.26v0a1.19,1.19,0,0,0,.27.26v0a1.19,1.19,0,0,0,.27.26v0a1.19,1.19,0,0,0,.27.26v0a1.19,1.19,0,0,0,.27.26v0a1.18,1.18,0,0,0,.27.26v0a1.19,1.19,0,0,0,.27.26v0a1.19,1.19,0,0,0,.27.26v0a1.18,1.18,0,0,0,.27.26v0a1.19,1.19,0,0,0,.27.26v0a1.19,1.19,0,0,0,.27.26v0a1.18,1.18,0,0,0,.27.26v0a1.19,1.19,0,0,0,.27.26v0a1.19,1.19,0,0,0,.27.26v0a1.18,1.18,0,0,0,.27.26v0a1.19,1.19,0,0,0,.27.26v0a1.19,1.19,0,0,0,.27.26v0a1.18,1.18,0,0,0,.27.26v0a1.19,1.19,0,0,0,.27.26v0a1.19,1.19,0,0,0,.27.26v0a1.19,1.19,0,0,0,.27.26v0a1.19,1.19,0,0,0,.27.26v0a1.19,1.19,0,0,0,.27.26v0a1.19,1.19,0,0,0,.27.26v0a1.19,1.19,0,0,0,.27.26v0a1.19,1.19,0,0,0,.27.26v0a1.19,1.19,0,0,0,.27.26v0a1.18,1.18,0,0,0,.27.26v0a1.19,1.19,0,0,0,.27.26v0a1.19,1.19,0,0,0,.27.26v0a1.18,1.18,0,0,0,.27.26v0a1.19,1.19,0,0,0,.27.26v0a1.19,1.19,0,0,0,.27.26v0a1.18,1.18,0,0,0,.27.26v0a1.19,1.19,0,0,0,.27.26v0a1.19,1.19,0,0,0,.27.26v0a1.18,1.18,0,0,0,.27.26v0a1.19,1.19,0,0,0,.27.26v0a1.19,1.19,0,0,0,.27.26v0a1.18,1.18,0,0,0,.27.26v0a1.19,1.19,0,0,0,.27.26v0a1.19,1.19,0,0,0,.27.26v0a1.19,1.19,0,0,0,.27.26v0a1.19,1.19,0,0,0,.27.26v0a1.19,1.19,0,0,0,.27.26v0a1.19,1.19,0,0,0,.27.26v0a1.18,1.18,0,0,0,.27.26v0a1.19,1.19,0,0,0,.27.26v0a1.19,1.19,0,0,0,.27.26v0a1.18,1.18,0,0,0,.27.26v0a1.19,1.19,0,0,0,.27.26v0a1.2,1.2,0,0,0,1.68.25L65.57,52.41Z"/></g><polyline class="cls-11" points="20.65 14.42 34.47 23.46 20.65 33.67"/></g></g></svg>