<svg xmlns="http://www.w3.org/2000/svg" xmlns:xlink="http://www.w3.org/1999/xlink" viewBox="0 0 49 47"><defs><style>.cls-1,.cls-11{fill:none;}.cls-2{isolation:isolate;}.cls-3{clip-path:url(#clip-path);}.cls-4{fill:#523a29;}.cls-5{fill:#543928;}.cls-6{clip-path:url(#clip-path-2);}.cls-7{opacity:0.09;mix-blend-mode:multiply;}.cls-8{fill:#497d9e;}.cls-9{clip-path:url(#clip-path-3);}.cls-10{fill:#416f8c;}.cls-11{stroke:#fff;stroke-linecap:round;stroke-miterlimit:10;stroke-width:2.41px;}</style><clipPath id="clip-path"><rect class="cls-1" x="-289.56" y="330.96" width="1388.87" height="780.86"/></clipPath><clipPath id="clip-path-2"><path class="cls-1" d="M944.12,1066.61l-19-694c-219,13.94-542.11,14-545,14v-.31l-517.69-13.9-27.69,19.75-1.19,151L-140.18,558l-7.41,499.52c141-6.49,522.71,14.09,522.71,14.09v-.54C382,1070.79,660.67,1059.7,944.12,1066.61Z"/></clipPath><clipPath id="clip-path-3"><circle class="cls-1" cx="24.63" cy="24.06" r="22.83"/></clipPath></defs><title>notificacion_adicciones_01</title><g class="cls-2"><g id="fondo_05a"><g class="cls-3"><path class="cls-4" d="M36.77-7.83c.9,2.24,1.57,3.16,1.6,4.1.19,5.94.21,11.88.35,17.81.06,2.54-1.12,2.89-2.91,2.6-1.39-6,.4-12.13-1.59-18C33.77-2.61,35.57-4.92,36.77-7.83Z"/><path class="cls-4" d="M49.39,3.13c3.25,5.79,2.87,11.76,1.95,18.07-.82-.33-1.49-.38-1.79-.78a4.21,4.21,0,0,1-1-2.31C48.77,13.11,49.1,8.12,49.39,3.13Z"/><path class="cls-4" d="M38.27,22.24c-1.07,5,3,10.85-3.34,16.09l1.86-16.26Z"/><path class="cls-5" d="M22.12,42.82c.05,4.22,1.16,6.44,3.25,6.67C25.1,45.6,24.88,41.71,22.12,42.82Z"/><path class="cls-5" d="M44.35,26.21a17.9,17.9,0,0,1-.83,6.67H46C46.23,29.1,45.79,26.65,44.35,26.21Z"/></g></g><g id="Layer_13" data-name="Layer 13"><circle class="cls-8" cx="24.63" cy="24.06" r="22.83"/><g class="cls-9"><path class="cls-10" d="M57.18,59.71l0,0a1.16,1.16,0,0,0-.21-.23l0,0a1.16,1.16,0,0,0-.21-.23l0,0a1.16,1.16,0,0,0-.21-.23l0,0a1.16,1.16,0,0,0-.21-.23l0,0a1.16,1.16,0,0,0-.21-.23l0,0a1.16,1.16,0,0,0-.21-.23l0,0a1.16,1.16,0,0,0-.21-.23l0,0a1.16,1.16,0,0,0-.21-.23l0,0a1.16,1.16,0,0,0-.21-.23l0,0a1.16,1.16,0,0,0-.21-.23l0,0a1.16,1.16,0,0,0-.21-.23l0,0a1.16,1.16,0,0,0-.21-.23l0,0a1.16,1.16,0,0,0-.21-.23l0,0a1.16,1.16,0,0,0-.21-.23l0,0a1.16,1.16,0,0,0-.21-.23l0,0a1.16,1.16,0,0,0-.21-.23l0,0a1.16,1.16,0,0,0-.21-.23l0,0a1.16,1.16,0,0,0-.21-.23l0,0a1.16,1.16,0,0,0-.21-.23l0,0a1.16,1.16,0,0,0-.21-.23l0,0a1.16,1.16,0,0,0-.21-.23l0,0a1.16,1.16,0,0,0-.21-.23l0,0a1.16,1.16,0,0,0-.21-.23l0,0a1.16,1.16,0,0,0-.21-.23l0,0a1.16,1.16,0,0,0-.21-.23l0,0a1.16,1.16,0,0,0-.21-.23l0,0a1.16,1.16,0,0,0-.21-.23l0,0a1.16,1.16,0,0,0-.21-.23l0,0a1.16,1.16,0,0,0-.21-.23l0,0a1.16,1.16,0,0,0-.21-.23l0,0a1.16,1.16,0,0,0-.21-.23l0,0a1.16,1.16,0,0,0-.21-.23l0,0a1.16,1.16,0,0,0-.21-.23l0,0a1.16,1.16,0,0,0-.21-.23l0,0a1.16,1.16,0,0,0-.21-.23l0,0a1.16,1.16,0,0,0-.21-.23l0,0a1.16,1.16,0,0,0-.21-.23l0,0a1.16,1.16,0,0,0-.21-.23l0,0a1.16,1.16,0,0,0-.21-.23l0,0a1.17,1.17,0,0,0-.14-.16l10.17-6.66a1.2,1.2,0,0,0,.35-1.67,1.17,1.17,0,0,0-.25-.26h0a1.17,1.17,0,0,0-.25-.26h0A1.17,1.17,0,0,0,56.7,40h0a1.17,1.17,0,0,0-.25-.26h0a1.17,1.17,0,0,0-.25-.26h0a1.17,1.17,0,0,0-.25-.26h0a1.17,1.17,0,0,0-.25-.26h0a1.17,1.17,0,0,0-.25-.26h0a1.17,1.17,0,0,0-.25-.26h0a1.17,1.17,0,0,0-.25-.26h0a1.17,1.17,0,0,0-.25-.26h0a1.17,1.17,0,0,0-.25-.26h0a1.17,1.17,0,0,0-.25-.26h0a1.17,1.17,0,0,0-.25-.26h0a1.17,1.17,0,0,0-.25-.26h0a1.17,1.17,0,0,0-.25-.26h0a1.17,1.17,0,0,0-.25-.26h0a1.17,1.17,0,0,0-.25-.26h0a1.17,1.17,0,0,0-.25-.26h0a1.17,1.17,0,0,0-.25-.26h0a1.17,1.17,0,0,0-.25-.26h0a1.17,1.17,0,0,0-.25-.26h0a1.17,1.17,0,0,0-.25-.26h0a1.17,1.17,0,0,0-.25-.26h0a1.17,1.17,0,0,0-.25-.26h0a1.17,1.17,0,0,0-.25-.26h0a1.17,1.17,0,0,0-.25-.26h0a1.17,1.17,0,0,0-.25-.26h0A1.17,1.17,0,0,0,50,33h0a1.17,1.17,0,0,0-.25-.26h0a1.17,1.17,0,0,0-.25-.26h0a1.18,1.18,0,0,0-.25-.26h0A1.17,1.17,0,0,0,49,32h0a1.17,1.17,0,0,0-.25-.26h0a1.17,1.17,0,0,0-.25-.26h0a1.17,1.17,0,0,0-.25-.26h0a1.17,1.17,0,0,0-.25-.26h0a1.17,1.17,0,0,0-.25-.26h0a1.17,1.17,0,0,0-.25-.26h0a1.17,1.17,0,0,0-.25-.26h0a1.17,1.17,0,0,0-.25-.26h0a1.17,1.17,0,0,0-.25-.26h0a1.17,1.17,0,0,0-.25-.26h0a1.17,1.17,0,0,0-.25-.26h0a1.17,1.17,0,0,0-.25-.26h0a1.17,1.17,0,0,0-.25-.26h0a1.17,1.17,0,0,0-.25-.26h0a1.17,1.17,0,0,0-.25-.26h0a1.17,1.17,0,0,0-.25-.26h0a1.17,1.17,0,0,0-.25-.26h0a1.17,1.17,0,0,0-.25-.26h0a1.17,1.17,0,0,0-.25-.26h0a1.17,1.17,0,0,0-.25-.26h0a1.17,1.17,0,0,0-.25-.26h0a1.17,1.17,0,0,0-.25-.26h0a1.17,1.17,0,0,0-.25-.26h0a1.17,1.17,0,0,0-.25-.26h0a1.17,1.17,0,0,0-.25-.26h0a1.17,1.17,0,0,0-.25-.26h0a1.17,1.17,0,0,0-.25-.26h0a1.17,1.17,0,0,0-.25-.26h0a1.17,1.17,0,0,0-.25-.26h0a1.17,1.17,0,0,0-.25-.26h0a1.17,1.17,0,0,0-.25-.26h0a1.17,1.17,0,0,0-.25-.26h0a1.17,1.17,0,0,0-.25-.26h0a1.17,1.17,0,0,0-.25-.26h0A1.17,1.17,0,0,0,40,22.6h0a1.17,1.17,0,0,0-.25-.26h0a1.17,1.17,0,0,0-.25-.26h0a1.17,1.17,0,0,0-.25-.26h0a1.17,1.17,0,0,0-.25-.26h0a1.17,1.17,0,0,0-.25-.26h0a1.17,1.17,0,0,0-.25-.26h0a1.17,1.17,0,0,0-.25-.26h0a1.17,1.17,0,0,0-.25-.26h0a1.17,1.17,0,0,0-.25-.26h0a1.17,1.17,0,0,0-.25-.26h0a1.17,1.17,0,0,0-.25-.26h0a1.17,1.17,0,0,0-.25-.26h0a1.17,1.17,0,0,0-.25-.26h0a1.17,1.17,0,0,0-.25-.26h0a1.17,1.17,0,0,0-.25-.26h0a1.17,1.17,0,0,0-.25-.26h0a1.17,1.17,0,0,0-.25-.26h0a1.17,1.17,0,0,0-.25-.26h0a1.17,1.17,0,0,0-.25-.26h0a1.17,1.17,0,0,0-.25-.26h0a1.17,1.17,0,0,0-.25-.26h0a1.17,1.17,0,0,0-.25-.26h0a1.18,1.18,0,0,0-.25-.26h0a1.17,1.17,0,0,0-.25-.26h0a1.17,1.17,0,0,0-.25-.26h0a1.17,1.17,0,0,0-.25-.26h0a1.17,1.17,0,0,0-.25-.26h0a1.17,1.17,0,0,0-.25-.26h0a1.17,1.17,0,0,0-.25-.26h0a1.17,1.17,0,0,0-.25-.26h0a1.17,1.17,0,0,0-.25-.26h0a1.17,1.17,0,0,0-.25-.26h0a1.17,1.17,0,0,0-.25-.26h0a1.2,1.2,0,0,0-1.67-.35l-15.27,10,.31.23-.06,0,.31.23-.06,0,.31.23-.06,0,.31.23-.06,0,.31.23-.06,0,.31.23-.06,0,.31.23-.06,0,.31.23-.06,0,.31.23-.06,0,.31.23-.06,0,.31.23-.06,0,.31.23-.06,0,.31.23-.06,0,.31.23-.06,0,.31.23-.06,0,.31.23-.06,0,.31.23-.06,0,.31.23-.06,0,.31.23-.06,0,.31.23-.06,0L20,29l-.06,0,.31.23-.06,0,.31.23-.06,0,.31.23-.06,0,.31.23-.06,0,.31.23-.06,0,.31.23-.06,0,.31.23-.06,0,.31.23-.06,0,.31.23-.06,0,.31.23-.06,0,.31.23-.06,0,.31.23-.06,0,.31.23-.06,0,.31.23-.06,0,.31.23-.06,0,.31.23-.06,0,.31.23-.06,0,.31.23-.06,0,.31.23-.06,0,.31.23-.06,0,.31.23-.06,0,.31.23-.06,0,.31.23-.06,0,.31.23-.06,0,.31.23-.06,0,.31.23-.06,0,.31.23-.06,0,.31.23-.06,0,.31.23-.06,0,.31.23-.06,0,.31.23-.06,0,.31.23-.06,0,.31.23-.06,0,.31.23-.06,0,.31.23-.06,0,.31.23-.06,0,.31.23-.06,0,.31.23-.06,0,.31.23-.06,0,.31.23-.06,0,.31.23-.06,0,.31.23-.06,0,.31.23-.06,0,.31.23-.06,0,.31.23-.06,0,.31.23-.06,0,.31.23-.06,0,.31.23-.06,0,.31.23-.06,0,.31.23-.06,0,.31.23-.06,0,.31.23-.06,0,.31.23-.06,0,.31.23-.06,0,.31.23-.06,0,.31.23-.06,0,.31.23-.06,0,.31.23-.06,0,.31.23-.06,0,.31.23-.06,0,.31.23-.06,0,.31.23-.06,0,.31.23-.06,0,.31.23-.06,0,.31.23-.06,0,.31.23-.06,0,.31.23-.06,0,.31.23-.06,0,.31.23-.06,0,.31.23-.06,0,.31.23-.06,0,.31.23-.06,0,.31.23-.06,0,.31.23-.06,0,.31.23-.06,0,.31.23-.06,0,.31.23-.06,0,.31.23-.06,0,.31.23-.06,0,.31.23-.06,0L55.75,61.64a1.2,1.2,0,1,0,1.43-1.94Z"/></g><polyline class="cls-11" points="30.46 14.42 16.65 23.46 30.46 33.67"/></g></g></svg>