<svg xmlns="http://www.w3.org/2000/svg" viewBox="0 0 48 44"><defs><style>.cls-1,.cls-2{fill:#f2f2f2;}.cls-1{stroke:#b3b3b3;stroke-miterlimit:10;stroke-width:3.99px;}</style></defs><title>notificacion_adicciones_02</title><g id="Layer_12" data-name="Layer 12"><path class="cls-1" d="M29.6,4.91C21,1.87,4,6.47,4.89,18.82S20.13,33.48,23,33.48c0,0,1.44,3.74-4,6.61,0,0,6.3,2.59,10.62-6.32,0,0,13.46-.34,13.81-14.37C43.68,8.19,29.6,4.91,29.6,4.91Z"/><path class="cls-2" d="M29.6,4.91C21,1.87,4,6.47,4.89,18.82S20.13,33.48,23,33.48c0,0,1.44,3.74-4,6.61,0,0,6.3,2.59,10.62-6.32,0,0,13.46-.34,13.81-14.37C43.68,8.19,29.6,4.91,29.6,4.91Z"/></g></svg>