<svg xmlns="http://www.w3.org/2000/svg" xmlns:xlink="http://www.w3.org/1999/xlink" viewBox="0 0 96 85"><defs><style>.cls-1,.cls-19{fill:none;}.cls-2{isolation:isolate;}.cls-3{clip-path:url(#clip-path);}.cls-4{fill:#523a29;}.cls-5{fill:#543928;}.cls-6{clip-path:url(#clip-path-2);}.cls-7{opacity:0.09;mix-blend-mode:multiply;}.cls-8{fill:#c7b316;}.cls-9{clip-path:url(#clip-path-3);}.cls-10{fill:#d1cfcb;}.cls-11,.cls-24{fill:#333;}.cls-11{opacity:0.2;}.cls-12{fill:#005187;}.cls-13{fill:#8070a3;}.cls-14{clip-path:url(#clip-path-4);}.cls-15{fill:#1a1a1a;}.cls-16{fill:#6e3539;}.cls-17{fill:#f2ccc0;}.cls-18{fill:#eaae99;}.cls-19{stroke:#e6e6e6;stroke-miterlimit:10;stroke-width:0.62px;}.cls-20{fill:#7d3027;}.cls-21{fill:#f28461;}.cls-22{fill:#d16a49;}.cls-23{fill:#f2c5b5;}</style><clipPath id="clip-path"><rect class="cls-1" x="-421.56" y="206.96" width="1388.87" height="780.86"/></clipPath><clipPath id="clip-path-2"><path class="cls-1" d="M812.12,942.61l-19-694c-219,13.94-542.11,14-545,14v-.31l-517.69-13.9-27.69,19.75-1.19,151L-272.18,434l-7.41,499.52c141-6.49,522.71,14.09,522.71,14.09v-.54C250,946.79,528.67,935.7,812.12,942.61Z"/></clipPath><clipPath id="clip-path-3"><ellipse class="cls-1" cx="44.42" cy="42.78" rx="37.58" ry="39.18"/></clipPath><clipPath id="clip-path-4"><rect class="cls-1" x="0.35" y="-9.21" width="92.33" height="92.33" transform="translate(-0.44 0.56) rotate(-0.69)"/></clipPath></defs><title>notificacion_l_activos_01</title><g class="cls-2"><g id="fondo_05a"><g class="cls-3"><path class="cls-4" d="M46.25,65.34c3.2-1.55,4.32.33,4.37,3.14.12,6.71.23,13.45-.16,20.14-.15,2.57-1,5,0,7.61a2.13,2.13,0,0,1,0,1.31c-3.22,9.89.95,20.48-2.24,30.38a4.66,4.66,0,0,0-.09.65c-.67,4,3.94,7.23,1.49,11.53-2.1,3.69-.78,7.55-.74,11.41.07,7.47-.21,14.94-.49,22.4,0,1.15-.88,2.25-1.48,3.7-1.9-2.65-3.09-4.88-2.09-8.08a8.65,8.65,0,0,0,0-4.53c-1.76-6.42-.7-12.77-.08-19.19.2-2.06-.61-4.23-.5-6.31.4-7.79,1.12-15.56,1.46-23.35.3-6.81.36-13.65.3-20.47,0-2.29-1.58-4.24.09-7,1.14-1.85.92-5,.88-7.54C46.89,76.08,46.52,71,46.25,65.34Z"/><path class="cls-4" d="M16.31,73l2.84,6.37C14.6,79,14.57,79,14.78,82.7c.18,3.38.5,6.75.65,10.12.1,2.15,0,4.32,0,7.52l6.15,4.37L15.13,107l6,9.18-8.54,3.53c-.19-5.18-.44-9.47-.48-13.77,0-5.63,0-11.26.14-16.89,0-2.33.2-4.65.37-7,.15-2.07,0-4.3.68-6.15.47-1.29,2.06-2.06,3.16-3.07Z"/><path class="cls-4" d="M46.73,22.75c-.57-1.94-1.1-2.94-1.12-3.94-.07-3.93-.06-7.87.07-11.8.07-2.16-.09-4.65.78-6.39,1.59-3.19,1.34-5.87.43-9.24-1.06-3.91-1.21-8.17-1.51-12.31C45-25.62,45-30.34,44.82-35c-.06-2.2.81-3.33,3.5-2.66.16,4.79.36,9.76.5,14.73.3,10.55.62,21.11.82,31.66,0,1.88,0,4.13-.82,5.58-1,1.76-1.54,2.76,0,4.42C49,18.91,47.69,20.89,46.73,22.75Z"/><path class="cls-4" d="M15.63,68.61c-.66-.43-1.91-.92-1.88-1.27.42-4.6-1.81-9.24.35-13.86.63-1.35,1-3.91.27-4.86-2.1-2.91-.71-5.7-.78-8.64,3.77,1,3.5,4.63,4,7.38a87.18,87.18,0,0,1,1,11c.24,4,.26,7.93-3.18,10.5Z"/><path class="cls-4" d="M66.18,43.19c3.66,4.88,2.09,11,2.06,17.72-4.11-3.65-3.52-8.22-3.67-12.4-.22-6,1.58-11.93-.85-18-.74-1.84.83-4.87,1.39-7.61,1.09,4.65,2.4,8.94,3,13.35C68.36,38.11,67.08,40.2,66.18,43.19Z"/><path class="cls-4" d="M66.93,86c-3.07-7.5-1-15.17-.7-23.07.66.29,1.5.42,1.55.72.74,4.17,1.54,8.35,2,12.57.32,3.06.09,6.15-2.7,8.07-.32.22-.21,1.23-.3,1.88Z"/><path class="cls-4" d="M73.35-.93c3,3.86.19,8.06.85,11.93s.15,8.2.15,13.31c-1.18-1.12-2.45-1.77-2.46-2.43-.07-7,0-14.06.2-21.08C72.09.31,72.76-.16,73.35-.93Z"/><path class="cls-4" d="M47.22,43.1c-1.59-5.32-1.59-5.32-.3-12.88,3-.13,2.75,2.55,2.75,4.53C49.68,37.73,51,41.4,47.22,43.1Z"/><path class="cls-4" d="M17.32,21.95V16.53c1,1.22,1.68,1.69,1.64,2.08-.35,3.56-.83,7.11-1.18,10l-4.49-2.2C12.55,23,15.5,23,17.32,21.95Z"/><path class="cls-4" d="M78.33,83.58v8.51l-3.91-.42-.71-7.73Z"/><path class="cls-4" d="M75.19,45.57,74,61.64C71.52,54.54,71.71,49.85,75.19,45.57Z"/><path class="cls-4" d="M56.2,25.12c1.05.41,1.94.47,2.4,1a4,4,0,0,1,.55,2.27c.06,2.76,0,5.53,0,8.29l-1.4.12Z"/><path class="cls-4" d="M73.61,76.08l3.19-.36c2.35,3.65-.79,4.36-1.92,6C71,80.53,73.73,78,73.61,76.05Z"/><path class="cls-4" d="M58.3,75.7l-.71-7.53C60.58,72,60.58,72,58.3,75.7Z"/><path class="cls-4" d="M16.49,72.84c-2.2-.91-.68-2.79-.86-4.22l-.19.22,4,.36L16.33,73Z"/><path class="cls-4" d="M73.14,43.58c-.34-.64-.93-1.26-1-1.91s.46-1.47,1.22-3.6l1.12,5.09Z"/><path class="cls-4" d="M17.82,32.2,18.44,39C16.09,34.86,16.09,34.86,17.82,32.2Z"/><path class="cls-4" d="M72.32,27.27l2,4.35c-.69.33-1.1.69-1.27.58C71.73,31.37,70.18,30.56,72.32,27.27Z"/><path class="cls-4" d="M60.29,56.21c-1,.65-1.65,1.44-2.19,1.34s-.94-1.1-1.16-1.8c-.07-.21.8-1.16,1.08-1.08A9.83,9.83,0,0,1,60.29,56.21Z"/><path class="cls-4" d="M73.61,76.05l-.79-6.46h1.63l-.84,6.47Z"/><path class="cls-5" d="M16.94,43.26c-1-1.67-3-1.61-4.14-3.33C12.53,46.92,16.33,43.65,16.94,43.26Z"/><path class="cls-5" d="M32.61,16.71V11.76H31v4.95Z"/></g></g><g id="carpeta_05a"><g class="cls-6"><g class="cls-7"><path class="cls-8" d="M82.24,75.37l2.18-1.18c-1-1.69-2-3.42-4-2.22C79.74,74,81.5,73,82.24,75.37Z"/><path class="cls-8" d="M42.93,86c1.72-1.9-2.11-1.71-3.28-.86C40.28,86.85,42.16,84.78,42.93,86Z"/><path class="cls-8" d="M39.29,84.48c1.26-2.16-3.2-2.12-4.74-1.83,1.58.61,2.06,4.47,4.38,2.9-.31-.86-.81-1.12-1.46-1C37.21,83.49,38.72,83.84,39.29,84.48Z"/><path class="cls-8" d="M78.92,57c3.77-3.2-4.36-1.79,0,0Z"/><path class="cls-8" d="M91.58,23c-2.58.88-3.14,2.28-4.73,3.42,1.21,1.72,3.72-.43,5.1.76C93.49,26.24,92.59,24.64,91.58,23Z"/><path class="cls-8" d="M14.47,61l-.73-1.35-1.46.78L13,61.82Z"/><path class="cls-8" d="M75.57,28.13c-.39-1.21-1.32-.8-1.83-1.65l-1.45.78,1.1,2Z"/><path class="cls-8" d="M10.79,49A31.8,31.8,0,0,0,8.6,46.67c-.86-1.95,1.31-3.68-.38-5.93,6-3.11,12-4.68,13.12,1.7a8.93,8.93,0,0,1,6.92.66,2.25,2.25,0,0,1,1.45-2.53c3.39,3.94-2,2.19-1.08,5,.53,1.37,1.63,1.06,2.19,2.32-2.23,1.94-2.65,4.36-6.17,6-1.7-1.5-3.62-.65-5.1-.76a17.33,17.33,0,0,1-4.37-1.15A15.57,15.57,0,0,1,10.79,49Z"/><path class="cls-8" d="M18.8,46.44l.73,1.36L21,47l-.73-1.36Z"/><path class="cls-8" d="M34.09,45.21c1,2.07,4,2.3,4.73.08C37.87,43,34.92,42.73,34.09,45.21Z"/><path class="cls-8" d="M82.11,22.86c-1-1.14-1.84-2.79-3.65-1.54L79.93,24Z"/><path class="cls-8" d="M57.37,34.43l1.46-.78-.73-1.36-1.46.78Z"/><path class="cls-8" d="M86.47,18.76c-.74-1.91-2.21-1.69-4-.47C83.21,20.19,84.67,20,86.47,18.76Z"/><path class="cls-8" d="M86.44,4.75l2.91-1.57c-2.14-4.34-4-3,1.08-5-1.84-3.66-4.91,1-6.19,2.45-3.28.68-1.4-3.72-4.74-3.58C78.56,2.28,84.89,1,86.44,4.75Z"/><path class="cls-8" d="M72.24,8c-.41.09-1.12,1.81-.72,2.14C73.83,12.08,74.45,7.53,72.24,8Z"/><path class="cls-8" d="M11.85,33.53c2-.83,3-1.93,1.81-3.61C11.58,29.32,9.94,31.42,11.85,33.53Z"/><path class="cls-8" d="M25.66,24.34a2.27,2.27,0,0,0-2.91-.19C23.19,25.79,24.48,24.89,25.66,24.34Z"/><path class="cls-8" d="M34,19c2.3-.08.83-3.91,2.54-2.24,1.75-1.08-1-2.42-1.46-2.72l-.73.39C34.38,15.94,31.89,16.84,34,19Z"/><path class="cls-8" d="M6.75,32.77c-.53-1.37-1.63-1.06-2.19-2.33L1.65,32C3.51,31.79,4.47,34.23,6.75,32.77Z"/><path class="cls-8" d="M-504.61,304.7l111.29-59.94c.1,1.84-2.38,1.81-2.91,3.32-.35,1,2.21,2.84,0,3.5.15,1.61,2.79-1.22,3.27-.89s-.92,1.92-1.81,1.86c1.71.13,1.53-.69,4.37-.6-.56-1.71,1.81-2,2.18-2.92.57-1.47-.78-3.22.35-4.57-.62-1.69-2.51.38-3.28-.87l5.82-3.13c2,2.11,2.37-.74,4.73-1.67l-.37-.68,11.64-6.27.73,1.36,1.46-.78c-.18-.44-.32-.86.36-1.07l-.37-.68L-354,223.6c2,1.2,4.1,2,7.28-.41,1.86,2.49,1.5,1.83,2.56,4.76a11,11,0,0,0,6.55-3.53,32.36,32.36,0,0,1-5.48-6.69L-317.68,204c2.32,2.06.92,4.22,4.38,2.9.77-2.26-2.28-2.19-3.65-3.3l11.64-6.27c1.39,4.13,4.42,3.36,8,.95-1.5-2,1.4-2.74-.74-4.86l19.64-10.58c.86,1.2,0,1.94.74,3.11,2.69-.85,2-2.57,1.44-4.29L-247.12,166c-.12,1.69.7,2-1.08,3.22-1.28.88-2,.18-3.28.88-.28.15-.49,1.37-1.81,1.86-.9.33-1.6-.32-2.55.49-1.49,1.28-.47,3.37-2.18,2.93-.92-.24-2.2,5.82.74,4.86,3.55-.82.73-3.31,2.17-4.67,5.27.9-1.61,4.79-.35,8.07,2.85-.81,4.8,1.07,6.56,3.47-.6,1.2-2.36,2.1-1.81,3.61,2.52,1.67,2.28,7.58,7.29,4.83,1.82-1.34,1.27-4.84-1.1-5.54,2-1.23,5.3-2.1,4.36-4.1-1.08-2.67-3.91-.19-4.74-3.58,2-.45,7.71-1.84,6.91-4.6-2.61.9-2.42-2-2.92-3.68-1.85-1.11-2.58-.39-4.37-1.15.24.1.92-.8.36-1.07-.27-.13-1.44.23-1.82.1-.57-.19-.86-.88-1.46-1,2.6-2.4,3.61-.09,5.83-1.38,1.64,1.82,1.21,1,1.83,3.4,2.09-1.26,6.2-.79,5.45-3.81-3.11,0-3.28,1.47-5.46.31,1.56-1-1.24-3.05-1.47-4.47a5.88,5.88,0,0,1-2.91-.19l17.46-9.4c1.18,1.67-2.53,2.06-.72,3.89,1.78-.42,9.09-3.61,6.54-7L-194,137.4c2.44,2-1.29,2.38.38,4.18,1.26-.2,3.33-2.82,4-1.28-.84,2.64-1.58,1.68-4.73,3.42.63,1.72-1.43,2.73-1.44,4.29,1.08,3.21,2.5,3.86,4.75,7.08-1.37,2.36-3.17,4.61-2.53,7.5,2.26,2.16,7.84,2,7.28-2.17,2.39,1.16,5.62-.18,7.65,2,.83-2.48,3,0,5.46-2.06-4.76-.49.63-8.25,4-8.28,2.56,2.62-1.39,3.52-.72,5.64,1.79-.6,1.9,3.79,4,2.22,1.92-2.81,4.31-9-.76-10.11,3-1.73-2.08-5.6-2.57-8.25-2.68-.3-4.91-1.9-7.65-2,.22,1.61-1,2.85-2.54,4-1.67-1.8,1.29-2.38-.38-4.18,3.12-.15,2.59-1.68,2.54-4-1.13.39-1.83-.46-2.91-.18-2.59,1.54-1.82,1.85-2.91,1.57-2.41-.63-4.66,3.58-7.28,2.17-.53-1.37-1.63-1.06-2.19-2.33l24-12.93c1.65,1.58,3.71,1.94,6.56,0l-1.46-2.72,10.18-5.48c-.91,2.9,2.29,3.59,4.38,2.9,1.67,1.8-1.29,2.38.38,4.18,1.6-.06,3.89-2.13,4.73.08.63-1.47.15-5.77-2.56-4.76-.39-1.46,1.41-2.35-.38-4.18-1.93,1-4.08,2.68-5.1,1l26.91-14.5c2,2.27-.13,3.46-1.08,5,3.07,1.34,6.85.82,8.73-3-1.69-2.48-1.86-2.45-4.75-3.58L-87.1,79.81c-.43,2.57,2.42,7.21,5.84,3.87,0-1.55-1.58-3.53-.74-4.86.59,3,3.31-.39,4,2.22,1.69,2.19-1.68,3.06,0,5.25,5.11.46,5.37-4.59,7.63-6.74,1.44-.58,5.76-.84,5.82-3.13-1.16-1.83-2.82-2.21-5.1-.76-1-1.62-1.87-3.21-1.47-4.47l70.56-38c1.86,3.24-4,1.73-3.63,3.71.68.64,2.21,1,1.82-.1A20.08,20.08,0,0,0,3.12,40C3.84,41-.76,43.51-1.24,42.33c-1.11,3.11-4.24,2.28-6.54,5.28-1.13.41-1.35-1.89-2.55-1.25-2.87.76-.05,2.88.74,3.11-1.28,2-1.21,4.34-1.08,6.71-2.49.4-4.41,1.43-6.55,1.77-1.45.23-3-1.47-4.37.6.75,1.88,1.84,2.78,3.64,1.54-.16,3-3.86,2.37-5.45,5.56,1.22.5,2.07,2.12,3.29,2.61,2.22-1.75,5-3.34,5.45-5.56,2.39-.62,3.62,2.21,6.56,0,.49-2-.53-.83-1.46-2.72C-5.92,62-3.76,58.72.61,56.23A10.91,10.91,0,0,1,5.38,66.82c.41,1.72,1.91.22,2.55,1.25,1.57.65-.77,2.06-.72,2.14.43.8,1.15-.16,1.82-.11,1.47.12,1.27,1.12,2.92,1.93,2-1.62,6.73-2.51,6.9-4.6,3.41.2,3,1.24,5.84,3.87-1.77,1.27-9,4.62-4.34,9.36,3.33-4.44,7.95,4.45,5.84,7.37-4.67,1.86-7.16,3.78-8,7.81a5.65,5.65,0,0,0-4,1.28c.44,1.64,1.74.74,2.92.18l2.19,4.07c0,2.54-2.94,4.29-6.17,6,1.83,1.65-1,2.08-2.18,2.92-2.07.51.37-2.54-1.1-3.79-1.53-1.92-4.17-.57-5.11-4.26-1.94,1-4.08,2.68-5.1,1,.9-3.69,4.74-1.23,6.55-1.78-.41-1.47,2.53-2.05.72-3.89,2.81-.82,2.66-2.41,3.63-3.71-.78-3-3.08-1.46-4.38-2.9.3,2-2.55,3.21-.71,5.64l-3.64,2c-1-2.88-.9-3.12-3.29-4.37l-3.64,2c1.65,1,.87,3.77,1.47,4.47.12.15.84-.46,1.09.29.35,1.06-1.48,3.28,1.1,3.79-.55,0-3.71-.18-2.91,1.57a6.55,6.55,0,0,0-5.83,1.38c0,1.56-1.1,2.82.74,4.86,2.47-.9,2-3,4.36-2.35,1.32,2-.91,3.89,1.47,4.46S-1.3,113.25-.34,112c1.29.3,2.37,1.23,4.37-.6.34,2.42-1.62,4.24,0,7,.92,2,3,.4,4,2.22.28,1-1.08,1.47-1.46.78C4.77,123,10,123.72,9.17,126.12c-.06.18-1.49.64-1.45.78.22.9,2.25.27,2.55,1.25-2,1.13-2.07-.34-2.91,1.57-1.88-.89-3.3-3.15-4.75-5.33-2.85-.25-5.71,4.21-9.82,4.41-.31-.86,1-1.28,1.82-1.85-2.14-1.32-5.52,1.06-7.65-.26-4.74,1.53-2.43,6-6.91,4.59-.55,2.39-.25,5-1.8,7.11-1.33-.16-3.05.82-4-.47-1.42,1.22,1.1,1.8,1.46,2.72.64,1.64-.43,2.54.37,4.18-1.25.2-3.33,2.82-4,1.28-1.87,1.87,1.81,1.36,2.19,2.33-.7,2-1.53.31-3.64,2-1.82-1.66-4.11-1.94-5.47-4.94,2.43-1.93,3.79-.66,4.74,1.83.19-4.32,4.77-10.27,0-14,2.44-1.93,2.82,2.23,4.74,1.83,1.64-1.51,1.28-3.55,2.9-5.07-.15-2.67-2.12-.49-4-.47-1.31,0-2.63-1-4-.47-1.68.59-1.53,1.86-2.54,2.24-1.33.51-3.77-.18-4,1.28,3,.27.76,2.8,1.1,3.79.45,1.33,3,1.41,1.83,3.4-2.18,1.15-2.66-2.7-4.38-2.9-2.23,1.91-3.34.5-5.46,2.07.58.93,1.16,1.86.37,2.43-2.55,1.67-3.53-1.29-5.1-2.51-2.12,1.57-3.23.16-5.46,2.06a4.75,4.75,0,0,1,1.1,3.79c-2.85,2-3.67-2-5.83-2.12-4,2.19,2.39,6,3.66,8.55,2.47-.9,2-3,4.36-2.35,2.22,3.13-.54,5.3-3.63,5.46a5.6,5.6,0,0,0,1.11,5.54c1.71-2.08,3-4.26,5.08-6.24a2.14,2.14,0,0,1,2.55,1.25c0,1.18-2.12.71-3.27,2.64,1.68.08.67,4.39.37,2.43a2,2,0,0,1,0,.46c-.1,0,0,.18,0,0,.05,0,.15,0,.33.23.91.88,1.59,2.55-1.08,3.21,1.82.47,3.9.19,5.1,2.51.57,1.32-2.24,1.75-2.18,2.93,1.85,1.84,4.35-2.05,7.28-.42,1.43-1.33,3.66-3.71,5.82-3.13,0,3.68,1.07,5.28,4.75,5.33,2.16-1.25-1-7.52-3.65-5,1.36-2.82-1.08-3.28-3.29-4.36a8.65,8.65,0,0,1,1.08-6.72c.66-.19,1.09.29,1.82-.1,2.44,2-1.3,2.38.37,4.18,4.78-1.23,7.54,3.52,12.39,2.09,0,2.94,2.26,3.54,5.47,1.44-2-2.91-.81-4.53-3.29-6.12.9-2.24,4.5-1.45,5.09-4.49,1.36,1.4,2.38,5.59.38,4.18-1.82,1.73,1.87,1.2,1.83,3.4-2.19,5.17-6.67,8.29-8.35,12.39-1.79.14-4.65-.35-5.46,2.06,1.3,2.61,3.39,2.89,5.83,2.12l-1.1-2c2.25.07,2.13.71,4-1.28,1,1.9.47,6.84,5.11,4.26-1.79-2.18-.49-6.53-4-5.72.1-.94,1.3-1.6.36-2.82,2.28-.29,4.46-.27,7.28-2.17-1.38-2-.07-4.15-2.56-4.76,2.52-1.58,3.77.61,6.19-.7a2,2,0,0,0,1.46,2.71l2.91-1.57c-.8-1,.07-1.54-.37-2.43-.27-.54-1.51-1.19-1.46-1-.17-.68,1.69-5.1-1.83-3.4-.16-2-.52-4,2.9-5.07,1,2.39,1.27,8.07,5.47,4.94-1.06-2.14-2.36-3.59-4-4-1.2-2.26,3.74-2.9,4-4.78l-1.83-3.4c-4.31-1.33-9.82.87-13.84-1.31,1-1.09.09-2.7.72-3.89,2.62-1,.43,1.58,4.73.08q2.79-1.3,2.9-3.32c3.29-.93,5.87.23,9.46-1.59.75,1.92,2.31,7.79,4.39,9.9,2.91-1.06,3.51-4.25,1.08-5,4.19-1.83,7,.57,10.56.45L26.69,143c1.64.91.9-.63,1.81-1.86,1.3-1.75,2.34-2.63,2.9-5.07,1.92.19,3,2.93,4.74,3.58,2.79-1.41,3.19-3.44,2.54-5.75-2.32-1.35-6,1.42-8-.95-.16-.62.36-1.07,0-1.75,2.25-1.15,5.13.46,6.19-2.45-1.92-2.54-4.21-4-7.29-3.08-1.21-3.46-4.13-1.87-5.84-3.87-2,1.69-2.77,0-4.73,1.67.77,3.11,2.66,1.72,2.2,5.82-3.34,2.26-4.35-2.39-6.56-3.48,4.73-3.73,10.54-8.13,17.82-8.72,0-1.56.69-2.93.35-4.57,1.75-1.1,2.84-.18,4,.47,1.83-1.07-.39-3.21,1.44-4.29-.91-1.43-2.62-.47-4.37.6-.79-2.34-3-1.8-2.2-4.08,1.26-.79,2,0,3.28-.88-.1.94-1.3,1.6-.36,2.82,1-4.61,4.54-.6,8.36-3.63.61,1.72.83,3.33-.35,4.57.85.44,2.05-.2,2.55,1.25.34,3.53-2.53,0-4,3-1.32,3.73,6.29,7.84,1.48,11.47-.77,2,4.81-.15,3.65,3.29-.54,1.6,3.81,2.49,6.92-1.09.28-3.84-6.18-5.49-6.21-8,2-1.87,2.21,1.66,3.64,1.54,3.73-1.06,6.25,1.49,9.12,3-2.42,2.47-.84,6-4,8.28,1.4,1.74,3.57,1.18,5.83.37,2.12.78,4.34,1.25,6.2,2.8A68.3,68.3,0,0,0,70,141.54c.75-2.16,1.84-1.22,3.27-.89.25,3.32-3.57.19-4.36,4.1.86.81.6-.42,1.46-.78.42,2.34.47,2.44,2.19,4.07-4,3.58-4.8-2.25-7.66-2,.82-2.27-1.41-1.74-2.19-4.07-2.7-.22-5.31-.72-8-.94-.56-1.51,2.36-2.1,1.81-3.61a26.88,26.88,0,0,1-4.74-3.58c-4,.45-5.51,6.64-7.27,3.92-2.46,1.89-.29,5.36,1.84,6.89.19,2.11-2.81-.87-4-.47-3.35,2.43-3.59,2.64-6.91,2.85.91,3.17,3.14,2.44,4.38,4.65a4.08,4.08,0,0,1,1.81-1.86c.39,2.24.07,4.29.75,6.61,3.23.68,4.72-2.64,5.09-4.49,1.6-1.22,2.25.39,4-1.28-.12.84-.22,1.69.73,1.36-.78,1.41-2.37,1.42-5.09,2.74,1.63,1.6-.08,2.31,1.1,3.79,1.66.37,3.6-.1,5.46-.31,1.72,3.28-5.61,2-3.27,4.39-2.59.63-4.84.22-7.28.42-1.71.08-1.34,3.34-2.91,1.57-2.11,1.92.18,1.86,1.46,2.71-1.41,1.24-1.73-.74-2.92-.18-1.86.87-1.67,2.28-2.9,3.32-1.69.3-2.91-.77-4-2.22-3.74,3.29-11.36,5.57-11.63,9.77,1.59,0,2.74,1.28,4,2.22,1.77-1.05,1.57-2.49,3.64-2,.74,2.63-4.4,1.94-2.53,5.75-2.06-.35-.89.56-2.91,1.57,3,2.86,9.26-.93,9.82-4.42,2.25-.78,3,3,5.83.37,2.08,1.71-2.07,1.78,0,3.5,1.69-2.14,4.1-6.16,7.27-7.42,2-.82,3.56.16,5.46-.31.61,2.1-1.79,3.42-2.9,5.07-2,.51-2.79-2.31-5.46.31,1.38,4.16,4.9,2,6.21,6.29,2.8-2.82,3-1.6,5.46-.31,5.13-1.57-.07-5.85,3.26-7.89a8.53,8.53,0,0,0-5.1-2.51Q51,175.6,53.72,174c1.83.46,2.89,3.2,4.74,3.58,3.34-2.85,4.89-.4,7.28-.42.89-2,1.33-2.69,4-3-2.15.42-3.2-2.27,0-3.5,1.52-1,1.63,2.23,2.56,3,1.67-2.21,2.95-1.3,4-3,1.71.8,4.62-1.93,5.83.36,1.69-1.33,4.55-5.36,6.91-4.59.91-2.23-3.17-4.63-4.75-5.33C78.41,163.79,79,166.36,73,168c-2.36-2-1.48-3.46-4.38-4.65-1.72.91-1.51,2.32-4,3-2.14-3.53,3.17-3.36,1.81-7.1.66-.19,1.09.29,1.82-.11,2.17.63,3.33,4.23,6.2,2.8,1.18-2.89-3.53-4.28-2.57-6.51,1.46-2,2.07.71,3.28.86a19.1,19.1,0,0,0,2.55-.49,12.15,12.15,0,0,0,6.19-.7c.72,1.35-1.52,1.93,0,3.5,1.33.18,3-.78,4.37-.6,2.51-.7-.37-2.82,2.9-3.32.66-.19,1.09.29,1.82-.1a7,7,0,0,1,.38,5.93c-1.18,1.4-4-.76-2.56-1.26-1.63-1.48-1.4,2.27,0,3.5,4.68.24,9.22.91,14.2.23,3.75-5.13-2.89-6.92-5.85-10.87.1-.94,1.29-1.6.36-2.82-3.12,1.47-1-2.58-3.65-3.29-.22-1,.71-1.76.36-2.82,3-1.13,1.56,2.34,4,2.22,1,0,2.74-2.18,3.64-2,5.56,1.37,3.86,9,11,11.63,2.17-1.18,1.52-3.09,3.27-4.39,2.75-.14-.44,6.72,4,4,.34,3-6.6.56-3.27,4.39-2.38,1.75-3.08-1.44-5.46.31-.76,1.74-.91,3.65-4,4.78.69,2.66,2.35,2.43,3.65,3.29-.43,1.44-2.8,2.37-4.73,3.43-.08,1.92,1.26,4.22.38,5.93.59,2.39,2.7.23,3.29,2.61-3.78,2.37-5.48-1.4-9.46,1.6-2.32-2.59-7.54-3-13.11,1.8.14,1.2,2.74,3.06,1.1,3.79-3.61.62-3.49-2.83-3.65-5l-4.37,2.35a4.76,4.76,0,0,1,2.56,3c-2.74,1.37-2.36,0-2.92-1.93-5,3.12-7.24-2.06-10.93-2.88-2,1.06-1.87,4.69-4.36,2.35-.14-.73,2.25-3.54,2.54-2.25,1.19-1.39-3-1.66-4-2.22-2.54,2.57,1.06,3.12-1.81,5.36,1.65,1.8-.18,2.68,1.47,4.47,2.12-.42,3.86.32,6.19-.71-.4,1.37.3,1.21,1.1,2a16.54,16.54,0,0,0,2.19,2.33c.39.24,2.66-.84,2.55,1.25-.08,1.37-1.19.4-2.54,2.24.79,2.35-.87,4-2.54,5.75-2.85-1.54-5.25-4.42-8.39-5.12-1.55-2.94,2.64-4.36-.38-7.68a2.25,2.25,0,0,1-2.91-.18c-1.46,1.17-3.1,3.69-4.73,1.67-2,1.11,2.73.92-.72,2.14-1.1.32-1.52-1.38-2.19-2.33-3.15,1.1-6,1.32-9.46,3.35-1,1.09,1.79,3.19.37,4.18-2.21,1.84-2.55-1.86-4.37-1.15q-3.17.92-1.08,3.21c-1.88-.31-3.29-2-5.1-2.51-1-2-.83-3.72,2.17-4.68-2.89-2.7.74-3.69-.38-5.93-.72.36-1-.53-1.46-1-3.22,2.14-5.39,1.18-7.27,3.92-.75.15-4.17-.13-2.55-1.25-3.8,1.27-7.08,1-10.56,1.31-.8-1.92,1.67-4.24-.74-4.86-1.41,1.89-1.53,2.64.37,4.18-3.57.47-2,5.25-5.45,3.82-2.42,1.85,3.81,2.38,0,3.5.63.78,2.65-.28,2.18-1.17,3.17-1.09,1.76,3.17,3.65,3.3,3.5-2.89,3.17-1.42,6.91-2.85.27,1-1.52,1.54-2.54,2.24,2.42,2.39.43,3.62,1.11,5.54,3.92-1.61,5.34,4.17,9.11,3,2.51-.7.39-2.62,2.9-3.32,2.56-.36,5.94-1.58,8.37-1.88.74-.09,1,.31,1.46,1,1.12-.68,3-1.17,2.54-2.25,2.37,1.21,4.75,2.39,8.38-.13-.13,1.52-2.69,2.4-3.63,3.71-4.65.56-9,.1-13.46,4.62,1.79,1.16,4.17.59,6.55,0,1.79-.6,1.9,3.79,4,2.22,2.11-1,.79-2.9,1.45-4.28,2.09,1.43,5,.5,8-.81.12-1.72-.8-3.7-1.11-5.53,1.1-.92,1.66-.21,2.19.57,1.37-2.46,2.58-2.76,0-5.25a2.25,2.25,0,0,1,2.91.18c1.45,2.33-2.69,3.18-.71,5.64,2.71-2,.72,2.2,2.93,3.69-2.25,2.32-1.67,5.39-5.44,7.32,1.81,1.83-1.13,2.42-.72,3.89a4.88,4.88,0,0,0-3.27.89c-2.37-2.57,1.26-3.56-.38-5.93-2.18-.58-3.35,2.08-4.73,3.42,3.05,2.54.84,4.14,1.11,7.29-2.85.21-5.23-1-8.38.13a50.37,50.37,0,0,1-4,4.78c-1.31,1-2-1.19-1.46-1-3.09-1.2-6.08-.08-8.74-2.3l-2.91,1.57c-2.9-.08-6.19-2-3.65-5,3.52-1.49,1.48,2.54,5.1.76.4-1.26-.47-2.85-1.47-4.47.92-1.89,3-3.5,2.53-5.75-.58-2.38-2.7-.23-3.28-2.61l-2.18,1.18c-1.77,1.14-2-1.2-3.64-1.54-1.1-.23-3.77,2.4-4-.47-2.49.71-2.28,2.12-4,3,1.58,1.78,1.2-1.49,2.91-1.57q-.11,2-2.9,3.32c3,3.51,0,5.44.75,8.36l-5.82,3.13c1.74-2.07,4-4,5.08-6.25-1.4-.55-2.26-2.7-4.37-1.15-.86-2.74-3-1.76-4-4-.46-2.33,2.31-.1,3.63-2C3,205-2,207-3.75,203.19c-5.21,1.16-1,4.8-6.18,6,1.29,3.15,3.43,1,3.29,4.36-3,1.18-4.57-1.76-7.29-1.33q-2.71,1.62-1.45,4.28c.74,1.91,2.46.93,4,.47,1.12,3.33,2.18,6.65,5.12,7.76-.66,1.77-.28,3.82,1.47,6.22-.23,1.81-2.37-.79-3.64,2l2.93,5.43c.79-.56,1.37-.55,1.82-.1,1.57-1.14,3.17-2.28,1.44-4.29,2.82,1.15,4.88-.85,3.63-3.71,3.33-.79,1.51,4.54,5.11,4.26,1.68-.54,1.68-1.5,2.54-2.25,2.31.81,4.68,1.41,7.65.26-.21,2.08,1.87,4.77-.35,6.32a44.28,44.28,0,0,1-4.75-3.58c-1.37.54-3.27,2.65-3.64.21-.19,2.86,1.55,4.48-2.9,5.07,1.61,2,1.21,3.43,1.83,5.15,3.42.35,5-2.25,9.82-4.42a5.92,5.92,0,0,1,5.83,2.11c-3,1.82-3.74-3-7.28.42,1.63,1.59-.08,2.31,1.1,3.79,3-.12,7.15-3.55,9.46-1.59-.73,1.73-7.45.18-7.27,3.92-2.45-.37-4.28-2.61-7.29-1.33.52,1.11,1.74,2.4.74,3.11-2-1.75-4.56-1.79-7.29-1.34-.62-3.5-2.31-6.47-6.2-4.54-2.32,1.33.1,3.91-4,4.78-1.52,1-1.63-2.23-2.56-3-.81,1.3-.69,2.72.74,3.11-2.69.93-3.73-3-6.56-1.72-.16-.62.37-1.07,0-1.75,2-2.45,1.68,2.07,3.28.87,2.75-2,4-4.39,3.62-7.21-2.26-.65-2.77,1.74-4,3-3.19-.59,1.72-3.88-1.47-4.47-2.4-.64-2.61,2.27-5.82,3.13-1.4-1.13-3.52-.13-5.82,1.38-1.93,4.33,5.27,5.63,2.94,8.94.82,1.1,2.09.88,3.64-.21,2.41,4.9,6,4.35,9.11,3-.16,3.43,2.35,4.74,4.75,5.33.22,2.78.84,5.66-1.44,7.78C-6.45,270-6.78,268-8,268.55c-2.16,0-1.79,3.23-2.91,1.57-1.7,1.69-.94,4-.35,6.32,2.88-1.2,4.37-2.12,6.92.66,1.59-.55,2.2-1.37,1.45-2.54C-.4,274-2.1,277-1,278c1.2-.89,1.84-.16,1.09.29A7,7,0,0,1,6.64,280a34.48,34.48,0,0,0,1.08-5c1.66-.53,2.45.57,2.92,1.93.08.24-1.13,1.34-1.09,1.47.15.47,1.12.57,1.09.29.18,2.2-.59,5.12-2.17,6.43-1.78.58-2.1-3.19-3.29-4.37-1.56,1.73-.28,4.2-1.44,6C2.33,288,2,286,.83,286.61c-3,.77,1,3.38-1.44,4.29-2.84.78-5.18.05-7.65-.26-2.32,1.8.88,3.19,2.92,1.94.8,4.35-5.27,2.9-8.73,4.7-1.39,0-2.23-1.62-3.28-2.61-3.57,1.39-.16,4.62-2.17,6.43-1-.15-1-2.52-3.29-2.61-.88.93-1.29,2-2.18,2.93,2.72,4,3.47,2.89,5.84,7.36,1.48-1.16,1.53-2.7,2.54-4,1.13-.41,1.35,1.9,2.55,1.25.51,1.69-3.43,2.21-4.72,3.42,2.22,1.16,2,5.71-.71,7.39,2,1.64,3.85,3.88,7.28,1.33-3.31-2.61-.41-4,1.08-6.71,3-.28-.62,2.47,1.1,3.79.9.27,2.21-.67,2.91.18,2.33.12,1.38-2.36,2.91-3.31,1.05-.66,5.43-.64,5.45-3.82,1.27-.22,2.38,0,3.64-.21.47,4.23-3.33,3.76-5.44,7.32a5.44,5.44,0,0,1-2.55-1.25c-2.46.91-.94,2.86-2.54,4,.66.66,4,2,3.64-.21a17.82,17.82,0,0,0,10.2-.24c.27,1-1.52,1.54-2.55,2.25,1.58,3.54,4.31,3.68,7.29,3.09a3.51,3.51,0,0,0-.37-2.43c.91-.34,1.28.91,1.83,1.65,3.64-2,6.75-2.37,8.38,1.62,4.72-1.48,5.42,2.92,7.66,5.52,2.87-.21,3.33-1.49,5.82-3.13,2.61-.9,2.43,2,2.92,3.68,4-2.44,9.21-1,9.11,3-6.57-1.79-11.18,7.32-16-.13-2.7.47-1.68.83-4.36,2.35-.89-1-.12-1.58.73-2.14-1.88.27-4.5,1.81-6.55,3.53-1.4.62-1.69-2.06-2.92-1.94-2.49.71-1.51,2.33-4,3,.63,3.15.21,4.73-3.63,5.46-5-1.19-9.81-2.68-15.3-2.28,1,1.8,1.82,4,3.29,4.36,2.05,2.87-2.9,3.9-1.08,6.72-3.55,2.3-4.67-2.62-8.38.13,1.29,2.11,1,4.67-2.9,6.82-2.73,1-4.15-1.8-7.64,1.49-1.07,3.19,4.43,5.32-1.44,7.79.25,1.81-.1,3.47,1.11,5.54,2.52-.41,2.83-1.31,5.82-3.14,1.86,2.24-1.64,3.07-2.18,4.67q2.08,2.3-1.08,3.22c.79.39,3,1.59.37,2.43.47,2.13,3.17-2.33,3.64-.21-1.55,2.58-3.94,3.64-6.91,4.6.91,1.43,2.62.47,4.37-.6.43,2.32-.68,1.35-2.54,2.24,1.16,2.83.6,2.36,1.11,5.54l3.64-2-2.19-4.07c2.65-.27,4.06-1.29,4.73-3.43,2.68-1.48,4,1.15,6.19,1,3.22-1.76,8.42-2.45,9.82-4.42C2.53,378,.54,378-1.85,379.2c.1-.95,1.29-1.6.36-2.82-.29-1.63,3.57-2.17,1.44-4.29-2,.51-4.48.64-2.9,3.32-1.6,1.22-2.25-.39-4,1.28l-1.83-3.4c3.37-1.68,3.15-1,5.82-3.13-1.58-.43-2.49-2.06.35-2.83-.79-1.75-2.27-1.48-3.28-2.61-2.09-.9.65-1.88,1.08-3.22.29-.89-.54-2.1.36-2.82,2.4-1.94,6.89-1.77,8.38,1.62,2.28-1.15,1.06-3.22,0-5.25A2.36,2.36,0,0,0,1,356.63a4.76,4.76,0,0,0-1.1-3.79c5.22-3.52,9.54-1.71,13.46-6.38.72-1.94-2.13-1.57,0-3.5,4.16,1.69,4.24,9.71,10.22,8.52-.53,1.41.87,3.33,1.83,5.14l-2.91,1.57c-1.71,1.55-1.2-3.48-2.92-1.93-3.46,2.22,1.9,2,2.56,3-.64,3.49,2.19,8.15,5.12,9.51,3.07-.93.91-3.33,1.08-5s2-4.65.35-6.32c3.17-2.59,7.58-2.59,8.73-4.7-1.95-2.47-4.56-3-8-.95-1.4.62-1.69-2.06-2.92-1.93.24-2.24,4.09-2.63,3.63-3.71,1.37-.52,2.29.28,2.92,1.93,2.42-1.88,3.58,0,5.82-1.38-.35-2.43,2.82-3.92,4.36-5.85-.8-2.32-2.92-.74-4-2.22.26-1.12,1.23-.94,3.27-2.64,1.34.14,2.43,1,3.65,1.54,3.73-4.15,10.76-4,15.28-4.73,1.43,2.5,1.86,1.5,2.2,4.08-2.43,1.31-3.67-.88-6.19.7-1.29,1.8,3.28,5.14,1.84,6.9,3.24-.18,5.6,2.24,8.75,2.3,4-2.85,6.84-6,5.8-10.14-2.18,0-3.81-1.65-6.19-1,.86-2-.5-2.45,0-3.5-.92-.44-2.23,1.1-4.37.6.5-1.69,3.51-4.26,0-5.25,1.32.17,3-.78,4.37-.6,1.64,1.6-.08,2.32,1.1,3.79,1.42-3.48,6.6,1.45,6.55-3.53-.44-1.63-1.73-.73-2.91-.18-1-3.47-.64-8-3.67-10.29-2,.83-1.11,2.43-.72,3.89-2.92-.92-3.74,2.46-5.82,3.13s-2.27-.63-5.1-.76c-2.16-.1-5.8,2.1-7.65-.26.34-1.07.7-2.15,1.08-3.21a2.38,2.38,0,0,0-2.19-.58c-.22-1,.7-1.76.36-2.82,3.83.46,2.78-4.21,6.55-3.53.55,2.41-3.23,2.19-2.9,3.32,2,3.58,7.17-2.43,9.11,1.22,2.63-.66,1.68-2.28,2.91-3.31,3.47.7,6.16-.94,9.1-2.27,1.48,1.56-.8,2.12-1.08,3.21,2.28,1.06.79,2.22,2.92,3.68,2.64-.76,4.51.74,6.56,1.73,2.64-2.36,3.11-1.9,6.55-3.53-1-4.36-2.53-4.79-5.12-7.76,4.94-2.29,5.34,8.87,10.94,4.63-.69-2.66-2.35-2.43-3.65-3.3,0-1.75,2.64-2.8,1.08-5,2.47.91,6.24-2,7.66,2,1-1.61,2.67-3.58,2.17-6.43q-3.17.92-1.09,3.21c-4.16-.21-4.69-6.12-9.49-7.16.87-1.31,1.06-3.48-1.46-2.72-.26-2.09,3.49-2.82-.74-3.11-.34-2,2.06-3.34,2.9-5.07-1.73-1.64-1.78-1.74-2.19-4.07,5.41-3.08,2.32,9.2,8,6.19.24,1.81-4.57,2.3-2.17,4.68,2.31-1.4,4.36-.29,2.9-3.32,4.16-.63-.07,2.43,2.56,4.76,2.68.71,2.88-2.2,5.82-3.13,5.55-.59,11.41-2.08,17.11-3.09-1.14-2.5-2.68-3.8-4.74-3.57a4,4,0,0,1,1.09-3.21c2.4-1.2,5.06,2.1,6.19-.7-.74-1.91-2.21-1.69-4-.47a5.85,5.85,0,0,1,1.45-2.53c1.53.16,2.84,1,4.37,1.15,1,1.63,0,2.72.38,4.18,2.78,2.94,6.84,2.08,11.65-1,1.55.68,3.42.45,4.38,2.9.75-2.26,3.27-.73,5.1-1a3.48,3.48,0,0,0,.37,2.43c-6.08,1.42-10.65,7.47-16,5.12-.91-2-1.91-3.75-4-2.22.46,1,.92,2,1.83,1.65.22.83-1.2,1.24-.72,2.14-1.33,4.24-5.88,4.73-9.09,7.52a2.27,2.27,0,0,0,2.91.18c-.36,1.28.12,1.74,1.46,1-.13,3.05-3.18.21-4.73,1.67.5,1.68-3.44,2.21-4.73,3.42,1.83,1.84-1.86,2.23-1.81,3.6-2,.76-4.18,1.8-5.82,1.38-.72,2,.09,1.56-2.54,2.25,1,2.71.87,3.33-.35,6.32,2.66,4.51,7.75.73,8.39,6.87,2.46-.91,2.32-2.5,3.63-3.71,2.45-1.34,5.16,1.82,6.55-1.78.67,2.9.88,5.67-2.53,7.49,2,1.85,1,2.44,3.29,4.36-3.3,2-5.7-.48-6.55,3.53-2.15-.69-4.7-.17-7.28.42-1.71,1.94-.88,2.79-5.46,3.81a3.48,3.48,0,0,1,1.83,1.65c-2.5.93-3.48-2.62-6.19-1-.94-2.51-2.34-3.65-3.66-5-2.65.8-5.66,2.66-7.64,1.49-2.49.71-2.28,2.12-4,3,1.57,4.58,5.32,6.65,5.49,10.19,3.26-.84,5.79.49,9.47-1.59q2.08,0,3.28,2.61c-2.22,1.28-3.92,1-5.82,1.38-2.87.73-.8-3.09-4.73-.08.94,3.1,3,2.88,4,5.72-2,1.21-2.86-.94-4.37-1.15-1.76,1.67-2.4.05-4,1.28a5.45,5.45,0,0,1-2.55-1.25c-3.6,3.06-7.45,2.73-8,6.06-3-.23-6.4,1.73-8.37,3.63-1.66-.37-2.91-2-5.46.31.12,3.76,2.46,4.5,1.48,8-2.32.46,0-3.07-2.56-3-3.22,4.55,3.26,8.19,5.5,11.94-1.71,1.52-2.16-.65-3.28-.86-4.15,2.89-7.16,2.41-10.92,4.13.4,2.75-.87,1.85,1.47,4.46-.91.35-1.21.85-1.09,1.47-3.1.87-2-2.44-3.29-4.36-.08,1.53-1.07,2.82-3.63,3.71,2.7,3.82-2,5.69.39,9.43,3.67-.21,8.65-3.39,10.92-4.13,1.57,3.33-3.46,4.92-4.35,7.6,1.59,0,2.74,1.28,4,2.22,3.21-4,5.13-.45,9.46-3.34.12,1.78,2.16,4.07-1.08,5,1,1.8,2.56,3.78.74,4.86.54.73,1.64-.14,2.55-.5,4.34,4.64-1.55,6.59,2.22,11.08,2.92-1,5.32-.49,8.73-2.95l-1.46-2.72c1.84-.16,2.94,1.86,5.1.76-3-3.12,1.07-4.38,2.17-6.43-.54-.72-.49-1.29,0-1.75-2,.13-2.7-3.78-5.47-1.44.94-1.7,1.81-3.41-.38-5.93-.77.3,0,2.58-.36,2.82-3.47,2.14-1.16-5.38-4.75-3.58.87-3,5.23-1.46,5.09-4.49.66-.19,1.09.29,1.82-.11,1.52,4.82-.47,7,3.67,10.29,3-1.22,3.88-4.85,5.46-.31.65-2.09,3.26-2.18,5.09-2.74-.11,3.45,4.62,1.3,2.92,3.68,1.17,1.19,1.91.83,2.55-.5.88.75.08,1.27,0,1.75a24.12,24.12,0,0,0,0,3.5c-.85.94-4.19,1.23-3.27,2.63-1.64.76-2.49-.87-3.29-2.61-1.28,1.67-2,.9-2.91,3.32.54,2.53,2.9-.36,3.64,1.54C99.66,424.55,89,422.82,93,428c4.05-2.93,5.69-3.93,9.46-3.34,2.22-2.76,3.1-2.26,3.63-5.46,2.83-.34,7.09-3,6.92.65,5-1.6,2.71-6.23.34-8.08-.77-1.85,1.75.26,2.91-1.57.75,1.17-.12,1.91.74,3.11.81-2.58,2-.12,3.64-.21q2.8-1.31,2.91-3.31c3.14-.5,4.34,4.76,8,2.69l1.46,2.71c1.46-4.2,4.62-1.9,8.73-4.7-.45-3.87-3.53-.75-5.1-.76-2.63,0-5.44-.94-7.65-.26-.57-1.27-1.66-1-2.19-2.33.68-2.34,4.12-1.26,5.45-3.81,3.35-.54,4.78,4.64,9.11,1.23-1.32-2.55-3.9-1.37-4.75-5.33a11.73,11.73,0,0,0-5.82,3.14c-1.9.92-2.67-1.5-3.65-3.29-1.55.45-2.61-.48-4.37.6-4.45-1.51-8.46-4.34-13.85-3.06,1.05-3.5-1.22-5.11-4.38-4.65-.29-2.31,3.19-1.48,4.37-2.35-1.68,2.73,3,1.37,1.46,2.72.47,2.12,3.17-2.33,3.64-.21,1.6-1.52,1.36-3.53-.38-5.93-2.07-.53-1.1,1.11-3.63,2-2,.85.37-1.71-1.46-2.72,4-1.16,6.42,2.15,11.29-1.7,1.38,1.21,3.39.52,4.38,2.9,3-1.28,2.49-.71,5.82-1.38,2.08,1.71-2.07,1.79,0,3.5,1.75.79,7.1,0,5.84,3.87,1,.26,2.24-1.14,3.64,1.54,2.19-1.75,2.42-4,4.36-5.85-.79-1.2-2.69.91-3.64.21-.86-2.68,3.48-2.91,4.73-1.67,5.4-3.66,8.22.34,13.47-2.88,2.55-.75,6.29,1.23,8-2.56a4.38,4.38,0,0,0-4.37-1.15c-1.43-2.9-3.36-3.08-3.29-6.12-1.45.77-1.92-1.35-3.64.21-1.67-1.8,2.06-2.18-.37-4.18-1.73-.51-3.55,1.54-4,3a12.19,12.19,0,0,0-6.19.71l-1.46-2.72c-2.51.7.37,2.82-2.9,3.32-1.63.63.08-2.38-2.19-2.33-.63-1.43,1.53-.84,1.46-.78,3.32-2.33.51-4.22,5.82-4.88l-.73-1.36c-.46-1.81-6.14.91-6.55,3.53-1.55.48-2-2.33-4-.47,1.27,1.1,3.73,1.46,2.92,3.68-3.17,2.94-3.68-2-6.56,0a4.76,4.76,0,0,0,1.1,3.79c-3.35,1.38-.42,2.93-4,3-.25,1.29.68,2.9-.72,3.89-1.66-2.12-4.71-.15-7.28.42.89-2.62-2.13-2.66-2.93-5.43,3.91-2.18,5.09,3.72,9.47.16-2-2.42-2-2.44-2.93-5.43-3.07-.91-4.4,1-6.56,0-1.37.42-1.09,1.27-.72,2.14-2.18,1.16-3.42-.44-5.46.31-.69-1.54,1-2.44,2.9-3.32-2.92-1.5-4-3.53-3.66-6.79q7.57-3.93,12,1.42c3.42-3,8.11-.62,9.82-4.42,1.72-1.56,2.19.56,3.64-.21,3.64-3.12,2.52-7.5,9.81-9.67-.73-3.14-2.76-2.41-4.38-2.9,2.4-3.73,4.19-.13,9.82-4.42,0,2.3-2.53,3-4.73,3.42,3,1.77,2.22,4.45-.35,6.32,1.78,0,3.46.32,5.46-.31-2.46,3.59,2.7-.14,4,2.22-2.14.48-3.88.8-4,3-1.54.46-2.36-1.24-4.37.6-.3,1.82,2.45,2.56-1.45,4.28,2.61,2.27,6.38,1.08,10.56-1.31a2.28,2.28,0,0,1-1.45,2.54c1.64.44,2.84,2.16,4.74,1.83-.88,2.82,2.37,3.35,3.29,6.12a5.69,5.69,0,0,0,4-1.28c.88,1-.29,2.07.74,3.11,0,0,.76-1.45,1.09-1.47.49,0,2.43,3.09,4.73.08-1.89-3.48,2.33-4.06,3.63-5.46-.56-1.27-1.66-1-2.19-2.33,4.82.07,7.13-3.74,12.73-4.23a28.15,28.15,0,0,0,4.36-5.85c.55.73.49,1.3,0,1.75,1.17-.32,4.6-.51,8-2.56-.6-3.49-3.05-1.52-4.37-2.9-.62-2.29,1.91-.19,2.91-1.57a16.56,16.56,0,0,0,4.75,5.33c.49-1.79,3.67-2.69,4.36-4.1.34-.69-2-2.61.36-2.82,3.36-.87,0,1.07.37,2.43.1.34,1.34.88,1.79,1.6a4.55,4.55,0,0,0,.4.86c.06.6-.52.87-1.09,1.33,2.57,1.8,4.47,5.58,7.66,5.51.53,2.86.4,5.55-2.53,7.5.39,1.21,1.32.8,1.82,1.65a4.07,4.07,0,0,0-2.55.49c.74.76,1.86.38,2.56,1.26-.26,1.11-1.24.94-3.27,2.64-2.44-2,1.3-2.38-.38-4.18-1.08.3-2.89-1.86-4.37-1.15-.33.16-.83,1.08-.36,1.07-1.93,0-3.09-1.63-5.46.31-.85-2,1.27-3.17,1.08-5-1.35-2.48-3.71-1.94-5.47-3.19-5.77,3.16-7.75,6.59-13.09,7.05l2.56,4.76c-2.44,1.93-3.75.52-6.19,2.45-.33.88.57,2.09-.35,2.83,3.63,1.59,8.7-1.08,12,1.41-2,1.26-3.92,2.22-4.73-.08-2,2.79-1.59,3.55-5.81,4.89,0,2.22,4.28-.18,2.19,2.32,1.65.42,3.78-.62,5.83-1.38.49,1.88-.37,3.4-1.08,5,3,2.83-.07,2.44,2.56,4.76a19.69,19.69,0,0,0,3.63-3.71c2.65-1.4,4.27.27,5.47,3.19.9-1.78,5.34-2.77,7.64-3.24-.46,4.23-6,2.23-8,6.06a.78.78,0,0,1-.73-1.36c-4.52-.52-7,3.26-12.37,4.91.29,1.83-2,3-1.08,5-4.57,1.79-8.23.87-12,.34.67-2.35,2.42-4.42,4-6.53-.55-1.88-1.89-3.93.35-6.32-3.49-.82-8.55,3-12.37,3.16-1.13-1.06-4.68-4.68-8.38-3.37q-1.4-2.12,1.09-3.21c-3.17-2.54-3,2.66-4.36,4.1,2.38,4.13,6.12,4.21,10.21,3.27,1,1.62,1.87,3.21,1.47,4.47-1.06.74-1.09-1.43-1.82-1.65-.35-.1-1.08.8-1.46.78-2.33-.09-3.5-1.17-6.19-1-2.51.71-.39,2.62-2.9,3.32,1.17,1.47-3.51,1.41-1.08,3.21,2-2.78,4.61-.52,8.37-3.63,1.07,1.25.47,2.07.73,3.11-1.56,1.08-2.82,1.31-3.64.21-1.64,1.69,2.62.22,2.56,3-2.64-2-3.82,2.73-5.83-.37l-5.82,3.13c-.17-1.79.5-3.37,3.27-4.39-2.72-2.54-1.26-5.21-2.94-8.94-.42,1.45-3.21,2.27-3.63,3.71,1.48.32,2.17,3,3.65,3.29-1.51,2-5,2.27-5.45,5.56a15.62,15.62,0,0,0-8.36,5.38c.77,2.43,2.2,2.89,3.29,4.36,3.59-1.61,4.84-.18,7.64-3.24,1.72-1.57,2.19.56,3.64-.21,2,.86,1.16-2.15,2.18-2.93.66-.5,2.76-.54,4-1.28,2.4-1.43,3-3.77,5.82-3.13.17,0,1.38,1,1.46,1,.36-.09.54-1.57,1.09-1.46,2,.41,4.35,1.57,4,4-2.32,2.18-2.52-1.92-4.73-.08,1.41,1.35,4.28,3,3.65,5-1.4.63-1.69-2.06-2.92-1.93l-5.09,2.74c.77,1.42-1,5.1-2.54,4-1,.9.55.52.73,1.36.29,1.38-1.72,2.14-.72,3.89-2.57.88-3.13,2.29-4.73,3.43-1.16-2.26,3.38-4.77-.38-5.93,1.52-2.32,6.56-3.71,3.62-7.21a9.88,9.88,0,0,0-4.36,5.85c-2.09.31-3.4-1.69-6.19.71-.4,1.25.47,2.85,1.47,4.47-1.95-.69-4.34-.06-6.55,0-1.7.14-1,2.19-1.45,2.53-1.06.87-2.35-.23-3.28.88-.34.41-.46,5.35-3.63,3.71-1.4,1,1.45,3.1-.72,3.89-1.42.66-1.72-2-3.28-.87-.06-1,4.23-1.25,1.45-4.28-1.72,2.28-3.82,2.62-6.19,2.45-1.17-2.41,1.94-1.78,2.54-2.24.45-.35,1.39-2.46,2.18-2.93.59-.35,1.62.27,2.55-.49,0,0-1.51-.65-1.46-1,0,.1,2.75-.09,3.27-.89-2-4.23-8.22,3.61-8-2.69-4.2,2.42-4.52,5.32-8.37,3.63-2.18,1.76-3,3.88-1.08,6.72-2.66,2-3.89-.22-6.55,1.77a2.11,2.11,0,0,1,.36-2.82c-3.33-.84-3.43,4.12-5.45,5.56,1,1.81,2.37,3.73,1.83,5.14-2.91,1-4.82,1.16-5.45,3.82,2.3,3.18,5.33,4.18,8.39,5.12.94,2.89-3.55,4.36,1.1,3.79-.56,1.6-2.6,2.81-4.36,4.1-.89-1-.12-1.59.72-2.14-2.88.31-6.09,1.58-8.38.13-2.34.94-.32,3-.35,4.57.72,1.35-1.52,1.93,0,3.5.72-2.29,2.4-1.18,4-1.28-.34,2.44.19,5.1-1.8,7.11l1.83,3.4c.56,1.22-1.9,1.31-2.54,2.24-.14.21.77,1.09.73,1.36-.35,2.22-4.71,1.13-5.09,4.5-2.11-.51-1.57-2.37-2.2-4.08,1.84-.87,3.56-1.78,4-3-1.15-2.45-3.66-.91-5.1-2.51-.19,1.65-.84,4.45-3.64,3.71-1-2,2.47-2.85,1.08-5-3.4,1.86-4.46-3.24-8-.94-1.08-2.08-2-4.7-4.38-2.9-.72-3.3-1.07-3.11-2.93-5.43-3.25.48-6.21,4.06-10.91,5.88.17,2.05.54,1.58,1.47,4.47,3.22-.75,4.23-.2,6.91-2.85,3.54,3.07-2.54,3.61-.35,6.32,1.37-.54,3.28-2.64,3.64-.21,1.08-2.46,4.46-1.6,4.73-3.43,2.26,2.75,8.51,3,8,7.95-2.42.72-.09-1.83-1.46-2.72l-4.36,2.35c-3.81-2.82-10.82,3.84-12.76-4.52-1.17,2.57-3.79,1.52-5.09,2.74-.57.53.91,3.88-3.27,4.39.82,1.11,2.09.88,3.64-.21,0,1.94-1.22,3.57-.71,5.65-1.66-.37-2.91-2-5.47.31,1.23,1.11,2.85.87,4.37,1.15s2.85,2,4.73.08c-3.62-3.69,1-8.26,5.08-8,.92,1.41-2.42,1.69-3.27,2.64,1.12,1.27-.34,1.85-1.45,2.54,3.56,2.3,8-3.11,11.28-3.45,2.08,1.71-2.07,1.79,0,3.5,2.85,1,6.5-.47,10.55-3.06.64,3.17-4.8,1.71-4.72,5.17-2,1.71-2.4-1.11-4.37.6-.54,1.61.24,3.57-1.08,5-3,0-7.29.6-8.74,1.2-1.94,1.62,1.47,1.07,1.46,2.71-2.4,2.41-3-.44-4-2.22-3.67,1.59-4.92-1.33-6.2-2.79l-2.91,1.57c-1.28-2.09.71-3.32-1.11-5.54-.9-.27-2.21.67-2.91-.18-2.21,1.94-2.77,1.47-4.36,4.1-2.22,1.9-3.75.38-4.36,2.35.79,1.77,2.26,1.52,3.64,1.54,1.51,3.31-6.15,5.3-7.63,6.74-.83.81,1,2.1,1.1,2-1.09.89-3.11-1.53-3.64.21-1.42-1.08-3.2-1.11-4.74-1.83-2.66.66.21,2.77-1.81,3.6-1.78.59-2.1-3.19-3.29-4.36-3,1.55-6.92,2.4-9.09,4,.73,2.55,2.56,1.82,4.37,1.15,1.38,2.36,2.42,5.75,5.11,4.26.1,2.75-3.38,4.55-2.53,7.49l3.64-2,1.46,2.72c-.41,5-6.26,4.33-10.18,5.49-2.51.7-.39,2.62-2.9,3.32,3.44,3,9.21,7.57,13.12,3.45.39,1.46-1.42,2.35.37,4.18,0,1.75-2.64,2.81-1.08,5,4.69,1.09,7.38-2.12,11.28-5.2,2.08,1.71-2.08,1.79,0,3.5,3.36-2.29,5,.38,7.65.26,2-2.71,4.16-5.24,7.27-5.67.19,0,2.2-.3,1.82-.1.56-.29.31-1.26,1.09-1.47,2-.53,5.75.89,5.82-3.13,1.57-1.11,1.87,1.53,3.28.87-.13,1.52-2.69,2.4-3.63,3.7-.33-.67.6-1,1.09-1.46-3.29-1.58-3.67,4.27-1.44,4.29-3,.18-1.09-.26-4.73,1.67-1.51.8-3.06.7-4,1.28-3.16,1.92-4.77,6.31-8,6.06-1.56,2,3,.17,3.29,2.61,3.21-2.47,5.48-2.14,8-2.56a4.39,4.39,0,0,1-1.44,4.29c-2.43-1.69-.86-.8-4.37.6a4.05,4.05,0,0,1-2.92-.18c-.08.94.82,2.58-2.54,4,.55.73.49,1.3,0,1.75a8.42,8.42,0,0,1-5.46.31c1.56-2.89,5.77-5.09,8-7.81-1.64-2.12-4.07.84-5.46,2.06-.87-.07-1.74-.12-1.46.78a19.19,19.19,0,0,0-4.37-1.15c-2.4,1.39-3.12,3.43-5.46,2.06-.72-1.55,2.93-2,4-3-.84-3.39-3.66-.91-4.74-3.58-.79,2.27-4.81.84-5.1,1-1.46.77,4.91,1.92-1.45,2.53,1.22.52,2.68.28,3.65,1.54-2.93,1-4.53-1.88-8,.81.34.67-.61,1-1.09,1.46,1,1.11,1.21,4.63,3.28,2.61.07,2.21-2.21,1-3.64,2-1.8,1.19-2.67,3.46-5.09,4.49-1.83.79-4.15-.48-5.82,1.38-1.22.08-2.14-.72-2.92-1.93,1.63,1.7,8.77-.37,8.37-3.63-1.06-2.13-3.29-.84-5.46.31l-1.83-3.4c5.14-.43,7.63-1.45,12.73-4.23,1.26-1.42-2.6-4.18-1.1-5.54,1.44-2.18,3.59,1.85,2.19,2.32.92,1.46,1.36-1.87,3.64-2,.67-2-1.1-1-1.83-3.4,1-1.87,3.47-3.36,5.81-4.89,1-1.24-.83-.49-1.82.11-2.68.3-4-3.38-7.65-.26,1.5,1.95.4,3.22.74,4.86-3.79,1.27-5.71.35-8.75-2.3-1.8-.72-2.42,2.84-4.37.6-1.58-2.67.9-2.8,2.91-3.31.21-2.08-1.87-4.77.35-6.32,1.08-.28,1.79.58,2.92.18.29,1.63-3.57,2.17-1.45,4.28,3.62-.08,2.49-3.69,5.45-5.56-1-1.32-1.41,2-3.27.89.31-2.93-.48-4.61-2.2-5.83-3.14,1.31-4.32,3.13-5.82,4.88-2.27-.92-5.32.48-8,.81-1.66,1.7-1.89,3.78-1.44,6a2.25,2.25,0,0,1,2.91.19q1.4,2.12-1.08,3.21c-3.86,1,.44-3.24-2.92-3.68-.87.74.31,2,.74,3.1-.71,1.62-4.79,1.16-2.17,4.68-2.77,1.73-3.79-1.71-6.56,0,.39,1.46-1.42,2.35.38,4.18-2.26.46-4.89,1.87-6.55,1.78-3.39-.19-4.79-2.5-7.29-4.84a10.68,10.68,0,0,0-.7,10.89c2-1,.85-1.92,2.91-1.57.31.86-1,1.29-1.81,1.86,0,2.5,3.84,2.38,2.19,4.07,1.48,1.27.78-2.84,4-3A5.45,5.45,0,0,1-17,567c-3.55,5.77-8.34,3.21-13.46,4.62.75,1.17-.12,1.91.73,3.11.71,2.62,3.42-.73,4,2.22-.51.8-2.6,2.2-3.27,4.39a4.77,4.77,0,0,0,2.55,3c-2,2-5.09,3.72-4,6.53-1.07.82-1.6,0-2.55.5.24-1.3-.68-2.9.72-3.89-2-1.44-2.67,1.37-3.64,2a5.5,5.5,0,0,1-2.55.5c-.63.32-.68,1.45-1.82,1.85-1.84.65-3.14-.4-5.1,1-1.36.53-2.29-.28-2.92-1.93.25,2-2.89,3.13-2.9,5.06-2.76,1.12-3.72-3.09-6.56-1.72.31.85.81,1.12,1.46,1,.14,1.7-3.43-.26-4.73-.08-1.3,3.49-3.9,2.83-6.91,2.84-1.91,1.64-1.31,3.93-2.54,5.75-1.9,2.11-1.74-1.9-3.64.21.74,1.91,2.46.93,4,.47-1.15,2.47-5.2,5.09-8.36,5.38-1.67-1.8,1.29-2.38-.37-4.18-3.46,1.42-6.75-1-9.1,2.27.47,2.14,2.18.59,2.92,1.94.92,1.4-2.42,1.69-3.27,2.63-.88-1.59.17-2.67-1.47-4.46l-4.36,2.35a4.75,4.75,0,0,0,1.1,3.79c-2.12,1.56-2.77-1.2-5.1,1a6.14,6.14,0,0,0,.38,5.93c4.09-1.25,3.8-3.66,4.36-5.85a71.36,71.36,0,0,1,11.65-1c1.32,2.49-3,3.49-.35,6.32.29-1.09,2.57-1.66,1.08-3.21,3.15-2.48,7.92-4.53,10.18-7.24,2.07,1.5,2.67-1.27,5.46-.31,2.82-1.89,5-1.88,7.28-2.17,1.32,3.14,3.37,4.12,6.2,2.8-.8-1.75-2.28-1.49-3.29-2.61-.22-1,1.35-1.63.61-2.81,3,2.61,8.47-2.09,11.76-.35,2.6-4,6.49-5,10.55-6.55,1.8,2-2.49,2.46-.35,4.57-5.09,1-11.83,6.84-15.29,3-4.37,1.57-3.75,4.45-1.44,7.78,2-1.71,2.4,1.11,4.36-.6,2.11-.35,2.83,3.37,5.47,1.44-1.52-3.7,1.58-6.19,5.81-8.38,3.19,1.72,6.37,3.46,10.93,1.12,1.93,1.2-.9,3.85-2.9,3.32-.71-.19-4.16,1.63-5.09,2.74a4.94,4.94,0,0,0-6.55,1.77c2.06,2.12,5,1.65,7.29,3.08.15,2.08-6.77.08-3.27,2.64-2.44,1.93-3.1-1.41-4.74-1.83-3.62,1-3,3.1-5.09,4.49,1.48,3.27,4.56,1.79,7.29,1.33,1.18,1.67-2.54,2.05-.72,3.89,2.65-2,3.48,1.46,6.19-.7,1.65,1.79-.18,2.67,1.47,4.47,2.69-.93,3.71,3.11,5.47,4.94,1.55-.45,2.62.48,4.37-.6,2.67,2.84-1.66,3.84-.35,6.32l2.18-1.18c1.59,2.36.76,4.09-.72,5.64-2-1-3.27-4.42-6.19-2.79-1.67-1.8,1.29-2.38-.38-4.18-2.29,2.07-2.32-2.54-4-2.22.38-1.26,1.41-2.35-.38-4.18-1.2.85-4,1.27-2.18,2.92-1.48-.89-2.88-2-5.46.31-.75-1.16.12-1.91-.74-3.11-3.86,2.27-5.14,6.35-8.73,2.95a.78.78,0,0,0,.73,1.36c.92.93-3.37,3.24-3.64,2-.55-2.48,2.44-4,3.26-6.14-2.79-1.73-7.31,1.67-8.75-4.05l-2.18,1.17c1.2-1.43,1.33-3.14,2.17-4.68-1.12-.42-.94.78-2.55.5-.42-.07-2-1.73-2.92-1.94s-2.2.62-2.91-.18a9.4,9.4,0,0,1-12.38,1.41c-.74-3,3.36-2.55,5.46-3.81-2.24.55-4.88-3.31-.38-4.18-5-2.19-14.39,2.11-13.46,8.12-3.59.67-6.09-1.94-10.19.23l-1.83-3.4c-2.71.46-1.19,2-2.18,2.93-2.38,1.76-3.09-1.44-5.46.31-3.14,1.9-3.44,4.54-3.62,7.21a28.45,28.45,0,0,1-5.46,2.07c-.87.17-1.63-.65-2.19-.58-.75.1-1.44,1.11-2.18,1.18-1.39.12-3.79-2.26-4.37.6.52,3.18,2.94.69,4.38,1.15-2.65,2.61-5.91,5.05-8,7.81,1.19,1.19,2.71,1.37,4,2.22,2.42-1.11,2.43-2.86,5.45-3.81,2.4-.43-.08,2.38,2.19,2.32,2.77-1,3.44-2.59,3.27-4.39,2,0,4.41-1.31,5.83.37-.33,2.05-1.76,3.81-.35,6.32,3.46-1.68,4-1.41,4.74,1.83,2.36-.54,1.37-2,3.27-2.64-4.5-2.31,2.87-4-1.48-8,1.94-2.58,2-.51,4.73-1.67-1-5.42,6.23-7.4,10.91-7.62a5.85,5.85,0,0,1-1.45,2.53c.51,1,1.68-.54,2.55-.49,2.45.13,3.2,3.33,6.19,1,.46,1.58,1.47,1.53,2.19,2.32-3.57,1.19-6.05-.87-9.47-.16-2.46.91-2.52,2.45-2.54,4-5.27,2.31-5,6.07-7.26,9.17-2.09.53,1.41-3.68-2.19-2.33-3.08,1.39.38,1.63.74,3.11.62,1.72-2.82,2.37-2.54,4,1.73,3.16,2.76.18,5.09-1,8.18.81,14.6-14.43,22.56-8.64,1.33-.82-.7-2.51,1.08-3.21,3.1,1.4,7.46-1,11.29-1.7.55,3.58-2.49,0-5.09,2.74,1.69,2.19-1.68,3.06,0,5.25,3.09.07,6.81-4.44,10.55-3.06-.3,1.67-3,2.71-2.17,4.68-4.69-.16-3.17,7.56-6.54,8.78.74.76,1.86.38,2.55,1.25-2.11,1.56-3.36.56-5.09,1-.06-2.54.41-4.95,4-6.53-2-.48-.34-2-2.2-4.08a6.55,6.55,0,0,0-4.36,4.1c-1.6.1-3.28-1-4,1.28a3.59,3.59,0,0,0-2.2-4.08c-4.39,2.35-9.07,4.61-12,7.34.75-2.21-1.86-3.45-4-2.22-1.26,2.51.76,4.21,4,2.22,1.48,1.56-.8,2.12-1.08,3.21l1.83,3.4c-.48,2.14-2.95-1.17-5.46,2.06.17-.22-.68,4-2.18,1.17-.8-1.48-.52.66-2.91,1.57-1.26.49-2.37-.15-3.64.21-2.79.79-5.11,3.56-8.37,3.63,2.18,2.38,5.34,1.81,8.38,1.62,1.28,3.2,2.82,2.84,2.93,5.43,3.82-3.08,5.56,0,8,.94,1-.33,5.44-4.38,5.45-5.57,0-1-2-1.1-1.82-1.64.47-1.3,3.24-.91,3.27-2.64-.75-1.89-1.84-2.78-3.65-1.54-.62-3.4,3.36-2.54,4.37-.6,1.73-.43,3,.57,5.1-1-.39,3.05-1.42,1.24-3.64,2,1.92,2.25,1,3.75-1.08,5a38.23,38.23,0,0,0,5.47,1.44,21.38,21.38,0,0,1,12-7.34c1.48-.28,2.44.45,3.64-.21,1.68-.92,1.29-2.75,2.91-3.32,2.82-1.89,4.15.66,7.28-2.17-2.3-2.43-.95-5.43-3.29-6.11,3.18-.63,5.45,1.48,8.38,1.62-2,1.82-.94,4.42-1.08,6.72-2.77,1.8-3.92,4-6.17,6a69.5,69.5,0,0,1-6.92-.65c-4,2.9-10.56,7.91-14.55,6.08-.52,1.3,2.82,4.24,2.2,5.83.85.81.6-.42,1.45-.78a54.37,54.37,0,0,0,5.84,3.87c3.65-3.18,4.86.89,8.37-1.88-.57-1.27-1.66-1-2.19-2.33.94-1.89,3.07-3.47,5.81-4.89a5.47,5.47,0,0,1,2.56,1.26c1.26-.78,2.55-1.56,4-1.28.27.05,1.32,1,1.46,1,.41,0,1.45-3.46,2.55-.5,3.74-1.54,5.84-3.52,6.18-6,2.37.56,5.13-2.08,5.45-3.81,1.42-1.32,2.14.26,3.64-.21,3.66-1.14,6.77-4.82,10.55-6.55-2.34,2.11,1.43,5.82-3.63,7.21,1.19,3.54,4.16,1.79,6.56,1.73a2.28,2.28,0,0,1-1.45,2.53c3.55.21,7.46.76,9.46-3.35,1,.1,1.3,3.29,4,2.22A3.48,3.48,0,0,0,4,674c1.4-.64,2.67-.86,3.64-.21-2.07,1.34-4.82,4.07-5.44,7.32-1.47.23-1.3-1.32,0-1.75-1.73-2-2.77.64-2.54,2.25-3.78-.39-4.29.19-8.73,3-.11-1.21-.73-1.86-.74-3.11,0-2.26.46-1.25-.73-3.11-1-1.56.73-2.57-.38-4.18-1.62.09-2.87-.9-5.1,1-2.77-.61-5.27-2-8.38-1.62-2.45.91-1.13,2.81-1.44,4.29A33.42,33.42,0,0,1-32,682c-1.61.79-2-.39-2.91-.18-.36.08-1,1.47-1.82,1.85-2.32,1-5.57,1.19-7.27,3.92,3.43,4.65,8.92,1.85,13.47-1.12.12,2.36-2,4.15-3.26,6.14,1,1.27,2.68.27,3.64,1.54,6-3.69,10.74-9.52,15.64-7.55,1.8-1.76,1.91-1.81,4.36-2.35-.62,2.17-.05,4.65-3.26,6.14-1.52,1-1.63-2.24-2.56-3-2.55,1.66-2.76,3.94-2.17,6.43.83-.75.5-1.81,1.45-2.54.31.86.81,1.12,1.46,1-.08,3-3.15,1.77-6.18,4.2.38.65,1.17,0,1.82-.1,1.72.78,2.95,3,5.1,2.51,3.44-.84,2.07-3,4.36-4.1,2.93-.28-1.59,2.22-1.09,3.21,2.39,3.23,10.55-2.19,6.18-6-1.71.94-2.77,0-4.73,1.67-.79-5,6.17-8,11.27-8.7a3.48,3.48,0,0,0,.37,2.43c.27,1-1.52,1.55-2.54,2.24.69,2.66,2.29,2.62,4,2.22,1.52,2-3.47,2.2-1.44,4.29,2.47-.89,2.11-3.2,4-1.28-.63,2.82-3.07,1.79-2.9,5.07,1.86.39,4.37-1.18,6.55-1.78,2.72-.4,4.75,1.23,7.65.26,1.4-.62,1.68,2.06,2.92,1.94,7-1.24,8.13-6,14.91-8.91.55,1.51-2.37,2.1-1.81,3.61,3.1,4,10.51-7.1,15.28-4.73,1.75,4.77-5.66,8.08-9.45,6.84-3.13,3.51-5.9,1.64-8,4.31.32,2.58,2,1,2.92,1.94-1.92,2.27-2.69-1.19-3.65-1.54-.27-.1-1.49.19-1.82.11-1-.28-2.36-1.41-4.38-1.15l-2.91,1.57c1.67,1.8-2.06,2.18.38,4.18a5.66,5.66,0,0,0-3.27,2.64c.84,2.79,3.46.32,5.1.76,1.32,1.82,1.54,1.25,4,2.22,2.82-.82,2.25-2.52,4.73-3.42,2.37,2.18-1,2.84-1.45,4.28,3.05,2.78,6.87,3.09,6.21,8,1.33.16,3.06-.81,4,.47a3.51,3.51,0,0,0,.37,2.43c-2.14-.13-5.09,2.15-6.92,1.09-4.76,2-6,4.76-10.18,5.49.55.73.49,1.3,0,1.75,2.86,2,4.7-1.37,7.65,2-2.26,1.41-3.72.46-6.18,2.46-.71,1.94,1.52,1.4,2.19,4.07,1.36-1.11,2.17-.57,3.27-.89-.1.95-1.3,1.61-.36,2.82,2.33.16,3.31,4.31,5.84,3.87.92-.88-.76-.72-1.1-2,2.79-1.79,4.69-1,7.64-3.24,2.23.8,4.36,1.89,6.19-.71,1.85-1.37,2,2.17,3.65,1.54-.8.86-1.1,4-2.54,5.74-.61.75-2.16.94-2.91,1.57-1.36,1.14-1.66,2.65-2.18,2.93-1.15.61-4.34,2.34-5.46.31,1.25-2.67,7.13-2.4,6.9-6.35-1.33-1.94-3.83-.4-5.1-2.51L38,746c.62,1.69,2.51-.38,3.28.86.57,1.51-3.09,1.91-2.9,3.32-1.6.61-2.43-1-3.65-1.54-2.47,1.88-8.08,2.93-7.27,5.67,2.81,2.74,8.26-.73,11.28-3.45,2.46,2-3.18,1.88-.72,3.89-1.72.91-1.51,2.33-4,3,1.12.21,1.58,2.39,3.28.86,0,2.57-4.87.53-2.54,4,2.3.66,2.31-1.35,3.27-2.64,4.83,1.71,5.6-3.29,8-4.31,1.15-.49.47.74.36.68,1,.6,2.93-1.27,4.37-.6,1.31,3.54,3.55,4.29,3.66,6.79,3,0,6.75-2.36,8.38,1.62,0,.68-2.8.92-5.09,1-.83,0-2-1.16-3.28-.86-1.61.37-2,.88-3.28.88-1.47,0-5.69-.82-7.28,2.17.48,2.1,2.21.5,3.28.87,1.26,1.23-.89,3.27,1.83,1.64.83,4.19-6.59,3.79-9.46,3.34-1.89.67,2.07,2.87-1.08,3.21-4.41-.73,2-5.62-2.57-6.5-2.44.9-1.68,3.11,0,3.5-2,2-7,.36-4.36,4.1-3.05,1.41-2.49.73-5.46.31-3.1.74.22,3.17-2.54,4-2.85,2-3.44-2.74-6.2-1-1.72.52-.86,1.72-.36,2.82-2.46.54-2.56.59-4.36,2.35-2.76,1.71-4-1-6.92,1.1,1.75,1.28,3.28,3.2,5.47,3.19.18,1.8-.64,3.33,1.11,5.54,1.54-.46,2.36,1.23,4.37-.6.24,1.81-1.63,3.07-2.17,4.68,1.64,1.81,1.21,1,1.83,3.4,1,.7,2.86-1.41,3.64-.21.7-.4.12-1.14,0-1.75,3.15-.52,6.74-2.34,9.83-2.66-1-1.23-1-2.21.36-2.82-.77-1.24-2.66.83-3.28-.86a6.55,6.55,0,0,1,4-8.28,4.27,4.27,0,0,1,1.82-.1c.85-.46,2.59-3.42,4.73-1.67.29,2.31-3.19,1.47-4.37,2.35,2.63,2.78,7.35-.6,9.84,2.59,1.6-1.22,2.25.39,4-1.28-1.5,3.63,3.71,6,6.58,10.48,4.71-2.18,1.89-4.08,3.26-6.14,1.81-1.24,2.9-.35,3.65,1.54,0,5-9.42,6-12,9.09,1,2.38,3,1.69,4.38,2.9.43,2.31-.68,1.35-2.54,2.24,1.67,1.91,3.11,0,4,.47,1.53,3.51-3.16,1.75-4.36,2.35,5,2.22-.68,7.6,4.39,8.15-.3-2.82,6.53-6.15,2.17-8.18,3.9-1.31,5-3.36,5.45-5.56-1.34-.73-3.49.92-5.1,1-1-2.39,3.62-3.32,5.81-4.89,2.06.56.23,1.46,1.83,3.4,2.25,1,6.35-3.53,7.65.26,1.45.42,2.3-1.54,3.64-2,1-.3.86,1.05,1.46,1,2.09-.29,4.55-3.53,6.55-1.77.71,2.7-4.53-.22-3.64,2,.41,1.72,1.91.22,2.55,1.25,1.4,3.09-3.45,4.53-.35,8.07,5.63,0,8.66-3.2,14.19-3.26.82,2.87,2.64,2.77,3.66,5,1.8-1.24,2.89-.35,3.64,1.54,1.23-1,.27-2.65,2.9-3.32-.76-3.62-3.1-2.58-4.74-3.58,2.48-2.05,3.59-.07,5.1.76.38,2.47.91,4.56-2.17,4.68.41,1.72,1.91.22,2.55,1.25.72,1.8-1.51,3.74,1.47,4.47-2.75,2.87-2.86-2.09-5.1-.76-3.82,3.34,2.28,6.82,5.47,4.94-1.52,3,1.32,4.24,4,4-.64,2.09-2.07,2.49.37,4.18,2.78-2.58,3.73-5.63,5.81-8.39-.45-2-1.72-.27-2.91-.18-1,.07-.68-.68-.37-.68-2.73,0-3.28.41-6.19.7-.75-1.17.12-1.91-.73-3.11.83.24,1.49-.18,2.55-.5,3.18-.94,2.45-1.65,4.73-3.42,1.06-.82,1.75.14,2.55-.5,1.22-1,1.51-2.41,2.9-3.32,1.49,1.95-.8,2.9-1.44,4.29.64.76,1.81-.1,1.45-.78,3.19-1.22,4.86,2.07,8.38-.13.56,1.26,1.66,1,2.19,2.32.31.86-1,1.29-1.81,1.86-2.4.43.08-2.38-2.19-2.33a5.69,5.69,0,0,1-3.27,2.64c-.52,2.07,1.26,1,.74,3.11-1.2.85-4,1.28-2.18,2.93,6.06-2.44,9.37-.72,14.92-5.41-2.74-1.88-1.2-3.24,1.81-3.6-1.57-1.82-3.49-2.6-6.19-1-.82-1.12-1.1-3.8-2.92-1.94-1.69-3.75-1-6.86,2.53-9.25,2.06,1,3.91,2.53,7.28-.42,2.39,2.57-2.3,3.29-.71,5.65a4.94,4.94,0,0,0-6.55,1.77c.92,2,2.84,1,4.73.08,2,1.65,4.51,1.92,5.84,5.62.75.78,3.24-1.42,4.37-.6.19.14.52,1.36.73,1.36,1,0,2.93-1.1,4-1.28,1.85-.32,4.13.67,5.82-1.38L158,815.41a5.69,5.69,0,0,0-4,1.28c-1.57,0-2.34-2.46-3.65-3.3.35-2.35,2-2.58,4.72-5.17-2.24-1-4.54-1.81-8,.81,1.67,2.15-3.32,5.52-4.73,3.42,1.46-2.36,2.57-2.09,1.45-4.28,3.36-.11,4.32-4.29,8-4.31.87.35,1.49,2.72,4.73.08-.54-2.53-2.65-.4-3.65-1.54,2.41-1.26,4.24-.8,6.91-2.84-2.34-4.37-7.66-2.67-12.39-2.09,0-1.55,1.47-2.72,3.63-3.71-1-1.64,0-2.73.72-3.9,3.08-.23,6.69-2.58,7.63-5,2.32,2.53,6.24.31,9.83-.91,2.42-.72,3.23,3.36,5.47,3.19,2.86-1.17,4.25-1.78,8.36-3.63-1.8-1.08-.45-1.72-2.92-1.94.92-3.07,4.62-2.76,5.82-4.88-.77-1.24-2.66.82-3.28-.87,1.75-1.67,2.4-.05,4-1.28,1.1-2.52-3.47-1-2.19-4.07,2.44-1.36,4-.12,5.83.36.07,2.74.73,5.64-3.62,7.21,0,2.93-1.84,5.35-2.16,8.18-2.22-.54-8.47,1.67-9.82,4.41-2.67.19-6,.35-6.55,3.53,3,1.45,4.26-1.73,6.19-2.45,1-.37,1.81.44,2.91.18,2.12-.5,2.94-2.07,5.09-2.74,2.16,2.9-3,3.86-5.45,5.56,1.77,2.41.94,4.14-.71,5.65,1.43.39,2.32,2,.73,3.11,2.37.58,5.7-.31,9.11,1.23,1.87,2.44-3.56,3-.71,5.64-1.95,1.82-2.84,3.92-4.35,5.85,1.93,3.09,6.44,1.9,6.21,6.3,3.81-4,9.62-5,11.27-8.7,5.94-.31,10.65-4.06,12-9.09,1.61-.08,3,.5,4.73.08.68,2.12-3.28,3-.72,5.64,5.74-.65,9.33-5.54,13.84-2.19,3-1.44,4.2-4.46,6.19-.7,1.7-.94,2.77,0,4.73-1.67.92,1.41-2.41,1.7-3.27,2.64-.66,1.37,1.11,2.05,0,3.5-.33.43-2,.7-2.18,1.18s1.09,1.51,1.1,2a26.75,26.75,0,0,1-1.45,2.53c-.32.51-.53,1.55-1.81,1.86.64,1,1,2.78,2.19,2.32.79,2.15-3.9,2.86-.71,5.65,1.72-.18,2.06-.86,3.64-2,3-2.07,4.61-3.32,8-2.56,2.25-.57.74-2.14,2.18-2.92.66-.19,1.09.29,1.82-.11,1.52,4-4.26,4.61-5.81,6.64-1.07-.36-2.8,1.23-3.28-.87l-10.91,5.88c4.12,4.72,12.63.18,17.47-2.4.23,1-.7,1.76-.35,2.83-2,1.39-2.62-.74-4.37.6a12,12,0,0,0-.72,2.14c-1.81.76-4.1-.62-6.55,1.77-3-.66-5.51-2.47-9.11-1.23-.46,1.41.66,2.29,2.19,2.33-.25,2.07-2.22,3.69-2.54,5.75-2,.5-2.14-4.24-4-4-1.06,2.25-6,3.47-4,6.53-2.44,1.93-3.75.52-6.19,2.45,1-2.85,1-6,6.18-7.7-.93-3.45-3.08.18-4.37.6-2.33.76-5.5,1.11-8,2.56-2.67-3,4.84-3.39,2.17-6.43-1.71-.16-2.56.49-4,1.28-.37.21-3,1.65-2.91,1.57-1.76,1.66-.1,3.88-3.63,5.46,1.19,1.17,1.51,4.95,3.29,4.36-1.12,3.15,2.59,4.1-.35,6.32.74.76,1.86.38,2.55,1.25,2-.83,1.11-2.43.72-3.89,2.38-1.32,3-3.1,6.18-4.21.84.44,1.31,3.27,4,2.22-.29,2.36-3.36.19-5.09,1-2.25,1-2.23,2.53-4.36,4.1.81,1.73,1.65,3.33,2.93,3.69-.61,2-2.15.44-4.37,2.35,2,1.88-1.69,2.27-2.91,3.31-.22-2.39,1.76-4.2,4.36-5.85-1-1.68-2.48-2.07-4.38-1.15a4.78,4.78,0,0,0-2.55-3c-.79.57-1.38.55-1.82.11-3.34,2.2-1.6,4.84-1.08,6.72-1.6,1.22-2.25-.39-4,1.28-2.28,3.39-4.43,3.13-8.73,4.7a5.9,5.9,0,0,0,2.91.19c-.26.23-.57,2-.72,2.14a2.12,2.12,0,0,1-1.82.11c-1.74,1.39-2.15,3.3-4.73,3.42,1.24-2.42,3.31-1.9.35-4.57-.22-.84,1.2-1.24.72-2.14,1.1-.91,1.66-.21,2.19.58,1.76-3.15,10.37-3.18,10.91-7.63-1.65-2.17-5.29,1.57-8,2.56-1.26-2.47,2.31-3.67.35-6.32-.58.12-1.83-.3-2.55.49-.45.49.2,1.56,0,1.75-1.49,1.46-3.83,2.09-4.36,4.1,1.23,1.07,2.92.76,4.73.08.64,3.35-4,2.93-5.09,1-1.3,1.61-4.83,4.39-6.18,4.21-1.14-.77,1.51-2.21,1.45-2.53-.23-1.2-2,.73-2.55.5-.39-.17.57-2.48-1.1-3.79-3.43.31-7.46,3.29-9.09,5.77-1.9.92-2.67-1.5-3.65-3.29,3-1.79,4-.75,5.82-3.13-3-1.56-8.36,3.61-10.92.62.84-2.86,7,.56,8.37-3.63-2-2.66-3.59.24-4-4-2.22,1.28-4.2,1.86-5.83,1.38.57,3.84-7.65,5.37-5.07,9.74-1.92-1.36-6.77-.42-6.91,2.85-3.57.48-2.3-2.47-5.83-2.12-.13-2.29,3.79-2,5.09-2.74a3.59,3.59,0,0,0-2.2-4.08c.35-4.57,4.53-3.6,8-4.31a3.48,3.48,0,0,0,.37,2.43c1.92.37,2.13-2,4.37-.6,1.9-2.8,5.58-5.14,9.09-7.52,2-.84-.37,1.71,1.46,2.72,1.8-1.22,3.26-1.44,4,.47.66,1.71-3,2.15-3.28.88-1.23,3.2,4.15,1.72,5.83,2.12.34,1.6-1.47,2.51.73,3.11,3.38-1.25,3.45-3.37,4.72-5.17-1.53-1.34-5,2.93-6.55,1.77-.83-2,1-3.23,2.18-4.67-1.22-1.8-6.15-1.63-5.11-4.26-1.85-1-4.15-.65-5.83-2.12,3.56-3.26,8-4.22,12.74-4.23.27,1-1.52,1.54-2.54,2.25,1,1.64,0,2.73-.72,3.89a2.14,2.14,0,0,1-2.55-1.25c-1.34,4.7,8.74.85,12.75-.73,1.15-1.9-2.58-1.39.36-2.82-.63-1.66-1.55-2.46-2.92-1.94,1-3.26,3.49-4.25,7.27-5.67-1.33-2.81-1.41-2.83-3.28-.86l-1.46-2.71c-.08-1.3,1.7-2.5,3.27-2.64a3.56,3.56,0,0,1,1.46,1c2.63-1,4.7-2.88,8-4.31-.81-1.73-1.65-3.33-2.92-3.68l-8,4.31c-4.38,1.2-7.69-.73-12.38,1.41.8,1.75,2.28,1.49,3.29,2.61.51,1.66-1.58,0-1.82.11-2.16,1-4.33,4.51-7.27,5.67a15.64,15.64,0,0,1-6.19.7c-2.25.57-.74,2.14-2.18,2.92-5.32,1.21-8.68,7-13.82,7.44-.31,1.85,1,3.17.38,5.93-2.49.71-2.28,2.12-4,3-1.9.93-3.21.13-4.73-.08-.85,1.56-3.77,5.58-5.46,2.06-4.81,6.55-14.27,5.94-20,4.65-.06-2.49,6.58-.91,4-4.78-4.09,3.08-4.85,2.8-8.73,2.95-1.63-1.59.08-2.31-1.1-3.79-5.3,2.3-9,5-7.26,9.17,2.21-1.85,2.41,2.26,4.73.08-.74-2.4-2.5-1.37-1.83-3.4,4.15-1.3,9.38,2.2,10.21,5-.93,1.58-3.75,4.19-5.46,3.81-1.51-1.94,1.54-3.14-1.1-3.79-3.07.78-2.68-.43-5.46,2.06-2.14.46.77-3.48-1.83-3.4-2.27,1.21-5.61.95-6.55,3.53-2.64-.64.4-1.85-1.1-3.79a10,10,0,0,0-6.55,3.53c2,2.66,3.59-.24,4,4,3.64.14,4-1,8-2.56,1.68-.77,0,2.22,1.83,3.4,3.8-3,5,1.75,7.29,3.08-1.87,4.27-6.47,1.6-9.82,4.42-2,.58-3-1.8-5.46.31,1.07,1.25.47,2.07.73,3.11-3.59,1.56-6.43,6.13-9.1,2.27l-3.64,2c1.86,3.6,2,6.75,2.58,10a2.14,2.14,0,0,1,2.55,1.25c3-2.52,3.88,1.42,6.92-1.1a3.51,3.51,0,0,0,.37,2.43l3.64-2c-.41-1.73-1.91-.22-2.55-1.26,1.11-4.28,4.1.67,6.19-.7-.39-1.21-1.32-.8-1.83-1.65l3.64-2c1.49,1.56-.8,2.12-1.08,3.22.47,1.24,2.19,1.09,1.1,2,.67,1.54,2.74-1.08,4-1.28,1.65,1.29-1.59,3.07-2.17,4.68-.27.73-1.08,1.75-3.27,2.64,1.07,1.45-1.69,1.89-1.08,3.21,2.33,4.07,6.78-2.77,9.1-2.27.08,5.16-6.18,5-10.17,9,.56,1.27,1.66,1,2.19,2.33-2.76.2-3.89,1.85-5.45,3.81.28,2.68,2.63-.75,2.92,1.94,1.18,1.67.19,2.77-1.81,3.6,2.91,2.87,1,3.89,2.93,5.43,2.07.53,1.1-1.11,3.63-2,1.3-.33,1.77,1.8,3.64-.21-.06,2.32-6.35,3-6.55,5.27,1.42,3.44,4.15,3,6.92,2.41.9,3.22,2.81,3.44,4.75,3.58-1.58,2.31-.66,5.27-2.53,7.5,1.23,1.07,2.92.76,4.73.08.25,2-3.67,2.92-1.81,5.36-4.63,1.83-6.27,5.76-9.82,6.16-.89-1-.12-1.59.72-2.14-4.19-2.34-5.5,4.28-6.9,6.35-4.68,0-6.21,1.39-11.64,4.52,1.34,2.31-3,4.88.38,5.93-.71,1.76-4.54,2.69-4,4.78-3.81,1.3-6-2.14-10.56,1.3.56-3,3.45-5.31,6.17-7.71-.52-1.11-1.74-2.4-.74-3.11-3.16,0-5.11-.76-6.2-2.8-1.56,1.79-5.05,4.75-6.19.7-.2-1,4.49-1.7,6.55-3.53-.74-.75-1.86-.37-2.55-1.25,1.75-1.67,2.4-.06,4-1.28-2.24-3-2.88-1.61-4-5.72-3.68.34-5.35.88-6.18,4.2,1.21.54,2.67.31,4,.48,1.59,5.56-4.39,7-8,9.56.47,2.14,2.18.59,2.92,1.93.62,2.3-1.9.19-2.91,1.57,1.23,2.68-2,4.18-3.66,6.11,1.18-1.85-.32-4.41,1.84-6-2.13-1.46.32-5.52-2.92-3.68,1.77-2.61,2.18-4.69,1.08-6.72,2-1.69,2.77,0,4.73-1.67-1-2,1.19-4.36-1.83-5.14a19.07,19.07,0,0,0,6.91-2.85c-1.33-2.53-3.24-3.34-5.11-4.26-2.75,1.4-2.48.36-4.37,2.35-.2,2.18-.86,2.09,1.1,3.79-2.86,3.14-5.53,3.06-7.65-.26-1.81,2.55-5,1.13-6.55,1.77-3.59,1.54-5.21,5.45-9.09,5.77-.72-1.55,2.93-1.95,4-3-1.38-3.09-4-2.17-5.47-1.44-2.43,1.18-1.35,5.32-4.35,5.85.38.65,1.18,0,1.82-.11.33,2.21-2.78.28-4.37,2.35.58,2.39,3-.52,3.28,2.61,5-3.56,8.47-4.51,14.19-6.77,2.67,3.61.27,4.15-2.9,5.07.56,2.68-2.43,4.42.38,7.68,2.14.13,5.38-3,6.92-1.1.31.86-1,1.28-1.82,1.85,3,1.35-.59,4.22,2.93,5.43-4.41,3.57-7.83,5.35-11.63,8,.12-.85.23-1.69-.73-1.36,1.15-2.79,9.46-3.17,8-7.81-1.71-.82-5,2.95-6.19.7-.62-1.34,2.87-.51,4.36-2.35-1.54-2.27-2.9-.59-2.92-3.68a19.06,19.06,0,0,1-6.18,4.21c-1.45-2.33,2.69-3.18.71-5.65-3.79.05-2.68,5.71-8.36,7.13a4,4,0,0,1-1.08,3.22c1.07,2,5-.61,5.46-2.07.23,2.39-1.76,4.2-4.36,5.85-3.27,1.47-4.22-4-8-.94.81,2.91,3,1.8,4.74,1.83,1.3,2.28-.78,3.68-1.8,5.35,2.22.16,2.14.68,2.55,3,2.15-1.66,3.63-1.36,5.46-2.07,1.18,2.26-.67,3.72-2.9,5.07.89,1,.12,1.59-.72,2.14-.08,1.15,1.29.76,1.45,1a1.84,1.84,0,0,1,0,1.75c.89.9,3.68.49,1.46,2.72.83.93,1-1.28,1.82-.11,0,2.76-3.05-.15-4.37.6-3,1.54-6,3.08-7.63,5-3.28-3.61,1.94-3,2.54-4,.13-.22-1.66-.53-1.46-1s3.45-1.86,1.81-3.6c-2.71,1-4.53-.69-7.64,1.49-.79-.57-1.74-2-4.37-1.15,1.38-3.39,6.5-2.88,9.46-5.09-2.29-3.8-6.85-.87-11.29,1.7,1.33-3.15,1.11-6.71,5.44-9.07.49-2-.53-.83-1.46-2.71,2.39-1.6,3.44-2.88,6.19-2.46A2.14,2.14,0,0,0,0,985.52c4.1-1.06,2-3.76,4.72-5.17-3-3.89.59-6.07,2.89-8.57-1-1.69-3.16,0-5.1,1-1-1.78-1.61-4.62-4-2.22-2.08-2.37,3.5-4.26,0-5.25,1.17-.81,2.51.14,2.18-1.17q2.08,0,3.29,2.61c3.56-1.51,4-3.86,7.27-3.92-1.39-1.19-3.46-.33-5.1-.76.16-.89,2.54-2.21,5.45-3.81-2.65-3.22-8.37,1-9.09,4-2.17.55-2.79-3.5-5.11-2.51.7-2,4.93-3,2.54-5.75-2.14-.12-5.09,2.15-6.92,1.1.83-2.29-1.48-3.1-2.93-3.69,1.21-3,7.32-1.08,8.73-4.7-1-2.9-4.94,2.89-5.82-.36.25-3.41,2.88.67,4.73-1.67-.89-1-.12-1.59.72-2.14a2.28,2.28,0,0,0-2.91-.18c.75-1.94,3-3.48,4.72-5.17,2.23,1.34-.4,2.48,2.56,4.75,1.85-.9,2.94.06,3.64-2,1.94-1,2.74,1.29,4.73.08,1-1.68.17-3.84.72-5.64,2.49-.71,2.28-2.12,4-3-2.3-1.57-1.86-2.85,1.45-4.29-1.06-3.33-3.16-3.55-4.39-6.4-2.54,2.23-3.28-.85-5.83,1.38.63,1.71.09,3.57,2.2,4.08-.43,2-2.58,3.6-3.63,5.46,2.23.09-.26,2.92,2.55,1.26.31.85-1,1.28-1.82,1.85-2.4.43.08-2.38-2.19-2.33-3,.18-2.7,1.65-5.82,3.13-2.7-2-7,.66-9.83-.83-2.61-2,3-1.93,1.81-3.61-1.8-2.14-4.36.39-6.55,1.78.3-.19.22,1.55,0,1.75-.68.63-2.82,1.6-3.64.21,0-2.87,2.77-1.37,3.63-3.71l-1.46-2.72c-1.52,1.35-5.74,2-5.45,3.82-2.47.56,1.14-1.93-.74-3.11a5.69,5.69,0,0,1-4,1.28c-1.18-1.48.53-2.19-1.1-3.79-4.12,2.25-6.88,1.2-9.82,4.41-1.16-1.47,3.52-1.41,1.09-3.21,1.7-.94,2.77,0,4.73-1.67a2,2,0,0,0-1.46-2.72c4-2.09,7.49,1.6,10.55-3.06-.84-3.39-3.66-.9-4.74-3.58.5-1.82,5.79-4.14,1.81-5.36,1.74-1.06,3.45-2,4.73-1.67.68,2.12-3.28,3-.71,5.64,1.94-1,4-2.49,5.46-2.06.85,1.77-1.71,2.66-3.63,3.71,1.81,3.68,4,2.27,6.55,0-.4,2.62-2.38,4.82-3.62,7.21,2,2.39,6.23,1.75,6.55,0,1.6-.09,2.83,2.37,3.64-.21q-.78-3-3.28-.86c1.4-5,6.34,1.15,7.28-2.17a2.14,2.14,0,0,0-2.55-1.25c.46-.06-1,1.34-1.45.78-1-1.4,1.65-2.48.72-5.64a16.46,16.46,0,0,1,6.18-2.46c2.09-.53-1.41,3.68,2.19,2.33.92,1.41-2.42,1.69-3.27,2.64,1.84,3.49,2.79-1.34,5.1.76-.69,2-4.93,3-2.54,5.75,4.85.05,4.72-4,9.09-5.78-.9-2.62-3.47-.28-4.38-2.9A3.49,3.49,0,0,0,5,912.76c2.62,1,4.06-2.5,5.45-3.82,1.22-1.14,5.12-1.84,2.91-3.31-3.82,3.29-6.19.32-8.37,3.63-1.26-2.74,4.75-5.76-.38-7.68-5.52,3.48-9.32,12.35-17.09,10.08.8-2.12,3.43-3.76,3.26-6.14,2.6-1.23,4.06.92,6.56,0,1.86,0,.44-1.87.72-2.14,2.24-2.23,7.52-3.59,7.63-6.74,3.39-.65,7.53-3.5,10.55-3.06.18-1.9-.69-4.07,1.81-5.36-2.55-.69-6.39,2.47-8-.94-3.58,2.17-7.2,4.32-6.17,7.71a27.22,27.22,0,0,1-10.91,5.88c-1.6-1.94.23-2.84-1.83-3.4-2.42,1.11-2.43,2.86-5.45,3.81-1.12,1.74,4.53-1.8,4.74,1.83-.61,2.83-4.78,1.34-7.27,3.92l-2.56-4.76c-2.94,3.22-5.71,2.16-9.82,4.42-2,1.61-.43,4.17-4.72,5.17-.39-5.56,5.23-9.13,10.9-9.38-3.79-2.33,4.17-4.59,0-8.75A55.69,55.69,0,0,0-13,883c-2.34-2.21-4,1.62-7.64,3.24-2.08-1.71,2.07-1.79,0-3.5-3.59,1.82-7.23-3.63-9.83.91.27,3.3,3.27-1.45,4,.48-2.25,3.78-4.78,6.09-9.81,7.91-1.38,0-3.11,1-3.65-1.54-1.88.87-1.71,2.27-1.81,3.6-1.4-.55-3.45.83-4.37-1.15-2.85,4.37,2.78,4.1,1.84,8.65-6.29,2.2-8.05,5.05-14.19,6.77,1.53,2.54-3,3.5-1.44,6,1.55-1.08,2.82-1.31,3.64-.21-.65,2.94-4.85,1.55-6.91,2.84s-1.47,3.5-5.09,4.49C-70.5,918-63.34,917-65,913.61c-.45.78-1.83,3-2.55.5l-5.82,3.13c-.49-3,2.05-5.29,4.35-7.6-1-1.81,1.5-2.72.35-4.57-2-.58-1.55,1.54-4.36,2.35-4.26-1.26-2.81-5.5-4.75-7.09,2.81-1.53,5.91,2.36,7.65-1.48-1.37-1.84-4.54,1.69-5.11-2.51-3.83,1.16-5.54,2.14-6.92-.65a5.69,5.69,0,0,1-4,1.28c-1.49-2,1-2.85.35-4.57,1.8-1.23,2,2.33,4,.47.1-.87.34-3.41-1.83-1.65-.92-1.41,2.41-1.7,3.27-2.64-1.3-.84-3.22.13-4.74-.08-1.37.42-1.09,1.27-.72,2.14-2.09,1.32-3.82-1.18-4.73,1.67-3.35,0-8.08-3.6-10.93.62.81,2.31,2.86.93,4.37,1.15-1.09,5.15-6.41,1.32-10.55,4.81-1.19,2.21,2,5.58-1.8,7.1-1.91-2.73,1.49-1.92,1.08-3.21-1.16-1.84-2.82-2.21-5.1-.76-2.38-4.35,5.42-2.43,6.17-6l-1.46-2.71c-5.25,2.43-7.51,6-10.54,10.06-1.73,2.3-5.2,4.52-3.62,7.21,1.3-.32,1.77,1.81,3.64-.21,1.36,3,4.25,1.52,6.2,2.8,1.6-1.14.08-3.09,2.54-4,.67-.89,2.29-.25,3.64-.21,1,0,5.19-.32,3.28.87,1,1.15,3.36-1.74,3.64,1.54,1.35-.62,1.08-1.66,2.54-2.24,2.31,3.72-3.94,5.18-7.27,7.42,1.38,2.37,3.88,1.44,6.55,0,1.51,1.94-1.54,3.14,1.1,3.79,6-2.12,7-5.54,11.63-8-.45,2-1,4-3.63,5.46,4.76.61,3,2.8,6.57,7,2.38-1.51.41-4.17,1.44-6,2.23.66,4.92-.69,5.46-.31s-.78,1.57-1.09,1.46c2,.69,2.83-.17,5.47,1.44-1.3,1.43-7.59,2.56-10.91,4.13,1.69,2.19-1.68,3.06,0,5.25-3.13,2.82-4.46.28-7.28,2.17-.8,2.23,1.65,2.58,2.92,3.68,2.49-.7,1.51-2.32,4-3,1.07,1.26.47,2.07.74,3.11-6,3-9.41,7.09-14.55,6.08-2.25.57-.74,2.14-2.18,2.93q-2.63,1.61-4.37.6c-1.69,3-4.27,2.63-5.08,6.24-2.09.92-3.3-.81-4.74-1.83a38.56,38.56,0,0,0-10.18,5.49c4.83,2.49-5,5.51-4.71,8.67,1.11,2,3.9-1,5.46-.31.52,3.7-3.39,1.12-5.82,3.13.63,4.23-3.39,10.77-8.36,7.13.84-2.28,3.7-.61,6.18-2.46-1.86-2.43,2.06-3.35,1.81-5.36-.63-2.84-3.57,1.19-4.37-1.15-.72-1.55,2.93-1.95,4-3-2.33-4.35-3.67,1.29-5.09,2.74.18-.18-2.75.83,0,3.5l-5.82,3.13c.07-.86,1.47-2.12,0-1.75-.24-2.36,2.76-3.55,3.63-5.46.15-.31-.86-1-.73-1.36.68-1.66,3.61-4.5,1.44-6-2.74,2.26-4.48,1.52-6.19.71,1.08-.83,3.25-3.94,1.8-7.11-2.58.73-4,.22-5.83,1.38.27-.17-.24,2.73-.35,2.82-.44.37-2.41-.26-3.28.89.15,1.66,1.7,2,2.19,2.33a17,17,0,0,0,1.83,1.65c1.58.72,4.53-1,5.47,1.44.8,1-.06,1.54.37,2.43-.46,1-1.77.07-1.82.11-.9.71.4,1.06,0,1.75-.71,1.23-3.39,1.58-4,3,2.27,3.34-.6,7.71-4.35,7.6-.21-2.19,4.07-3.2,3.63-5.46-2.06-3-4.44,4.17-6.92,1.09-.23-1.81,2.95-2.72,2.17-4.67-3.18-3.89-6.19,2-10.19,2,.71-2.34,5.47-3.61,6.18-6-.85-2.88-5.5,1.07-3.27,2.64-1.4.62-1.69-2.06-2.92-1.94-1.94,2.21-.61,5.28-1.44,7.78-2.52.28-4.37,2.23-2.9,5.07a19.07,19.07,0,0,0-6.18,4.2c.1-.94,1.29-1.6.36-2.82-.53-2.28,3.22-3.43,1.44-6-4.67,2-7.05,6-11.64,6.27-1.34-1.93-2-5.72-4.39-4.65-.13-2.17,3.19-3.44,5.82-4.88a4.75,4.75,0,0,1-1.1-3.79c2.5-.73,1.65-.28,3.64-2,1.65,1.79-.18,2.67,1.47,4.47,3.45-3.47,5.74-1.11,8.73-4.7-1.31-2.57-5.24,2.6-6.55,0,.88-1.91,3-3.48,3.63-5.46-1.82-2.21-4.83,1.18-5.09,2.74-2.24.76-4,0-6.19.7.27-1.93,2.86-.68,4-3-1.74-.72-3.25-2.13-5.82-.36-1.51-1.94,1.54-3.14-1.1-3.79-1.85.87-3.6,1.77-2.9,3.32.48,2.09,2.21.5,3.28.86.28,2.38-1,3.44-3.63,3.71,2,.51,1.79,3.43-1.45,4.28.49,2.55,2.28,4.18,1.11,7.29-3.12,0-1.09-5-3.65-5,1.48-2.14,3.5-4.14,2.89-6.82-1,2.38-1,1.81-4,3,1.57,2.74-3.91,3.64-1.08,6.71-2.44,1.93-3.1-1.4-4.74-1.83-.44,1.25-2.16,2.16-4,3-1.05-2.54,1.1-2.75-1.47-4.47-1.35.62-1.08,1.66-2.54,2.25,2.22,2.06,1.93,5.87,3.65,3.29,1.26,2.08-2.24,2.91-2.17,4.68-2.33,1-5.71-.19-6.91,2.84,4.41-.72,7.19,3.4,11.3,3.56-.24,1.3-.1,2.69-.72,3.89a34.48,34.48,0,0,0,4.74,1.83c.11,2.14-2.59,1.36-4,3,.36-.44-.74,5.63-4,4.78-1.93-.51-1.27,2.18-2.54,4-3.77-1.88,4.58-4.8,1.07-8.47-3.31.88-2.66,2.8-3.27,4.39-1.66.78-1.86-2.72-2.93-3.69-.86,4.31-4.6,2.31-7.64,3.24,2.07,3.53,2.34,3.21,3.66,6.79,5.85.41,11.82-4.41,17.48-.65,1.35-.62,1.09-1.66,2.54-2.25a16.61,16.61,0,0,1-3.65-3.29c.56-2.67,5.32-3,6.91-2.85.51,2.86-1.94,4.93-3.62,7.21,1.3,2,4.24-.8,6.55-1.78,1.19-2.64-4-3.33,0-5.25,1.79-.58,2.1,3.19,3.29,4.36,2.64-.28,5.12-2.52,4.72-5.17,5.7,2.49-4.65,5.76-.34,9.82-2.63.67-2.44,2.08-2.91,3.32-2.82,1.29-5,.65-7.28.41-3.13.93-1.69,3.05-3.27,4.39-4.77,1.16-3.6-5.41-9.11-3,.08,3,2.11,3.52,2.93,7.18,1.54-.46,2.36,1.23,4.36-.6,2.18,2.33-1.07,3.22,1.11,5.54a5.69,5.69,0,0,0,3.27-2.64c2.78.39,1,3.51,3.29,4.36-1.7,1.72-3.51,6.43-6.18,6-1.64,1.57,3.35,2.31.37,4.18-1.65.78-1.86-2.72-2.92-3.69-2.24,2.05-4.74.76-7.28,2.17a9.2,9.2,0,0,0-2.18,1.17,6.8,6.8,0,0,0,0,1.75c-1.47.59-2.8-1.09-4-.47,0-1.75,2.64-2.8,1.08-5-1.3-3.77-5.38.67-7.28-1.33-3,2.2,5.19,4.75,0,7,1,1.7,3.3-.37,4.73.08,1.07,2-3,2.72-3.27,4.39a14.16,14.16,0,0,0,5.83,2.12c1.83-1.66,3.6-3.33,3.63-5.46,2.22.84,4.62,1.11,6.55-1.78,1.86,2.78-3,3.35-4,4.78-.19.26.53,2,.37,2.43-.85,2-3.17,1.6-2.91,3.32,2.15,3,7.74-3.37,8.73-4.7a4,4,0,0,0,2.55-.5c.9,3.93-5.14,6-7.26,9.17,3.32,1.66,1.47-2.85,6.19-.7,2.81-.43-.63-2.5,2.18-2.93,2-.36,1.34,3.4.37,4.18.8.28,2.13,1.25,1.1,2,1.42.77,5.24,0,7.28-2.17.24-.25,4.62-12.62-1.11-9,1.76-1.77-.3-5.24-3.28-2.61,1-3.13,6.24-1.75,7.63-5,1.1-.32,1.52,1.38,2.19,2.33,1.84-.88,3.56-1.78,4-3-2-3.08-3.94-2.49-4.39-6.4-1.28-.32-3,.61-4.73,1.67-.15-2-2.08-4.43.71-5.64,1.65-.78,1.86,2.71,2.92,3.68,2.25-2.64,7.81-.79,5.09-4.49,1.22-.08,2.14.72,2.92,1.94.41-2.94,3.16-1.89,4.36-4.1-1.06-2.15-3.33-.71-4-4,1.75-1.67,2.4-.06,4-1.28,2.3-.49,1.3-3.37,2.17-4.68.75-1.12,2.91-1.68,4-3,1.32-1.64.52-3.91,4.72-5.17.37-2.48-1.42-1.88-1.47-4.47a10,10,0,0,0,6.18-6c2.1-.35,4-.12,6.55-1.77-.1,1.33.84,2.94-1.81,3.6,2.53,2.41-.06,3.48-1.08,5,2,.47.75,2.16,1.1,3.79l-7.27,3.92c3.62,2.7-.88.67-1.81,3.6,4,2.08-.71,4.15,2.21,7.58,3.65-.86,6.52-3.16,6.9-6.35.9-.62,2-.92,2.91-1.57,1.17-.86,1-2.18,1.45-2.54,1.22-.95,3.31-.11,4.36-2.35-3.19-2.14-5.23,3-8.73,2.95a3.48,3.48,0,0,0-.37-2.43c3.51-.11,4.52-3.15,8.73-4.7,1.42,3.37,1.69,4.27,1.48,8,3-2.88,3.95.06,6.55-1.77,0,2.5,4.25,2.49,1.1,3.79,1.3.85,2.82,1,4,2.22-4,2.13-7.34-2.07-10.19,2l1.83,3.4c-2.23.14-3.65-2.12-6.19-1-1.44,2.15-4.66,3.83-6.17,6-.91.63-3.68-1.58-3.28.89,1.09,2.5,2.64-2,4.38,1.15a13.33,13.33,0,0,0,5.09-2.74c1.39,2.11-2,3-1.08,5-4,.27-4.69,1.27-9.46,3.34,1.79,1.83,0,2.72.37,4.18-1.75,1.05-3.45,2-4.73,1.67-1.14-1.85,1.14-2.81,1.45-4.28-.88-.9-2.6.65-2.92-1.94-2.35,1.09-3.66-.91-6.19.71-2.19-1.39-2-3.53-5.11-4.26-2.91,2.45,2.72,2.07,1.47,4.47-1.56,1.08-2.82,1.31-3.64.21-1.19,2.5,3,.92,2.19,4.07,0,1.55-2.49,2.45-.35,4.57,3.28-1.08,3.17-3.05,6.18-4.21,3.54.44,1.74,5.73,6.56,1.73,1.18,1.67-.58,2.57-1.81,3.61-2.49,1.49-3.63-1-5.83-.37-.79,2.21-6.25,2.66-6.91,4.6,0,.12.79,1.32.73,1.36-.64.35-6.05-1.24-4.36,2.35-.72.73-1-1-1.46-1-1.53.08-4.27,3.54-5.46,2.06,1.11,2.82-3.63,4.1-4,6.53-2.61,1.25-4.5.41-6.19-1-5.47,4.76-10.57,7.89-15.65,4,.58-1.79,3.49-3,4-4.78-.47-2.14-2.18-.59-2.92-1.93-1.9,1.64-2.08,3.73-5.82,4.88-.7,3,.86,3.07,2.57,6.51,1.84-.88,3.56-1.79,4-3,.79,5-6.71,4.71-8,9.56,1.8,1.82,4.16.73,5.83-1.38,1-.17,1.24,5.05,4.74,1.83.39,3.41-5.54,5.15-2.53,9.25a40,40,0,0,1-8.73,4.7l1.46,2.72c2.5.9,3.76-2.76,5.46-2.07a15,15,0,0,1-3.63,7.21c-2,1.71-2.4-1.11-4.36.6-3.43,1.24-2.18,3.7-4.72,5.17-1.57-.69-2.58-5.65-6.56-3.47-2.08-1.71,2.07-1.79,0-3.5,1-.21,2.49.2,1.46,1,.78,1.2,2.69-.91,3.64-.21a2.12,2.12,0,0,1-.36,2.82c1.12,1.34,4.15-1.55,4.37-2.35-.95-2.49-3.28-.87-4.74-1.83-1-2.4,2.27-3.68,4.72-5.17-2.58-4,3.37-5.73,2.52-9.25-3.53,2.84-5.85,2.06-8.73,3L-223,1082c.28,2.41-2.28,4.07-5.45,5.57,1.93,2.45-1.72,3.43-4,4.78.56,3.52,4.17,1.78,3.29,4.36-1.38,1.16-1.9-.22-2.55-1.25-2.81.82-2.67,2.41-3.63,3.71-1.68-3.73-1.51-6.74,2.53-7.5-1.92-2.56-3.58-.35-4.73,1.67-1.47-3.3,1.65-5.4,4.35-7.6-1.73-1.64-1.78-1.74-2.2-4.08,1.83-.56,4.44-.65,5.09-2.74-.82-2.84-3.58,0-4.74-1.83-.21-2.06,3.3-.57,5.09-2.74,1.08-1.84-1.8-1.16-.37-2.43a28.29,28.29,0,0,0,6.93,4.16c4.09-1.87,9-1,5.81-6.64l-2.91,1.57c-1.93-2.26,3.61-2.55,1.08-5-6.59,2.68-9.68,5.65-14.92,5.41-2.65,1.44-2.23,3.69-3.63,5.46-2.44.55-1.37-.58-2.19-2.33.37-1.45,1.81-2.64,3.63-3.71q-2.08-2.29,1.08-3.21c1.28.9,2.88.86,4,2.22,1.44-2.34,4.7-4.21,6.9-6.35l-1.1-2c4.1-1.06,2-3.76,4.72-5.17,2.28,2.54-1.82,3.4-1.81,5.35,1.3,2.57.23,2.38,2.2,4.08,3.87-1.46,4.18-1.54,6.18-4.21-.83-2.69-5.18-4-2.56-6.5-1-.65-2.24-.43-3.64.21,0-1.56,2.49-2.45.35-4.57-3.1-.75-3.65,2.47-5.45,3.82-1.55.46-3.26,1.44-4-.48s5.78-.4,2.54-4c2.41-1.26,4.24-.8,6.91-2.84-.47-2.14-2.18-.59-2.92-1.94-.28-2.52,2.68-4.19-.38-5.93-.94-2,2.37-2.88,4.36-4.1-1.85-3.76-6.69-.74-8.38.13-3.52,1.79-3.94,5.74-6.17,7.71.46,1.58,1.47,1.53,2.19,2.32-.34.44-1.89,3.2-2.91,1.57-1.4,1.58-.46,3.77-4,4.78-1.09-2-.23-3.56,1.08-5-1-1.69-3.16,0-5.09,1,.58,1.32.74,2.53,0,3.5-2.74-1.27-4.7-4.89-9.11-1.23.59,3.5,2.69,3.9,5.48,4.94,1.54,2.74-.64,4.49,2.2,7.58.1,3.14-3.76,5.23-1.8,8.85,2.05.35.89-.56,2.91-1.57l2.2,4.08c-2.54,1.65-3.88-.27-5.47-1.44-2.4,2.41-2.83-1-4.73-.08.07-3-1.86-3.22-3.29-6.12-3.13.47-6,.1-9.47,1.59-1.72-1.63-1.78-1.73-2.19-4.07-1.72-.2-3.62.13-4.74-1.83-5.3,2.76-10.22,4.42-14.55,4.34.54.72.49,1.29,0,1.74-3.17,1.09-1.76-3.16-3.65-3.29l-2.91,1.57c.2,2.39,2,5.2-1.08,6.72l-7.32-13.59c3.6-2.07,9.08-2.35,9.82-6.16,1.84,2,.73,3.3.74,4.86,2.49-.92,4.2.5,6.92-1.1,1.73-1.68,2.23-3.69.35-6.32-2.26.27-2.35,3.94-4.37,2.35,2-2.66,2.31-2.74,6.18-4.2,1.85-1.07-.8-3.32,2.54-4,2,1.79,5.23,1,6.92-1.1-1.87-2.24-.33-3.59-2.2-5.83-4.84,3.76-7.73,1.73-12.37,4.91,1,1.44,1.2,2.65,0,3.5-3.16-1-7.86,2.78-9.1,4,.32,3.16,3.32-1.62,3.65,1.54l-1.46.78c.21.38-.17,1.09-.73.39,1.52-1.32-2.4-.88-3.64.21-.43-2.24-2-1.21-2.55-3,1.87-1.57,8.84-3.92,9.09-7.52-1.22-.51-2.05-2.16-3.65-1.54-2.43,2.66-6.58,4.88-6.9,8.1-3.31-2.57-2.12,2.89-2.17,4.68l-2.93-5.43c2.33-2,9.3-3.49,5.81-8.39-2.83-.54-3.5,3.45-6.19,2.46,2.05-2-1.54-.91-1.82-1.65.55-1.8,4.43-2.72,2.9-5.07a16.49,16.49,0,0,0-6.18,2.46l-3.66-6.79,2.18-1.17a2.26,2.26,0,0,0-2.91-.18l-20.86-38.72c1.54-1,.64-2.55-.37-4.18,1.76-.7,2.64-1.64,2.18-2.93-2.9,1.54-4-2.26-5.48-4.94l-2.18,1.17-1.1-2,4.37-2.35c1.15-2.15-1.63-5.33-1.48-6.22-.55-.73-1.54-.12-2.55.5-1.92-.19-3.13-2.47-5.47-1.44l-7.68-14.26c1.77-1.67,2.87-3.52,2.54-5.75L-358,951.4l-18.29-34,.73-.39c1.59,2.27,3.78,1.49,5.1.76.87-.49,2.49-3.26,2.17-4.67,0,.07-2.17-.21-2.56-1.26-1-2.63-.48-.14-2.55-1.25s1.08-4.68-1.46-2.71l-3.63,2c-.63-1.66-1.55-2.46-2.92-1.94l-2.19-4.07c3.85-1.51,3-4.27,6.18-6-1-1.69-3.16,0-5.1,1-1-3-2.64-3.94-5.11-2.51l-41.71-77.44c1-.7,2.82-1.2,2.54-2.24-.37-2.44-2.27-.33-3.64.21l-2.56-4.76a1.54,1.54,0,1,0-1.46-2.71L-440,799.24c1.23-1.38.07-4.66-1.83-5.15l-.73.39L-457.93,766c2.19.51,5-2.11,5.45-3.82-2.36-1.55-2.33-3.5-3.29-6.11-2.51.7-.4,2.61-2.9,3.32-1-2.34-.23-5-4.38-2.9L-481,723.15c3.13-2.82,4.46-.28,7.28-2.17-2.53-3.39,2.48-4.79-.75-8.36-3.58.94-9,3-8.72,6.45l-14.64-27.17a2.37,2.37,0,0,0,2.91-1.57c-1-1.46-2.78-.51-3.27.89l-2.2-4.08c1.6-.43.8-4.78-1.46-2.71l-11.71-21.74c.93-1.29.66-3.58-1.46-2.71l-24.88-46.2c2.25-1.94,1.95-4.54,1.81-7.1-2,.51-2.79-2.32-5.46.31L-560,576.42a1.54,1.54,0,1,0-1.46-2.72l-11.34-21.06c2.23-1.89,3.48-.9,5.1-1-.35,1.47-2.83,2.37-.35,4.57,3.76-2.09,4.8-4,8-2.56a4.37,4.37,0,0,0,1.81-5.36c3-1,3-2.7,5.45-3.82.64.29,2.23,2.91,3.64-.21-.65-1.29-1.33-1.14-1.82.11-3.38-9.38-11.9-3.54-16.41-9.56-2.49.71-2.28,2.12-4,3,1.34.54,1.68,1.24.37,2.43,1.49,1.46,3.59,1.11,6.19-.7.3.86-.75,1.36-1.81,1.86,2.83,1.68,1.32,3.23,1.11,5.54-3.75,1.83-8.17-3.5-9.47,1.59l-1.83-3.4c1.93-1,4.29-2,4.73-3.42-2-1.84-3.72-4.28-7.29-1.34l-8.42-15.62c4.73-.42,2.41-3,5.09-2.74-.4.22-.53,1,.37.68,1.67-1.46,2.15-1.36,3.63-3.71.63,3.37,2.11,4.1,5.47,3.19.72-1.56,4.76-2.25,3.27-4.39-.9-1.46-3.24,1.37-4.73,1.67-.56-1.27-1.58-1.2-2.91-.19-2.07-1.52-4.59-1.69-8,.81-1.17-.65-2-2.32-4-.47.22,2.06,4.8,2.7,1.47,4.47l-7.32-13.59c.32-1.47,2.18-2.54,2.54-4-.76-2.63-3.86-1.06-4.37.6l-4.39-8.15c1.88-1.51,1.24-4.79-1.83-3.4L-661,388.93l153.48-82.67c.26.85-.23,1.49-.72,2.14C-506.92,310.49-502.34,307-504.61,304.7Z"/><path class="cls-8" d="M17.07,81.55l.73,1.36,1.45-.78-.73-1.36Z"/><path class="cls-8" d="M-7,82.23c-1.44.78.07,2.35-2.18,2.92.59,2.39,2.7.23,3.29,2.61.72-2.29,2.39-1.18,4-1.28.39,1.46-1.42,2.35.37,4.18,2.53.21,4.41-.19,4-3,1.52-1,1.63,2.23,2.56,3,3.3-2.36,5.47-1.4,7.27-3.92l-1.83-3.4-3.64,2C6.31,84,9.12,83.54,9.06,82.36c-.58-.93-1.16-1.86-.37-2.43-1.26-1-5-.82-6.19.7-.38.48,1.07,1.18,0,1.75s-4.95-.48-4,1.28S-4.88,83.12-7,82.23Z"/><path class="cls-8" d="M1.73,67l1.1,2Q5.31,68,3.92,65.85Z"/><path class="cls-8" d="M64.83,105.77c.34,1.73,3.23,1.05.37,2.43-1.64-1.6.07-2.31-1.1-3.79-.79,3-5.61,1.87-6.18,4.2,0-3.92-3.8-2.34-3.29-6.12,2.52-1.59,4.18-.63,6.55-1.78-.72-1.35,1.52-1.93,0-3.5-1.33-2.54-4.45.26-5.83-2.12,2.54-3.92,9-3.24,9.09-7.52-1.92-2.53-3.58-5.85-6.21-6.3-.85.56-1.61,1.13-.72,2.14-2.16,1.1-3.54-.1-5.1-.76,2-.83,3-1.93,1.82-3.61-.73.39-1.16-.08-1.82.11-1.31,1.21-1.17,2.8-3.64,3.71-1.26-1.88.52-3-.74-4.86a8.52,8.52,0,0,1-5.84-3.87c1.07-1.08,4.72-1.48,4-3-2.3.35-3.39-2.86-5.47-3.18-1.37.54-3.28,2.64-3.64.21,2.44-1.93,3.75-.52,6.18-2.46-1.57-2.16-1.76-4-2.2-5.83-1.72-.62-3.07,3.3-4.73-.08-.41-1.47,2.53-2.06.72-3.89-1.56-.68-3.42-.46-4.38-2.9-.34-2.16,1.64-1.88,2.91-3.32,1.62-1.83-.56-1.89,2.18-1.18A13.14,13.14,0,0,0,48.3,47.2c-2.41-.62.06-2.94-.74-4.86,3.12-1.84,4.93.19,6.91-2.85A5.43,5.43,0,0,0,61,41.22c-1.79-1.83,0-2.72-.37-4.18,2.15-1.66,3.63-1.36,5.45-2.06,2.35,2.83-2.39.08-1.45,2.54,5.21,2.86,9.59-4.4,14.2.24-.64,2.07-2.55,1.65-4.36,2.35,2.91.71.21,2.53,1.47,4.47,1.07.36,2.8-1.23,3.28.86C74.42,48.86,67.73,48.5,69.81,54c.26-4.32,5-1,6.56,1.72-3.49.46-.82,2.61-1.08,3.21-.53,1.22-3.78,2.3-1.81,3.6a6.39,6.39,0,0,1,4.37,1.15c2.24,1.34,2.62,1,1.83,3.4-1,3.09,0,.88,1.83,3.4-2.33,2.18-2.52-1.93-4.74-.08.59,1.8,2.13.76,2.56,3-3.86,2.06-2.12-2.27-3.29-4.36-2.81.09-4.83-2.16-7.29-3.08a10.74,10.74,0,0,1,1.44-6c-1.8-1.11-3.61-2.24-5.47-3.18-2.5,1.08-6.8,1.64-8,4.31a2.73,2.73,0,0,1,1.83,3.39c-2.26,1.4-3.08-1.47-4.74-1.83-2.11,1.55-2.91-.79-4.74-.08-.65,3.64-3.7,1.28-4.73,3.43,2.38,1.59,1.23,2.68,2.93,5.43,3.5-2.14,4.94,1.81,7.65,2,2.26-.27,2.35-3.93,4.36-2.35-2.19,2.48,2.56,1.25,2.55,1.25,2,1.33,3.77,5.32,6.2,6.3,1,2.8-2.74,4.33.38,7.68-3.82,2.21,1.12,1.65-4,3,2.41.62.78,3.16,2.93,5.43.73-.39,1.16.08,1.82-.11A19.91,19.91,0,0,0,75,89.79c2.1,2.58,5,2.75,7.3,4.83.52,4.8,4.41,8.4,2.94,10.68-1.77-1.22-3.07-3.84-6.19-1C76,99.66,69.94,104.16,64.83,105.77Z"/><path class="cls-8" d="M55.6,52c-.39-1.21-1.32-.8-1.83-1.64l-1.46.78,1.1,2Z"/><path class="cls-8" d="M65.8,53.55,68,52.37c.73-1.17-.85-2.12-1.1-3.79s.88-2.32,0-3.5a16.77,16.77,0,0,1-2.19-.58c-1.23-.87-2-3.44-5.1-.76.07,1.68,2,1.39,2.19,2.32S60.6,47.31,61,48.22A16.38,16.38,0,0,0,65.8,53.55Z"/><path class="cls-8" d="M49.1,76.57c1-1.2-.56-1.29-1.1-2C47,75.72,48.56,75.82,49.1,76.57Z"/><path class="cls-8" d="M130.61,50.19,135,47.84c-1.58-3.27,1.95-3.75.71-5.64-.56-.86-3.44-.18-4.74-1.83,0,0,2.72-1.45,1.82-1.85-1.62-2.13-7.05,1.59-4.36,4.1-1.29.89-2,.1-3.27.89,3.08.87-2.61,5.66-3.63,5.46a3.5,3.5,0,0,0-1.83-1.65c3.17-.57.72-5.58-1.1-5.54-2,1.68-1.14,1.23-3.64,2-2.5-1.43-4.61-4-6.94-5.91-2.5,2.11-3.48-.26-5.46.31,1.78,2.08-1.23,3.81-2.9,3.32-1.43-2.92,2-4.92,4.72-5.17-1.07-3.78,9.79-4.43,8.72-8.2-2.79.05-3.57-5.88-6.93-4.15-1.09,2.64.66,4.75,3.29,4.36-3.84,3.14-5.25-.91-8.74,1.2.73.8,1.73.74,2.19,2.33-.8.56-2.13,1-1.82,1.85.4-.22,1.12.1.36.68-.68-.93-2.09.33-3.27.89a3.46,3.46,0,0,1-.37-2.43c-3.46,1.67-5.43-2.09-4-4a5.44,5.44,0,0,0,2.55,1.25,16.54,16.54,0,0,0,2.18-4.67c.35-1.35-2.33-3.83,1.44-4.29,2.86,0-.85,3.17,1.46,2.72.7-2,1.79-1.06,3.64-2-.88-1.59.18-2.68-1.47-4.47,3.68-1.56.63-4.89,2.9-6.82C104.3,8,104.29,5.52,99.92,7.13c-1.64-1.59.08-2.31-1.1-3.79,3.75-1.48,7.72-.08,9.09-4,1.27,3,2.63-.79,4-1.28,1.32,2.87-4.29,3.92-.71,7.39,3.37-2.35,4.84,1,6.56,3.48l2.91-1.57c1.43,2.82,3,5.29,5.84,3.87,1.06,3.33,3.17,3.56,4.39,6.4,2.51-.39,5.49-2.17,8-2.56-.62-.77-1.88-.78,0-1.75,2-2.45,1.68,2.07,3.28.86,1.29-.89,2-.1,3.28-.88.74-1.17,1.76-2.26.72-3.89-1.63-3.47-2.82,0-4-2.22-.33-1.06,1.18-1.63,1.45-2.54,1.48-.26,1.68,3.25,3.29,2.61-.4-1.69.68-3.35,1.08-5a21.7,21.7,0,0,0,.72-3.89C144.87.09,143.6-4.1,140.32.27q-1-2.33-3.28-.87c-.25-1.81-1.56-3.91,0-5.25,1.63,1.79,3.34,1.12,4,2.22-.06-.1-2.26,2,0,1.75.51-2,3.63-3.32,1.44-6A4.89,4.89,0,0,0,145-10.16a3.58,3.58,0,0,1,2.19,4.07A9.5,9.5,0,0,1,153.06-4c-4,1-2.65,5.19-.35,4.57-.85,2.69-5.4,4.41-2.16,8.18a3.25,3.25,0,0,0,3.64-2c2,5.38,2.15-.67,4,.47-1.35,2.17-1.67,4.61-2.9,6.82,3-1.5,8-2.4,7.29,1.34-2.81,1.86-3.8-1.69-6.19-1-1.44,2.66,1.81,9,5.84,5.62-1-1.44-1.2-2.65,0-3.5,1.12,2.55,3.11,2.55,4.38,4.65-.85.56-1.62,1.13-.72,2.14-2.7.23-5.82,1.85-5.09,4.49,1.85,3.33,5.42,1.58,6.93,5.9,2.28.28,6-3.55,7.64-1.49-1.59,1.14-2.15,2.55-4.72,3.42,1.83,2.42-1,3.62-.72,5.64-.16-2.13-4.08-1.69-3.64.21.76,1.61,2.56-.27,3.28.86,0,0-1.13.71-.36,1.07.56.27,2.91-1,3.64,1.54-.8.57-2.13,1-1.81,1.86,2.1-1,5.49,3.07,3.29,4.36-1-2.21-3.16-1.23-4-4-3.52,1.11-5.34-.09-5.84-3.87-5.95,3.5-11.94,6.28-16.73,7.26.54.74,2.13.84,1.1,2-1.7-.83-3.28-2-5.47-1.44-2.29,1.54-1.19,4-2.54,5.75a27.06,27.06,0,0,0-5.47-1.44c-2.42.7-4.89,1.58-6.56,0C131.62,54.34,130.94,52.22,130.61,50.19Z"/><path class="cls-8" d="M37.67,18.75c3.28-2.55,4.2.62,4.38,2.9.86-.94,4.19-1.23,3.27-2.64-.55-2.5-2-2.24-3.29-2.61,1.91-.67.91-2.09,3.27-2.64.67.95,1.09,2.65,2.19,2.32.6-2.74,2-3.55,5.09-4.49.67.95,1.09,2.65,2.19,2.32,2.66-.66-.21-2.78,1.81-3.6L58,13c2.78-1.77,4.5-.4,7.28-2.17,2.44,2.13,7.53,4,9.84.84,1.28,5.62,6.86-1.52,8.74,2.3a10.83,10.83,0,0,0-5.81,4.89c-2.51-.78-5.64.24-8.38.13.3,4-8.91,6.44-2.89,10.32-2.82,1.08-7.19.11-6.56-3.47-1.82-.29-5,1.31-6.92,1.1-.74-.08-.52-1-1.46-1,.29,0-.82,1.49-.37-.68C48,28.14,45.11,28.21,44.25,31c1.23,4.6,5.87-.95,6.93,4.16-2,1.69-3,.73-4.73,1.67,1.89,2.44,0,3.89-1.81,5.36-1.22-3.16-6.18-1.55-7.28.42-1.57-2.4-2.72-6-5.84-3.87-.66-2.12.21-3.83-.38-5.93,1.82-.69,3.51-1,4.73.08a2.27,2.27,0,0,0-1.45,2.53c2.72-1.54,7.53-.07,8.73-2.95-.62-1.12-2.22.7-2.91-.19,1.36-2.47-2.54-4.1-3.29-6.12C36,22.72,41.74,21.58,37.67,18.75Z"/><path class="cls-8" d="M55.16,23.35c1.25-1.37,1.33-4.33-.74-4.86C51.36,19.39,53.48,22.92,55.16,23.35Z"/><path class="cls-8" d="M103.73,76.94a17.35,17.35,0,0,1-2.9,6.82l-1.1-2c-3,2.21-4.83,2.55-7.27,5.67-.94-1.22.25-1.88.36-2.82-.46.2-.92.36-1.1-.29-1.11.68.37,2-1.45,2.53-3.14-1.84-4.67-3.95-7.28.41-1.92-2.81,1-3.43-1.83-5.14,2.49-.71,1.5-2.32,4-3-1.32-2.15-.51-7.08,2.18-4.67-.84.55-1.61,1.13-.72,2.14,3.87-1.39,2,3.29,5.83,2.12-1.06-1.82.47-2-1.46-2.72,3.46-1.19,4.33-2.59,8.37-3.63l-2.2-4.08c2.54-1.47,1-4,1.44-6-1.74,1.49-.28,3.81-2.9,5.07-2.74-.75-4.26-1-4.38-4.66-2.72,1.59-4.29-.22-5.83-2.11,2.78-1.6,7.15-2.78,4.36-5.85,2.91-2.15,3.52,2.52,6.56,0-.51-.85-1.44-.44-1.83-1.65,2.37-.58-.05-1.5,0-1.75.13-.74,1.11-.52,1.09-1.46s-1.93-2.47,0-3.5c2,.55,2.75,4.8,5.11,4.26-.44-1,1.47-1.71,1.82-.1-.38,1.52-2.29,1.44-5.09,2.74,1.92,1.33-.14,2.17,0,3.5,0-.25.87,1,1.1,2s-.31,1.85.74,3.11c2.67.41,7-2.48,3.63-5.46,3.59-1.57,4.18-2.14,7.28-.41-.93,1.29-.66,3.58,1.46,2.72a2.28,2.28,0,0,0,1.45-2.54c-1.48-.32-2.17-3-3.65-3.29,1.71-1.29,2.63-2.74,4.72-5.17,1.27.94,2.42,2.24,4,2.22-1.19.86-1,2.06,0,3.5,1.9-2.11,1.74,1.9,3.64-.21-.33,3.79,2.24,2.08,4,4q-3.16.92-1.08,3.22c-2.82,2.47-4.24.8-6.55,1.78-1.07,2.84-6.15,3.37-1.8,7.1C110.9,72.63,109.29,73.52,103.73,76.94Z"/><path class="cls-8" d="M97.13,59.46c-.39-1.21-1.32-.8-1.83-1.64l-1.45.78,1.1,2Z"/><path class="cls-8" d="M25.76,64.6c.1-.95,1.3-1.6.36-2.82-1.43-.46-3.86,2-4.37-1.15-1.86,1.26.24,3.56-1.08,5,1.62.49,3.65-.24,4.38,2.9C27.08,67.66,26.16,66.06,25.76,64.6Z"/></g></g></g><g id="noticia_2" data-name="noticia 2"><g class="cls-9"><path class="cls-10" d="M100.26,89.41C62.45,88.77-5.94,90.7-5.94,90.7c-.7-57.86-1.28-106.2-1.28-106.2S79.59-14.23,99-16.79C99-16.79,97.77,73.45,100.26,89.41Z"/><polygon class="cls-11" points="2.33 83.55 95.62 85.39 90.1 -6.37 2.33 83.55"/><rect class="cls-12" x="0.35" y="-9.21" width="92.33" height="92.33" transform="translate(-0.44 0.56) rotate(-0.69)"/><rect class="cls-13" x="0.35" y="-9.21" width="92.33" height="92.33" transform="translate(-0.44 0.56) rotate(-0.69)"/><g class="cls-14"><path class="cls-15" d="M71.94,44s1.81,10.27-6.22,16.2C65.72,60.21,57.81,55.29,71.94,44Z"/><path class="cls-15" d="M17.68,44.81S17,56,28.34,58.21l5.36-.08S27.07,43.53,17.68,44.81Z"/><path class="cls-16" d="M.24,84S5.55,56.76,44.7,56C82.92,55.29,93,72.22,95.27,82.65L44.66,92.12Z"/><path class="cls-17" d="M29.39,54.58l-1,9s6.39,7.64,16.78,7.3,16.85-8.94,16.85-8.94l-1.89-7.79Z"/><path class="cls-18" d="M58.89,56.17s-10,9.64-30.48,7l.93-7.82Z"/><path class="cls-18" d="M71.78,33.66S74.54,31,76.39,31.9s1,7.69-4.45,12.11Z"/><path class="cls-18" d="M17.67,34.46s-2.82-3.9-4.84-3.76-1.63,8.39,4.86,14.11Z"/><circle class="cls-19" cx="72.81" cy="50.09" r="6.81" transform="translate(-0.73 1.08) rotate(-0.84)"/><circle class="cls-19" cx="17.76" cy="50.9" r="6.81" transform="translate(-0.75 0.27) rotate(-0.84)"/><ellipse class="cls-17" cx="44.66" cy="34.06" rx="29.47" ry="26.45" transform="translate(-0.5 0.66) rotate(-0.84)"/><path class="cls-15" d="M25.77,13.81s19.7,20.06,36,15.59c0,0-4.44-1.46-5.2-2.92,0,0,11.55,3.55,17,2.62,0,0,.94-8.68-8-15.88S37.13,1.81,25.77,13.81Z"/><path class="cls-15" d="M29.48,17.2S25.24,28.74,15.15,31.75c0,0-.33-16.89,10.62-17.94Z"/><path class="cls-15" d="M66.8,65.78s-8.34-2.59-8.7-5.91c0,0,2.22-7.81,6.81-5.24C64.92,54.63,69.8,60.2,66.8,65.78Z"/><path class="cls-15" d="M67.1,70.53s7.62-6.26,5.07-10.42-6.79-2.85-8.89.71S67.1,70.53,67.1,70.53Z"/><path class="cls-15" d="M68.08,74.74s1.4-9.56-6-11.29S60.38,74.24,68.08,74.74Z"/><path class="cls-15" d="M64.28,78s.3-11,5.42-10.89,2.37,7.62.94,8.09S64.28,78,64.28,78Z"/><path class="cls-15" d="M68.54,78s-1.62-5.36-5.85-7S58.25,82.21,68.54,78Z"/><path class="cls-15" d="M68.57,79.8s4.09-1.5,4.3,2.81S68.71,90,68.71,90,62.24,89.12,62,83.8C61.73,79.6,65.27,79.48,68.57,79.8Z"/><path class="cls-20" d="M62.91,78l.24,2.51s8,1.15,8.9-.24l-1.4-5.08Z"/><ellipse class="cls-15" cx="35.91" cy="35.59" rx="1.54" ry="2.46" transform="translate(-0.52 0.53) rotate(-0.84)"/><ellipse class="cls-15" cx="53.75" cy="35.33" rx="1.54" ry="2.46" transform="translate(-0.51 0.8) rotate(-0.84)"/><path class="cls-18" d="M41.12,41.08a3.86,3.86,0,0,0,.55,3.59A4,4,0,0,0,44.94,46a3.69,3.69,0,0,0,3.27-5c-.44-1.08-2.23-.61-1.78.49A1.85,1.85,0,0,1,45,44.12a2.23,2.23,0,0,1-1.66-.38,1.9,1.9,0,0,1-.44-2.17.92.92,0,0,0-1.78-.49Z"/><path class="cls-21" d="M40.17,51.81c.32,1.49,3.31,1.78,4.41,1.8,1.55,0,3.6-.33,4.66-1.61.75-.91-.55-2.22-1.3-1.3a3.82,3.82,0,0,1-2.6,1.05,6.28,6.28,0,0,1-2.77-.32,4,4,0,0,0-.6-.3c-.3,0-.16-.53,0,.19-.25-1.16-2-.67-1.78.49Z"/><path class="cls-22" d="M44.48,50a23.34,23.34,0,0,1-7.21-.9s7.08,8.43,15-.67A24,24,0,0,1,44.48,50Z"/><ellipse class="cls-23" cx="30.35" cy="43.38" rx="4.14" ry="1.89" transform="translate(-0.64 0.45) rotate(-0.84)"/><ellipse class="cls-23" cx="60.66" cy="42.94" rx="4.14" ry="1.89" transform="translate(-0.63 0.9) rotate(-0.84)"/><path class="cls-15" d="M29,30.87A2,2,0,0,1,28.32,29a3.84,3.84,0,0,1,.77-1.89,5.26,5.26,0,0,1,1.4-1.31,10.68,10.68,0,0,1,1.69-.84,5.61,5.61,0,0,1,2-.35,4.28,4.28,0,0,1,2,.53A4.59,4.59,0,0,1,38.24,28a5.85,5.85,0,0,0-2.67-1.53,3.65,3.65,0,0,0-2.5.48c-.19.14-.4.22-.59.38s-.4.3-.59.45c-.39.29-.75.57-1.11.85a9.3,9.3,0,0,0-1,.89A2.92,2.92,0,0,0,29,30.87Z"/><path class="cls-24" d="M47.18,17s7.52,6.51,15.27,6.62c0,0-4.46-6.18-4.33-8.14,0,0,2.75-2.19,9.2,1.6,0,0-3.51-5.33-14-8.32,0,0-1.14,5.23,1.31,7.83C54.67,16.59,53.63,18.78,47.18,17Z"/></g></g></g></g></svg>