<svg xmlns="http://www.w3.org/2000/svg" xmlns:xlink="http://www.w3.org/1999/xlink" viewBox="0 0 93 103"><defs><style>.cls-1,.cls-15,.cls-16{fill:none;}.cls-2{fill:#cc8383;}.cls-3{clip-path:url(#clip-path);}.cls-4{clip-path:url(#clip-path-2);}.cls-5{fill:#c6aa6d;}.cls-14,.cls-6{fill:#6e6e6e;}.cls-7{fill:#7a7a7a;}.cls-8{fill:#f2ccc0;}.cls-9{fill:#eaae99;}.cls-10{fill:#1a1a1a;}.cls-11{fill:#ad9360;}.cls-12{fill:#fff;}.cls-13{fill:#5c5c5c;opacity:0.23;}.cls-14{opacity:0.31;}.cls-15,.cls-16{stroke:#eaae99;stroke-linecap:round;stroke-miterlimit:10;}.cls-15{stroke-width:1.28px;}.cls-16{stroke-width:0.85px;}</style><clipPath id="clip-path"><ellipse class="cls-1" cx="47.48" cy="53.64" rx="36.99" ry="38.64"/></clipPath><clipPath id="clip-path-2"><rect class="cls-1" x="12.56" y="21.57" width="70.59" height="70.7" transform="translate(-0.14 0.12) rotate(-0.14)"/></clipPath></defs><title>notificacion_juridico_01</title><g id="noticia01"><ellipse class="cls-2" cx="47.48" cy="53.64" rx="36.99" ry="38.64"/><g class="cls-3"><g class="cls-4"><path class="cls-5" d="M60,53.5a2.89,2.89,0,0,0,.62,3.36c.6.56,1.51-.34.9-.9a1.59,1.59,0,0,1-.42-1.81c.34-.74-.76-1.39-1.1-.65Z"/><path class="cls-5" d="M58.81,56.26c1-.6,2.29,0,3.35-.75a4.7,4.7,0,0,0,1.65-2.29c.36-1.11-.49-3.61-1.91-2.16A1.18,1.18,0,0,0,63,53a1.29,1.29,0,0,0,.61-2.39.65.65,0,0,0-.94.38c0,.06-.56,1.88-1.06,1.83L62,54a2.18,2.18,0,0,0,1.17-1,.65.65,0,0,0-.38-.94c-1.71-.65,1-1.34,1.12-1.46a5,5,0,0,0,1.1-2,2.57,2.57,0,0,0-1.35-3.22c-.74-.34-1.39.76-.65,1.1a2.75,2.75,0,0,0,1.3.34l-.64-.64-1.57,2.06.17,1.26a1.49,1.49,0,0,0,1.27-1.93c-.1-.6-.88-.55-1.17-.15l-1,1.38h1.1L62,47.86a.64.64,0,0,0-.79-.45l-.41.16.72.29a1.68,1.68,0,0,1-.47-1.46q-.07-1.58-.16-.65l1.19.32A3.81,3.81,0,0,0,62,44.34c-.14-.67-1-.54-1.23,0a1.93,1.93,0,0,0,2,2.74L62.32,46,62,45.73c.45-.69-.66-1.33-1.1-.65a1.48,1.48,0,1,0,2.33,1.81.65.65,0,0,0-.45-1.09L62,44.68H60.77l.09,1.4A.64.64,0,0,0,62,46.4c.6-1,.88-3.77-1.2-2.89-1.88.79-1.21,3.79-.38,5a.65.65,0,0,0,.72.29l.41-.16-.79-.45a1.92,1.92,0,0,0,.52,1.21.65.65,0,0,0,1.1,0l1-1.38-1.17-.15-.38.36c-.71.11-.55,1.32.17,1.26a2.84,2.84,0,0,0,2.85-3.34.66.66,0,0,0-.64-.64l-.66-.16L63,46.45c1.09.5.88,2.57.11,3-.19.1-.68,0-.94.1a1.88,1.88,0,0,0-1.23,1.23,2,2,0,0,0,1.49,2.5L62,52.32l-.71.59c-.62.32-.25,1.13.32,1.19,1.42.15,1.9-1.72,2.29-2.77l-.94.38a6.07,6.07,0,0,1-1.19,2.4,3,3,0,0,1-2.26.61c-.73.22-.71,0-1.39.43a.64.64,0,0,0,.65,1.1Z"/><polygon class="cls-6" points="36.15 74.72 56.34 74.27 59.72 77.18 48.45 87.6 34.72 81.33 36.15 74.72"/><path class="cls-7" d="M39,76.24S22.9,79.6,19.93,82s-3.72,12.25-3.72,12.25l31.14,8.9L79.1,91.76S79,83,72.63,79.54s-18.07-3.35-18.07-3.35Z"/><polygon class="cls-8" points="40.9 67.56 38.65 78.03 43.93 87.58 55.28 81.38 54.19 67.36 40.9 67.56"/><path class="cls-5" d="M29,41.85c.61,2.07,1.4,12.38,1.36,14.15s.81,5.44,2.65,6.6,4.56,4.7,4.8,4.54,20.41-2.95,20.41-2.95a10.93,10.93,0,0,0,1.93-6.74C59.89,53.57,61,46.33,62,45.23s-.23-9.41-1.36-10.11-2.92-5.62-7.85-5.91C50,29,41.83,27.27,36,30.63,31.55,33.21,28.72,41,29,41.85Z"/><path class="cls-9" d="M40.52,69.71l-1.44,6.67s13,.52,14.73-6.87Z"/><path class="cls-9" d="M58.85,50.23s1.44-3.4,2.41-2.94,1,4,.43,4.88-2.65,5-2.65,5L58,54.25Z"/><path class="cls-9" d="M33.43,47.56s-2.38-2.39-2.39.49,3.34,8.26,3.34,8.26S35.73,49.87,33.43,47.56Z"/><path class="cls-8" d="M59.76,49.88c-.16,1.74-.31,3.34-.45,4.82C57.9,69.17,56.72,71.91,47,72.13c-10.09.23-11.36-4.2-13.31-21.66-1.86-16.64,5.38-20.61,12.58-20.78S61.43,31.6,59.76,49.88Z"/><ellipse class="cls-10" cx="41.03" cy="48.42" rx="1.07" ry="1.71" transform="translate(-1.09 0.94) rotate(-1.3)"/><ellipse class="cls-10" cx="53.38" cy="48.14" rx="1.07" ry="1.71" transform="translate(-1.08 1.22) rotate(-1.3)"/><polygon class="cls-5" points="36.29 45.81 36.1 47.5 45.04 46.62 45.38 43.92 36.29 45.81"/><polygon class="cls-5" points="49.94 44.02 50.08 46.5 56.24 46.84 56.45 45.55 49.94 44.02"/><path class="cls-5" d="M27.91,37.73c-.52,1.35.53,3.83,2.27,3.29A2.33,2.33,0,0,0,31,37.2a.65.65,0,0,0-.78-.1.71.71,0,0,0,0,1.24c.72.4,1.37-.71.65-1.1l-.05,0,.32.55v-.07l-.32.55.05,0-.78-.1a1,1,0,0,1-.27,1.69c-.71.21-.84-1.33-.69-1.72.3-.77-.94-1.1-1.23-.34Z"/><path class="cls-5" d="M28.07,37.84a2.8,2.8,0,0,0,.28,1.92,1.19,1.19,0,0,0,1.55.62c1.16-.61,1-2.3.26-3.14a.65.65,0,0,0-1,.13,1.87,1.87,0,0,0-.29,1.83c.35.73,1,.36,1.57.09.73-.38.08-1.49-.65-1.1l-.31.16q-.33.15,0,0l.45.19q.09.25.06.07a.54.54,0,0,1,0-.21,1,1,0,0,1,.22-.4l-1,.13a.86.86,0,0,1,.22.48.9.9,0,0,1,0,.29c0,.06-.12.22-.11.27s.15.07.17,0a3.26,3.26,0,0,0-.15-.3,1.44,1.44,0,0,1-.06-.73c.14-.81-1.09-1.15-1.23-.34Z"/><path class="cls-5" d="M29.92,33c-.38,1-.44,3,.74,3.57,1.45.75,2.1-1.42,2.08-2.45A1,1,0,0,0,31.81,33a1.29,1.29,0,0,0-1.2,1,1,1,0,0,0,.51,1.29c.71.2,1.06-.56,1.24-1.11l-1.07.28a2.92,2.92,0,0,0,.76.67,2.88,2.88,0,0,0,.46.22l.16.06q.38.18,0-.4c-.47.68.64,1.32,1.1.65a.9.9,0,0,0-.29-1.28c-.48-.3-.91-.34-1.29-.82a.65.65,0,0,0-1.07.28.91.91,0,0,1-.11.28q-.09.16,0,0l.49-.06-.09,0,.38.29q0,.15,0,0T31.47,34a2.32,2.32,0,0,0,0,.49,3.66,3.66,0,0,1-.24.85c-.16,0-.23-.79-.23-.9a2.88,2.88,0,0,1,.19-1.13c.28-.78-1-1.11-1.23-.34Z"/><path class="cls-5" d="M31.79,35.44a11.66,11.66,0,0,0,.4,2,.64.64,0,0,0,1.23-.34,9.74,9.74,0,0,1-.35-1.66c-.09-.81-1.37-.82-1.28,0Z"/><path class="cls-5" d="M31.3,52.59a3.88,3.88,0,0,0-2.58,4.57,1.44,1.44,0,0,0,1.8.91,1.15,1.15,0,0,0,.67-.66c.08-.19,0-.39.09-.58,0,0,.14-.61.3-.34l.55-1a2.1,2.1,0,0,0-1.8,1.1.64.64,0,0,0,.38.94,1.48,1.48,0,0,0,1.43-.45l-1-.13.18.33c.39.72,1.5.08,1.1-.65l-.18-.33a.65.65,0,0,0-1-.13l-.18.12.38.94a.78.78,0,0,1,.69-.46.65.65,0,0,0,.55-1,1.53,1.53,0,0,0-2.61.31c0,.07-.13.72-.05.71-.3,0,0-1.16,0-1.21a2.31,2.31,0,0,1,1.61-1.83c.8-.19.46-1.43-.34-1.23Z"/><path class="cls-5" d="M32.66,59.94a1.77,1.77,0,0,1,.36.3v-.9a2.42,2.42,0,0,0-.39.65l1.17-.15a7.2,7.2,0,0,0-.68-1.08c-.49-.65-1.6,0-1.1.65a7.2,7.2,0,0,1,.68,1.08c.28.54,1,.31,1.17-.15l.06-.09a.66.66,0,0,0,0-.9,3.21,3.21,0,0,0-.62-.5c-.7-.44-1.34.67-.65,1.1Z"/><path class="cls-5" d="M35,32.26a1.68,1.68,0,0,0,.64-2.76,2.16,2.16,0,0,0-3.09-.14c-.68.57-1.48,2.32-.11,2.64s1.79-1.38,1-2.16l.16.62q-.33.24-.12.2a.1.1,0,0,1,.13,0,2,2,0,0,1-.32.57l1.17.49.09-.28c.26-.78-1-1.12-1.23-.34l-.09.28c-.24.73.77,1.05,1.17.49s.8-1.79-.08-2.35a1.34,1.34,0,0,0-2,.55.63.63,0,0,0,.16.62c.08.08-.24.58.43.2.06,0,.14-.29.19-.36a1.28,1.28,0,0,1,.76-.52.76.76,0,0,1,.71.23c.15.16.39.65,0,.74A.64.64,0,0,0,35,32.26Z"/><path class="cls-5" d="M33.33,31.81c.2.56.16,1.23.86,1.46a.92.92,0,0,0,1.2-.86.62.62,0,0,0-.32-.55A1.81,1.81,0,0,0,32.57,33a1.06,1.06,0,0,0,.74,1.2c.59.15.86-.32,1.32-.53.75-.35.1-1.45-.65-1.1a1.61,1.61,0,0,0-.34.22l-.15.13q-.25.18.34.29c.18,0,.35-.42.59-.29l-.32-.55q.71,0,.59-.33a1.18,1.18,0,0,1,0-.2,2.36,2.36,0,0,0-.1-.41c-.28-.77-1.52-.44-1.23.34Z"/><path class="cls-5" d="M40.69,28.67c-.51.36-1,.06-1.41-.34a5.44,5.44,0,0,0-.51-.63q-.43.73,0,.43l.42-.18-.62-1.07c-.65.67-2.15,1.68-1.44,2.76s1.94.5,2.69-.17l-1-.78-.36.58c-.43.7.67,1.35,1.1.65l.36-.58c.4-.64-.48-1.25-1-.78-.2.18-1,.78-.39.2l1-1c.41-.43,0-1.31-.62-1.07-.44.17-1.14.34-1.33.83s.27,1.05.6,1.44a2.41,2.41,0,0,0,3.18.78c.67-.47,0-1.58-.65-1.1Z"/><path class="cls-5" d="M35.72,29.89a1.06,1.06,0,0,0,1,.83,1.61,1.61,0,0,0,1.28-.59c.59-.58-.32-1.48-.9-.9l-.16.15q-.14.08.07.17c-.16-.81-1.39-.47-1.23.34Z"/><path class="cls-5" d="M41.25,29.72a2.43,2.43,0,0,1,.08-.74l-.38.29a4,4,0,0,1,1.23.24c.67.13,1.19-.84.49-1.17-.42-.2-1.37-.89-.77-1.35a2.31,2.31,0,0,1,1.95-.17.64.64,0,0,0,.34-1.23c-1.11-.33-2.84-.23-3.56.85S41,29,42,29.45l.49-1.17c-.56-.11-1.44-.48-2-.21S40,29.17,40,29.72c-.07.82,1.21.82,1.28,0Z"/><path class="cls-5" d="M43.75,25.83l-.22.08.79.45a1.47,1.47,0,0,0-1.13-1,.66.66,0,0,0-.79.45c-.15.56-.19,1.39.52,1.57S44,26.91,44,26.32l-1.26.17a1.62,1.62,0,0,1-.07.65c0,.11.07.08,0,0a2,2,0,0,1-.23-.29l-1,.78a2.17,2.17,0,0,0,1.39.65l-.45-.19a3.87,3.87,0,0,0,.79.54c.74.37,1.38-.74.65-1.1-.26-.13-.48-.36-.74-.47s-.49-.09-.73-.33c-.5-.51-1.41.16-1,.78s1.16,1.26,1.94.76A2.06,2.06,0,0,0,44,26.15c-.16-.74-1.21-.52-1.26.17l.56-.17.29.38a.67.67,0,0,1,0-.39l-.79.45c.06,0,.2,0,.24.09a.65.65,0,0,0,.79.45l.22-.08c.77-.27.44-1.5-.34-1.23Z"/><path class="cls-5" d="M43.87,29.06c1.56.64,3.65-1.78,2-2.92-.59-.41-1.32.53-.78,1a.86.86,0,0,0,1.08.19.74.74,0,0,0,.22-1c-.44-.69-1.55-.05-1.1.65l0,.06-.06-.49,0,.08.29-.38-.08,0,.49-.06.05,0-.78,1c.07,0-.29.39-.31.4a.65.65,0,0,1-.7.18.64.64,0,0,0-.79.45.65.65,0,0,0,.45.79Z"/><path class="cls-5" d="M43.63,27.88l.19.37A.64.64,0,0,0,45,27.76l-.17-.48-.62.81.62,0c.82,0,.82-1.23,0-1.28l-.62,0a.64.64,0,0,0-.62.81l.17.48,1.17-.49-.19-.37c-.37-.74-1.47-.09-1.1.65Z"/><path class="cls-5" d="M45.64,29.68c.49.76,1.37.44,1.94,0a3,3,0,0,0,1-2.14H47.32a1.55,1.55,0,0,0,.3,1l.55-1c-.38,0-.76,0-1.14,0l.45,1.09,1-.8c.64-.52-.27-1.42-.9-.9l-1,.8c-.45.37-.06,1.08.45,1.09s.76,0,1.14,0,.87-.54.55-1a.45.45,0,0,1-.13-.35c0-.83-1.23-.82-1.28,0a1.66,1.66,0,0,1-.3.87,1.63,1.63,0,0,1-.28.31.77.77,0,0,1-.17.13q-.25.11.18.23c-.45-.69-1.56,0-1.1.65Z"/><path class="cls-5" d="M49.26,27.37a.8.8,0,0,0-1.07-.55,1.39,1.39,0,0,0-.53.45l-.22.24-.18.17q-.26.18.29.31l-.62.81,1.26-.16a.66.66,0,0,0,.64-.64.64.64,0,0,0-.64-.64l-1.26.16a.65.65,0,0,0-.62.81,1,1,0,0,0,1.19.66,1.7,1.7,0,0,0,.66-.41,4.07,4.07,0,0,0,.29-.29l.11-.12q.31-.27-.27-.16L48,27.62l0,.09a.64.64,0,0,0,1.23-.34Z"/><path class="cls-5" d="M50.78,29.26a2.54,2.54,0,0,1,0-.93c.08-.36.09-.34.36-.07.42.41,1.32,0,1.07-.62a1.43,1.43,0,0,0-2.32-.5,2.55,2.55,0,0,0-.85,1.29.84.84,0,0,0,.84,1c.53,0,.75-.43,1-.81a2.31,2.31,0,0,1,.55-.57,5.64,5.64,0,0,1,.7-.28c.9-.5.08-.81-.17-.87a1.27,1.27,0,0,0-.42,0,1.25,1.25,0,0,0-.67.26,1.35,1.35,0,0,0-.48,1.36c.12.81,1.36.47,1.23-.34,0,.17.8.19,1,.15a1,1,0,0,0,.6-.41.89.89,0,0,0-.62-1.35,2.36,2.36,0,0,0-1.76.42,3.46,3.46,0,0,0-.7.63,4.59,4.59,0,0,0-.31.41l-.09.15q-.26.33.42.1l.19.45c0-.06.62-.8.67-.69l1.07-.62c-.57-.55-1.45-1-2.09-.25a3.18,3.18,0,0,0-.45,2.5c.12.81,1.35.47,1.23-.34Z"/><path class="cls-5" d="M50.93,27.57a1.57,1.57,0,0,0,.49,2.16c.57.39,1.68.63,2.08-.13a.82.82,0,0,0-1.16-1.1c-.11.07-.26.37-.35.4.12,0-.13-.16-.2-.25a8.22,8.22,0,0,0-.74-1c-.61-.55-1.52.35-.9.9s.68,1.13,1.37,1.42a1.36,1.36,0,0,0,.94.06,1.11,1.11,0,0,0,.38-.22,1.07,1.07,0,0,0,.19-.22q.14-.16,0,0l-.49-.06.08-.73-.15,0c-.08-.06-.21-.06-.3-.13a.3.3,0,0,1-.09-.45c.46-.69-.65-1.33-1.1-.65Z"/><path class="cls-5" d="M47.16,29.09a1.19,1.19,0,0,0,1.75.06.88.88,0,0,0-.56-1.51l.17,1.26.49-.18c.76-.28.43-1.52-.34-1.23l-.49.18a.64.64,0,0,0,.17,1.26h.09L48,28.74q-.18-.59.09-.5s0,0,0,0c-.52-.64-1.42.27-.9.9Z"/><path class="cls-5" d="M51.55,27.44a2.39,2.39,0,0,0,.83,2.38,4.42,4.42,0,0,0,2.66.84c.82.05.82-1.23,0-1.28s-2.54-.37-2.25-1.6c.18-.8-1-1.14-1.23-.34Z"/><path class="cls-5" d="M56.37,30.62a3.77,3.77,0,0,1-.46-.77c-.07-.15-.32-.67-.26-.83,0,.1.48-.1.59-.13s.75-.19.72.12l1-.55-.75-.5-.32,1.19c-.14,0-.15.13-.24.27-.44.7.66,1.34,1.1.65s.37-2.21-.87-2.2a.65.65,0,0,0-.32,1.19l.75.5a.65.65,0,0,0,1-.55,1.38,1.38,0,0,0-1.07-1.41,3.26,3.26,0,0,0-2.08.35c-1.48.69-.31,2.71.37,3.59.5.65,1.4-.26.9-.9Z"/><path class="cls-5" d="M57.66,30.31c.95-1.09-.15-2.55-1.44-2.5a1.77,1.77,0,0,0-1.38,2.68.64.64,0,0,0,1.1-.65.5.5,0,0,1,.22-.74c.11,0,.74.13.59.3-.54.62.36,1.53.9.9Z"/><path class="cls-5" d="M51.25,27.84a.82.82,0,0,1,1.61,0c.19.8,1.42.46,1.23-.34a2.08,2.08,0,0,0-4.08,0c-.19.8,1,1.14,1.23.34Z"/><path class="cls-5" d="M52.63,29.91a1.8,1.8,0,0,0,1.94.53c.78-.26.44-1.49-.34-1.23a.56.56,0,0,1-.69-.2c-.53-.63-1.43.28-.9.9Z"/><path class="cls-5" d="M52.76,29.25A2.31,2.31,0,0,0,54.21,29c.74-.37.09-1.48-.65-1.1a.79.79,0,0,1-.47.09.66.66,0,0,0-.79.45.64.64,0,0,0,.45.79Z"/><path class="cls-5" d="M54,29.89a2,2,0,0,1,.82-.35c.8-.17.46-1.41-.34-1.23a3.35,3.35,0,0,0-1.39.68c-.65.51.26,1.41.9.9Z"/><path class="cls-5" d="M57.29,31.35a.64.64,0,0,0,0-1.28.64.64,0,0,0,0,1.28Z"/><path class="cls-5" d="M56.76,32.46a1.92,1.92,0,0,0,2.53-.56,1.63,1.63,0,0,0-.61-2.25c-.54-.27-1.25.3-.88.88a1.21,1.21,0,0,0,1.35.56.65.65,0,0,0,.38-.94,1.13,1.13,0,0,0-1.39-.57c-.77.28-.43,1.52.34,1.23q0-.06-.05,0l.38-.94.1,0-.88.88a.34.34,0,0,1,.15.5c-.16.25-.55.21-.78.1-.74-.36-1.39.74-.65,1.1Z"/><path class="cls-5" d="M56.3,30.1l0,0-.94-.38v.13c-.25.52.3,1.27.88.88a3,3,0,0,0,.81-.82L56,29.24a1.35,1.35,0,0,0,0,1.46c.36.5.83.39,1.35.31l-.49-.06.13.09-.29-.38c.15.45.09,1,.21,1.47a5.1,5.1,0,0,0,.63,1.4c.44.69,1.55.05,1.1-.65A3.88,3.88,0,0,1,58,31.66c-.09-.39,0-.8-.12-1.18a.92.92,0,0,0-.41-.59.8.8,0,0,0-.39-.13l-.17,0q-.41,0,.12.11a.64.64,0,0,0-1.1-.65,1,1,0,0,1-.35.36l.88.88a1.55,1.55,0,0,0,.14-1.12.65.65,0,0,0-.94-.38.82.82,0,0,0-.49.48c-.35.74.76,1.39,1.1.65Z"/><path class="cls-5" d="M60.15,34.13l-.08-.08c-.59-.57-1.5.33-.9.9l.08.08c.59.57,1.5-.33.9-.9Z"/><path class="cls-5" d="M58.21,34.37v.07a.64.64,0,0,0,.45.45l.07,0a.63.63,0,0,0,.62-.16c.42-.45.39-1.07.71-1.57.5-.78,1.17.38,1.41.81l.88-.88a5.13,5.13,0,0,0-2.22-1c-.72,0-1,.72-1,1.33a.65.65,0,0,0,.64.64,1.09,1.09,0,0,0,.75-.28c.07-.05.19-.11.13-.12.1,0,.32.38.32.45l.19-.45s-.41.21-.26.31l.29.38-.42-.14,1.19.32c0,.27.1,0,.17-.09a1,1,0,0,0,.11-.46,1,1,0,0,0-.49-.77A1,1,0,0,0,60.3,34a.64.64,0,0,0,1.23.34H61L61,33.83q.15-.1,0,.06l-.14.18a.82.82,0,0,0-.12.48.64.64,0,0,0,1.19.32,1,1,0,0,0-1.39-1.37c-.88.45-.68,1.9.43,1.7a2,2,0,0,0,1.19-.69,1.19,1.19,0,0,0-.18-1.3,1.62,1.62,0,0,0-1.1-.8,1.18,1.18,0,0,0-.73.11,1.38,1.38,0,0,0-.26.18c-.12.1-.22.1-.07.1l.64.64v-.13q-.53,0-.24.12a2.31,2.31,0,0,0,.51.23c.35.17.69.36,1,.55a.64.64,0,0,0,.88-.88c-.5-.91-1.31-1.92-2.49-1.68a1.66,1.66,0,0,0-1.09.8c-.23.39-.24,1.06-.54,1.38l.62-.16-.07,0,.45.45V34c-.16-.81-1.39-.47-1.23.34Z"/><path class="cls-5" d="M60.55,36.17c.21-.58.53-.33.58.19v.34q-.22.53.39.58l-.06.49,0,0-.49.06c-.27-.08.07.6.13.68l.72-.94C60.4,37,60.64,39.35,61.22,40a1.62,1.62,0,0,0,2.9-.79c.1-.82-1.18-.81-1.28,0s-1.07-.47-.94-.57l-.49.06.11,0a.65.65,0,0,0,.72-.94c-.31-.44-.08-.94-.7-1.2a.9.9,0,0,0-1.19.5c-.42,1.06,1,1.66,1.68.89a2.87,2.87,0,0,0-.23-3.33c-1-.91-2.14.17-2.49,1.15-.28.78,1,1.11,1.23.34Z"/><path class="cls-5" d="M62.83,39.12a1.7,1.7,0,0,1-.55.5,1.26,1.26,0,0,1-.27.11.34.34,0,0,1-.18,0q-.31,0-.08.54l-.62-.81a2.74,2.74,0,0,0,.13,1.84,1.47,1.47,0,0,0,1.34.78c.82,0,.82-1.32,0-1.28-.43,0-.27-.75-.23-1a.65.65,0,0,0-.62-.81,1,1,0,0,0-.51,1.88,2.23,2.23,0,0,0,2.5-.87c.5-.64-.4-1.55-.9-.9Z"/><path class="cls-5" d="M61.55,41.65a1.58,1.58,0,0,0-.12.91c0,.27,0,.6-.36.63l.55,1c.06-.08.16-.15.22-.24L62,43.8q-.33-.22-.36,0c-.17.14-.14.3-.4.38a.64.64,0,0,0,.34,1.23,1.76,1.76,0,0,0,1.24-2.28,1,1,0,0,0-1.1-.62,2.3,2.3,0,0,0-1.17,1,.64.64,0,0,0,.55,1,1.77,1.77,0,0,0,1.4-.8,1.65,1.65,0,0,0,.26-.74,2,2,0,0,0,0-.41c0-.06,0-.35-.06-.22.33-.75-.77-1.4-1.1-.65Z"/><path class="cls-5" d="M60.47,45.2a2.25,2.25,0,0,0,.45,1.85.89.89,0,0,0,1.49,0c.44-.72-.62-1.28-1.1-.65.18-.24.33.2.38.16l-1.09-.45a2.59,2.59,0,0,0,.11.78.64.64,0,0,0,1.23-.34,1.31,1.31,0,0,1-.06-.44.65.65,0,0,0-1.09-.45,1.11,1.11,0,0,0,0,1.68,1.13,1.13,0,0,0,1.66-.28l-1.1-.65,0,.07.38-.29q.42.2.2,0a.58.58,0,0,1-.09-.18.89.89,0,0,1-.05-.43.66.66,0,0,0-.45-.79.64.64,0,0,0-.79.45Z"/><path class="cls-5" d="M60.12,57.09c.08,0,0-.49,0-.45l.55-.32c.22,0-.13,0-.2-.06a.92.92,0,0,0-.53.06,1,1,0,0,0-.58.7.65.65,0,0,0,.29.72,1.06,1.06,0,0,0,.9,0c.11,0,0,0,0,0a.88.88,0,0,1-.28.35c-.67.47,0,1.58.65,1.1a1.68,1.68,0,0,0,.81-2,1.33,1.33,0,0,0-.77-.73c-.41-.14-.67,0-1.05.11l.49.06-.1,0,.29.72q-.63.11-.22.22a1.2,1.2,0,0,0,.29,0,.71.71,0,0,0,.45-.19.8.8,0,0,0,.15-.95A1.27,1.27,0,0,0,59.47,56c-.72.39-.08,1.5.65,1.1Z"/><path class="cls-5" d="M59.82,57.59a1.25,1.25,0,0,0-.69,1.23,1.18,1.18,0,0,0,.26.64c.07.09.15.16.23.25l.11.11q.08.27.24-.06A.64.64,0,0,0,60,61a1.12,1.12,0,0,0,1.1-1.13,1.47,1.47,0,0,0-.34-.88c-.08-.1-.17-.18-.25-.28s-.14,0,0-.06c.74-.36.09-1.46-.65-1.1Z"/><path class="cls-5" d="M45.06,30.18a1.67,1.67,0,0,1-.62,2.15c-.54.37-2,.79-1.91-.32.06-.66.87-1.25.51-1.94a.82.82,0,0,0-1.31-.18.64.64,0,0,0,.13,1,1,1,0,0,0,.63.14c.81-.09.82-1.38,0-1.28l0,0,.13,1,.09-.08-.62.16-.06,0-.19-.45c0,.2-.31.54-.4.74a2.68,2.68,0,0,0-.18.64,2.09,2.09,0,0,0,.21,1.31,2.14,2.14,0,0,0,2.46.83,3.09,3.09,0,0,0,2.22-4.38c-.38-.73-1.48-.08-1.1.65Z"/><path class="cls-5" d="M43.21,30.37l.68.89,1-.78c-.91-.76-2.53-.66-2.71.78a.85.85,0,0,0,.49,1c.39.16,1-.32,1.18,0a.65.65,0,0,0,1,.13c.22-.21.75-1.88.32-1.73l-.62-.16a2.58,2.58,0,0,1,.61,1l.79-.79A2.66,2.66,0,0,0,42.48,33c-.05.37.16.85.62.81,1-.09.93-1,.44-1.64A3.55,3.55,0,0,0,39.84,31c-3.33,1-3.16,5.19-.65,6.91.68.47,1.32-.64.65-1.1a2.6,2.6,0,0,1-.53-4,2.29,2.29,0,0,1,2.13-.53c.3.08,1.12.77,1.25.57l.55-.32H43.1l.62.81q0-1.38,1.89-1.38c.43.1,1-.31.79-.79-.26-.64-.66-1.9-1.56-1.76-1.22.2-.36,1.57-.89,2.06l1,.13a1.63,1.63,0,0,0-1-1,1.23,1.23,0,0,0-.64.06c-.68.27.1.18.71.69s1.48-.15,1-.78l-.68-.89c-.49-.65-1.6,0-1.1.65Z"/><path class="cls-5" d="M41,36.11c-.81-.15-2.45-.92-1.88-2.06a2,2,0,0,1,.83-.68c.17-.09,1.35-.54,1.52-.22V32.5l-.07.1.88-.23a1.27,1.27,0,0,1-.73-.95l-.79.79A4.74,4.74,0,0,1,42,32.9l.62-1.07a3.34,3.34,0,0,0-1.29-.23.64.64,0,0,0,0,1.28,2.38,2.38,0,0,1,.95.18c.58.23,1.12-.68.62-1.07a7,7,0,0,0-1.75-1c-.48-.19-.89.36-.79.79a2.53,2.53,0,0,0,1.32,1.71.65.65,0,0,0,.88-.23c.48-.77-.34-1.3-1-1.4a3.75,3.75,0,0,0-3,1c-1.87,1.79.24,4.13,2.2,4.49.81.15,1.15-1.09.34-1.23Z"/><path class="cls-5" d="M40.51,31.53a1,1,0,0,0-.75.78.65.65,0,0,0,.94.72,1.33,1.33,0,0,0,.72-1.32c-.06-.53-.45.25-.47.18a1.51,1.51,0,0,0,.4.19A1,1,0,0,0,42.2,32a.64.64,0,0,0,.13-1l-.57-.44v.9a1.53,1.53,0,0,0,.45-.57c.34-.74-.76-1.39-1.1-.65a.7.7,0,0,1-.25.31.64.64,0,0,0,0,.9l.57.44.13-1q.27,0,.11-.07l-.16-.08a1.27,1.27,0,0,0-.35-.1,1,1,0,0,0-.7.14.83.83,0,0,0-.36.64c0,.19.17.41,0,.51l.94.72-.15.11c.78-.26.45-1.49-.34-1.23Z"/><path class="cls-5" d="M40.81,31.31c-1.93-.91-3.37,1-3.18,2.85s1.61,4.33,3.72,3.08a.64.64,0,0,0-.65-1.1c-2,1.2-2.5-4.64-.55-3.72.74.35,1.39-.75.65-1.1Z"/><path class="cls-5" d="M40,35.75a1,1,0,0,0,1.88.07,1,1,0,0,0,0-.37c0-.07-.07-.53-.06-.25l-.47.62.06,0-.49-.06.06,0L40.66,35l0,0c-.29.77.95,1.11,1.23.34l0,0a.65.65,0,0,0-.29-.72.7.7,0,0,0-1.08.54,1.2,1.2,0,0,0,0,.28q.11.47.64-.07a.64.64,0,0,0-1.23.34Z"/><path class="cls-5" d="M41,35.46,40.8,36c-.31.76.93,1.1,1.23.34l.23-.57c.31-.76-.93-1.1-1.23-.34Z"/><path class="cls-5" d="M37.61,33.74c-1.85-1.26-3,1.64-2.92,3,.07,1.59,2,2.83,3.07,1.28.48-.67-.63-1.31-1.1-.65-.21.3-.54-.12-.61-.29a1.65,1.65,0,0,1,0-1c.07-.37.34-1.69.94-1.29s1.32-.64.65-1.1Z"/><path class="cls-5" d="M36.37,35.78c-.17,0-.53.1-.68,0s0-.32.18-.45a2.49,2.49,0,0,1,.74-.45,2.75,2.75,0,0,1,.42-.13c.11,0,.37,0,.29-.09l.45-1.09a1.57,1.57,0,0,1-.64-.09c-.78-.27-1.11,1-.34,1.23a2.58,2.58,0,0,0,1,.14.65.65,0,0,0,.45-1.09c-.43-.54-1.31-.33-1.87-.14a3.46,3.46,0,0,0-1.7,1.17,1.43,1.43,0,0,0,0,1.8,2,2,0,0,0,1.74.49c.81-.07.82-1.35,0-1.28Z"/><path class="cls-5" d="M36.34,33.8a2.18,2.18,0,0,0,.07,1.52.84.84,0,0,0,1.24.21c.84-.69.13-2-.8-2.1L37,34.61a5.61,5.61,0,0,1,.67-.44c.14-.07.59-.36.76-.32s-.05-.07,0,.1a2,2,0,0,1,.11.46c0,.13,0,.26.06.39s0,.51.14.28l.62-.16h-.07c-.8-.15-1.15,1.08-.34,1.23h.07a.64.64,0,0,0,.62-.16,1.82,1.82,0,0,0,.19-1.54,2.74,2.74,0,0,0-.57-1.58c-.82-.78-2.24.11-2.94.64-.38.28-.46,1.08.15,1.17a.23.23,0,0,1,.18,0q.21.16.36-.28l.45.19a3.17,3.17,0,0,1,.06-.48c.16-.8-1.07-1.15-1.23-.34Z"/><path class="cls-5" d="M39.3,34.59a9.45,9.45,0,0,0,1.6.49c.45.11,1,.29,1.14.78.24.79,1.48.45,1.23-.34a2.24,2.24,0,0,0-1.2-1.37c-.67-.33-1.44-.35-2.12-.66s-1.4.77-.65,1.1Z"/><path class="cls-5" d="M43.08,33.47a.87.87,0,0,0-.2-1.59c-.88-.24-1.38.69-1.34,1.43a1.5,1.5,0,0,0,1.4,1.39A2.84,2.84,0,0,0,45,33.78c.59-.5-.16-1.3-.78-1a1.31,1.31,0,0,1-.72.1c-.82-.08-.81,1.2,0,1.28a2.56,2.56,0,0,0,1.37-.27l-.78-1a1.89,1.89,0,0,1-.92.56.52.52,0,0,1-.27,0c-.23-.17-.1-1.26-.49-1a.64.64,0,0,0,.65,1.1Z"/><path class="cls-5" d="M42.23,32.9c-.87.5-2.1,2-1,2.94a3.16,3.16,0,0,0,2.07.31c.58,0,1.59.2,1.25,1-.22.5-.86.63-1.35.73-.81.16-.47,1.39.34,1.23,1.37-.27,3-1.46,2.26-3.06a2.14,2.14,0,0,0-1.63-1.11,7.45,7.45,0,0,0-1.38,0c-.1,0-.64.05-.69,0-.15-.25.65-.8.76-.86a.64.64,0,0,0-.65-1.1Z"/><path class="cls-5" d="M43.58,38.05a.81.81,0,0,0,1.23-.47.65.65,0,0,0-.45-.79.9.9,0,0,0-1.16,1.05,1,1,0,0,0,1.54.56,1.49,1.49,0,0,0,.53-1.82,1.1,1.1,0,0,0-1.6-.46A.65.65,0,0,0,44,37.32a.85.85,0,0,0,.54-.16c.67-.47,0-1.58-.65-1.1l.1,0,.32,1.19q-.2-.14-.23,0A1.27,1.27,0,0,0,44,38l-.45-.79,0,.09.29-.38h.39c-.66-.49-1.3.62-.65,1.1Z"/><path class="cls-5" d="M44.82,35.86a.79.79,0,0,1,.79-1.16.64.64,0,0,0,0-1.28,2.09,2.09,0,0,0-1.9,3.08c.37.74,1.47.09,1.1-.65Z"/><path class="cls-5" d="M36.51,37.43l-1.15,1c-.62.55.29,1.45.9.9l1.15-1c.62-.55-.29-1.45-.9-.9Z"/><path class="cls-5" d="M46.3,31.28a6,6,0,0,0-.61,1.58h1.23c-.16-.74-.77-2.16.22-2.49a2.17,2.17,0,0,1,2.36.71l-.06-.49,0,.18.29-.38c.19-.1-.11,0-.21,0h-.77c-.46,0-.93,0-1.39-.08-.71-.06-.89,1.15-.17,1.26s1.5-.41,1-1.2a.66.66,0,0,0-.72-.29,1.4,1.4,0,0,0-1,1.56,1.75,1.75,0,0,0,1.41,1.5c1.66.4,3.47-1.07,2.69-2.77-.25-.56-1-.3-1.17.15a1,1,0,0,0,.1,1c.4.72,1.51.07,1.1-.65l0,0L49.44,31c.25.55-.58.9-1,.9a1,1,0,0,1-.48-.09s-.48-.47-.17-.52L47.07,31l.07.11v-.65l-.07.13.38-.29h0l-.17,1.26a12.48,12.48,0,0,0,2.48.09c.37,0,.71-.15.84-.54.37-1-1.23-1.83-2-2a3,3,0,0,0-2.88.67c-.82.94-.29,2.36-.06,3.43a.64.64,0,0,0,1.23,0,4.78,4.78,0,0,1,.48-1.27c.4-.72-.71-1.37-1.1-.65Z"/><path class="cls-5" d="M50.81,30.36l-.19.39a.65.65,0,0,0,.38.94c.24.07.86.06,1-.21q.11-.06-.13,0t-.16.07a.88.88,0,0,0,0,.38.82.82,0,0,0,.23.49.65.65,0,0,0,.78.1l0,0a.66.66,0,0,0,.23-.88l0,0c-.36-.74-1.46-.09-1.1.65l0,0,.23-.88,0,0,.78.1c.24.26.15-.06.13-.25a1.39,1.39,0,0,0-.06-.28,1.11,1.11,0,0,0-.48-.6,1,1,0,0,0-.7-.11,1.4,1.4,0,0,0-.31.11c-.12.06-.28.06-.09.12l.38.94.19-.39c.36-.74-.74-1.39-1.1-.65Z"/><path class="cls-5" d="M52.74,31.6a2.08,2.08,0,0,0,.65-.68.65.65,0,0,0-.55-1,2.91,2.91,0,0,0-2.93,3.1,1.58,1.58,0,0,0,3.07.18c.65-1.63-1.35-2.32-2.51-1.57-1.54,1-1.79,3-1.52,4.66.13.81,1.36.47,1.23-.34a3.78,3.78,0,0,1,.4-2.63,1.55,1.55,0,0,1,.49-.52.64.64,0,0,0,.33-.73,1.47,1.47,0,0,1,1.46-.88l-.55-1-.2.22c-.66.47,0,1.58.65,1.1Z"/><path class="cls-5" d="M49,33.39a1.72,1.72,0,0,0-1,2.86c.52.64,1.42-.27.9-.9-.29-.35,0-.67.39-.72.81-.13.47-1.36-.34-1.23Z"/><path class="cls-5" d="M48.26,32.89c-.76-.88-2-.87-2.28.44a3.9,3.9,0,0,0,1.2,3.38c1,.76,2-.09,1.54-1.25-.25-.62-1-1.39-1-2.08,0-.91,1.88-.67,2.5-.7s.92-.89.32-1.19a2.34,2.34,0,0,0-3.42,2.32c.23,2.17,2.65,2.88,4.37,1.91.72-.4.07-1.51-.65-1.1A1.58,1.58,0,0,1,48.45,34a1.07,1.07,0,0,1,1.43-1.36l.32-1.19c-1.19.06-3-.15-3.65,1.14a2,2,0,0,0,.1,1.67,10.69,10.69,0,0,0,1,1.73l.45-.19c-.36,0-.59-.79-.67-1.06s-.39-1.3-.05-.91c.54.62,1.44-.29.9-.9Z"/><path class="cls-5" d="M50,33.86a2.16,2.16,0,0,0-.55,1.49,2.13,2.13,0,0,0,.16.75,2,2,0,0,0,.2.38l.1.13q.17.23,0-.07l.19-.45c0,.06-.25.16-.33.11-.68-.47-1.32.64-.65,1.1a1.49,1.49,0,0,0,2-.59c.21-.72-.89-1.22-.28-1.94s-.37-1.53-.9-.9Z"/><path class="cls-5" d="M48.77,35.77a3.85,3.85,0,0,0-1.27,2.31c-.07.93.65,1.4,1.49,1.52s1.15-1.12.34-1.23c-.12,0-.42,0-.51-.11s0-.34.09-.5a3.1,3.1,0,0,1,.77-1.08c.6-.57-.31-1.47-.9-.9Z"/><path class="cls-5" d="M48.6,38.91a.84.84,0,0,0,.63.85c.78.28,1.11-1,.34-1.23l-.1,0,.38.29,0,.12c0-.82-1.25-.82-1.28,0Z"/><path class="cls-5" d="M49.82,39.73a1.14,1.14,0,0,0,.2-.42A.64.64,0,0,0,48.78,39l-.07.11c-.5.65.61,1.29,1.1.65Z"/><path class="cls-5" d="M49.37,38c-.22-.31.88-1.1,1.09-1.22a2.87,2.87,0,0,1,1.67-.34c.82.07.82-1.21,0-1.28a4.07,4.07,0,0,0-2.92.93c-.67.56-1.56,1.67-.95,2.55.47.67,1.58,0,1.1-.65Z"/><path class="cls-5" d="M52.61,36.34a.64.64,0,0,0,0-1.28.64.64,0,0,0,0,1.28Z"/><path class="cls-5" d="M52.65,34.94a2.16,2.16,0,0,0,2.27-.43,1.25,1.25,0,0,0-.07-1.92,2.08,2.08,0,0,0-3.44,1.56,1.77,1.77,0,0,0,1.31,1.59,2,2,0,0,0,2-.86c1.1-1.28,1.62-3.41-.3-4.21-.76-.32-1.09.92-.34,1.23,1.17.49-.47,3.05-1.21,2.53s.2-1.15.74-1l.27.09q.39.15,0,.22c-.24.22-.65.11-.91,0-.77-.29-1.11.95-.34,1.23Z"/><path class="cls-5" d="M55.64,32.43l.87-.37c.66-.28.19-1.41-.49-1.17s-1.63-.14-2,.66.25,1.49.69,2,1.45-.29.9-.9c-.13-.14-.2-.38-.33-.51L55.26,32q-.46.32-.1.3a2.24,2.24,0,0,0,1.21-.17l-.49-1.17-.87.37a.64.64,0,0,0-.23.88.66.66,0,0,0,.88.23Z"/><path class="cls-5" d="M57.13,33.09c-1.29-1.31-2.5.64-2.73,1.78A2.5,2.5,0,0,0,54.85,37a2.41,2.41,0,0,0,2.11.69c.82,0,.82-1.32,0-1.28s-1.32,0-1.34-.88c0-.13.43-1.72.61-1.53.58.59,1.48-.32.9-.9Z"/><path class="cls-5" d="M56.24,36.1a1.39,1.39,0,0,0,1,1.43c.59.21.92-.48.72-.94a1.39,1.39,0,0,0-1.61-.73c-.64.17-1.16,1-.64,1.53s1.44.17,1.87-.32a3.09,3.09,0,0,0,.59-1,4.79,4.79,0,0,1,.37-1.17l-.38.29c-.19.07.19.38.26.49l.38-.94c-.4.12-.84-.05-1.26,0a1.45,1.45,0,0,0-1.08.7,1.87,1.87,0,0,0,.58,2.39c.63.51,1.54-.39.9-.9-.24-.2-.76-.82-.18-.92s.89.12,1.37,0a.65.65,0,0,0,.38-.94c-.46-.68-1.6-1.78-2.2-.61-.23.46-.24,1-.48,1.47-.11.21-.32.32-.44.5-.38.57.3.59.42.85l.72-.94a.13.13,0,0,1-.06-.19c.06-.82-1.22-.82-1.28,0Z"/><path class="cls-5" d="M57.18,36.69a3.15,3.15,0,0,0,2.07,3.78c.78.26,1.12-1,.34-1.23A1.85,1.85,0,0,1,58.42,37a.64.64,0,0,0-1.23-.34Z"/><path class="cls-5" d="M58.65,39.33a1.27,1.27,0,0,1,.58.6,1,1,0,0,1,0,.34c-.63-.52-1.54.38-.9.9a1.33,1.33,0,0,0,2.15-.57,2.11,2.11,0,0,0-1.16-2.38c-.69-.45-1.33.65-.65,1.1Z"/><path class="cls-5" d="M58.22,38.52a4.39,4.39,0,0,0,0,2.36c.05.14,1,1.53,1.2,1.25-.49.66.62,1.3,1.1.65a1.16,1.16,0,0,0-.34-1.62c-.29-.23-.6-.32-.76-.69a2.82,2.82,0,0,1,0-1.6c.14-.81-1.09-1.15-1.23-.34Z"/><path class="cls-5" d="M59.89,43.7l.32.17-.29-.72c-.09.23-.5.36-.69.46a2.82,2.82,0,0,0-.85.63.65.65,0,0,0,.45,1.09H59c.82.05.82-1.23,0-1.28h-.22l.45,1.09a3.8,3.8,0,0,1,1-.66,2,2,0,0,0,.85-1,.64.64,0,0,0-.29-.72l-.32-.17c-.73-.39-1.37.72-.65,1.1Z"/><path class="cls-5" d="M60.54,44.29a4.88,4.88,0,0,0,.25-2.51.64.64,0,0,0-.79-.45.66.66,0,0,0-.45.79,3.62,3.62,0,0,1-.25,1.83c-.3.77.94,1.1,1.23.34Z"/><path class="cls-5" d="M60.17,40.43a2.22,2.22,0,0,1-.46-3.15c.46-.68-.64-1.32-1.1-.65a3.51,3.51,0,0,0,.92,4.9c.67.48,1.31-.63.65-1.1Z"/><path class="cls-5" d="M60,36.23a2,2,0,0,0-2.19-.7,1.4,1.4,0,0,0-.8,1.9,1.06,1.06,0,0,0,1.82.27c.57-.82-.16-1.59-.91-1.88s-1.1.94-.34,1.23q.09.11.16,0,.51,0,.4-.25a.62.62,0,0,1,.16-.12c.31-.11.61.22.79.43.55.62,1.45-.29.9-.9Z"/><path class="cls-5" d="M57,33c-.46-.29-.85-.74-1.41-.81s-.81.3-1,.33l.62.47c-.28-.9-.32-1.89-1.18-2.49a1.36,1.36,0,0,0-1.84.17l1.09.45v-.27H51.95c0,1.71,1.74,2.32,2.27.53.24-.81-.93-1.08-1.23-.34a1.65,1.65,0,0,0,.19,1.7c.33.48,1.25.36,1.19-.32-.08-1-.32-2-1.34-2.4a1.54,1.54,0,0,0-1.16,0c-.56.27-.22.46-.56.07-.13-.15-.18-.5-.3-.68a.64.64,0,0,0-.55-.32c-.57,0,0,0,.08.2l-1.17.49c.24.5.24,1,.85,1.15a1.56,1.56,0,0,0,1.42-.35c.67-.47,0-1.58-.65-1.1-.39.28-.35,0-.52-.34-.32-.69-1.3-.18-1.17.49s.58.78,1.16.73l-.55-.32c.38.55.26,1.29,1,1.58.41.17.58,0,1-.07a1,1,0,0,0,.42-.26q1,.23.85,1.08l1.19-.32-.06-.71L53,31q-.25.7.25-.19a.64.64,0,0,0-1.28,0v.27a.65.65,0,0,0,1.09.45c.43-.44.79,1.44.88,1.75a.65.65,0,0,0,.62.47c.2,0,.51-.21.66-.21.51,0,.69.25,1.12.52.7.44,1.34-.67.65-1.1Z"/><path class="cls-5" d="M52.34,31.53l.73.54c.66.49,1.3-.62.65-1.1L53,30.42c-.66-.49-1.3.62-.65,1.1Z"/><path class="cls-5" d="M55.18,32.58a3.37,3.37,0,0,1,1,1.48,2.29,2.29,0,0,0,.65,1.09A.86.86,0,0,0,58.06,34a.65.65,0,0,0-1-.13,2,2,0,0,0-.75,2,.81.81,0,0,0,1.39.4c.56-.61-.35-1.51-.9-.9l-.09.09.62-.16-.14,0,.38.29c-.18-.26.23-.64.39-.78l-1-.13.05.1-.06-.49.18-.22.49.06c-.28-.15-.48-1.06-.64-1.35a3.36,3.36,0,0,0-.89-1.1c-.64-.5-1.55.4-.9.9Z"/><path class="cls-5" d="M56,34.5a2.8,2.8,0,0,0,.67,1.23c.56.61,1.46-.3.9-.9a1.44,1.44,0,0,1-.34-.66A.64.64,0,0,0,56,34.5Z"/><path class="cls-5" d="M33.63,36.88a2.13,2.13,0,0,0-.61,2.3,2.35,2.35,0,0,0,1.91,1.41l-.45-.45c.1.26-.29,1.12-.37,1.41a.64.64,0,0,0,1.23.34c.18-.61.73-1.63.31-2.24-.19-.27-.44-.28-.73-.37a.83.83,0,0,1-.38-1.49c.6-.56-.3-1.47-.9-.9Z"/><path class="cls-5" d="M35.1,38.53c0-.3.24-.31.28,0s-.15.56-.43.44c-.75-.33-1.4.77-.65,1.1a1.65,1.65,0,0,0,2.28-2A1.41,1.41,0,0,0,35.12,37a1.45,1.45,0,0,0-1.26,1.18c-.13.81,1.1,1.15,1.23.34Z"/><path class="cls-5" d="M34.72,38.76c.38.87-.31,2.1-.61,2.92s1,1.11,1.23.34c.46-1.28,1.06-2.57.48-3.9-.33-.75-1.43-.1-1.1.65Z"/><path class="cls-5" d="M35.38,43.15l.37.23.15-1.17a.62.62,0,0,1-.65-.5.64.64,0,0,0-1.23.34,1.92,1.92,0,0,0,2.22,1.39c.57-.09.58-.91.15-1.17L36,42a.64.64,0,0,0-.65,1.1Z"/><path class="cls-5" d="M35.17,41.08a.18.18,0,0,1,.09-.17c.57-.59-.33-1.5-.9-.9a1.55,1.55,0,0,0-.42,1.41.64.64,0,0,0,.79.45.66.66,0,0,0,.45-.79Z"/><path class="cls-11" d="M30.62,32.81c-2,.86-.74,3.66.63,4.45A1.83,1.83,0,0,0,33.56,37,3.59,3.59,0,0,0,34,34c-.15-.81-1.38-.47-1.23.34s.07,2.52-1.09,1.62c-.5-.39-1.33-1.7-.42-2.09.75-.33.1-1.43-.65-1.1Z"/><path class="cls-11" d="M31.85,34.24a2.1,2.1,0,0,0,.91,1.66c.66.49,1.3-.62.65-1.1a.72.72,0,0,1-.27-.56c0-.82-1.32-.82-1.28,0Z"/><path class="cls-11" d="M36.73,28.26a2.82,2.82,0,0,0,.87,3.51c.82.58,2.75.91,3-.49.13-.81-1.11-1.15-1.23-.34-.06.38-1.14-.31-1.23-.41a1.52,1.52,0,0,1-.27-1.62c.32-.75-.78-1.4-1.1-.65Z"/><path class="cls-11" d="M39.32,30.9l-.06,0,.38.29,0-.06.06.49,0-.06c.29-.77-1-1.11-1.23-.34a.72.72,0,0,0,.52.93.64.64,0,0,0,.34-1.23Z"/><path class="cls-11" d="M40.27,31.56l-.06,1c0,.82,1.23.82,1.28,0l.06-1c0-.82-1.23-.82-1.28,0Z"/><path class="cls-11" d="M62.53,46.93c-1.06.51-2.19,1.79-1.59,3s2.06,1.21,3.21,1c.81-.15.47-1.39-.34-1.23-.47.09-1.4.28-1.7-.27s.63-1.21,1.06-1.42c.74-.35.09-1.46-.65-1.1Z"/><path class="cls-11" d="M37.62,34.87v.23c.33-.75-.77-1.4-1.1-.65a1.1,1.1,0,0,0,.21,1.33c.59.57,1.5-.33.9-.9Z"/><path class="cls-11" d="M37.87,34.73c.1.09.06.12,0,.2-.65.51.26,1.41.9.9a1.35,1.35,0,0,0,0-2c-.61-.56-1.51.35-.9.9Z"/><path class="cls-11" d="M39.09,35.68A.38.38,0,0,1,39,36a.64.64,0,0,0,1.1.65A1.72,1.72,0,0,0,40.19,35a.64.64,0,0,0-.88-.23.66.66,0,0,0-.23.88Z"/><path class="cls-11" d="M35.9,36.79a4.36,4.36,0,0,0-2.65,2.62,2.56,2.56,0,0,0,1.26,3.24c.68.46,1.33-.65.65-1.1-.51-.34-.88-.59-.81-1.28a2.4,2.4,0,0,1,.3-.84A3,3,0,0,1,36.24,38c.76-.29.43-1.53-.34-1.23Z"/><path class="cls-11" d="M43.11,34.47c.77-1.4,2,.76,2.13,1.43a2.61,2.61,0,0,1-1.16,2.54c-.67.47,0,1.58.65,1.1a3.93,3.93,0,0,0,1.34-5.17C45.24,32.89,43,32,42,33.82c-.4.72.71,1.37,1.1.65Z"/><path class="cls-11" d="M42.47,37.6a2.08,2.08,0,0,0,2.12,1.95c.82,0,.82-1.31,0-1.28a.79.79,0,0,1-.84-.67c-.08-.81-1.36-.82-1.28,0Z"/><path class="cls-12" d="M39,76.24s.76,7.64,7.15,7.86c6.56.23,8.66-4.69,8.72-8.06L62,77.63l-2.4,21.13-12.27,4.41L33.88,99.31,30.81,78.16Z"/><path class="cls-11" d="M44.28,31.08c-1-.54-2-1.93-1.15-3.06s2.23-.84,3.19-.19c.68.46,1.32-.65.65-1.1-1.54-1-3.84-1.07-4.94.65s-.07,3.93,1.61,4.81c.73.38,1.38-.72.65-1.1Z"/><path class="cls-11" d="M45.75,30.17a.64.64,0,0,0,0-1.28.64.64,0,0,0,0,1.28Z"/><path class="cls-11" d="M45.57,28.66l-.17-.32c-.38-.73-1.49-.08-1.1.65l.17.32c.38.73,1.49.08,1.1-.65Z"/><path class="cls-11" d="M49.83,30.27c-1.33-.94-2.52.64-3,1.75a5,5,0,0,0,0,4.55c1.53,2.27,7.16,1.5,5.92-1.82-.28-.77-1.52-.43-1.23.34.65,1.75-3.39,2.18-3.88.06a4.09,4.09,0,0,1,.08-1.84c.08-.32.78-2.39,1.44-1.93s1.32-.63.65-1.1Z"/><path class="cls-11" d="M51,33.72a2,2,0,0,0-1.08,1.36,1.35,1.35,0,0,0,.64,1.41.64.64,0,0,0,.65-1.1c-.22-.13.35-.5.44-.56.7-.43.06-1.54-.65-1.1Z"/><path class="cls-11" d="M53.6,31.16c-.47-.51-1.15-1.52-.67-2.21s1.47-.45,2,0,1.55-.39.9-.9A2.73,2.73,0,0,0,52,28c-1.1,1.23-.29,3,.67,4,.56.61,1.46-.3.9-.9Z"/><path class="cls-11" d="M55.54,31.47a.64.64,0,0,0,0-1.28.64.64,0,0,0,0,1.28Z"/><path class="cls-11" d="M55.69,30.17l-.33.4c.82,0,.82-1.25,0-1.28a.92.92,0,0,0-.91,1.22c.3.76,1.54.43,1.23-.34Z"/><path class="cls-11" d="M56.64,32.21c-.31-.72.36-1.36,1-1.41a2,2,0,0,1,1.74,1c.51.65,1.41-.26.9-.9a3.07,3.07,0,0,0-3.61-1.1,2.32,2.32,0,0,0-1.17,3.12c.33.75,1.43.1,1.1-.65Z"/><path class="cls-11" d="M62.15,53.87a.77.77,0,0,1-1.21.16c-.29-.29-.38-.64-.85-.68-.83-.07-1.16,1.11-.89,1.73a.83.83,0,0,0,.92.51,1.28,1.28,0,0,0,.84-.87c.17-.38.22-1,.52-1.26s.49.33.51.64c.06.82,1.34.82,1.28,0-.07-1-.49-2.19-1.7-2.06a1.74,1.74,0,0,0-1.2.78,3.19,3.19,0,0,0-.37.79c0,.12-.2.74-.22.75l.49.06c.43.18-.06.19.15,0l-.45.19h.12l-.45-.19c.24.22.38.51.65.71a2,2,0,0,0,.95.37,2,2,0,0,0,1.82-.75c.51-.63-.39-1.55-.9-.9Z"/><path class="cls-11" d="M59,36.23c-1.8-1-2,2-1.85,3.07A3.17,3.17,0,0,0,60.83,42c.81-.15.47-1.39-.34-1.23a1.8,1.8,0,0,1-2-1.25,3.17,3.17,0,0,1-.17-1c0-.25.26-1.07,0-1.21.73.38,1.37-.72.65-1.1Z"/><path class="cls-11" d="M59.29,39.62A1.48,1.48,0,0,0,59.44,41c.45.68,1.56,0,1.1-.65-.11-.16-.1-.21,0-.39.31-.76-.93-1.1-1.23-.34Z"/><path class="cls-11" d="M60,39.78a.5.5,0,0,1,.93,0,.64.64,0,0,0,1.1-.65,1.79,1.79,0,0,0-3.14,0c-.4.72.71,1.37,1.1.65Z"/><path class="cls-11" d="M60.92,43.06c.39-.21.65.22.63.56a1.34,1.34,0,0,1-.7,1c-.68.45,0,1.56.65,1.1A2.49,2.49,0,0,0,62.75,43a1.72,1.72,0,0,0-2.47-1c-.72.39-.08,1.5.65,1.1Z"/><path class="cls-11" d="M30.86,41.91c-.3.36-.67.87-1.19.88s-1-.59-1.14-1.06a1.44,1.44,0,0,1,1.7-1.81c.71.09.88-1.16.17-1.26-.53-.07-1.08-.05-1.37.48a.87.87,0,0,0-.07.69c.07.24.52.64.43.88l.29-.38a3.06,3.06,0,0,0-.73.16c-.7.44-.05,1.55.65,1.1a2,2,0,0,0,.53-.06.82.82,0,0,0,.53-.57,1.32,1.32,0,0,0-.08-.85,2.28,2.28,0,0,0-.18-.38l-.19-.27q-.12-.17,0,.09l-.29.38.12,0,.17-1.26a2.69,2.69,0,0,0-2.86,3.65,2.79,2.79,0,0,0,2,1.79,2.74,2.74,0,0,0,2.38-1.26c.52-.63-.38-1.54-.9-.9Z"/><path class="cls-11" d="M31.47,43.48c-1.8-.36-2.53,2.19-2.25,3.56A2.84,2.84,0,0,0,33,49.21c.76-.3.43-1.54-.34-1.23a1.53,1.53,0,0,1-2-.86,2.14,2.14,0,0,1-.09-1.25c0-.2.33-1.21.64-1.15.8.16,1.15-1.07.34-1.23Z"/><path class="cls-11" d="M33.36,46.4A1.32,1.32,0,0,0,31.7,48a.64.64,0,0,0,1.23-.34c0-.1,0-.09.09-.06a.64.64,0,0,0,.34-1.23Z"/><path class="cls-11" d="M31.59,51.35c-1.1-1.51-2.43.09-2.67,1.34-.3,1.58-.15,3.79,1.54,4.53,1.12.49,2.79-.23,2.66-1.62-.16-1.72-2.1-1-2.56.11-.31.76.93,1.1,1.23.34-.18.46-1.29-.38-1.35-.46a2.57,2.57,0,0,1-.36-1.32A5.43,5.43,0,0,1,30.16,53c0-.22.4-.94.33-1,.48.66,1.59,0,1.1-.65Z"/><path class="cls-11" d="M33.69,59.87c.18.06.23.94.23,1.07s-.11.91-.48.7a.64.64,0,0,0-.65,1.1,1.64,1.64,0,0,0,2.36-1.24c.2-1-.06-2.48-1.12-2.87-.77-.29-1.11,1-.34,1.23Z"/><polygon class="cls-13" points="24.76 79.9 24.26 82.47 30.39 98.32 26.86 79.85 24.76 79.9"/><path class="cls-11" d="M33.34,60.84s-.13-.14,0-.16A.66.66,0,0,0,34,60a.64.64,0,0,0-.64-.64,1.36,1.36,0,0,0-.88,2.34c.58.59,1.48-.32.9-.9Z"/><path class="cls-11" d="M59,57.17a5.39,5.39,0,0,0,.38,3.12c.34.75,1.08,1.51,2,1.08a1.38,1.38,0,0,0,.5-1.9.91.91,0,0,0-1.7.23c-.12.81,1.11,1.15,1.23.34l0,0-.45.19c-.29,0-.52-.9-.59-1.16a4,4,0,0,1-.07-1.6c.12-.81-1.11-1.15-1.23-.34Z"/><polygon class="cls-6" points="24.54 79.43 30.17 97.85 38.86 101.38 35.93 74.26 24.54 79.43"/><polygon class="cls-6" points="56.34 74.27 56.22 100.59 62.98 97.55 65.95 75.8 56.34 74.27"/><polygon class="cls-14" points="37.58 76.58 38.65 97.84 36.22 76.85 37.58 76.58"/><polygon class="cls-14" points="55.16 76.11 56.15 97.45 56.33 76.21 55.16 76.11"/><path class="cls-12" d="M43.49,59.71l8.67,0s.18,4.77-4.31,4.69C42.73,64.34,43.49,59.71,43.49,59.71Z"/><line class="cls-15" x1="44.34" y1="59.69" x2="53.86" y2="59.57"/><line class="cls-16" x1="45.8" y1="64.65" x2="49.97" y2="64.6"/><path class="cls-11" d="M55.71,59.77,50.84,57l-6.34.14-5,3.33L34.3,55.24c.6,11.61,4.77,15.31,4.77,15.31,3.67,3,14.39,1.84,17.17-1.2S59.31,54.7,59.31,54.7Zm-5.62,7.67L48.7,65l-1.65,0-1.28,2.26-5.24-3.58,4.65-4.38,4.89-.14,5,2.61Z"/><path class="cls-15" d="M44.24,55.11s1.09,2.49,3.24,2.45,3-2.59,3-2.59"/></g></g></g></svg>