<?xml version="1.0" encoding="utf-8"?>
<!-- Generator: Adobe Illustrator 21.1.0, SVG Export Plug-In . SVG Version: 6.00 Build 0)  -->
<svg version="1.1" xmlns="http://www.w3.org/2000/svg" xmlns:xlink="http://www.w3.org/1999/xlink" x="0px" y="0px"
	 viewBox="0 0 76 85" style="enable-background:new 0 0 76 85;" xml:space="preserve">
<style type="text/css">
	.st0{fill:#593F2D;}
	.st1{clip-path:url(#SVGID_2_);}
	.st2{fill:#523A29;}
	.st3{fill:#543928;}
	.st4{opacity:0.3;fill:#42210B;}
	.st5{fill:#C4AB18;}
	.st6{fill:#D3BD18;}
	.st7{fill:#AD9715;}
	.st8{opacity:9.000000e-02;clip-path:url(#SVGID_4_);}
	.st9{fill:#C7B316;}
	.st10{opacity:0.3;fill:#3F2E20;}
	.st11{fill:#FBCA7E;}
	.st12{fill:#FFFFFF;}
	.st13{fill:#E6E6E6;}
	.st14{fill:#333333;}
	.st15{opacity:0.23;fill:#42210B;}
	.st16{fill:#D1CFCB;}
	.st17{fill:#999999;}
	.st18{opacity:0.23;fill:#535353;}
	.st19{fill:#F0EEE9;}
	.st20{fill:#4D4D4D;}
	.st21{opacity:0.2;fill:#333333;}
	.st22{fill:#81A6BF;}
	.st23{clip-path:url(#SVGID_6_);}
	.st24{fill:#1A1A1A;}
	.st25{fill:#997B5B;}
	.st26{fill:#B3B3B3;}
	.st27{fill:#AD8B66;}
	.st28{fill:#3A83B5;}
	.st29{fill:none;stroke:#36739C;stroke-width:2.1425;stroke-miterlimit:10;}
	.st30{opacity:0.46;fill:#2D4454;}
	.st31{opacity:0.16;fill:#2D4454;}
	.st32{fill:#8C5E62;}
	.st33{opacity:0.67;fill:#E6E6E6;}
	.st34{fill:none;stroke:#4D4D4D;stroke-width:2.1425;stroke-miterlimit:10;}
	.st35{fill:#36739C;}
	.st36{opacity:0.2;fill:none;stroke:#000000;stroke-width:2.066;stroke-miterlimit:10;}
	.st37{fill:none;stroke:#7C181F;stroke-width:2.066;stroke-miterlimit:10;}
	.st38{clip-path:url(#SVGID_8_);}
	.st39{opacity:0.23;fill:#412312;}
	.st40{fill:#EDEAE5;}
	.st41{fill:#666666;}
	.st42{fill:#CCCBCB;}
	.st43{display:none;}
	.st44{display:inline;}
	.st45{fill:#51A333;}
	.st46{fill:#3F732E;}
	.st47{fill:none;stroke:#4E4D4D;stroke-width:3.012;stroke-miterlimit:10;}
	.st48{opacity:0.55;}
	.st49{fill:#F0EDE6;stroke:#E6E6E6;stroke-width:4;stroke-miterlimit:10;}
	.st50{fill:#EAE4DA;}
	.st51{fill:#F0EDE6;}
	.st52{fill:none;}
	.st53{fill:none;stroke:#F0EDE6;stroke-linecap:round;stroke-miterlimit:10;}
	.st54{fill:#D3BD18;stroke:#E6E6E6;stroke-width:4;stroke-miterlimit:10;}
	.st55{fill:#BFAB16;}
	.st56{fill:#86272D;stroke:#E6E6E6;stroke-width:4;stroke-miterlimit:10;}
	.st57{fill:#86272D;}
	.st58{fill:#808080;stroke:#E6E6E6;stroke-width:4;stroke-miterlimit:10;}
	.st59{fill:#808080;}
	.st60{fill:#F2F2F2;}
	.st61{fill:#8F6387;}
	.st62{fill:#F2CCC0;}
	.st63{fill:#EAAE99;}
	.st64{fill:none;stroke:#000000;stroke-width:2.0201;stroke-miterlimit:10;}
	.st65{fill:#AD373C;}
	.st66{fill:#669BB3;}
	.st67{opacity:0.44;fill:#F2CCC0;}
	.st68{fill:#6E4C68;}
	.st69{fill:none;stroke:#163D57;stroke-width:7.4071;stroke-miterlimit:10;}
	.st70{fill:#FFFFFF;stroke:#B3B3B3;stroke-width:0.8845;stroke-miterlimit:10;}
	.st71{clip-path:url(#SVGID_10_);}
	.st72{fill:none;stroke:#36739C;stroke-width:1.187;stroke-miterlimit:10;}
	.st73{fill:none;stroke:#4D4D4D;stroke-width:1.187;stroke-miterlimit:10;}
	.st74{fill:#B3B3B3;stroke:#B3B3B3;stroke-width:0.8438;stroke-miterlimit:10;}
	.st75{fill:none;stroke:#B3B3B3;stroke-width:4.0316;stroke-linecap:round;stroke-miterlimit:10;}
	.st76{fill:none;stroke:#B3B3B3;stroke-width:2.419;stroke-linecap:round;stroke-miterlimit:10;}
	.st77{fill:none;stroke:#B3B3B3;stroke-width:2;stroke-miterlimit:10;}
	.st78{fill:#D3BD18;stroke:#E6E6E6;stroke-width:0.7936;stroke-miterlimit:10;}
	.st79{clip-path:url(#SVGID_12_);}
	.st80{clip-path:url(#SVGID_14_);}
	.st81{fill:#B3B3B3;stroke:#B3B3B3;stroke-width:0.8236;stroke-miterlimit:10;}
	.st82{clip-path:url(#SVGID_16_);}
	.st83{clip-path:url(#SVGID_18_);}
	.st84{fill:#497D9E;}
	.st85{clip-path:url(#SVGID_20_);fill:#416F8C;}
	.st86{fill:none;stroke:#FFFFFF;stroke-width:2.4065;stroke-linecap:round;stroke-miterlimit:10;}
	.st87{clip-path:url(#SVGID_22_);fill:#416F8C;}
</style>
<g id="fondo_x5F_05a">
	<g>
		<defs>
			<rect id="SVGID_1_" x="-877.6" y="388" width="1388.9" height="780.9"/>
		</defs>
		<clipPath id="SVGID_2_">
			<use xlink:href="#SVGID_1_"  style="overflow:visible;"/>
		</clipPath>
		<g class="st1">
			<path class="st2" d="M62.4,95.6c-3-6.4-3.1-9.2-0.2-12.4c0.5,4.2,0.9,8.2,1.4,12.2C63.2,95.5,62.8,95.6,62.4,95.6z"/>
			<path class="st2" d="M64.7,54.5c-0.6,4.3-1.1,7.5-1.6,10.8C60,61.7,60.3,58.9,64.7,54.5z"/>
			<path class="st2" d="M66.4,6.4c-0.4-2.1-3-4.7,0.8-6.4C66.9,2.3,66.6,4.3,66.4,6.4z"/>
			<path class="st2" d="M61.8,38.2c3.6,0.6,4,2.3,1.8,5.3C62.9,41.5,62.3,39.8,61.8,38.2z"/>
			<path class="st2" d="M61.8,75.1c-0.8,0-1.4,0.2-1.7-0.1c-0.4-0.3-0.4-1-0.6-1.6c0.5-0.1,1.1-0.4,1.5-0.2
				C61.2,73.5,61.4,74.2,61.8,75.1z"/>
		</g>
		<g class="st1">
			<path class="st3" d="M9.1,40.1c-1.4-0.1-2.2,1.3-2.5,3.3C8,43.5,8.7,42.2,9.1,40.1z"/>
			<path class="st3" d="M51.1,51.7c-0.1-2.6,0.1-5.7-1.7-5C49.4,49.6,50.1,51,51.1,51.7z"/>
			<path class="st3" d="M61,23.5c1.4,0.2,2.5-0.3,3.3-1.7c0.2-3.1-0.9-3.6-0.8-6.6c-1.9-0.6-3.1,0.3-4.1,1.7
				C60.9,19.6,60.1,33.9,61,23.5z"/>
		</g>
	</g>
</g>
<g id="carpeta_x5F_05a">
	<g>
		<g>
			<defs>
				<path id="SVGID_3_" d="M356.1,1123.6l-19-694c-219,13.9-542.1,14-545,14l0-0.3l-517.7-13.9l-27.7,19.8l-1.2,151l26.2,14.8
					l-7.4,499.5c141-6.5,522.7,14.1,522.7,14.1l0-0.5C-206,1127.8,72.7,1116.7,356.1,1123.6z"/>
			</defs>
			<clipPath id="SVGID_4_">
				<use xlink:href="#SVGID_3_"  style="overflow:visible;"/>
			</clipPath>
			<g class="st8">
				<path class="st9" d="M81.7,63.6c-0.4-1.2-1.3-0.8-1.8-1.6c-1.2-1.7,4.4-1.6,1.8-3.6c-3.2,1.9-5.5,1-6.9-2.4
					c-2.7,2.5,0,4.6,2.6,4.8c-1.6,3.1,2.6,3.1,2.9,3.7c0.7,1.5-1.7,2.6,0.4,4.2c2.1-1.6,2.9,0.8,4.7,0.1c1.2,1.7-2.5,2.1-0.7,3.9
					c3.8-0.1,6.2-3.2,6.2-6C88.3,64,85.5,62.4,81.7,63.6z"/>
				<path class="st9" d="M67.6,80.9c-0.6-2.1,1.9-5.2-0.4-5.9C64,76.1,66.5,78.7,67.6,80.9z"/>
				<path class="st9" d="M50.4,78.7c0.4,1.7,1.9,0.2,2.6,1.3c0.8-0.6-0.1-1.6-0.4-2.4C51.9,77.9,51.2,78.3,50.4,78.7z"/>
				<path class="st9" d="M57.7,66c0.7,1.9,1.8,2.8,3.6,1.5C60.6,65.7,59.5,64.8,57.7,66z"/>
				<path class="st9" d="M45.7,71.6c0.4,0.5,1.1,0.3,1.5,1c0.5-0.3,1-0.5,1.5-0.8C48.2,70.2,46.9,71.1,45.7,71.6z"/>
				<path class="st9" d="M68.2,56c1.2,0.7,2.2,1.6,4,0.5C71.1,55.8,70,54.9,68.2,56z"/>
				<path class="st9" d="M8.6,82.9c1.6-0.5-0.6-3.7-1.8-1.6c0.2,0.5,0.5,0.9,0.7,1.4C8,82.1,8.3,82.5,8.6,82.9z"/>
				<path class="st9" d="M58.4,55.2C61.4,53.2,55.5,51.6,58.4,55.2L58.4,55.2z"/>
				<path class="st9" d="M42,57.8c-3,1.5-1,2.8,0.4,4.2C43.9,61.1,43,59.5,42,57.8z"/>
				<path class="st9" d="M7.1,78.4c0.7,0.7,2.2-0.5,2.2-1.2C9.1,75.4,5.8,77.1,7.1,78.4z"/>
				<path class="st9" d="M66,43.2c0.7-0.8,1-1.7,0.4-2.8C63.5,41.1,64.4,42.7,66,43.2z"/>
				<path class="st9" d="M75.5,34.6c0.4,0.7,0.7,1.4,1.1,2c0.7-0.4,1.5-0.8,2.2-1.2c-0.4-1.2-1.3-0.8-1.8-1.6
					C76.4,34,75.9,34.3,75.5,34.6z"/>
				<path class="st9" d="M32.5,40.2c0.8,2.3,3.1,0.3,3.7,3.3c1.5,1.9-1,2.8-0.4,4.6c-2.1,1-2.6-2.7-5.1-0.8c1.9,7.8,8.1,3,11.3,7.1
					c0.9-0.3,1.2-0.8,1.1-1.5c-1.7-4.3-4.5-2.7-4.8-7.1c3.7-3.2,4.9,0.9,8.4-1.9c-1.3-3.9-4.8-1.1-7.3-1.3c-2.1-2.7-4.4-4.7-6.6-7
					C29.9,36.4,33.7,38.9,32.5,40.2z"/>
				<path class="st9" d="M62.7,40.6c-1,0.5-1.9,1-2.9,1.6C60.6,45,64.7,42.9,62.7,40.6z"/>
				<path class="st9" d="M19.4,54.2c1.8,4.2,4.3,5,4.8,8.8c2.3-0.8,2.2-5.2,0-5.3c0.8-0.7,3.5-2.5,4-4.8c-2.8-3.3,0.2-5-0.4-7.7
					c-4.6,2.4-3-2.8-6.6-3.5c0.7,2.3-0.4,6,1.8,6.9C22.1,50.7,21.3,52.6,19.4,54.2z"/>
				<path class="st9" d="M57.6,39.8c1.2-1,3-1.9,1.8-3.6C57.4,37,56.4,38.1,57.6,39.8z"/>
				<path class="st9" d="M6.3,61.3c-0.2,1.1,0,2.3,1.1,3.8c2.4-0.5,1.4-2,3.3-2.6C9.7,60.8,8.2,60.4,6.3,61.3z"/>
				<path class="st9" d="M13.2,58.4c0.5-0.3,1-0.5,1.5-0.8c-0.4-1.2-1.3-0.8-1.8-1.6c-0.5,0.3-1,0.5-1.5,0.8
					C11.8,58,12.7,57.6,13.2,58.4z"/>
				<path class="st9" d="M68.9,27.6c1-0.5,1.9-1,2.9-1.6c-1.6-1.8-3.2-3.3-5.8-2.1C66.8,25.6,67.6,27.2,68.9,27.6z"/>
				<path class="st9" d="M10.3,56.5c-1.4-1-3.6,0-5.8,1.4c0.5,0.9,1,1.8,1.5,2.7C7.7,59.3,6.8,57.3,10.3,56.5z"/>
				<path class="st9" d="M48.1,32.6C44.7,26.6,42,34.6,48.1,32.6L48.1,32.6z"/>
				<path class="st9" d="M73.9,16.1c-0.8,0.6,0.1,1.6,0.4,2.4c0.7-0.4,1.5-0.8,2.2-1.2C76.1,15.6,74.6,17.1,73.9,16.1z"/>
				<path class="st9" d="M60.5,17.2c0.5,0.7,0.5,1.3,0,1.7c1.2,0.7,2.6,0.5,4.4-0.6c-0.4-0.7-0.7-1.4-1.1-2
					C62.8,19.1,62.6,15.5,60.5,17.2z"/>
				<path class="st9" d="M61.9,7.7c-1.4,3.2-0.2,5.7,2.6,6.5c2.5-3.2,4.4-2.4,5.5-0.3c1.8-1.1,2.3-2.5,1.4-4.3
					c-3.8,2.2-1.9-3.5-5.5-3.2C63.7,8.2,64.4,10.1,61.9,7.7z"/>
				<path class="st9" d="M25.2,37.1c-1.3-2.1-2.7-3.8-5.1-2.5c0.6,2.4,2.3,1.3,2.9,3.7C23.7,37.9,24.5,37.5,25.2,37.1z"/>
				<path class="st9" d="M11,33.4c-0.5,0.3-1,0.5-1.5,0.8c0.4,0.5,0.1,0.8-0.4,1.1C9.6,36.7,13,34.4,11,33.4z"/>
				<path class="st9" d="M14.3,32.5c1.9-0.9,0.9-2.5,1.8-3.6c-0.7-1.9-2.2-1.7-4-0.5C13.5,30.9,13.9,29.9,14.3,32.5z"/>
				<path class="st9" d="M4.1,31c-0.2-0.4-0.5-0.9-0.7-1.4c-0.5,0.3-1,0.5-1.5,0.8c0.2,0.5,0.5,0.9,0.7,1.4
					C3.1,31.5,3.6,31.2,4.1,31z"/>
				<path class="st9" d="M19.3,21c-0.2-0.4-0.5-0.9-0.7-1.4c-0.5,0.3-1,0.5-1.5,0.8c0.2,0.5,0.5,0.9,0.7,1.4
					C18.4,21.5,18.8,21.2,19.3,21z"/>
				<path class="st9" d="M11.7,12C15.2,13.3,13,8.6,11.7,12L11.7,12z"/>
				<path class="st9" d="M1.8,9.4c1.9-1.9-1.6-2.1-2.2-2.3C-2.2,8.9,1.4,8.4,1.8,9.4z"/>
				<g>
					<path class="st9" d="M49,88.3c2.2-1.2,3.7-0.4,5.1,0.8c-3.7,2.2-1.4,5.4-6.2,6c0.9,1.4,0.6,2.5-1.1,3.2
						c-1.3-2.1-0.3-3.6-2.2-5.8c1.9-0.9,2.8-2,2.9-3.3c-2.5-0.3,1.2-3-2.2-4.1C48.6,82.2,48.5,86.8,49,88.3z"/>
				</g>
				<path class="st9" d="M66.1,72.9c-0.8-0.4-2.1,0.2-2.6-1.3C61.9,72.9,64.9,74.3,66.1,72.9z"/>
				<path class="st9" d="M76.9,30.3c0.1-0.9,1.3-1.6,0.4-2.8c-1.4,0.8,0.1,2.4-2.2,2.9c0.4,2.2,2,1.2,2.6,3
					C78.4,32.1,78.3,30.7,76.9,30.3z"/>
				<path class="st9" d="M63.8,35.6c1.1,0.1,2.5,1.3,3.6-0.2c-2.2-0.6-4.2-1.8-6.9-0.7C60.7,37,62.9,35.5,63.8,35.6z"/>
				<path class="st9" d="M47.8,28.5c1,1.6,1.9,3.2,1.5,4.5c-1.6,2.1-1.7,4.6-2.9,6.8c1,3,3.8,0.5,6.2-0.7c-2.7-2.4-1.4-3.8-2.9-7.2
					c1.7,0.4,5.9-1.9,6.5-3.5c-2.4-2.3-4.4-2.7-5.5-4.9C49.8,26.3,51.1,26.2,47.8,28.5z"/>
				<path class="st9" d="M35,20.4c-1.8-1-3.1-3.8-5.8-2.1c1.6,2,1.2,3.4,1.8,5.1c3.1-2.8,3.6,2.4,6.2,1c-0.8-3-3.1-1.5-4.4-2.9
					C32.6,20.4,33.9,21.4,35,20.4z"/>
				<path class="st9" d="M21.5,9.3c1.6,1.5-1,1.6-1.4,2.5c-0.3,0.7,1,2.3-2.2,2.9c1.8,4.1,4,7.1,6.9,7.7c0.6-2.5,2.3-5.4,0-7
					c0.6-0.5,0.8-0.1,1.1,0.3c-0.2-0.9-0.6-2.3,0-5.3c1.3-0.8,2,0,3.3-0.9c1.4,2.3,1.5,4.3-1.8,5.4c0.9,0.3,1.6,1.1,2.2,2.3
					c1.7-1.1,1.2-4.2,3.6-2c0.1-2.9,4-4.8,3.3-7.9C35,8.2,33.5,9,32.1,9.7c-1.1-1.8,0.5-2-1.5-2.7c1.5-0.5,2.6,0.5,4.4-0.6
					c-1.3-1-2.6-1.8-3.7-3.3c-1,0.5-1.9,1-2.9,1.6c0.5,0.9,1,1.8,1.5,2.7c-1.3-0.3-1.8,0.2-1.1,1.5c-2.9,1.1-11.3-5.2-9.1,2.3
					C20.9,10.7,20.6,9.8,21.5,9.3z"/>
				<path class="st9" d="M60-11.5c-1.4-2-3.9-1.3-2.2-4.1c-1-1.5-2.8-0.5-3.3,0.9c-1.8-1.1-3.1-3.6-5.1-4.3c-1.3,1.3,0.9,1.2,1.1,2
					c0.7,2.3-1.9,4.5-0.7,7.4c-2.6,1.7-8.8-1.4-7.3,3.9c3.9-3.7,1.3,0.6,5.8-1.4c1,4.1,0.6,8.5,4.4,11.7c-0.2-3.2,3.7-3,5.1-1
					C60.1,2.2,60,0,61.5-1.7C58.2-5.7,59.5-8.5,60-11.5z"/>
				<path class="st9" d="M5.4,2.2c1.5,2.7,4.8,0,5.8,3.9c3.3-3.2,4.3,0.3,6.9-1.1C16,1,11.9,2.5,9.1,0.2C7,1.9,6.1,0.1,5.4,2.2z"/>
				<path class="st9" d="M36-0.3c0.5,2.1,2.2,0.5,3.3,0.9c1.3,3.1-1.4,5.1-0.3,8.1c4.2-1.8,7.2,0.6,8-4.3c-0.6-2.4-2.7-0.2-3.3-2.6
					c0.3-1.1,0.7-2.1,1.1-3.2c-3.1-0.1-5.1-3.8-8.7-2.3C36.7-2.4,34.5-1.9,36-0.3z"/>
			</g>
		</g>
	</g>
</g>
<g id="lapiz_x5F_05a">
</g>
<g id="proyecto-01_x5F_05a">
</g>
<g id="tarjeta_x5F_05a">
</g>
<g id="proyecto-01_x5F_05b">
</g>
<g id="proyecto-02_x5F_05b" class="st43">
</g>
<g id="proyecto-03_x5F_05b" class="st43">
</g>
<g id="Layer_11">
</g>
<g id="noticia_2">
</g>
<g id="noticia_1_1_">
	<g>
		<ellipse class="st22" cx="37.5" cy="42.7" rx="37" ry="38.6"/>
		<g>
			<defs>
				<ellipse id="SVGID_17_" cx="37.5" cy="42.7" rx="37" ry="38.6"/>
			</defs>
			<clipPath id="SVGID_6_">
				<use xlink:href="#SVGID_17_"  style="overflow:visible;"/>
			</clipPath>
			<g class="st23">
				<path class="st24" d="M29.7,20.1c0,0-10.3-2.8-8.1,14.8c0,0,0.3,17.6-0.5,17.8c0,0,1.1,0,1.8-1.2c0,0-1.5,10.4,8.9,11.4
					c0,0,17.9,4.6,18-12.4c0-0.2,0-0.4,0-0.6c-0.3-17.7,0.9-20.2,0.4-24.1C49.7,22.1,34.5,11.9,29.7,20.1z"/>
				<path class="st25" d="M48.9,43.4c0,0,6.2-2.4-0.9,9.7L48.9,43.4z"/>
				<path class="st25" d="M23.3,43.5c0,0-6.3-2.2,1.2,9.7L23.3,43.5z"/>
				<g>
					<polygon class="st26" points="27.3,64.3 45.4,64 44.3,69.9 27.4,70.2 					"/>
					<path class="st27" d="M61.4,73.6c-1.6-2.3-18.3-6-18.3-6l-0.2-12.3l-6.2,0.1l-0.2,0l-6.2,0.1l0.2,12.3c0,0-13.4,3.8-14.9,6.2
						s0.2,10.3,0.2,10.3l21.4-1.2l24.5,0.8C61.6,83.9,63.1,75.9,61.4,73.6z"/>
					<path class="st25" d="M30.5,67.8l-0.1-6.7L43,60.8C43,60.8,40.4,67.6,30.5,67.8z"/>
					<path class="st27" d="M49,42.1c-0.2,9.1-0.4,15.6-3.6,18.3c-3.6,2.9-6.7,4.5-8.6,4.5c-2,0-5.1-1.7-10-5.4
						c-3.6-2.7-3.2-9-3.5-16.8c-0.6-13.4,4-22,12.7-22.1S49.4,30,49,42.1z"/>
					<g>
						<g>
							<path class="st25" d="M33,50.9c2.1,1.5,4.7,1.4,6.6-0.2c0.7-0.6-0.3-1.5-1-1c-1.5,1.3-3.5,1.1-5,0C33,49.2,32.3,50.4,33,50.9
								L33,50.9z"/>
						</g>
					</g>
					<g>
						
							<ellipse transform="matrix(0.9999 -1.703666e-02 1.703666e-02 0.9999 -0.7193 0.5079)" class="st24" cx="29.5" cy="42.5" rx="1" ry="1.6"/>
						
							<ellipse transform="matrix(0.9999 -1.703666e-02 1.703666e-02 0.9999 -0.7133 0.7438)" class="st24" cx="43.3" cy="42.2" rx="1" ry="1.6"/>
					</g>
					<polygon class="st26" points="34.5,73.9 35,79.2 30.6,77.3 33.3,73.7 					"/>
					<polygon class="st26" points="41.7,74.3 41.7,78.3 44.9,76.2 42.1,73.9 					"/>
					<path class="st28" d="M30.3,76.5l7.5,3l7.8-3.3l0.5-9.3l15.6,4.7c0,0,5.6,1.1,5.2,5.5c-0.5,5.2-1.3,6.7-1.3,6.7l-54.7,0.5
						c0,0-2.9-8.3-0.6-10.3S25,67.9,25,67.9L30.3,76.5z"/>
					<polyline class="st72" points="46.8,76.1 33.9,81 33.9,84.3 					"/>
					<polygon class="st30" points="29.4,77.3 30.7,80.4 34.5,73.6 					"/>
					<polygon class="st12" points="27.3,64.3 34.5,73.6 27.6,80.5 24.1,67.1 					"/>
					<polygon class="st30" points="41.7,74.3 45.7,80.2 46.9,77 					"/>
					<polygon class="st12" points="45.4,64 48.2,66.9 48.1,80.1 41.7,74.3 					"/>
					<polygon class="st31" points="43.5,69.4 48.7,67.1 45.4,64 					"/>
					<polygon class="st31" points="30.8,69.3 24.7,66.8 27.3,64.3 					"/>
					<polygon class="st12" points="32.3,55.3 41.1,55.2 39.1,57.6 34.7,57.5 					"/>
					<g>
						<path class="st32" d="M32.3,55.3c0,0,1.3,2.3,2,2.6c0.6,0.3,4.5,0.2,5.1-0.1c0.6-0.3,1.7-2.7,1.7-2.7
							C38.4,57.8,35.4,58,32.3,55.3z"/>
					</g>
				</g>
				
					<rect x="22.5" y="39.7" transform="matrix(0.9999 -1.703666e-02 1.703666e-02 0.9999 -0.7204 0.4919)" class="st33" width="12" height="5.6"/>
				
					<rect x="37.3" y="39.5" transform="matrix(0.9999 -1.703666e-02 1.703666e-02 0.9999 -0.714 0.7438)" class="st33" width="12" height="5.6"/>
				
					<rect x="22.5" y="39.7" transform="matrix(0.9999 -1.703666e-02 1.703666e-02 0.9999 -0.7204 0.4919)" class="st73" width="12" height="5.6"/>
				
					<rect x="37.3" y="39.5" transform="matrix(0.9999 -1.703666e-02 1.703666e-02 0.9999 -0.714 0.7438)" class="st73" width="12" height="5.6"/>
				<line class="st73" x1="34.6" y1="43.6" x2="37.3" y2="43.6"/>
				<path class="st24" d="M28.6,25.9c0,0,9.4,15.6,22.8,11c0,0-2-0.2-2.4-0.9c0,0,2.8,0.5,5.6-1.7c0,0-5.2-0.2-7.1-4.8
					c-1.9-4.6-5.7-14.2-19-7.2c0,0-7,5.3-5.3,16.5C23.2,38.8,28.3,34.4,28.6,25.9z"/>
				<path class="st14" d="M37,26.6c0,0,4.2,5.4,10.6,5.5c0,0-1.7-4.8-0.1-6.5c0,0-0.7-3.3-3.5-3.5C43.9,22,42.8,26.4,37,26.6z"/>
				
					<ellipse transform="matrix(0.9999 -1.703666e-02 1.703666e-02 0.9999 -1.4133 0.6592)" class="st35" cx="38" cy="83.3" rx="1.7" ry="1.7"/>
			</g>
		</g>
	</g>
</g>
<g id="Layer_13">
</g>
</svg>
