<svg xmlns="http://www.w3.org/2000/svg" xmlns:xlink="http://www.w3.org/1999/xlink" viewBox="0 0 78 77"><defs><style>.cls-1{fill:none;}.cls-2{font-size:15px;font-family:Roboto-Regular, Roboto;}.cls-3{letter-spacing:-0.03em;}.cls-4{letter-spacing:-0.01em;}.cls-5{letter-spacing:-0.02em;}.cls-6{letter-spacing:-0.01em;}.cls-7{letter-spacing:-0.01em;}.cls-8{letter-spacing:0.02em;}.cls-9{fill:#be637c;}.cls-10{clip-path:url(#clip-path);}.cls-11{fill:#333;opacity:0.2;}.cls-12{fill:#447360;}.cls-13{clip-path:url(#clip-path-2);}.cls-14,.cls-19{fill:#101c47;}.cls-15{fill:#999;}.cls-16{fill:#162661;}.cls-17{fill:#fff;}.cls-18{fill:#f2ccc0;}.cls-19{opacity:0.6;}.cls-20{fill:#93321e;}.cls-21{fill:#692415;}.cls-22{fill:#b3b3b3;}.cls-23{fill:#1a1a1a;}.cls-24{fill:#eaae99;}</style><clipPath id="clip-path"><ellipse class="cls-1" cx="37.42" cy="40.65" rx="36.58" ry="38.14"/></clipPath><clipPath id="clip-path-2"><rect class="cls-1" x="-1.47" y="1.38" width="79.64" height="79.64" transform="translate(-4.06 78.2) rotate(-88.15)"/></clipPath></defs><title>notificacion_seguridad_01</title><g id="noticia_1" data-name="noticia 1"><text class="cls-2" transform="translate(-567.62 -7.24)">De: <tspan class="cls-3" x="25.13" y="0">L</tspan><tspan x="32.81" y="0">UIS</tspan><tspan class="cls-4" x="0" y="18">P</tspan><tspan x="9.38" y="18">a</tspan><tspan class="cls-5" x="17.54" y="18">r</tspan><tspan x="22.32" y="18">a: Di</tspan><tspan class="cls-6" x="51.31" y="18">r</tspan><tspan x="56.24" y="18">ección</tspan><tspan x="0" y="36">Asun</tspan><tspan class="cls-7" x="34.06" y="36">t</tspan><tspan x="38.82" y="36">o: Un expe</tspan><tspan class="cls-8" x="108.18" y="36">r</tspan><tspan class="cls-7" x="113.62" y="36">t</tspan><tspan x="118.37" y="36">o en seguridad comenta</tspan></text><ellipse class="cls-9" cx="37.42" cy="40.65" rx="36.58" ry="38.14"/><g class="cls-10"><polygon class="cls-11" points="-1.52 79.66 78.81 84.8 77.56 5.53 -1.52 79.66"/><rect class="cls-12" x="-1.47" y="1.38" width="79.64" height="79.64" transform="translate(-4.06 78.2) rotate(-88.15)"/><g class="cls-13"><polygon class="cls-14" points="19.12 54.8 59.16 55.09 60.6 59.55 18.3 60.25 19.12 54.8"/><path class="cls-15" d="M27,16.65s-4.39-.1-6.13,2-2.07,8.68-2.07,8.68l2.55,4,39.32,4.1S63.15,29.49,61.72,25s-6.84-6-6.84-6Z"/><path class="cls-16" d="M-6.58,81.27s-.2-18.67,33.65-26.36L51.71,56.1s26.23,2.37,32.08,29l-23.88.22L16.65,83.22Z"/><polygon class="cls-17" points="21.67 56.31 16.11 60.14 20.59 69.69 20.48 83.4 56.07 85.12 59.1 67.71 60.62 59 56.1 56.04 21.67 56.31"/><path class="cls-18" d="M21.35,31.31s-.34-4.41-2.55-4-3,5.89-2.59,8.11A67.16,67.16,0,0,0,18.6,42.7Z"/><path class="cls-19" d="M56.56,57.88s-2.89,8.78-1.44,24.06l6-21.27-1.48-4.19-3.24-.43Z"/><path class="cls-18" d="M60.53,38.14c2.16,15-10.76,26.92-22.4,26.36S13.89,50.56,18.37,36.11c5.2-16.76,10.76-26.92,22.4-26.36S58.07,21,60.53,38.14Z"/><path class="cls-18" d="M59.69,33.16s.1-2.19,1.76-2.66,3.18,2.35,1.82,7.77-3.66,7.51-4.15,6.38S59.7,33.16,59.69,33.16Z"/><path class="cls-19" d="M21.78,56.58s2,15.46-.2,26.88L17.43,59.23,21,54.89Z"/><path class="cls-17" d="M31.21,50.48l.34-3.1,13.1.63L44,51.43s-3.63,2.16-6,2S31.21,50.48,31.21,50.48Z"/><polygon class="cls-20" points="39.49 76.09 41.58 66.86 33.92 66.49 35.93 75.92 39.49 76.09"/><polygon class="cls-21" points="34.31 69.8 39.89 74.33 41.26 68.3 34.37 68.59 34.31 69.8"/><path class="cls-22" d="M19,34.11s-1.92,11.54,2.85,15.06l4.77,3.52s8,4.23,9.18,3.19A3.71,3.71,0,0,0,37,53.36l2.74.13s-.05,2.58,1.59,2.66,11.32-1.37,14.21-4.53S60,44.07,60.11,35.48A28.78,28.78,0,0,1,59.64,51C57,59.65,51.91,63.25,51.91,63.25L51.47,61l-.73,3.81S45,70,41.68,70.43s-12.57-1.16-14.6-4.55l.16-3.29-1.17,1.59s-6.2-8-7.58-13.54S16.24,39.91,19,34.11Z"/><ellipse class="cls-23" cx="30.93" cy="31.77" rx="2.19" ry="1.37" transform="translate(-2.3 61.13) rotate(-87.23)"/><ellipse class="cls-23" cx="46.81" cy="32.54" rx="2.19" ry="1.37" transform="translate(12.05 77.72) rotate(-87.23)"/><path class="cls-24" d="M30.24,51.1c4.54,3.24,10.75,4.6,15.24.57.72-.65-.34-1.71-1.06-1.06-4,3.58-9.48,2-13.42-.81-.79-.56-1.54.74-.76,1.3Z"/><path class="cls-24" d="M30.58,47.82c4.59,1.81,10,2.5,14.73.69.89-.34.51-1.8-.4-1.45-4.48,1.72-9.55,1-13.93-.69-.9-.35-1.29,1.1-.4,1.45Z"/><path class="cls-15" d="M48.07,46.85c-.78-5-7.43-5.15-9.1-5.34v0h-.2l-.2,0v0c-1.68,0-8.68-.87-10.41,5.23a54.3,54.3,0,0,0-1.74,14.47s4.46-15.95,12-12.5C45.68,46,48.94,62.28,48.94,62.28A98.35,98.35,0,0,0,48.07,46.85Z"/><path class="cls-18" d="M34.68,37.17l-.62,1.41a2.27,2.27,0,0,0-.28,1.19,1.85,1.85,0,0,0,.71,1.1,9.8,9.8,0,0,0,3,1.53,3.17,3.17,0,0,0,1.77.31,3.15,3.15,0,0,0,.83-.36l1.75-1a2.86,2.86,0,0,0,.76-.54,1.94,1.94,0,0,0,.33-1.77A5.72,5.72,0,0,0,42,37.4"/><path class="cls-24" d="M34.2,36.89c-.58,1.32-1.51,2.75-.42,4.05a8.37,8.37,0,0,0,4.77,2.34A6.78,6.78,0,0,0,43,41.22c1.12-1.27.34-2.9-.43-4.11-.39-.6-1.36,0-1,.56,1,1.49.91,2.39-.62,3.53a3.7,3.7,0,0,1-3,.75,6.19,6.19,0,0,1-2.2-.95c-1.19-1-1.07-2.3-.52-3.56.29-.65-.68-1.22-1-.56Z"/><path class="cls-15" d="M23.49,30.43l11.72-.25.64-3.78S27.64,25.57,23.49,30.43Z"/><path class="cls-15" d="M42.94,26.66l-.2,3.83,11.41,2.24S49.48,27.55,42.94,26.66Z"/><polygon class="cls-15" points="37.35 54.41 34.31 69.8 37.37 70.36 37.35 54.41"/><polygon class="cls-15" points="38.96 55.21 38.94 70.42 41.4 70.69 38.96 55.21"/><path class="cls-14" d="M19.12,54.8,8.4,60.87l3.8,12.26,4.38.21L13.65,77l-1.2,5.83,9,.86S24.36,65.62,19.12,54.8Z"/><path class="cls-14" d="M59.16,55.09s-4.34,10.22-4.19,30l7.67.37.42-8.76L61.6,72.77,64.29,74l4.44-12.41Z"/><polygon class="cls-20" points="36.21 75.93 33.07 84.01 41.28 84.41 38.94 76.06 36.21 75.93"/><polygon class="cls-21" points="38.94 76.06 36.21 75.93 40.82 82.74 38.94 76.06"/></g></g></g></svg>