<svg xmlns="http://www.w3.org/2000/svg" viewBox="0 0 1313 700"><defs><style>.cls-1,.cls-3{fill:#f0ede6;}.cls-1{stroke:#e6e6e6;stroke-width:4px;}.cls-1,.cls-4{stroke-miterlimit:10;}.cls-2{fill:#eae4da;}.cls-4{fill:none;stroke:#f0ede6;stroke-linecap:round;stroke-width:6px;}</style></defs><title>pantallas_10-5-noti</title><g id="lapices"><polygon class="cls-1" points="1313 101.71 1313 101.7 1313 598.12 1313 598.11 1313 101.71"/><path class="cls-1" d="M1211.33,0h0Z"/><path d="M1211.38,0H101.62A101.67,101.67,0,0,0,0,101.71v496.4A101.67,101.67,0,0,0,101.67,699.78H1211.33A101.67,101.67,0,0,0,1313,598.12V101.7A101.67,101.67,0,0,0,1211.38,0Zm-55.63,665.19H157.25V34.6h998.51Z"/><polygon class="cls-2" points="668.77 665.23 1155.75 665.23 1155.75 34.6 271.16 34.6 668.77 665.23"/><polygon class="cls-3" points="157.25 34.6 157.25 665.23 668.77 665.23 271.16 34.6 157.25 34.6"/><circle class="cls-3" cx="1234.38" cy="349.91" r="55.04"/><line class="cls-4" x1="96.31" y1="373.5" x2="96.31" y2="271.29"/><circle class="cls-3" cx="96.31" cy="416.74" r="11.79"/></g></svg>