<svg xmlns="http://www.w3.org/2000/svg" xmlns:xlink="http://www.w3.org/1999/xlink" viewBox="0 0 93 96"><defs><style>.cls-1{fill:none;}.cls-2{fill:#be637c;}.cls-3{clip-path:url(#clip-path);}.cls-4{fill:#563222;}.cls-5{fill:#47291c;}.cls-6{fill:#b3b3b3;}.cls-7{fill:#f2ccc0;}.cls-8{fill:#eaae99;}.cls-9{fill:#9e494c;}.cls-10{fill:#1a1a1a;}.cls-11{fill:#49708a;}.cls-12{fill:#3d5d73;}.cls-13,.cls-15{fill:#2d4454;}.cls-13{opacity:0.46;}.cls-14{fill:#fff;}.cls-15{opacity:0.16;}.cls-16{fill:#613826;}</style><clipPath id="clip-path"><ellipse class="cls-1" cx="46.42" cy="47.78" rx="45.82" ry="47.78"/></clipPath></defs><title>pantallas_10-5-noti</title><g id="lapices"><ellipse class="cls-2" cx="46.42" cy="47.78" rx="45.82" ry="47.78"/><g class="cls-3"><path class="cls-4" d="M44.36,6.42C38.2,6.42,27.44,10,26.93,22.83S28,72,28,72l17.94,5.64,17.43-1V26.42A23,23,0,0,0,63,22.83C61.94,17.07,58.2,6.42,44.36,6.42Z"/><polygon class="cls-5" points="29.49 50.51 35.64 77.17 53.58 77.68 59.22 50.51 29.49 50.51"/><polygon class="cls-6" points="34.1 65.38 56.15 65.38 54.61 73.07 34.1 73.07 34.1 65.38"/><path class="cls-7" d="M76.65,78.2C74.6,75.12,53.07,70,53.07,70V54.1H36.67V70s-17.43,4.61-19.48,7.69,0,13.33,0,13.33l27.68-1,31.78,1.54S78.7,81.27,76.65,78.2Z"/><path class="cls-8" d="M36.67,70V61.28H53.07S49.48,70,36.67,70Z"/><path class="cls-7" d="M60.76,37.18C60.25,49,59,56.41,55.63,60.76A14.36,14.36,0,0,1,44.87,66.4c-2.55,0-7.66-1.91-12.21-7.42C29,54.54,28.76,47.3,28.46,37.18,28,19.75,33.54,9,44.87,9S61.44,21.51,60.76,37.18Z"/><path class="cls-9" d="M38.2,54.09l6.66.42,6.66-.42-5-1.67a2.91,2.91,0,0,1-1.67.83,2.91,2.91,0,0,1-1.67-.83Z"/><path class="cls-9" d="M39,54.09l2.5,1.25a17.93,17.93,0,0,0,6.66,0c.83-.42,2.29-1.25,2.29-1.25Z"/><path class="cls-8" d="M41.53,47.19c1.83,1.8,4.41,2,6.17,0,.32-.36-.21-.89-.53-.53a3.34,3.34,0,0,1-5.11,0c-.35-.34-.88.19-.53.53Z"/><ellipse class="cls-10" cx="37.44" cy="37.18" rx="1.28" ry="2.05"/><ellipse class="cls-10" cx="52.3" cy="37.18" rx="1.28" ry="2.05"/><polygon class="cls-6" points="41.79 78.02 42.3 84.86 36.67 82.3 40.26 77.68 41.79 78.02"/><polygon class="cls-6" points="51.02 78.71 51.02 83.83 55.12 81.27 51.53 78.19 51.02 78.71"/><path class="cls-5" d="M31.82,32.06s5.35-3.59,10.7,0A21.72,21.72,0,0,0,31.82,32.06Z"/><path class="cls-11" d="M37.69,81.27l8.2,4.1,8.72-4.1.77-12,17.17,6.41s6.15,1.54,5.64,7.18c-.61,6.72-1.54,8.72-1.54,8.72L47.17,99.83,16.16,91s-3.08-10.77-.51-13.33S32.05,70,32.05,70Z"/><polygon class="cls-12" points="36.15 83.32 45.38 87.42 46.41 87.42 57.17 82.81 55.12 80.76 46.41 84.35 45.38 84.35 37.69 81.27 36.15 83.32"/><path class="cls-5" d="M47,32.06s5.35-3.59,10.7,0A21.72,21.72,0,0,0,47,32.06Z"/><polygon class="cls-13" points="35.13 82.3 36.67 86.4 41.79 77.68 35.13 82.3"/><path class="cls-4" d="M27.4,27.72H50.68l.53-7.39,1.58,6.87L53.32,24l1.06,3.7H62.3s0-19-17.43-19S27.4,27.72,27.4,27.72Z"/><polygon class="cls-14" points="34.1 65.38 41.79 77.68 34.1 86.4 30.51 68.97 34.1 65.38"/><polygon class="cls-13" points="51.02 78.71 56.15 86.4 57.69 82.3 51.02 78.71"/><polygon class="cls-14" points="56.15 65.38 59.62 69.22 59.22 86.4 51.02 78.71 56.15 65.38"/><polygon class="cls-13" points="29.49 83.32 27.95 76.14 27.95 71.58 30.51 76.14 32.05 81.27 29.49 83.32"/><polygon class="cls-13" points="59.74 71.02 59.74 75.12 63.32 81.27 63.66 72.81 65.16 83.49 66.4 82.81 65.89 69.99 59.74 71.02"/><polygon class="cls-4" points="26.93 22.83 24.36 82.3 27.95 85.89 28.46 73.07 29.49 82.3 32.05 81.27 32.05 76.14 28.98 55.64 26.93 22.83"/><polygon class="cls-4" points="67.94 82.81 63.32 23.85 61.79 34.62 59.22 68.45 59.74 74.61 63.32 79.73 64.35 72.56 65.38 86.4 67.94 82.81"/><polygon class="cls-15" points="53.46 72.37 60.25 69.48 56.15 65.38 53.46 72.37"/><rect class="cls-11" x="45.38" y="84.35" width="1.03" height="3.08"/><polygon class="cls-11" points="39.61 84.86 40.6 82.44 39.83 82.13 38.69 84.45 39.61 84.86"/><polygon class="cls-11" points="50.24 82.77 51.27 85.34 52.21 84.94 51.22 82.36 50.24 82.77"/><path class="cls-16" d="M40.6,9.56s-5.71,3.56-5.08,18.15H32.91S33.26,10.14,40.6,9.56Z"/><polygon class="cls-15" points="38.2 71.94 30.91 68.57 34.1 65.38 38.2 71.94"/></g></g></svg>