<?xml version="1.0" encoding="utf-8"?>
<!-- Generator: Adobe Illustrator 21.1.0, SVG Export Plug-In . SVG Version: 6.00 Build 0)  -->
<svg version="1.1" xmlns="http://www.w3.org/2000/svg" xmlns:xlink="http://www.w3.org/1999/xlink" x="0px" y="0px"
	 viewBox="0 0 526 523" style="enable-background:new 0 0 526 523;" xml:space="preserve">
<style type="text/css">
	@font-face {
    font-family: 'Roboto-Regular';
    font-style: normal;
    font-weight: 400;
    src: local('Roboto-Regular'), local('Roboto'), url(https://fonts.gstatic.com/s/roboto/v16/RxZJdnzeo3R5zSexge8UUVtXRa8TVwTICgirnJhmVJw.woff2) format('woff2');
    unicode-range: U+0000-00FF, U+0131, U+0152-0153, U+02C6, U+02DA, U+02DC, U+2000-206F, U+2074, U+20AC, U+2212, U+2215;
    }
	@font-face {
  font-family: 'Roboto-Bold';
  font-style: normal;
  font-weight: 700;
  src: local('Roboto-Bold'), local('Roboto-Regular'), local('Roboto'), url(https://fonts.gstatic.com/s/roboto/v16/RxZJdnzeo3R5zSexge8UUVtXRa8TVwTICgirnJhmVJw.woff2) format('woff2');
  unicode-range: U+0000-00FF, U+0131, U+0152-0153, U+02C6, U+02DA, U+02DC, U+2000-206F, U+2074, U+20AC, U+2212, U+2215;
}
	.st0{fill:#ADADAD;}
	.st1{font-family:'Roboto-Bold';}
	.st2{font-size:15.77px;}
	.st3{font-family:'Roboto-Regular';}
	.st4{font-size:12.27px;}
	.st5{fill:#6F8FA3;}
</style>
<g id="guadalupe_x5F_03">
	<title>notificacion_adicciones_02</title>
	<path class="st0" d="M426.5,484.5h-322c0,0-22.3,23.5-66.3,23.5c30.8-4.2,31.5-23.5,31.5-23.5H39.8C29,484.6,20.1,475.9,20,465
		c0,0,0,0,0,0V345.5c0.1-10.9,9-19.6,19.8-19.5h386.7c10.9-0.1,19.7,8.7,19.8,19.5c0,0,0,0,0,0V465
		C446.2,475.9,437.4,484.6,426.5,484.5C426.5,484.6,426.5,484.5,426.5,484.5z"/>
	<text transform="matrix(1 0 0 1 41.34 348.91)" class="st1 st2">Senador Guadalupe</text>
	<text transform="matrix(1 0 0 1 41.34 369.06)" class="st3 st4">T</text>
	<text transform="matrix(1 0 0 1 48.07 369.06)" class="st3 st4">e compa</text>
	<text transform="matrix(1 0 0 1 95.32 369.06)" class="st3 st4">r</text>
	<text transform="matrix(1 0 0 1 99.77 369.06)" class="st3 st4">t</text>
	<text transform="matrix(1 0 0 1 103.66 369.06)" class="st3 st4">o este apunte que </text>
	<text transform="matrix(1 0 0 1 203.94 369.06)" class="st3 st4">t</text>
	<text transform="matrix(1 0 0 1 207.83 369.06)" class="st3 st4">omé, es una </text>
	<text transform="matrix(1 0 0 1 276.61 369.06)" class="st3 st4">v</text>
	<text transform="matrix(1 0 0 1 282.48 369.06)" class="st3 st4">e</text>
	<text transform="matrix(1 0 0 1 288.98 369.06)" class="st3 st4">r</text>
	<text transform="matrix(1 0 0 1 293.01 369.06)" class="st3 st4">dade</text>
	<text transform="matrix(1 0 0 1 320.02 369.06)" class="st3 st4">r</text>
	<text transform="matrix(1 0 0 1 323.93 369.06)" class="st3 st4">a síntesis del </text>
	<text transform="matrix(1 0 0 1 41.34 383.78)" class="st3 st4">p</text>
	<text transform="matrix(1 0 0 1 48.22 383.78)" class="st3 st4">r</text>
	<text transform="matrix(1 0 0 1 52.25 383.78)" class="st3 st4">oblema:  El mundo está orientando h</text>
	<text transform="matrix(1 0 0 1 251.36 383.78)" class="st3 st4">o</text>
	<text transform="matrix(1 0 0 1 258.26 383.78)" class="st3 st4">y fue</text>
	<text transform="matrix(1 0 0 1 284.62 383.78)" class="st3 st4">r</text>
	<text transform="matrix(1 0 0 1 289.07 383.78)" class="st3 st4">temente sus acciones pa</text>
	<text transform="matrix(1 0 0 1 425.25 383.78)" class="st3 st4">r</text>
	<text transform="matrix(1 0 0 1 429.16 383.78)" class="st3 st4">a </text>
	<text transform="matrix(1 0 0 1 41.34 398.5)" class="st3 st4">enf</text>
	<text transform="matrix(1 0 0 1 58.87 398.5)" class="st3 st4">r</text>
	<text transform="matrix(1 0 0 1 62.9 398.5)" class="st3 st4">entar el p</text>
	<text transform="matrix(1 0 0 1 113.42 398.5)" class="st3 st4">r</text>
	<text transform="matrix(1 0 0 1 117.46 398.5)" class="st3 st4">oblema de las d</text>
	<text transform="matrix(1 0 0 1 203.65 398.5)" class="st3 st4">r</text>
	<text transform="matrix(1 0 0 1 207.68 398.5)" class="st3 st4">ogas desde la demanda. </text>
	<text transform="matrix(1 0 0 1 343.92 398.5)" class="st3 st4">P</text>
	<text transform="matrix(1 0 0 1 351.6 398.5)" class="st3 st4">a</text>
	<text transform="matrix(1 0 0 1 358.27 398.5)" class="st3 st4">r</text>
	<text transform="matrix(1 0 0 1 362.18 398.5)" class="st3 st4">a log</text>
	<text transform="matrix(1 0 0 1 388.74 398.5)" class="st3 st4">r</text>
	<text transform="matrix(1 0 0 1 392.65 398.5)" class="st3 st4">ar este </text>
	<text transform="matrix(1 0 0 1 41.34 413.22)" class="st3 st4">p</text>
	<text transform="matrix(1 0 0 1 48.22 413.22)" class="st3 st4">r</text>
	<text transform="matrix(1 0 0 1 52.25 413.22)" class="st3 st4">opósi</text>
	<text transform="matrix(1 0 0 1 82.42 413.22)" class="st3 st4">t</text>
	<text transform="matrix(1 0 0 1 86.31 413.22)" class="st3 st4">o es necesario </text>
	<text transform="matrix(1 0 0 1 168.54 413.22)" class="st3 st4">r</text>
	<text transform="matrix(1 0 0 1 172.58 413.22)" class="st3 st4">epetir que la cl</text>
	<text transform="matrix(1 0 0 1 251.97 413.22)" class="st3 st4">a</text>
	<text transform="matrix(1 0 0 1 258.56 413.22)" class="st3 st4">v</text>
	<text transform="matrix(1 0 0 1 264.42 413.22)" class="st3 st4">e es la educación y una </text>
	<text transform="matrix(1 0 0 1 41.34 427.94)" class="st3 st4">v</text>
	<text transform="matrix(1 0 0 1 47.2 427.94)" class="st3 st4">e</text>
	<text transform="matrix(1 0 0 1 53.7 427.94)" class="st3 st4">r</text>
	<text transform="matrix(1 0 0 1 57.74 427.94)" class="st3 st4">dade</text>
	<text transform="matrix(1 0 0 1 84.74 427.94)" class="st3 st4">r</text>
	<text transform="matrix(1 0 0 1 88.65 427.94)" class="st3 st4">a alianza de la escuela, la familia, las o</text>
	<text transform="matrix(1 0 0 1 298.36 427.94)" class="st3 st4">r</text>
	<text transform="matrix(1 0 0 1 302.4 427.94)" class="st3 st4">ganizaciones sociales, </text>
	<text transform="matrix(1 0 0 1 41.34 442.66)" class="st3 st4">las emp</text>
	<text transform="matrix(1 0 0 1 84.48 442.66)" class="st3 st4">r</text>
	<text transform="matrix(1 0 0 1 88.52 442.66)" class="st3 st4">esas y el Estado pa</text>
	<text transform="matrix(1 0 0 1 193.2 442.66)" class="st3 st4">r</text>
	<text transform="matrix(1 0 0 1 197.11 442.66)" class="st3 st4">a enf</text>
	<text transform="matrix(1 0 0 1 224.34 442.66)" class="st3 st4">r</text>
	<text transform="matrix(1 0 0 1 228.38 442.66)" class="st3 st4">entar de </text>
	<text transform="matrix(1 0 0 1 275.96 442.66)" class="st3 st4">v</text>
	<text transform="matrix(1 0 0 1 281.83 442.66)" class="st3 st4">e</text>
	<text transform="matrix(1 0 0 1 288.32 442.66)" class="st3 st4">r</text>
	<text transform="matrix(1 0 0 1 292.36 442.66)" class="st3 st4">dad y con firmeza este </text>
	<text transform="matrix(1 0 0 1 41.34 457.38)" class="st3 st4">temible mal de nuest</text>
	<text transform="matrix(1 0 0 1 155.21 457.38)" class="st3 st4">r</text>
	<text transform="matrix(1 0 0 1 159.24 457.38)" class="st3 st4">o tiempo.</text>
</g>
<g id="azul_x5F_02">
	<path class="st5" d="M110.9,305.9h317.5c0,0,22,23.5,65.4,23.5c-30.4-4.2-31-23.5-31-23.5h29.4c10.8,0,19.5-8.7,19.5-19.5l0,0v-2
		c0-10.8-8.7-19.5-19.5-19.5l0,0H110.9c-10.8,0-19.5,8.7-19.5,19.5l0,0v2C91.3,297.1,100.1,305.9,110.9,305.9L110.9,305.9z"/>
	<text transform="matrix(1 0 0 1 110.31 288.22)" class="st3 st4">¿Me facilitarías algún apunte?</text>
</g>
<g id="guadalupe_x5F_02">
	<path class="st0" d="M420.8,249.1H103.3c0,0-22,23.5-65.4,23.5c30.4-4.2,31-23.5,31-23.5H39.6c-10.8,0-19.5-8.7-19.6-19.5
		c0,0,0,0,0,0v-38.4c0-10.8,8.7-19.5,19.5-19.5c0,0,0,0,0,0h381.3c10.8,0,19.5,8.7,19.5,19.5l0,0v38.4
		C440.3,240.3,431.6,249.1,420.8,249.1C420.8,249.1,420.8,249.1,420.8,249.1z"/>
	<text transform="matrix(1 0 0 1 41.34 194.5)" class="st1 st2">Senador Guadalupe</text>
	<text transform="matrix(1 0 0 1 41.34 214.65)" class="st3 st4">Se necesita un plan integ</text>
	<text transform="matrix(1 0 0 1 177.38 214.65)" class="st3 st4">r</text>
	<text transform="matrix(1 0 0 1 181.29 214.65)" class="st3 st4">al de p</text>
	<text transform="matrix(1 0 0 1 217.31 214.65)" class="st3 st4">r</text>
	<text transform="matrix(1 0 0 1 221.35 214.65)" class="st3 st4">ev</text>
	<text transform="matrix(1 0 0 1 233.63 214.65)" class="st3 st4">ención uni</text>
	<text transform="matrix(1 0 0 1 289.6 214.65)" class="st3 st4">v</text>
	<text transform="matrix(1 0 0 1 295.46 214.65)" class="st3 st4">ersal del </text>
	<text transform="matrix(1 0 0 1 344.55 214.65)" class="st3 st4">av</text>
	<text transform="matrix(1 0 0 1 356.98 214.65)" class="st3 st4">ance del </text>
	<text transform="matrix(1 0 0 1 41.34 229.37)" class="st3 st4">na</text>
	<text transform="matrix(1 0 0 1 54.78 229.37)" class="st3 st4">r</text>
	<text transform="matrix(1 0 0 1 58.82 229.37)" class="st3 st4">cot</text>
	<text transform="matrix(1 0 0 1 76.24 229.37)" class="st3 st4">r</text>
	<text transform="matrix(1 0 0 1 80.15 229.37)" class="st3 st4">áfico y las adicciones.</text>
</g>
<g id="azul_x5F_01">
	<path class="st5" d="M112.1,153.9h317.5c0,0,22,23.5,65.4,23.5c-30.4-4.2-31-23.5-31-23.5h29.4c10.8,0,19.5-8.7,19.5-19.5l0,0v-2
		c0-10.8-8.7-19.5-19.5-19.5l0,0H112.1c-10.8,0-19.5,8.7-19.5,19.5l0,0v2C92.6,145.2,101.3,153.9,112.1,153.9L112.1,153.9z"/>
	<text transform="matrix(1 0 0 1 111.55 136.26)" class="st3 st4">Jus</text>
	<text transform="matrix(1 0 0 1 131.4 136.26)" class="st3 st4">t</text>
	<text transform="matrix(1 0 0 1 135.29 136.26)" class="st3 st4">o es</text>
	<text transform="matrix(1 0 0 1 158.14 136.26)" class="st3 st4">t</text>
	<text transform="matrix(1 0 0 1 162.03 136.26)" class="st3 st4">o</text>
	<text transform="matrix(1 0 0 1 168.94 136.26)" class="st3 st4">y </text>
	<text transform="matrix(1 0 0 1 177.78 136.26)" class="st3 st4">e</text>
	<text transform="matrix(1 0 0 1 184.2 136.26)" class="st3 st4">v</text>
	<text transform="matrix(1 0 0 1 190.05 136.26)" class="st3 st4">aluando los p</text>
	<text transform="matrix(1 0 0 1 263.06 136.26)" class="st3 st4">r</text>
	<text transform="matrix(1 0 0 1 267.09 136.26)" class="st3 st4">o</text>
	<text transform="matrix(1 0 0 1 274 136.26)" class="st3 st4">y</text>
	<text transform="matrix(1 0 0 1 279.72 136.26)" class="st3 st4">ec</text>
	<text transform="matrix(1 0 0 1 292.64 136.26)" class="st3 st4">t</text>
	<text transform="matrix(1 0 0 1 296.53 136.26)" class="st3 st4">os del año… ¡Contame!</text>
</g>
<g id="guadalupe_x5F_01">
	<path class="st0" d="M420.8,95.8H103.3c0,0-22,23.5-65.4,23.5c30.4-4.2,31-23.5,31-23.5H39.6C28.8,95.8,20,87.1,20,76.3
		c0,0,0,0,0,0V37.9c0-10.8,8.7-19.5,19.5-19.5c0,0,0,0,0,0h381.3c10.8,0,19.5,8.7,19.5,19.5v0v38.4
		C440.3,87.1,431.6,95.8,420.8,95.8z"/>
	<text transform="matrix(1 0 0 1 41.34 41.26)" class="st1 st2">Senador Guadalupe</text>
	<text transform="matrix(1 0 0 1 41.34 61.41)" class="st3 st4">¡Hola! Me pa</text>
	<text transform="matrix(1 0 0 1 109.71 61.41)" class="st3 st4">r</text>
	<text transform="matrix(1 0 0 1 113.74 61.41)" class="st3 st4">ece impo</text>
	<text transform="matrix(1 0 0 1 163.8 61.41)" class="st3 st4">r</text>
	<text transform="matrix(1 0 0 1 168.25 61.41)" class="st3 st4">tante comenta</text>
	<text transform="matrix(1 0 0 1 247.35 61.41)" class="st3 st4">r</text>
	<text transform="matrix(1 0 0 1 251.8 61.41)" class="st3 st4">te una perspecti</text>
	<text transform="matrix(1 0 0 1 339.22 61.41)" class="st3 st4">v</text>
	<text transform="matrix(1 0 0 1 345.07 61.41)" class="st3 st4">a que </text>
	<text transform="matrix(1 0 0 1 41.34 76.13)" class="st3 st4">escuché en un simposio.</text>
</g>
</svg>
