<svg xmlns="http://www.w3.org/2000/svg" xmlns:xlink="http://www.w3.org/1999/xlink" viewBox="0 0 578 699">
    <defs>
        <style>.cls-1,.cls-10,.cls-12,.cls-8{fill:none;}.cls-2{isolation:isolate;}.cls-3{clip-path:url(#clip-path);}.cls-4{opacity:0.09;mix-blend-mode:multiply;}.cls-5{fill:#c7b316;}.cls-29,.cls-6{fill:#fff;}.cls-10,.cls-12,.cls-37,.cls-6,.cls-7,.cls-8{stroke:#b3b3b3;}.cls-10,.cls-12,.cls-32,.cls-37,.cls-6,.cls-7,.cls-8{stroke-miterlimit:10;}.cls-6{stroke-width:0.88px;}.cls-21,.cls-7{fill:#b3b3b3;}.cls-7{stroke-width:0.8px;}.cls-10,.cls-8{stroke-linecap:round;}.cls-8{stroke-width:4.03px;}.cls-37,.cls-9{fill:#f2f2f2;}.cls-10{stroke-width:2.42px;}.cls-11{font-size:15px;}.cls-11,.cls-41{font-family:Roboto-Regular, Roboto;}.cls-12{stroke-width:2px;}.cls-13{letter-spacing:0.01em;}.cls-14{letter-spacing:-0.01em;}.cls-15{letter-spacing:-0.02em;}.cls-16{letter-spacing:-0.01em;}.cls-17{letter-spacing:-0.01em;}.cls-18{fill:#be637c;}.cls-19{clip-path:url(#clip-path-2);}.cls-20{fill:#1a1a1a;}.cls-22{fill:#e0d1ac;}.cls-23{fill:#c9bc9b;}.cls-24{fill:#e0e0e0;}.cls-25{fill:#c27173;}.cls-26{fill:#49708a;}.cls-27{fill:#3d5d73;}.cls-28,.cls-30{fill:#2d4454;}.cls-28{opacity:0.46;}.cls-30{opacity:0.16;}.cls-31{fill:#333;}.cls-32,.cls-34{fill:#d3bd18;}.cls-32{stroke:#e6e6e6;stroke-width:0.79px;}.cls-33{fill:#bfab16;}.cls-35{font-size:12px;}.cls-35,.cls-40{font-family:Roboto-Bold, Roboto;font-weight:700;}.cls-36{letter-spacing:-0.01em;}.cls-37{stroke-width:3.99px;}.cls-38{fill:#6f8fa3;}.cls-39{fill:#adadad;}.cls-40{font-size:15.77px;}.cls-41{font-size:12.27px;}.cls-42{letter-spacing:-0.01em;}.cls-43{letter-spacing:0.02em;}.cls-44{letter-spacing:-0.01em;}.cls-45{letter-spacing:-0.02em;}.cls-46{letter-spacing:-0.01em;}.cls-47{letter-spacing:-0.05em;}.cls-48{letter-spacing:0.02em;}.cls-49{letter-spacing:-0.01em;}.cls-50{letter-spacing:-0.01em;}.cls-51{letter-spacing:-0.01em;}.cls-52{letter-spacing:-0.01em;}.cls-53{letter-spacing:0em;}.cls-54{letter-spacing:-0.01em;}.cls-55{letter-spacing:-0.02em;}.cls-56{letter-spacing:-0.01em;}.cls-57{letter-spacing:-0.01em;}.cls-58{letter-spacing:-0.01em;}</style>
        <clipPath id="clip-path">
            <path class="cls-1" d="M-262.88,827.61l-19-694c-219,13.94-542.11,14-545,14v-.31l-517.69-13.9-27.69,19.75-1.19,151,26.24,14.84-7.41,499.52c141-6.49,522.71,14.09,522.71,14.09v-.54C-825,831.79-546.33,820.7-262.88,827.61Z"/>
        </clipPath>
        <clipPath id="clip-path-2">
            <ellipse class="cls-1" cx="68.48" cy="121.7" rx="36.99" ry="38.58"/>
        </clipPath>
    </defs>
    <title>notificacion_adicciones_02</title>
    <g class="cls-2">
        <g id="carpeta_05a">
            <path class="cls-38" d="M112.12,329.93H429.6s22,23.45,65.38,23.45c-30.4-4.2-31-23.45-31-23.45h29.43a19.54,19.54,0,0,0,19.54-19.54v-2a19.54,19.54,0,0,0-19.54-19.54H112.12a19.54,19.54,0,0,0-19.54,19.54v2A19.54,19.54,0,0,0,112.12,329.93Z"/>
            <path class="cls-39" d="M420.8,271.81H103.32s-22,23.45-65.38,23.45c30.4-4.2,31-23.45,31-23.45H39.56A19.54,19.54,0,0,1,20,252.27V213.85a19.54,19.54,0,0,1,19.54-19.54H420.8a19.54,19.54,0,0,1,19.54,19.54v38.42A19.54,19.54,0,0,1,420.8,271.81Z"/>
            <text class="cls-40" transform="translate(41.34 217.26)">Senador Guadalupe</text>
            <text class="cls-41" transform="translate(41.34 237.41)">
                ¡Hola! Me pa
                <tspan class="cls-42" x="68.37" y="0">r</tspan>
                <tspan x="72.4" y="0">ece impo</tspan>
                <tspan class="cls-43" x="122.46" y="0">r</tspan>
                <tspan x="126.91" y="0">tante comenta</tspan>
                <tspan class="cls-43" x="206.01" y="0">r</tspan>
                <tspan x="210.46" y="0">te una perspecti</tspan>
                <tspan class="cls-44" x="297.88" y="0">v</tspan>
                <tspan x="303.73" y="0">a que </tspan>
                <tspan x="0" y="14.72">escuché en un simposio.</tspan>
            </text>
            <path class="cls-39" d="M420.8,425.06H103.32s-22,23.45-65.38,23.45c30.4-4.2,31-23.45,31-23.45H39.56A19.54,19.54,0,0,1,20,405.51V367.09a19.54,19.54,0,0,1,19.54-19.54H420.8a19.54,19.54,0,0,1,19.54,19.54v38.42A19.54,19.54,0,0,1,420.8,425.06Z"/>
            <text class="cls-40" transform="translate(41.34 370.5)">Senador Guadalupe</text>
            <text class="cls-41" transform="translate(41.34 390.65)">
                Se necesita un plan integ
                <tspan class="cls-45" x="136.04" y="0">r</tspan>
                <tspan x="139.95" y="0">al de p</tspan>
                <tspan class="cls-42" x="175.97" y="0">r</tspan>
                <tspan class="cls-46" x="180.01" y="0">ev</tspan>
                <tspan x="192.29" y="0">ención uni</tspan>
                <tspan class="cls-46" x="248.26" y="0">v</tspan>
                <tspan x="254.12" y="0">ersal del </tspan>
                <tspan class="cls-44" x="303.21" y="0">av</tspan>
                <tspan x="315.64" y="0">ance del </tspan>
                <tspan x="0" y="14.72">na</tspan>
                <tspan class="cls-42" x="13.44" y="14.72">r</tspan>
                <tspan x="17.48" y="14.72">cot</tspan>
                <tspan class="cls-45" x="34.9" y="14.72">r</tspan>
                <tspan x="38.81" y="14.72">áfico y las adicciones.</tspan>
            </text>
            <path class="cls-39" d="M426.5,660.55h-322S82.16,684,38.2,684c30.84-4.2,31.49-23.45,31.49-23.45H39.84A19.68,19.68,0,0,1,20,641V521.5A19.68,19.68,0,0,1,39.84,502H426.5a19.68,19.68,0,0,1,19.82,19.54V641A19.68,19.68,0,0,1,426.5,660.55Z"/>
            <text class="cls-40" transform="translate(41.34 524.91)">Senador Guadalupe</text>
            <text class="cls-41" transform="translate(41.34 545.06)">
                <tspan class="cls-47">T</tspan>
                <tspan x="6.73" y="0">e compa</tspan>
                <tspan class="cls-48" x="53.98" y="0">r</tspan>
                <tspan class="cls-49" x="58.43" y="0">t</tspan>
                <tspan x="62.32" y="0">o este apunte que </tspan>
                <tspan class="cls-50" x="162.6" y="0">t</tspan>
                <tspan x="166.49" y="0">omé, es una </tspan>
                <tspan class="cls-46" x="235.27" y="0">v</tspan>
                <tspan x="241.14" y="0">e</tspan>
                <tspan class="cls-51" x="247.64" y="0">r</tspan>
                <tspan x="251.67" y="0">dade</tspan>
                <tspan class="cls-45" x="278.68" y="0">r</tspan>
                <tspan x="282.59" y="0">a síntesis del </tspan>
                <tspan x="0" y="14.72">p</tspan>
                <tspan class="cls-52" x="6.88" y="14.72">r</tspan>
                <tspan class="cls-53" x="10.91" y="14.72" xml:space="preserve">oblema:  El mundo está orientando h</tspan>
                <tspan class="cls-44" x="210.02" y="14.72">o</tspan>
                <tspan x="216.92" y="14.72">y fue</tspan>
                <tspan class="cls-43" x="243.28" y="14.72">r</tspan>
                <tspan x="247.73" y="14.72">temente sus acciones pa</tspan>
                <tspan class="cls-45" x="383.91" y="14.72">r</tspan>
                <tspan x="387.82" y="14.72">a </tspan>
                <tspan x="0" y="29.44">enf</tspan>
                <tspan class="cls-42" x="17.53" y="29.44">r</tspan>
                <tspan x="21.56" y="29.44">entar el p</tspan>
                <tspan class="cls-49" x="72.08" y="29.44">r</tspan>
                <tspan x="76.12" y="29.44">oblema de las d</tspan>
                <tspan class="cls-50" x="162.31" y="29.44">r</tspan>
                <tspan x="166.34" y="29.44">ogas desde la demanda. </tspan>
                <tspan class="cls-54" x="302.58" y="29.44">P</tspan>
                <tspan x="310.26" y="29.44">a</tspan>
                <tspan class="cls-55" x="316.93" y="29.44">r</tspan>
                <tspan x="320.84" y="29.44">a log</tspan>
                <tspan class="cls-45" x="347.4" y="29.44">r</tspan>
                <tspan x="351.31" y="29.44">ar este </tspan>
                <tspan x="0" y="44.16">p</tspan>
                <tspan class="cls-52" x="6.88" y="44.16">r</tspan>
                <tspan class="cls-53" x="10.91" y="44.16">opósi</tspan>
                <tspan class="cls-49" x="41.08" y="44.16">t</tspan>
                <tspan x="44.97" y="44.16">o es necesario </tspan>
                <tspan class="cls-42" x="127.2" y="44.16">r</tspan>
                <tspan x="131.24" y="44.16">epetir que la cl</tspan>
                <tspan class="cls-44" x="210.63" y="44.16">a</tspan>
                <tspan class="cls-46" x="217.22" y="44.16">v</tspan>
                <tspan x="223.08" y="44.16">e es la educación y una </tspan>
                <tspan class="cls-56" x="0" y="58.88">v</tspan>
                <tspan x="5.86" y="58.88">e</tspan>
                <tspan class="cls-57" x="12.36" y="58.88">r</tspan>
                <tspan x="16.4" y="58.88">dade</tspan>
                <tspan class="cls-55" x="43.4" y="58.88">r</tspan>
                <tspan x="47.31" y="58.88">a alianza de la escuela, la familia, las o</tspan>
                <tspan class="cls-51" x="257.02" y="58.88">r</tspan>
                <tspan x="261.06" y="58.88">ganizaciones sociales, </tspan>
                <tspan x="0" y="73.6">las emp</tspan>
                <tspan class="cls-42" x="43.14" y="73.6">r</tspan>
                <tspan x="47.18" y="73.6">esas y el Estado pa</tspan>
                <tspan class="cls-45" x="151.86" y="73.6">r</tspan>
                <tspan x="155.77" y="73.6">a enf</tspan>
                <tspan class="cls-51" x="183" y="73.6">r</tspan>
                <tspan x="187.04" y="73.6">entar de </tspan>
                <tspan class="cls-46" x="234.62" y="73.6">v</tspan>
                <tspan x="240.49" y="73.6">e</tspan>
                <tspan class="cls-42" x="246.98" y="73.6">r</tspan>
                <tspan x="251.02" y="73.6">dad y con firmeza este </tspan>
                <tspan x="0" y="88.32">temible mal de nuest</tspan>
                <tspan class="cls-50" x="113.87" y="88.32">r</tspan>
                <tspan x="117.9" y="88.32">o tiempo.</tspan>
            </text>
            <text class="cls-41" transform="translate(111.55 312.26)">
                Jus
                <tspan class="cls-50" x="19.85" y="0">t</tspan>
                <tspan x="23.74" y="0">o es</tspan>
                <tspan class="cls-49" x="46.59" y="0">t</tspan>
                <tspan class="cls-44" x="50.48" y="0">o</tspan>
                <tspan x="57.39" y="0">y </tspan>
                <tspan class="cls-46" x="66.23" y="0">e</tspan>
                <tspan class="cls-44" x="72.65" y="0">v</tspan>
                <tspan x="78.5" y="0">aluando los p</tspan>
                <tspan class="cls-50" x="151.51" y="0">r</tspan>
                <tspan class="cls-44" x="155.54" y="0">o</tspan>
                <tspan class="cls-58" x="162.45" y="0">y</tspan>
                <tspan x="168.17" y="0">ec</tspan>
                <tspan class="cls-50" x="181.09" y="0">t</tspan>
                <tspan x="184.98" y="0">os del año… ¡Contame!</tspan>
            </text>
            <path class="cls-38" d="M110.88,481.88H428.36s22,23.45,65.38,23.45c-30.4-4.2-31-23.45-31-23.45h29.43a19.54,19.54,0,0,0,19.54-19.54v-2a19.54,19.54,0,0,0-19.54-19.54H110.88a19.54,19.54,0,0,0-19.54,19.54v2A19.54,19.54,0,0,0,110.88,481.88Z"/>
            <text class="cls-41" transform="translate(110.31 464.22)">¿Me facilitarías algún apunte?</text>
        </g>
    </g>
</svg>