<svg id="Layer_1" data-name="Layer 1" xmlns="http://www.w3.org/2000/svg" viewBox="0 0 218.75 285.97"><defs><style>.cls-1{fill:#3f2e20;opacity:0.3;isolation:isolate;}.cls-2{fill:#4c4c54;}.cls-10,.cls-3,.cls-4{fill:none;stroke-linecap:round;}.cls-3,.cls-4{stroke:#cecfd1;}.cls-10,.cls-3,.cls-4,.cls-7{stroke-miterlimit:10;}.cls-3{stroke-width:0.58px;}.cls-4,.cls-7{stroke-width:0.44px;}.cls-5{fill:#717173;}.cls-6{fill:#0d0c11;}.cls-7{fill:#44656b;stroke:#666;}.cls-8{fill:#3e5b61;}.cls-9{fill:#202121;}.cls-10{stroke:#333;stroke-width:1.31px;}.cls-11{fill:#333;}.cls-12{fill:#2b2b2b;}.cls-13{fill:#00193b;}.cls-14{fill:#001d45;}.cls-15{fill:#00142e;}</style></defs><title>pantallas_02-exp</title><g id="cel"><path class="cls-1" d="M212,222.67l-72.8-152.1,1.1-.5L132.07,53l-1.1.5-16.4-34.2a17.08,17.08,0,0,0-22.8-8l-81,38.8a17.08,17.08,0,0,0-8,22.8l6.5,13.5-1.2.6,4.7,9.7,1.2-.6,5.4,11.3-1.2.6,8.2,17.1,1.2-.6,2.1,4.4-1.2.6,8.2,17.1,1.2-.6,62.3,130.3a17.08,17.08,0,0,0,22.8,8l81-38.8A17.05,17.05,0,0,0,212,222.67Z"/><polygon class="cls-2" points="136.07 60.57 139.27 58.87 130.47 42.07 126.77 43.97 136.07 60.57"/><line class="cls-3" x1="138.27" y1="58.07" x2="130.57" y2="43.57"/><polygon class="cls-2" points="11.07 79.07 7.87 80.77 12.87 90.37 16.47 88.47 11.07 79.07"/><line class="cls-4" x1="8.57" y1="81.17" x2="12.97" y2="89.47"/><polygon class="cls-2" points="21.97 99.77 18.67 101.47 27.57 118.27 31.17 116.27 21.97 99.77"/><line class="cls-3" x1="19.67" y1="102.17" x2="27.37" y2="116.77"/><polygon class="cls-2" points="33.07 120.87 29.87 122.57 38.67 139.37 42.37 137.47 33.07 120.87"/><line class="cls-3" x1="30.87" y1="123.37" x2="38.57" y2="137.97"/><path class="cls-5" d="M209.67,231.77l-79.5,41.8a17.07,17.07,0,0,1-23.1-7.2L2,67a17.07,17.07,0,0,1,7.2-23.1L88.57,2a17.07,17.07,0,0,1,23.1,7.2l105.1,199.5A17.14,17.14,0,0,1,209.67,231.77Z"/><path class="cls-6" d="M208.87,231.17l-78.5,41.3a16.91,16.91,0,0,1-22.9-7.1L3.17,67.27a16.91,16.91,0,0,1,7.1-22.9l78.5-41.3a16.91,16.91,0,0,1,22.9,7.1l104.4,198.1A17.06,17.06,0,0,1,208.87,231.17Z"/><rect class="cls-7" x="55.8" y="40.19" width="107.3" height="197.3" transform="translate(-52.11 67.03) rotate(-27.79)"/><polygon class="cls-8" points="203.17 200.57 108.47 251.07 15.67 76.97 203.17 200.57"/><path class="cls-9" d="M8.27,50.17s-6.1,3.9-5.2,11.3c1,7.6,40.4,76.7,40.4,76.7s-37.6-69.3-38.6-78.5C4.37,55,8.27,50.17,8.27,50.17Z"/><path class="cls-9" d="M95.37,4.17s4.4-1.4,9.1,2.4,9.8,12.9,9.8,12.9l25.6,48.6s-28.5-51.9-32.4-56.3S100.07,4.77,95.37,4.17Z"/><line class="cls-10" x1="47.97" y1="41.27" x2="64.17" y2="32.77"/><circle class="cls-11" cx="38.49" cy="46.29" r="2.3" transform="translate(-17.14 23.28) rotate(-27.79)"/><circle class="cls-12" cx="38.46" cy="46.37" r="1.8" transform="translate(-17.18 23.28) rotate(-27.79)"/><circle class="cls-13" cx="38.49" cy="46.2" r="1.5" transform="translate(-17.1 23.27) rotate(-27.79)"/><circle class="cls-14" cx="38.49" cy="46.29" r="1.5" transform="translate(-17.14 23.28) rotate(-27.79)"/><path class="cls-15" d="M37.67,45.27a1.07,1.07,0,0,1,1.5-.2C39.27,45.17,39.17,45.67,37.67,45.27Z"/><circle class="cls-2" cx="161.89" cy="238.4" r="10.1" transform="translate(-92.47 102.97) rotate(-27.79)"/><path d="M168.67,231.87c4.2,4.8,3.5,11-1,14.6-4,3.2-10.6,3.6-13.5-2.5-1.8-3.7-4.1-11.7,1.7-14.8C157.87,228.17,164.47,227.07,168.67,231.87Z"/></g></svg>