<svg xmlns="http://www.w3.org/2000/svg" viewBox="0 0 218.6 184.74"><defs><style>.cls-1,.cls-5{fill:#333;}.cls-1{opacity:0.6;}.cls-2{fill:#fbca7e;}.cls-3{fill:#fff;}.cls-4{fill:#e6e6e6;}</style></defs><title>pantallas_04</title><g id="lapices"><path class="cls-1" d="M216,181.87a6.71,6.71,0,0,0,1.45-7.26L60.29,96.46l-15.39-5.4a2.3,2.3,0,0,0-.15-.22l-10-3.45,7.79,6.41h0L57.24,106l0,.12,154.3,78.63,1.1-.7.13.06a10,10,0,0,0,3.25-2.22h0Z"/><polygon class="cls-2" points="36.38 85.78 58.53 104.4 61.63 99.48 61.63 94.88 36.38 85.78"/><path class="cls-3" d="M58.53,104.5l154.84,79.35s7.05-2.63,4.78-9.45L61.63,94.88A3.05,3.05,0,0,0,61,96.83a7.74,7.74,0,0,0,.63,2.65Z"/><path class="cls-4" d="M58.53,104.5a4.89,4.89,0,0,1,.37-3.38,4.35,4.35,0,0,1,2.73-1.65l155,82.18-4.5,2.82Z"/><path class="cls-5" d="M46.38,91.48a2.15,2.15,0,0,0-.24-2.35l-10-3.54,7.73,6.48S45.68,92.69,46.38,91.48Z"/><path class="cls-1" d="M2.63,2.52c-1,1.19-3,3.38-2.57,6.92L138,118.36l14,8.48a1,1,0,0,0,.15.26l9.45,5.46-6-7.88h0l-12.23-15c0-.08-.16-.12-.16-.12L8.37.86l-1.26.46L7,1.11A13.69,13.69,0,0,0,3.33,2.48H2.63Z"/><polygon class="cls-2" points="161.33 132.79 143.49 110 139.44 114.18 138.49 118.68 161.33 132.79"/><path class="cls-3" d="M143.51,109.9,8.34.36S.9,1.48,1.72,8.62L138.49,118.68a3.05,3.05,0,0,0,1-1.77,7.75,7.75,0,0,0-.07-2.73Z"/><path class="cls-4" d="M143.51,109.9a4.89,4.89,0,0,1-1.06,3.23,4.35,4.35,0,0,1-3,1.05L4.69,1.83,9.68,0Z"/><path class="cls-5" d="M152.71,125.15a2.15,2.15,0,0,0-.25,2.35l9.06,5.53-6.23-7.94S153.66,124.12,152.71,125.15Z"/></g></svg>