<svg id="Layer_1" data-name="Layer 1" xmlns="http://www.w3.org/2000/svg" viewBox="0 0 234.14 238.68"><defs><style>.cls-1{fill:#3f2e20;opacity:0.3;}.cls-1,.cls-10,.cls-11,.cls-5{isolation:isolate;}.cls-2{fill:#cac9c7;}.cls-3{fill:#aaa;}.cls-4{fill:#919191;}.cls-5{fill:#211811;opacity:0.37;}.cls-6{fill:#c2c2c2;}.cls-7{fill:#c9c9c9;}.cls-8{fill:#ccc;}.cls-9{fill:#dbdbdb;}.cls-10{fill:#333;opacity:0.24;}.cls-11{opacity:0.1;}.cls-12{fill:#cfd0ca;}.cls-13{fill:#756459;}.cls-14{fill:#c1bdbe;}.cls-15{fill:#633b00;}.cls-16{fill:#260e0b;}.cls-17{fill:#210c0a;}.cls-18{fill:#452802;}</style></defs><title>pantallas_02-exp</title><g id="cafe"><path class="cls-1" d="M230.77,123.23c12.7,50-11.2,100.7-61.3,113.4s-128-35.8-140.7-85.8a93.44,93.44,0,0,1,67.6-113.6C146.47,24.43,218.07,73.23,230.77,123.23Z"/><circle class="cls-2" cx="100.76" cy="113.43" r="93.5" transform="translate(-24.82 28.3) rotate(-14.25)"/><path class="cls-3" d="M157.07,146.93s28.1,16.4,32.3,15.3,5.6-3.2,6.6-5l-34.6-20.4Z"/><path class="cls-4" d="M160,146.73s26,14.6,28.3,11.6l-26.6-15.5Z"/><path class="cls-5" d="M99.27,26.73a3.55,3.55,0,0,0,.2-1c.1-.5.2-.9.3-1.4s.1-.7.2-1.1a5.16,5.16,0,0,0,.2-1.1,4.87,4.87,0,0,0,.1-1.2c0-.3.1-.7.1-1s.1-.9.1-1.3v-2.8c0-.5-.1-1-.1-1.5v-.4c-.1-.5-.1-1-.2-1.5v-.3a8.32,8.32,0,0,0-.4-1.5v-.1a8.8,8.8,0,0,0-.5-1.5v-.1a11,11,0,0,0-3.9-5.3h0a.1.1,0,0,1-.1-.1,11.82,11.82,0,0,0-2.8-1.2c-.4-.1-.8-.2-1.3-.3a6.15,6.15,0,0,0-1.4-.1h-.7a11.48,11.48,0,0,0-3.1.4c-.8.2-1.6.4-2.5.7l-.9.3c-.9.4-1.8.8-2.7,1.3a37.23,37.23,0,0,0-6.8,4.8c-1.3,1.2-2.7,2.5-4.1,4a41,41,0,0,0-2.8,3.3,26.14,26.14,0,0,0-3.3,5.4,9.29,9.29,0,0,1-.5,1,24.48,24.48,0,0,0-2.2,9.6h0a17,17,0,0,0,.1,2.3c0,.3.1.7.1,1s.1.4.1.6a4.33,4.33,0,0,0,.1.5c.1.4.2.8.3,1.1a14.18,14.18,0,0,0,1.3,3c1.2,1.9-.4,6.8-2.7,11.9-.4.8-.7,1.6-1.1,2.4s-.8,1.6-1.2,2.3c-1,1.9-2,3.8-2.8,5.4a16.18,16.18,0,0,0-1,1.8c-1.3,2.2-2.1,3.6-2.1,3.6s-1.4,2.1-3.8,5.4c-.5.7-1.1,1.6-1.7,2.4-2.1,3-4.8,6.7-7.7,10.7-1.3,1.7-2.6,3.5-3.9,5.3L31.47,96c-3.2,4.2-6.5,8.5-9.7,12.4l-2.7,3.3-1.5,1.8a2.65,2.65,0,0,0-.5.6c-1.1,1.3-2.2,2.6-3.2,3.8-.1.2-.3.3-.4.5-.5.6-.9,1.2-1.4,1.7l-.1.1h0c-1.2,1.4-2.2,2.8-3.2,4-.1.1-.2.3-.3.4a38.89,38.89,0,0,0-3.3,5c-.1.1-.1.2-.2.3a17.08,17.08,0,0,0-1.2,2.3c0,.1-.1.2-.1.3s-.2.5-.3.7-.1.2-.1.3-.1.5-.2.7-.1.2-.1.3a11,11,0,0,0-.2,1.8v1.2c0,.2.1.4.1.6a.37.37,0,0,0,.1.3,6.53,6.53,0,0,0,.8,1.7c0,.1.1.1.1.2a11.44,11.44,0,0,0,1.5,1.7c.1.1.2.1.2.2a8.75,8.75,0,0,0,1,.8l.1.1h0l.1.1a.1.1,0,0,1,.1.1h0c9.4,5.6,14-4.8,23-24.5.9-1.9,1.8-3.8,2.7-5.8,9.3-19.1,22.3-41.8,22.3-41.8s1.9-2.9,4.6-6.6c.3-.5.7-.9,1-1.4.5-.7,1.1-1.5,1.7-2.2a18.26,18.26,0,0,1,1.3-1.6c.3-.4.7-.8,1-1.2a7,7,0,0,0,.8-1c.3-.4.6-.7.9-1.1,3.3-3.8,6.6-6.7,8.7-6.4a14.3,14.3,0,0,0,6.2-.8c.1,0,.3-.1.4-.1.4-.1.7-.3,1.1-.4l.6-.3c.6-.3,1.3-.6,2-1,.5-.3,1-.6,1.6-1,.3-.2.5-.4.8-.6a25.36,25.36,0,0,0,3.4-3.2,29.61,29.61,0,0,0,2.1-2.6c.3-.4.6-.9,1-1.4a40.61,40.61,0,0,0,3.4-6.6c.3-.8.6-1.7.9-2.5a6.38,6.38,0,0,1,.2-.7A6,6,0,0,0,99.27,26.73Z"/><path class="cls-6" d="M4.07,141.23c9.5,5.7,14.1-4.7,23.1-24.5,9.1-20,25-47.6,25-47.6s14.6-22.2,20.1-21.6,16.4-2.9,22.4-18c5.3-13.4,3-24.6-2.3-27.9s-15.2-2.1-26.2,9.9-9.7,23.3-6.7,28-10.9,27.4-10.9,27.4-18.1,26.1-32.2,43C2.47,126.43-4.93,135,4,141.13,4,141.23,4,141.13,4.07,141.23Z"/><path class="cls-6" d="M89.87,2.13s14.3,6.8,1.4,31.1c-10.3,19.4-28.5,10.2-28.5,10.2S69.17,8.53,89.87,2.13Z"/><path class="cls-7" d="M66.07,11.53c-11.1,11.9-9.7,23.3-6.7,28s-10.9,27.4-10.9,27.4-18.1,26.1-32.2,43C2.37,126.43-5,135,3.87,141.13c.2.1.1.1.2.1a.1.1,0,0,1,.1.1L92.47,1.83a.1.1,0,0,1-.1-.1C87.07-1.67,77.17-.37,66.07,11.53Z"/><path class="cls-8" d="M48,71.33s-21.7,33.5-29.6,41.6-21.9,20.3-12.7,26.1Z"/><path class="cls-8" d="M91.57,3.23s-13-6-25.7,11c-11,14.6-.8,30.7-.8,30.7S96.57,37,91.57,3.23Z"/><path class="cls-9" d="M91.87,14.23s2,20-25.4,30.6C66.47,44.83,97.37,44.23,91.87,14.23Z"/><path class="cls-10" d="M27.17,116.73c9.1-20,25-47.6,25-47.6s14.6-22.2,20.1-21.6,16.4-2.9,22.4-18c5.3-13.3,3-24.4-2.2-27.8h0a.1.1,0,0,1-.1-.1c-5.3-3.4-15.2-2.1-26.2,9.9s-9.7,23.3-6.7,28-10.9,27.4-10.9,27.4-18.1,26.1-32.2,43c-2.6,3.1-5,5.9-7.1,8.5-.7.9-1.4,1.7-2,2.5-.9,1.2-1.8,2.4-2.6,3.5-.5.7-1,1.4-1.4,2.1a30.86,30.86,0,0,0-1.7,2.9c-1.6,3.1-2,5.7-1,8a7.57,7.57,0,0,0,1.3,2,9.44,9.44,0,0,0,2.1,1.8c.2.1.1.1.2.1a.1.1,0,0,1,.1.1h0C13.57,146.83,18.17,136.53,27.17,116.73Z"/><path class="cls-11" d="M100.67,49.13l86.9,29.4s17.9,36.8-4.8,79.4c-18.7,35-44.3,41.4-44.3,41.4l-89.5-45Z"/><circle class="cls-12" cx="104.46" cy="113.72" r="66.7" transform="translate(-24.78 29.22) rotate(-14.25)"/><circle class="cls-13" cx="99.54" cy="111.14" r="66.7" transform="translate(-24.3 27.93) rotate(-14.25)"/><circle class="cls-14" cx="100.36" cy="111.83" r="66.7" transform="translate(-24.44 28.15) rotate(-14.25)"/><circle class="cls-15" cx="98.56" cy="111.44" r="55.9" transform="translate(-24.4 27.69) rotate(-14.25)"/><circle class="cls-16" cx="100.36" cy="111.82" r="55.9" transform="translate(-24.44 28.15) rotate(-14.25)"/><path class="cls-17" d="M52.67,144.43S63,89,150.57,87.23c0,0-23-51.1-80.8-22.6C22.17,88,52.67,144.43,52.67,144.43Z"/><path class="cls-12" d="M160.27,143.73l6.6-17.2,24.8,14.3s8.4,3.5,9,9.6c0,0-3.7,11.2-7.6,10.9s-5.6-2-17.2-8.4C164.07,146.33,160.27,143.73,160.27,143.73Z"/><path class="cls-18" d="M60.67,71.43s.6,6.9-1.4,9.6-6.8,8.7-2.8,11.4,9.5,12.5,8,16.3,6.5,5.1,6.2,6.7,10.1,5.6,10.4,9.6,8.4,10.3,8.8,22.2,10,7.9,14.7,10.3,10,7.5,16.8,4.7c0,0-11.4,12.9-45.2.8s-33.7-51.7-33.7-51.7S41.07,90.13,60.67,71.43Z"/><path class="cls-16" d="M83.47,167.33c.1-.4.4-.5.9-.4C84.67,167.63,84,167.33,83.47,167.33Z"/><path class="cls-16" d="M83.67,165.33c.1-.9.7-1.2,1.4-.8C85.07,165.43,84.17,165.13,83.67,165.33Z"/><path class="cls-16" d="M87.37,164.93c-.7.3-.6-1,0-.7Z"/><path class="cls-16" d="M78.47,164.13c-.1.4-.3-.2-.2-.5S78.57,163.83,78.47,164.13Z"/><path class="cls-16" d="M89,164.43c-.8.2-.6-1.7.3-1.1C89.37,163.83,88.87,163.73,89,164.43Z"/><path class="cls-16" d="M83.57,162.93c.3-.4.3-1,1.2-.8C84.47,162.43,84.27,162.93,83.57,162.93Z"/><path class="cls-16" d="M93.87,162.93a.69.69,0,0,1-.6-1.2C93.67,162,94.07,162.23,93.87,162.93Z"/><path class="cls-16" d="M106,162.93c.4.4.8-.1,1.6.1C107.87,163,105.67,164.23,106,162.93Z"/><path class="cls-16" d="M102.77,162.93c.1-.3.3-.4.7-.4C103.57,163,103.17,162.93,102.77,162.93Z"/><path class="cls-16" d="M143.37,141.13c-.3.1-.7,0-1,.1-.2-.4.8-.6.4-1C143.47,140,143.07,140.93,143.37,141.13Z"/><path class="cls-16" d="M145.57,139.13c.3.4-.7.5-.9.8C144.47,139.43,145.37,139.33,145.57,139.13Z"/><path class="cls-16" d="M81.17,158.43c-.7.1-.6-.4-1.1-.3C80.07,157.83,81.57,157.83,81.17,158.43Z"/><path class="cls-16" d="M104,159.43c-1.1-.2.3-1.3,0,0Z"/><path class="cls-16" d="M101.87,159.33h-.7c.2-.3.4-.7,1-.6A.85.85,0,0,0,101.87,159.33Z"/><path class="cls-16" d="M102.87,158.23c-.2-.7.5-.4.9-.4C103.67,158.13,103.37,158.23,102.87,158.23Z"/><path class="cls-16" d="M81.37,156.23c-.1.6-.8,0-.9-.1C80.67,155.53,80.87,156.43,81.37,156.23Z"/><path class="cls-16" d="M95.87,156.83h-.7c0-.4.3-.5.3-.9C96,156,96,156.33,95.87,156.83Z"/><path class="cls-16" d="M82.77,155.43c-.5-.1-.5-.6-.2-.9A.48.48,0,0,1,82.77,155.43Z"/><path class="cls-16" d="M103.07,156.43V156C104.17,155.93,103.37,157.23,103.07,156.43Z"/><path class="cls-16" d="M85.07,155.13c0,.5-.8,0-1.2.1C83.87,154.83,84.77,155.23,85.07,155.13Z"/><path class="cls-16" d="M109.17,156.93c.5-.7,1.4.3,0,0Z"/><path class="cls-16" d="M81.17,154.93c-.2-.3-.9-.3-.9-1C80.87,154,81.47,154.13,81.17,154.93Z"/><path class="cls-16" d="M105.57,156c-.9.3,1.5-.6,0,0Z"/><path class="cls-16" d="M94,155.13c0,.5-.8,0-1.1.1C92.87,154.83,93.67,155.23,94,155.13Z"/><path class="cls-16" d="M94,154.73c.1-.3.3-.4.7-.4A.72.72,0,0,1,94,154.73Z"/><path class="cls-16" d="M106.27,152.43c.1-.5,1-.1,1.1.1C107.17,153.33,106.77,152.63,106.27,152.43Z"/><path class="cls-16" d="M106.87,150.83c-.2.1-.4-.3-.6-.2C106,150.13,106.87,150.33,106.87,150.83Z"/><path class="cls-16" d="M104.27,150c-.9,0,0-1.2.6-.8C105.27,149.63,103.77,149.63,104.27,150Z"/><path class="cls-16" d="M91.57,151.23c-.3.2-.6,0-.9.3a.94.94,0,0,1,.6-.8C91.27,150.83,91.47,151,91.57,151.23Z"/><path class="cls-16" d="M84,155.43c.1-.9,1.2,0,0,0Z"/><path class="cls-16" d="M71.17,161.13c-.5-.5.3-.7.1-1.1C71.87,159.83,71.67,160.93,71.17,161.13Z"/><path class="cls-16" d="M93.67,147.73l-.6.3c-.1-.3.2-.5.1-.8C93.37,147.13,93.47,147.53,93.67,147.73Z"/><path class="cls-16" d="M78.57,155.73c-.2.1-.3-.3-.6-.2C77.87,154.93,79,155.23,78.57,155.73Z"/><path class="cls-16" d="M77.87,155.83c-.2,0-.7,0-.6.3C76.27,156.23,77.57,154.73,77.87,155.83Z"/><path class="cls-16" d="M84.67,151.13c-.3-.5.5-.9.9-.8C85.47,151,85.17,150.93,84.67,151.13Z"/><path class="cls-16" d="M99.37,141.23c-.8.1-.3-.9-.8-1.3C99.87,139.33,99.17,140.63,99.37,141.23Z"/><path class="cls-16" d="M83.67,148.13c-.8.5-1.4.4-2.3,1.1l-.1-.3-.3.1a.52.52,0,0,1-.7-.3c.8-.5,2-.7,3-1.7.8-.2.3.6,1.1.9l-.4.1Z"/><path class="cls-16" d="M96.17,141.63c-.6.3-1,.2-1.3-.5C95.27,141.23,95.87,140.83,96.17,141.63Z"/><path class="cls-16" d="M73.87,153c-.2,1.1-1-.2,0,0Z"/><path class="cls-16" d="M85.07,146.53a2.19,2.19,0,0,0-1.6-.1c-.3-.4.7-.5.9-.8C84.67,146,85.27,145.93,85.07,146.53Z"/><path class="cls-16" d="M82.57,146.73c.1-.9,1.2.2,0,0Z"/><path class="cls-16" d="M68.57,154.33c-.7.2-.1-.7-.2-.9C69,153.33,68.57,154.13,68.57,154.33Z"/><path class="cls-16" d="M91.27,139.53c-.3-.5,0-.8-.2-1.2.7-.3.3.5.7.3A.76.76,0,0,1,91.27,139.53Z"/><path class="cls-16" d="M87.87,140c1,.1-.7,1,0,0Z"/><path class="cls-16" d="M63,154.73c-.4-.6.1-.9.6-1.2A.89.89,0,0,1,63,154.73Z"/><path class="cls-16" d="M79,145.13c-.7-.8.2-1.2.9-1.6C79.47,144,79.57,144.73,79,145.13Z"/><path class="cls-16" d="M77.47,146c-.6.3-1.2-.8-.4-1.1C77.67,145.13,77.27,145.63,77.47,146Z"/><path class="cls-16" d="M88.37,139.43c-.5.2-.4-.7.1-.8C88.47,138.93,88.27,139.13,88.37,139.43Z"/><path class="cls-16" d="M83,142c-.2-.3,1.2-1.3,1.3-.5C83.87,142.13,83.67,142,83,142Z"/><path class="cls-16" d="M73.17,147.33a.62.62,0,0,1,.4-.7A.87.87,0,0,1,73.17,147.33Z"/><path class="cls-16" d="M64,152.33c-.3.2-.4,0-.7.2-.4-.2.2-1-.4-.8C62.87,150.83,63.67,152.23,64,152.33Z"/><path class="cls-16" d="M80.07,141.93c-.1-.3,0-.5.4-.7C80.77,141.63,80.37,141.73,80.07,141.93Z"/><path class="cls-16" d="M74.47,144.63c.3.4-.6.5-.9.8C73.37,144.93,74.07,144.53,74.47,144.63Z"/><path class="cls-16" d="M65.47,149.43c.3-.4-.4-1.1.2-1.4C66,148.63,66.27,149.13,65.47,149.43Z"/><path class="cls-16" d="M90.77,134.13c.3.3-.7.8-.7.1a.76.76,0,0,1,.4-.2C90.57,134.23,90.67,134.23,90.77,134.13Z"/><path class="cls-16" d="M74.87,142.13a1,1,0,0,1,.4-1.5A1.13,1.13,0,0,1,74.87,142.13Z"/><path class="cls-16" d="M98.17,127.83l-.6.3c-.1-.1-.1-.3-.2-.4l.6-.3C98,127.53,98.07,127.63,98.17,127.83Z"/><path class="cls-16" d="M94,129.23c.3-1.1,1.3-.1,0,0Z"/><path class="cls-16" d="M74.77,140.63c.1-.5-.5-1.2.4-1.5A1.13,1.13,0,0,1,74.77,140.63Z"/><path class="cls-16" d="M65.77,145.93c-.5.4-1.1.6-1.3,0C64.87,145.43,65.37,145,65.77,145.93Z"/><path class="cls-16" d="M67.37,144.23c-.1-.3.2-.5.1-.8.4.1.7.3,1.2-.2C68.87,144,68,143.63,67.37,144.23Z"/><path class="cls-16" d="M91,130.43c-1-.1.8-1.1,0,0Z"/><path class="cls-16" d="M104.67,122.23c.1-.9,1.4-.5,0,0Z"/><path class="cls-16" d="M102.07,123.73c-.3.2-1.1-1-.4-1.1C102.17,123,101.77,123.33,102.07,123.73Z"/><path class="cls-16" d="M66.77,143.53c-1,.4-.6-1.2,0,0Z"/><path class="cls-16" d="M59.27,147.93c-1-.1.7-1.1,0,0Z"/><path class="cls-16" d="M78.07,136.43c-.4,1.2-1-.1,0,0Z"/><path class="cls-16" d="M100.27,122.43c.5-.5.7,0,1.1-.4C101.67,122.53,100.57,123,100.27,122.43Z"/><path class="cls-16" d="M74.77,137.83c-.1-.7.4-1.1,1.1-.9C76.07,137.53,75.17,137.93,74.77,137.83Z"/><path class="cls-16" d="M99.17,123.33c.1.3-.4.5-.6.3C98.17,123.33,99.07,122.83,99.17,123.33Z"/><path class="cls-16" d="M68.17,140.63c-.2-.8.5-.3,1.1-.9C69.77,140.83,68.77,140.43,68.17,140.63Z"/><path class="cls-16" d="M86.17,130.33a.62.62,0,0,1,.4-.7A.51.51,0,0,1,86.17,130.33Z"/><path class="cls-16" d="M69.47,128.93c.2.6.1.6,0,1.3-.8.4-1.2-.4-1.7-1.1.4-.2.8-.5,1.2-.7l.1.4Z"/><path class="cls-16" d="M69.17,128.23l-.3.3a3,3,0,0,1-.4-.8,2,2,0,0,0,.7-.1l.1.4.4.1c.1.1,0,.2-.1.3Z"/><path class="cls-16" d="M70,127.43h-.4c-.3-.6,0-1.1.7-1.5-.3,1.1.6.6.5,1.8-.3.2-.4,0-.7.1Z"/><path class="cls-16" d="M85.27,130.13c-.4.3-.6.2-.9.3C84.17,130.13,85.27,129.43,85.27,130.13Z"/><path class="cls-16" d="M91.67,126.13a1.12,1.12,0,0,1,.8-1.3C92.87,125.43,92.07,125.73,91.67,126.13Z"/><path class="cls-16" d="M90.67,126.73a.32.32,0,1,1-.2-.4C90.57,126.53,90.57,126.63,90.67,126.73Z"/><path class="cls-16" d="M69.17,139a.76.76,0,0,1-.4.2c-.1-.1-.1-.3-.2-.4a.76.76,0,0,1,.4-.2A.52.52,0,0,0,69.17,139Z"/><path class="cls-16" d="M91,125.53c-1-.2.3-1,0,0Z"/><path class="cls-16" d="M84.17,129.23c-.1,1-1-.2,0,0Z"/><path class="cls-16" d="M91.57,124.63c-.5.8.9-1.3,0,0Z"/><path class="cls-16" d="M77.07,133.13a.76.76,0,0,1-.4.2c-.1-.1-.1-.3-.2-.4a.76.76,0,0,1,.4-.2A.52.52,0,0,0,77.07,133.13Z"/><path class="cls-16" d="M68.47,137.93c0,.1-.2.6-.5.5S68.47,137.43,68.47,137.93Z"/><path class="cls-16" d="M62.27,139.43c-.5-.7,1.4-.9,1.2-1.5.7-.2,0,.6.6,1-.5.3-.4.7-1.1.9l-.4-.2Z"/><path class="cls-16" d="M92.87,122.33a1.86,1.86,0,0,1,1.1-.4c.2.4-.3,1.4-1,1.1l.2-.4Z"/><path class="cls-16" d="M73.57,134.43c.3.4-.6.5-.9.8C72.37,134.73,73.27,134.73,73.57,134.43Z"/><path class="cls-16" d="M76.77,132.23c-.5.1-.6-.1-.5-.5a.76.76,0,0,1,.4-.2C76.87,131.83,76.67,132,76.77,132.23Z"/><path class="cls-16" d="M83.57,128c-.5.3-.9.4-1.1-.1C82.77,128.13,83.37,127.33,83.57,128Z"/><path class="cls-16" d="M81,128.23c.5.4-.2.6.1,1-.6.4-1.2-.9-1.2-1.1.4-.2.3-.6.6-.3l.1.4Z"/><path class="cls-16" d="M72.37,134.33c-.7.1-1.4.4-1.9-.5C71.17,134,72,133.63,72.37,134.33Z"/><path class="cls-16" d="M66.07,137.43c0,.1-.2.6-.5.5S66.07,137,66.07,137.43Z"/><path class="cls-16" d="M80,129.13c-.3-.1-.8.4-.9-.2C79.37,129,79.77,128.53,80,129.13Z"/><path class="cls-16" d="M76.17,130.83c.2-1.1,1,.2,0,0Z"/><path class="cls-16" d="M67.47,124.73c.5.1.4.9,0,1.3C67.07,125.43,66.77,124.93,67.47,124.73Z"/><path class="cls-16" d="M76.17,129.53c.2-1.1,1,.2,0,0Z"/><path class="cls-16" d="M56.87,141c-.3.2-.5.3-.8.5-.1-.1-.1-.3-.2-.4.3-.2.5-.3.8-.5A.52.52,0,0,0,56.87,141Z"/><path class="cls-16" d="M91.57,120.53c-.5.3-.4-.6-.4-.8C91.77,119.53,91.17,120.33,91.57,120.53Z"/><path class="cls-16" d="M68.07,124.33a.76.76,0,0,1-.4.2c-.3-.4.1-.5.4-.7C68.07,124,68,124.13,68.07,124.33Z"/><path class="cls-16" d="M85.37,123.13c.1.2.2.3.4.3.1.5-1.1.7-1.5,1.1l-.1-.4-.4-.1c.1-.5.5-.8,1.2-1.2l.1.3Z"/><path class="cls-16" d="M88.87,120a1.86,1.86,0,0,1-1.1.4c-.3-.6.7-1.6,1.3-1l-.2.3Z"/><path class="cls-16" d="M81.07,125.63c-.7.3-.3-.5-.7-.4C80.27,124.53,81.37,125.23,81.07,125.63Z"/><path class="cls-16" d="M66.17,134a1.86,1.86,0,0,1-.4-1.1c.4,0,.8-.1,1,.4C66.77,133.63,66.57,133.83,66.17,134Z"/><path class="cls-16" d="M68.07,132.73c-.4-.5-.1-.8.4-1C68.47,132,68.57,132.43,68.07,132.73Z"/><path class="cls-16" d="M64.57,133.93c-.3.1-.5-.2-.8,0-.1-.1,0-.2.1-.3a.76.76,0,0,1,.4-.2C64.37,133.63,64.47,133.73,64.57,133.93Z"/><path class="cls-16" d="M72.17,129.33c-.6.2-1.4-.3-.4-.8C71.57,129.13,71.87,128.73,72.17,129.33Z"/><path class="cls-16" d="M74.47,126.93a.76.76,0,0,1,.2.4c-.2.1-.3.2-.3.4-.3.1-.4-.4-.7-.7C74.07,126.83,74.17,127,74.47,126.93Z"/><path class="cls-16" d="M65.07,123.23c-.9.4-.5-1.2,0,0Z"/><path class="cls-16" d="M66.17,132.23c-.5.1-.9.1-1.1-.6.4-.4.6.1,1.1-.4Z"/><path class="cls-16" d="M63.37,133.63c-.6.3-1.9-1.7-.9-2,.3.7.7.6,1.1.6C63.67,132.73,63.07,133.13,63.37,133.63Z"/><path class="cls-16" d="M67.17,131.13c-.1-.3,0-.5.4-.7A.75.75,0,0,1,67.17,131.13Z"/><path class="cls-16" d="M59.17,135c-.3.2-.4,0-.7.2C58.17,134.93,59.17,134.43,59.17,135Z"/><path class="cls-16" d="M61,123.83c.1.4-.3.2-.6.3a2,2,0,0,0-.1-.7C60.47,123.43,60.57,124,61,123.83Z"/><path class="cls-16" d="M71.17,127.53c-.2-.4.1-.6.6-.8A1.55,1.55,0,0,1,71.17,127.53Z"/><path class="cls-16" d="M79.07,121.33c.1-.4.7-1,1.1-.9C80.47,121.13,79.57,121.23,79.07,121.33Z"/><path class="cls-16" d="M80.47,120a.76.76,0,0,1-.4.2c-.3-.4.1-.5.4-.7C80.47,119.73,80.37,119.83,80.47,120Z"/><path class="cls-16" d="M53.57,135.43c.1.9-.6-.1-.4-.3C53.27,135.13,53.57,135.33,53.57,135.43Z"/><path class="cls-16" d="M80.67,119.43c.1-1.1,1,.2,0,0Z"/><path class="cls-16" d="M48.07,128.53a.76.76,0,0,1-.4.2c-.1-.1-.1-.3-.2-.4a.76.76,0,0,1,.4-.2C48,128.23,48,128.43,48.07,128.53Z"/><path class="cls-16" d="M56.27,133.33c-.3.2-.4,0-.7.2C55.37,133.13,56.37,132.73,56.27,133.33Z"/><path class="cls-16" d="M77.07,120.53c-.9,1.2-1.6-.9,0,0Z"/><path class="cls-16" d="M79,109.23c.5-1.2,1.1.1,0,0Z"/><path class="cls-16" d="M46.47,128.43c-.8.6-1-.2-1.5.6-.3-.6,0-1.1.7-1.5C45.87,128.13,46.27,127.83,46.47,128.43Z"/><path class="cls-16" d="M56.27,131.83c.2.7-.7.1-.9.3C55.17,131.43,56,132,56.27,131.83Z"/><path class="cls-16" d="M64.77,116.93c-.7.2-.2-.7-.6-1C65.17,115.83,64.47,116.43,64.77,116.93Z"/><path class="cls-16" d="M72.47,121.63c.1-.9,1.1.2,0,0Z"/><path class="cls-16" d="M74.17,110.93c-.5.3-.9-.5-.8-.8a1.61,1.61,0,0,0,.9-.3C74.57,110.23,74.07,110.53,74.17,110.93Z"/><path class="cls-16" d="M67.87,114.63c.1-.5.1-1,.5-1.3l.3.6C68.17,114,68.47,114.43,67.87,114.63Z"/><path class="cls-16" d="M46.07,127.33c-.5.1-.6-.1-.5-.5a.76.76,0,0,1,.4-.2C46.17,126.93,46,127.13,46.07,127.33Z"/><path class="cls-16" d="M53.57,132.63c-.5.1-.6-.1-.5-.5a.76.76,0,0,1,.4-.2A.59.59,0,0,0,53.57,132.63Z"/><path class="cls-16" d="M75.27,119.23c-.2.1-.4-.3-.5-.5.4.1.6-.1.5-.5.1-.1.2,0,.3.1s.1.3.2.4C75.47,118.83,75.17,119,75.27,119.23Z"/><path class="cls-16" d="M68,123.43c-.1.1-.2,0-.3-.1s-.1-.3-.2-.4c.6.1.3-.4.9-.3C68.47,123,67.77,123.13,68,123.43Z"/><path class="cls-16" d="M69.67,121.93c-.5.5-.8,0-1.3.5C67.77,121.53,69.37,121.13,69.67,121.93Z"/><path class="cls-16" d="M76.37,107.93c-.9.6,1.5-1.1,0,0Z"/><path class="cls-16" d="M75.07,108.93c-.1-.5.3-1.1.8-1C75.87,108.33,75.67,108.63,75.07,108.93Z"/><path class="cls-16" d="M50.27,133c-1.3.2,0-1,.8-1.3C51.67,132.33,50.17,132.43,50.27,133Z"/><path class="cls-16" d="M70.07,121.23c-.6,0-.3-1.1.3-1.2C70.57,120.43,70.07,120.73,70.07,121.23Z"/><path class="cls-16" d="M45,125.43c-.5.3-.8-.4-1.1-.9A1.86,1.86,0,0,1,45,125.43Z"/><path class="cls-16" d="M72.27,119.13c-.9-.1.8-1,0,0Z"/><path class="cls-16" d="M53.57,130c-.6.1-1.3.7-1.6-.1C52.47,130.13,53.27,129.33,53.57,130Z"/><path class="cls-16" d="M66.27,112.73c-.4.6-1.1-.5-.3-.6Z"/><path class="cls-16" d="M69.07,110.33c.1.7-.6.1-.9.3C68.07,109.93,68.87,110.53,69.07,110.33Z"/><path class="cls-16" d="M69.57,119.43c.4.7-.9,0-.5.5C68.17,120,69.17,119.13,69.57,119.43Z"/><path class="cls-16" d="M63,122.53c.3-.2.5-.3.8-.5C64.27,122.73,63.27,123.23,63,122.53Z"/><path class="cls-16" d="M76.57,105.43c.1-.5,0-1,.5-1.3C77.27,104.63,77,105,76.57,105.43Z"/><path class="cls-16" d="M50.27,120c-.3-.1-.8.4-.9-.2C49.77,119.33,50.07,119.43,50.27,120Z"/><path class="cls-16" d="M64.07,121.33c-.2.1-.4-.3-.6-.2a.94.94,0,0,1,.6-.8C64.47,120.83,63.87,120.93,64.07,121.33Z"/><path class="cls-16" d="M47.87,120.93c-.3-.6.6-.8,1.2-1.2C49.07,120.23,48.47,120.53,47.87,120.93Z"/><path class="cls-16" d="M45.87,122c-.3.2-.4,0-.7.2C44.87,121.83,45.87,121.43,45.87,122Z"/><path class="cls-16" d="M67.87,118.83c-.6.3-1.4,1.1-1.7.2C66.77,118.93,67.47,118.23,67.87,118.83Z"/><path class="cls-16" d="M74.57,113.13c-.3-.6.6-.8,1.2-1.2.2.4.5.3.6.7-.4.4-.8,1-1.4.8l-.1-.3Z"/><path class="cls-16" d="M67.07,108.13c-.2,1.1-1-.2,0,0Z"/><path class="cls-16" d="M50.27,117.43c-.4.3-.5-.1-.7-.3.2-.1.3.1.5,0S50.27,117.33,50.27,117.43Z"/><path class="cls-16" d="M60.17,121c.1.3-.4.4-.7.7C59.27,121.23,59.77,120.93,60.17,121Z"/><path class="cls-16" d="M71.07,114.73c-.8.1,0-.7-.1-1C71.77,113.63,71,114.43,71.07,114.73Z"/><path class="cls-16" d="M45.67,119.33c-.4.3-.6.2-.9.3C44.47,119.33,45.67,118.63,45.67,119.33Z"/><path class="cls-16" d="M47.37,128c-.1-.4.1-.6.6-.9A1.21,1.21,0,0,1,47.37,128Z"/><path class="cls-16" d="M49.37,126c.2-.4.2-.8.6-1.2A.72.72,0,0,1,49.37,126Z"/><path class="cls-16" d="M58.77,120.33c.3-1.1,1.3-.1,0,0Z"/><path class="cls-16" d="M51.77,124.63c-.3-.5.2-.8.6-1.2A1.22,1.22,0,0,1,51.77,124.63Z"/><path class="cls-16" d="M68.57,104.43c-.1-.3,0-.5.4-.7A.75.75,0,0,1,68.57,104.43Z"/><path class="cls-16" d="M62.17,107.93c.2.3-.9.9-.7.2C61.47,108.23,62.17,107.93,62.17,107.93Z"/><path class="cls-16" d="M66.77,103.93c-.6-.5.4-.6.8-1A1.19,1.19,0,0,1,66.77,103.93Z"/><path class="cls-16" d="M47.17,114.33c-1.2-.1.9-.6.1-1.1C48.37,113.23,47.17,114,47.17,114.33Z"/><path class="cls-16" d="M55.37,109.33c-.1-.5.8-1.3,1.2-1.2C56.57,108.63,56,109,55.37,109.33Z"/><path class="cls-16" d="M71,99.93l-.6.3c-.3-.5-.4-.9.1-1.1A9.23,9.23,0,0,1,71,99.93Z"/><path class="cls-16" d="M67.07,100.93c-.2,0-.5,0-.4.2C65.77,101.43,66.87,99.93,67.07,100.93Z"/><path class="cls-16" d="M76.17,104.53c-.5.2-.4-.7.1-.8C76.57,104,76,104.23,76.17,104.53Z"/><path class="cls-16" d="M69.57,98.43c-.2-.5,0-.8-.6-.7,0-.8.9,0,1.2-.2A1.15,1.15,0,0,1,69.57,98.43Z"/><path class="cls-16" d="M68.27,98.93l-.3-.6c.4-.2.9-.8,1-.1C68.57,98.43,68.67,98.73,68.27,98.93Z"/><path class="cls-16" d="M60.17,103.13c.1.3-.4.4-.7.6C59.37,103.53,59.87,103.33,60.17,103.13Z"/><path class="cls-16" d="M60.57,102.43c-.1-.3,0-.5.4-.7C61.27,102,60.87,102.23,60.57,102.43Z"/><path class="cls-16" d="M56.27,104.63c.2-.4-.2-.9.3-1.2C56.87,103.93,57.07,104.33,56.27,104.63Z"/><path class="cls-16" d="M60.87,99.93c-.4-.6.5-1.2,1-1.1C61.77,99.23,61.37,99.53,60.87,99.93Z"/><path class="cls-16" d="M53.37,103.73c-.5.4-1.1.7-1.3,0C52.57,103.43,53.17,102.83,53.37,103.73Z"/><path class="cls-16" d="M53.07,101.83c0-.5.9-.8,1.2-1.2C54.37,101.23,53.47,101.93,53.07,101.83Z"/><path class="cls-16" d="M51.17,103c-.2-.5.9-.6,1.3-1A1.3,1.3,0,0,1,51.17,103Z"/><path class="cls-16" d="M54.87,99c-.5-.6.2-.9.8-1.3C56.07,98.33,55.27,98.63,54.87,99Z"/><path class="cls-16" d="M53.57,94.13l-.6.3c.1-.5,0-1,.5-1.3C53.77,93.43,53.17,93.63,53.57,94.13Z"/><path class="cls-16" d="M49,92.93c.4-.1.9-.4,1.1.1C49.67,93.53,49.37,93.73,49,92.93Z"/><path class="cls-16" d="M51.57,91.63c.1-.8,1.4-.5,0,0Z"/><path class="cls-16" d="M48.47,100.33c-.2-.4.3-.7.8-1,.4.7.5,1.2-.4,1.5l-.1-.3Z"/><path class="cls-16" d="M73.67,88.13c-.1-.6.4-1.5,1-1.4A1.21,1.21,0,0,1,73.67,88.13Z"/><path class="cls-16" d="M64.87,92.83c-.4-.4.2-.5.1-.8C65.37,91.83,65.37,92.73,64.87,92.83Z"/><path class="cls-16" d="M84.67,80.73c-.3-.2-.9.6-1.1-.1C84.07,80.23,84.47,80.13,84.67,80.73Z"/><path class="cls-16" d="M66.87,89.53c-.2-.7.3-1.1.9-1.6.1.2-.1.3-.3.4.2.9.9.5,1.2,1.1-.5.6-.6.4-1.3.5l-.1-.4Z"/><path class="cls-16" d="M56.77,96.73c-.3.1-.7,0-1,.1a.94.94,0,0,1,.6-.8A2.14,2.14,0,0,1,56.77,96.73Z"/><path class="cls-16" d="M65,90.33c-.3.2-.4,0-.7.2-.1-.1-.1-.3-.2-.4.2-.1.3-.2.3-.4C64.67,89.63,64.77,90.13,65,90.33Z"/><path class="cls-16" d="M57.77,94.33c-.5-.1-1.4,1-1.7.2C57,94.43,57.17,93.43,57.77,94.33Z"/><path class="cls-16" d="M55.67,95.53c-.1-.3,0-.5.4-.7A.67.67,0,0,1,55.67,95.53Z"/><path class="cls-16" d="M87.27,76.63c-.3.3-.8-.7-.1-.7a.76.76,0,0,1,.2.4C87.17,76.33,87.27,76.53,87.27,76.63Z"/><path class="cls-16" d="M47.37,98.93c.1-.9,1.2,0,0,0Z"/><path class="cls-16" d="M60.77,91.83a.94.94,0,0,1,.6-.8C61.77,91.63,61.37,91.63,60.77,91.83Z"/><path class="cls-16" d="M71.47,85.63c-.1-.3,0-.5.4-.7A.87.87,0,0,1,71.47,85.63Z"/><path class="cls-16" d="M62.17,91c.1-.9,1.4-.6,0,0Z"/><path class="cls-16" d="M83.37,77.63a.76.76,0,0,1-.4.2c-.1-.1-.1-.3-.2-.4a.76.76,0,0,1,.4-.2C83.27,77.33,83.27,77.43,83.37,77.63Z"/><path class="cls-16" d="M93.57,70.13c-.5.5-.6-.2-.8-.5.7-.3.1-1,.9-.8C93.57,69.23,92.87,69.53,93.57,70.13Z"/><path class="cls-16" d="M96.37,67.73c-1.1-.3-.1-1.3,0,0Z"/><path class="cls-16" d="M75.27,79.53c-.5-.5.3-.7-.2-1.2.4,0,.8-.1,1,.4A1.25,1.25,0,0,1,75.27,79.53Z"/><path class="cls-16" d="M67.77,83.83a1.35,1.35,0,0,1,.6-1.7A1.63,1.63,0,0,1,67.77,83.83Z"/><path class="cls-16" d="M90.67,69.23c.2.3-1.2,1.3-1.3.5C89.87,69.23,90.07,69.73,90.67,69.23Z"/><path class="cls-16" d="M95.47,66.13c-.4.1-.2-.3-.3-.6C95.57,65.53,95.37,65.93,95.47,66.13Z"/><path class="cls-16" d="M71.87,79.13a.76.76,0,0,1-.4.2c-.1-.1-.1-.3-.2-.4a.76.76,0,0,1,.4-.2C71.77,78.83,71.77,79,71.87,79.13Z"/><path class="cls-16" d="M80.67,73.43c-.3.1-.5,0-.7-.4.2-.7.7-.3,1.1-.4C81.17,73,80.57,73.13,80.67,73.43Z"/><path class="cls-16" d="M68,80.63c-.4-.7.2-1.1.9-1.6A3.67,3.67,0,0,1,68,80.63Z"/><path class="cls-16" d="M79.07,73.93c.1-.9,1.4-.6,0,0Z"/><path class="cls-16" d="M79.77,70.93c-.1-.7,1.3-2,2-1.1a19.2,19.2,0,0,1-1.5,1.4l-.1-.3Z"/><path class="cls-16" d="M90.77,65c-.5,1.1-1.5.3,0,0Z"/><path class="cls-16" d="M88.67,66.23c-.2-.4.1-.6.6-.8C89.77,65.93,89,66,88.67,66.23Z"/><path class="cls-16" d="M77.27,70.83c-.9.4-.4-1.3,0,0Z"/><path class="cls-16" d="M76.57,71.23a.76.76,0,0,1-.4.2c-.3-.4.1-.5.4-.7C76.57,70.93,76.37,71,76.57,71.23Z"/><path class="cls-16" d="M77.07,69.13c.2-.9,1.3,0,0,0Z"/><path class="cls-16" d="M91.27,60.33c.3.3-.7.8-.7.2a.76.76,0,0,1,.4-.2C91,60.43,91.17,60.43,91.27,60.33Z"/><path class="cls-16" d="M88.77,62c-.6,0-1.6-.4-1.6-.9C88,60.73,88.47,61.23,88.77,62Z"/><path class="cls-16" d="M67.17,72.33c-.2.1-.4-.3-.6-.2C66.37,71.53,67.47,71.83,67.17,72.33Z"/><path class="cls-16" d="M70.37,70.23c-.4-.1-1,.4-1.4.3C68.87,69.93,70.17,69.63,70.37,70.23Z"/><path class="cls-16" d="M67.87,71.43c.6-1.3,1.4-.2,0,0Z"/><path class="cls-16" d="M71.17,67.93c-.2-.8.3-.3.9-.8A.77.77,0,0,1,71.17,67.93Z"/><path class="cls-16" d="M70.47,68.63c-.3.2-.6,0-.9.3.3-.4,0-1,.5-1.3A1,1,0,0,1,70.47,68.63Z"/><path class="cls-16" d="M94.67,165.23c-.1-.1-.8-.6-.9-.1-.4-.7,1.6-1.3.9-2.4,1,0,2.4-.4,2.9.4.1.5-.2.6-.3.9l-.2-.1-.2.1c-.5.1-.3-.4-.7-.5-.1.3-.1,1.5-.8,1.7,0,.2.3.2.4.2-.1.3-.4.2-.7.2l-.1-.3Z"/><path class="cls-16" d="M87.67,164c-.2-.4-.4-.9-.6-1.4C87.67,162.83,88.07,163.63,87.67,164Z"/><path class="cls-16" d="M82.47,156.53c.3-.7.5-.1,1.2-.4C84,156.23,82.57,157,82.47,156.53Z"/><path class="cls-16" d="M111.17,151c-.7.2,1.8-.6,0,0Z"/><path class="cls-16" d="M93.47,149.33c-.3.7-1.6-.3-.2,0C93.57,149,93.87,149.23,93.47,149.33Z"/><path class="cls-16" d="M77.07,159.43c0,.6-1.1.1-1.4-.2C76.27,158.63,76.47,159.73,77.07,159.43Z"/><path class="cls-16" d="M84.77,154.63c-.2.1-.3-.1-.5,0-.1-.1-.1-.3-.2-.4.2-.6.5-.1.7-.7C85.47,153.53,84.17,154.23,84.77,154.63Z"/><path class="cls-16" d="M72.27,158.13c.4.6-.5,1-.4,1.5-.5.2.1-.5-.4-.8l.2-.6.1-.6c.1,0,.1-.1.2-.1l.1.3Z"/><path class="cls-16" d="M71.17,158.13l.3.7a.76.76,0,0,1-.4.2l-.1-.3-.4.1c0-.1-.1-.1-.1-.2l-.1-.3-.3.1c.3-.8.9-1.5.1-2.6a.76.76,0,0,1-.4.2c-.2-.7.5-.1.8-.5l.2.4.4-.2c.1.1.1.3.2.4l-.2.6.3.6a.76.76,0,0,1,.2.4Z"/><path class="cls-16" d="M75.17,153.73l.3-.6a.76.76,0,0,1,.4-.2l.1.4h.4c.1.2-.2.3-.3.4.2.3.3.8.6.6,0,.3-.8.3-1.1.9l-.3-.6c-.2.2-.1.5-.4.7l-.1-.2-.2.1c-.2-.4.3-.7.1-1.1Z"/><path class="cls-16" d="M74.37,155.93l.2-.3a.66.66,0,0,0,.6.1,5.87,5.87,0,0,1-2.3,1.9l-.1-.4h-.4a.76.76,0,0,1-.2-.4v-.6l-.4-.5c-.1-.2.2-.3.3-.4l.1.4.4.1c.7,0,.9-.6,1.7-.2Z"/><path class="cls-16" d="M93.17,142.33c.5-.4.8.3,1.2.3l-.2.1.1.2c-.2.1-.1.2-.1.3l-.2.3.3.2c-.4.3-.6.2-.9.3-.4-.4.1-.6-.4-1.1l.4-.2Z"/><path class="cls-16" d="M66.17,158.83c-.5.3.1-.5-.5-.8C66.17,157.83,66.17,158.73,66.17,158.83Z"/><path class="cls-16" d="M69.27,156c-.8-.2-.3-1.2,0,0Z"/><path class="cls-16" d="M95.57,137.83c-.8.5-1.4.3-2.2.8-.2-.5-.5-.7-.8-.5a6.38,6.38,0,0,1,2.2-1.3c.2.7.8.1,1,.7l-.4.1Z"/><path class="cls-16" d="M72.37,150.83c-.3.1-.2-.1-.1-.2-.3-.2-.7.2-.8-.5.4.1,1-.3,1.2.3C72.37,150.53,72.27,150.73,72.37,150.83Z"/><path class="cls-16" d="M66.87,151.93c.4,0,.7.2,1,.7v.2l.2.1c-.7.1-1.3,1-1.9-.2l.3-.1-.3-.2.6-.3.2-.1Z"/><path class="cls-16" d="M70.87,144.73a1.62,1.62,0,0,0-.1-1.5c-.1-.3-1-.3-.7.2-.3.1-.1-.3-.3-.6.5-.2,1.1-.1.9-.8l-.1-.3-.1-.3c.1-.1.2,0,.3.1.6-1.2,1.2-.8,2.3-1.1,0,.8.4,1.8-.2,2.4.1.1.3.1.4.3l-.2.3.3.2c-.2.6-.3.8-1.1.9-.6.2.3.8-.4,1l-.1-.3-.3.1c0-.1-.1-.1-.1-.2l-.1-.4Z"/><path class="cls-16" d="M71.37,145.83l.4-.1c0,.1.1.1.1.2v.2l.2.1c-.8.3-1.7,1.1-2.2.3-.1,0-.1.1-.2.1l-.1-.3-.2.3c-.2,0-.5,0-.6-.2a.75.75,0,0,0,.4-.7l.3-.1-.1-.3c.7-.3.5-.9,1.1-.4l.2.1.2.1c-.2.1-.1.2-.1.3.2-.1.3.1.5,0Z"/><path class="cls-16" d="M69.77,148.63l.2-.3c.2.2.6-.1.9-.3-.1.7.2.2.5.5l-.2.3.3.2a.93.93,0,0,0-.3,1.2c-.8-.2-.5.6-1.1.9l-.1-.3-.3.1c-.2-.6-.6-.3-.8-.8l.2-.3-.3-.2c.8-.2.4-.8.6-1.2Z"/><path class="cls-16" d="M67.87,149.63l-.4-.3a1.37,1.37,0,0,0-.4-1.1c.8-.5,1.3-.2,1.4.5l-.4.1.3.2c.1.1,0,.2-.1.3Z"/><path class="cls-16" d="M64.47,153.13c.7.2.2-.8,1-.6C65.37,152.83,64.77,153.93,64.47,153.13Z"/><path class="cls-16" d="M90.77,137.73c-1.1.3-.8-.8,0,0Z"/><path class="cls-16" d="M87.37,136.43c-.5.8-.3,1.8-1.5,2.4l-.1-.3-.2.3c-.2-.1-.6.1-.7-.3a12.93,12.93,0,0,1,2.3-2.4v.3Z"/><path class="cls-16" d="M65.27,149.53c.1.2-.1.2-.2.1a.75.75,0,0,0-.4.7C63.77,150.43,64.67,149.23,65.27,149.53Z"/><path class="cls-16" d="M81.47,137.53c.4.2,1,.1,1.3.8l-.4.1.3.2c-.3.2-.5.3-.8.5-.5-.5-.2-.8-.5-1.3l.2-.1Z"/><path class="cls-16" d="M67.27,145.33c-.4.2-.4-.9.3-.9C67.77,144.83,67.07,144.93,67.27,145.33Z"/><path class="cls-16" d="M65.37,143c-.2.1-.2-.1-.1-.2a.6.6,0,0,0-.8,0c.1-.4.5-.9.9-.8C65.77,142.43,65.17,142.63,65.37,143Z"/><path class="cls-16" d="M81.57,131.53c-.5.1-.2-.9.5-1C82.47,130.93,81.47,131.13,81.57,131.53Z"/><path class="cls-16" d="M57.17,142.43c.4-.2.6-.4.4-.7.7.2,1.2.9,2.1,0-.1.5-.4.9-.2,1.4a3.31,3.31,0,0,1-1.9.3l-.1-.3-.3-.2c0-.1-.1-.1-.1-.2l.3-.1Z"/><path class="cls-16" d="M61.57,125.83c-.2.6.8.6,1.2,1.1.9-.4-.3-.4-.4-1.1A4.56,4.56,0,0,0,65,124l.2.4.3.4c-.5,1.3-2.5,1.4-2.2,2.6-.2.1-.4-.2-.5-.5-.8.4-.2.8.2,1.2-.4.3-.8.4-1,.1l-.1-.3-.2.3c-.6-.2-1.2-.6-1.9-.2a24.78,24.78,0,0,1-.3-2.7l.4-.1.2-.3a2.58,2.58,0,0,0,1.3.8l.1.2Z"/><path class="cls-16" d="M57.27,121.43l-.2.3c-.2.1-.3-.1-.5,0v-.3l-.2-.1c-.6-.4-.9.6-.8,1v.3l.2.1c.1.7,1.4.6,1.1,1.9.5-.3.2-.5.8-.5l.1.4.4-.1c.1.3-.4.5-.7.7a.88.88,0,0,0,1.1.1,2.57,2.57,0,0,1,.1,1.5l-.1-.2-.2.1c-.5.3-.8,0-1.3.5l-.1-.3-.4.1c-.2-.2-.2-.4,0-.5-.6-.6-.8.5-1.4.8-.4-.3-.7.2-.5-.5-.4.1-.2.4-.5.5l-.4.1.1.3c-1-.1,0-1.2-.2-1.7-.4-.3-1.1.7-.6,1.2a6,6,0,0,1-2.1-.8V126l-.2-.1a.76.76,0,0,1,.4-.2l.3.3-.1-.4c.6-.3,1.3-1,1.6-.4.2-.5,0-1.1.4-1.5l.4.2.3-.3c.5.4-.1,1.2.6.7-.5-.5.3-.7-.2-1.2l-.6.3-.4-.2-.3.3c-.3-.1-1.4.4-.8,1.3-.4.2-.4-.5-.6-.7s-.7.2-.7.1c-.2-.1,0-1.3-.8-.8.1-1.2,1.5-1.1,2.1-2.3a.75.75,0,0,1-.5-.8c-.9-.5-2.6-1.3-1.1-2.4.5.6,1,1.5,1.8,1.3l.3.2.2-.3c.1.5.5.2.8,0a4.46,4.46,0,0,0-.1,1.6.76.76,0,0,1,.4-.2l.1.3.4-.1c0,.1.1.1.1.2.4-.2.6-.4.4-.7l.5-.3-.5-.2c-.1-.1,0-.2.1-.3l.3.2.2-.3a1.08,1.08,0,0,0,.7-.2c-.2.8.6.9,1.1.9l-.2.3.3.2c-.4.4.4.2.1.7Zm-3.8.1a.76.76,0,0,1-.4.2c.1.1.1.3.2.4a.76.76,0,0,1,.4-.2A.52.52,0,0,0,53.47,121.53Z"/><path class="cls-16" d="M54,114.73c-.3.3-.5,0-.8,0,0,.4-.3,1,.4.8C53.47,115.13,54.17,115,54,114.73Z"/><path class="cls-16" d="M51.57,109l-.4.4c-.1-.2-.2-.1-.3-.1l-.1-.3-.3-.2c-.3-.4.4-.6.3-.9-.6-.1-1.5.7-2.1.5l-.1-.4h-.4c-.3-.4.7-.5.9-.8l.5.4-.1-.6c.6-.6,1.1-1.1.7-2,.4-.2.3-.6.6-.3l.1.3.3-.1c.1.2.3,0,.5,0-.1.5.2,1.2-.7,1.5.2.4.7-.1.8.5.4-.6.9-.4,1.6-.4l-.2.4.3.3c-.3.9-1,1-1.1,1.7.9-.4,1.2-.8,1.9.2l.1.2.2-.1c0,.4.1.8-.4,1l-.3-.5-.6.3c-.4-.2-.8-.5-1.4-.2Z"/><path class="cls-16" d="M48.77,110.93l-.3-.2c.3-.2.4,0,.7-.1.4.6-.3.8.3,1.4-.8,0-1.8.8-2.2-.2a1.85,1.85,0,0,0,1.2-.7Z"/><path class="cls-16" d="M47.17,107.63l-.2.4c-.8,0,0-1-.6-1.5.6.1.2-.2.8-.5a.82.82,0,0,1,.5.5l.1.3.3-.1c.2.4-.6.5-.6.8Z"/><path class="cls-16" d="M54.17,106.63l-.4-.5c.1-.2-.1-.6.4-.7l.1.3.4-.1c.3.4.7.1,1,.4l.2.1.2.1a6.71,6.71,0,0,0-.6,1.2l-.1-.2-.2.1-.6.3h-.3l-.1.2c-.2-.3,0-.5-.3-.9Z"/><path class="cls-16" d="M59.57,119.93l-.3-.2c.7-.5,1.6-.7,1.4.2l-.2.3.1.3a2.13,2.13,0,0,1-1.2-.3Z"/><path class="cls-16" d="M65.17,118l-.4.2a.82.82,0,0,1-.5-.5c.7.2.5-.4,1.2-.7l.1.3.4-.1a.82.82,0,0,1,.5.5c-.3.1-.2.4-.5.5l-.1-.2-.2.1c-.1,0-.1.1-.2.1Z"/><path class="cls-16" d="M56.07,122.83c-.1.1-.2,0-.3-.1l.2-.3-.3-.2c.1,0,.1-.1.2-.1l.2.3Z"/><path class="cls-16" d="M94.87,118.63c.5.8-.2.7-.7.7C94.27,118.83,94.57,119.13,94.87,118.63Z"/><path class="cls-16" d="M93.17,120.63c.2-.5.1-1,.8-1.3C94.17,119.93,93.57,120.23,93.17,120.63Z"/><path class="cls-16" d="M62.67,136.63c.2-.3-.1-.8.5-1C63,136,63.37,136.83,62.67,136.63Z"/><path class="cls-16" d="M68.67,129.73c-.9-.1.2-1,.5-1.3C69.77,128.43,68.57,129.33,68.67,129.73Z"/><path class="cls-16" d="M72.37,126c1.5.9-1,.1-.1-.2Z"/><path class="cls-16" d="M66.67,125.23c-.1-.2.3-.3.2-.6a4.72,4.72,0,0,0,1.7-.7c.5.5,0,.8.2,1.2l-.2.3.1.3c-.6-.2-1,0-1.2-.3l-.3-.2Z"/><path class="cls-16" d="M57.57,126.43c.4-.2.3-.5.7-.7l.4.2.3-.3c.2.5.6.2.8.8l-.2.3.1.3a1.51,1.51,0,0,1-1.6-.1l-.1-.4Z"/><path class="cls-16" d="M74.37,117.73c-.4-.1-1.2-.4-1.1-.9C73.67,116.73,74,117.43,74.37,117.73Z"/><path class="cls-16" d="M45,124.93c-.2-.4.8-.6.5-1C45.87,123.73,45.67,124.83,45,124.93Z"/><path class="cls-16" d="M74.87,104.93c-.7.2.2-.6.1-.8C75.87,103.93,74.67,104.63,74.87,104.93Z"/><path class="cls-16" d="M48.87,128.73a1.08,1.08,0,0,0-.7.2l-.3-.6c.3-.1.6-.3.5-.5C48.47,127.83,48.77,128.33,48.87,128.73Z"/><path class="cls-16" d="M63.07,119.63c-.6.2.1-.5-.1-.7C63.67,118.73,63,119.43,63.07,119.63Z"/><path class="cls-16" d="M70.47,103.63a.76.76,0,0,1,.2.4c-.4.2-.7-.3-1.1-.1C69.27,103.63,70.27,103.43,70.47,103.63Z"/><path class="cls-16" d="M67.67,102.93c.4-.1.7-.1.8-.5C69.27,102.13,67.87,103.93,67.67,102.93Z"/><path class="cls-16" d="M46.47,114.43c-1.1.3-.8-.7,0,0Z"/><path class="cls-16" d="M63.07,106.33c-.2-.3,0-.4-.1-.7l.2-.3-.3-.2c.9-.7,1.3-.2,1.4.5a1.8,1.8,0,0,0-.9.8l-.1-.2Z"/><path class="cls-16" d="M62.17,105.33l.2.1a2,2,0,0,0-.1.8c-.5-.3-1.3.2-1.7-.3l.3-.1-.1-.4c.4-.3.6-.9,1.1-.4Z"/><path class="cls-16" d="M59.87,105l.1.3a.76.76,0,0,1,.2.4c-.5.5-.7,0-1.1.4l-.1-.2-.2.1c-.1-.1,0-.2.1-.3-.2-.7-.8-.1-1-.7.8-.1.9-.4,1.6-.9a1.55,1.55,0,0,1,.8.8Z"/><path class="cls-16" d="M76.07,87.23c0,.7-.4-.4.3-.4C76.87,86.73,76.37,87.13,76.07,87.23Z"/><path class="cls-16" d="M62.17,94.63l.2.4c-.8.4-.5-1.4.2-.6C62.87,94.63,62.17,94.43,62.17,94.63Z"/><path class="cls-16" d="M50.77,98.93a.53.53,0,0,1-.1-1A3.75,3.75,0,0,1,50.77,98.93Z"/><path class="cls-16" d="M89.87,75.13c-.1-.3-.3-.6-.5-.5a4.48,4.48,0,0,1,1.6-1.4v.3l.2.1a1.93,1.93,0,0,1-.7,1.5l-.3-.2Z"/><path class="cls-16" d="M48.27,97.33c-.5-.3-1.1-.1-1.5-.7.1-.4.7-.7,1.3-1,.5.5,0,.8.5,1.3l-.3.1Z"/><path class="cls-16" d="M55.77,83.13c-.3.1-.3.2-.3.4-.6-.3-.1-1.4-1.2-1.6.2-.9.8,0,1.5-.6.2.5.4.4.7.7l-.2.3.3.2a.76.76,0,0,1-.4.2h-.4Z"/><path class="cls-16" d="M61,82.93h-.4c-.1-.3.4-.5.7-.7-.1.8,1.3-.2,1.6.9-.6.5-.9.1-1.5.6l-.1-.4-.4.1c0-.1-.1-.1-.1-.2Z"/><path class="cls-16" d="M60.07,84.73h.4c-.2.7.5,1.1,1.1.9a2.92,2.92,0,0,0-.2.9l-.2.1.1.2a2.08,2.08,0,0,1-1.5-.7l.3-.1-.3-.2a4.13,4.13,0,0,1-.4-2.1c.4-.2.6.1.8.5Z"/><path class="cls-16" d="M62.07,86.53l-.3.1c0-.4-.1-.8.4-1l.3.6c1-.4,1.2-1,2.1-1.5.2.3,0,.5.3.9l-.4.1.3.2c-.7.2-.1.8-.8,1-.4-.6-1.4.9-1.8,0Z"/><path class="cls-16" d="M65,85.73l-.1-.2c.1-.1.2,0,.3.1l-.2.1.1.2c-.1.1-.2,0-.3-.1Z"/><path class="cls-16" d="M65.77,85.63l-.4.1c0-.6.2-.6-.4-1.1.5-.2.2-.6.9-.8.2.4.5.8.7,1.2.5.4.1-.8.8-.5.3.3.2.6.3.9l-.4.1-.1.4a.76.76,0,0,1-.4.2l-.4-.4-.4.4c-.1-.1-.3-.1-.4-.3Z"/><path class="cls-16" d="M78.87,78.43c.9-.2-1.8,1.1-.5,0C78.67,78.23,78.67,78.43,78.87,78.43Z"/><path class="cls-16" d="M65.17,82.53c.6.7-.6,1-.9,1.6-.2-.5-.7-.4-1-.4.4-.8,0-1.2-.7-1.7C63.47,81.93,64.07,83.23,65.17,82.53Z"/><path class="cls-16" d="M90.57,63.33c2.1-.8-.8.5,0,0Z"/><path class="cls-16" d="M61.67,79.13c.3.4-.6.5-.9.8-.3,0-.5-.7-.8-.5-.2-.4.8-.2,1.2-.7l.1.4Z"/><path class="cls-16" d="M58.47,78.23c-.7.3.4-.9-.3-.6-.2-.4.8-.6,1.1-.9C59.57,77.53,58.37,77.93,58.47,78.23Z"/><path class="cls-16" d="M65.07,110.63c0,.1.1.1.1.2.5-.7,1.4-.4,1.7-1.2.9.4-.3,1.7.4,2.6-.6.6-.7-.4-.6-.7-.8.8-1.2.1-2,.6l-.3-.2-.1-.3c.1,0,.1-.1.2-.1-.3-.3-.1-.5.2-.6h.2Z"/><path class="cls-16" d="M61.87,111.33l.1.3c-1.1.8-2,.2-2.7,1.3a4.48,4.48,0,0,1,.4-2l.1.2.2-.1c.3-.2.5-.3.8-.5-.1-.3-.4-.2-.5-.5.3-.2.8-.3.7-.7l.2-.1L61,109c-.1-.2.1-.3,0-.5.7.4.6,1.2,1.5,1.7-.5.3-.6-.1-.8.5.1.1.3.1.4.3Z"/><path class="cls-16" d="M64.47,109.83l-.3.1.3-.1-.1-.3c.3-.1.6.4.3.6Z"/><path class="cls-16" d="M64.07,109.53l.1.4c-.5.3-.8,0-1.2.2-.3-.2-.4-1.1-.8-.8.3-.9,1.5-.1,2.1-.5.2.3,0,.4.1.7Z"/></g></svg>