<svg xmlns="http://www.w3.org/2000/svg" viewBox="0 0 117.6 171.9"><defs><style>.cls-1,.cls-3{opacity:0.2;}.cls-2{fill:#333;}.cls-3,.cls-4,.cls-5,.cls-6,.cls-7{fill:none;stroke-miterlimit:10;stroke-width:1.74px;}.cls-3{stroke:#000;}.cls-4{stroke:#b1a79c;}.cls-5{stroke:#7c181f;}.cls-6{stroke:#0f0f3f;}.cls-7{stroke:#b5b00d;}</style></defs><title>pantallas_04</title><g id="clips"><circle class="cls-1" cx="31.71" cy="98.91" r="22.33"/><circle cx="32.58" cy="100.65" r="22.33"/><circle class="cls-2" cx="32.58" cy="100.65" r="10.39"/><path class="cls-1" d="M40.29,105.79l-15-11.17a9.2,9.2,0,0,1,13.11-1.87A9.08,9.08,0,0,1,40.29,105.79Z"/><path class="cls-3" d="M14.06,98.2s23.26-4.24,25.33-5S46,89,46,86.67s-4.35-4-9.24-3.5S5.69,87.54,5.14,88s.44,10.11,1.09,10.65S24.82,96.35,31.34,92s4.68-8.7-12.5-5.33"/><path class="cls-4" d="M14.06,97.33s23.26-4.24,25.33-5S46,88.09,46,85.8s-4.35-4-9.24-3.5S5.69,86.67,5.14,87.11s.44,10.11,1.09,10.65,18.59-2.28,25.11-6.63,4.68-8.7-12.5-5.33"/><path class="cls-3" d="M27.34,90S7.28,102.55,5.64,104s-4.6,6.39-3.76,8.51,5.5,2.07,9.88-.16S39,96.84,39.39,96.24s-4.14-9.24-4.94-9.5-16.43,9-20.89,15.43-1.13,9.81,13.58.34"/><path class="cls-5" d="M26.47,89.16s-20.06,12.53-21.7,14S.17,109.54,1,111.66s5.5,2.07,9.88-.16S38.18,96,38.52,95.37s-4.13-9.24-4.94-9.5-16.43,9-20.89,15.43-1.13,9.81,13.58.34"/><path class="cls-3" d="M30.13,125.78s12-20.38,12.78-22.44S44,95.54,42.31,94s-5.83.7-8.69,4.7-17,26.39-17.05,27.08,7.93,6.29,8.77,6.15,10.43-15.56,11.4-23.34-3.52-9.23-12.2,6"/><path class="cls-5" d="M31,125.78s12-20.38,12.78-22.44,1.13-7.79-.6-9.29-5.84.7-8.69,4.7-17,26.39-17.05,27.08,7.93,6.29,8.77,6.15,10.43-15.56,11.4-23.34-3.52-9.23-12.2,6"/><circle class="cls-1" cx="50.11" cy="137.96" r="22.33"/><circle cx="50.98" cy="139.7" r="22.33"/><circle class="cls-2" cx="50.98" cy="139.7" r="10.39"/><path class="cls-1" d="M58.69,144.83l-15-11.17a9.2,9.2,0,0,1,13.11-1.87A9.08,9.08,0,0,1,58.69,144.83Z"/><path class="cls-3" d="M73,123.41s-22.2,8.16-24.1,9.27-5.81,5.31-5.41,7.56,5,3.15,9.7,1.87,29.88-9.63,30.35-10.16-2.16-9.89-2.9-10.31S62.7,127.08,57,132.48s-3.12,9.37,13.23,3.11"/><path class="cls-4" d="M73.13,124.27s-22.19,8.16-24.1,9.27-5.81,5.31-5.42,7.56,5,3.15,9.7,1.86,29.88-9.63,30.35-10.16-2.16-9.88-2.9-10.31-17.92,5.43-23.6,10.84S54,142.7,70.39,136.44"/><path class="cls-3" d="M96.38,75.84S73,72.22,70.81,72.27s-7.65,1.83-8.4,4,2.81,5.16,7.58,6.33,30.81,6,31.46,5.82,2.9-9.7,2.46-10.42S85.6,74.06,78,76s-7.26,6.69,10.07,9.13"/><path class="cls-4" d="M96.09,76.66S72.72,73,70.52,73.09s-7.65,1.83-8.4,4,2.81,5.16,7.58,6.33,30.81,6.05,31.46,5.82,2.9-9.7,2.46-10.42-18.31-3.93-25.9-2S70.47,83.54,87.8,86"/><path class="cls-3" d="M59.65,119.51S39.59,132,38,133.5s-4.6,6.39-3.76,8.51,5.5,2.07,9.88-.16,27.28-15.54,27.63-16.14-4.13-9.23-4.94-9.5-16.44,9-20.89,15.43-1.14,9.81,13.58.34"/><path class="cls-6" d="M58.78,118.64s-20.06,12.53-21.7,14-4.6,6.39-3.76,8.51,5.5,2.07,9.88-.16,27.28-15.54,27.63-16.14-4.13-9.23-4.94-9.5-16.43,9-20.89,15.43-1.13,9.81,13.58.34"/><path class="cls-3" d="M74.13,86.51s-15.79-17.6-17.52-19-7.08-3.43-9-2.24-1.09,5.78,1.86,9.7,20,24.2,20.65,24.44,8.39-5.66,8.51-6.5S66.92,78.31,59.8,75s-9.86.57,2,13.44"/><path class="cls-6" d="M74.83,85.51S59,67.9,57.31,66.54s-7.08-3.43-9-2.24-1.09,5.78,1.86,9.7,20,24.2,20.65,24.44,8.39-5.66,8.51-6.5S67.63,77.3,60.51,74s-9.86.57,2,13.44"/><path class="cls-3" d="M48.52,164.82s12-20.38,12.78-22.44,1.13-7.79-.6-9.29-5.84.7-8.69,4.7S35,164.19,35,164.88s7.93,6.29,8.77,6.15,10.43-15.56,11.4-23.34-3.52-9.23-12.2,6"/><path class="cls-7" d="M49.39,164.82s12-20.38,12.78-22.44,1.13-7.79-.6-9.29-5.84.7-8.69,4.7-17,26.39-17.05,27.08,7.93,6.29,8.77,6.15S55,155.47,56,147.69s-3.52-9.23-12.2,6"/><path class="cls-3" d="M113.33,28.22s-11.58-20.63-13-22.33S94.19,1,92,1.73s-2.33,5.4-.31,9.87S106,39.6,106.56,40s9.42-3.69,9.72-4.49-8.21-16.84-14.44-21.6-9.75-1.6-1,13.55"/><path class="cls-7" d="M113.76,27.47s-11.58-20.63-13-22.33S94.63.24,92.47,1s-2.33,5.4-.31,9.88,14.24,28,14.83,28.36,9.42-3.69,9.73-4.49-8.21-16.84-14.44-21.6-9.75-1.6-1,13.55"/><path class="cls-3" d="M68.14,158.91s-3-23.47-3.6-25.57-3.87-6.86-6.15-7-4.19,4.12-4,9,2.65,31.29,3.05,31.86,10.12.13,10.7-.49-1.26-18.69-5.24-25.45-8.43-5.15-6,12.19"/><path class="cls-5" d="M68.83,158.38s-3-23.47-3.6-25.57-3.87-6.86-6.15-7-4.19,4.12-4,9,2.65,31.29,3.06,31.86,10.12.13,10.7-.49-1.26-18.69-5.24-25.45-8.43-5.15-6,12.19"/></g></svg>