<svg xmlns="http://www.w3.org/2000/svg" viewBox="0 0 171.5 254.22"><defs><style>.cls-1{isolation:isolate;}.cls-2{fill:#3f2e20;opacity:0.3;mix-blend-mode:multiply;}.cls-3{fill:#666;}.cls-4{fill:#0d0c11;}.cls-5{fill:#212138;}.cls-6{fill:#1a1a1a;}.cls-7{fill:#2f2f4f;opacity:0.4;}</style></defs><title>pantallas_04</title><g class="cls-1"><g id="cel"><path class="cls-2" d="M97.82,15.61c-6.87-1.56-10.5.5-10.5.5h0a14.53,14.53,0,0,0-6.41,2.83s-39,17.87-59.69,27.64C4.28,54.59,5.19,62.27,5.65,64c.06.23,3.49,14.71,6.65,25.5s23.13,74,23.13,74l18.82,62s5.78,21.9,11,25.74,10.45,3.61,17.69,1.21c0,0-.27-1.25,1.92-2.26s3-.12,3-.12l23.53-10.41s-1.07-1.39,1.93-2.46h0c1.87-.67,3.78-1.38,5.67-2.17s3.91-1.08,4.56-.45l31.84-15.05s12.37-6.26,10.3-16.8a135.58,135.58,0,0,0-5.64-19.86L120.35,65.71,108.55,30.25S104.66,17.17,97.82,15.61Z"/><path class="cls-3" d="M91.22,238.42S90.87,237.19,93,236s3-.3,3-.3L119,224s-1-1.06,1.84-2.45,8.65-4.64,10-3.46l30.94-17s12-7,9.27-17.47A136.25,136.25,0,0,0,164.24,164l-46.9-115L103,15S97.67,4.07,91.3,1.27s-10.09,0-10.09,0L8,41.89S-3.07,45.1.83,55.95,36,152.33,36,152.33l25.87,68.23s6.11,14.2,11.57,17.72S84.11,241.27,91.22,238.42Z"/><path class="cls-4" d="M9.07,71.73l-6.5-17.2S-1.8,46,16.94,35.78C37,24.78,75,4.54,75,4.54s15.69-14.86,28.52,14.65c11.15,25.64,34.25,87.41,34.25,87.41l28.55,67.89s8.91,16.69-8.39,27.49c-22.29,13.92-66,32.83-66,32.83s-18.17,12.28-26.4-13.14C56.34,193.4,9.07,71.73,9.07,71.73Z"/><polygon class="cls-5" points="69.88 216.23 11.48 62.42 95.65 16.45 158.13 170.56 69.88 216.23"/><path class="cls-6" d="M41.59,34.75s-2.33-.29-.11-1.73,12.47-7,12.47-7,1.86,0,.62,1.42Z"/><path class="cls-6" d="M34.67,37.37A1.54,1.54,0,0,1,35,39.55a1.63,1.63,0,0,1-2.23.33,1.53,1.53,0,0,1-.35-2.18A1.63,1.63,0,0,1,34.67,37.37Z"/><path class="cls-6" d="M123.24,198.37a8.35,8.35,0,0,1,1.75,12.1,9.5,9.5,0,0,1-12.66,2.43,8.34,8.34,0,0,1-1.79-12.13A9.49,9.49,0,0,1,123.24,198.37Z"/><path class="cls-4" d="M122.42,198.78a7.61,7.61,0,0,1,1.59,11A8.66,8.66,0,0,1,112.46,212,7.61,7.61,0,0,1,110.83,201,8.66,8.66,0,0,1,122.42,198.78Z"/><path class="cls-6" d="M72.18,231.37S52.79,179.51,47,165.5s-17.11-42.75-17.11-42.75,21.63,57,24.61,65.72S68.92,228.5,72.18,231.37Z"/><path class="cls-6" d="M79.31,237.11s-5,.28-.81-2.39c0,0,1.27,1.5,13.27-4.72s66.57-34.8,66.57-34.8a14.22,14.22,0,0,1-4.53,3.36,31.73,31.73,0,0,0,5.62-1.93s-4.75,3.88-24,13.73-47.71,25.28-49.79,25.78S79.31,237.11,79.31,237.11Z"/><path class="cls-6" d="M163.3,190.6s2.59-3.67,1.25-7c-1.16-2.88-14.31-37.73-14.31-37.73s-16.59-43-18.6-50.82c0,0,24.18,57.87,26.73,64.16s12,26.57,7.22,29.21l-.43-1A10.15,10.15,0,0,1,163.3,190.6Z"/><polygon class="cls-7" points="69.88 216.23 95.65 16.45 11.48 62.42 69.88 216.23"/></g></g></svg>