<svg xmlns="http://www.w3.org/2000/svg" xmlns:xlink="http://www.w3.org/1999/xlink" viewBox="0 0 1366 768"><defs><style>.cls-1,.cls-30,.cls-31,.cls-32,.cls-33,.cls-34,.cls-61,.cls-65,.cls-67,.cls-69,.cls-74{fill:none;}.cls-2{isolation:isolate;}.cls-3{fill:#5c432f;}.cls-4{mask:url(#mask);}.cls-5,.cls-6{fill:#3f2e20;}.cls-28,.cls-30,.cls-43,.cls-5,.cls-59,.cls-80{opacity:0.2;}.cls-36,.cls-5,.cls-6{mix-blend-mode:multiply;}.cls-6,.cls-64,.cls-72{opacity:0.3;}.cls-7{fill:#d3bd18;}.cls-8{fill:#ccb21d;}.cls-9{fill:#86272d;}.cls-10{fill:#70272d;}.cls-11{fill:#1e1e1e;}.cls-12{fill:#d1cfcb;}.cls-13{fill:#a8a59e;}.cls-14,.cls-15,.cls-29,.cls-43,.cls-89{fill:#333;}.cls-14,.cls-15,.cls-36,.cls-48,.cls-63{opacity:0.4;}.cls-15,.cls-17{font-size:45.43px;letter-spacing:0em;}.cls-15,.cls-17,.cls-40{font-family:MyriadPro-Regular, Myriad Pro;}.cls-16{letter-spacing:0em;}.cls-17,.cls-47{fill:#1a1a1a;}.cls-18{fill:#666;}.cls-19{fill:#5b5b5b;}.cls-20{fill:#515151;}.cls-21{fill:#243056;}.cls-22{fill:#252e4c;}.cls-23,.cls-26,.cls-71,.cls-85{opacity:0.5;}.cls-23{mix-blend-mode:lighten;}.cls-24{clip-path:url(#clip-path);}.cls-25{fill:#384775;}.cls-26{fill:#777;}.cls-27{fill:#20293f;}.cls-30{stroke:#000;}.cls-30,.cls-31,.cls-32,.cls-33,.cls-34,.cls-61,.cls-65,.cls-67,.cls-69,.cls-74{stroke-miterlimit:10;}.cls-30,.cls-31,.cls-32,.cls-33,.cls-34{stroke-width:1.74px;}.cls-31{stroke:#b1a79c;}.cls-32{stroke:#7c181f;}.cls-33{stroke:#0f0f3f;}.cls-34{stroke:#b5b00d;}.cls-35{fill:#c4ab18;}.cls-36,.cls-38{fill:#af9619;}.cls-37{fill:#baa217;}.cls-39,.cls-40{fill:#4d4d4d;}.cls-40{font-size:29px;}.cls-41{letter-spacing:0.01em;}.cls-42{letter-spacing:-0.02em;}.cls-44{fill:#005187;}.cls-45{fill:#0d0c11;}.cls-46{fill:#212138;}.cls-48{fill:#2f2f4f;}.cls-49{fill:#cac9c7;}.cls-50{fill:#aaa;}.cls-51{fill:#919191;}.cls-52{opacity:0.1;}.cls-53{fill:#cfd0ca;}.cls-54{fill:#756459;}.cls-55{fill:#c1bdbe;}.cls-56{fill:#633b00;}.cls-57{fill:#260e0b;}.cls-58{fill:#724203;}.cls-59{fill:#d3c663;mix-blend-mode:screen;}.cls-60,.cls-63,.cls-72,.cls-73{fill:#8a867d;}.cls-61,.cls-74{stroke:#6e6a63;}.cls-61{stroke-width:2.24px;}.cls-61,.cls-67,.cls-69,.cls-74{opacity:0.8;}.cls-62{fill:#969388;}.cls-64,.cls-70,.cls-71{fill:#b5b1a4;}.cls-65,.cls-67,.cls-69{stroke:#8a867d;}.cls-65,.cls-69{stroke-width:1.96px;}.cls-66{fill:#a39f94;}.cls-67{stroke-width:4.19px;}.cls-68{fill:#969389;}.cls-73,.cls-79,.cls-89{opacity:0.6;}.cls-74{stroke-width:1.18px;}.cls-75{fill:#bdb9ab;}.cls-76,.cls-79{fill:#99840a;}.cls-77,.cls-80{fill:#d1b90d;}.cls-78{fill:#f2db08;}.cls-81{fill:#55822e;}.cls-82{fill:#50a30f;}.cls-83{fill:#cccac6;}.cls-84{fill:#691e23;}.cls-85{fill:#a6a5a2;}.cls-86{fill:#bab9b5;}.cls-87{fill:#8a8a8a;fill-rule:evenodd;}.cls-88{fill:#a8a8a8;}.cls-90{fill:#fbca7e;}.cls-91{fill:#fff;}.cls-92{fill:#e6e6e6;}</style><mask id="mask" x="-186.62" y="-569.75" width="1670.23" height="1621.37" maskUnits="userSpaceOnUse"><image width="2448" height="2376" transform="translate(-182.19 -569.75) rotate(0.16) scale(0.68)" xlink:href="../../texturas/IMG_8625-w.jpg"/></mask><clipPath id="clip-path"><path class="cls-1" d="M940,177.31a8.88,8.88,0,0,1,4.68-3.58,9,9,0,0,1,5.9-.22s11.84,20.66,15.22,31.45,11.82,36.37,17.74,49c0,0-8.58,1.48-13.14,6.59,0,0-8.15-22.65-12.12-31.94S941,190.41,940,177.31Z"/></clipPath></defs><title>pantallas_04</title><g class="cls-2"><g id="fondo"><rect class="cls-3" width="1366" height="768"/><g class="cls-4"><rect class="cls-5" x="299" y="-299" width="768" height="1366" transform="translate(297.13 1065.95) rotate(-89.84)"/></g></g><g id="cuaderno"><path class="cls-6" d="M1341.92,393.14l-.52-1.92h0l0-.09-1.48-5.42a10.27,10.27,0,0,0,1-1.1c5-6.64-.29-19.56-.29-19.56l-76-279.14s-4.79-18.2-13.35-23.71-25.55-.72-25.55-.72L1032.3,76.56s-9.85-12.21-17.08-13.17-11.37,14.93-11.37,14.93h0C990.44,81.89,992.57,94,992.57,94l58.13,299h0l8.67,44.49s1.22,6.7,47.83.09l0-.14v-.07l7.7,26.32,12.72-8.66-8-19.43q6.32-1,13.56-2.29c72.3-12.93,181.09-24.83,181.09-24.83s16.31.92,20.84-2.66c1.32-1,1.57-4.42,1.26-8.67l1.87-.25-.47-1.73,1-.13ZM1018.82,77.61a50,50,0,0,0-11.09,0l1.45-.27a12.65,12.65,0,0,1,.35-1.42c2.15-3.22,4.6-3.26,6.65-2.32a21.71,21.71,0,0,1,4.51,3.88Z"/><rect class="cls-7" x="1132.22" y="63.31" width="103.57" height="103.56" transform="translate(25.71 386.14) rotate(-18.72)"/><polygon class="cls-8" points="1151.58 180.76 1170.86 65.06 1118.34 82.67 1151.58 180.76"/><path class="cls-9" d="M995.29,81.37s4.22-16.13,11.33-15.24,16.68,13.17,16.68,13.17l-11.44,1s-9.25-11.1-11.32,0Z"/><path class="cls-10" d="M1005.34,70.64c4.5-.75,13.56,9.06,13.56,9.06l-7,.63s-6.15-8.85-11-1.47C1000.9,78.87,1000.84,71.39,1005.34,70.64Z"/><path class="cls-11" d="M1044.09,436.38s-1,2.52,70.62-9.5c72.11-12.11,173.73-21.55,173.73-21.55s21.61-1.93,30.3-3.84c9.25-2-9.81-29.5-9.81-29.5l-274.13,13.29Z"/><polygon class="cls-12" points="1054.96 430.86 1315.29 397.93 1266.7 208.04 1015.66 239.91 1054.96 430.86"/><polygon class="cls-13" points="1057.74 426.54 1315.85 396.04 1318.89 394.09 1270.31 204.2 1019.27 236.07 1057.74 426.54"/><polygon class="cls-12" points="1055.19 426.88 1318.4 392.15 1268.05 203.53 1017.01 235.39 1055.19 426.88"/><path class="cls-13" d="M1056,429.22c-.09-1.51,2.46-3.5-1.06-5,0,0,2.23-2.48.24-4l-2-1.5s2.81.07,1-3.34-2.6-.77-2.6-.77l-1.41,2.58,4,14.34S1056.21,432.39,1056,429.22Z"/><path class="cls-11" d="M980.32,96S977,77,1006.24,79.71l203.69-18.35s16.75-5,25.13.49S1248,85.75,1248,85.75l72.1,282.1s5.13,13,.1,19.81-20.48,8.17-20.48,8.17l-235.79,27.8s-13,1.24-19.51,12.46Z"/><polygon class="cls-9" points="1083.17 423.02 1093.97 463.36 1106.47 454.45 1093.77 422.12 1083.17 423.02"/><polygon class="cls-14" points="1000.73 85.91 1055.96 414.76 1087.45 407.96 1000.73 85.91"/><text class="cls-15" transform="translate(1103 202.7) rotate(-8.03)">S<tspan class="cls-16" x="22.53" y="0">anar</tspan></text><text class="cls-17" transform="translate(1100.75 202.03) rotate(-8.03)">S<tspan class="cls-16" x="22.53" y="0">anar</tspan></text><polygon class="cls-10" points="1086.86 436.79 1093.77 422.12 1083.17 423.02 1086.86 436.79"/></g><g id="lapicera"><path class="cls-6" d="M1009,337.83h0a5.94,5.94,0,0,0,2.74-1.28c.18-10.3-2.87-24.69-2.87-24.69-3-19-14.85-49-16.88-54,.05,0-.16.47-.16.47l-.63-.28h0l-2.3-5.52c-5.32-12.92-12.42-39.09-15.29-50S960,170.22,960,170.22l-1.74-2.71c-.66-.19-1.29.21-1.87.13L956,167h0l-2.16-7.32c-5.82-2.37-6.4,1.79-6.4,1.79l2.89,5.28a6.14,6.14,0,0,0-5.53,6.46l2,5.84-.52,1.15s-.59,11.86,5.42,26.53a213.37,213.37,0,0,0,11.92,24.71l.82.37L971.12,252q-.08-5-.4-9.94c2.67,8.3,5,16,5,16l1.24,4.7c.34,2.11,2.18,8.12,4.56,15.41,5.5,17.2,13.11,38.44,13.11,38.44,2.84,7.63,12,22.29,12,22.29a15.35,15.35,0,0,0,2.14.16h0l0-.46c.18-.06.12-.37.29-.44ZM948.89,191.77c0,.11.38,1.79,1,4.31A33.43,33.43,0,0,1,948.89,191.77Zm11.27,31.28.15.27h0Zm.53.31c-1.48-5.3-9.8-26.3-9.73-31.7l10.66,31.9A8.65,8.65,0,0,0,960.69,223.37Z"/><path class="cls-18" d="M941.93,172.49l-4.32-7.28s.38-4.45,6.3-2.36l3.52,9.41Z"/><path class="cls-19" d="M942.46,173.29l-1.35-2.18s1.55-1.62,5.29-1.6l.81,2.17Z"/><path class="cls-18" d="M939.69,173.57s2.37-4.16,9-2.62l1.89,2.57-10.38,5.61S940,176.58,939.69,173.57Z"/><path class="cls-18" d="M970.43,260.57s2.1-6.24,13.14-6.59l3.22,5.66s-7.4-.56-14.9,5.57Z"/><path class="cls-20" d="M938.09,184.35l3-.64,5,11.51s-3.29-1.94-3.53-.36c-.69,4.51,10.74,29.38,11.42,32.67a87.07,87.07,0,0,1-8.24-15.65,150.17,150.17,0,0,1-5.28-16.22Z"/><path class="cls-18" d="M938,182.55l-.66,1.68s0,11.88,6.65,26.25A213.27,213.27,0,0,0,957,234.61l1,.41s-.24-5.65-1.15-7-3.55-1.39-3.55-1.39-11.33-22.88-12.85-31L939,187.55l1.11.12S939.77,183.75,938,182.55Z"/><path class="cls-18" d="M992,318.18l14.1-5.34s3.84,14.23,4.13,24.53c0,0-3.07,2.26-5.17,2.06C1005.11,339.43,995.24,325.67,992,318.18Z"/><path class="cls-21" d="M940,177.31a8.88,8.88,0,0,1,4.68-3.58,9,9,0,0,1,5.9-.22s11.84,20.66,15.22,31.45,11.82,36.37,17.74,49c0,0-8.58,1.48-13.14,6.59,0,0-8.15-22.65-12.12-31.94S941,190.41,940,177.31Z"/><path class="cls-22" d="M971.89,265.21s6.3-6.73,14.49-6.29c0,0,15.53,33.34,19.77,53.92,0,0-6.94,5.62-14.1,5.34C992,318.18,976.44,280.29,971.89,265.21Z"/><g class="cls-23"><g class="cls-24"><path class="cls-25" d="M945,170.32s17.53,38.51,20.48,84.46l-30-77.52S934.54,169.33,945,170.32Z"/></g></g><path class="cls-26" d="M939.08,164.56a3,3,0,0,1,1.46-1.12l3.29,7.4-1.34.44Z"/><path class="cls-26" d="M941.16,172a12.4,12.4,0,0,0,1,3.06l.84-.66-.9-2.91Z"/><polygon class="cls-26" points="973.62 257.88 975.78 256.64 977.74 260.95 975.61 262.19 973.62 257.88"/><path class="cls-26" d="M996.55,317.66A79.72,79.72,0,0,0,1007.26,339l.59-.25s-6.9-17.32-8.38-22.1Z"/><path class="cls-27" d="M977.74,260.95l18.81,56.71a10,10,0,0,1-4.5.52s-18.75-46.26-20.16-53A17.16,17.16,0,0,1,977.74,260.95Z"/></g><g id="clips"><circle class="cls-28" cx="462.04" cy="162.38" r="22.33"/><circle cx="462.91" cy="164.12" r="22.33"/><circle class="cls-29" cx="462.91" cy="164.12" r="10.39"/><path class="cls-28" d="M470.62,169.26l-15-11.17a9.2,9.2,0,0,1,13.11-1.87A9.08,9.08,0,0,1,470.62,169.26Z"/><path class="cls-30" d="M444.39,161.67s23.26-4.24,25.33-5,6.63-4.24,6.63-6.52-4.35-4-9.24-3.5S436,151,435.47,151.45s.44,10.11,1.09,10.65,18.59-2.28,25.11-6.63,4.68-8.7-12.5-5.33"/><path class="cls-31" d="M444.39,160.8s23.26-4.24,25.33-5,6.63-4.24,6.63-6.52-4.35-4-9.24-3.5-31.09,4.37-31.63,4.8.44,10.11,1.09,10.65,18.59-2.28,25.11-6.63,4.68-8.7-12.5-5.33"/><path class="cls-30" d="M457.67,153.5s-20.06,12.53-21.7,14-4.6,6.39-3.76,8.51,5.5,2.07,9.88-.16,27.28-15.53,27.63-16.14-4.14-9.24-4.94-9.5-16.43,9-20.89,15.43-1.13,9.81,13.58.34"/><path class="cls-32" d="M456.8,152.63s-20.06,12.53-21.7,14-4.6,6.39-3.76,8.51,5.5,2.07,9.88-.16,27.28-15.54,27.63-16.14-4.13-9.24-4.94-9.5-16.43,9-20.89,15.43-1.13,9.81,13.58.34"/><path class="cls-30" d="M460.45,189.25s12-20.38,12.78-22.44,1.13-7.79-.6-9.29-5.83.7-8.69,4.7-17,26.39-17.05,27.09,7.93,6.29,8.77,6.15,10.43-15.56,11.4-23.34-3.52-9.23-12.2,6"/><path class="cls-32" d="M461.32,189.25s12-20.38,12.78-22.44,1.13-7.79-.6-9.29-5.84.7-8.69,4.7-17,26.39-17.05,27.09,7.93,6.29,8.77,6.15,10.43-15.56,11.4-23.34-3.52-9.23-12.2,6"/><circle class="cls-28" cx="480.44" cy="201.43" r="22.33"/><circle cx="481.31" cy="203.17" r="22.33"/><circle class="cls-29" cx="481.31" cy="203.16" r="10.39"/><path class="cls-28" d="M489,208.3l-15-11.17a9.2,9.2,0,0,1,13.11-1.87A9.08,9.08,0,0,1,489,208.3Z"/><path class="cls-30" d="M503.31,186.88s-22.2,8.16-24.1,9.27-5.81,5.31-5.41,7.56,5,3.15,9.7,1.87,29.88-9.63,30.35-10.16-2.16-9.89-2.9-10.31-17.92,5.44-23.6,10.84-3.12,9.37,13.23,3.11"/><path class="cls-31" d="M503.46,187.74s-22.19,8.16-24.1,9.27-5.81,5.31-5.42,7.56,5,3.15,9.7,1.86,29.88-9.63,30.35-10.16-2.16-9.88-2.9-10.31-17.92,5.43-23.6,10.84-3.12,9.37,13.23,3.11"/><path class="cls-30" d="M526.71,139.31s-23.37-3.61-25.57-3.57-7.65,1.83-8.4,4,2.81,5.16,7.58,6.33,30.81,6,31.46,5.82,2.9-9.7,2.46-10.42-18.31-3.93-25.9-2-7.26,6.69,10.07,9.13"/><path class="cls-31" d="M526.42,140.13s-23.37-3.61-25.57-3.57-7.65,1.83-8.4,4,2.81,5.16,7.58,6.33,30.81,6.05,31.46,5.82,2.9-9.7,2.46-10.42-18.31-3.93-25.9-2-7.27,6.69,10.07,9.13"/><path class="cls-30" d="M490,183s-20.06,12.53-21.7,14-4.6,6.39-3.76,8.51,5.5,2.07,9.88-.16,27.28-15.54,27.63-16.14-4.13-9.23-4.94-9.5-16.44,9-20.89,15.43-1.14,9.81,13.58.34"/><path class="cls-33" d="M489.11,182.11s-20.06,12.53-21.7,14-4.6,6.39-3.76,8.51,5.5,2.07,9.88-.16,27.28-15.54,27.63-16.14-4.13-9.23-4.94-9.5-16.43,9-20.89,15.43-1.13,9.81,13.58.34"/><path class="cls-30" d="M504.46,150s-15.79-17.6-17.52-19-7.08-3.43-9-2.24-1.09,5.78,1.86,9.7,20,24.2,20.65,24.44,8.39-5.66,8.51-6.5-11.68-14.64-18.79-17.92-9.86.57,2,13.44"/><path class="cls-33" d="M505.16,149s-15.79-17.6-17.52-19-7.08-3.43-9-2.24-1.09,5.78,1.86,9.7,20,24.2,20.65,24.44,8.39-5.66,8.51-6.5S498,140.77,490.84,137.49s-9.86.57,2,13.44"/><path class="cls-30" d="M478.85,228.29s12-20.38,12.78-22.44,1.13-7.79-.6-9.29-5.84.7-8.69,4.7-17,26.39-17.05,27.08,7.93,6.29,8.77,6.15,10.43-15.56,11.4-23.34-3.52-9.23-12.2,6"/><path class="cls-34" d="M479.72,228.29s12-20.38,12.78-22.44,1.13-7.79-.6-9.29-5.84.7-8.69,4.7-17,26.39-17.05,27.08,7.93,6.29,8.77,6.15,10.43-15.56,11.4-23.34-3.52-9.23-12.2,6"/><path class="cls-30" d="M543.66,91.69s-11.58-20.62-13-22.33-6.17-4.9-8.33-4.16-2.33,5.4-.31,9.87,14.25,28,14.83,28.36,9.42-3.69,9.72-4.49-8.21-16.84-14.44-21.6-9.75-1.6-1,13.55"/><path class="cls-34" d="M544.09,90.94s-11.58-20.63-13-22.33-6.17-4.9-8.33-4.16-2.33,5.4-.31,9.88,14.24,28,14.83,28.36,9.42-3.69,9.73-4.49-8.21-16.84-14.44-21.6-9.75-1.6-1,13.55"/><path class="cls-30" d="M498.47,222.38s-3-23.47-3.6-25.57-3.87-6.86-6.15-7-4.19,4.12-4,9,2.65,31.29,3.05,31.86,10.12.13,10.7-.49-1.26-18.69-5.24-25.45-8.43-5.15-6,12.19"/><path class="cls-32" d="M499.16,221.85s-3-23.47-3.6-25.57-3.87-6.86-6.15-7-4.19,4.12-4,9,2.65,31.29,3.06,31.86,10.12.13,10.7-.49-1.26-18.69-5.24-25.45-8.43-5.15-6,12.19"/></g><g id="carpetas"><polygon class="cls-6" points="362.46 604.92 374.43 756.95 539.23 745.5 836 757 836 729 924 738.61 938.72 403 950.2 397 944.55 298.17 925.01 279.68 362.46 604.92"/><path class="cls-35" d="M578,734.77s177.59,9.11,331.3,4L897.87,347l-306-3.67Z"/><polygon class="cls-13" points="609.47 733.84 617.28 301.13 904.17 294.7 898.85 738.61 609.47 733.84"/><polygon class="cls-12" points="614.05 734.22 625.18 297.3 912.07 290.87 906.75 734.78 614.05 734.22"/><path class="cls-35" d="M583.53,275.82l337.09.59,18.1,13.47-1.16,100.27-17.62,9.51L918.52,731.4C825,725.29,578,733.46,578,733.46Z"/><polygon class="cls-36" points="593.53 286.82 588.03 745.77 864.62 740.31 842.33 287.12 593.53 286.82"/><path class="cls-35" d="M377.45,751.14S554.92,740,707,717.33L651,329.46l-304.4,31.23Z"/><polygon class="cls-13" points="408.58 746.63 367.02 315.86 651.31 276.77 696.62 718.4 408.58 746.63"/><polygon class="cls-12" points="413.18 746.49 374.43 311.15 658.72 272.06 704.03 713.68 413.18 746.49"/><path class="cls-37" d="M330.6,294.56l335-37.84L685.08,268l10.28,99.75-16.42,11.46L715.34,709c-93.6,4.58-338,40.85-338,40.85Z"/><polygon class="cls-38" points="484.55 277.17 468.34 736.92 573.55 723.15 499.75 275.45 484.55 277.17"/><path class="cls-35" d="M489.13,742.34s177.69,7.1,331.32.11L804.3,351h-306Z"/><polygon class="cls-13" points="520.07 740.8 522.45 308.04 809 298.17 809 742.11 520.07 740.8"/><polygon class="cls-12" points="524.73 741.13 530.41 304.11 817 294.24 817 738.18 524.73 741.13"/><path class="cls-7" d="M489,283.13l337.14-3.45,18.29,13.25.06,100.28L827,402.93l2.49,331.73c-93.57-5-340.49,6.14-340.49,6.14Z"/><path class="cls-39" d="M539,593l10.57-.19c6.73-.08,16.34-.28,27.87-.37s25-.27,39.4-.31L662,592l45.16.13c14.41,0,27.87.22,39.4.3s21.14.29,27.87.37L785,593l-10.57.19c-6.73.08-16.34.28-27.87.37s-25,.27-39.4.3L662,594l-45.16-.13c-14.41,0-27.87-.22-39.4-.31s-21.14-.29-27.87-.37Z"/><path class="cls-39" d="M539,464l10.57-.19c6.73-.08,16.34-.28,27.87-.37s25-.27,39.4-.31L662,463l45.16.13c14.41,0,27.87.22,39.4.3s21.14.29,27.87.37L785,464l-10.57.19c-6.73.08-16.34.28-27.87.37s-25,.27-39.4.3L662,465l-45.16-.13c-14.41,0-27.87-.22-39.4-.31s-21.14-.29-27.87-.37Z"/><text class="cls-40" transform="translate(567.93 517.85)">PR<tspan class="cls-41" x="31.03" y="0">E</tspan><tspan x="45.56" y="0">VENCIÓN DE</tspan><tspan x="23.03" y="34.8">ADI</tspan><tspan class="cls-42" x="67.02" y="34.8">C</tspan><tspan x="83.23" y="34.8">CIONES</tspan></text><path class="cls-12" d="M832.34,433.09c-53.14-5.43-149.6-10.89-149.6-10.89l10.89-149.6s122,12.17,149.6,10.89C843.22,283.48,830.73,410.32,832.34,433.09Z"/><polygon class="cls-43" points="695.22 413.13 826.29 426.86 829.49 297.08 695.22 413.13"/><rect class="cls-44" x="697.78" y="287.64" width="130.4" height="130.4" transform="translate(355.69 1088.19) rotate(-85.84)"/><path class="cls-30" d="M774.67,279.22c-.12-2.77-.15-2.7-.24-2.85-.37-.59-10.09-.8-10.71-.22s0,18.73,3.55,25.74,8.07,5.7,6.8-11.76"/><path class="cls-32" d="M773.94,279.59a18.54,18.54,0,0,0-.24-2.73c-.37-.59-10.09-.8-10.71-.22s0,18.73,3.55,25.74,8.07,5.7,6.8-11.76"/></g><g id="cel"><path class="cls-6" d="M160.43,476c-6.87-1.56-10.5.5-10.5.5h0a14.53,14.53,0,0,0-6.41,2.83s-39,17.87-59.69,27.64c-16.93,8-16,15.68-15.55,17.42.06.23,3.49,14.71,6.65,25.5s23.13,74,23.13,74l18.82,62s5.78,21.9,11,25.74,10.45,3.61,17.69,1.21c0,0-.27-1.25,1.92-2.26s3-.12,3-.12L174,700.07s-1.07-1.39,1.93-2.46h0c1.87-.67,3.78-1.38,5.67-2.17s3.91-1.08,4.56-.45l31.84-15.05s12.37-6.26,10.3-16.8a135.58,135.58,0,0,0-5.64-19.86L183,526.09l-11.81-35.46S167.27,477.55,160.43,476Z"/><path class="cls-18" d="M153.83,698.8s-.34-1.23,1.79-2.38,3-.3,3-.3l23-11.72s-1-1.06,1.84-2.45,8.65-4.64,10-3.46l30.94-17s12-7,9.27-17.47a136.25,136.25,0,0,0-6.86-19.57l-46.9-115-14.32-34.12s-5.36-10.89-11.72-13.69-10.09,0-10.09,0L70.62,502.27s-11.07,3.21-7.18,14.06,35.15,96.38,35.15,96.38l25.87,68.23s6.11,14.2,11.57,17.72S146.72,701.65,153.83,698.8Z"/><path class="cls-45" d="M71.68,532.11l-6.5-17.2s-4.36-8.49,14.37-18.75c20.08-11,58.06-31.24,58.06-31.24s15.69-14.86,28.52,14.65C177.28,505.21,200.37,567,200.37,567l28.55,67.89s8.91,16.69-8.39,27.49c-22.29,13.92-66,32.83-66,32.83s-18.17,12.28-26.4-13.14C119,653.78,71.68,532.11,71.68,532.11Z"/><polygon class="cls-46" points="132.49 676.61 74.09 522.8 158.26 476.83 220.74 630.94 132.49 676.61"/><path class="cls-47" d="M104.2,495.13s-2.33-.29-.11-1.73,12.47-7,12.47-7,1.86,0,.62,1.42Z"/><path class="cls-47" d="M97.28,497.75a1.54,1.54,0,0,1,.35,2.18,1.63,1.63,0,0,1-2.23.33,1.53,1.53,0,0,1-.35-2.18A1.63,1.63,0,0,1,97.28,497.75Z"/><path class="cls-47" d="M185.85,658.75a8.35,8.35,0,0,1,1.75,12.1,9.5,9.5,0,0,1-12.66,2.43,8.34,8.34,0,0,1-1.79-12.13A9.49,9.49,0,0,1,185.85,658.75Z"/><path class="cls-45" d="M185,659.16a7.61,7.61,0,0,1,1.59,11,8.66,8.66,0,0,1-11.55,2.21,7.61,7.61,0,0,1-1.63-11.06A8.66,8.66,0,0,1,185,659.16Z"/><path class="cls-47" d="M134.79,691.76s-19.39-51.86-25.13-65.88-17.11-42.75-17.11-42.75,21.63,57,24.61,65.72S131.54,688.88,134.79,691.76Z"/><path class="cls-47" d="M141.92,697.49s-5,.28-.81-2.39c0,0,1.27,1.5,13.27-4.72S221,655.58,221,655.58a14.22,14.22,0,0,1-4.53,3.36A31.73,31.73,0,0,0,222,657s-4.75,3.88-24,13.73S150.32,696,148.24,696.52,141.92,697.49,141.92,697.49Z"/><path class="cls-47" d="M225.91,651s2.59-3.67,1.25-7c-1.16-2.88-14.31-37.73-14.31-37.73s-16.59-43-18.6-50.82c0,0,24.18,57.88,26.73,64.16s12,26.57,7.22,29.21l-.43-1A10.15,10.15,0,0,1,225.91,651Z"/><polygon class="cls-48" points="132.49 676.61 158.26 476.83 74.09 522.8 132.49 676.61"/></g><g id="cafe"><path class="cls-6" d="M1262.11,600.68c12.5,49.22-11.05,99-60.27,111.51S1076,677,1063.48,627.76A92,92,0,0,1,1130,516C1179.17,503.5,1249.61,551.46,1262.11,600.68Z"/><circle class="cls-49" cx="1134.28" cy="591" r="91.95" transform="translate(-110.59 297.46) rotate(-14.25)"/><path class="cls-50" d="M1189.63,624s27.61,16.09,31.73,15a9.28,9.28,0,0,0,6.53-4.93l-34-20.07Z"/><path class="cls-51" d="M1192.46,623.78s25.53,14.37,27.84,11.41L1194.16,620Z"/><path class="cls-52" d="M1132.59,526.27,1218,555.14s17.64,36.22-4.75,78.09c-18.43,34.46-43.61,40.68-43.61,40.68l-88-44.31Z"/><circle class="cls-53" cx="1137.9" cy="591.31" r="65.62" transform="translate(-110.56 298.36) rotate(-14.25)"/><circle class="cls-54" cx="1133.08" cy="588.8" r="65.62" transform="translate(-110.09 297.11) rotate(-14.25)"/><circle class="cls-55" cx="1133.88" cy="589.43" r="65.62" transform="translate(-110.22 297.31) rotate(-14.25)"/><circle class="cls-56" cx="1132.11" cy="589.05" r="54.95" transform="translate(-110.18 296.88) rotate(-14.25)"/><circle class="cls-57" cx="1133.88" cy="589.43" r="54.95" transform="translate(-110.22 297.31) rotate(-14.25)"/><path class="cls-53" d="M1192.74,620.84l6.52-16.91,24.38,14s8.23,3.46,8.88,9.46c0,0-3.62,11-7.46,10.73s-5.54-1.93-16.9-8.23C1196.54,623.45,1192.74,620.84,1192.74,620.84Z"/><path class="cls-58" d="M1105.55,636.51a24.5,24.5,0,0,0-3.2-2.92c-1.24-.8-.25-2.69-1.83-3.49s-3.28-.37-4.11-1.62-.82-3.23-1.51-3.57-.56-2.52-1.65-2.76-2.36.17-3.22-1.85-.33-2.67-1.65-3.79-3-1.48-4-5.26.53-4,.1-4.67,1.16-2.53.39-3.54-2.66-3-2.73-5.67a6.77,6.77,0,0,0-1.23-4.16c-.51-1-.57-2.79-1.25-4.58s.68-2.06.47-3.22a10.7,10.7,0,0,1,.32-5.5c.8-2.27,2.24-2.35,1.64-4.72s.73-3.88,1.09-5.18,1.16-2.78,1-4.08a1.53,1.53,0,0,1,.83-1.68s-1.6-.39-2.1,2.73-.86,2.19-1.7,2.84.43,2.46.3,2.88-1.6,1.41-1.9,2.26.37,1.8,0,2.83.07,1.62-.62,2.65-1.38,3.36-1,4.47a6.11,6.11,0,0,1,.45,3.15c-.25.67-1,3.18-.72,3.62a5.2,5.2,0,0,1,.27,2.68,7.79,7.79,0,0,0,.84,3.31c.26.36,1.65,1.22,1,2.49a6.41,6.41,0,0,0,0,4.64c.55.81.29,2.28.57,3s2.09,2.49,2.33,3.71a18.81,18.81,0,0,0,1.46,4.53c.61,1.05,2,.79,2.36,2s1,2.89,2,3.37a6,6,0,0,1,2.77,2.84c.64,1.46,2.56,1.66,2.81,2.54s1.06,2.41,2.17,2.76a4.41,4.41,0,0,1,1.84,1.2c.32.26.9,2.12,2.52,2.47S1102.67,635.81,1105.55,636.51Z"/></g><g id="lampara-luz"><path class="cls-59" d="M653.31,512.93c-84.22,115-245.73,140-360.73,55.73s-215.19-312.8-131-427.81,321-72.88,436,11.34S737.53,397.92,653.31,512.93Z"/><ellipse class="cls-60" cx="51.86" cy="101.63" rx="109.66" ry="109.05" transform="translate(-59.63 77.34) rotate(-50.68)"/><ellipse class="cls-61" cx="50.56" cy="100.57" rx="106.94" ry="106.35" transform="translate(-59.28 75.95) rotate(-50.68)"/><ellipse class="cls-62" cx="51.21" cy="101.1" rx="106.94" ry="106.35" transform="translate(-59.45 76.65) rotate(-50.68)"/><polygon class="cls-60" points="50.24 100.31 139.49 40.79 125.39 23.63 50.24 100.31"/><polygon class="cls-63" points="50.24 100.31 -39.63 157.46 -48.6 139.13 50.24 100.31"/><polygon class="cls-60" points="50.24 100.31 -30.27 170.36 -39.63 157.46 50.24 100.31"/><polygon class="cls-64" points="156.89 114.49 50.24 100.31 157.78 98.86 156.89 114.49"/><polygon class="cls-64" points="50.24 100.31 -55.27 106.57 -55.16 94.81 50.24 100.31"/><path class="cls-65" d="M75.1,125.53l-.1.12-.08.1a6.89,6.89,0,0,0-1,1.51,10,10,0,0,0,15.11,12.37l.71-.61a9.1,9.1,0,0,0,.69-.76,9.86,9.86,0,0,0,1.17-1.81l2.32-3.18s3.67-5.64-2.61-10.69S79.9,119.67,78,122Z"/><path class="cls-66" d="M90.86,138.57l4.22-5.79s3.67-5.65-2.6-10.69-11.43-2.93-13.31-.64-3.78,4.92-3.78,4.92Z"/><circle class="cls-66" cx="83.85" cy="131.46" r="9.98" transform="translate(-70.98 113.02) rotate(-50.68)"/><path class="cls-67" d="M4.87,20.37,19.22,30.78,12.15,41.07c-1-.51-1.65-.81-1.65-.81l-10.56,14c-1.38-.78-2.23-1.21-2.23-1.21L-19.22,75.5s.72.66,1.9,1.69L-27.79,91.1a41.62,41.62,0,0,0,6.31,6.21l.43.33c1,.77,2,1.45,3,2a38.18,38.18,0,0,0,4.6,2.48l10.74-14.3c1.19.66,1.85,1,1.85,1L16.13,66s-.46-.5-1.42-1.37L25,50.94s-.62-.81-1.71-2L35.16,31.5s-2.06-4-8.76-7c-.7-.32-1.45-.62-2.26-.91l-1.23,1.79-15-9.75s-2.65-.7-3.75.84S4.87,20.37,4.87,20.37Z"/><path class="cls-66" d="M14.38,44.79,23.58,51,36.24,32.39s-2.06-4-8.76-7l-1.34,2Z"/><path class="cls-68" d="M12.27,43.37l2.11,1.43L26.14,27.4l1.34-2c-.7-.32-1.45-.62-2.26-.91Z"/><path class="cls-69" d="M-27.14,91.63a41.61,41.61,0,0,0,6.31,6.21l.43.33c1,.77,2,1.45,3,2a38.18,38.18,0,0,0,4.6,2.47l38.47-51.2A32,32,0,0,0,22,47.68a30.72,30.72,0,0,0-2.41-2L18.71,45a60.06,60.06,0,0,0-7.56-4.25Z"/><path class="cls-66" d="M-12.4,103l38.47-51.2A32,32,0,0,0,22.48,48L-17,100.55A38.38,38.38,0,0,0-12.4,103Z"/><path class="cls-66" d="M11.58,41.15-26.71,92a41.62,41.62,0,0,0,6.31,6.21L19.14,45.4A60,60,0,0,0,11.58,41.15Z"/><path class="cls-70" d="M20.08,46.06l-.93-.66L-20.4,98.19l.43.33c1,.77,2,1.45,3,2L22.48,48A30.77,30.77,0,0,0,20.08,46.06Z"/><path class="cls-69" d="M-18.79,75.86A124.15,124.15,0,0,0-9,83.9l1.1.79c1,.7,1.93,1.31,2.76,1.84A43.53,43.53,0,0,0-.45,89.16l17-22.81a40.13,40.13,0,0,0-4.3-3.8c-.78-.61-1.66-1.29-2.67-2l-1-.73A95.32,95.32,0,0,0-1.85,53.43Z"/><path class="cls-66" d="M-1.2,54-18.14,76.39a124.3,124.3,0,0,0,9.81,8l1.1.79L10.24,61.06l-1-.73A95.37,95.37,0,0,0-1.2,54Z"/><path class="cls-66" d="M.2,89.69l17-22.81a40.23,40.23,0,0,0-4.3-3.8l-17.37,24A43.19,43.19,0,0,0,.2,89.69Z"/><path class="cls-70" d="M-4.46,87.05l17.37-24c-.78-.62-1.66-1.29-2.67-2L-7.22,85.21C-6.22,85.92-5.29,86.53-4.46,87.05Z"/><path class="cls-69" d="M26.41,27.75,8.3,16s-2.64-.7-3.74.84.74,3.87.74,3.87L22.68,33.33a3.77,3.77,0,0,0,3.44-2.14A3.68,3.68,0,0,0,26.41,27.75Z"/><path class="cls-66" d="M27.06,28.29,9,16.54s-2.65-.7-3.74.84.74,3.87.74,3.87L23.33,33.86a3.77,3.77,0,0,0,3.44-2.14A3.69,3.69,0,0,0,27.06,28.29Z"/><path class="cls-70" d="M24.48,29.84,8,17.76S5.76,18,6.64,19.37L23.58,31.18a.8.8,0,0,0,1.1-.24A.83.83,0,0,0,24.48,29.84Z"/><path class="cls-66" d="M-250.23-102l7.25-8.85,2.88,1.78L11.18,48l.94,2.28c-.39,1.8-1.26,4-5.89,4.67Z"/><path class="cls-60" d="M-243.33-107.48l3.21-1.63L11.11,47.52a3.58,3.58,0,0,1,1,4.25c-1.44,3.69-3.43,4.28-3.43,4.28s4.57-3.91,2-7.44S-243.33-107.48-243.33-107.48Z"/><polygon class="cls-71" points="9.37 54.47 -244.94 -101.4 -246.42 -99.6 7.21 55.15 9.37 54.47"/><path class="cls-70" d="M88.37,139.17c1.2-1.46.85-3.3.29-3.77s-.67,1.36-1.61,2.4-2.66,1.54-2.09,2A2.52,2.52,0,0,0,88.37,139.17Z"/><path class="cls-60" d="M88.79,130.91s-4.68-8.47-13.83-4l-1,.32,1.75-2.48S84.78,121.25,88.79,130.91Z"/><path class="cls-66" d="M-260.16-92.32A5.6,5.6,0,0,1-253-94.89c.65.22,1,.44,1,.38L80,103.62,82.28,105l-7.63,13.25L-259-83.9S-263.36-86.75-260.16-92.32Z"/><path class="cls-72" d="M-252.08-94.51l332,198.08-4.6,5.67-333.41-195,5.1-9.14C-252.38-94.67-252-94.45-252.08-94.51Z"/><path class="cls-73" d="M71.67,115.85,68,113.94s-2.23-3.14,1.17-8.2,7.3-4.32,7.3-4.32l1.93,2.72Z"/><path class="cls-66" d="M134,132.38,80.81,97.32s-8.15,4.33-11.45,10-2.61,9.51-2.61,9.51l57.18,32.95Z"/><path class="cls-73" d="M91,129.13l-3.31-1.91s-.82-4.37,2.58-9.42a21.23,21.23,0,0,1,8.89-7.2l.8,3Z"/><path class="cls-66" d="M143.84,133.4s-5.27,16.57-13.77,23.9L87.83,131.68s.6-11.9,13.22-22.94Z"/><path class="cls-66" d="M139.55,162.31l36.53,21,17.34-24-41.64-21.71S134,151.28,139.55,162.31Z"/><path class="cls-73" d="M156.7,172.65l-6.7-5s2.1-7.8,4.51-12.15c4.06-7.33,9-10.5,9-10.5l8.05,2Z"/><path class="cls-60" d="M150.69,142.8a24.81,24.81,0,0,1-10.41,18.06S142.21,150.14,150.69,142.8Z"/><path class="cls-74" d="M133.23,151.81a15.87,15.87,0,0,1,2.15-6.55A21.09,21.09,0,0,1,140,140l4.8,3,4.49,2.36a24.41,24.41,0,0,1-2.74,6.71,16.37,16.37,0,0,1-4.19,5.13S138.45,152.12,133.23,151.81Z"/><path class="cls-66" d="M133.16,151.92a20.68,20.68,0,0,1,6.91-12l7.24,4.17,2,1.18a36,36,0,0,1-3.09,6.67,22.4,22.4,0,0,1-3.94,5.37S137.52,153.18,133.16,151.92Z"/><path class="cls-66" d="M341.66,247.52c14.33-26.87,24.45-86.58-34.05-126.41S191.94,114,177.46,131.32,140.88,180,148.29,215.21c0,0,6.16,58.18,73.55,79.07S331.53,266.53,341.66,247.52Z"/><path class="cls-70" d="M247.64,108.59c-1.53,1.95-49.6,8.82-75.06,53.85s-12.3,81.28-12.3,81.28-5.15-53.12,33.28-92.94S247.64,108.59,247.64,108.59Z"/><path class="cls-75" d="M318.31,189.25s19.92,35.94-25.76,67.1a33.78,33.78,0,0,0,6.21-21.19l-5.8,3.49s21.45-20.25,12.7-46.09c0,0-.47-6.16,5.14-7.41S318.31,189.25,318.31,189.25Z"/><path class="cls-70" d="M140.67,134.56a18.81,18.81,0,0,0-5.81,5.06A65.36,65.36,0,0,0,128.08,152a29.45,29.45,0,0,1,3.09-12L93.91,119.35s1.7-3.42,6.8-7.55Z"/><path class="cls-70" d="M80.15,99.68,95.54,111s-4.83,2.72-6.46,5.54l-13-12.41Z"/><polygon class="cls-63" points="50.24 100.31 149.58 60.5 139.49 40.79 50.24 100.31"/></g><g id="postit"><path class="cls-6" d="M971.38,31.46c-1-7-4.27-6.79-4.27-6.79L791.2,30.11l2.75,113.42.75,0-.75.5H971.11S972.37,38.49,971.38,31.46Z"/><path class="cls-29" d="M962.07,65.27c-1-7-2.25-28.37-2.25-28.37L776.55,151.22,965.11,149S963.05,72.3,962.07,65.27Z"/><polygon class="cls-47" points="781.04 146.68 785.11 35.12 959.82 36.9 961 144.03 781.04 146.68"/><polygon class="cls-76" points="877 85.03 877 137.03 846.5 134.68 877 85.03"/><polygon class="cls-77" points="875.45 136.03 878.11 49.03 873.16 47.03 801.11 132.37 875.45 136.03"/><path class="cls-78" d="M801,50v82.34s56.06-1.67,72.06,3.66c2-18.67.07-89,.07-89l-8.43.47-.33-1C841,50.7,801,50,801,50Z"/><path class="cls-77" d="M873.15,62.2s-1.19-12.26-8.5-15.73c0,0-8.7-.27-9.87,5.56C854.78,52,865.45,49.43,873.15,62.2Z"/><polygon class="cls-79" points="875 79.03 875 48 876.11 48 875 117.36 875 79.03"/><polygon class="cls-80" points="801 50.03 873 136.03 801 132.37 801 50.03"/><path class="cls-81" d="M946.45,102.52c-.33-17.1-5-52.52-5-52.52h-14l-30.33,50,2,1.38S929,105.62,946.45,102.52Z"/><path class="cls-28" d="M918.11,101.41s16.51,2.29,25.67-1.21l-5-50.17-18.5.83Z"/><path class="cls-82" d="M897,50v50c31,4,50.72-2,50.72-2L935,44.37C925.36,50.7,897,50,897,50Z"/><rect class="cls-47" x="616" y="35" width="169" height="135"/><rect class="cls-29" x="627" y="44" width="145" height="109"/><path class="cls-83" d="M627.73,74.63l-3.54-13.26L622,58.74V50l4.75-2L622,46.47V42s54.5-4,89.5-3,65,2.5,65,2.5l2,5-2,.56,4.71,4.24L777,54.33V59l4.26-.26-4.71,10.64Z"/><polygon class="cls-29" points="616 170 627 175 781.04 175 785 170 616 170"/><path class="cls-9" d="M627,72.89,622.5,61.5A652.8,652.8,0,0,1,706,59.2c44,1.8,72.5,2.3,72.5,2.3l-4,21.18Z"/><path class="cls-84" d="M627,66.69S668.41,59,701.68,62.2s74.87,7.19,74.87,7.19L717.5,79Z"/><path class="cls-83" d="M642.73,144.55,620,85.09,619.77,73h2.92L620,69.71V67s65-3,95-2.5,64,5.21,64,5.21l4.59,7.12L781,79l2.56,3.68L754.5,131.12Z"/><path class="cls-85" d="M625,90.9s54.52-12.27,87.52-10.77a464.3,464.3,0,0,1,64,7.9L752,108.1Z"/><path class="cls-12" d="M638,153c-2-25-18.23-60.14-18.23-60.14s24.23-5.08,80.73-8S781,89.06,781,89.06,762,121,759,153Z"/><path class="cls-86" d="M622,82.68s101.5-13.37,156.5-.78c0,0-36.33-11.24-107.16-6.07A235,235,0,0,1,708.5,71.5s-9.74-1.19-23.44-1.93c-18.3-1-43.68-1.15-62.37,3.43A192.55,192.55,0,0,1,674,72.89l-5.5,2.61S637,78.37,622,82.68Z"/><path class="cls-86" d="M622.5,54.33S723,42.67,777,54.33a232.7,232.7,0,0,0-58.5-7.86s32-2.9,55.5.56c0,0-46-6.87-107-1.7,0,0,27-1.91,46.5,1.14C713.5,46.47,649,47.67,622.5,54.33Z"/><g id="tmYYMH"><path class="cls-87" d="M661.71,109.4a6.54,6.54,0,0,0,.12-.79,5.32,5.32,0,0,1,6-5.32,7.45,7.45,0,0,1,6.49,6.57,5.26,5.26,0,0,1-4.66,6.05,7.24,7.24,0,0,1-7.35-4.75c-.16-.4-.33-.8-.5-1.2Zm3.28.49a3.86,3.86,0,0,0,3.72,3.48c1.8,0,2.87-1.45,2.58-3.59s-1.74-3.63-3.57-3.64C665.73,106.14,664.62,107.68,665,109.89Z"/><path class="cls-87" d="M708.83,106l.24-2.61h4l-1.41,12.47c-1.45.28-2.69.29-3.5-1.27a46.6,46.6,0,0,0-2.92-4.39l-.34,2.5h-2.68c.16-3,.33-6,.52-9.29,1.64-.38,3-.22,3.89,1.42a42,42,0,0,0,2.92,4C710.12,107,710,106.45,708.83,106Z"/><path class="cls-87" d="M674,103.32c2.1,0,4.06-.14,6,0,2.24.21,3.58,1.83,3.8,4.17a3.9,3.9,0,0,1-2.83,4.4,25.58,25.58,0,0,1-3,.37l.31,3.56h-3Zm3.82,7.18c.46,0,.77.07,1.07,0a2.6,2.6,0,0,0,2.39-3,3,3,0,0,0-3.3-2.37.9.9,0,0,0-.53.75C677.58,107.44,677.74,109,677.87,110.5Z"/><path class="cls-87" d="M712.41,116l5.81-7.74a22.86,22.86,0,0,0,1.92-2.59c1.27-2.33,3-2.82,5.07-2.2L723,115.85h-2.75l1.26-7.68a11.23,11.23,0,0,0-1,.93c-1.38,1.83-2.81,3.59-4,5.42-.75,1.13-1.52,1.68-2.74,1.45A9.5,9.5,0,0,0,712.41,116Z"/><path class="cls-87" d="M701.68,103.33l-.14,2.81h-3.76l-.14,1.91,1.87.22c.43,2.36.31,2.54-1.86,2.83,0,.66,0,1.32-.06,2.15h3.57l-.13,2.6h-6.37c0-4,.09-8.08.14-12.51Z"/><path class="cls-87" d="M726.54,110.21c.91-.11,1.54-.14,2.18-.29a2.12,2.12,0,0,0,1.8-1.94c.12-1.13-.3-1.76-1.43-1.76h-3.38l.58-3.09a48.75,48.75,0,0,1,5.68.56c1.45.31,1.88,1.68,1.72,3.25a5.19,5.19,0,0,1-2.38,4c-.29.19-.61.32-1.06.55l1.7,4.18c-2.38.65-3,.4-3.78-1.4C727.65,113,727.14,111.71,726.54,110.21Z"/><path class="cls-87" d="M686.7,110.22c.88-.13,1.55-.17,2.19-.33a1.61,1.61,0,0,0,1.29-2,1.71,1.71,0,0,0-1.78-1.68H685c0-1-.08-1.89-.13-3.06,1.88.13,3.7.14,5.48.43,1.59.25,2.55,1.63,2.79,3.47s-.43,3.33-2.36,4.5l2.76,4.41c-1,0-1.84,0-2.65,0a1.23,1.23,0,0,1-.82-.48C689,113.82,687.91,112.12,686.7,110.22Z"/></g><path class="cls-43" d="M633.78,131.12S688,123,759,153H638S635.56,137.19,633.78,131.12Z"/><path class="cls-88" d="M635.87,127.85c40.37-4.62,82.33-5.45,122.62,0,.92.13,2-.9,2.9-.78-40.29-5.45-82.24-4.62-122.62,0-1,.11-1.92.66-2.9.78Z"/><path class="cls-88" d="M637.19,133.29c14.21-1.42,28.49-2.26,42.76-2.84,25.3-1,51.26-1.5,76.3,2.84.9.16,2-.93,2.9-.78-24.64-4.27-50.13-3.82-75-2.89-14.69.55-29.4,1.43-44,2.89-1,.1-1.92.68-2.9.78Z"/><path class="cls-88" d="M638.41,137.42c38.85-3.79,79.19-4.37,117.84,1.37.92.14,2-.91,2.9-.78-38.65-5.74-79-5.16-117.84-1.37-1,.1-1.92.68-2.9.78Z"/><path class="cls-88" d="M638.41,143.95c13.79-1.34,27.65-2.13,41.5-2.68,24.91-1,50.37-1.35,75.05,2.68.91.15,2-.92,2.9-.78-24.27-4-49.26-3.61-73.77-2.72-14.27.52-28.57,1.34-42.78,2.72-1,.1-1.92.68-2.9.78Z"/><path class="cls-88" d="M640.43,147.94c14.23-1.14,28.52-1.83,42.79-2.3,23-.76,46.71-1.52,69.48,2.3.91.15,2-.93,2.9-.78-22.78-3.83-46.49-3-69.48-2.3-14.27.45-28.55,1.17-42.79,2.3-1,.08-1.92.7-2.9.78Z"/><polygon class="cls-43" points="791.68 46.27 825.88 43.31 856.43 101.15 807.33 138 794 138 791.68 46.27"/><polygon class="cls-6" points="781.04 175 833.31 150.55 783.59 138 781.04 175"/></g><g id="lapices"><path class="cls-89" d="M264.4,461.4a6.71,6.71,0,0,0,1.45-7.26L108.65,376l-15.39-5.4a2.3,2.3,0,0,0-.15-.22l-10-3.45,7.79,6.41h0L105.6,385.5l0,.12,154.3,78.63,1.1-.7.13.06a10,10,0,0,0,3.25-2.22h0Z"/><polygon class="cls-90" points="84.75 365.3 106.89 383.93 110 379 110 374.4 84.75 365.3"/><path class="cls-91" d="M106.89,384l154.84,79.35s7.05-2.63,4.78-9.45L110,374.4a3.05,3.05,0,0,0-.63,1.94A7.74,7.74,0,0,0,110,379Z"/><path class="cls-92" d="M106.89,384a4.89,4.89,0,0,1,.37-3.38A4.35,4.35,0,0,1,110,379l155,82.18L260.5,464Z"/><path class="cls-29" d="M94.75,371a2.15,2.15,0,0,0-.24-2.35l-10-3.54,7.73,6.48S94,372.21,94.75,371Z"/><path class="cls-89" d="M51,282c-1,1.19-3,3.38-2.57,6.92l137.9,108.92,14,8.48a1,1,0,0,0,.15.26l9.45,5.45-6-7.88h0l-12.23-15c0-.08-.16-.12-.16-.12L56.74,280.39l-1.26.46-.13-.22A13.69,13.69,0,0,0,51.69,282H51Z"/><polygon class="cls-90" points="209.69 412.31 191.86 389.52 187.81 393.7 186.86 398.2 209.69 412.31"/><path class="cls-91" d="M191.88,389.43,56.71,279.88s-7.44,1.12-6.63,8.26L186.86,398.2a3.05,3.05,0,0,0,1-1.77,7.75,7.75,0,0,0-.07-2.73Z"/><path class="cls-92" d="M191.88,389.43a4.89,4.89,0,0,1-1.06,3.23,4.35,4.35,0,0,1-3,1.05L53.06,281.36l5-1.83Z"/><path class="cls-29" d="M201.08,404.67a2.15,2.15,0,0,0-.25,2.35l9.06,5.53-6.23-7.94S202,403.64,201.08,404.67Z"/></g></g></svg>