<svg xmlns="http://www.w3.org/2000/svg" viewBox="0 0 619.6 500.28"><defs><style>.cls-1{isolation:isolate;}.cls-2{fill:#3f2e20;opacity:0.3;}.cls-2,.cls-6{mix-blend-mode:multiply;}.cls-3{fill:#c4ab18;}.cls-4{fill:#a8a59e;}.cls-5{fill:#d1cfcb;}.cls-6,.cls-8{fill:#af9619;}.cls-6{opacity:0.4;}.cls-7{fill:#baa217;}.cls-9{fill:#d3bd18;}.cls-10,.cls-11{fill:#4d4d4d;}.cls-11{font-size:29px;font-family:MyriadPro-Regular, Myriad Pro;}.cls-12{letter-spacing:0.01em;}.cls-13{letter-spacing:-0.02em;}.cls-14{fill:#333;}.cls-14,.cls-16{opacity:0.2;}.cls-15{fill:#005187;}.cls-16,.cls-17{fill:none;stroke-miterlimit:10;stroke-width:1.74px;}.cls-16{stroke:#000;}.cls-17{stroke:#7c181f;}</style></defs><title>pantallas_04</title><g class="cls-1"><g id="carpetas"><polygon class="cls-2" points="31.85 348.2 43.83 500.23 208.63 488.78 505.4 500.28 505.4 472.28 593.4 481.89 608.11 146.28 619.6 140.28 613.95 41.45 594.41 22.96 31.85 348.2"/><path class="cls-3" d="M247.43,478s177.59,9.11,331.3,4L567.26,90.29l-306-3.67Z"/><polygon class="cls-4" points="278.87 477.12 286.67 44.41 573.57 37.98 568.25 481.89 278.87 477.12"/><polygon class="cls-5" points="283.45 477.5 294.58 40.58 581.47 34.15 576.15 478.06 283.45 477.5"/><path class="cls-3" d="M252.93,19.1,590,19.69l18.1,13.47L607,133.43l-17.62,9.51-1.42,331.74c-93.51-6.11-340.48,2.06-340.48,2.06Z"/><polygon class="cls-6" points="262.93 30.1 257.43 489.05 534.01 483.59 511.72 30.39 262.93 30.1"/><path class="cls-3" d="M46.85,494.42s177.47-11.19,329.59-33.82l-56-387.87L16,104Z"/><polygon class="cls-4" points="77.98 489.91 36.41 59.14 320.7 20.05 366.02 461.68 77.98 489.91"/><polygon class="cls-5" points="82.57 489.77 43.83 54.43 328.12 15.34 373.43 456.96 82.57 489.77"/><path class="cls-7" d="M0,37.84,335,0l19.52,11.32,10.28,99.75-16.42,11.46,36.4,329.74c-93.6,4.58-338,40.85-338,40.85Z"/><polygon class="cls-8" points="153.95 20.45 137.73 480.2 242.94 466.43 169.15 18.73 153.95 20.45"/><path class="cls-3" d="M158.53,485.62s177.69,7.1,331.32.11L473.7,94.28h-306Z"/><polygon class="cls-4" points="189.47 484.08 191.84 51.31 478.4 41.45 478.4 485.39 189.47 484.08"/><polygon class="cls-5" points="194.13 484.41 199.81 47.39 486.4 37.52 486.4 481.46 194.13 484.41"/><path class="cls-9" d="M158.4,26.41,495.54,23l18.29,13.25.06,100.28-17.5,9.72,2.49,331.73c-93.57-5-340.49,6.14-340.49,6.14Z"/><path class="cls-10" d="M208.4,336.28l10.57-.19c6.73-.08,16.34-.28,27.87-.37s25-.27,39.4-.31l45.16-.13,45.16.13c14.41,0,27.87.22,39.4.3s21.14.29,27.87.37l10.57.19-10.57.19c-6.73.08-16.34.28-27.87.37s-25,.27-39.4.3l-45.16.13-45.16-.13c-14.41,0-27.87-.22-39.4-.31s-21.14-.29-27.87-.37Z"/><path class="cls-10" d="M208.4,207.28l10.57-.19c6.73-.08,16.34-.28,27.87-.37s25-.27,39.4-.31l45.16-.13,45.16.13c14.41,0,27.87.22,39.4.3s21.14.29,27.87.37l10.57.19-10.57.19c-6.73.08-16.34.28-27.87.37s-25,.27-39.4.3l-45.16.13-45.16-.13c-14.41,0-27.87-.22-39.4-.31s-21.14-.29-27.87-.37Z"/><text class="cls-11" transform="translate(237.33 261.13)">PR<tspan class="cls-12" x="31.03" y="0">E</tspan><tspan x="45.56" y="0">VENCIÓN DE</tspan><tspan x="23.03" y="34.8">ADI</tspan><tspan class="cls-13" x="67.02" y="34.8">C</tspan><tspan x="83.23" y="34.8">CIONES</tspan></text><path class="cls-5" d="M501.73,176.36c-53.14-5.43-149.6-10.89-149.6-10.89L363,15.87S485,28,512.62,26.76C512.62,26.76,500.13,153.6,501.73,176.36Z"/><polygon class="cls-14" points="364.61 156.41 495.69 170.14 498.89 40.36 364.61 156.41"/><rect class="cls-15" x="367.17" y="30.92" width="130.4" height="130.4" transform="translate(305.12 520.38) rotate(-85.84)"/><path class="cls-16" d="M444.06,22.5c-.12-2.77-.15-2.7-.24-2.85-.37-.59-10.09-.8-10.71-.22s0,18.73,3.55,25.74,8.07,5.7,6.8-11.76"/><path class="cls-17" d="M443.33,22.87a18.54,18.54,0,0,0-.24-2.73c-.37-.59-10.09-.8-10.71-.22s0,18.73,3.55,25.74,8.07,5.7,6.8-11.76"/></g></g></svg>