<svg xmlns="http://www.w3.org/2000/svg" xmlns:xlink="http://www.w3.org/1999/xlink" viewBox="0 0 76.25 180.49"><defs><style>.cls-1{fill:none;}.cls-2{isolation:isolate;}.cls-3{fill:#3f2e20;opacity:0.3;mix-blend-mode:multiply;}.cls-4{fill:#666;}.cls-5{fill:#5b5b5b;}.cls-6{fill:#515151;}.cls-7{fill:#243056;}.cls-8{fill:#252e4c;}.cls-12,.cls-9{opacity:0.5;}.cls-9{mix-blend-mode:lighten;}.cls-10{clip-path:url(#clip-path);}.cls-11{fill:#384775;}.cls-12{fill:#777;}.cls-13{fill:#20293f;}</style><clipPath id="clip-path"><path class="cls-1" d="M4.53,18.35a8.88,8.88,0,0,1,4.68-3.58,9,9,0,0,1,5.9-.22S27,35.22,30.34,46,42.16,82.38,48.07,95c0,0-8.58,1.48-13.14,6.59,0,0-8.15-22.65-12.12-31.94S5.54,31.45,4.53,18.35Z"/></clipPath></defs><title>pantallas_04</title><g class="cls-2"><g id="lapicera"><path class="cls-3" d="M73.5,178.88h0a5.94,5.94,0,0,0,2.74-1.28c.18-10.3-2.87-24.69-2.87-24.69-3-19-14.85-49-16.88-54,.05,0-.16.47-.16.47L55.7,99h0l-2.3-5.52C48.09,80.61,41,54.43,38.12,43.5S24.45,11.26,24.45,11.26L22.72,8.55c-.66-.19-1.29.21-1.87.13L20.47,8h0L18.31.73c-5.82-2.37-6.4,1.79-6.4,1.79L14.8,7.8a6.14,6.14,0,0,0-5.53,6.46l2,5.84-.52,1.14s-.59,11.86,5.42,26.53A213.37,213.37,0,0,0,28.05,72.48l.82.37L35.62,93q-.08-5-.4-9.94c2.67,8.3,5,16,5,16l1.24,4.7c.34,2.11,2.18,8.12,4.56,15.41,5.5,17.2,13.11,38.44,13.11,38.44,2.84,7.63,12,22.29,12,22.29a15.35,15.35,0,0,0,2.14.16h0l0-.46c.18-.06.12-.37.29-.44ZM13.39,32.82c0,.11.38,1.79,1,4.31A33.43,33.43,0,0,1,13.39,32.82ZM24.66,64.1l.15.27h0Zm.53.31c-1.48-5.3-9.8-26.3-9.73-31.7l10.66,31.9A8.65,8.65,0,0,0,25.19,64.42Z"/><path class="cls-4" d="M6.43,13.53,2.11,6.25S2.5,1.8,8.42,3.89l3.52,9.41Z"/><path class="cls-5" d="M7,14.33,5.61,12.15s1.55-1.62,5.29-1.6l.81,2.17Z"/><path class="cls-4" d="M4.19,14.61s2.37-4.16,9-2.62l1.89,2.57L4.73,20.17S4.46,17.62,4.19,14.61Z"/><path class="cls-4" d="M34.93,101.62S37,95.38,48.07,95l3.22,5.66s-7.4-.56-14.9,5.57Z"/><path class="cls-6" d="M2.59,25.4l3-.64,5,11.51s-3.29-1.94-3.53-.36c-.69,4.51,10.74,29.38,11.42,32.67a87.07,87.07,0,0,1-8.24-15.65A150.17,150.17,0,0,1,5,36.72Z"/><path class="cls-4" d="M2.45,23.59l-.66,1.68s0,11.88,6.65,26.25A213.27,213.27,0,0,0,21.51,75.66l1,.41s-.24-5.65-1.15-7-3.55-1.39-3.55-1.39S6.53,44.83,5,36.71L3.48,28.6l1.11.12S4.27,24.8,2.45,23.59Z"/><path class="cls-4" d="M56.55,159.22l14.1-5.34s3.84,14.23,4.13,24.53c0,0-3.07,2.26-5.17,2.06C69.61,180.47,59.74,166.71,56.55,159.22Z"/><path class="cls-7" d="M4.53,18.35a8.88,8.88,0,0,1,4.68-3.58,9,9,0,0,1,5.9-.22S27,35.22,30.34,46,42.16,82.38,48.07,95c0,0-8.58,1.48-13.14,6.59,0,0-8.15-22.65-12.12-31.94S5.54,31.45,4.53,18.35Z"/><path class="cls-8" d="M36.39,106.26s6.3-6.73,14.49-6.29c0,0,15.53,33.34,19.77,53.92,0,0-6.94,5.62-14.1,5.34C56.55,159.22,40.94,121.34,36.39,106.26Z"/><g class="cls-9"><g class="cls-10"><path class="cls-11" d="M9.55,11.37S27.07,49.87,30,95.83L0,18.31S-1,10.37,9.55,11.37Z"/></g></g><path class="cls-12" d="M3.58,5.61A3,3,0,0,1,5,4.48l3.29,7.4L7,12.32Z"/><path class="cls-12" d="M5.66,13.08a12.4,12.4,0,0,0,1,3.06l.84-.66-.9-2.91Z"/><polygon class="cls-12" points="38.12 98.92 40.28 97.69 42.24 102 40.11 103.24 38.12 98.92"/><path class="cls-12" d="M61.05,158.7a79.72,79.72,0,0,0,10.71,21.38l.59-.25s-6.9-17.32-8.38-22.1Z"/><path class="cls-13" d="M42.24,102,61.05,158.7a10,10,0,0,1-4.5.52S37.8,113,36.39,106.26A17.16,17.16,0,0,1,42.24,102Z"/></g></g></svg>