<svg xmlns="http://www.w3.org/2000/svg" viewBox="0 0 355.76 150.33"><defs><style>.cls-1{isolation:isolate;}.cls-2{fill:#3f2e20;opacity:0.3;mix-blend-mode:multiply;}.cls-20,.cls-3{fill:#333;}.cls-4{fill:#1a1a1a;}.cls-5,.cls-8{fill:#99840a;}.cls-6,.cls-9{fill:#d1b90d;}.cls-7{fill:#f2db08;}.cls-8{opacity:0.6;}.cls-11,.cls-20,.cls-9{opacity:0.2;}.cls-10{fill:#55822e;}.cls-12{fill:#50a30f;}.cls-13{fill:#cccac6;}.cls-14{fill:#86272d;}.cls-15{fill:#691e23;}.cls-16{fill:#a6a5a2;opacity:0.5;}.cls-17{fill:#d1cfcb;}.cls-18{fill:#bab9b5;}.cls-19{fill:#8a8a8a;fill-rule:evenodd;}.cls-21{fill:#a8a8a8;}</style></defs><title>pantallas_04</title><g class="cls-1"><g id="postit"><path class="cls-2" d="M355.38,6.79c-1-7-4.27-6.79-4.27-6.79L175.2,5.44l2.75,113.42.75,0-.75.5H355.11S356.37,13.82,355.38,6.79Z"/><path class="cls-3" d="M346.07,40.59c-1-7-2.25-28.37-2.25-28.37L160.55,126.55l188.56-2.22S347.05,47.63,346.07,40.59Z"/><polygon class="cls-4" points="165.04 122.01 169.11 10.45 343.82 12.23 345 119.36 165.04 122.01"/><polygon class="cls-5" points="261 60.36 261 112.36 230.5 110.01 261 60.36"/><polygon class="cls-6" points="259.45 111.36 262.11 24.36 257.16 22.36 185.11 107.69 259.45 111.36"/><path class="cls-7" d="M185,25.36V107.7s56.06-1.67,72.06,3.67c2-18.67.07-89,.07-89l-8.43.47-.33-1C225,26,185,25.36,185,25.36Z"/><path class="cls-6" d="M257.15,37.53S256,25.27,248.64,21.8c0,0-8.7-.27-9.87,5.56C238.78,27.36,249.45,24.76,257.15,37.53Z"/><polygon class="cls-8" points="259 54.36 259 23.33 260.11 23.33 259 92.69 259 54.36"/><polygon class="cls-9" points="185 25.36 257 111.36 185 107.69 185 25.36"/><path class="cls-10" d="M330.45,77.85c-.33-17.1-5-52.52-5-52.52h-14l-30.33,50,2,1.38S313,80.94,330.45,77.85Z"/><path class="cls-11" d="M302.11,76.73s16.51,2.29,25.67-1.21l-5-50.17-18.5.83Z"/><path class="cls-12" d="M281,25.36v50c31,4,50.72-2,50.72-2L319,19.69C309.36,26,281,25.36,281,25.36Z"/><rect class="cls-4" y="10.33" width="169" height="135"/><rect class="cls-3" x="11" y="19.33" width="145" height="109"/><path class="cls-13" d="M11.73,50,8.19,36.69,6,34.07V25.33l4.75-2L6,21.8V17.33s54.5-4,89.5-3,65,2.5,65,2.5l2,5-2,.56,4.71,4.24L161,29.66v4.67l4.26-.26-4.71,10.64Z"/><polygon class="cls-3" points="0 145.33 11 150.33 165.04 150.33 169 145.33 0 145.33"/><path class="cls-14" d="M11,48.21,6.5,36.83A652.8,652.8,0,0,1,90,34.53c44,1.8,72.5,2.3,72.5,2.3L158.5,58Z"/><path class="cls-15" d="M11,42s41.41-7.64,74.68-4.49,74.87,7.19,74.87,7.19l-59,9.62Z"/><path class="cls-13" d="M26.73,119.88,4,60.42,3.77,48.33H6.69L4,45V42.33s65-3,95-2.5S163,45,163,45l4.59,7.12L165,54.33,167.59,58,138.5,106.45Z"/><path class="cls-16" d="M9,66.23S63.52,54,96.52,55.46a464.3,464.3,0,0,1,64,7.9L136,83.43Z"/><path class="cls-17" d="M22,128.33c-2-25-18.23-60.14-18.23-60.14s24.23-5.08,80.73-8S165,64.39,165,64.39s-19,31.94-22,63.94Z"/><path class="cls-18" d="M6,58s101.5-13.37,156.5-.78c0,0-36.33-11.24-107.16-6.07A235,235,0,0,1,92.5,46.83s-9.74-1.19-23.44-1.93c-18.3-1-43.68-1.15-62.37,3.43A192.55,192.55,0,0,1,58,48.21l-5.5,2.61S21,53.69,6,58Z"/><path class="cls-18" d="M6.5,29.66S107,18,161,29.66a232.7,232.7,0,0,0-58.5-7.86s32-2.9,55.5.56c0,0-46-6.87-107-1.7,0,0,27-1.91,46.5,1.14C97.5,21.8,33,23,6.5,29.66Z"/><g id="tmYYMH"><path class="cls-19" d="M45.71,84.72a6.54,6.54,0,0,0,.12-.79,5.32,5.32,0,0,1,6-5.32,7.45,7.45,0,0,1,6.49,6.57,5.26,5.26,0,0,1-4.66,6.05,7.24,7.24,0,0,1-7.35-4.75c-.16-.4-.33-.8-.5-1.2Zm3.28.49a3.86,3.86,0,0,0,3.72,3.48c1.8,0,2.87-1.45,2.58-3.59s-1.74-3.63-3.57-3.64C49.73,81.46,48.62,83,49,85.22Z"/><path class="cls-19" d="M92.83,81.3l.24-2.61h4L95.68,91.17c-1.45.28-2.69.29-3.5-1.27a46.6,46.6,0,0,0-2.92-4.39L88.92,88H86.24c.16-3,.33-6,.52-9.29,1.64-.38,3-.22,3.89,1.42a42,42,0,0,0,2.92,4C94.12,82.32,94,81.78,92.83,81.3Z"/><path class="cls-19" d="M58,78.65c2.1,0,4.06-.14,6,0,2.24.21,3.58,1.83,3.8,4.17A3.9,3.9,0,0,1,65,87.26a25.58,25.58,0,0,1-3,.37l.31,3.56h-3Zm3.82,7.18c.46,0,.77.07,1.07,0a2.6,2.6,0,0,0,2.39-3A3,3,0,0,0,62,80.48a.9.9,0,0,0-.53.75C61.58,82.77,61.74,84.29,61.87,85.83Z"/><path class="cls-19" d="M96.41,91.29l5.81-7.74A22.86,22.86,0,0,0,104.14,81c1.27-2.33,3-2.82,5.07-2.2L107,91.18h-2.75l1.26-7.68a11.23,11.23,0,0,0-1,.93c-1.38,1.83-2.81,3.59-4,5.42C99.75,91,99,91.52,97.76,91.3A9.5,9.5,0,0,0,96.41,91.29Z"/><path class="cls-19" d="M85.68,78.66l-.14,2.81H81.78l-.14,1.91,1.87.22c.43,2.36.31,2.54-1.86,2.83,0,.66,0,1.32-.06,2.15h3.57L85,91.17H78.67c0-4,.09-8.08.14-12.51Z"/><path class="cls-19" d="M110.54,85.54c.91-.11,1.54-.14,2.18-.29a2.12,2.12,0,0,0,1.8-1.94c.12-1.13-.3-1.76-1.43-1.76h-3.38l.58-3.09A48.75,48.75,0,0,1,116,79c1.45.31,1.88,1.68,1.72,3.25a5.19,5.19,0,0,1-2.38,4c-.29.19-.61.32-1.06.55L116,91c-2.38.65-3,.4-3.78-1.4C111.65,88.36,111.14,87,110.54,85.54Z"/><path class="cls-19" d="M70.7,85.55c.88-.13,1.55-.17,2.19-.33a1.61,1.61,0,0,0,1.29-2,1.71,1.71,0,0,0-1.78-1.68H69c0-1-.08-1.89-.13-3.06,1.88.13,3.7.14,5.48.43,1.59.25,2.55,1.63,2.79,3.47s-.43,3.33-2.36,4.5l2.76,4.41c-1,0-1.84,0-2.65,0a1.23,1.23,0,0,1-.82-.48C73,89.15,71.91,87.45,70.7,85.55Z"/></g><path class="cls-20" d="M17.78,106.45S72,98.33,143,128.33H22S19.56,112.52,17.78,106.45Z"/><path class="cls-21" d="M19.87,103.18c40.37-4.62,82.33-5.45,122.62,0,.92.13,2-.9,2.9-.78-40.29-5.45-82.24-4.62-122.62,0-1,.11-1.92.66-2.9.78Z"/><path class="cls-21" d="M21.19,108.62c14.21-1.42,28.49-2.26,42.76-2.84,25.3-1,51.26-1.5,76.3,2.84.9.16,2-.93,2.9-.78C118.51,103.57,93,104,68.12,105c-14.69.55-29.4,1.43-44,2.89-1,.1-1.92.68-2.9.78Z"/><path class="cls-21" d="M22.41,112.75c38.85-3.79,79.19-4.37,117.84,1.37.92.14,2-.91,2.9-.78-38.65-5.74-79-5.16-117.84-1.37-1,.1-1.92.68-2.9.78Z"/><path class="cls-21" d="M22.41,119.27c13.79-1.34,27.65-2.13,41.5-2.68,24.91-1,50.37-1.35,75.05,2.68.91.15,2-.92,2.9-.78-24.27-4-49.26-3.61-73.77-2.72-14.27.52-28.57,1.34-42.78,2.72-1,.1-1.92.68-2.9.78Z"/><path class="cls-21" d="M24.43,123.27c14.23-1.14,28.52-1.83,42.79-2.3,23-.76,46.71-1.52,69.48,2.3.91.15,2-.93,2.9-.78-22.78-3.83-46.49-3-69.48-2.3-14.27.45-28.55,1.17-42.79,2.3-1,.08-1.92.7-2.9.78Z"/><polygon class="cls-20" points="175.68 21.59 209.88 18.63 240.43 76.48 191.33 113.33 178 113.33 175.68 21.59"/><polygon class="cls-2" points="165.04 150.33 217.31 125.88 167.59 113.33 165.04 150.33"/></g></g></svg>