<svg xmlns="http://www.w3.org/2000/svg" viewBox="0 0 1008.53 791.4"><defs><style>.cls-1{isolation:isolate;}.cls-2{fill:#d3c663;opacity:0.2;mix-blend-mode:screen;}.cls-16,.cls-17,.cls-3,.cls-6{fill:#8a867d;}.cls-10,.cls-12,.cls-15,.cls-18,.cls-4,.cls-8{fill:none;stroke-miterlimit:10;}.cls-18,.cls-4{stroke:#6e6a63;}.cls-4{stroke-width:2.24px;}.cls-10,.cls-12,.cls-15,.cls-18,.cls-4{opacity:0.8;}.cls-5{fill:#969388;}.cls-6{opacity:0.4;}.cls-13,.cls-14,.cls-7{fill:#b5b1a4;}.cls-16,.cls-7{opacity:0.3;}.cls-10,.cls-12,.cls-15,.cls-8{stroke:#8a867d;}.cls-12,.cls-8{stroke-width:1.96px;}.cls-9{fill:#a39f94;}.cls-10{stroke-width:4.19px;}.cls-11{fill:#969389;}.cls-14{opacity:0.5;}.cls-15{stroke-width:1.88px;}.cls-17{opacity:0.6;}.cls-18{stroke-width:1.18px;}.cls-19{fill:#bdb9ab;}</style></defs><title>pantallas_04</title><g class="cls-1"><g id="lampara-luz"><path class="cls-2" d="M958.64,685.78c-84.22,115-245.73,140-360.73,55.73s-215.19-312.8-131-427.81,321-72.88,436,11.34S1042.86,570.77,958.64,685.78Z"/><ellipse class="cls-3" cx="357.18" cy="274.48" rx="109.66" ry="109.05" transform="translate(-81.5 376.85) rotate(-50.68)"/><ellipse class="cls-4" cx="355.89" cy="273.42" rx="106.94" ry="106.35" transform="translate(-81.15 375.46) rotate(-50.68)"/><ellipse class="cls-5" cx="356.54" cy="273.95" rx="106.94" ry="106.35" transform="translate(-81.32 376.16) rotate(-50.68)"/><polygon class="cls-3" points="355.57 273.16 444.82 213.64 430.72 196.48 355.57 273.16"/><polygon class="cls-6" points="355.57 273.16 265.7 330.31 256.73 311.98 355.57 273.16"/><polygon class="cls-3" points="355.57 273.16 275.06 343.21 265.7 330.31 355.57 273.16"/><polygon class="cls-7" points="462.22 287.34 355.57 273.16 463.11 271.71 462.22 287.34"/><polygon class="cls-7" points="355.57 273.16 250.06 279.42 250.17 267.66 355.57 273.16"/><path class="cls-8" d="M380.43,298.38l-.1.12-.08.1a6.89,6.89,0,0,0-1,1.51,10,10,0,0,0,15.11,12.37l.71-.61a9.1,9.1,0,0,0,.69-.76,9.86,9.86,0,0,0,1.17-1.81l2.32-3.18s3.67-5.64-2.61-10.69-11.43-2.92-13.31-.64Z"/><path class="cls-9" d="M396.18,311.42l4.22-5.79s3.67-5.65-2.6-10.69-11.43-2.93-13.31-.64-3.78,4.92-3.78,4.92Z"/><circle class="cls-9" cx="389.18" cy="304.31" r="9.98" transform="translate(-92.85 412.54) rotate(-50.68)"/><path class="cls-10" d="M310.2,193.21l14.35,10.41-7.07,10.29c-1-.51-1.65-.81-1.65-.81l-10.56,14c-1.38-.78-2.23-1.21-2.23-1.21l-16.93,22.43s.72.66,1.9,1.69l-10.47,13.9a41.62,41.62,0,0,0,6.31,6.21l.43.33c1,.77,2,1.45,3,2a38.18,38.18,0,0,0,4.6,2.48l10.74-14.3c1.19.66,1.85,1,1.85,1l17-22.81s-.46-.5-1.42-1.37l10.28-13.68s-.62-.81-1.71-2l11.89-17.48s-2.06-4-8.76-7c-.7-.32-1.45-.62-2.26-.91l-1.23,1.79-15-9.75s-2.65-.7-3.75.84S310.2,193.21,310.2,193.21Z"/><path class="cls-9" d="M319.71,217.64l9.21,6.22,12.66-18.62s-2.06-4-8.76-7l-1.34,2Z"/><path class="cls-11" d="M317.59,216.22l2.11,1.43,11.76-17.39,1.34-2c-.7-.32-1.45-.62-2.26-.91Z"/><path class="cls-12" d="M278.19,264.48a41.61,41.61,0,0,0,6.31,6.21l.43.33c1,.77,2,1.45,3,2a38.18,38.18,0,0,0,4.6,2.47L331,224.32a32,32,0,0,0-3.59-3.79,30.72,30.72,0,0,0-2.41-2l-.93-.66a60.06,60.06,0,0,0-7.56-4.25Z"/><path class="cls-9" d="M292.93,275.88l38.47-51.2a32,32,0,0,0-3.58-3.79L288.33,273.4A38.38,38.38,0,0,0,292.93,275.88Z"/><path class="cls-9" d="M316.91,214l-38.29,50.83a41.62,41.62,0,0,0,6.31,6.21l39.54-52.79A60,60,0,0,0,316.91,214Z"/><path class="cls-13" d="M325.4,218.91l-.93-.66L284.93,271l.43.33c1,.77,2,1.45,3,2l39.48-52.52A30.77,30.77,0,0,0,325.4,218.91Z"/><path class="cls-12" d="M286.54,248.71a124.15,124.15,0,0,0,9.81,8l1.1.79c1,.7,1.93,1.31,2.76,1.84a43.53,43.53,0,0,0,4.66,2.64l17-22.81a40.13,40.13,0,0,0-4.3-3.8c-.78-.61-1.66-1.29-2.67-2l-1-.73a95.32,95.32,0,0,0-10.42-6.37Z"/><path class="cls-9" d="M304.12,226.81l-16.93,22.43a124.3,124.3,0,0,0,9.81,8l1.1.79,17.46-24.15-1-.73A95.37,95.37,0,0,0,304.12,226.81Z"/><path class="cls-9" d="M305.53,262.54l17-22.81a40.23,40.23,0,0,0-4.3-3.8l-17.37,24A43.19,43.19,0,0,0,305.53,262.54Z"/><path class="cls-13" d="M300.87,259.9l17.37-24c-.78-.62-1.66-1.29-2.67-2l-17.46,24.15C299.11,258.77,300,259.38,300.87,259.9Z"/><path class="cls-12" d="M331.74,200.6l-18.11-11.74s-2.64-.7-3.74.84.74,3.87.74,3.87L328,206.18a3.77,3.77,0,0,0,3.44-2.14A3.68,3.68,0,0,0,331.74,200.6Z"/><path class="cls-9" d="M332.39,201.14l-18.11-11.74s-2.65-.7-3.74.84.74,3.87.74,3.87l17.38,12.61a3.77,3.77,0,0,0,3.44-2.14A3.69,3.69,0,0,0,332.39,201.14Z"/><path class="cls-13" d="M329.81,202.69l-16.53-12.08s-2.19.24-1.32,1.61L328.91,204a.8.8,0,0,0,1.1-.24A.83.83,0,0,0,329.81,202.69Z"/><path class="cls-9" d="M23.62,118.39l6.39-5.6.26.14L288.5,254.47a5.37,5.37,0,0,1,.47,1.14c.55,1.82.84,5.53-4,8.94L22.38,123.87Z"/><path class="cls-9" d="M55.1,70.84,62.35,62l2.88,1.78L316.51,220.88l.94,2.28c-.39,1.8-1.26,4-5.89,4.67Z"/><path class="cls-3" d="M24.31,125.45a18.74,18.74,0,0,0,4.51-4.61,26.26,26.26,0,0,0,3.24-6.94l-7.37,6.2Z"/><path class="cls-3" d="M30.27,112.93,288.5,254.47a5.7,5.7,0,0,1,.71,4,10.63,10.63,0,0,1-1.89,4,12.33,12.33,0,0,0,1.4-4.12,6.29,6.29,0,0,0-1-3.38L30.46,115.26Z"/><path class="cls-3" d="M60,72.24s1.23.18,3.37-2.88S65,64.54,65,64.54l-5.75,4.08Z"/><path class="cls-3" d="M62,65.37l3.21-1.63L316.44,220.37a3.58,3.58,0,0,1,1,4.25c-1.44,3.69-3.43,4.28-3.43,4.28s4.57-3.91,2-7.44S62,65.37,62,65.37Z"/><polygon class="cls-14" points="314.7 227.31 60.38 71.45 58.91 73.25 312.54 228 314.7 227.31"/><polygon class="cls-14" points="287.8 261.46 26.91 123.18 23.88 124.68 284.94 264.55 287.8 261.46"/><path class="cls-9" d="M20.95,130.47,69.72,57.82s-4.21-7.77-9.57-11.37-14.28-4.61-14.28-4.61l-45.24,72s-3.47,6,5.88,12.22S20.95,130.47,20.95,130.47Z"/><path class="cls-13" d="M393.7,312c1.2-1.46.86-3.3.29-3.77s-.67,1.36-1.61,2.4-2.66,1.54-2.09,2A2.52,2.52,0,0,0,393.7,312Z"/><path class="cls-3" d="M394.12,303.76s-4.68-8.47-13.83-4l-1,.32,1.75-2.48S390.11,294.1,394.12,303.76Z"/><path class="cls-9" d="M63.67,56.38,80.1,29.79s-1.94-6.35-6.21-8.92a10.31,10.31,0,0,0-1.5-.74L52.14,49.31Z"/><path class="cls-3" d="M64.22,19.45l-15.94,25,3.86,4.9L72.39,20.13A15.81,15.81,0,0,0,64.22,19.45Z"/><path class="cls-12" d="M59.94,30.39,30.1,9.5a8.31,8.31,0,0,1,6-7.31L65.61,23.48S64.08,29.71,59.94,30.39Z"/><path class="cls-9" d="M60.59,30.92,30.75,10a8.31,8.31,0,0,1,6-7.31L66.26,24S64.73,30.24,60.59,30.92Z"/><path class="cls-13" d="M55.83,19.07,39.3,7S37.11,7.23,38,8.6L54.93,20.4A.8.8,0,0,0,56,20.16.83.83,0,0,0,55.83,19.07Z"/><path class="cls-13" d="M64,57.38l-45.26,70s-2.58,2.2-6.08-.66L59.43,56Z"/><path class="cls-15" d="M56.4,81.13,35.47,110.54s-16,1.19-26.19-17.26l21-30S45.13,71.9,56.4,81.13Z"/><path class="cls-9" d="M58.36,80.39,36.44,111.55s-16.76.59-28.23-18.92L29.84,61.41A158.37,158.37,0,0,0,58.36,80.39Z"/><polygon class="cls-13" points="55.05 80.02 34.33 110.54 29.98 109.52 51.6 78.28 55.05 80.02"/><path class="cls-3" d="M61.83,55.57S51.33,52.82,48.28,44.41l1.24-1.94S47.8,49.64,61.83,55.57Z"/><path class="cls-9" d="M45.17,80.53A5.6,5.6,0,0,1,52.29,78c.65.22,1,.44,1,.38l332,198.13,2.33,1.39L380,291.1,46.33,88.95S42,86.09,45.17,80.53Z"/><path class="cls-16" d="M53.25,78.34l332,198.08-4.6,5.67L47.2,87.1,52.29,78C52.95,78.18,53.33,78.4,53.25,78.34Z"/><path class="cls-17" d="M377,288.7l-3.65-1.91s-2.23-3.14,1.17-8.2,7.3-4.32,7.3-4.32l1.93,2.72Z"/><path class="cls-9" d="M439.33,305.23l-53.2-35.06s-8.15,4.33-11.45,10-2.61,9.51-2.61,9.51l57.18,32.95Z"/><path class="cls-17" d="M396.38,302l-3.31-1.91s-.82-4.37,2.58-9.42a21.23,21.23,0,0,1,8.89-7.2l.8,3Z"/><path class="cls-9" d="M449.17,306.25s-5.27,16.57-13.77,23.9l-42.24-25.62s.6-11.9,13.22-22.94Z"/><path class="cls-9" d="M444.88,335.16l36.53,21,17.34-24L457.1,310.54S439.34,324.13,444.88,335.16Z"/><path class="cls-17" d="M462,345.5l-6.7-5s2.1-7.8,4.51-12.14c4.06-7.33,9-10.5,9-10.5l8.05,2Z"/><path class="cls-3" d="M456,315.65a24.81,24.81,0,0,1-10.41,18.06S447.54,323,456,315.65Z"/><path class="cls-18" d="M438.56,324.66a15.87,15.87,0,0,1,2.15-6.55,21.09,21.09,0,0,1,4.65-5.24l4.8,3,4.49,2.36a24.41,24.41,0,0,1-2.74,6.71,16.37,16.37,0,0,1-4.19,5.13S443.78,325,438.56,324.66Z"/><path class="cls-9" d="M438.49,324.77a20.68,20.68,0,0,1,6.91-12l7.24,4.17,2,1.18a36,36,0,0,1-3.09,6.67,22.4,22.4,0,0,1-3.94,5.37S442.85,326,438.49,324.77Z"/><path class="cls-9" d="M647,420.37c14.33-26.87,24.45-86.58-34.05-126.41s-115.67-7.13-130.15,10.21-36.59,48.63-29.18,83.89c0,0,6.16,58.18,73.55,79.07S636.86,439.38,647,420.37Z"/><path class="cls-13" d="M553,281.44c-1.53,1.95-49.6,8.82-75.06,53.85s-12.3,81.28-12.3,81.28-5.15-53.12,33.28-92.94S553,281.44,553,281.44Z"/><path class="cls-19" d="M623.64,362.1s19.92,35.94-25.76,67.1A33.78,33.78,0,0,0,604.09,408l-5.8,3.49s21.45-20.25,12.7-46.09c0,0-.47-6.16,5.14-7.41S623.64,362.1,623.64,362.1Z"/><path class="cls-13" d="M446,307.41a18.81,18.81,0,0,0-5.81,5.06,65.36,65.36,0,0,0-6.78,12.42,29.45,29.45,0,0,1,3.09-12L399.24,292.2s1.7-3.42,6.8-7.55Z"/><path class="cls-13" d="M385.48,272.53l15.39,11.34s-4.83,2.72-6.46,5.54l-13-12.41Z"/><polygon class="cls-6" points="355.57 273.16 454.91 233.35 444.82 213.64 355.57 273.16"/></g></g></svg>