<svg xmlns="http://www.w3.org/2000/svg" viewBox="0 0 223.11 215.18"><defs><style>.cls-1{isolation:isolate;}.cls-2{fill:#3f2e20;opacity:0.3;mix-blend-mode:multiply;}.cls-3{fill:#cac9c7;}.cls-4{fill:#aaa;}.cls-5{fill:#919191;}.cls-6{opacity:0.1;}.cls-7{fill:#cfd0ca;}.cls-8{fill:#756459;}.cls-9{fill:#c1bdbe;}.cls-10{fill:#633b00;}.cls-11{fill:#260e0b;}.cls-12{fill:#724203;}</style></defs><title>pantallas_04</title><g class="cls-1"><g id="cafe"><path class="cls-2" d="M219.8,101.65c12.5,49.22-11.05,99-60.27,111.51S33.67,177.95,21.17,128.73A92,92,0,0,1,87.65,17C136.87,4.47,207.3,52.43,219.8,101.65Z"/><circle class="cls-3" cx="91.97" cy="91.97" r="91.95" transform="translate(-19.81 25.47) rotate(-14.25)"/><path class="cls-4" d="M147.32,125s27.61,16.09,31.73,15a9.28,9.28,0,0,0,6.53-4.93l-34-20.07Z"/><path class="cls-5" d="M150.15,124.74s25.53,14.37,27.84,11.41l-26.14-15.22Z"/><path class="cls-6" d="M90.28,27.24l85.46,28.87S193.38,92.33,171,134.2c-18.43,34.46-43.61,40.68-43.61,40.68l-88-44.31Z"/><circle class="cls-7" cx="95.59" cy="92.28" r="65.62" transform="translate(-19.78 26.37) rotate(-14.25)"/><circle class="cls-8" cx="90.77" cy="89.77" r="65.62" transform="translate(-19.31 25.11) rotate(-14.25)"/><circle class="cls-9" cx="91.57" cy="90.4" r="65.62" transform="translate(-19.44 25.33) rotate(-14.25)"/><circle class="cls-10" cx="89.8" cy="90.02" r="54.95" transform="translate(-19.4 24.88) rotate(-14.25)"/><circle class="cls-11" cx="91.57" cy="90.4" r="54.95" transform="translate(-19.44 25.33) rotate(-14.25)"/><path class="cls-7" d="M150.43,121.81,157,104.89l24.38,14s8.23,3.46,8.88,9.46c0,0-3.62,11-7.46,10.73s-5.54-1.93-16.9-8.23C154.23,124.42,150.43,121.81,150.43,121.81Z"/><path class="cls-12" d="M63.24,137.48a24.5,24.5,0,0,0-3.2-2.92c-1.24-.8-.25-2.69-1.83-3.49s-3.28-.37-4.11-1.62-.82-3.23-1.51-3.57-.56-2.52-1.65-2.76-2.36.17-3.22-1.85-.33-2.67-1.65-3.79-3-1.48-4-5.26.53-4,.1-4.67,1.16-2.53.39-3.54-2.66-3-2.73-5.67a6.77,6.77,0,0,0-1.23-4.16c-.51-1-.57-2.79-1.25-4.58s.68-2.06.47-3.22a10.7,10.7,0,0,1,.32-5.5c.8-2.27,2.24-2.35,1.64-4.72s.73-3.88,1.09-5.18,1.16-2.78,1-4.08a1.53,1.53,0,0,1,.83-1.68s-1.6-.39-2.1,2.73-.86,2.19-1.7,2.84.43,2.46.3,2.88-1.6,1.41-1.9,2.26.37,1.8,0,2.83.07,1.62-.62,2.65-1.38,3.36-1,4.47A6.11,6.11,0,0,1,36.18,89c-.25.67-1,3.18-.72,3.62a5.2,5.2,0,0,1,.27,2.68,7.79,7.79,0,0,0,.84,3.31c.26.36,1.65,1.22,1,2.49a6.41,6.41,0,0,0,0,4.64c.55.81.29,2.28.57,3s2.09,2.49,2.33,3.71A18.81,18.81,0,0,0,42,117.06c.61,1.05,2,.79,2.36,2s1,2.89,2,3.37a6,6,0,0,1,2.77,2.84c.64,1.46,2.56,1.66,2.81,2.54s1.06,2.41,2.17,2.76a4.41,4.41,0,0,1,1.84,1.2c.32.26.9,2.12,2.52,2.47S60.36,136.78,63.24,137.48Z"/></g></g></svg>