<svg xmlns="http://www.w3.org/2000/svg" viewBox="0 0 362.85 414.26"><defs><style>.cls-1{isolation:isolate;}.cls-2{fill:#3f2e20;opacity:0.3;mix-blend-mode:multiply;}.cls-3{fill:#d3bd18;}.cls-4{fill:#ccb21d;}.cls-5{fill:#86272d;}.cls-6{fill:#70272d;}.cls-7{fill:#1e1e1e;}.cls-8{fill:#d1cfcb;}.cls-9{fill:#a8a59e;}.cls-10,.cls-11{fill:#333;opacity:0.4;}.cls-11,.cls-13{font-size:45.43px;font-family:MyriadPro-Regular, Myriad Pro;letter-spacing:0em;}.cls-12{letter-spacing:0em;}.cls-13{fill:#1a1a1a;}</style></defs><title>pantallas_04</title><g class="cls-1"><g id="cuaderno"><path class="cls-2" d="M361.72,343.71l-.52-1.92h0l0-.09-1.48-5.42a10.27,10.27,0,0,0,1-1.1c5-6.64-.29-19.56-.29-19.56l-76-279.14S279.59,18.28,271,12.76,245.48,12,245.48,12L52.1,27.13S42.24,14.92,35,14,23.64,28.9,23.64,28.9h0C10.24,32.46,12.36,44.62,12.36,44.62l58.13,299h0l8.67,44.49s1.22,6.7,47.83.09l0-.14v-.07l7.7,26.32,12.72-8.66-8-19.43q6.32-1,13.56-2.29c72.3-12.93,181.09-24.83,181.09-24.83s16.31.92,20.83-2.66c1.32-1,1.57-4.42,1.26-8.67l1.87-.25-.47-1.73,1-.13ZM38.61,28.19a50,50,0,0,0-11.09,0L29,27.9a12.65,12.65,0,0,1,.35-1.42c2.15-3.22,4.6-3.26,6.65-2.32A21.71,21.71,0,0,1,40.48,28Z"/><rect class="cls-3" x="152.01" y="13.88" width="103.57" height="103.56" transform="translate(-10.29 68.89) rotate(-18.72)"/><polygon class="cls-4" points="171.37 131.33 190.65 15.63 138.13 33.24 171.37 131.33"/><path class="cls-5" d="M15.09,31.94S19.3,15.81,26.42,16.7,43.1,29.88,43.1,29.88l-11.44,1s-9.25-11.1-11.32,0Z"/><path class="cls-6" d="M25.13,21.21c4.5-.75,13.56,9.06,13.56,9.06l-7,.63s-6.15-8.85-11-1.47C20.69,29.44,20.63,22,25.13,21.21Z"/><path class="cls-7" d="M63.88,386.95s-1,2.52,70.62-9.5c72.11-12.11,173.73-21.55,173.73-21.55s21.61-1.93,30.3-3.84c9.25-2-9.81-29.5-9.81-29.5L54.6,335.85Z"/><polygon class="cls-8" points="74.75 381.43 335.08 348.5 286.5 158.61 35.46 190.48 74.75 381.43"/><polygon class="cls-9" points="77.54 377.11 335.64 346.61 338.69 344.66 290.1 154.77 39.06 186.64 77.54 377.11"/><polygon class="cls-8" points="74.99 377.45 338.19 342.72 287.84 154.1 36.8 185.96 74.99 377.45"/><path class="cls-9" d="M75.81,379.79c-.09-1.51,2.46-3.5-1.06-5,0,0,2.23-2.48.24-4l-2-1.5s2.81.07,1-3.34-2.6-.77-2.6-.77L70,367.78l4,14.34S76,383,75.81,379.79Z"/><path class="cls-7" d="M.12,46.59S-3.22,27.56,26,30.28L229.72,11.93s16.75-5,25.13.49,12.91,23.9,12.91,23.9l72.1,282.1s5.13,13,.1,19.81-20.48,8.17-20.48,8.17L83.68,374.19s-13,1.24-19.51,12.46Z"/><polygon class="cls-5" points="102.96 373.59 113.77 413.93 126.26 405.02 113.57 372.69 102.96 373.59"/><polygon class="cls-10" points="20.52 36.48 75.76 365.33 107.24 358.53 20.52 36.48"/><text class="cls-11" transform="translate(122.8 153.27) rotate(-8.03)">S<tspan class="cls-12" x="22.53" y="0">anar</tspan></text><text class="cls-13" transform="translate(120.54 152.6) rotate(-8.03)">S<tspan class="cls-12" x="22.53" y="0">anar</tspan></text><polygon class="cls-6" points="106.65 387.36 113.57 372.69 102.96 373.59 106.65 387.36"/></g></g></svg>