<?xml version="1.0" encoding="utf-8"?>
<!-- Generator: Adobe Illustrator 19.1.0, SVG Export Plug-In . SVG Version: 6.00 Build 0)  -->
<svg version="1.1" xmlns="http://www.w3.org/2000/svg" xmlns:xlink="http://www.w3.org/1999/xlink" x="0px" y="0px"
	 viewBox="0 0 504.1 226" style="enable-background:new 0 0 504.1 226;" xml:space="preserve">
<style type="text/css">
	.st0{fill:#F0EEE9;}
	.st1{fill:#333333;}
	.st2{font-family:'Roboto-Black';}
	.st3{font-size:15px;}
	.st4{fill:none;}
	.st5{font-family:'Roboto-Regular';}
	.st6{font-size:11px;}
	.st7{fill:#D1CFCB;}
	.st8{opacity:0.2;fill:#333333;}
	.st9{fill:#005187;}
	.st10{fill:#8070A3;}
	.st11{opacity:0.2;fill:none;stroke:#000000;stroke-width:2.4654;stroke-miterlimit:10;}
	.st12{fill:none;stroke:#7C181F;stroke-width:2.4654;stroke-miterlimit:10;}
	.st13{clip-path:url(#SVGID_2_);}
	.st14{fill:#1A1A1A;}
	.st15{fill:#6E3539;}
	.st16{fill:#F2CCC0;}
	.st17{fill:#EAAE99;}
	.st18{fill:none;stroke:#E6E6E6;stroke-width:1.0632;stroke-miterlimit:10;}
	.st19{fill:#7D3027;}
	.st20{fill:#F28461;}
	.st21{fill:#D16A49;}
	.st22{fill:#F2C5B5;}
</style>
<g id="texto_x5F_08">
	<g>
		<g>
			
				<rect x="181.1" y="19.9" transform="matrix(0.9987 -5.173679e-02 5.173679e-02 0.9987 -3.5854 17.3097)" class="st0" width="303" height="116"/>
			<text transform="matrix(0.9989 -4.769000e-02 4.769000e-02 0.9989 222.3518 45.7672)"><tspan x="0" y="0" class="st1 st2 st3">PREVENCIÓN Y CONTROL DEL </tspan><tspan x="0" y="18" class="st1 st2 st3">LAVADO DE ACTIVOS </tspan></text>
			<polygon class="st4" points="225.1,75.9 462.4,65.9 468.1,149.9 229.1,160.9 			"/>
			<text transform="matrix(0.9989 -4.769000e-02 4.769000e-02 0.9989 225.5101 85.2676)" class="st1 st5 st6">Prevención de Adicciones, texto descriptivo</text>
		</g>
	</g>
</g>
<g id="foto_x5F_08">
	<g>
		<path class="st7" d="M200.7,204.7c-65.2-5-183.4-8.6-183.4-8.6C22,96.2,25.9,12.7,25.9,12.7s149.7,11,183.4,8.6
			C209.2,21.3,198,176.9,200.7,204.7z"/>
		<polygon class="st8" points="32.3,184.6 193.1,197.3 192.9,38.4 		"/>
		
			<rect x="33.5" y="28.9" transform="matrix(0.9989 4.677575e-02 -4.677575e-02 0.9989 5.2097 -5.1794)" class="st9" width="159.6" height="159.6"/>
		
			<rect x="33.5" y="28.9" transform="matrix(0.9989 4.677575e-02 -4.677575e-02 0.9989 5.2097 -5.1794)" class="st10" width="159.6" height="159.6"/>
		<g>
			<path class="st11" d="M125.2,18.3c-0.2-3.4-0.3-3.3-0.4-3.5c-0.5-0.7-12.4-0.7-13.1,0.1c-0.7,0.7,0.6,22.9,5.2,31.4
				c4.5,8.5,10.1,6.7,7.9-14.6"/>
			<path class="st12" d="M124.4,18.8c-0.2-2-0.3-3.2-0.4-3.3c-0.5-0.7-12.4-0.7-13.1,0.1c-0.7,0.7,0.6,22.9,5.2,31.4
				c4.5,8.5,10.1,6.7,7.9-14.6"/>
		</g>
		<g>
			<defs>
				
					<rect id="SVGID_1_" x="33.5" y="28.9" transform="matrix(0.9989 4.677575e-02 -4.677575e-02 0.9989 5.2097 -5.1794)" width="159.6" height="159.6"/>
			</defs>
			<clipPath id="SVGID_2_">
				<use xlink:href="#SVGID_1_"  style="overflow:visible;"/>
			</clipPath>
			<g class="st13">
				<path class="st14" d="M156.4,123.5c0,0,2.1,17.9-12.4,27.3C144,150.8,130.9,141.5,156.4,123.5z"/>
				<path class="st14" d="M62.7,119.4c0,0-2.3,19.2,17,24.2L89,144C89,144,79,118.1,62.7,119.4z"/>
				<path class="st15" d="M28.6,185.3c0,0,11.9-46.5,79.6-43.8c66,2.6,81.6,32.9,84.6,51.1l-88.3,11.2L28.6,185.3z"/>
				<path class="st16" d="M81.9,137.4l-2.6,15.4c0,0,10.2,13.8,28.2,14.3s30-13.7,30-13.7l-2.5-13.6L81.9,137.4z"/>
				<path class="st17" d="M132.7,143.1c0,0-18.2,15.6-53.3,9l2.4-13.4L132.7,143.1z"/>
				<path class="st17" d="M157.2,105.6c0,0,5-4.3,8.1-2.6c3.1,1.7,0.9,13.4-8.9,20.5L157.2,105.6z"/>
				<path class="st17" d="M63.7,101.5c0,0-4.5-7-8-7c-3.5,0-3.7,14.3,6.9,24.8L63.7,101.5z"/>
				<circle class="st18" cx="157.3" cy="134.1" r="11.8"/>
				<circle class="st18" cx="62.2" cy="129.9" r="11.8"/>
				
					<ellipse transform="matrix(0.999 4.411418e-02 -4.411418e-02 0.999 4.6754 -4.7673)" class="st16" cx="110.4" cy="103.5" rx="50.9" ry="45.7"/>
				<path class="st14" d="M79.8,66.7c0,0,32,36.6,60.6,30.6c0,0-7.5-3-8.7-5.6c0,0,19.6,7.3,29.1,6.3c0,0,2.5-14.9-12.2-28.2
					C133.9,56.4,100.6,47.1,79.8,66.7z"/>
				<path class="st14" d="M85.9,72.9c0,0-8.5,19.5-26.2,23.6c0,0,1.2-29.2,20.2-29.9L85.9,72.9z"/>
				<path class="st14" d="M145.3,160.5c0,0-14.1-5.3-14.4-11.1c0,0,4.6-13.3,12.3-8.3C143.2,141.1,151.1,151.2,145.3,160.5z"/>
				<path class="st14" d="M145.4,168.8c0,0,13.8-10,9.8-17.5s-11.4-5.6-15.4,0.3S145.4,168.8,145.4,168.8z"/>
				<path class="st14" d="M146.6,176.1c0,0,3.4-16.3-9.2-20.1C124.8,152.3,133.4,174.5,146.6,176.1z"/>
				<path class="st14" d="M139.7,181.4c0,0,1.6-18.9,10.5-18.2s3.3,13.4,0.8,14.1C148.5,177.9,139.7,181.4,139.7,181.4z"/>
				<path class="st14" d="M147.1,181.7c0,0-2.3-9.4-9.4-12.7S128.9,188,147.1,181.7z"/>
				<path class="st14" d="M147,184.9c0,0,7.2-2.2,7.1,5.3c-0.1,7.4-7.9,12.3-7.9,12.3s-11.1-2.1-11-11.3
					C135.2,183.9,141.3,184,147,184.9z"/>
				<path class="st19" d="M137.4,181.3l0.2,4.3c0,0,13.7,2.8,15.4,0.5l-1.9-8.9L137.4,181.3z"/>
				<g>
					
						<ellipse transform="matrix(0.999 4.411418e-02 -4.411418e-02 0.999 4.7375 -4.0932)" class="st14" cx="95.1" cy="105.3" rx="2.7" ry="4.3"/>
					
						<ellipse transform="matrix(0.999 4.411418e-02 -4.411418e-02 0.999 4.8275 -5.4507)" class="st14" cx="125.9" cy="106.7" rx="2.7" ry="4.3"/>
				</g>
				<g>
					<g>
						<path class="st17" d="M103.5,115.4c-0.7,2.2-0.8,4.6,0.8,6.4c1.3,1.5,3.4,2.3,5.4,2.3c4.3-0.1,7.4-4.2,6-8.3
							c-0.7-1.9-3.7-1.1-3.1,0.8c0.7,2.1-0.7,4.2-3,4.3c-0.9,0-1.8-0.2-2.5-0.8c-1.3-1-1.1-2.5-0.6-3.9
							C107.2,114.3,104.1,113.4,103.5,115.4L103.5,115.4z"/>
					</g>
				</g>
				<g>
					<g>
						<path class="st20" d="M100.8,133.8c0.4,2.4,5.3,3.3,7,3.4c2.8,0.3,6.6-0.1,8.6-2.3c1.4-1.5-0.9-3.8-2.3-2.3
							c-1.1,1.2-3.1,1.4-4.6,1.5c-1.4,0-2.9-0.1-4.3-0.7c-0.5-0.2-0.9-0.4-1.4-0.7c-0.5-0.2-0.2-0.6-0.1,0.2
							C103.6,130.9,100.5,131.8,100.8,133.8L100.8,133.8z"/>
					</g>
				</g>
				<path class="st21" d="M108.4,131c0,0-6.1,0-12.3-2.3c0,0,11.4,15.3,25.9,0.4C122,129.1,115.2,131.4,108.4,131z"/>
				
					<ellipse transform="matrix(0.999 4.411418e-02 -4.411418e-02 0.999 5.2956 -3.6221)" class="st22" cx="84.7" cy="118.2" rx="7.2" ry="3.3"/>
				
					<ellipse transform="matrix(0.999 4.411418e-02 -4.411418e-02 0.999 5.4485 -5.9288)" class="st22" cx="137.1" cy="120.5" rx="7.2" ry="3.3"/>
				<g>
					<path class="st14" d="M83.6,96.5c-0.9-0.7-1.2-2.2-1-3.3c0.2-1.2,0.8-2.3,1.5-3.2c0.7-0.9,1.6-1.6,2.6-2.1
						c0.5-0.3,1-0.5,1.4-0.7c0.5-0.2,1-0.4,1.6-0.6c1.1-0.3,2.3-0.5,3.5-0.4c1.2,0.1,2.4,0.5,3.3,1.1c1.9,1.3,3,3.2,3.4,5.2
						c-1.4-1.4-2.9-2.5-4.5-2.9c-1.5-0.4-2.9-0.1-4.4,0.6c-0.7,0.3-1.4,0.8-2.1,1.3c-0.7,0.5-1.4,0.9-2,1.4
						c-0.6,0.4-1.2,0.9-1.8,1.4C84.6,94.8,84,95.4,83.6,96.5z"/>
				</g>
				<path class="st1" d="M116.4,74.4c0,0,12.3,12,25.7,13c0,0-7.1-11.1-6.7-14.5c0,0,5-3.5,15.7,3.7c0,0-5.5-9.6-23.2-15.8
					c0,0-2.5,8.9,1.5,13.6C129.4,74.4,127.4,78.1,116.4,74.4z"/>
			</g>
		</g>
	</g>
</g>
</svg>
