<svg xmlns="http://www.w3.org/2000/svg" xmlns:xlink="http://www.w3.org/1999/xlink" viewBox="0 0 463 233"><defs><style>.cls-1,.cls-27,.cls-28,.cls-34{fill:none;}.cls-2{isolation:isolate;}.cls-3{clip-path:url(#clip-path);}.cls-4{fill:#523a29;}.cls-5{fill:#543928;}.cls-6{clip-path:url(#clip-path-2);}.cls-7{opacity:0.09;mix-blend-mode:multiply;}.cls-8{fill:#c7b316;}.cls-9{fill:#535353;opacity:0.23;}.cls-10{fill:#f0eee9;}.cls-11{font-size:22px;fill:#4d4d4d;font-family:ZillaSlab-Medium, Zilla Slab;}.cls-12{letter-spacing:-0.01em;}.cls-13{letter-spacing:-0.01em;}.cls-14{letter-spacing:-0.01em;}.cls-15{letter-spacing:-0.03em;}.cls-16{letter-spacing:-0.03em;}.cls-17{letter-spacing:-0.01em;}.cls-18{letter-spacing:-0.02em;}.cls-19{letter-spacing:-0.08em;}.cls-20{letter-spacing:-0.08em;}.cls-21{letter-spacing:-0.03em;}.cls-22{letter-spacing:-0.03em;}.cls-23{fill:#d1cfcb;}.cls-24,.cls-39{fill:#333;}.cls-24,.cls-27{opacity:0.2;}.cls-25{fill:#005187;}.cls-26{fill:#8070a3;}.cls-27{stroke:#000;}.cls-27,.cls-28,.cls-34{stroke-miterlimit:10;}.cls-27,.cls-28{stroke-width:2.07px;}.cls-28{stroke:#7c181f;}.cls-29{clip-path:url(#clip-path-3);}.cls-30,.cls-40{fill:#1a1a1a;}.cls-31{fill:#6e3539;}.cls-32{fill:#f2ccc0;}.cls-33{fill:#eaae99;}.cls-34{stroke:#e6e6e6;stroke-width:0.89px;}.cls-35{fill:#7d3027;}.cls-36{fill:#f28461;}.cls-37{fill:#d16a49;}.cls-38{fill:#f2c5b5;}.cls-40{font-size:23.01px;font-family:KaushanScript-Regular, Kaushan Script;}.cls-41{letter-spacing:-0.01em;}.cls-42{letter-spacing:-0.02em;}.cls-43{letter-spacing:0em;}</style><clipPath id="clip-path"><rect class="cls-1" x="-104.56" y="477.96" width="1388.87" height="780.86"/></clipPath><clipPath id="clip-path-2"><path class="cls-1" d="M1129.12,1213.61l-19-694c-219,13.94-542.11,14-545,14v-.31L47.47,519.4,19.78,539.15l-1.19,151L44.82,705l-7.41,499.52c141-6.49,522.71,14.09,522.71,14.09v-.54C567,1217.79,845.67,1206.7,1129.12,1213.61Z"/></clipPath><clipPath id="clip-path-3"><rect class="cls-1" x="26.99" y="53.55" width="133.78" height="133.78" transform="translate(-30.82 208.58) rotate(-87.32)"/></clipPath></defs><title>notificacion_l_activos_01</title><g class="cls-2"><g id="fondo_05a"><g class="cls-3"><path class="cls-4" d="M139.32,69.86c-.12,4.1.39,8.28-.84,12.23h-1.31L137,69.86Z"/><path class="cls-4" d="M237.71,69.86,235.31,73,233,69.86Z"/><path class="cls-4" d="M390,69.86l-1.63,5.65c-2.48-1.68-.06-3.95-.71-5.65Z"/><path class="cls-4" d="M235.74,75.6c.74,2.86,2,5.71,2.08,8.59a53.82,53.82,0,0,1-1.48,11.45c-1,4.84.69,13,3.68,15.84-1.3,1-3.38,1.81-3.69,3.12-.48,2.09.25,4.54.41,6.84.11,1.62.58,3.49,0,4.81-1,2.4-1.44,4.19.22,6.59s-.59,4.09-2.07,7.06c-1.4-6-2-10.38-1.24-15.62.95-6.51-.12-13.39-.35-20.11-.05-1.51-.56-3.09-.3-4.5A40.41,40.41,0,0,0,232.57,82C231.73,78.72,233,76.79,235.74,75.6Z"/><path class="cls-4" d="M251.1,99.43c1.28,1,2.14,1.29,2.14,1.63.07,12.58.06,25.15-1,38-.47-.85-1.31-1.69-1.35-2.57-.18-3.85-.06-7.71-.17-11.56s.32-7.95-.7-11.48C248.65,108.59,250.31,104.64,251.1,99.43Z"/><path class="cls-4" d="M361.53,137.94c2.09,6,2.33,25.29.5,40.16-4.68-5.89-1.35-13.05-2.18-19.56-.86-6.7.21-13.72.43-20.59Z"/><path class="cls-4" d="M224.44,249.63c-2.28-3.09-.63-7.06-1.45-10.29a23.92,23.92,0,0,1-.52-10c.48-3.32-1.83-7.12,1.53-10.6,1.28,1.78,2.59,3.46,2.4,6-.44,5.77-1.14,11.51-1.41,17.29-.11,2.42.6,4.88.93,7.32Z"/><path class="cls-4" d="M373.57,149.93c-4.75-11.41-1.6-22.19-2.21-33.45,2.45,1.62,3.44,3.26,3.39,6-.17,8.17-.2,16.34-.33,24.52A17.35,17.35,0,0,1,373.57,149.93Z"/><path class="cls-4" d="M221.77,139.17c.9,2.24,1.57,3.16,1.6,4.1.19,5.94.21,11.88.35,17.81.06,2.54-1.12,2.89-2.91,2.6-1.39-6,.4-12.13-1.59-18C218.77,144.39,220.57,142.08,221.77,139.17Z"/><path class="cls-4" d="M389.92,78.39c-2,10.9.94,21.7.25,32.58l-1.26.19a73.34,73.34,0,0,1-1.36-8.53c-.34-7.32-.47-14.67-.5-22,0-.88,1.14-1.76,1.76-2.64Z"/><path class="cls-4" d="M223.27,137.4l-4.37-6.07,2.88-13.5C224.87,121.28,224.87,121.28,223.27,137.4Z"/><path class="cls-4" d="M374.76,205.69V226.3c-3.47-4.13-1-8.32-2.63-11.25-2.05-3.72.21-6.43.86-9.54Z"/><path class="cls-4" d="M381.35,100.48c3.18,3.53,3.75,13.54,1,17.88C380.16,112.16,380.06,110.45,381.35,100.48Z"/><path class="cls-4" d="M347.66,106c0,3.33-.85,7.08.22,9.89,1.29,3.39.32,5.65-.88,8.85-2.85-2.76-2-6.55-2.27-9.55s.92-6.23,1.48-9.36Z"/><path class="cls-4" d="M147.49,96.6c2.63,3.15,2.74,12.06.89,18.94C145.35,109.28,148.1,102.84,147.49,96.6Z"/><path class="cls-4" d="M72.72,150.22c3,5.21,1.54,9.54,2.14,13.69l-1.38.47-4.26-8.25Z"/><path class="cls-4" d="M234.39,150.13c3.25,5.79,2.87,11.76,1.95,18.07-.82-.33-1.49-.38-1.79-.78a4.21,4.21,0,0,1-1-2.31C233.77,160.11,234.1,155.12,234.39,150.13Z"/><path class="cls-4" d="M29.19,141.11l-4.37,3.69V130.39l1.11-.27Z"/><path class="cls-4" d="M139.44,109c-2.92-4.8-3.44-14.44-1.56-24.58.39,3.43.77,5.72.9,8C139.06,97.65,139.2,102.85,139.44,109Z"/><path class="cls-4" d="M223.27,169.24c-1.07,5,3,10.85-3.34,16.09l1.86-16.26Z"/><path class="cls-4" d="M450.13,108.18V93.56C452.57,97.73,452.77,100.17,450.13,108.18Z"/><path class="cls-4" d="M71.59,174.12c3.32,4.07,3.06,8.79,1.63,13.71C71.6,183.5,71.67,178.8,71.59,174.12Z"/><path class="cls-4" d="M390.17,134.32c1.85,4.12-.18,7.44-1.51,11.37C386.54,140.54,387.23,136.17,390.17,134.32Z"/><path class="cls-4" d="M383.78,240.49l-2.26-.47V227.09C383.77,228.74,383.77,228.74,383.78,240.49Z"/><path class="cls-4" d="M362.2,123.6a12.65,12.65,0,0,1-1.84-.55c.44-4.27-2-8.72.66-13.2,2.33,2,.66,4.42.84,6.48C362.06,118.64,362.08,121,362.2,123.6Z"/><path class="cls-4" d="M381.33,143.76V129.38l1.22,0C383.73,133.78,383.74,138.1,381.33,143.76Z"/><path class="cls-4" d="M223.52,96.26l-3.89-3.66,3-6C226.13,89.21,223.41,92.44,223.52,96.26Z"/><path class="cls-4" d="M182.67,158c3,3.08,2.05,6.46.42,9.93Z"/><path class="cls-4" d="M264.52,222.23v9.71C260.86,225.45,260.84,224.6,264.52,222.23Z"/><path class="cls-4" d="M137,126.64l.38-9.74C139.94,120.41,140.11,123.55,137,126.64Z"/><path class="cls-4" d="M223.42,71.65l.88,7.1-5.21-1.52C218.19,73.53,221.33,73.62,223.42,71.65Z"/><path class="cls-4" d="M258,82.48a24.6,24.6,0,0,1-.92-4.75c0-.71,1.07-1.44,1.66-2.16.59.69,1.7,1.41,1.67,2.05a26.78,26.78,0,0,1-1.11,4.83Z"/><path class="cls-4" d="M182.35,137l.65-9.76,1.11.08V137Z"/><path class="cls-4" d="M259.43,96.11c-1.72-2.84-3.82-4.69-2.14-8.78C257.81,90.5,261.65,91.61,259.43,96.11Z"/><path class="cls-4" d="M59.75,92.79l-.93-11.7C61,84.36,61.11,85.32,59.75,92.79Z"/><path class="cls-4" d="M137.64,151.72l-.36-9.26,1.26-.06v9.25Z"/><path class="cls-4" d="M282.64,223.62c4.36,1.1,2.06,4.14,2.92,7.48l-3.16-1.65c.49-.4,1.44-.9,1.4-1.19A46.23,46.23,0,0,0,282.64,223.62Z"/><path class="cls-4" d="M236.7,193.12l.59,7.13C233.94,198,233.94,198,236.7,193.12Z"/><path class="cls-4" d="M371.66,90.52l-1-6.09,1.66-.36.89,6.16Z"/><path class="cls-4" d="M25.25,202c2.37,2,2.85,4,1.16,6.74C24.69,206.7,23.95,204.83,25.25,202Z"/><path class="cls-4" d="M347.94,149.13l-.47-11.27C349.47,141.56,349.55,142.41,347.94,149.13Z"/><path class="cls-4" d="M444.83,81.06C442.37,78,441.36,76,443.31,73,445.76,75.1,444.31,77.56,444.83,81.06Z"/><path class="cls-4" d="M74.05,78l-5.38-2.61.14-1h5.24Z"/><path class="cls-4" d="M26.46,166.48c2.14,2.72.47,4.65-.68,7.7C23.56,170.68,26.3,168.69,26.46,166.48Z"/><path class="cls-4" d="M381.86,89.41c-3.81-1.28-2.24-3.24-1.89-5.1l1.21-.19Z"/><path class="cls-4" d="M389.3,213.3l-3-4.74,3.91,1.25Z"/><path class="cls-4" d="M74.25,203.9c.93,2,.55,3.47-1,4.47-.16.1-.76-.35-.92-.69C71.2,205.33,72.79,204.76,74.25,203.9Z"/><path class="cls-4" d="M373.54,193.42c.9,2.51,1.72,5-2.62,5.49Z"/><path class="cls-4" d="M223.11,114.12l-1.5-7.24C224.51,108.4,223.65,110.58,223.11,114.12Z"/><path class="cls-4" d="M328.61,162.14l-4.21-2.73c.28-.67.39-1.28.56-1.3C327.09,157.82,329.34,157.46,328.61,162.14Z"/><path class="cls-4" d="M25.74,155.06v-6.91C26.45,150.16,29.21,151.92,25.74,155.06Z"/><path class="cls-4" d="M363.18,187.61c-3-2.4-2.82-4.27-.81-6.47Z"/><path class="cls-4" d="M456.85,136.77v-8.59H458v8.54Z"/><path class="cls-4" d="M355.74,73.91c3.81,2.13,1.48,5,2.18,7Z"/><path class="cls-4" d="M220.13,207.48l5.09,2.81-4.67,2.09Z"/><path class="cls-4" d="M182.87,118.17l-1.6-6.64C184.65,113.69,183.88,115.9,182.87,118.17Z"/><path class="cls-4" d="M69.53,95.74c-1.57-1.69-2.57-3.49,0-4.66Z"/><path class="cls-4" d="M71.78,83.26c-3.44-.61-3.44-.61-3.8-4.73Z"/><path class="cls-4" d="M373.47,226.39l1.42,4.46c-.62.15-1,.38-1.14.26C372.65,230.07,371.1,229.12,373.47,226.39Z"/><path class="cls-4" d="M395.69,176.62V182C394.63,180.28,393.23,178.67,395.69,176.62Z"/><path class="cls-4" d="M389.27,201.32l-.44,4.75c-3.16-2-.94-3.59-1-5.17Z"/><path class="cls-4" d="M401.24,132.95v4.16l-1,.07-.26-4.07Z"/><path class="cls-4" d="M267,103.9l.28-5.26H268l.69,5.09Z"/><path class="cls-4" d="M389.37,146.91l.37,4.31-1.51.16-.38-4.31Z"/><path class="cls-4" d="M328.86,148.61l-1.49,1.48a5.63,5.63,0,0,1-1.07-1.66c-.07-.3.72-1.24.89-1.17A7.22,7.22,0,0,1,328.86,148.61Z"/><path class="cls-4" d="M451.46,146.26l-.66-3.91.75-.41c.47.65,1.18,1.22,1.35,2a6.69,6.69,0,0,1-.36,2.38Z"/><path class="cls-4" d="M394.19,171.3l.55-4.62,1,.09-.27,4.65Z"/><path class="cls-4" d="M374.21,161.65l-2,3.63C372,162.37,372,162.37,374.21,161.65Z"/><path class="cls-4" d="M267.77,143l1.47,3.58-1.13.53-1.07-3.8Z"/><path class="cls-4" d="M74,131.4l.3,4.18-1.13.17-.59-4.31Z"/><path class="cls-4" d="M451,83.75v4.69C448,86.67,449.74,85.19,451,83.75Z"/><path class="cls-4" d="M290.22,224.6l.34,6-.87,0v-6Z"/><path class="cls-4" d="M464.77,157.25a21.55,21.55,0,0,1-1.22,1.91c-.05.07-.56-.31-.86-.49l1-2.27Z"/><path class="cls-4" d="M381.65,157.35l-.21,2.35-.37-2.41Z"/><path class="cls-4" d="M234.85,146.39l-.21-3.14.94-.17.64,3.23Z"/><path class="cls-4" d="M417,101.54V98a10.5,10.5,0,0,1,.85,1.72C417.89,100,417.54,100.37,417,101.54Z"/><path class="cls-4" d="M426.65,89l.84,3.52-1.13.36-.86-3.51Z"/><path class="cls-4" d="M421.19,83.73l2.9-2.18.61,1-2.64,2.44Z"/><path class="cls-4" d="M364,203.7l-.26,4.07-.85-.07.27-4.07Z"/><path class="cls-4" d="M26.06,218.7c-.51-.67-1-1.08-1.15-1.61-.06-.25.64-1.07.93-1a1.66,1.66,0,0,1,1.2,1C27.1,217.48,26.5,218,26.06,218.7Z"/><path class="cls-4" d="M388.7,178.41c-.41-.75-1-1.35-.85-1.67a5.27,5.27,0,0,1,1.18-1.52c.25.52.72,1.05.7,1.56S389.18,177.69,388.7,178.41Z"/><path class="cls-4" d="M27.07,183.74l-.65,4-.6-4.1Z"/><path class="cls-5" d="M150.25,189.82c-1.93.55-3.53,1.72-4.14,5C147.82,198.27,150.3,194.82,150.25,189.82Z"/><path class="cls-5" d="M207.12,189.82c.05,4.22,1.16,6.44,3.25,6.67C210.1,192.6,209.88,188.71,207.12,189.82Z"/><path class="cls-5" d="M431.14,206.43c-2-8.55-2.09,5.72,0,0Z"/><path class="cls-5" d="M368.53,208.1c.05-2.11,1.1-2.33.83-5-1.1-.5-1.54-2.33-3.26-1.66C365.83,205.77,366.38,208.6,368.53,208.1Z"/><path class="cls-5" d="M347.13,135.1c2.92-6.72-2.65-3.94,0,0Z"/><path class="cls-5" d="M265.6,130.1c-1.16.05-1.82-.78-2.48-1.67.44,2.94.44,6.89,1.66,8.28C265,134.49,265.93,133.55,265.6,130.1Z"/><path class="cls-5" d="M371.84,214.71V218c1,.05,1.16,2.11,2.48,1.67v-5Z"/><path class="cls-5" d="M38.21,188.16c.11-4.05.11-8-.83-9.94C34.13,177.38,35.9,189.77,38.21,188.16Z"/><path class="cls-5" d="M466.56,155c-4.25-4.77-4.31,7.5-4.08,16.61C465.67,169.71,466.5,163.1,466.56,155Z"/><path class="cls-5" d="M151.07,158.32c.67,4.66-1.15,4.28-.82,8.28C153.94,169.55,153.22,157.82,151.07,158.32Z"/><path class="cls-5" d="M229.35,173.21a17.9,17.9,0,0,1-.83,6.67H231C231.23,176.1,230.79,173.65,229.35,173.21Z"/><path class="cls-5" d="M394.07,145h-2.48C390.43,149.88,395.28,149.88,394.07,145Z"/><path class="cls-5" d="M59.62,148.32c-1.1-.5-1.54-2.33-3.25-1.61C55,151.33,59.89,151.27,59.62,148.32Z"/><path class="cls-5" d="M336.43,174.88c-4.09,2.22-1.28,7.83,0,0Z"/><path class="cls-5" d="M372.66,135.1c.78,3.06-2.48,5.5,0,6.61.22-2.61,1.82-1.16,2.48,0C375.26,137.55,373.88,136.54,372.66,135.1Z"/><path class="cls-5" d="M289.48,138.38c2.48-5.56-3-5,0,0Z"/><path class="cls-5" d="M202.15,131.77c-1.66-.06-1-4.56-3.31-3.34v8.28C200.44,136,202.38,136.16,202.15,131.77Z"/><path class="cls-5" d="M208.72,133.43v3.28c.83,0,1,1.39,1.66,1.67.05-2.11,1-2.28.83-4.95Z"/></g></g><g id="carpeta_05a"><g class="cls-6"><g class="cls-7"><path class="cls-8" d="M459.77,232.26c-.79-2.34-3-1.8-2.2-4.08l-4.37,2.35C454.79,232.9,457.15,233,459.77,232.26Z"/></g></g></g><g id="tarjeta_05a"><path class="cls-9" d="M452,118.78,447.89,40,188.15,53.44C189.54,42.87,172,39,172,39c-10,.27-17.21,10-42,7h0c0-2.4-15.92,9.13-16,9-.3-.52-10.45.52-11,1,0,0,1-11.14,1-11-.28,0,17.53-17.53,17.46-17.47S104.05,43.75,104,45c-30.77-3.86-84-5-84-5S15.74,131.25,6.5,213.14c0,0,121.07,18.8,166.7,25.53-.08-8.14,2.32-81.63,5.07-105.71Z"/><rect class="cls-10" x="141.32" y="38.02" width="311.01" height="78.9" transform="translate(-3.61 15.46) rotate(-2.97)"/><text class="cls-11" transform="translate(179.74 75.76) rotate(-2.73)"><tspan class="cls-12">P</tspan><tspan x="12.65" y="0">REVE</tspan><tspan class="cls-13" x="66.81" y="0">N</tspan><tspan x="82.94" y="0">C</tspan><tspan class="cls-13" x="97.15" y="0">I</tspan><tspan class="cls-14" x="104.19" y="0">Ó</tspan><tspan x="119.83" y="0">N</tspan><tspan class="cls-15" x="136.2" y="0"> </tspan><tspan class="cls-16" x="140.23" y="0">Y</tspan><tspan x="153.23" y="0" xml:space="preserve"> C</tspan><tspan class="cls-14" x="172.19" y="0">O</tspan><tspan x="187.86" y="0">NT</tspan><tspan class="cls-12" x="218.06" y="0">R</tspan><tspan class="cls-17" x="231.64" y="0">O</tspan><tspan class="cls-18" x="247.3" y="0">L</tspan><tspan x="258.85" y="0"> </tspan><tspan class="cls-13" x="0.78" y="29">D</tspan><tspan x="16" y="29">E</tspan><tspan class="cls-18" x="28.98" y="29">L</tspan><tspan x="40.53" y="29" xml:space="preserve"> L</tspan><tspan class="cls-19" x="57.34" y="29">A</tspan><tspan class="cls-20" x="70.1" y="29">V</tspan><tspan x="82.81" y="29">ADO </tspan><tspan class="cls-13" x="133.48" y="29">D</tspan><tspan x="148.7" y="29">E</tspan><tspan class="cls-21" x="161.68" y="29"> </tspan><tspan class="cls-22" x="165.8" y="29">A</tspan><tspan x="179.74" y="29">CTI</tspan><tspan class="cls-21" x="215.08" y="29">V</tspan><tspan x="228.94" y="29">OS </tspan></text><path class="cls-23" d="M166,225.07c-54.63-4.41-153.71-7.2-153.71-7.2L20.62,40S146,49.76,174.33,47.18C174.33,47.18,163.93,198.12,166,225.07Z"/><polygon class="cls-24" points="25.98 184.07 160.77 194.67 160.61 61.49 25.98 184.07"/><rect class="cls-25" x="26.99" y="53.55" width="133.78" height="133.78" transform="translate(-30.82 208.58) rotate(-87.32)"/><rect class="cls-26" x="26.99" y="53.55" width="133.78" height="133.78" transform="translate(-30.82 208.58) rotate(-87.32)"/><path class="cls-27" d="M103.91,44.63c-.2-2.84-.22-2.77-.32-2.92-.39-.6-10.37-.55-11,.06s.52,19.21,4.32,26.3,8.43,5.63,6.66-12.24"/><path class="cls-28" d="M103.17,45a19,19,0,0,0-.31-2.8c-.39-.6-10.37-.55-11,.06s.52,19.21,4.32,26.3,8.43,5.63,6.66-12.24"/><g class="cls-29"><path class="cls-30" d="M130,132.81s1.74,15-10.37,22.89C119.66,155.71,108.65,147.92,130,132.81Z"/><path class="cls-30" d="M51.5,129.35s-1.9,16.08,14.27,20.29l7.76.34S65.19,128.29,51.5,129.35Z"/><path class="cls-31" d="M22.93,184.61s10-39,66.69-36.76c55.34,2.2,68.43,27.56,70.88,42.83l-74,9.39Z"/><path class="cls-32" d="M67.6,144.47l-2.17,12.89s8.59,11.6,23.65,12,25.14-11.49,25.14-11.49l-2.07-11.43Z"/><path class="cls-33" d="M110.13,149.29s-15.24,13.09-44.69,7.58l2-11.23Z"/><path class="cls-33" d="M130.7,117.83s4.21-3.61,6.81-2.16.76,11.21-7.47,17.14Z"/><path class="cls-33" d="M52.36,114.37s-3.75-5.88-6.69-5.85-3.08,12,5.82,20.82Z"/><circle class="cls-34" cx="130.78" cy="141.68" r="9.87" transform="translate(-16.53 266.08) rotate(-87.47)"/><circle class="cls-34" cx="51.09" cy="138.16" r="9.87" transform="translate(-89.19 183.1) rotate(-87.47)"/><ellipse class="cls-32" cx="91.43" cy="116.1" rx="38.32" ry="42.7" transform="translate(-28.59 202.32) rotate(-87.47)"/><path class="cls-30" d="M65.84,85.2s26.79,30.7,50.79,25.62c0,0-6.3-2.49-7.27-4.67,0,0,16.41,6.12,24.4,5.24,0,0,2.1-12.48-10.23-23.64S83.29,68.81,65.84,85.2Z"/><path class="cls-30" d="M70.92,90.41s-7.11,16.33-22,19.82c0,0,1-24.45,16.89-25Z"/><path class="cls-30" d="M120.76,163.86s-11.85-4.46-12.08-9.29c0,0,3.87-11.11,10.3-7C119,147.58,125.57,156,120.76,163.86Z"/><path class="cls-30" d="M120.78,170.76s11.55-8.41,8.22-14.64-9.57-4.7-12.92.26S120.78,170.76,120.78,170.76Z"/><path class="cls-30" d="M121.84,176.93s2.84-13.7-7.73-16.85S110.75,175.55,121.84,176.93Z"/><path class="cls-30" d="M116.07,181.35s1.36-15.82,8.77-15.28,2.78,11.22.67,11.78S116.07,181.35,116.07,181.35Z"/><path class="cls-30" d="M122.23,181.62s-1.89-7.89-7.86-10.65S107,186.9,122.23,181.62Z"/><path class="cls-30" d="M122.11,184.29s6-1.82,6,4.43S121.46,199,121.46,199s-9.29-1.77-9.25-9.5C112.24,183.42,117.37,183.54,122.11,184.29Z"/><path class="cls-35" d="M114.08,181.26l.14,3.64s11.46,2.34,12.89.41l-1.6-7.47Z"/><ellipse class="cls-30" cx="78.65" cy="117.56" rx="3.57" ry="2.23" transform="matrix(0.04, -1, 1, 0.04, -42.26, 190.95)"/><ellipse class="cls-30" cx="104.47" cy="118.7" rx="3.57" ry="2.23" transform="translate(-18.72 217.84) rotate(-87.47)"/><path class="cls-33" d="M85.7,126c-.58,1.84-.64,3.86.69,5.4a5.85,5.85,0,0,0,4.52,1.93,5.36,5.36,0,0,0,5.05-7c-.55-1.62-3.13-.93-2.58.71a2.67,2.67,0,0,1-2.47,3.61,3.18,3.18,0,0,1-2.11-.66c-1.08-.87-.9-2.08-.51-3.29.52-1.64-2.06-2.35-2.58-.71Z"/><path class="cls-36" d="M83.45,141.47c.31,2,4.45,2.74,5.9,2.88,2.36.23,5.5-.09,7.23-2,1.17-1.26-.72-3.15-1.89-1.89-.91,1-2.58,1.2-3.83,1.24a7.8,7.8,0,0,1-4.74-1.14c-.38-.21-.2-.49-.1.16-.26-1.7-2.84-1-2.58.71Z"/><path class="cls-37" d="M89.82,139.11a33.81,33.81,0,0,1-10.35-1.92s9.52,12.79,21.7.3A34.76,34.76,0,0,1,89.82,139.11Z"/><ellipse class="cls-38" cx="69.94" cy="128.36" rx="2.74" ry="6" transform="translate(-61.38 192.57) rotate(-87.47)"/><ellipse class="cls-38" cx="113.82" cy="130.3" rx="2.74" ry="6" transform="translate(-21.37 238.25) rotate(-87.47)"/><path class="cls-30" d="M69,110.15a3,3,0,0,1-.81-2.79,5.57,5.57,0,0,1,1.27-2.67,7.63,7.63,0,0,1,2.14-1.77,8.21,8.21,0,0,1,1.21-.58c.41-.17.85-.36,1.3-.49a7.83,7.83,0,0,1,2.9-.34,6,6,0,0,1,2.79.94,6.66,6.66,0,0,1,2.82,4.35,8.49,8.49,0,0,0-3.74-2.44,5.22,5.22,0,0,0-3.66.48,13,13,0,0,0-1.77,1.09c-.59.38-1.13.76-1.67,1.13a13.48,13.48,0,0,0-1.52,1.2A4.23,4.23,0,0,0,69,110.15Z"/><path class="cls-39" d="M96.53,91.63s10.31,10.06,21.52,10.88c0,0-5.92-9.32-5.58-12.14,0,0,4.17-2.93,13.17,3.09,0,0-4.62-8-19.47-13.22,0,0-2.09,7.46,1.22,11.43C107.4,91.67,105.72,94.77,96.53,91.63Z"/></g><text class="cls-40" transform="matrix(1, 0.09, -0.09, 1, 26.15, 205.86)"><tspan x="44.08" y="0">MÍA</tspan></text></g></g></svg>