<svg xmlns="http://www.w3.org/2000/svg" viewBox="0 0 384.08 566.53"><defs><style>	@font-face {
                                                                                 	  font-family: 'KaushanScript-Regular';
                                                                                 	  font-style: normal;
                                                                                 	  font-weight: 400;
                                                                                 	  src: local('Kaushan Script'), local('KaushanScript-Regular'), url(https://fonts.gstatic.com/s/kaushanscript/v5/qx1LSqts-NtiKcLw4N03IEd0sm1ffa_JvZxsF_BEwQk.woff2) format('woff2');
                                                                                 	  unicode-range: U+0000-00FF, U+0131, U+0152-0153, U+02C6, U+02DA, U+02DC, U+2000-206F, U+2074, U+20AC, U+2212, U+2215;
                                                                                 	}.cls-1{fill:#412312;opacity:0.23;}.cls-2{fill:#d0ceca;}.cls-3{font-size:25.57px;font-family:MyriadPro-Bold, Myriad Pro;font-weight:700;}.cls-3,.cls-6{fill:#333;}.cls-4{letter-spacing:-0.01em;}.cls-5{letter-spacing:-0.01em;}.cls-7{fill:#989898;}</style></defs><title>pantallas_09a</title><g id="propuesta-01_09a"><polygon class="cls-1" points="3.66 559.86 10.34 5.13 384.08 10.63 377.09 566.53 3.66 559.86"/><polygon class="cls-2" points="0 554.73 6.68 0 380.42 5.5 373.43 561.4 0 554.73"/><text class="cls-3" transform="matrix(1, 0.01, -0.01, 1, 29.11, 47.18)"><tspan class="cls-4">P</tspan><tspan class="cls-5" x="14.63" y="0">r</tspan><tspan x="24.14" y="0">opuesta 1</tspan></text><rect class="cls-6" x="27.7" y="84.12" width="128.85" height="17.71" transform="translate(1.63 -1.59) rotate(0.99)"/><rect class="cls-7" x="27.35" y="108.34" width="312.79" height="10.82" transform="translate(2 -3.17) rotate(0.99)"/><rect class="cls-7" x="27.08" y="124.07" width="312.79" height="10.82" transform="translate(2.28 -3.17) rotate(0.99)"/><rect class="cls-6" x="25.33" y="161.81" width="128.85" height="17.71" transform="translate(2.98 -1.53) rotate(0.99)"/><rect class="cls-7" x="24.98" y="186.02" width="312.79" height="10.82" transform="translate(3.35 -3.12) rotate(0.99)"/><rect class="cls-7" x="24.71" y="201.76" width="312.79" height="10.82" transform="translate(3.62 -3.11) rotate(0.99)"/><rect class="cls-6" x="23.09" y="241.46" width="128.85" height="17.71" transform="translate(4.36 -1.48) rotate(0.99)"/><rect class="cls-7" x="22.74" y="265.68" width="312.79" height="10.82" transform="translate(4.73 -3.07) rotate(0.99)"/><rect class="cls-7" x="22.47" y="281.41" width="312.79" height="10.82" transform="translate(5.01 -3.06) rotate(0.99)"/><rect class="cls-7" x="22.74" y="365.68" width="312.79" height="10.82" transform="translate(6.47 -3.05) rotate(0.99)"/><rect class="cls-7" x="22.47" y="381.41" width="312.79" height="10.82" transform="translate(6.74 -3.05) rotate(0.99)"/><rect class="cls-7" x="22.74" y="454.53" width="312.79" height="10.82" transform="translate(8.01 -3.04) rotate(0.99)"/><rect class="cls-7" x="22.47" y="470.27" width="312.79" height="10.82" transform="translate(8.28 -3.03) rotate(0.99)"/><rect class="cls-7" x="22.74" y="485.03" width="312.79" height="10.82" transform="translate(8.54 -3.04) rotate(0.99)"/><rect class="cls-7" x="22.47" y="500.76" width="312.79" height="10.82" transform="translate(8.81 -3.03) rotate(0.99)"/><rect class="cls-6" x="23.09" y="339.82" width="128.85" height="17.71" transform="translate(6.07 -1.47) rotate(0.99)"/></g></svg>