<?xml version="1.0" encoding="utf-8"?>
<!-- Generator: Adobe Illustrator 19.1.0, SVG Export Plug-In . SVG Version: 6.00 Build 0)  -->
<svg version="1.1" xmlns="http://www.w3.org/2000/svg" xmlns:xlink="http://www.w3.org/1999/xlink" x="0px" y="0px"
	 viewBox="0 0 504.1 226" style="enable-background:new 0 0 504.1 226;" xml:space="preserve">
<style type="text/css">
	.st0{fill:#F0EEE9;}
	.st1{fill:#333333;}
	.st2{font-family:'Roboto-Black';}
	.st3{font-size:15px;}
	.st4{fill:none;}
	.st5{font-family:'Roboto-Regular';}
	.st6{font-size:11px;}
	.st7{fill:#D1CFCB;}
	.st8{opacity:0.2;fill:#333333;}
	.st9{fill:#CC8383;}
	.st10{opacity:0.2;fill:none;stroke:#000000;stroke-width:2.5503;stroke-miterlimit:10;}
	.st11{fill:none;stroke:#7C181F;stroke-width:2.5503;stroke-miterlimit:10;}
	.st12{clip-path:url(#SVGID_2_);}
	.st13{fill:#C6AA6D;}
	.st14{fill:#6E6E6E;}
	.st15{fill:#7A7A7A;}
	.st16{fill:#F2CCC0;}
	.st17{fill:#EAAE99;}
	.st18{fill:#1A1A1A;}
	.st19{fill:#AD9360;}
	.st20{fill:#FFFFFF;}
	.st21{opacity:0.23;fill:#5C5C5C;}
	.st22{opacity:0.31;fill:#6E6E6E;}
	.st23{fill:none;stroke:#EAAE99;stroke-width:2.9899;stroke-linecap:round;stroke-miterlimit:10;}
	.st24{fill:none;stroke:#EAAE99;stroke-width:1.9933;stroke-linecap:round;stroke-miterlimit:10;}
</style>
<g id="texto_x5F_09">
	<g>
		<g>
			
				<rect x="181.5" y="19.6" transform="matrix(0.9987 -5.173679e-02 5.173679e-02 0.9987 -3.5694 17.3314)" class="st0" width="303" height="116"/>
			<text transform="matrix(0.9989 -4.769000e-02 4.769000e-02 0.9989 222.7792 45.4683)"><tspan x="0" y="0" class="st1 st2 st3">FORTALECIMIENTO DEL PODER </tspan><tspan x="0" y="18" class="st1 st2 st3">JUDICIAL Y DEL MINISTERIO </tspan><tspan x="0" y="36" class="st1 st2 st3">PÚBLICO FISCAL</tspan></text>
			<polygon class="st4" points="225.5,91.6 462.8,81.6 468.5,165.6 229.5,176.6 			"/>
			<text transform="matrix(0.9989 -4.769000e-02 4.769000e-02 0.9989 225.9375 100.9687)" class="st1 st5 st6">Prevención de Adicciones, texto descriptivo</text>
		</g>
	</g>
</g>
<g id="foto_x5F_09">
	<g>
		<path class="st7" d="M207.8,206.7C140.3,202,18.1,199,18.1,199C22.3,95.6,25.8,9.3,25.8,9.3S180.6,19.7,215.5,17
			C215.5,17,204.8,178,207.8,206.7z"/>
		<polygon class="st8" points="33.5,187 199.9,199.1 198.7,34.8 		"/>
		
			<rect x="34.2" y="25.5" transform="matrix(0.9992 4.055011e-02 -4.055011e-02 0.9992 4.4757 -4.6467)" class="st9" width="165.1" height="165.1"/>
		<g>
			<path class="st10" d="M128.6,14.4c-0.3-3.5-0.3-3.4-0.4-3.6c-0.5-0.7-12.8-0.6-13.6,0.2c-0.8,0.8,0.8,23.7,5.5,32.4
				c4.8,8.7,10.4,6.9,8.1-15.2"/>
			<path class="st11" d="M127.7,14.9c-0.2-2-0.3-3.3-0.4-3.4c-0.5-0.7-12.8-0.6-13.6,0.2c-0.8,0.8,0.8,23.7,5.5,32.4
				c4.7,8.7,10.4,6.9,8.1-15.2"/>
		</g>
		<g>
			<defs>
				
					<rect id="SVGID_1_" x="34.2" y="25.5" transform="matrix(0.9992 4.055011e-02 -4.055011e-02 0.9992 4.4757 -4.6467)" width="165.1" height="165.1"/>
			</defs>
			<clipPath id="SVGID_2_">
				<use xlink:href="#SVGID_1_"  style="overflow:visible;"/>
			</clipPath>
			<g class="st12">
				<g>
					<g>
						<path class="st13" d="M145.5,101.3c-1.3,2.6-0.9,5.8,1.2,7.9c1.4,1.4,3.5-0.7,2.1-2.1c-1.1-1.1-1.5-2.8-0.7-4.3
							C149,101.1,146.4,99.6,145.5,101.3L145.5,101.3z"/>
					</g>
				</g>
				<g>
					<g>
						<path class="st13" d="M142.5,107.5c2.5-1.3,5.3,0.2,7.9-1.4c1.8-1.1,3.3-3.3,4.1-5.2c1.1-2.7-0.9-8.3-4.3-5.1
							c-2.1,1.9,0.1,4.9,2.6,4.6c3.2-0.4,3.9-3.7,1.5-5.5c-0.6-0.5-1.8-0.1-2,0.5c-0.2,0.5-1.9,4.6-2.5,4.5c0,1,0,1.9,0,2.9
							c1.5-0.5,2.3-1.1,3.2-2.5c0.4-0.6,0.2-1.7-0.5-2c-4.1-1.7,2.2-3.1,2.5-3.5c1.1-1.4,2.1-2.6,2.6-4.4c1.1-3.2,0.3-6.3-2.8-7.8
							c-1.7-0.9-3.2,1.7-1.5,2.6c1.3,0.6,1.6,0.7,3,0.9c-0.5-0.5-1-1-1.5-1.5c0.6,2.3-0.7,3.8-3.9,4.6c0,1,0,2,0,3
							c2.3-0.3,3.8-1.6,3.5-4.1c-0.1-1.1-1.6-2.2-2.6-1.1c-0.8,1-1.7,2.1-2.5,3.1c0.8,0.1,1.6,0.2,2.3,0.3c-0.3-0.7-0.5-1.4-0.8-2.2
							c-0.1-0.8-1.1-1.3-1.8-1c-0.3,0.1-0.7,0.2-1,0.3c0.6,0.2,1.1,0.5,1.7,0.7c-1.3-1.7-1.6-3.6-1.1-5.7c1.2-1.4,1.1-1.1-0.2,0.8
							c0.9,0.4,1.8,0.8,2.7,1.2c0.3-1.6,0.3-2.9-0.1-4.5c-0.4-1.6-2.4-1.2-2.9,0c-1.5,3.5,0.8,6.5,4.5,6.5c-0.4-0.9-0.7-1.7-1.1-2.6
							c-0.2-0.2-0.4-0.5-0.6-0.7c1.1-1.6-1.5-3.1-2.6-1.5c-2.8,4,1.9,7.7,5.3,4.4c0.9-0.9,0.2-2.5-1.1-2.6c-0.5-0.9-1.1-1.8-1.6-2.7
							c-1,0-1.9,0-2.9,0c0,1,0.1,1.9,0.1,2.9c-0.3,1.7,1.7,2.6,2.7,1.2c1.7-2.3,2.3-8.5-2.4-6.9c-4.6,1.6-3.4,8.7-1.5,11.8
							c0.3,0.5,1.1,0.9,1.7,0.7c0.3-0.1,0.7-0.2,1-0.3c-0.6-0.3-1.2-0.7-1.8-1c0.3,1.7,0.2,1.4,1.1,2.9c0.5,0.7,1.7,1.1,2.3,0.3
							c0.8-1,1.7-2.1,2.5-3.1c-0.9-0.4-1.7-0.7-2.6-1.1c-0.2,0.4-0.4,0.7-0.5,1.1c-1.9,0.2-2,3,0,3c4.4,0,7.4-3.1,6.9-7.6
							c-0.1-0.9-0.6-1.4-1.5-1.5c-0.5-0.2-1-0.3-1.5-0.5c-0.5,0.9-1,1.7-1.5,2.6c1.5,0.8,2.3,5.8,0.2,7c-0.4,0.2-1.3-0.3-1.8-0.1
							c-1.3,0.5-2.3,0.7-3.2,1.9c-1.9,2.7-0.2,5.7,2.4,6.9c-0.2-0.7-0.4-1.4-0.5-2c-0.5,0.4-0.9,0.8-1.4,1.1c-1.2,0.4-1.6,2.6,0,2.9
							c3.5,0.5,4.7-3.2,5.8-5.9c-0.7,0.2-1.4,0.4-2,0.5c-0.7,2.1-1.7,3.9-3.1,5.5c-1.7,1.1-3.5,1.5-5.4,1.1
							c-1.7,0.2-1.8,0.1-3.3,0.9C139.3,105.8,140.8,108.4,142.5,107.5L142.5,107.5z"/>
					</g>
				</g>
				<polygon class="st14" points="87.7,148.3 134.9,149.3 142.5,156.4 115.1,179.6 83.6,163.6 				"/>
				<path class="st15" d="M94.2,152.2c0,0-37.9,6.2-45.1,11.5s-9.9,28.2-9.9,28.2l71.9,23.9l75.3-23.4c0,0,0.7-20.4-13.9-29.2
					c-14.5-8.8-41.9-9.6-41.9-9.6L94.2,152.2z"/>
				<polygon class="st16" points="99.5,132.1 93.2,156.3 104.5,179.1 131.7,165.8 130.5,133 				"/>
				<path class="st13" d="M74.2,70.9c1.2,4.9,2,29,1.8,33.1c-0.3,4.1,1.3,12.8,5.5,15.7c4.2,2.9,10.2,11.4,10.8,11.1s48-4.8,48-4.8
					s5.4-6.5,5.2-15.5s3-25.8,5.5-28.3c2.5-2.5,0.4-22-2.2-23.7c-2.6-1.7-6.3-13.4-17.7-14.6c-6.5-0.7-25.3-5.6-39.2,1.6
					C81.1,51,73.7,68.8,74.2,70.9z"/>
				<path class="st17" d="M98.4,137.1l-4,15.4c0,0,30.3,2.5,35.1-14.5L98.4,137.1z"/>
				<path class="st17" d="M143.2,93.5c0,0,3.7-7.8,5.9-6.6c2.2,1.2,1.9,9.4,0.5,11.4c-1.4,2-6.7,11.5-6.7,11.5l-2.2-7L143.2,93.5z"
					/>
				<path class="st17" d="M84,84.7c0,0-5.3-5.8-5.6,0.9s7,19.6,7,19.6S89.2,90.3,84,84.7z"/>
				<path class="st16" d="M145.3,92.8c-0.5,4-1,7.8-1.5,11.2c-4.7,33.6-7.8,39.9-30.5,39.4c-23.6-0.5-26.1-10.9-28.9-51.9
					c-2.7-39,14.6-47.5,31.5-47.2C132.6,44.7,151,50.3,145.3,92.8z"/>
				<g>
					
						<ellipse transform="matrix(0.9998 2.039075e-02 -2.039075e-02 0.9998 1.8046 -2.0553)" class="st18" cx="101.7" cy="87.5" rx="2.5" ry="4"/>
					
						<ellipse transform="matrix(0.9998 2.039075e-02 -2.039075e-02 0.9998 1.8226 -2.6444)" class="st18" cx="130.6" cy="88.1" rx="2.5" ry="4"/>
				</g>
				<polygon class="st13" points="90.9,80.9 90.3,84.8 111.2,83.7 112.3,77.4 				"/>
				<polygon class="st13" points="123,78.1 123,83.9 137.4,85.3 138,82.3 				"/>
				<g>
					<g>
						<path class="st13" d="M72.2,60.9c-1.4,3.1,0.5,9.5,4.9,8.2c3.8-1.1,5-6.2,2.2-8.9c-0.5-0.5-1.2-0.6-1.8-0.2
							c-1.1,0.7-1.2,2.2,0,2.9c1.7,1,3.2-1.6,1.5-2.6c0,0-0.1,0-0.1-0.1c0.2,0.4,0.5,0.9,0.7,1.3c0-0.1,0-0.1,0-0.2
							c-0.2,0.4-0.5,0.9-0.7,1.3c0,0,0.1-0.1,0.1-0.1c-0.6-0.1-1.2-0.2-1.8-0.2c1.1,1.1,0.8,2.9-0.6,3.7c-1.6,0.9-2.3-2.6-1.9-3.6
							C75.6,60.7,73,59.2,72.2,60.9L72.2,60.9z"/>
					</g>
				</g>
				<g>
					<g>
						<path class="st13" d="M72.4,61.6c-0.4,1.6-0.2,3.3,0.6,4.7c0.7,1.2,2.1,2.1,3.5,1.4c2.7-1.4,2.5-5.3,0.8-7.3
							c-0.5-0.6-1.6-0.6-2.1,0c-1,1.1-1.6,2.7-1.2,4.3c0.2,0.8,0.9,1.3,1.7,1.3c0.7,0,1.4-0.5,2.1-0.8c1.7-0.8,0.2-3.4-1.5-2.6
							c-0.2,0.1-1.1,0.4-0.7,0.4c0.4,0.1,0.7,0.3,1.1,0.4c0.1,0.4,0.2,0.4,0.2,0.1c0-0.1,0-0.2,0-0.3c0.1-0.3,0.2-0.5,0.4-0.7
							c-0.7,0-1.4,0-2.1,0c0.3,0.3,0.4,0.7,0.4,1.1c0,0.5-0.3,0.8-0.3,1.3c0,0-0.1,0.1-0.1,0.1c0.4,0.1,0.6,0,0.5-0.1
							c0-0.1-0.2-0.5-0.3-0.6c-0.2-0.6-0.2-1.2-0.1-1.8C75.8,60.5,72.9,59.7,72.4,61.6L72.4,61.6z"/>
					</g>
				</g>
				<g>
					<g>
						<path class="st13" d="M77.3,50.4c-1,2.4-1.3,6.9,1.4,8.4c3.3,1.8,5-3.2,5.1-5.6c0-1.3-0.7-2.6-2.1-2.6c-1.4,0-2.4,1-2.9,2.3
							c-0.4,1.1-0.2,2.6,1.2,3c1.7,0.5,2.5-1.3,3-2.5c-0.9,0.1-1.8,0.2-2.7,0.4c0.5,0.7,1.1,1.3,1.8,1.8c0.3,0.2,0.7,0.4,1,0.6
							c0.2,0.1,0.4,0.2,0.6,0.2c0.5,0.3,0.5,0-0.1-0.9c-1.2,1.5,1.4,3,2.6,1.5c1.9-2.5-2.3-3.3-3.3-4.7c-0.8-1.1-2.3-0.9-2.7,0.4
							c-0.1,0.2-0.2,0.5-0.3,0.6c0.4-0.1,0.8-0.1,1.2-0.2c-0.1,0-0.1,0-0.2-0.1c0.3,0.2,0.6,0.5,0.9,0.7c0,0.2,0.1,0.2,0.2,0
							c0.3-0.4,0-0.7-0.9-0.7c-0.1,0.1-0.1,1-0.1,1.2c-0.1,0.3-0.5,1.9-0.7,1.8c-0.4-0.2-0.4-1.8-0.4-2.1c0-0.9,0.2-1.8,0.6-2.6
							C80.9,49.4,78,48.7,77.3,50.4L77.3,50.4z"/>
					</g>
				</g>
				<g>
					<g>
						<path class="st13" d="M81.4,56.3c0.1,1.6,0.3,3.2,0.7,4.7c0.5,1.9,3.4,1.1,2.9-0.8c-0.3-1.3-0.5-2.6-0.6-3.9
							C84.3,54.4,81.3,54.4,81.4,56.3L81.4,56.3z"/>
					</g>
				</g>
				<g>
					<g>
						<path class="st13" d="M78.5,96.3c-2.2,0.4-4,1.9-5.1,3.8c-1,1.8-2,4.5-1.3,6.6c0.5,1.7,2.4,2.8,4.2,2.2
							c0.7-0.3,1.3-0.8,1.6-1.5c0.2-0.4,0.1-0.9,0.3-1.3c0,0.1,0.4-1.4,0.8-0.6c0.4-0.7,0.9-1.5,1.3-2.2c-1.9,0-3.3,0.9-4.3,2.4
							c-0.5,0.8,0,2,0.9,2.2c1.3,0.3,2.4,0,3.4-1c-0.8-0.1-1.6-0.2-2.3-0.3c0.1,0.3,0.3,0.5,0.4,0.8c0.8,1.7,3.4,0.2,2.6-1.5
							c-0.1-0.3-0.3-0.5-0.4-0.8c-0.4-0.9-1.7-1-2.3-0.3c-0.2,0.1-0.3,0.1-0.5,0.2c0.3,0.7,0.6,1.5,0.9,2.2c0.4-0.7,0.9-0.9,1.7-1
							c1.2,0,1.8-1.2,1.3-2.2c-1.2-2.3-5.3-1.8-6.1,0.6c-0.1,0.2-0.3,1.5-0.2,1.5c-0.6-0.1,0.1-2.6,0.2-2.8c0.7-2,1.8-3.6,4-4.1
							C81.2,98.8,80.4,95.9,78.5,96.3L78.5,96.3z"/>
					</g>
				</g>
				<g>
					<g>
						<path class="st13" d="M81,113.5c0.3,0.2,0.5,0.4,0.8,0.8c0-0.7,0-1.4,0-2.1c-0.4,0.5-0.7,0.9-0.9,1.5c0.9-0.1,1.8-0.2,2.7-0.4
							c-0.4-0.9-0.9-1.8-1.5-2.6c-0.5-0.7-1.3-1-2-0.5c-0.7,0.4-1,1.4-0.5,2c0.6,0.8,1.1,1.7,1.5,2.6c0.2,0.5,1,0.8,1.5,0.7
							c0.6-0.1,1-0.5,1.2-1.1c0,0.1,0.1-0.1,0.2-0.2c0.6-0.6,0.5-1.5,0-2.1c-0.4-0.5-0.9-0.9-1.4-1.2c-0.7-0.4-1.7-0.1-2,0.5
							C80.1,112.2,80.3,113.1,81,113.5L81,113.5z"/>
					</g>
				</g>
				<g>
					<g>
						<path class="st13" d="M89.3,49.2c3-0.6,3.3-4.3,1.7-6.4c-1.8-2.3-5-2.3-7.2-0.5c-1.6,1.3-3.6,5.3-0.4,6.1
							c2.9,0.7,4.2-3.1,2.4-5c0.1,0.6,0.2,1.2,0.2,1.8c-0.1,0.1-0.2,0.1-0.3,0.2c0.2-0.1,0.4-0.1,0.4,0.1c0,0.3-0.4,0.8-0.6,1.1
							c0.8,0.5,1.7,1,2.5,1.5c0.1-0.2,0.2-0.4,0.2-0.6c0.7-1.8-2.2-2.6-2.9-0.8c-0.1,0.2-0.2,0.4-0.2,0.6c-0.5,1.4,1.6,2.6,2.5,1.5
							c1.2-1.6,2.4-3.9,0.5-5.5c-1.2-1.1-4-1.1-4.7,0.6c-0.3,0.6-0.3,1.3,0.2,1.8c0.1,0.2,0.2,0.2,0.5,0.2c0.4,0.3,0.6,0.3,0.6-0.1
							c0.2-0.2,0.3-0.5,0.5-0.7c0.5-0.5,1.2-0.9,1.9-0.9c1,0,2.8,2.1,1.3,2.4C86.6,46.7,87.4,49.6,89.3,49.2L89.3,49.2z"/>
					</g>
				</g>
				<g>
					<g>
						<path class="st13" d="M85.4,48c0.2,0.7,0.2,1.5,0.5,2.2c0.3,0.6,0.8,1.1,1.5,1.3c1.4,0.4,2.7-0.6,2.7-2c0-0.5-0.3-1-0.7-1.3
							c-2-1.2-5.4,0.2-5.9,2.5c-0.3,1.2,0.4,2.5,1.6,2.9c0.6,0.2,1.2,0.1,1.8-0.2c0.4-0.2,0.7-0.6,1.1-0.8c0.8-0.3,1.3-1,1-1.8
							c-0.2-0.7-1.1-1.3-1.8-1c-0.4,0.2-0.8,0.3-1.1,0.6c-0.1,0.1-0.3,0.2-0.4,0.3c-0.3,0.3-0.2-0.1,0.1,0c0.2,0.1,0.4,0.3,0.7,0.4
							c-0.2-0.2-0.2-0.2-0.1,0.1c0,0.3,0.1,0.3,0.1,0.1c0,0,0.5-0.4,0.4-0.3c0.3-0.2,0.7-0.4,1-0.2c-0.2-0.4-0.5-0.9-0.7-1.3
							c0,0.1,0,0.1,0,0.2c0.1-0.3,0.1-0.5,0.2-0.8c0.9,0.3,1.3,0.2,1.2-0.2c0-0.1,0-0.3,0-0.4c0-0.4-0.1-0.7-0.2-1
							C87.7,45.4,84.8,46.2,85.4,48L85.4,48z"/>
					</g>
				</g>
				<g>
					<g>
						<path class="st13" d="M102.8,41.4c-1,0.6-1.9,0.2-2.7-0.5c-0.4-0.4-0.7-0.8-1.1-1.2c-0.2-0.2-0.5-1.2-0.5-0.6
							c-0.1,0.4-0.3,0.7-0.4,1.1c0.3-0.3,1.1-0.5,1.5-0.6c-0.5-0.8-1-1.7-1.5-2.5c-1.6,1.5-5.2,3.7-3.6,6.3c1.6,2.6,4.5,1.2,6.3-0.2
							c-0.8-0.6-1.6-1.2-2.3-1.8c-0.3,0.4-0.6,0.9-0.9,1.3c-1.1,1.6,1.5,3.1,2.6,1.5c0.3-0.4,0.6-0.9,0.9-1.3c1-1.5-1.1-2.8-2.3-1.8
							c-0.5,0.4-2.3,1.7-0.8,0.3c0.8-0.7,1.5-1.5,2.3-2.2c1.1-1,0-3-1.5-2.5c-1.1,0.4-2.7,0.7-3.2,1.8c-0.5,1.3,0.6,2.5,1.3,3.4
							c1.7,2.2,4.7,3.7,7.4,2.1C105.9,43,104.4,40.4,102.8,41.4L102.8,41.4z"/>
					</g>
				</g>
				<g>
					<g>
						<path class="st13" d="M91.1,43.4c0.1,1.2,0.9,2.1,2.1,2.4c1.3,0.2,2.3-0.5,3.2-1.3c0.6-0.5,0.6-1.6,0-2.1
							c-0.6-0.6-1.5-0.5-2.1,0c-0.1,0.1-0.4,0.3-0.4,0.3c-0.1,0.1-0.2,0.2-0.3,0.1c0,0,0.4,0.2,0.1,0c0.3,0.1,0.4,0.2,0.4,0.6
							c0-0.8-0.7-1.5-1.5-1.5C91.8,41.9,91.1,42.6,91.1,43.4L91.1,43.4z"/>
					</g>
				</g>
				<g>
					<g>
						<path class="st13" d="M104.1,43.8c0.1-0.4,0-1.4,0.3-1.7c-0.3,0.2-0.6,0.5-0.9,0.7c-0.3,0.1,0.8,0.2,1,0.3
							c0.6,0.1,1.2,0.3,1.8,0.4c1.6,0.4,2.7-1.9,1.2-2.7c-1-0.5-3.1-2.2-1.5-3.2c1.3-0.9,3.2-0.6,4.6-0.1c1.8,0.6,2.6-2.3,0.8-2.9
							c-2.6-0.9-6.6-0.8-8.4,1.7c-1.8,2.6,0.7,5.9,3,7.1c0.4-0.9,0.8-1.8,1.2-2.7c-1.3-0.3-3.3-1.3-4.6-0.6
							c-1.4,0.7-1.3,2.6-1.4,3.8C100.8,45.7,103.8,45.7,104.1,43.8L104.1,43.8z"/>
					</g>
				</g>
				<g>
					<g>
						<path class="st13" d="M110.2,35.1c-0.2,0.1-0.4,0.1-0.5,0.2c0.6,0.3,1.2,0.7,1.8,1c-0.4-1.2-1.3-2.1-2.6-2.4
							c-0.8-0.2-1.6,0.2-1.8,1c-0.4,1.3-0.5,3.2,1.1,3.7c1.7,0.5,2.6-1,2.7-2.4c-1,0.1-2,0.3-2.9,0.4c0.1,0.6-0.1,1-0.3,1.5
							c-0.1,0.2,0.1,0.2,0,0c-0.1-0.2-0.3-0.5-0.5-0.7c-0.8,0.6-1.6,1.2-2.3,1.8c0.5,0.6,1.4,1.3,2.2,1.4c0.3,0.1,0.4,0.1,0.2,0
							c0.2,0.2,0.4,0.3,0.5,0.4c0.3,0.3,0.7,0.5,1,0.7c1.7,0.9,3.2-1.7,1.5-2.6c-0.6-0.3-1.1-0.9-1.7-1.2c-0.7-0.3-1.1-0.3-1.7-0.9
							c-1.1-1.3-3.2,0.4-2.3,1.8c0.9,1.6,2.6,3,4.5,1.9c1.6-1,2-3.3,1.7-5c-0.1-0.7-1-1.2-1.6-1.1c-0.8,0.1-1.2,0.7-1.3,1.5
							c0.2-0.2,0.4-0.3,0.7-0.5c0.4,0.1,0.7,0.3,1.1,0.4c0.2,0.7,0.2,0.8,0.2,0.2c0-0.2,0.1-0.4,0.2-0.6c-0.6,0.3-1.2,0.7-1.8,1
							c0.2,0,0.4,0,0.5,0.3c0.3,0.8,1,1.3,1.8,1c0.2-0.1,0.4-0.1,0.5-0.2C112.9,37.4,112.1,34.5,110.2,35.1L110.2,35.1z"/>
					</g>
				</g>
				<g>
					<g>
						<path class="st13" d="M110,42.5c1.9,0.9,4.1,0.1,5.5-1.4c1.4-1.5,1.5-3.8-0.3-5.1c-1.4-1-3,1.2-1.8,2.3
							c0.7,0.7,1.8,1.1,2.6,0.4c0.9-0.7,0.8-1.8,0.2-2.6c-0.5-0.6-1.6-0.5-2.1,0c-0.6,0.6-0.5,1.5,0,2.1c0,0,0.1,0.1,0.1,0.1
							c-0.1-0.4-0.3-0.7-0.4-1.1c0,0,0,0.1,0,0.1c0.1-0.3,0.1-0.5,0.2-0.8c0,0-0.1,0.1-0.1,0.1c0.3-0.2,0.6-0.5,0.9-0.7
							c0,0-0.1,0-0.1,0.1c0.3,0,0.5,0,0.8,0c0,0,0.1,0,0.1,0.1c-0.6,0.8-1.2,1.6-1.8,2.3c-0.1-0.1,0,0-0.1,0.1
							c-0.2,0.3-0.3,0.5-0.6,0.7c-0.3,0.3-1,0.8-1.5,0.6C109.8,39,108.3,41.6,110,42.5L110,42.5z"/>
					</g>
				</g>
				<g>
					<g>
						<path class="st13" d="M109.9,39.9c0.1,0.3,0.3,0.6,0.4,0.9c0.3,0.7,1.2,0.9,1.9,0.6c0.7-0.3,1.1-1,0.9-1.8
							c-0.1-0.4-0.2-0.8-0.3-1.1c-0.5,0.6-1,1.3-1.4,1.9c0.5,0,1,0.1,1.4,0.1c0.8,0.1,1.5-0.7,1.5-1.5c0-0.9-0.7-1.4-1.5-1.5
							c-0.5,0-1-0.1-1.4-0.1c-1-0.1-1.7,1-1.4,1.9c0.1,0.4,0.2,0.8,0.3,1.1c0.9-0.4,1.8-0.8,2.7-1.2c-0.1-0.3-0.3-0.6-0.4-0.9
							c-0.3-0.7-1.4-0.9-2-0.5C109.6,38.3,109.5,39.2,109.9,39.9L109.9,39.9z"/>
					</g>
				</g>
				<g>
					<g>
						<path class="st13" d="M114.4,44.3c1.1,1.9,3.4,0.9,4.7-0.1c1.4-1.2,2.2-2.9,2.4-4.8c-1,0-2,0-3,0c-0.1,0.8,0.2,1.7,0.6,2.3
							c0.4-0.7,0.9-1.5,1.3-2.2c-0.9,0-1.8,0-2.7,0c0.3,0.9,0.5,1.9,0.8,2.8c0.8-0.6,1.6-1.2,2.4-1.8c0.6-0.5,1-1.3,0.5-2
							c-0.4-0.6-1.4-1-2-0.5c-0.8,0.6-1.6,1.2-2.4,1.8c-1.2,0.9-0.8,2.7,0.8,2.8c0.9,0.1,1.8,0.1,2.7,0c1,0,2-1.3,1.3-2.2
							c-0.2-0.3-0.3-0.5-0.2-0.8c0.1-0.8-0.7-1.5-1.5-1.5c-0.9,0-1.4,0.7-1.5,1.5c-0.1,0.7-0.4,1.4-0.8,2c-0.2,0.3-1,1.1-1.4,1
							c0.2,0.1,0.4,0.3,0.7,0.4c0,0,0,0,0,0C116,41.1,113.5,42.6,114.4,44.3L114.4,44.3z"/>
					</g>
				</g>
				<g>
					<g>
						<path class="st13" d="M123.1,39.5c-0.1-0.7-0.3-1.2-0.9-1.6c-0.6-0.4-1.3-0.4-1.9,0c-0.5,0.3-0.8,0.7-1.2,1.1
							c-0.2,0.2-0.4,0.4-0.6,0.6c-0.1,0.1-0.1,0.1-0.2,0.2c-0.4,0.2-0.3,0.2,0.2,0.1c0.2,0.2,0.4,0.4,0.5,0.5c0,0,0,0,0,0
							c-0.5,0.6-1,1.3-1.4,1.9c1-0.1,2-0.2,3-0.3c0.8-0.1,1.5-0.6,1.5-1.5c0-0.8-0.7-1.6-1.5-1.5c-1,0.1-2,0.2-3,0.3
							c-1,0.1-1.7,0.9-1.4,1.9c0.3,1.4,1.9,2,3.2,1.4c0.5-0.2,1-0.6,1.4-1c0.4-0.3,0.8-1,1.2-1.2c-0.3,0.1-0.5,0.1-0.8,0.2
							c0.1,0,0.1,0,0.2,0c-0.3-0.1-0.5-0.1-0.8-0.2c0,0,0,0,0,0c-0.1-0.4-0.3-0.7-0.4-1.1c0,0.1,0,0.1,0,0.2
							c0.1,0.8,0.6,1.5,1.5,1.5C122.3,41,123.2,40.3,123.1,39.5L123.1,39.5z"/>
					</g>
				</g>
				<g>
					<g>
						<path class="st13" d="M126.4,44.1c-0.1-0.8-0.1-1.6,0.1-2.5c0.2-0.9,0.3-0.8,0.9-0.1c1,1,3,0,2.5-1.5
							c-0.8-2.2-3.4-2.8-5.3-1.4c-1.4,1.1-3.8,4.8-0.7,5.3c1.1,0.2,1.9-0.5,2.5-1.3c0.4-0.5,0.8-1,1.3-1.5c0.6-0.5,1.2-0.5,1.8-0.8
							c2.1-0.9,0.1-2.1-0.8-2.2c-0.6,0-1.1,0.1-1.6,0.4c-1.1,0.6-1.7,1.8-1.6,3c0.2,1.9,3.2,1.9,3,0c-0.1-0.5,0.3-0.2,0.7,0
							c0.4,0.1,0.7,0.2,1.1,0.2c0.6,0,1.2-0.3,1.6-0.7c1.1-1.1,0.6-2.8-0.8-3.4c-1.4-0.5-3.1-0.1-4.3,0.6c-0.7,0.4-1.3,0.9-1.8,1.4
							c-0.3,0.3-0.5,0.6-0.8,1c-0.1,0.1-0.2,0.2-0.2,0.4c-0.4,0.4,0,0.5,1,0.2c0.1,0.4,0.3,0.7,0.4,1.1c0-0.1,1.5-1.8,1.6-1.4
							c0.8-0.5,1.7-1,2.5-1.5c-1.2-1.3-3-2.3-4.6-1c-1.5,1.2-1.7,3.9-1.5,5.7C123.6,46,126.6,46,126.4,44.1L126.4,44.1z"/>
					</g>
				</g>
				<g>
					<g>
						<path class="st13" d="M126.9,39.9c-1.2,1.6-0.6,3.8,0.9,5c1.3,1,4,1.7,5-0.1c1-1.9-1.4-3.9-3-2.4c-0.2,0.2-0.3,0.4-0.5,0.6
							c-0.1,0.2,0.2,0,0.1-0.1c-0.2-0.2-0.5-0.3-0.7-0.6c-0.5-0.8-0.9-1.6-1.6-2.3c-1.4-1.3-3.5,0.8-2.1,2.1c0.7,0.7,1,1.7,1.7,2.4
							c0.7,0.8,1.8,1.3,2.9,1.3c1.6-0.1,3.6-1.8,0.9-3c-0.7-0.3-1.7-0.6-1-1.5c0.5-0.6,0.1-1.7-0.5-2
							C128.2,38.9,127.4,39.2,126.9,39.9L126.9,39.9z"/>
					</g>
				</g>
				<g>
					<g>
						<path class="st13" d="M117.8,42.7c0.8,1.3,2.6,1.7,3.9,0.9c0.8-0.5,1.2-1.4,1-2.4c-0.2-0.8-0.9-1.6-1.9-1.5
							c0.1,1,0.3,2,0.4,2.9c0.4-0.1,0.8-0.3,1.2-0.4c0.8-0.2,1.3-1,1-1.8c-0.2-0.8-1.1-1.3-1.8-1c-0.4,0.1-0.8,0.3-1.2,0.4
							c-0.7,0.2-1.2,0.9-1.1,1.6c0.1,0.7,0.7,1.4,1.5,1.3c-0.1,0-0.1,0-0.2,0c-0.2-0.1-0.4-0.3-0.7-0.4c-0.3-0.2-0.2-0.9,0-1.1
							c0.1-0.1,0.1-0.1,0.2-0.1c-0.2,0-0.2,0-0.1,0c0.1,0,0.1,0-0.1,0c0.1,0,0.1,0,0.2,0c0.1,0.1,0.1,0-0.1,0c0.1,0,0.1,0.1,0.2,0.2
							c-0.4-0.7-1.3-1-2-0.5C117.6,41.1,117.3,42.1,117.8,42.7L117.8,42.7z"/>
					</g>
				</g>
				<g>
					<g>
						<path class="st13" d="M128.4,39.7c-0.6,2,0.1,4.1,1.7,5.5c1.7,1.6,4,2,6.3,2.3c1.9,0.2,1.9-2.8,0-3c-2-0.2-5.8-1.2-5-4
							C131.8,38.6,128.9,37.8,128.4,39.7L128.4,39.7z"/>
					</g>
				</g>
				<g>
					<g>
						<path class="st13" d="M139.5,47.8c-0.4-0.6-0.8-1.1-1-1.8c-0.2-0.5-0.8-1.6-0.6-2.2c0.1-0.4-0.1,0,0.3-0.1
							c0.4-0.1,0.7-0.2,1.1-0.3c0.5-0.1,1.7-0.3,1.6,0.4c0.7-0.4,1.5-0.9,2.2-1.3c-0.6-0.4-1.1-0.8-1.7-1.2
							c-0.3,0.9-0.5,1.9-0.8,2.8c-0.4,0-0.5,0.3-0.7,0.7c-1.1,1.6,1.5,3.1,2.6,1.5c1.4-2,0.9-5.1-1.9-5.2c-1.6-0.1-1.9,2-0.8,2.8
							c0.6,0.4,1.1,0.8,1.7,1.2c1,0.7,2.1-0.3,2.2-1.3c0.2-1.5-0.9-2.8-2.2-3.3c-1.6-0.5-3.4-0.1-4.9,0.5c-3.4,1.4-1.3,6,0.2,8.2
							C138,50.8,140.6,49.3,139.5,47.8L139.5,47.8z"/>
					</g>
				</g>
				<g>
					<g>
						<path class="st13" d="M142.4,46.9c1.1-1.1,1.2-2.9,0.3-4.2c-0.8-1.2-2.2-1.8-3.6-1.8c-3.1,0.1-4.7,3.6-3.3,6.2
							c0.9,1.7,3.5,0.2,2.6-1.5c-0.3-0.6-0.1-1.5,0.6-1.7c0.3-0.1,0.8,0,1,0.2c0.1,0.1,0.2,0.2,0.3,0.3c0.1,0.1,0.1,0.2,0,0.3
							c0.1-0.1,0-0.1,0,0C138.9,46.1,141.1,48.2,142.4,46.9L142.4,46.9z"/>
					</g>
				</g>
				<g>
					<g>
						<path class="st13" d="M127.7,40.4c0.6-2.2,3.4-1.8,3.8,0.3c0.4,1.9,3.2,1.1,2.9-0.8c-0.4-2.2-2.4-4-4.6-4
							c-2.3-0.1-4.3,1.6-4.9,3.8C124.3,41.5,127.1,42.3,127.7,40.4L127.7,40.4z"/>
					</g>
				</g>
				<g>
					<g>
						<path class="st13" d="M130.5,45.2c1.1,1.5,2.9,2.3,4.7,1.7c1.8-0.6,1-3.5-0.8-2.9c-0.4,0.1-0.4,0.1-0.8,0
							c-0.2-0.1-0.5-0.2-0.5-0.3c-0.5-0.7-1.3-1-2-0.5C130.4,43.5,130,44.6,130.5,45.2L130.5,45.2z"/>
					</g>
				</g>
				<g>
					<g>
						<path class="st13" d="M131.1,44c1.2,0.3,2.3,0.1,3.4-0.4c0.7-0.4,0.9-1.4,0.5-2c-0.4-0.7-1.3-0.9-2-0.5
							c-0.1,0.1-0.4,0.1-0.6,0.2c0.1,0-0.3,0-0.3,0c-0.1,0-0.1,0-0.2,0c0.1,0,0.1,0-0.1,0c-0.8-0.2-1.7,0.2-1.8,1
							C129.9,42.9,130.3,43.8,131.1,44L131.1,44z"/>
					</g>
				</g>
				<g>
					<g>
						<path class="st13" d="M133.7,45.7c0.7-0.5,1.4-0.8,2.3-0.9c0.8-0.1,1.2-1.1,1-1.8c-0.2-0.9-1-1.2-1.8-1
							c-1.1,0.2-2.1,0.6-3,1.2c-0.6,0.5-1,1.3-0.5,2C132,45.8,133,46.2,133.7,45.7L133.7,45.7z"/>
					</g>
				</g>
				<g>
					<g>
						<path class="st13" d="M141.5,49.3c1.9,0,1.9-3,0-3C139.5,46.3,139.5,49.3,141.5,49.3L141.5,49.3z"/>
					</g>
				</g>
				<g>
					<g>
						<path class="st13" d="M140.1,51.9c1.9,1.1,4.6,0.8,5.9-1.1c1.2-1.7,0.6-4.3-1.3-5.3c-1.3-0.7-2.8,0.7-2,2
							c0.7,1.2,1.8,1.6,3.1,1.4c0.7-0.1,1.3-1.1,1-1.8c-0.5-1.4-1.9-2.3-3.4-1.8c-1.8,0.6-1,3.5,0.8,2.9c0,0-0.3-0.3-0.3-0.3
							c0.3-0.6,0.7-1.2,1-1.8c0.1,0,0.2,0,0.3,0c-0.7,0.7-1.4,1.4-2,2c0.4,0.2,0.5,0.7,0.3,1.1c-0.4,0.6-1.4,0.5-1.9,0.2
							C139.9,48.3,138.4,50.9,140.1,51.9L140.1,51.9z"/>
					</g>
				</g>
				<g>
					<g>
						<path class="st13" d="M139.3,46.2c0.1-0.1,0.1-0.3,0.2-0.4c-0.3,0.2-0.6,0.5-0.9,0.7c0.1-0.1,0.3-0.1,0.4-0.2
							c-0.6-0.3-1.2-0.7-1.8-1c0,0.1-0.1,0.2-0.1,0.3c-0.7,1.3,0.7,2.9,2,2c0.8-0.5,1.4-1.1,2-1.8c-0.9-0.5-1.7-1-2.6-1.5
							c-0.6,1-0.9,2.2-0.3,3.2c0.7,1.2,1.7,1.1,2.9,1c-0.4-0.1-0.7-0.3-1.1-0.4c0.1,0.1,0.2,2.7,0.3,3c0.3,1.2,0.8,2.3,1.4,3.3
							c1,1.7,3.5,0.2,2.6-1.5c-0.5-0.9-0.9-1.9-1.1-2.9c-0.2-0.9,0-1.9-0.2-2.8c-0.1-0.6-0.4-1.1-0.9-1.4c-0.3-0.2-0.6-0.3-0.9-0.3
							c-0.1,0-0.3,0-0.4,0c-0.7,0-0.5,0.1,0.4,0.2c1-1.7-1.5-3-2.6-1.5c-0.2,0.3-0.5,0.6-0.9,0.8c0.7,0.7,1.4,1.4,2,2
							c0.5-0.9,0.6-1.6,0.4-2.6c-0.1-0.7-1.1-1.3-1.8-1c-0.8,0.3-1.1,0.5-1.5,1.2C135.8,46.4,138.4,47.9,139.3,46.2L139.3,46.2z"/>
					</g>
				</g>
				<g>
					<g>
						<path class="st13" d="M147.8,56c-0.1-0.1-0.1-0.1-0.2-0.2c-0.6-0.6-1.6-0.6-2.1,0c-0.6,0.6-0.6,1.5,0,2.1
							c0.1,0.1,0.1,0.1,0.2,0.2c0.6,0.6,1.6,0.6,2.1,0C148.3,57.5,148.3,56.6,147.8,56L147.8,56z"/>
					</g>
				</g>
				<g>
					<g>
						<path class="st13" d="M143.3,56.5c0,0.1,0,0.1,0,0.2c0.1,0.5,0.6,0.9,1,1c0.1,0,0.1,0,0.2,0.1c0.5,0.2,1.1,0,1.5-0.4
							c1-1,1-2.5,1.8-3.6c1.3-1.7,2.7,1.1,3.2,2.1c0.7-0.7,1.4-1.4,2-2c-1.4-0.9-3.4-2.5-5.1-2.5c-1.7,0-2.3,1.7-2.4,3.1
							c-0.1,0.8,0.7,1.4,1.5,1.5c0.7,0,1.1-0.2,1.6-0.5c0.1-0.1,0.3-0.3,0.5-0.3c0.1,0,0.7,0.9,0.6,1.1c0.1-0.4,0.3-0.7,0.4-1.1
							c-0.2,0.2-1,0.4-0.6,0.6c0.2,0.3,0.5,0.6,0.7,0.9c-0.3-0.1-0.7-0.2-1-0.2c0.9,0.3,1.9,0.5,2.8,0.8c0-0.1,0-0.2,0-0.3
							c-0.1,0.4-0.3,0.7-0.4,1.1c0.4-0.6,1-0.9,1.1-1.7c0.1-0.8-0.2-1.6-0.9-2.1c-1.5-1-3.1,0.1-3.6,1.6c-0.6,1.8,2.3,2.6,2.9,0.8
							c-0.4-1.2-0.9-1.6-1.4-1c-0.1,0.1-0.2,0.3-0.3,0.4c-0.2,0.4-0.3,0.7-0.3,1.2c0,1.5,2,2,2.8,0.8c1.2-2.1-1.1-4.3-3.2-3.3
							c-2,1-1.8,4.3,0.8,4c1-0.1,2.3-0.6,2.9-1.4c0.7-0.9,0.4-1.9,0-2.8c-0.5-1.1-1.3-2-2.6-2.3c-0.5-0.1-1-0.1-1.5,0
							c-0.2,0.1-1,0.7-1.2,0.7c0.5,0.5,1,1,1.5,1.5c0-0.1,0-0.2,0-0.3c-0.9,0-1.1,0.1-0.6,0.3c0.2,0.2,1,0.5,1.2,0.6
							c0.8,0.4,1.6,0.9,2.3,1.4c1.3,0.9,2.7-0.8,2-2c-1.1-2.2-2.9-4.6-5.7-4.1c-1.1,0.2-2,0.9-2.6,1.8c-0.6,0.9-0.7,2.4-1.4,3.2
							c0.5-0.1,1-0.3,1.5-0.4c-0.1,0-0.1,0-0.2-0.1c0.3,0.3,0.7,0.7,1,1c0-0.1,0-0.1,0-0.2C145.8,53.8,143,54.6,143.3,56.5
							L143.3,56.5z"/>
					</g>
				</g>
				<g>
					<g>
						<path class="st13" d="M148.5,60.8c0.4-0.9,0.9-0.9,1.3,0c0.2,0.6,0,1.6-0.1,2.2c-0.3,1.4-0.8,2,0,3.2c0.6-0.7,1.1-1.5,1.7-2.2
							c-3.3-1.3-2.9,4.2-1.7,5.7c1.9,2.4,6.3,2.3,6.8-1.2c0.3-1.9-2.6-2.7-2.9-0.8c-1,0.5-1.7,0.4-1.8-0.3c-0.1-0.5-0.5-0.7-1.2-0.5
							c1.2,0.5,2.4-1.2,1.7-2.2c-0.7-1.1-0.1-2.2-1.5-2.8c-1.1-0.5-2.3,0-2.8,1.1c-1,2.5,2.3,3.9,3.9,2.1c1.6-1.7,1.4-6.2-0.3-7.8
							c-2.4-2.2-5,0.3-5.9,2.5C144.9,61.8,147.8,62.6,148.5,60.8L148.5,60.8z"/>
					</g>
				</g>
				<g>
					<g>
						<path class="st13" d="M153.5,68c-0.4,0.5-0.8,0.9-1.4,1.1c-0.2,0.1-0.5,0.1-0.7,0.2c-0.1,0-0.2,0-0.4,0c0.1,0.1,0.1,0,0.1-0.1
							c0.1,0.2,0.3,0.4,0.4,0.7c0,0.3-0.2,0.6-0.5,0.7c-0.5-0.6-1-1.3-1.4-1.9c-0.3,1.4-0.5,2.9,0.1,4.2c0.6,1.2,1.8,2,3.1,2
							c1.9,0,1.9-3,0-3c-1,0-0.5-1.9-0.4-2.4c0.2-1-0.4-1.8-1.4-1.9c-2.5-0.2-3.3,3.3-1.1,4.4c1.9,1,4.5-0.4,5.8-1.9
							C156.9,68.7,154.7,66.5,153.5,68L153.5,68z"/>
					</g>
				</g>
				<g>
					<g>
						<path class="st13" d="M150.3,73.8c-0.4,0.7-0.4,1.3-0.3,2.1c0,0.7-0.1,1.4-1,1.4c0.4,0.9,0.7,1.7,1.1,2.6
							c0.2-0.3,0.6-0.5,0.8-0.8c0.1-0.1,0.2-0.2,0.3-0.2c-0.6-0.5-0.9-0.6-0.9-0.2c-0.1,0-0.2,0.6-0.3,0.6c-0.2,0.3-0.5,0.4-0.8,0.4
							c-1.9,0.5-1.1,3.3,0.8,2.9c2.1-0.5,3.8-2.8,3.1-5c-0.3-1.1-1.3-1.8-2.4-1.7c-1.1,0.1-2.1,1.1-2.8,1.9
							c-0.8,0.9-0.3,2.6,1.1,2.6c1.3-0.1,2.4-0.6,3.2-1.6c0.3-0.4,0.6-0.9,0.7-1.5c0.1-0.4-0.2-1.5,0-1.9
							C153.7,73.6,151.1,72.1,150.3,73.8L150.3,73.8z"/>
					</g>
				</g>
				<g>
					<g>
						<path class="st13" d="M147.4,82c-0.3,1.4-0.1,2.9,0.7,4.1c0.4,0.6,0.9,1.1,1.6,1.2c0.8,0.2,1.7-0.1,2.1-0.9
							c0.9-1.8-1.4-3-2.6-1.5c0.4-0.6,1.2,0.2,0.6,0.5c-0.7-0.4-1.5-0.9-2.2-1.3c0,0.6,0,1.2,0.2,1.8c0.5,1.9,3.4,1.1,2.9-0.8
							c-0.1-0.4-0.1-0.7-0.1-1c0.1-1.1-1.3-1.9-2.2-1.3c-1.4,0.9-1.8,2.8-0.6,4c1.2,1.2,3.1,0.8,4-0.5c-0.9-0.5-1.7-1-2.6-1.5
							c0,0,0,0.1-0.1,0.1c0.2-0.2,0.4-0.4,0.5-0.5c0.9-0.7,1.1,0.4,0.8-0.2c-0.1-0.1-0.1-0.3-0.2-0.4c-0.1-0.4-0.1-0.7-0.1-1.1
							c0.2-0.8-0.2-1.6-1-1.8C148.5,80.7,147.6,81.2,147.4,82L147.4,82z"/>
					</g>
				</g>
				<g>
					<g>
						<path class="st13" d="M145.5,109.6c-0.1,0.1-0.2-0.7-0.2-0.4c0.1-0.4,0.3-0.7,0.4-1.1c0,0.1-0.1,0.1-0.1,0.2
							c0.4-0.1,0.7-0.3,1.1-0.4c-0.1,0-0.2,0-0.3,0c0.3,0.1,0.5,0.1,0.8,0.2c-1.4-0.7-3.1-0.3-3.5,1.4c-0.2,0.6,0.1,1.4,0.7,1.7
							c0.4,0.2,0.8,0.3,1.2,0.3c0.2,0,1.1-0.1,0.8-0.3c-0.2-0.1,0,0.1,0,0.2c-0.2,0.3-0.4,0.5-0.7,0.7c-1.6,1-0.1,3.6,1.5,2.6
							c1.5-0.9,2.7-2.6,2.1-4.4c-0.2-0.8-0.8-1.5-1.6-1.9c-0.4-0.2-0.8-0.3-1.3-0.3c-0.4,0-0.7,0.3-1.1,0.3c0.3,0.1,0.5,0.1,0.8,0.2
							c-0.1,0-0.1-0.1-0.2-0.1c0.2,0.6,0.5,1.1,0.7,1.7c-1,0.2-1.1,0.4-0.5,0.6c0.2,0,0.5,0.1,0.7,0.1c0.5,0,0.9-0.2,1.2-0.6
							c0.5-0.6,0.6-1.5,0.2-2.2c-0.8-1.4-2.6-1.7-4-1C142.2,107.9,143.8,110.4,145.5,109.6L145.5,109.6z"/>
					</g>
				</g>
				<g>
					<g>
						<path class="st13" d="M145,110.6c-1.2,0.5-2.1,1.5-2,2.8c0,0.7,0.3,1.3,0.7,1.8c0.1,0.2,0.3,0.3,0.5,0.5
							c0.1,0.1,0.2,0.2,0.2,0.3c0.1,0.3,0.2,0.2,0.4-0.3c-1.9-0.1-1.9,2.9,0,3c1.4,0.1,2.6-1.2,2.6-2.6c0-0.7-0.2-1.3-0.6-1.9
							c-0.2-0.3-0.4-0.6-0.6-0.8c-0.4-0.4-0.1-0.2-0.4-0.1c0.8-0.3,1.3-1,1-1.8C146.6,111,145.7,110.3,145,110.6L145,110.6z"/>
					</g>
				</g>
				<g>
					<g>
						<path class="st13" d="M113,45.4c0.9,2-0.2,4.1-2,5c-1.5,0.8-4.8,1.2-4.1-1.5c0.4-1.4,2.1-2.6,1.3-4.1
							c-0.6-1.3-2.1-1.3-3.1-0.5c-0.7,0.6-0.5,1.9,0.3,2.3c0.5,0.3,0.9,0.4,1.5,0.4c1.9-0.1,1.9-3.1,0-3c0,0,0,0,0.1,0.1
							c0.1,0.8,0.2,1.6,0.3,2.3c0.1-0.1,0.1-0.1,0.2-0.2c-0.5,0.1-1,0.3-1.5,0.4c0.1,0,0.2,0,0.3,0.1c-0.3-0.2-0.6-0.5-0.9-0.7
							c0.1,0.1,0.1,0.2,0.2,0.3c-0.1-0.4-0.1-0.8-0.2-1.2c-0.2,1.2-1.3,2.3-1.6,3.6c-0.2,1-0.1,2.2,0.4,3.1c1.1,2,3.4,2.5,5.4,2.2
							c4.8-0.8,7.9-5.5,5.8-10.1C114.8,42.1,112.2,43.7,113,45.4L113,45.4z"/>
					</g>
				</g>
				<g>
					<g>
						<path class="st13" d="M108.6,45.6c0.5,0.7,1,1.4,1.5,2.2c0.8-0.6,1.6-1.2,2.3-1.8c-2-1.9-5.9-1.7-6.4,1.7
							c-0.5,3.6,3.3,1.3,3.9,2.4c0.4,0.9,1.7,0.9,2.3,0.3c0.6-0.5,1.8-4.2,0.9-4c-0.5-0.1-1-0.3-1.5-0.4c0.6,0.7,1,1.5,1.3,2.5
							c0.6-0.6,1.2-1.2,1.8-1.8c-4-1.1-7.5,0.9-8.3,5c-0.2,0.9,0.4,1.9,1.4,1.9c2.5-0.1,2.1-2.5,1-4c-2-2.6-5.8-3.6-8.9-2.6
							c-7.5,2.4-7.1,11.7-1.6,15.9c1.5,1.2,3-1.4,1.5-2.6c-2.5-1.9-3.7-5.4-1.9-8.2c2.7-4.1,6.2-1.3,9.9-1.5c0.5,0.6,1,1.3,1.4,1.9
							c0.1-2.4,1.7-3.3,4.6-3c1,0.3,2.2-0.8,1.8-1.8c-0.5-1.5-1.4-4.5-3.5-4.2c-2.8,0.4-0.9,3.6-2.3,4.7c0.8,0.1,1.6,0.2,2.3,0.3
							c-0.5-1-1.2-2-2.4-2.3c-0.4-0.1-1.1,0-1.5,0.1c-1.7,0.6,0.4,0.5,1.7,1.7c1.2,1.1,3.4-0.3,2.3-1.8c-0.5-0.7-1-1.4-1.5-2.2
							C110.1,42.6,107.5,44.1,108.6,45.6L108.6,45.6z"/>
					</g>
				</g>
				<g>
					<g>
						<path class="st13" d="M102.9,58.7c-1.9-0.4-5.8-2.6-3.9-5.2c0.6-0.9,4.8-2.9,5.4-1.6c0-0.5,0-1,0-1.5
							c-0.1,0.1-0.1,0.2-0.2,0.2c0.7-0.2,1.4-0.4,2-0.5c-0.9-0.6-1.4-1.3-1.6-2.3c-0.7,0.6-1.5,1.1-2.2,1.7c1.1,0.5,2.1,1.1,3,1.9
							c0.6-0.8,1.2-1.6,1.8-2.3c-1.1-0.5-2.1-0.8-3.3-0.8c-1.9-0.1-1.9,2.9,0,3c0.6,0,1.3,0.1,1.8,0.4c1.4,0.6,3.2-1.1,1.8-2.3
							c-1.1-1-2.3-1.7-3.7-2.4c-1.2-0.5-2.5,0.3-2.2,1.7c0.4,1.8,1.4,3.2,2.9,4.1c0.7,0.4,1.6,0.1,2-0.5c1.3-1.9-1.1-3.2-2.7-3.4
							c-2.4-0.4-5.1,0.6-6.9,2.2c-4.5,4.1,0.2,9.6,4.8,10.7C104,62.1,104.8,59.2,102.9,58.7L102.9,58.7z"/>
					</g>
				</g>
				<g>
					<g>
						<path class="st13" d="M102.1,48c-0.9,0.2-1.6,0.9-1.8,1.8c-0.3,1.4,1,2.2,2.2,1.7c0.7-0.3,1.2-0.8,1.5-1.5
							c0.4-0.8,0.2-1.4,0.2-2.3c-0.1,0.3-0.1,0.5-0.2,0.8c0,0,0,0,0,0c-0.2,0.1-0.4,0.3-0.7,0.4c-0.1,0-0.1-0.1-0.1,0
							c0.1,0.2,0.8,0.4,0.9,0.5c0.7,0.2,1.3,0.2,2-0.2c0.8-0.4,1-1.8,0.3-2.3c-0.4-0.4-0.9-0.7-1.3-1.1c-0.1,0.8-0.2,1.6-0.3,2.3
							c0.6-0.4,1.1-0.9,1.4-1.5c0.9-1.7-1.7-3.2-2.6-1.5c-0.1,0.2-0.2,0.3-0.3,0.5c-0.7,0.5-1.1,1.7-0.3,2.3
							c0.4,0.4,0.9,0.7,1.3,1.1c0.1-0.8,0.2-1.6,0.3-2.3c-0.1,0-0.1,0.1-0.2,0.1c0.3-0.1,0.5-0.1,0.8-0.2c-0.3,0-0.9-0.5-1.3-0.6
							c-0.6-0.1-1.3,0-1.8,0.3c-0.6,0.4-0.8,1.1-0.8,1.7c0,0.1,0,0.9,0.1,0.6c-0.1,0.2-0.1,0.2-0.3,0.3c0.7,0.6,1.5,1.1,2.2,1.7
							c-0.1,0.1-0.2,0.2-0.3,0.3C104.8,50.5,104,47.6,102.1,48L102.1,48z"/>
					</g>
				</g>
				<g>
					<g>
						<path class="st13" d="M102.8,47.5c-4.5-2.4-8,2.4-7.6,6.6c0.4,4.2,3.4,10,8.4,7.3c1.7-0.9,0.2-3.5-1.5-2.6
							c-4.7,2.5-5.5-11.2-0.8-8.7C103,51,104.5,48.4,102.8,47.5L102.8,47.5z"/>
					</g>
				</g>
				<g>
					<g>
						<path class="st13" d="M100.5,57.9c0.2,1.4,2,2.3,3.3,1.6c0.5-0.3,0.9-0.8,1.1-1.4c0.1-0.3,0.1-0.5,0.1-0.8
							c0-0.3-0.2-0.6-0.2-0.9c0,0.3,0,0.5,0,0.8c0,0,0-0.1,0-0.1c-0.1,0.2-0.3,0.4-0.4,0.7c0,0,0,0,0.1-0.1
							c-0.4,0.1-0.7,0.3-1.1,0.4c0,0,0.1,0,0.1,0c-0.3-0.1-0.5-0.1-0.8-0.2c-0.1,0-0.1-0.1-0.2-0.1c-0.1-0.2-0.3-0.4-0.4-0.7
							c0,0,0,0,0,0.1c0.2-0.6,0.5-1.1,0.7-1.7c0,0,0,0-0.1,0c-0.6,0.5-1,1.3-0.5,2c0.4,0.6,1.4,1,2,0.5c0,0,0,0,0.1,0
							c0.6-0.4,0.8-1,0.7-1.7c-0.3-1.6-2.7-1.6-3.2-0.1c-0.1,0.3-0.1,0.7,0,1.1c0,0,0,0.1,0.1,0.1c0.1,0.2,0.1,0.2,0,0
							c0.1-0.4,0.2-0.7,0.7-0.7c0.2,0,0.3,0.1,0.5,0.2c0.2,0.4,0.2,0.4,0.2,0.2c-0.1-0.8-1.1-1.2-1.8-1
							C100.7,56.3,100.3,57.1,100.5,57.9L100.5,57.9z"/>
					</g>
				</g>
				<g>
					<g>
						<path class="st13" d="M103.1,57c-0.2,0.4-0.4,0.9-0.6,1.3c-0.3,0.7-0.2,1.6,0.5,2c0.6,0.4,1.7,0.2,2-0.5
							c0.2-0.4,0.4-0.9,0.6-1.3c0.3-0.7,0.2-1.6-0.5-2C104.5,56,103.5,56.2,103.1,57L103.1,57z"/>
					</g>
				</g>
				<g>
					<g>
						<path class="st13" d="M95.1,52.9c-4.1-3-7,3.4-7.1,6.6c-0.1,1.8,0.6,3.7,2.2,4.6c1.5,0.9,3.5,0.6,4.6-0.8
							c1.2-1.5-0.9-3.6-2.1-2.1c-0.5,0.6-0.9,0.5-1.4-0.1c-0.5-0.7-0.4-1.7-0.2-2.5c0.2-0.9,1-4.2,2.4-3.1
							C95.1,56.6,96.6,54,95.1,52.9L95.1,52.9z"/>
					</g>
				</g>
				<g>
					<g>
						<path class="st13" d="M92,57.5c-0.4,0-1.1,0.1-1.4-0.1c-0.6-0.3,0-0.7,0.4-1.1c0.5-0.4,1.2-0.7,1.8-1c0.3-0.1,0.6-0.2,0.9-0.2
							c0.2-0.1,0.5-0.1,0.7-0.1c0.4,0,0.3-0.1-0.1-0.4c0.4-0.7,0.9-1.5,1.3-2.2c-0.6,0-1-0.1-1.5-0.3c-1.8-0.7-2.6,2.2-0.8,2.9
							c0.7,0.3,1.5,0.4,2.3,0.4c1,0,2-1.3,1.3-2.2c-2-2.7-7-0.3-8.6,1.8c-1,1.2-1.3,3-0.2,4.2c1,1.2,2.6,1.3,4,1.3
							C93.9,60.4,93.9,57.4,92,57.5L92,57.5z"/>
					</g>
				</g>
				<g>
					<g>
						<path class="st13" d="M92.2,53c-0.3,1.1-0.5,2.5,0.1,3.6c0.6,1,2,1.3,2.9,0.5c2-1.6,0.4-4.6-1.8-5c0.1,0.9,0.2,1.8,0.4,2.7
							c0.5-0.4,1-0.7,1.6-1c0.3-0.1,1.5-0.8,1.8-0.6c0.1,0.1,0,0,0,0.3c0.1,0.4,0.2,0.7,0.2,1.1c0,0.3,0.1,0.6,0.1,0.9
							c0,0.3-0.2,1.1,0.3,0.6c0.5-0.1,1-0.3,1.5-0.4c-0.1,0-0.1,0-0.2,0c-1.9-0.4-2.7,2.4-0.8,2.9c0.1,0,0.1,0,0.2,0
							c0.5,0.1,1.1,0,1.5-0.4c0.9-1,0.7-2.4,0.5-3.6c-0.1-1.2-0.3-2.8-1.2-3.7c-1.9-1.8-5.3,0.1-6.9,1.3c-1,0.7-1,2.5,0.4,2.7
							c0.2,0,0.3,0,0.4,0.1c0.2,0.2,0.2,0.1,0.3-0.4c0.4-0.1,0.8-0.1,1.2-0.2c0.4,0.8,0.6,0.9,0.5,0.2c0-0.3,0.1-0.7,0.2-1
							C95.5,51.9,92.6,51.1,92.2,53L92.2,53z"/>
					</g>
				</g>
				<g>
					<g>
						<path class="st13" d="M99.1,55.1c1.2,0.6,2.4,0.9,3.7,1.3c1.1,0.3,2.2,0.8,2.5,2c0.5,1.9,3.4,1.1,2.9-0.8
							c-1-3.7-4.8-3.6-7.6-5C98.9,51.6,97.4,54.2,99.1,55.1L99.1,55.1z"/>
					</g>
				</g>
				<g>
					<g>
						<path class="st13" d="M108,52.8c1.8-1,1.1-3.6-0.8-3.8c-1.9-0.2-2.9,1.7-2.8,3.3c0,1.8,1.4,3.1,3.1,3.3c2,0.3,3.6-0.8,5-2
							c1.1-0.9-0.1-3.1-1.5-2.5c-0.5,0.2-1.1,0.4-1.7,0.3c-0.8-0.1-1.6,0.2-1.8,1c-0.2,0.7,0.2,1.7,1,1.8c1.1,0.2,2.2,0.1,3.2-0.3
							c-0.5-0.8-1-1.7-1.5-2.5c-0.6,0.5-1.4,1.2-2.2,1.2c-0.2,0-0.6,0-0.8-0.3c-0.2-0.4,0.8-3.2-0.9-2.3
							C104.8,51.1,106.3,53.7,108,52.8L108,52.8z"/>
					</g>
				</g>
				<g>
					<g>
						<path class="st13" d="M106,51.4c-2.1,1.1-5.1,4.6-2.5,6.8c1.3,1.1,3.2,0.8,4.8,0.9c1.4,0.1,3.7,0.6,2.7,2.5
							c-0.6,1.1-2.1,1.3-3.2,1.5c-1.9,0.3-1.1,3.2,0.8,2.9c3.2-0.5,7.1-3.2,5.5-7c-0.7-1.6-2.3-2.4-3.9-2.7c-1-0.2-2.1,0-3.1-0.2
							c-0.3,0-1.3,0-1.4-0.4c-0.2-0.6,1.5-1.5,1.8-1.7C109.2,53.1,107.7,50.5,106,51.4L106,51.4z"/>
					</g>
				</g>
				<g>
					<g>
						<path class="st13" d="M108.5,63.4c0.9,1.1,2.9,0.5,3.2-0.8c0.1-0.7-0.1-1.3-0.7-1.7c-1.5-0.9-3.5,0.6-3.1,2.3
							c0.4,1.7,2.6,2.2,3.9,1.1c1.2-0.9,1.7-2.6,1.1-4c-0.6-1.3-2.5-2.1-3.7-1.2c-0.5,0.4-0.8,0.8-0.7,1.5c0.1,0.6,0.5,1.1,1.1,1.2
							c0.8,0.2,1.4,0,2-0.5c0.6-0.5,0.5-1.6,0-2.1c-0.6-0.6-1.5-0.5-2.1,0c0,0,0-0.1,0.1-0.1c0.3-0.1,0.5-0.1,0.8-0.2
							c0,0,0.1,0,0.1,0c0.1,0.9,0.2,1.8,0.4,2.7c0.3-0.2-0.2,0-0.3,0c-0.1,0,0-0.1,0.1,0c0.4,0.4-0.4-0.3-0.2-0.3c0,0,0,0.2,0,0.2
							c0,0-0.1,0.3-0.1,0.2c0,0-0.1,0.1-0.1,0.1c0,0,0,0,0,0c0.1,0,0.3-0.1,0.4,0c0.9,0.3,0.4,2.3-0.9,1.6c-0.2-0.6-0.5-1.1-0.7-1.7
							c0-0.1,0-0.1,0.1-0.2c0.2-0.2,0.4-0.4,0.5-0.5c0.4,0.1,0.8,0.1,1.2,0.2c-0.5-0.6-1.6-0.5-2.1,0
							C107.8,61.9,107.9,62.7,108.5,63.4L108.5,63.4z"/>
					</g>
				</g>
				<g>
					<g>
						<path class="st13" d="M111.8,58.5c-0.7-1.5,0.7-2.7,2.1-2.6c1.9,0.2,1.9-2.8,0-3c-1.7-0.1-3.4,0.6-4.3,2
							c-1.1,1.5-1.1,3.4-0.3,5c0.3,0.7,1.4,0.9,2,0.5C112,60.1,112.1,59.2,111.8,58.5L111.8,58.5z"/>
					</g>
				</g>
				<g>
					<g>
						<path class="st13" d="M92.2,61.4c-0.9,0.8-1.9,1.5-2.8,2.3c-0.6,0.5-0.5,1.6,0,2.1c0.6,0.6,1.5,0.5,2.1,0
							c0.9-0.8,1.9-1.5,2.8-2.3c0.6-0.5,0.5-1.6,0-2.1C93.7,60.8,92.8,60.9,92.2,61.4L92.2,61.4z"/>
					</g>
				</g>
				<g>
					<g>
						<path class="st13" d="M115.7,48.1c-0.7,1.1-1.2,2.3-1.6,3.6c1,0,1.9,0,2.9,0c-0.3-2-1.6-5.3,1.2-5.8c1.8-0.3,4.2,0.4,5.1,2
							c-0.1-0.4-0.1-0.8-0.2-1.2c0,0.1-0.1,0.3-0.1,0.4c0.2-0.3,0.5-0.6,0.7-0.9c0.5-0.2-0.3-0.1-0.5-0.1c-0.6,0-1.2-0.1-1.8-0.1
							c-1.1-0.1-2.2-0.2-3.2-0.3c-1.7-0.2-2,2.6-0.4,2.9c1.8,0.3,3.4-0.9,2.4-2.8c-0.2-0.4-0.8-0.8-1.3-0.7c-4,0.5-3.4,5.9-0.1,7.1
							c3.5,1.3,8.8-1.6,7.1-5.8c-0.4-1-2.1-1.7-2.7-0.4c-0.4,1-0.5,1.6,0,2.6c0.9,1.7,3.4,0.2,2.6-1.5c0,0.1,0,0.3,0,0.4
							c-0.9-0.1-1.8-0.2-2.7-0.4c0.6,1.4-0.8,2.3-2.1,2.3c-0.4,0-1,0-1.3-0.3c-0.2-0.2-0.6-1.2-0.6-1.2c-0.4-0.2-0.9-0.5-1.3-0.7
							c0.1,0.1,0.1,0.2,0.2,0.3c0-0.5,0-1,0-1.5c-0.1,0.1-0.1,0.2-0.2,0.3c0.3-0.2,0.6-0.5,0.9-0.7c0,0,0.1,0,0.1,0
							c-0.1,1-0.3,2-0.4,2.9c1.8,0.2,3.9,0.6,5.8,0.5c0.9-0.1,1.6-0.3,2-1.2c0.8-2.3-2.6-4.2-4.3-4.8c-2.3-0.7-5.5-0.6-7.2,1.4
							c-1.8,2.1-0.7,5.4-0.3,7.8c0.3,1.5,2.5,1.3,2.9,0c0.3-1,0.7-2,1.3-2.9C119.3,47.9,116.7,46.4,115.7,48.1L115.7,48.1z"/>
					</g>
				</g>
				<g>
					<g>
						<path class="st13" d="M126.3,46.4c-0.2,0.3-0.3,0.6-0.5,0.9c-0.4,0.7-0.2,1.7,0.5,2c0.8,0.4,1.5,0.3,2.3-0.1
							c0.1-0.1,0.3-0.1,0.4-0.2c0,0-0.1,0-0.1,0c0.2,0,0.2-0.1-0.1,0c-0.2,0-0.3,0-0.5-0.2c0,0,0,0-0.1-0.1c-0.1,0,0-0.5,0,0.1
							c0,0.9-0.2,1.9,0.8,2.5c1.1,0.7,2.3-0.3,2.4-1.4c0.1-0.5-0.3-1-0.7-1.3c0,0,0,0,0,0c-1.6-1-3.1,1.6-1.5,2.6c0,0,0,0,0,0
							c-0.2-0.4-0.5-0.9-0.7-1.3c0,0,0,0,0,0.1c0.1-0.4,0.3-0.7,0.4-1.1c0,0,0,0,0,0.1c0.2-0.1,0.4-0.3,0.7-0.4c0,0,0,0-0.1,0
							c0.5,0.1,1,0.3,1.5,0.4c0,0-0.1,0-0.1-0.1c0.1,0.2,0.3,0.4,0.4,0.7c0.1,0.2,0,0.2,0,0c0-0.2,0-0.4,0.1-0.6c0-0.3,0-0.7-0.1-1
							c-0.1-0.6-0.6-1.3-1.2-1.6c-0.6-0.3-1.3-0.4-1.9-0.2c-0.3,0.1-0.5,0.2-0.7,0.3c-0.1,0-0.2,0.1-0.3,0.2c-0.1,0-0.1,0,0,0
							c0.2-0.1,0.5-0.1,0.7,0.1c0.2,0.7,0.4,1.4,0.5,2c0.2-0.3,0.3-0.6,0.5-0.9C129.8,46.2,127.2,44.7,126.3,46.4L126.3,46.4z"/>
					</g>
				</g>
				<g>
					<g>
						<path class="st13" d="M130.8,49.4c0.7-0.5,1.1-0.8,1.6-1.5c0.7-1-0.3-2.1-1.3-2.2c-3.5-0.4-7.4,3.2-7.1,6.8
							c0.3,4,5.5,4.4,7.1,1c1.7-3.5-2.5-5.7-5.4-4.2c-3.7,2-4.8,6.7-4.4,10.6c0.2,1.9,3.2,1.9,3,0c-0.2-2-0.2-4.2,0.9-6
							c1.2-2,3.1-5.5,5.8-5.1c-0.4-0.7-0.9-1.5-1.3-2.2c-0.2,0.2-0.3,0.3-0.5,0.5C127.7,47.9,129.2,50.5,130.8,49.4L130.8,49.4z"/>
					</g>
				</g>
				<g>
					<g>
						<path class="st13" d="M122.1,53.2c-1.5,0.2-2.9,1-3.5,2.4c-0.6,1.5-0.2,3,0.7,4.2c0.5,0.6,1.6,0.5,2.1,0
							c0.6-0.6,0.5-1.5,0-2.1c-0.5-0.6,0-1.5,0.7-1.6c0.8-0.1,1.5-0.6,1.5-1.5C123.5,53.9,122.9,53.1,122.1,53.2L122.1,53.2z"/>
					</g>
				</g>
				<g>
					<g>
						<path class="st13" d="M120.1,51.9c-1.7-2.1-4.7-2.1-5.4,0.9c-0.5,2.5,0.5,6.3,2.5,7.9c2.2,1.8,4.7,0.1,3.8-2.6
							c-0.5-1.6-2.1-3.1-2.1-4.9c-0.1-2.3,4.3-1.6,5.9-1.6c1.5,0,2.1-2.1,0.8-2.8c-3.9-2.2-8.7,1-8.1,5.5c0.6,4.9,6,6.5,10,4.5
							c1.7-0.9,0.2-3.5-1.5-2.6c-1.9,1-4.6,0.6-5.4-1.7c-0.7-2.2,1.3-4.4,3.5-3.2c0.3-0.9,0.5-1.9,0.8-2.8c-2.8,0-7-0.6-8.6,2.4
							c-0.7,1.3-0.3,2.6,0.1,3.9c0.1,0.4,2,4.2,2.1,4.1c0.4-0.1,0.7-0.3,1.1-0.4c-0.8-0.1-1.2-1.8-1.4-2.4c-0.1-0.5-0.2-1-0.3-1.4
							c-0.1-0.4-0.3-1.6,0.3-0.8C119.2,55.5,121.3,53.4,120.1,51.9L120.1,51.9z"/>
					</g>
				</g>
				<g>
					<g>
						<path class="st13" d="M124.2,54.5c-0.9,0.9-1.4,2.1-1.4,3.4c0,0.6,0.1,1.2,0.3,1.8c0.1,0.3,0.2,0.5,0.4,0.7
							c0.1,0.2,0.2,0.3,0.3,0.4c0.2,0.4,0.2,0.3,0-0.2c0.1-0.4,0.3-0.7,0.4-1.1c-0.2,0.2-0.6,0.3-0.8,0.1c-1.5-1.2-3,1.4-1.5,2.6
							c1.4,1,4.5,0.4,4.8-1.5c0.2-1-0.5-1.4-0.9-2.3c-0.3-0.7-0.1-1.5,0.4-2.1C127.6,55.2,125.5,53,124.2,54.5L124.2,54.5z"/>
					</g>
				</g>
				<g>
					<g>
						<path class="st13" d="M121,58.8c-1.5,1.3-2.9,3.3-3.1,5.3c-0.2,2.2,1.4,3.3,3.4,3.6c1.9,0.3,2.7-2.5,0.8-2.9
							c-0.2,0-1-0.1-1.2-0.3c-0.1-0.2,0.2-0.9,0.3-1.2c0.5-1,1.1-1.7,1.9-2.4C124.6,59.6,122.4,57.5,121,58.8L121,58.8z"/>
					</g>
				</g>
				<g>
					<g>
						<path class="st13" d="M120.4,65.7c-0.3,1,0.3,2.2,1.4,2.4c0.8,0.1,1.6-0.2,1.8-1c0.2-0.7-0.2-1.7-1-1.8
							c0.2,0.4,0.5,0.8,0.7,1.3c0.2-0.8-0.3-1.7-1-1.8C121.4,64.5,120.6,64.9,120.4,65.7L120.4,65.7z"/>
					</g>
				</g>
				<g>
					<g>
						<path class="st13" d="M122.9,68.3c0.4-0.3,0.6-0.8,0.7-1.3c0.2-0.8-0.2-1.7-1-1.8c-0.8-0.2-1.7,0.2-1.8,1c-0.1,0.3,0,0,0-0.1
							c-0.6,0.6-0.6,1.6,0,2.1C121.4,68.9,122.3,68.9,122.9,68.3L122.9,68.3z"/>
					</g>
				</g>
				<g>
					<g>
						<path class="st13" d="M122.2,64.1c-0.4-0.7,2.3-2.5,2.7-2.7c1.3-0.6,2.6-0.8,4-0.6c1.9,0.2,1.9-2.8,0-3c-2.5-0.3-5,0.4-7,2
							c-1.6,1.3-3.6,3.7-2.3,5.8C120.6,67.2,123.2,65.7,122.2,64.1L122.2,64.1z"/>
					</g>
				</g>
				<g>
					<g>
						<path class="st13" d="M130,60.5c1.9,0,1.9-3,0-3C128.1,57.5,128.1,60.5,130,60.5L130,60.5z"/>
					</g>
				</g>
				<g>
					<g>
						<path class="st13" d="M130.3,57.2c1.8,0.8,4.1,0.5,5.5-1c1.3-1.3,1.1-3.2-0.2-4.4c-3.1-2.8-8.5-0.7-8.1,3.6
							c0.1,1.7,1.4,3.1,2.9,3.6c2.1,0.6,3.8-0.7,5.1-2.2c2.3-2.6,3.7-7.5-0.3-9.3c-1.7-0.8-3.3,1.8-1.5,2.6c1.3,0.6,1.3,2.1,0.7,3.3
							c-0.4,0.9-1.7,2.8-2.8,2.9c-1.7,0.2-1.3-2.1-0.1-2.6c0.4-0.2,2.4-0.2,1.8,0.8c-0.4,0.6-1.7,0.1-2.1-0.1
							C129.3,53.6,128.5,56.5,130.3,57.2L130.3,57.2z"/>
					</g>
				</g>
				<g>
					<g>
						<path class="st13" d="M137.1,51.8c0.7-0.3,1.4-0.5,2.1-0.8c0.8-0.3,1.3-1,1-1.8c-0.2-0.8-1.1-1.3-1.8-1
							c-0.8,0.3-1.5,0.2-2.4,0.1c-0.9-0.1-1.8,0.3-2.3,1.1c-0.9,1.6,0.5,3.6,1.4,4.8c0.5,0.6,1.6,0.5,2.1,0c0.6-0.6,0.5-1.5,0-2.1
							c-0.2-0.3-0.4-0.6-0.6-1c-0.1-0.1-0.1-0.2-0.1-0.3c-0.2-0.5,0.1-0.1-0.2,0.1c-0.2,0.1-0.4,0.3-0.7,0.4c0.4-0.1,1,0.1,1.4,0.1
							c0.7,0,1.4-0.1,2-0.3c-0.3-1-0.5-1.9-0.8-2.9c-0.7,0.3-1.4,0.5-2.1,0.8c-0.8,0.3-1.3,1-1,1.8
							C135.5,51.4,136.4,52.1,137.1,51.8L137.1,51.8z"/>
					</g>
				</g>
				<g>
					<g>
						<path class="st13" d="M140.8,53.3c-2.9-3.2-5.9,1.4-6.5,4c-0.4,1.7-0.3,3.6,0.9,5c1.2,1.5,3,1.8,4.9,1.8c1.9,0,1.9-3,0-3
							c-1.7,0-3.1-0.3-3-2.3c0-0.4,1.1-3.8,1.6-3.3C140,56.8,142.1,54.7,140.8,53.3L140.8,53.3z"/>
					</g>
				</g>
				<g>
					<g>
						<path class="st13" d="M138.5,60.3c-0.2,1.6,0.8,2.8,2.3,3.4c1,0.4,2.2-0.8,1.8-1.8c-0.6-1.5-2.1-2.5-3.8-2.2
							c-1.5,0.3-2.8,2-1.7,3.4c1.1,1.5,3.1,0.8,4.2-0.2c0.7-0.6,1.2-1.4,1.6-2.3c0.2-0.4,0.3-0.8,0.5-1.2c0.1-0.3,0.7-1.5,0.1-1.2
							c-0.4-0.1-0.8-0.1-1.2-0.2c0.6,0.3,1.1,0.9,1.4,1.5c0.3-0.7,0.6-1.5,0.9-2.2c-1.1,0.3-2.2-0.3-3.3-0.1c-1,0.2-1.8,0.8-2.3,1.7
							c-1.1,1.9-0.2,4.1,1.3,5.5c1.4,1.3,3.6-0.8,2.1-2.1c-0.6-0.5-1.6-1.8-0.3-2.1c0.5-0.1,1.2,0.2,1.7,0.2c0.6,0,1.1,0,1.6-0.2
							c0.9-0.2,1.4-1.4,0.9-2.2c-0.9-1.5-3.3-4.1-4.9-1.9c-0.6,0.9-0.7,2.1-1.2,3.1c-0.2,0.5-0.5,1-0.9,1.3
							c-0.6,0.5-0.6,0.1-0.2,1.2c0.4,1,0.4,0.6,0.5,0.9c0.6-0.6,1.2-1.2,1.8-1.8c-0.1-0.1-0.2-0.3-0.1-0.5
							C141.7,58.4,138.7,58.4,138.5,60.3L138.5,60.3z"/>
					</g>
				</g>
				<g>
					<g>
						<path class="st13" d="M140.6,61.8c-1.2,3.7,1,7.6,4.5,9c1.8,0.7,2.6-2.2,0.8-2.9c-2.1-0.8-3.1-3.2-2.5-5.3
							C144,60.7,141.2,60,140.6,61.8L140.6,61.8z"/>
					</g>
				</g>
				<g>
					<g>
						<path class="st13" d="M143.8,68.1c0.5,0.4,1.2,0.9,1.3,1.6c0,0.2,0,0.4-0.2,0.6c0.2-0.1,0.1,0.1-0.1,0c-0.1,0,0.2,0.1,0.1,0
							c-1.4-1.3-3.5,0.8-2.1,2.1c1.6,1.6,4.3,0.8,5.1-1.2c0.9-2.3-0.8-4.3-2.6-5.6C143.8,64.4,142.3,67,143.8,68.1L143.8,68.1z"/>
					</g>
				</g>
				<g>
					<g>
						<path class="st13" d="M142.8,66.2c-0.4,1.8-0.8,3.7-0.1,5.5c0.2,0.6,2.1,3.7,2.9,2.7c-1.2,1.5,0.9,3.6,2.1,2.1
							c1-1.3,0.9-2.8-0.3-4c-0.6-0.5-1.4-0.8-1.7-1.6c-0.6-1.2-0.2-2.8,0.1-4C146.1,65.1,143.3,64.3,142.8,66.2L142.8,66.2z"/>
					</g>
				</g>
				<g>
					<g>
						<path class="st13" d="M146.3,78.4c0.2,0.1,0.5,0.3,0.7,0.4c-0.2-0.7-0.4-1.4-0.5-2c-0.3,0.7-0.9,0.9-1.6,1.2
							c-0.8,0.4-1.7,0.8-2.3,1.5c-0.9,1-0.2,2.4,1.1,2.6c0.2,0,0.3,0,0.5,0.1c0.8,0.1,1.5-0.7,1.5-1.5c0-0.9-0.7-1.4-1.5-1.5
							c-0.2,0-0.3,0-0.5-0.1c0.4,0.9,0.7,1.7,1.1,2.6c0.6-0.6,1.5-0.9,2.2-1.3c0.9-0.4,1.7-1.1,2.1-2c0.3-0.7,0.2-1.6-0.5-2
							c-0.2-0.1-0.5-0.3-0.7-0.4C146.1,74.8,144.6,77.4,146.3,78.4L146.3,78.4z"/>
					</g>
				</g>
				<g>
					<g>
						<path class="st13" d="M147.6,80.1c0.8-1.8,1.2-3.8,1-5.8c-0.1-0.8-0.6-1.5-1.5-1.5c-0.7,0-1.6,0.7-1.5,1.5
							c0.1,1.5,0,2.9-0.6,4.3c-0.3,0.7-0.2,1.6,0.5,2C146.1,81,147.2,80.8,147.6,80.1L147.6,80.1z"/>
					</g>
				</g>
				<g>
					<g>
						<path class="st13" d="M147.5,71c-2.5-2-2.9-5.1-1-7.7c1.2-1.5-1.4-3-2.6-1.5c-2.7,3.6-2,8.5,1.5,11.3
							C146.8,74.3,149,72.1,147.5,71L147.5,71z"/>
					</g>
				</g>
				<g>
					<g>
						<path class="st13" d="M147.3,60.9c-1.1-1.4-2.9-2.4-4.8-1.9c-1.8,0.5-3,2.3-2.4,4.2c0.6,1.9,3.3,2.8,4.5,0.9
							c1.1-1.9-0.4-3.6-2.1-4.3c-0.7-0.3-1.6,0.3-1.8,1c-0.2,0.9,0.3,1.5,1,1.8c0.1,0.1,0.3,0.3,0.4,0.3c-0.1-0.1-0.1-0.2-0.1-0.3
							c0.3-0.1,0.7-0.2,1-0.3c0-0.1-0.1-0.2,0.1-0.4c0.7-0.5,1.7,0.6,2.1,1c0.5,0.6,1.6,0.5,2.1,0C147.9,62.4,147.8,61.5,147.3,60.9
							L147.3,60.9z"/>
					</g>
				</g>
				<g>
					<g>
						<path class="st13" d="M140.4,53.1c-1.1-0.7-1.9-1.8-3.2-2c-1-0.2-1.8,0.6-2.4,0.7c0.5,0.4,1,0.7,1.4,1.1
							c-0.6-2.2-0.6-4.4-2.5-5.9c-1.4-1.1-3.1-0.9-4.3,0.3c0.9,0.4,1.7,0.7,2.6,1.1c0-0.2,0-0.4,0.1-0.6c-1,0-2,0-3,0
							c-0.2,4.1,3.9,5.4,5.3,1.3c0.5-1.6-2-2.7-2.7-1.2c-0.7,1.6-0.8,2.8,0.2,4.3c0.8,1.2,2.8,0.8,2.8-0.8c-0.1-2.2-0.6-4.8-3-5.7
							c-0.9-0.3-1.9-0.3-2.7,0c-1.3,0.6-0.6,1-1.3,0c-0.3-0.4-0.4-1.2-0.7-1.6c-0.3-0.4-0.8-0.8-1.3-0.7c-1.4,0.1,0.1,0,0.2,0.4
							c-1,0.3-1.9,0.5-2.9,0.8c0.5,1.2,0.5,2.4,1.9,3c1.2,0.5,2.5,0,3.5-0.7c1.6-1,0.1-3.6-1.5-2.6c-0.6,0.2-1,0-1-0.6
							c-0.7-1.8-3.2-1.1-2.9,0.8c0.2,1.5,1.3,1.8,2.7,1.8c-0.4-0.2-0.9-0.5-1.3-0.7c0.8,1.3,0.5,3,2.1,3.7c1,0.4,1.3,0,2.2-0.1
							c0.4-0.1,0.7-0.3,1-0.6c1.4,0.6,2,1.5,1.8,2.7c0.9-0.3,1.9-0.5,2.8-0.8c-0.1-0.4-0.1-0.9-0.2-1.3c-0.9-0.4-1.8-0.8-2.7-1.2
							c0.2-0.2,0.4-0.4,0.6-0.6c0.1-1.9-2.8-1.9-3,0c0,0.2,0,0.4-0.1,0.6c-0.1,1.4,1.7,1.9,2.6,1.1c0.9-0.8,1.7,3.6,1.9,4.3
							c0.2,0.6,0.8,1.1,1.4,1.1c0.4,0,1.3-0.5,1.5-0.5c1.1,0.1,1.7,0.8,2.6,1.4C140.5,56.7,142,54.1,140.4,53.1L140.4,53.1z"/>
					</g>
				</g>
				<g>
					<g>
						<path class="st13" d="M129.6,49c0.6,0.4,1.1,0.9,1.7,1.3c0.6,0.5,1.5,0.6,2.1,0c0.5-0.5,0.6-1.6,0-2.1
							c-0.6-0.4-1.1-0.9-1.7-1.3c-0.6-0.5-1.5-0.6-2.1,0C129,47.4,128.9,48.5,129.6,49L129.6,49z"/>
					</g>
				</g>
				<g>
					<g>
						<path class="st13" d="M136.4,52c1.1,1,1.6,2.2,2.1,3.6c0.3,0.9,0.6,2,1.5,2.6c1.8,1.3,3.8-0.7,2.9-2.6c-0.3-0.7-1.4-1-2-0.5
							c-1.4,1.1-2.6,2.7-2.2,4.6c0.3,1.6,2,2.3,3.3,1.1c1.4-1.4-0.8-3.5-2.1-2.1c-0.1,0.1-0.1,0.1-0.2,0.2c0.5-0.1,1-0.3,1.5-0.4
							c-0.1,0-0.2,0-0.3-0.1c0.3,0.2,0.6,0.5,0.9,0.7c-0.3-0.4,0.6-1.4,0.8-1.5c-0.7-0.2-1.4-0.4-2-0.5c0,0.1,0.1,0.2,0.1,0.2
							c-0.1-0.4-0.1-0.8-0.2-1.2c0-0.1,0-0.1,0-0.2c0.4-0.1,0.7-0.3,1.1-0.4c0.5,0.4,0.5,0.3,0.2-0.3c-0.1-0.3-0.2-0.6-0.3-1
							c-0.2-0.5-0.4-1-0.6-1.5c-0.5-1.1-1.2-2.1-2.1-2.9C137,48.6,134.9,50.8,136.4,52L136.4,52z"/>
					</g>
				</g>
				<g>
					<g>
						<path class="st13" d="M138.2,56.6c0.2,1.1,0.7,2.1,1.5,2.9c0.5,0.6,1.6,0.5,2.1,0c0.6-0.6,0.5-1.5,0-2.1
							c-0.1-0.1-0.1-0.2-0.1-0.1c-0.1-0.1-0.1-0.2-0.2-0.3c-0.1-0.1-0.2-0.3-0.2-0.4c0.1,0.2-0.1-0.2-0.1-0.2
							c-0.1-0.2-0.1-0.4-0.1-0.6c-0.1-0.8-1.1-1.2-1.8-1C138.4,55,138,55.8,138.2,56.6L138.2,56.6z"/>
					</g>
				</g>
				<g>
					<g>
						<path class="st13" d="M85.5,59.9c-1.5,1.3-2.2,3.4-1.6,5.3c0.7,2.1,2.4,2.8,4.4,3.4c-0.3-0.3-0.7-0.7-1-1
							c0.2,0.6-0.8,2.6-1,3.2c-0.6,1.8,2.3,2.6,2.9,0.8c0.5-1.4,1.9-3.7,0.9-5.2c-0.4-0.6-1-0.7-1.7-0.9c-1.8-0.6-2.1-2.3-0.6-3.5
							C89.1,60.7,87,58.6,85.5,59.9L85.5,59.9z"/>
					</g>
				</g>
				<g>
					<g>
						<path class="st13" d="M88.8,63.8c0.1-0.6,0.5-0.7,0.6,0c0.1,0.6-0.4,1.5-1.1,1.1c-1.7-0.9-3.2,1.7-1.5,2.6
							c3.1,1.6,6.5-1.4,5.4-4.7c-0.5-1.4-1.7-2.5-3.3-2.4c-1.5,0.1-2.8,1.2-3.1,2.7c-0.1,0.8,0.2,1.6,1,1.8
							C87.7,65,88.7,64.6,88.8,63.8L88.8,63.8z"/>
					</g>
				</g>
				<g>
					<g>
						<path class="st13" d="M87.8,64c0.9,2.3-0.7,5-1.6,7.1c-0.7,1.8,2.2,2.6,2.9,0.8c1.1-2.7,2.8-5.7,1.6-8.7
							C90,61.4,87.1,62.2,87.8,64L87.8,64z"/>
					</g>
				</g>
				<g>
					<g>
						<path class="st13" d="M89.1,74.7c0.3,0.2,0.6,0.4,0.8,0.6c0.1-0.9,0.2-1.8,0.4-2.7c0,0-0.2,0-0.3-0.1
							c-0.2-0.1-0.3-0.1-0.5-0.2c-0.3-0.3-0.5-0.5-0.6-1c-0.1-0.8-1.1-1.2-1.8-1c-0.8,0.2-1.2,1-1,1.8c0.4,2.4,2.8,3.7,5.1,3.4
							c0.6-0.1,1-0.7,1.1-1.2c0.1-0.6-0.2-1.1-0.7-1.5c-0.3-0.2-0.6-0.4-0.8-0.6c-0.7-0.4-1.7-0.1-2,0.5
							C88.1,73.3,88.4,74.2,89.1,74.7L89.1,74.7z"/>
					</g>
				</g>
				<g>
					<g>
						<path class="st13" d="M88.7,69.7C88.8,70,88.7,69.5,88.7,69.7c0,0.2,0.1-0.2,0.1-0.2c-0.1,0.2,0,0,0,0
							c-0.2,0.1,0.1-0.1,0.2-0.1c0.6-0.5,0.5-1.6,0-2.1c-0.6-0.6-1.5-0.5-2.1,0c-1,0.8-1.3,2.1-1.1,3.3c0.1,0.8,1.1,1.2,1.8,1
							C88.5,71.3,88.8,70.5,88.7,69.7L88.7,69.7z"/>
					</g>
				</g>
				<g>
					<g>
						<path class="st19" d="M79.2,49.9c-4.7,1.8-2.8,8,0.4,10.3c1.8,1.3,4.3,1.4,5.8-0.3c1.6-1.8,1.6-4.6,1.3-6.8
							c-0.3-1.9-3.1-1.1-2.9,0.8c0.2,1.8-0.2,5.9-2.8,3.5c-0.8-0.7-2.9-4-1-4.7C81.8,52.1,81,49.2,79.2,49.9L79.2,49.9z"/>
					</g>
				</g>
				<g>
					<g>
						<path class="st19" d="M81.7,53.5c0,1.6,0.7,3,2,3.9c0.6,0.5,1.7,0.1,2-0.5c0.5-0.8,0.1-1.6-0.5-2c0.2,0.2-0.3-0.4-0.1-0.1
							c-0.1-0.1-0.2-0.4-0.2-0.4c-0.1-0.3-0.1-0.5-0.1-0.8c0-0.8-0.7-1.5-1.5-1.5C82.3,52,81.7,52.7,81.7,53.5L81.7,53.5z"/>
					</g>
				</g>
				<g>
					<g>
						<path class="st19" d="M93.6,40.1c-1.4,2.9-0.9,6.3,1.8,8.3c1.9,1.4,6.3,2.3,7-1c0.4-1.9-2.5-2.7-2.9-0.8
							c-0.2,0.8-2.7-1-2.9-1.2c-0.9-1.1-1-2.6-0.4-3.8C97.1,39.8,94.5,38.3,93.6,40.1L93.6,40.1z"/>
					</g>
				</g>
				<g>
					<g>
						<path class="st19" d="M99,46.4C99,46.4,98.9,46.4,99,46.4c0.3,0.1,0.6,0.3,1,0.4c0,0,0.1,0.1,0.1,0.1c0.1,0.3,0.1,0.5,0.2,0.8
							c0,0,0-0.1,0-0.1c-0.1,0.3-0.1,0.5-0.2,0.8c0,0,0-0.1,0.1-0.1c0.5-0.7,0.1-1.7-0.5-2c-0.7-0.4-1.6-0.1-2,0.5
							c-0.3,0.5-0.3,1.2,0,1.7c0.3,0.6,0.8,0.8,1.5,0.9c0.8,0.1,1.5-0.7,1.5-1.5C100.4,47,99.8,46.5,99,46.4L99,46.4z"/>
					</g>
				</g>
				<g>
					<g>
						<path class="st19" d="M101.6,48.1c-0.1,0.7-0.2,1.5-0.2,2.2c-0.1,0.8,0.7,1.5,1.5,1.5c0.9,0,1.4-0.7,1.5-1.5
							c0.1-0.7,0.2-1.5,0.2-2.2c0.1-0.8-0.7-1.5-1.5-1.5C102.2,46.7,101.7,47.3,101.6,48.1L101.6,48.1z"/>
					</g>
				</g>
				<g>
					<g>
						<path class="st19" d="M152,86.2c-2.5,1.1-5.2,3.9-4,6.8c1.2,3.1,4.7,3.1,7.5,2.7c1.9-0.3,1.1-3.2-0.8-2.9
							c-1.1,0.2-3.5,0.5-4-1c-0.4-1.4,1.8-2.6,2.8-3C155.3,88,153.8,85.5,152,86.2L152,86.2z"/>
					</g>
				</g>
				<g>
					<g>
						<path class="st19" d="M95,55.5c-0.2-0.2,0,0,0,0.1c0,0.1,0.1,0.3,0,0.4c0.4-0.7,0.1-1.6-0.5-2c-0.7-0.4-1.6-0.2-2,0.5
							c-0.6,1-0.4,2.3,0.4,3.1c0.6,0.5,1.5,0.6,2.1,0C95.6,57,95.6,56,95,55.5L95,55.5z"/>
					</g>
				</g>
				<g>
					<g>
						<path class="st19" d="M95.7,55.3c0.1,0.1,0.1,0.1,0.2,0.2c-0.3-0.3,0.1,0.1-0.1-0.1C95.7,55.3,95.8,55.5,95.7,55.3
							c0.1-0.1,0.1,0.2,0.1,0.2c0-0.1,0.1-0.2,0,0c-0.1,0.2,0,0.1,0,0c0,0.1-0.2,0.2-0.1,0.1c0,0,0.3-0.2,0.1-0.1
							c-0.7,0.4-1,1.3-0.5,2c0.4,0.7,1.4,1,2,0.5c1.7-1,2-3.6,0.5-4.9c-0.6-0.5-1.5-0.6-2.1,0C95.2,53.7,95.1,54.7,95.7,55.3
							L95.7,55.3z"/>
					</g>
				</g>
				<g>
					<g>
						<path class="st19" d="M98.5,57.6C98.3,57.3,98.5,57.9,98.5,57.6c0,0.1,0,0.3,0,0.4c0-0.3-0.1,0.1-0.1,0.2
							c0.1-0.2-0.1,0.1-0.1,0.2c-0.5,0.7-0.1,1.7,0.5,2c0.7,0.4,1.6,0.1,2-0.5c0.8-1.2,0.8-2.5,0.2-3.8c-0.3-0.7-1.4-0.9-2-0.5
							C98.2,56,98.1,56.9,98.5,57.6L98.5,57.6z"/>
					</g>
				</g>
				<g>
					<g>
						<path class="st19" d="M90.8,59.9c-2.9,1-5.3,3-6.4,5.9c-1.3,3.3,0,5.7,2.7,7.7c1.5,1.1,3-1.5,1.5-2.6c-1.1-0.8-2-1.5-1.7-3.1
							c0.1-0.7,0.4-1.3,0.8-1.9c0.9-1.5,2.3-2.5,3.9-3C93.4,62.1,92.6,59.2,90.8,59.9L90.8,59.9z"/>
					</g>
				</g>
				<g>
					<g>
						<path class="st19" d="M108,55.1c1.9-3.2,4.7,2.2,4.8,3.7c0.2,2.4-1,4.5-3,5.8c-1.6,1-0.1,3.6,1.5,2.6c4.1-2.6,5.8-7.6,3.6-12
							c-1.8-3.6-6.9-5.7-9.4-1.6C104.4,55.2,107,56.7,108,55.1L108,55.1z"/>
					</g>
				</g>
				<g>
					<g>
						<path class="st19" d="M106.1,62.5c0.1,2.6,2.2,4.7,4.8,4.7c1.9,0,1.9-3,0-3c-0.9,0-1.8-0.8-1.8-1.7
							C109.1,60.5,106.1,60.5,106.1,62.5L106.1,62.5z"/>
					</g>
				</g>
				<path class="st20" d="M94.2,152.2c0,0,1,17.9,15.9,19.1c15.3,1.2,20.7-10.1,21.2-17.9l16.6,4.4l-7.7,49l-29.1,9.1l-31.1-10.3
					l-5-49.6L94.2,152.2z"/>
				<g>
					<g>
						<path class="st19" d="M111,47.3c-2.3-1.3-4.2-4.6-2.4-7.1c1.9-2.6,5.3-1.9,7.6-0.2c1.5,1.1,3-1.4,1.5-2.6
							c-3.6-2.7-9.1-2.8-11.8,1.4c-2.5,4-0.2,8.9,3.6,11.1C111.1,50.9,112.6,48.3,111,47.3L111,47.3z"/>
					</g>
				</g>
				<g>
					<g>
						<path class="st19" d="M114.6,45.4c1.9,0,1.9-3,0-3C112.7,42.4,112.7,45.4,114.6,45.4L114.6,45.4z"/>
					</g>
				</g>
				<g>
					<g>
						<path class="st19" d="M114.2,41.8c-0.1-0.3-0.2-0.5-0.4-0.8c-0.3-0.7-1.4-0.9-2-0.5c-0.7,0.4-0.9,1.3-0.5,2
							c0.1,0.3,0.2,0.5,0.4,0.8c0.3,0.7,1.4,0.9,2,0.5C114.4,43.4,114.6,42.5,114.2,41.8L114.2,41.8z"/>
					</g>
				</g>
				<g>
					<g>
						<path class="st19" d="M124,46c-3.2-2.5-6.2,1.8-7.4,4.4c-1.3,3-1.9,7.2-0.1,10.1c3.4,5.4,16.5,4.1,14-3.8
							c-0.6-1.8-3.5-1-2.9,0.8c1.3,4.1-8.3,4.6-9.1-0.4c-0.2-1.2,1.4-10.5,4-8.6C124,49.7,125.5,47.1,124,46L124,46z"/>
					</g>
				</g>
				<g>
					<g>
						<path class="st19" d="M126.3,54.2c-1.2,0.6-2.3,1.6-2.6,2.9c-0.3,1.4,0.2,2.8,1.4,3.5c1.7,1,3.2-1.6,1.5-2.6c0,0,0-0.2,0-0.3
							c0.2-0.4,0.8-0.7,1.2-0.9C129.5,55.9,128,53.3,126.3,54.2L126.3,54.2z"/>
					</g>
				</g>
				<g>
					<g>
						<path class="st19" d="M132.7,48.4c-1-1.2-2.5-3.7-1.3-5.2c1.3-1.6,3.5-0.8,4.8,0.3c1.4,1.3,3.6-0.8,2.1-2.1
							c-2.5-2.2-6.4-3-9-0.3c-2.7,2.8-0.9,7,1.2,9.5C131.9,52,134,49.9,132.7,48.4L132.7,48.4z"/>
					</g>
				</g>
				<g>
					<g>
						<path class="st19" d="M137.3,49.4c1.9,0,1.9-3,0-3C135.4,46.4,135.4,49.4,137.3,49.4L137.3,49.4z"/>
					</g>
				</g>
				<g>
					<g>
						<path class="st19" d="M137.6,46c0.4,0.7-0.2,1.4-1,1.3c0.8,0.2,1.7-0.2,1.8-1c0.2-0.8-0.2-1.7-1-1.8c-1.8-0.4-3.3,1.5-2.4,3.1
							c0.4,0.7,1.4,0.9,2,0.5C137.8,47.6,138,46.7,137.6,46L137.6,46z"/>
					</g>
				</g>
				<g>
					<g>
						<path class="st19" d="M139.9,51.5c-0.7-1.8,0.4-3.3,2.3-3.5c1.6-0.1,3,0.9,3.9,2.1c1.1,1.5,3.7,0.1,2.6-1.5
							c-1.8-2.5-4.7-4.3-7.9-3.4c-3,0.8-4.9,4.1-3.8,7.1C137.7,54.1,140.6,53.3,139.9,51.5L139.9,51.5z"/>
					</g>
				</g>
				<g>
					<g>
						<path class="st19" d="M150.4,102.3c-0.8,0.9-2,1.2-2.8,0.2c-0.6-0.7-0.8-1.5-1.9-1.6c-1.8-0.2-2.7,2.2-2.3,3.7
							c0.6,2.3,3,1.7,4,0.1c0.5-0.9,0.7-1.9,1.2-2.8c0.2-0.3,0.6-1,1-0.9c0.6,0.1,0.5,1.6,0.5,1.9c0.1,1.9,3.1,1.9,3,0
							c-0.1-2.4-1.2-5.5-4.2-4.9c-1.1,0.2-2,1-2.6,1.9c-0.3,0.5-0.6,1.1-0.8,1.6c-0.1,0.2-0.5,1.6-0.6,1.7c0.4,0.1,0.8,0.1,1.2,0.2
							c1,0.5,0,0.4,0.4,0c-0.4,0.1-0.7,0.3-1.1,0.4c0.1,0,0.2,0,0.3,0c-0.4-0.1-0.7-0.3-1.1-0.4c0.5,0.5,0.8,1.2,1.5,1.7
							c0.6,0.5,1.4,0.8,2.2,0.9c1.6,0.2,3.2-0.4,4.3-1.6C153.8,103,151.7,100.9,150.4,102.3L150.4,102.3z"/>
					</g>
				</g>
				<g>
					<g>
						<path class="st19" d="M144.9,60.8c-4.1-2.4-4.9,4.6-4.6,7.1c0.6,4.2,4.1,7.2,8.3,6.6c1.9-0.3,1.1-3.2-0.8-2.9
							c-2.1,0.3-3.8-1.3-4.4-3.2c-0.2-0.8-0.3-1.5-0.3-2.3c0-0.5,0.7-2.4,0.2-2.7C145,64.4,146.5,61.8,144.9,60.8L144.9,60.8z"/>
					</g>
				</g>
				<g>
					<g>
						<path class="st19" d="M145.4,68.5c-0.6,1.1-0.6,2.5,0.1,3.6c0.5,0.7,1.3,1,2,0.5c0.7-0.4,1-1.4,0.5-2c0,0-0.3-0.3-0.1-0.2
							c0,0,0-0.1,0-0.1c0,0.1,0,0.1,0,0c0-0.1,0-0.4,0-0.1c0-0.1,0.2-0.4,0-0.2c0.4-0.7,0.2-1.6-0.5-2
							C146.7,67.6,145.7,67.8,145.4,68.5L145.4,68.5z"/>
					</g>
				</g>
				<g>
					<g>
						<path class="st19" d="M146.9,69.2c0.6-1,1.7-0.8,2.2,0.1c0.9,1.7,3.5,0.2,2.6-1.5c-1.5-3-5.7-3-7.3-0.1
							C143.4,69.3,146,70.8,146.9,69.2L146.9,69.2z"/>
					</g>
				</g>
				<g>
					<g>
						<path class="st19" d="M148.8,76.9c0.9-0.4,1.5,0.7,1.4,1.5c-0.1,1-1,1.7-1.8,2.2c-1.6,1-0.1,3.6,1.5,2.6
							c2.2-1.3,3.8-3.7,3.1-6.3c-0.7-2.5-3.4-3.7-5.7-2.5C145.5,75.2,147,77.8,148.8,76.9L148.8,76.9z"/>
					</g>
				</g>
				<g>
					<g>
						<path class="st19" d="M78.5,71.3c-0.6,0.7-1.4,1.7-2.5,1.9c-1.4,0.2-2.4-1.2-2.8-2.3c-0.9-2.4,1.2-4.8,3.7-4.4
							c1.9,0.3,2.7-2.5,0.8-2.9c-1.5-0.3-3.5,0.1-3.5,2.1c0,0.4,0.4,1.7,0.9,1.9c0.9,0.4,1.1-0.4,0.1-0.2c-0.4,0.1-0.7,0.2-1,0.4
							c-1.7,1-0.2,3.5,1.5,2.6c-0.1,0,0.9,0,1.2-0.1c0.6-0.2,0.9-0.6,1.2-1.2c0.2-0.5,0.2-1,0.1-1.6c-0.1-0.3-0.9-1.9-0.9-1.9
							c-0.2,0.3-0.5,0.6-0.7,0.9c0.1,0,0.2,0,0.3,0c0.3-1,0.5-1.9,0.8-2.9c-4.6-0.8-9,3.2-7.4,8c0.6,2,2.3,4.1,4.4,4.5
							c2.4,0.5,4.4-1,5.9-2.7C81.9,72,79.8,69.9,78.5,71.3L78.5,71.3z"/>
					</g>
				</g>
				<g>
					<g>
						<path class="st19" d="M79.8,75c-4.2-1-6.1,5.1-5.5,8.3c0.7,3.9,4.7,6.5,8.5,5.2c1.8-0.6,1-3.5-0.8-2.9
							c-1.9,0.7-3.9-0.3-4.6-2.1c-0.4-1-0.3-2.1-0.1-3.2c0.1-0.5,0.8-2.7,1.6-2.5C80.9,78.3,81.7,75.4,79.8,75L79.8,75z"/>
					</g>
				</g>
				<g>
					<g>
						<path class="st19" d="M83.9,82c-1.1-0.4-2.4-0.1-3.2,0.7c-0.8,0.8-1.1,2-0.8,3c0.2,0.8,1.1,1.3,1.8,1c0.8-0.2,1.3-1.1,1-1.8
							c0-0.1,0-0.2,0,0c0-0.2-0.1-0.1,0,0c0,0,0-0.1,0-0.1c0,0,0,0.1,0,0.1c0,0,0-0.1,0.1-0.1c-0.1,0.1-0.1,0.1,0,0c0.1,0,0,0-0.1,0
							c-0.1,0.1,0.2,0,0.1,0c-0.2,0,0.2,0,0,0c-0.1,0,0.2,0.1,0.2,0.1c0.7,0.3,1.7-0.3,1.8-1C85.1,83,84.7,82.3,83.9,82L83.9,82z"/>
					</g>
				</g>
				<g>
					<g>
						<path class="st19" d="M79.3,93.3c-2.3-3.4-5.5-0.2-6.2,2.6c-1,3.6-0.9,8.9,2.8,10.9c2.5,1.4,6.7,0.1,6.6-3.2
							c0-3.8-4.7-3.1-5.9-0.4c-0.8,1.7,1.8,3.3,2.6,1.5c0.3-0.9-0.1-0.9-1-0.2c-0.4-0.2-0.9-0.4-1.3-0.6c-1-0.8-1.2-2.3-1.3-3.5
							c0-0.9,0-1.8,0.2-2.7c0.1-0.4,1-2.8,1-2.9C77.8,96.4,80.4,94.9,79.3,93.3L79.3,93.3z"/>
					</g>
				</g>
				<g>
					<g>
						<path class="st19" d="M83.5,113.5c0.3,0.1,0.4,2.3,0.4,2.6c0,0.6-0.4,2-1.2,1.5c-1.6-1-3.1,1.6-1.5,2.6c2.3,1.4,5-0.3,5.6-2.8
							c0.6-2.4,0-5.7-2.4-6.8C82.5,109.8,81.7,112.7,83.5,113.5L83.5,113.5z"/>
					</g>
				</g>
				<polygon class="st21" points="60.5,159.3 59.1,165.2 71.8,202.8 65.4,159.4 				"/>
				<g>
					<g>
						<path class="st19" d="M82.4,115.6C82.3,115.5,82.3,115.5,82.4,115.6c-0.1,0-0.1,0-0.1-0.2c0,0.2,0.1-0.3,0,0c0,0,0.2-0.2,0,0
							c0.2-0.1,0.2-0.1,0.1-0.1c0.2-0.1,0.2-0.1,0.1,0c0.8,0,1.5-0.7,1.5-1.5c0-0.8-0.7-1.5-1.5-1.5c-1.3,0-2.4,0.8-2.9,2
							c-0.5,1.2-0.2,2.6,0.7,3.5C81.7,119.1,83.8,117,82.4,115.6L82.4,115.6z"/>
					</g>
				</g>
				<g>
					<g>
						<path class="st19" d="M142.9,109.8c-0.5,2.5-0.4,5.1,0.7,7.5c0.8,1.7,2.4,3.4,4.4,2.5c1.6-0.7,2.1-2.9,1.3-4.4
							c-1-1.6-3.6-1.6-4,0.5c-0.4,1.9,2.5,2.7,2.9,0.8c0,0,0,0.1,0,0.1c-0.4,0.1-0.7,0.3-1.1,0.4c-0.8,0.1-1.2-2.1-1.3-2.8
							c-0.3-1.2-0.2-2.5,0-3.7C146.1,108.7,143.2,107.9,142.9,109.8L142.9,109.8z"/>
					</g>
				</g>
				<polygon class="st14" points="60,158.2 71.4,201.7 91.3,210.8 87.2,147.2 				"/>
				<polygon class="st14" points="134.9,149.3 132,210.7 148,204.3 157.2,153.8 				"/>
				<polygon class="st22" points="90.8,152.8 91.2,202.5 87.6,153.3 				"/>
				<polygon class="st22" points="131.9,153.5 132.1,203.4 134.6,153.8 				"/>
				<path class="st20" d="M106.3,114.1l20.2,0.9c0,0-0.1,11.1-10.5,10.5C104.1,124.8,106.3,114.1,106.3,114.1z"/>
				<line class="st23" x1="108.3" y1="114.1" x2="130.5" y2="114.8"/>
				<line class="st24" x1="111.2" y1="125.8" x2="121" y2="126.1"/>
				<g>
					<path class="st19" d="M134.8,115.4l-11.1-6.8l-14.8-0.3l-12.1,7.3l-11.5-12.8c0.2,27.1,9.6,36.2,9.6,36.2
						c8.3,7.4,33.4,5.7,40.2-1.1c6.8-6.8,8.6-33.9,8.6-33.9L134.8,115.4z M121,132.8l-3-5.8l-3.9-0.1l-3.2,5.2L99,123.2l11.3-9.7
						l11.4,0.2l11.4,6.6L121,132.8z"/>
				</g>
				<path class="st23" d="M108.5,103.4c0,0,2.3,5.9,7.3,6s7.3-5.7,7.3-5.7"/>
			</g>
		</g>
	</g>
</g>
</svg>
