<svg xmlns="http://www.w3.org/2000/svg" xmlns:xlink="http://www.w3.org/1999/xlink" viewBox="0 0 539 247"><defs><style>.cls-1,.cls-23,.cls-24,.cls-36,.cls-37{fill:none;}.cls-2{isolation:isolate;}.cls-3{clip-path:url(#clip-path);}.cls-4{fill:#523a29;}.cls-5{fill:#543928;}.cls-6{clip-path:url(#clip-path-2);}.cls-7{opacity:0.09;mix-blend-mode:multiply;}.cls-8{fill:#535353;}.cls-34,.cls-8{opacity:0.23;}.cls-9{fill:#f0eee9;}.cls-10{font-size:21px;fill:#4d4d4d;font-family:ZillaSlab-Medium, Zilla Slab;}.cls-11{letter-spacing:-0.01em;}.cls-12{letter-spacing:-0.01em;}.cls-13{letter-spacing:-0.06em;}.cls-14{letter-spacing:-0.01em;}.cls-15{letter-spacing:-0.02em;}.cls-16{letter-spacing:-0.01em;}.cls-17{letter-spacing:-0.03em;}.cls-18{letter-spacing:-0.03em;}.cls-19{letter-spacing:0em;}.cls-20{fill:#d1cfcb;}.cls-21{fill:#333;}.cls-21,.cls-23{opacity:0.2;}.cls-22{fill:#cc8383;}.cls-23{stroke:#000;}.cls-23,.cls-24,.cls-36,.cls-37{stroke-miterlimit:10;}.cls-23,.cls-24{stroke-width:2.1px;}.cls-24{stroke:#7c181f;}.cls-25{clip-path:url(#clip-path-3);}.cls-26{fill:#c6aa6d;}.cls-27,.cls-35{fill:#6e6e6e;}.cls-28{fill:#7a7a7a;}.cls-29{fill:#f2ccc0;}.cls-30{fill:#eaae99;}.cls-31,.cls-38{fill:#1a1a1a;}.cls-32{fill:#ad9360;}.cls-33{fill:#fff;}.cls-34{fill:#5c5c5c;}.cls-35{opacity:0.31;}.cls-36,.cls-37{stroke:#eaae99;stroke-linecap:round;}.cls-36{stroke-width:2.46px;}.cls-37{stroke-width:1.64px;}.cls-38{font-size:23.4px;font-family:KaushanScript-Regular, Kaushan Script;}.cls-39{letter-spacing:0em;}.cls-40{letter-spacing:-0.03em;}</style><clipPath id="clip-path"><rect class="cls-1" x="-11.56" y="502.96" width="1388.87" height="780.86"/></clipPath><clipPath id="clip-path-2"><path class="cls-1" d="M1222.12,1238.61l-19-694c-219,13.94-542.11,14-545,14v-.31L140.47,544.4l-27.69,19.75-1.19,151L137.82,730l-7.41,499.52c141-6.49,522.71,14.09,522.71,14.09v-.54C660,1242.79,938.67,1231.7,1222.12,1238.61Z"/></clipPath><clipPath id="clip-path-3"><rect class="cls-1" x="43.13" y="49.64" width="136.07" height="136.07" transform="translate(-11.82 222.93) rotate(-87.19)"/></clipPath></defs><title>notificacion_juridico_01</title><g class="cls-2"><g id="fondo_05a"><g class="cls-3"><path class="cls-4" d="M232.32,94.86c-.12,4.1.39,8.28-.84,12.23h-1.31L230,94.86Z"/><path class="cls-4" d="M330.71,94.86,328.31,98,326,94.86Z"/><path class="cls-4" d="M483,94.86l-1.63,5.65c-2.48-1.68-.06-3.95-.71-5.65Z"/><path class="cls-4" d="M44.9,94.86v5.35l-2.34-5.35Z"/><path class="cls-4" d="M51,274.93c-1.11-4.18.37-8.55-1-12.86-.62-1.93-.12-2.86-2.62-3.44-2.32-.53-2.39-4.44-2.3-7.38.07-2.27-.2-4.55-.34-7.32l2.86-1.07c-3-10.05-2-20.12,1.4-31.34-2.69,3-4.59,2.88-4.29.23.25-2.19-.54-3-2.21-4.52l5.74-1.65.21-4.72c7.09,8,2.65,16.62,1.31,25.45l2.46,2.45-3.83.7c-.94,5.69,3.95,2.25,5.33,4.39l.73,7.38,1.16.28,2.14-6.25,6.21,3.13c-2,1.58-3.87,2.31-4.47,3.74-1.17,2.77-2.58,5.44-2.05,9.07,1.21,8.31-1.84,15.92-4.08,23.59-.09.32-1.56.11-2.38.15Zm-.32-30.77c2.74-2.26,2.74-2.26.55-5Z"/><path class="cls-4" d="M328.74,100.6c.74,2.86,2,5.71,2.08,8.59a53.82,53.82,0,0,1-1.48,11.45c-1,4.84.69,13,3.68,15.84-1.3,1-3.38,1.81-3.69,3.12-.48,2.09.25,4.54.41,6.84.11,1.62.58,3.49,0,4.81-1,2.4-1.44,4.19.22,6.59s-.59,4.09-2.07,7.06c-1.4-6-2-10.38-1.24-15.62.95-6.51-.12-13.39-.35-20.11-.05-1.51-.56-3.09-.3-4.5a40.41,40.41,0,0,0-.49-17.66C324.73,103.72,326,101.79,328.74,100.6Z"/><path class="cls-4" d="M344.1,124.43c1.28,1,2.14,1.29,2.14,1.63.07,12.58.06,25.15-1,38-.47-.85-1.31-1.69-1.35-2.57-.18-3.85-.06-7.71-.17-11.56s.32-7.95-.7-11.48C341.65,133.59,343.31,129.64,344.1,124.43Z"/><path class="cls-4" d="M454.53,162.94c2.09,6,2.33,25.29.5,40.16-4.68-5.89-1.35-13.05-2.18-19.56-.86-6.7.21-13.72.43-20.59Z"/><path class="cls-4" d="M39.28,192.24c.94-11.76,2.91-14.47,9.71-13.37,3.08,4.67-2.82,6.86-2.43,10.69l2.41.71-.9,2.92C45.27,192,42.22,196.07,39.28,192.24Z"/><path class="cls-4" d="M317.44,274.63c-2.28-3.09-.63-7.06-1.45-10.29a23.92,23.92,0,0,1-.52-10c.48-3.32-1.83-7.12,1.53-10.6,1.28,1.78,2.59,3.46,2.4,6-.44,5.77-1.14,11.51-1.41,17.29-.11,2.42.6,4.88.93,7.32Z"/><path class="cls-4" d="M466.57,174.93c-4.75-11.41-1.6-22.19-2.21-33.45,2.45,1.62,3.44,3.26,3.39,6-.17,8.17-.2,16.34-.33,24.52A17.35,17.35,0,0,1,466.57,174.93Z"/><path class="cls-4" d="M314.77,164.17c.9,2.24,1.57,3.16,1.6,4.1.19,5.94.21,11.88.35,17.81.06,2.54-1.12,2.89-2.91,2.6-1.39-6,.4-12.13-1.59-18C311.77,169.39,313.57,167.08,314.77,164.17Z"/><path class="cls-4" d="M482.92,103.39c-2,10.9.94,21.7.25,32.58l-1.26.19a73.34,73.34,0,0,1-1.36-8.53c-.34-7.32-.47-14.67-.5-22,0-.88,1.14-1.76,1.76-2.64Z"/><path class="cls-4" d="M316.27,162.4l-4.37-6.07,2.88-13.5C317.87,146.28,317.87,146.28,316.27,162.4Z"/><path class="cls-4" d="M467.76,230.69V251.3c-3.47-4.13-1-8.32-2.63-11.25-2.05-3.72.21-6.43.86-9.54Z"/><path class="cls-4" d="M474.35,125.48c3.18,3.53,3.75,13.54,1,17.88C473.16,137.16,473.06,135.45,474.35,125.48Z"/><path class="cls-4" d="M440.66,131c0,3.33-.85,7.08.22,9.89,1.29,3.39.32,5.65-.88,8.85-2.85-2.76-2-6.55-2.27-9.55s.92-6.23,1.48-9.36Z"/><path class="cls-4" d="M240.49,121.6c2.63,3.15,2.74,12.06.89,18.94C238.35,134.28,241.1,127.84,240.49,121.6Z"/><path class="cls-4" d="M165.72,175.22c3,5.21,1.54,9.54,2.14,13.69l-1.38.47-4.26-8.25Z"/><path class="cls-4" d="M327.39,175.13c3.25,5.79,2.87,11.76,1.95,18.07-.82-.33-1.49-.38-1.79-.78a4.21,4.21,0,0,1-1-2.31C326.77,185.11,327.1,180.12,327.39,175.13Z"/><path class="cls-4" d="M122.19,166.11l-4.37,3.69V155.39l1.11-.27Z"/><path class="cls-4" d="M232.44,134c-2.92-4.8-3.44-14.44-1.56-24.58.39,3.43.77,5.72.9,8C232.06,122.65,232.2,127.85,232.44,134Z"/><path class="cls-4" d="M316.27,194.24c-1.07,5,3,10.85-3.34,16.09l1.86-16.26Z"/><path class="cls-4" d="M36.55,243.09c-1.73,1.87-4.44,3.34-1.47,6.92-4.7-1.73-4.7-1.73-2.29-10.7a6.27,6.27,0,0,1,2,1A16.8,16.8,0,0,1,36.55,243.09Z"/><path class="cls-4" d="M164.59,199.12c3.32,4.07,3.06,8.79,1.63,13.71C164.6,208.5,164.67,203.8,164.59,199.12Z"/><path class="cls-4" d="M483.17,159.32c1.85,4.12-.18,7.44-1.51,11.37C479.54,165.54,480.23,161.17,483.17,159.32Z"/><path class="cls-4" d="M21.91,169.69c-2.42-6.72-1.77-9.42,3.16-12.22-1.72,3-3.86,5.17-1.64,8.18C23.75,166.08,22.62,167.89,21.91,169.69Z"/><path class="cls-4" d="M455.2,148.6a12.65,12.65,0,0,1-1.84-.55c.44-4.27-2-8.72.66-13.2,2.33,2,.66,4.42.84,6.48C455.06,143.64,455.08,146,455.2,148.6Z"/><path class="cls-4" d="M474.33,168.76V154.38l1.22,0C476.73,158.78,476.74,163.1,474.33,168.76Z"/><path class="cls-4" d="M316.52,121.26l-3.89-3.66,3-6C319.13,114.21,316.41,117.44,316.52,121.26Z"/><path class="cls-4" d="M34.21,233.3l3-7.71,2.42,9.36C36.65,238.05,37,231.68,34.21,233.3Z"/><path class="cls-4" d="M275.67,183c3,3.08,2.05,6.46.42,9.93Z"/><path class="cls-4" d="M21.11,175.46c.45,2.52,2.91,6.12-1.81,8.18C15.73,179.56,22.55,177.75,21.11,175.46Z"/><path class="cls-4" d="M15.3,223.91l2.82-10.69C20.89,217.1,20.71,217.89,15.3,223.91Z"/><path class="cls-4" d="M230,151.64l.38-9.74C232.94,145.41,233.11,148.55,230,151.64Z"/><path class="cls-4" d="M316.42,96.65l.88,7.1-5.21-1.52C311.19,98.53,314.33,98.62,316.42,96.65Z"/><path class="cls-4" d="M351,107.48a24.6,24.6,0,0,1-.92-4.75c0-.71,1.07-1.44,1.66-2.16.59.69,1.7,1.41,1.67,2.05a26.78,26.78,0,0,1-1.11,4.83Z"/><path class="cls-4" d="M275.35,162l.65-9.76,1.11.08V162Z"/><path class="cls-4" d="M352.43,121.11c-1.72-2.84-3.82-4.69-2.14-8.78C350.81,115.5,354.65,116.61,352.43,121.11Z"/><path class="cls-4" d="M152.75,117.79l-.93-11.7C154,109.36,154.11,110.32,152.75,117.79Z"/><path class="cls-4" d="M24.06,141.19c-1-1.31-2.05-2.15-2.16-3.13a10,10,0,0,1,.87-4.09,3,3,0,0,1,1.84.2,20.61,20.61,0,0,1,.13,4.05A20.4,20.4,0,0,1,24.06,141.19Z"/><path class="cls-4" d="M230.64,176.72l-.36-9.26,1.26-.06v9.25Z"/><path class="cls-4" d="M69.76,98.12c4.06,1.12.61,4.59,2.18,6.52C68.35,103.64,70.55,100.23,69.76,98.12Z"/><path class="cls-4" d="M38.09,221.91c-3.78-.89-2.27-3.73-2.36-6.47C38.72,216.91,39.52,218.75,38.09,221.91Z"/><path class="cls-4" d="M329.7,218.12l.59,7.13C326.94,223,326.94,223,329.7,218.12Z"/><path class="cls-4" d="M464.66,115.52l-1-6.09,1.66-.36.89,6.16Z"/><path class="cls-4" d="M40.34,201.82l2.88-4.06,2.91,4.06Z"/><path class="cls-4" d="M118.25,227c2.37,2,2.85,4,1.16,6.74C117.69,231.7,116.95,229.83,118.25,227Z"/><path class="cls-4" d="M440.94,174.13l-.47-11.27C442.47,166.56,442.55,167.41,440.94,174.13Z"/><path class="cls-4" d="M537.83,106.06c-2.46-3.1-3.47-5.07-1.52-8.07C538.76,100.1,537.31,102.56,537.83,106.06Z"/><path class="cls-4" d="M167.05,103l-5.38-2.61.14-1h5.24Z"/><path class="cls-4" d="M119.46,191.48c2.14,2.72.47,4.65-.68,7.7C116.56,195.68,119.3,193.69,119.46,191.48Z"/><path class="cls-4" d="M474.86,114.41c-3.81-1.28-2.24-3.24-1.89-5.1l1.21-.19Z"/><path class="cls-4" d="M60.15,213.21c.92-1.53-.55-7,4.34-4.17Z"/><path class="cls-4" d="M70.6,128.5C75,127.36,75,127.36,74.26,132Z"/><path class="cls-4" d="M482.3,238.3l-3-4.74,3.91,1.25Z"/><path class="cls-4" d="M167.25,228.9c.93,2,.55,3.47-1,4.47-.16.1-.76-.35-.92-.69C164.2,230.33,165.79,229.76,167.25,228.9Z"/><path class="cls-4" d="M466.54,218.42c.9,2.51,1.72,5-2.62,5.49Z"/><path class="cls-4" d="M316.11,139.12l-1.5-7.24C317.51,133.4,316.65,135.58,316.11,139.12Z"/><path class="cls-4" d="M30.63,194.53l1.32,7.22-.8.21-1.64-7.13Z"/><path class="cls-4" d="M421.61,187.14l-4.21-2.73c.28-.67.39-1.28.56-1.3C420.09,182.82,422.34,182.46,421.61,187.14Z"/><path class="cls-4" d="M118.74,180.06v-6.91C119.45,175.16,122.21,176.92,118.74,180.06Z"/><path class="cls-4" d="M456.18,212.61c-3-2.4-2.82-4.27-.81-6.47Z"/><path class="cls-4" d="M23.48,116.62c4.72,2.38.24,4.71.87,6.68Z"/><path class="cls-4" d="M448.74,98.91c3.81,2.13,1.48,5,2.18,7Z"/><path class="cls-4" d="M313.13,232.48l5.09,2.81-4.67,2.09Z"/><path class="cls-4" d="M23.46,149.19,23,153l-.81-.05v-3.84Z"/><path class="cls-4" d="M275.87,143.17l-1.6-6.64C277.65,138.69,276.88,140.9,275.87,143.17Z"/><path class="cls-4" d="M162.53,120.74c-1.57-1.69-2.57-3.49,0-4.66Z"/><path class="cls-4" d="M164.78,108.26c-3.44-.61-3.44-.61-3.8-4.73Z"/><path class="cls-4" d="M57.28,206.68l.45,4.65c-.68,0-1.25.11-1.3,0C55.64,209.11,55.65,209.11,57.28,206.68Z"/><path class="cls-4" d="M36.76,206.12H40.6l-.08,1.63-3.82-.54Z"/><path class="cls-4" d="M488.69,201.62V207C487.63,205.28,486.23,203.67,488.69,201.62Z"/><path class="cls-4" d="M482.27,226.32l-.44,4.75c-3.16-2-.94-3.59-1-5.17Z"/><path class="cls-4" d="M494.24,157.95v4.16l-1,.07-.26-4.07Z"/><path class="cls-4" d="M360,128.9l.28-5.26H361l.69,5.09Z"/><path class="cls-4" d="M482.37,171.91l.37,4.31-1.51.16-.38-4.31Z"/><path class="cls-4" d="M421.86,173.61l-1.49,1.48a5.63,5.63,0,0,1-1.07-1.66c-.07-.3.72-1.24.89-1.17A7.22,7.22,0,0,1,421.86,173.61Z"/><path class="cls-4" d="M19.6,206c.59,3,.53,4.48-2.53,4.42Z"/><path class="cls-4" d="M487.19,196.3l.55-4.62,1,.09-.27,4.65Z"/><path class="cls-4" d="M467.21,186.65l-2,3.63C465,187.37,465,187.37,467.21,186.65Z"/><path class="cls-4" d="M360.77,168l1.47,3.58-1.13.53-1.07-3.8Z"/><path class="cls-4" d="M167,156.4l.3,4.18-1.13.17-.59-4.31Z"/><path class="cls-4" d="M474.65,182.35l-.21,2.35-.37-2.41Z"/><path class="cls-4" d="M327.85,171.39l-.21-3.14.94-.17.64,3.23Z"/><path class="cls-4" d="M510,126.54V123a10.5,10.5,0,0,1,.85,1.72C510.89,125,510.54,125.37,510,126.54Z"/><path class="cls-4" d="M519.65,114l.84,3.52-1.13.36-.86-3.51Z"/><path class="cls-4" d="M514.19,108.73l2.9-2.18.61,1-2.64,2.44Z"/><path class="cls-4" d="M16.18,233.21l.46,4.17-.76.16L15,233.46Z"/><path class="cls-4" d="M457,228.7l-.26,4.07-.85-.07.27-4.07Z"/><path class="cls-4" d="M119.06,243.7c-.51-.67-1-1.08-1.15-1.61-.06-.25.64-1.07.93-1a1.66,1.66,0,0,1,1.2,1C120.1,242.48,119.5,243,119.06,243.7Z"/><path class="cls-4" d="M481.7,203.41c-.41-.75-1-1.35-.85-1.67a5.27,5.27,0,0,1,1.18-1.52c.25.52.72,1.05.7,1.56S482.18,202.69,481.7,203.41Z"/><path class="cls-4" d="M120.07,208.74l-.65,4-.6-4.1Z"/><path class="cls-4" d="M50.68,244.16l.55-5C53.42,241.9,53.42,241.9,50.68,244.16Z"/><path class="cls-5" d="M243.25,214.82c-1.93.55-3.53,1.72-4.14,5C240.82,223.27,243.3,219.82,243.25,214.82Z"/><path class="cls-5" d="M300.12,214.82c.05,4.22,1.16,6.44,3.25,6.67C303.1,217.6,302.88,213.71,300.12,214.82Z"/><path class="cls-5" d="M524.14,231.43c-2-8.55-2.09,5.72,0,0Z"/><path class="cls-5" d="M461.53,233.1c.05-2.11,1.1-2.33.83-5-1.1-.5-1.54-2.33-3.26-1.66C458.83,230.77,459.38,233.6,461.53,233.1Z"/><path class="cls-5" d="M440.13,160.1c2.92-6.72-2.65-3.94,0,0Z"/><path class="cls-5" d="M358.6,155.1c-1.16.05-1.82-.78-2.48-1.67.44,2.94.44,6.89,1.66,8.28C358,159.49,358.93,158.55,358.6,155.1Z"/><path class="cls-5" d="M464.84,239.71V243c1,.05,1.16,2.11,2.48,1.67v-5Z"/><path class="cls-5" d="M45.54,244.71c2.15.44,3.53-.61,3.31-5-1.1-.5-1.6-2.33-3.31-1.66Z"/><path class="cls-5" d="M131.21,213.16c.11-4.05.11-8-.83-9.94C127.13,202.38,128.9,214.77,131.21,213.16Z"/><path class="cls-5" d="M244.07,183.32c.67,4.66-1.15,4.28-.82,8.28C246.94,194.55,246.22,182.82,244.07,183.32Z"/><path class="cls-5" d="M322.35,198.21a17.9,17.9,0,0,1-.83,6.67H324C324.23,201.1,323.79,198.65,322.35,198.21Z"/><path class="cls-5" d="M487.07,170h-2.48C483.43,174.88,488.28,174.88,487.07,170Z"/><path class="cls-5" d="M43.88,176.66c-.94.27-2.31-.28-2.42,1.66.5.11.94.22.83,1.66C43.28,179.77,44.22,179.49,43.88,176.66Z"/><path class="cls-5" d="M152.62,173.32c-1.1-.5-1.54-2.33-3.25-1.61C148,176.33,152.89,176.27,152.62,173.32Z"/><path class="cls-5" d="M429.43,199.88c-4.09,2.22-1.28,7.83,0,0Z"/><path class="cls-5" d="M465.66,160.1c.78,3.06-2.48,5.5,0,6.61.22-2.61,1.82-1.16,2.48,0C468.26,162.55,466.88,161.54,465.66,160.1Z"/><path class="cls-5" d="M382.48,163.38c2.48-5.56-3-5,0,0Z"/><path class="cls-5" d="M295.15,156.77c-1.66-.06-1-4.56-3.31-3.34v8.28C293.44,161,295.38,161.16,295.15,156.77Z"/><path class="cls-5" d="M301.72,158.43v3.28c.83,0,1,1.39,1.66,1.67.05-2.11,1-2.28.83-4.95Z"/></g></g><g id="tarjeta_05a"><path class="cls-8" d="M462,124.78,457.89,46,198.15,59.44c1.39-10.57,2.29-17.26,2.29-17.26C190.42,42.45,162.79,49,138,46h0c-1.44,16.84,10,6.85,10,7-1.34,18.31-18.45-3.48-19-3,0,0-7-10.14-7-10-.28,0,1.07,6.94,1,7s-2.95,4.75-3,6C89.23,49.14,37,36,37,36S25.74,137.25,16.5,219.14c0,0,121.07,18.8,166.7,25.53-.08-8.14,2.32-81.63,5.07-105.71Z"/><rect class="cls-9" x="151.55" y="33.51" width="369.09" height="89.46" transform="translate(-3.6 17.49) rotate(-2.97)"/><text class="cls-10" transform="translate(202.89 66.95) rotate(-2.73)">F<tspan class="cls-11" x="11.78" y="0">O</tspan><tspan class="cls-12" x="26.73" y="0">R</tspan><tspan class="cls-13" x="39.65" y="0">T</tspan><tspan x="51.62" y="0">ALECIMIENTO </tspan><tspan class="cls-14" x="196.43" y="0">D</tspan><tspan x="210.96" y="0">E</tspan><tspan class="cls-15" x="223.35" y="0">L</tspan><tspan x="234.38" y="0" xml:space="preserve"> P</tspan><tspan class="cls-11" x="251.12" y="0">O</tspan><tspan class="cls-16" x="266.07" y="0">D</tspan><tspan x="280.6" y="0">ER </tspan><tspan x="-1.2" y="27">JU</tspan><tspan class="cls-16" x="23.64" y="27">DI</tspan><tspan x="44.89" y="27">CIA</tspan><tspan class="cls-15" x="79.27" y="27">L</tspan><tspan class="cls-17" x="90.29" y="27"> </tspan><tspan class="cls-18" x="94.14" y="27">Y</tspan><tspan x="106.55" y="27"> </tspan><tspan class="cls-14" x="111.08" y="27">D</tspan><tspan x="125.62" y="27">E</tspan><tspan class="cls-15" x="138.01" y="27">L</tspan><tspan x="149.03" y="27" xml:space="preserve"> MINISTER</tspan><tspan class="cls-16" x="251.74" y="27">I</tspan><tspan x="258.46" y="27">O </tspan><tspan x="-2.4" y="54">PÚBL</tspan><tspan class="cls-14" x="49.17" y="54">I</tspan><tspan class="cls-19" x="55.89" y="54">CO FISCA</tspan><tspan class="cls-15" x="146.7" y="54">L</tspan></text><path class="cls-20" d="M184.28,224.26c-55.56-4.61-156.34-7.68-156.34-7.68L36.84,35.66S164.4,45.91,193.17,43.35C193.17,43.35,182.23,196.84,184.28,224.26Z"/><polygon class="cls-21" points="41.96 182.24 179.03 193.34 179.18 57.87 41.96 182.24"/><rect class="cls-22" x="43.13" y="49.64" width="136.07" height="136.07" transform="translate(-11.82 222.93) rotate(-87.19)"/><path class="cls-23" d="M121.55,40.59c-.19-2.89-.22-2.82-.32-3-.4-.61-10.55-.58-11.18,0s.48,19.54,4.33,26.76,8.56,5.75,6.8-12.44"/><path class="cls-24" d="M120.8,41a19.35,19.35,0,0,0-.31-2.85c-.4-.61-10.54-.59-11.17,0s.48,19.54,4.33,26.76,8.56,5.75,6.8-12.44"/><g class="cls-25"><path class="cls-26" d="M134.91,112.35a5.57,5.57,0,0,0,.93,6.51c1.11,1.14,2.85-.61,1.74-1.74a3,3,0,0,1-.55-3.52c.73-1.41-1.39-2.65-2.13-1.24Z"/><path class="cls-26" d="M132.37,117.46c2.05-1.05,4.4.17,6.53-1.12a9,9,0,0,0,3.37-4.27c.71-2-.13-6.51-3.22-4.46-1.94,1.29-.69,4,1.48,4.05,2.43.06,3.84-2.85,1.87-4.41-.55-.43-1.58-.55-1.94.25-.19.44-1.55,3.76-2.07,3.68l.29,2.25c1.43-.64,1.17-.43,2.14-1.67.43-.55.56-1.58-.25-1.94-3.25-1.43,1.86-2.57,2.11-2.84a10.14,10.14,0,0,0,2.29-3.75c.83-2.59.08-5-2.35-6.29-1.4-.73-2.65,1.39-1.24,2.13a5.3,5.3,0,0,0,2.48.75l-1.23-1.23-3.3,3.74.33,2.42c1.92-.39,2.64-1.39,2.6-3.31,0-1-1.4-1.74-2.1-.87l-2.08,2.55,1.94.25-.65-1.78a1.24,1.24,0,0,0-1.52-.86L137,101l1.39.57a3.48,3.48,0,0,1-.7-3.67q.58-3.49-.3-.35l2.3.62a7.32,7.32,0,0,0-.1-3.35,1.24,1.24,0,0,0-2.25-.29c-1.28,3,.18,5.62,3.53,5.7l-.87-2.1-.51-.63c.93-1.28-1.2-2.52-2.13-1.24-2.37,3.27,1.54,6.36,4.38,3.62a1.25,1.25,0,0,0-.87-2.1l-1.41-2-2.25-.29v2.69c-.16,1.3,1.7,1.55,2.3.62,1.27-2,1.94-7.18-2.11-5.6-3.66,1.43-2.62,7.2-1.14,9.62a1.25,1.25,0,0,0,1.39.57l.81-.28-1.52-.86a3.7,3.7,0,0,0,.89,2.37,1.24,1.24,0,0,0,1.94.25l2.08-2.55-2.1-.87-.79.93a1.24,1.24,0,0,0,.33,2.42c3.7-.13,6-2.42,5.76-6.21a1.27,1.27,0,0,0-1.23-1.23l-1.24-.41-1.24,2.13c2.11,1.1,1.18,5-.2,5.7-.33.18-.94-.19-1.33,0a4.26,4.26,0,0,0-2.71,2c-1.15,2.16.14,4.34,2.19,5.24l-.25-1.94-1.64,1.29a1.24,1.24,0,0,0,.29,2.25c2.86.44,3.87-2.6,4.85-4.81l-1.94.25a8.87,8.87,0,0,1-2.38,4.7,5.93,5.93,0,0,1-4.44.9,5.3,5.3,0,0,0-2.71.73c-1.41.73-.17,2.85,1.24,2.13Z"/><polygon class="cls-27" points="86.87 150.72 125.77 151.84 132 157.78 109.26 176.69 83.46 163.28 86.87 150.72"/><path class="cls-28" d="M92.2,153.92s-31.32,4.85-37.27,9.19-8.38,23.18-8.38,23.18l59.07,20.2,62.24-18.77s.68-16.8-11.24-24.13-34.46-8.24-34.46-8.24Z"/><polygon class="cls-29" points="96.72 137.43 91.35 157.31 100.58 176.2 123.04 165.4 122.33 138.36 96.72 137.43"/><path class="cls-26" d="M76.33,86.82c1,4,1.47,23.94,1.21,27.33s1,10.53,4.45,12.94,8.32,9.5,8.79,9.2,39.59-3.64,39.59-3.64a21,21,0,0,0,4.39-12.77c-.11-7.47,2.66-21.27,4.7-23.29S140,78.48,137.85,77s-5.06-11.1-14.52-12.14C118,64.3,102.51,60.07,91,66,82.13,70.47,75.91,85.07,76.33,86.82Z"/><path class="cls-30" d="M95.78,141.51l-3.43,12.68s24.95,2.29,29-11.74Z"/><path class="cls-30" d="M133,105.89s3.12-6.39,4.94-5.41,1.47,7.76.34,9.42-5.59,9.41-5.59,9.41l-1.76-5.77Z"/><path class="cls-30" d="M84.33,98.24s-4.34-4.83-4.66.71,5.6,16.22,5.6,16.22S88.52,102.91,84.33,98.24Z"/><path class="cls-29" d="M134.78,105.32c-.48,3.32-.92,6.39-1.34,9.22-4.15,27.67-6.69,32.81-25.45,32.27-19.44-.56-21.45-9.19-23.47-42.95C82.58,71.7,96.9,64.77,110.78,65.18S139.81,70.34,134.78,105.32Z"/><ellipse class="cls-31" cx="98.87" cy="100.64" rx="3.29" ry="2.05" transform="translate(-4.59 196.55) rotate(-88.34)"/><ellipse class="cls-31" cx="122.68" cy="101.33" rx="3.29" ry="2.05" transform="translate(17.85 221.02) rotate(-88.34)"/><polygon class="cls-26" points="90.01 95.16 89.47 98.38 106.77 97.58 107.69 92.43 90.01 95.16"/><polygon class="cls-26" points="116.46 93.07 116.47 97.86 128.32 99.12 128.85 96.67 116.46 93.07"/><path class="cls-26" d="M74.78,78.57c-1.15,2.56.34,7.8,4,6.77A4.48,4.48,0,0,0,80.66,78a1.25,1.25,0,0,0-1.49-.19,1.37,1.37,0,0,0,0,2.39c1.35.83,2.59-1.3,1.24-2.13l-.1-.06.61,1.06V79L80.3,80l.1-.06-1.49-.19a2,2,0,0,1-.52,3c-1.32.73-1.85-2.2-1.49-3,.65-1.43-1.48-2.69-2.13-1.24Z"/><path class="cls-26" d="M74.94,79.09a5.26,5.26,0,0,0,.46,3.85,2.23,2.23,0,0,0,2.88,1.13c2.27-1.12,2.07-4.33.7-6a1.24,1.24,0,0,0-1.74,0,3.84,3.84,0,0,0-1,3.51,1.47,1.47,0,0,0,1.4,1.1A4.48,4.48,0,0,0,79.4,82c1.44-.66.19-2.79-1.24-2.13-.13.06-.89.29-.55.3l.87.36q.21.66.15.11a.74.74,0,0,1,0-.27A1.39,1.39,0,0,1,79,79.8H77.25a1.63,1.63,0,0,1,.32.94c0,.43-.21.66-.28,1l-.1.12q.64.2.4-.09a4.2,4.2,0,0,0-.24-.55,2.8,2.8,0,0,1,0-1.49c.37-1.54-2-2.2-2.38-.66Z"/><path class="cls-26" d="M79,69.93c-.83,2-1.09,5.6,1.1,6.88,2.68,1.58,4.09-2.43,4.24-4.38A2,2,0,0,0,82.7,70.1a2.41,2.41,0,0,0-2.43,1.76c-.38.95-.32,2.21.8,2.61,1.39.5,2.14-1,2.54-2.06l-2.25.29a6.31,6.31,0,0,0,1.34,1.41,5.27,5.27,0,0,0,.84.52l.29.12q.66.44.25-.62c-1,1.26,1.18,2.49,2.13,1.24,1.58-2.06-1.9-2.78-2.72-3.93a1.25,1.25,0,0,0-2.25.29q-.49.67.49.34l.74.57q.07.29.14,0,.32-.5-.71-.59c-.06.06-.13,1-.16,1.14a5.2,5.2,0,0,1-.31.9,3,3,0,0,1-.24.46q.19.16,0,0c-.37-.35-.36-1.34-.35-1.8a5.68,5.68,0,0,1,.5-2.14c.61-1.46-1.77-2.1-2.38-.66Z"/><path class="cls-26" d="M82.37,74.85a21.83,21.83,0,0,0,.58,3.89c.38,1.54,2.75.89,2.38-.66a18.06,18.06,0,0,1-.49-3.23c-.09-1.58-2.56-1.59-2.46,0Z"/><path class="cls-26" d="M79.66,107.72c-3.35.62-6.26,5-5.38,8.37a2.79,2.79,0,0,0,3.17,2.14,2.22,2.22,0,0,0,1.5-1c.09-.16.68-2.5,1-1.9L81,113.44a4.06,4.06,0,0,0-3.54,2,1.24,1.24,0,0,0,.74,1.81,2.78,2.78,0,0,0,2.78-.78L79,116.2l.32.66c.69,1.43,2.81.18,2.13-1.24l-.32-.66a1.24,1.24,0,0,0-1.94-.25l-.38.15.74,1.81A1.54,1.54,0,0,1,81,115.9,1.25,1.25,0,0,0,82.07,114c-1-1.88-4.37-1.51-5.06.48a11.38,11.38,0,0,0-.21,1.23c-.53-.11.13-2.13.2-2.35a4.44,4.44,0,0,1,3.32-3.31c1.56-.29.9-2.66-.66-2.38Z"/><path class="cls-26" d="M81.66,122a3.21,3.21,0,0,1,.65.63v-1.74a3.24,3.24,0,0,0-.65.94h2.13a12.85,12.85,0,0,0-1.2-2.14,1.26,1.26,0,0,0-1.69-.44,1.24,1.24,0,0,0-.44,1.69,12.85,12.85,0,0,1,1.2,2.14,1.24,1.24,0,0,0,2.13,0,1.34,1.34,0,0,1,.27-.44,1.27,1.27,0,0,0,0-1.74,5.31,5.31,0,0,0-1.15-1A1.23,1.23,0,0,0,81.66,122Z"/><path class="cls-26" d="M88.93,69c2.47-.49,2.74-3.56,1.4-5.27a4.18,4.18,0,0,0-6.06-.38,4.28,4.28,0,0,0-1.64,2.83,1.93,1.93,0,0,0,1.69,2.15c2.26.21,3.14-2.68,1.75-4.16l.19,1.49-.26.14q.3-.15.33.07c0,.29-.31.67-.48.89l2.06,1.2.2-.52c.57-1.48-1.81-2.12-2.38-.66l-.2.52c-.43,1.12,1.31,2.15,2.06,1.2,1-1.28,2-3.22.44-4.55-1-.9-3.29-.93-3.9.47a1.29,1.29,0,0,0,.19,1.49q0-.12,0,0-.12.47.79.31c.14-.07.3-.53.42-.67a2.44,2.44,0,0,1,1.54-.88,1.49,1.49,0,0,1,1.33.57c.31.39.58,1.26-.12,1.39-1.55.31-.9,2.68.66,2.38Z"/><path class="cls-26" d="M85.71,68c.33,1.09.19,2.4,1.55,2.85a1.77,1.77,0,0,0,2.33-1.62A1.23,1.23,0,0,0,89,68.19a3.5,3.5,0,0,0-4.87,2.06,2,2,0,0,0,1.29,2.39,1.91,1.91,0,0,0,1.39-.11c.35-.16.63-.54,1-.68a1.27,1.27,0,0,0,.86-1.52,1.24,1.24,0,0,0-1.52-.86,3.51,3.51,0,0,0-.93.5,1.42,1.42,0,0,0-.31.24c-.08.13-.09-.06.09,0l.54.32c-.1-.08,0,.3,0,.28s.44-.37.41-.34c.26-.16.57-.34.85-.17l-.61-1.06v.15l.17-.62q1.29.54,1-.15,0-.13,0-.26a6.67,6.67,0,0,0-.18-1c-.46-1.51-2.84-.87-2.38.66Z"/><path class="cls-26" d="M100.11,62.69a1.84,1.84,0,0,1-2.25-.42,5.75,5.75,0,0,1-.86-1c-.12-.18-.42-1-.41-.51l-.36.87c.22-.25,1-.37,1.26-.47l-1.2-2.06c-1.32,1.22-4.3,3-3,5.17s3.72,1,5.21-.16L96.6,62.59l-.75,1.09C94.94,65,97.08,66.22,98,64.92l.75-1.09c.86-1.24-.93-2.3-1.94-1.49-.13.1-1,.85-1.25.68.16.12.41-.29.56-.43L98,60.82a1.24,1.24,0,0,0-1.2-2.06c-.87.29-2.21.55-2.61,1.5s.48,2.06,1.07,2.82c1.43,1.85,3.84,3.11,6.05,1.74,1.35-.83.11-3-1.24-2.13Z"/><path class="cls-26" d="M90.46,64.24a2.06,2.06,0,0,0,1.67,1.95,3.09,3.09,0,0,0,2.67-1,1.23,1.23,0,0,0-1.74-1.74c-.05,0-.48.43-.52.37l.2,0c.12.07.19.34.19.42A1.26,1.26,0,0,0,91.69,63a1.24,1.24,0,0,0-1.23,1.23Z"/><path class="cls-26" d="M101.11,65a4.58,4.58,0,0,1,.31-1.74l-.74.57c-.27.07.7.2.86.24l1.5.38a1.24,1.24,0,0,0,.95-2.25c-1-.54-2.55-1.94-1-2.78a4.53,4.53,0,0,1,3.51,0c1.5.53,2.14-1.85.66-2.38-2.12-.74-5.58-.67-7,1.44s.65,4.81,2.53,5.81l.95-2.25c-1-.26-2.59-1-3.66-.62s-1.14,1.85-1.29,2.89c-.22,1.55,2.16,2.22,2.38.66Z"/><path class="cls-26" d="M106.28,57.51l-.44.13,1.52.86a2.83,2.83,0,0,0-2.12-2,1.27,1.27,0,0,0-1.52.86c-.34,1-.46,2.62.86,3s2.11-.85,2.25-2l-2.42.33a1.92,1.92,0,0,1,0,.67c0,.18-.22.41-.22.57s-.09.15.05.1.16,0,0-.13a3.44,3.44,0,0,0-.37-.57l-1.94,1.49a3.49,3.49,0,0,0,1.8,1.19q.41.18.15,0a5,5,0,0,0,.4.32,6.87,6.87,0,0,0,.9.6c1.39.77,2.63-1.36,1.24-2.13-.48-.27-.88-.76-1.38-1s-.91-.21-1.36-.73c-.93-1.08-2.62.31-1.94,1.49s2.17,2.5,3.69,1.57c1.36-.82,1.63-2.69,1.39-4.11a1.22,1.22,0,0,0-1.35-.88,1.25,1.25,0,0,0-1.07,1.21l.54-.42.87.36q.2.86.17.19a3.07,3.07,0,0,1,.14-.49l-1.52.86c.2,0,.33,0,.4.25a1.25,1.25,0,0,0,1.52.86l.44-.13a1.23,1.23,0,0,0-.66-2.38Z"/><path class="cls-26" d="M106,63.61c3,1.52,7.64-2.95,4.31-5.35-1.17-.84-2.43,1-1.49,1.94a1.6,1.6,0,0,0,2.17.32,1.46,1.46,0,0,0,.15-2.15,1.24,1.24,0,0,0-1.74,0,1.26,1.26,0,0,0,0,1.74l.07.09-.32-1.2,0-.07.74-.57-.12,0h.66l.11,0-1.49,1.94c-.1-.08,0,0-.11.11a2.35,2.35,0,0,1-.46.51c-.27.22-.88.67-1.26.48-1.41-.71-2.66,1.42-1.24,2.13Z"/><path class="cls-26" d="M105.94,61.49l.32.73a1.23,1.23,0,0,0,2.25-.95l-.27-.95-1.19,1.56,1.19.13a1.24,1.24,0,0,0,1.23-1.23,1.26,1.26,0,0,0-1.23-1.23l-1.19-.13A1.24,1.24,0,0,0,105.86,61l.27.95,2.25-.95-.32-.73a1.24,1.24,0,0,0-1.69-.44,1.26,1.26,0,0,0-.44,1.69Z"/><path class="cls-26" d="M109.64,65.15c.86,1.61,2.83.77,3.89-.1a5.75,5.75,0,0,0,2-3.92h-2.46a2.92,2.92,0,0,0,.52,1.94l1.06-1.85c-.74,0-1.47,0-2.2-.05l.62,2.3L115,62a1.27,1.27,0,0,0,.44-1.69,1.24,1.24,0,0,0-1.69-.44l-2,1.44a1.24,1.24,0,0,0,.62,2.3c.73.05,1.47.07,2.2.05a1.24,1.24,0,0,0,1.06-1.85.83.83,0,0,1-.18-.7,1.24,1.24,0,0,0-1.23-1.23,1.26,1.26,0,0,0-1.23,1.23,3.14,3.14,0,0,1-.7,1.62c-.18.22-.85.93-1.13.83l.54.32h0c-.75-1.4-2.88-.16-2.13,1.24Z"/><path class="cls-26" d="M116.83,61.27A1.56,1.56,0,0,0,114.52,60a4.75,4.75,0,0,0-1,.9c-.16.16-.33.31-.5.46l-.19.15q-.25.16.17.05l.44.44h0l-1.19,1.56,2.44-.19a1.26,1.26,0,0,0,1.23-1.23,1.24,1.24,0,0,0-1.23-1.23l-2.44.19a1.25,1.25,0,0,0-1.19,1.56,1.85,1.85,0,0,0,2.54,1.22,4.29,4.29,0,0,0,1.26-.85c.3-.26.65-.79,1-.94l-.62.17h.14l-.62-.17,0,0-.36-.87,0,.13a1.27,1.27,0,0,0,1.23,1.23,1.24,1.24,0,0,0,1.23-1.23Z"/><path class="cls-26" d="M119.56,65a5.48,5.48,0,0,1,.13-2c.2-.74.25-.61.75-.08a1.24,1.24,0,0,0,2.06-1.2,2.75,2.75,0,0,0-4.34-1.18c-1.18.86-3.18,3.93-.56,4.39a2.08,2.08,0,0,0,2.07-1.08,5.46,5.46,0,0,1,1.1-1.22,6.12,6.12,0,0,1,1.47-.61c1.7-.74.07-1.77-.68-1.84a2.35,2.35,0,0,0-1.34.3,2.52,2.52,0,0,0-1.3,2.43c.16,1.56,2.62,1.58,2.46,0,0-.44.3-.11.58,0a2.65,2.65,0,0,0,.82.17,2,2,0,0,0,1.43-.55,1.68,1.68,0,0,0-.52-2.72,4.23,4.23,0,0,0-3.57.35,6.49,6.49,0,0,0-1.41,1A6.92,6.92,0,0,0,118,62l-.19.25q-.61.59.58.43l.36.87c0-.06,1.24-1.49,1.37-1.13l2.06-1.2c-1-1.05-2.48-1.87-3.78-.81S117,63.57,117.09,65s2.61,1.58,2.46,0Z"/><path class="cls-26" d="M120,61.6a3,3,0,0,0,.72,4.11c1.07.83,3.27,1.44,4.08-.06a1.59,1.59,0,0,0-2.46-1.95c-.13.12-.21.33-.35.43s.19,0,0,0a1.07,1.07,0,0,1-.54-.5,10.62,10.62,0,0,0-1.3-1.87c-1.13-1.11-2.88.63-1.74,1.74.59.58.84,1.41,1.39,2a3.09,3.09,0,0,0,2.35,1.07c1.32,0,2.91-1.46.75-2.5-.54-.26-1.38-.51-.82-1.24a1.24,1.24,0,0,0-.44-1.69,1.26,1.26,0,0,0-1.69.44Z"/><path class="cls-26" d="M112.43,63.9a2.33,2.33,0,0,0,3.23.71,1.85,1.85,0,0,0,.81-1.95,1.52,1.52,0,0,0-1.53-1.23l.33,2.42,1-.3c1.51-.47.86-2.85-.66-2.38l-1,.3a1.24,1.24,0,0,0-.88,1.35,1.22,1.22,0,0,0,1.21,1.07l-.16,0-.54-.32c-.32-.25-.15-.68,0-.95a.33.33,0,0,1,.18-.09q-.19,0-.05,0t-.06,0a.19.19,0,0,1,.15,0l-.05,0a.37.37,0,0,1,.14.13,1.23,1.23,0,1,0-2.13,1.24Z"/><path class="cls-26" d="M121.19,61.43A4.57,4.57,0,0,0,122.53,66a8.58,8.58,0,0,0,5.14,1.92c1.57.18,1.56-2.29,0-2.46s-4.78-1-4.1-3.36a1.23,1.23,0,0,0-2.38-.66Z"/><path class="cls-26" d="M130.32,68.16a8.45,8.45,0,0,1-.84-1.45,4.19,4.19,0,0,1-.51-1.79c.08-.3-.1,0,.26-.09a7.29,7.29,0,0,1,.93-.24c.44-.07,1.4-.27,1.31.38l1.85-1.06-1.39-1-.62,2.3c-.34,0-.4.29-.58.55-.92,1.29,1.22,2.53,2.13,1.24,1.15-1.62.79-4.16-1.55-4.25-1.34-.05-1.52,1.63-.62,2.3l1.39,1c.85.63,1.75-.26,1.85-1.06a2.61,2.61,0,0,0-1.82-2.71,6.09,6.09,0,0,0-4.08.39c-2.84,1.15-1.1,5,.15,6.75.9,1.29,3,.06,2.13-1.24Z"/><path class="cls-26" d="M132.73,67.45A2.7,2.7,0,0,0,133,64,3.5,3.5,0,0,0,130,62.55a3.41,3.41,0,0,0-2.78,5.07c.74,1.4,2.87.16,2.13-1.24a1,1,0,0,1,.54-1.35,1,1,0,0,1,.84.2.87.87,0,0,1,.22.26c.15.26,0,.21,0,.23a1.23,1.23,0,0,0,1.74,1.74Z"/><path class="cls-26" d="M120.61,62c.54-1.84,2.79-1.46,3.11.29.28,1.56,2.66.9,2.38-.66a4,4,0,0,0-7.86-.29,1.23,1.23,0,0,0,2.38.66Z"/><path class="cls-26" d="M122.89,66a3.5,3.5,0,0,0,3.89,1.41c1.51-.47.87-2.85-.66-2.38a.79.79,0,0,1-.67,0,1.11,1.11,0,0,1-.44-.29,1.27,1.27,0,0,0-1.69-.44,1.24,1.24,0,0,0-.44,1.69Z"/><path class="cls-26" d="M123.41,65a4.16,4.16,0,0,0,2.82-.33,1.24,1.24,0,0,0,.44-1.69,1.26,1.26,0,0,0-1.69-.44,1.39,1.39,0,0,1-.92.09,1.26,1.26,0,0,0-1.52.86,1.25,1.25,0,0,0,.86,1.52Z"/><path class="cls-26" d="M125.55,66.47a4.08,4.08,0,0,1,1.88-.76,1.24,1.24,0,0,0,.86-1.52,1.26,1.26,0,0,0-1.52-.86,5.66,5.66,0,0,0-2.47,1,1.27,1.27,0,0,0-.44,1.69,1.24,1.24,0,0,0,1.69.44Z"/><path class="cls-26" d="M131.93,69.45a1.23,1.23,0,0,0,0-2.46,1.23,1.23,0,0,0,0,2.46Z"/><path class="cls-26" d="M130.8,71.56a3.67,3.67,0,0,0,4.92-1,3.13,3.13,0,0,0-1.06-4.33A1.24,1.24,0,0,0,133,68a2.31,2.31,0,0,0,2.57,1.13,1.24,1.24,0,0,0,.86-1.52,2.2,2.2,0,0,0-2.78-1.46c-1.49.52-.85,2.9.66,2.38a1.64,1.64,0,0,1-.25-.26l.86-1.52a.5.5,0,0,0,.22,0l-1.69,1.69a.64.64,0,0,1,.22.9c-.33.52-1.14.38-1.59.13a1.23,1.23,0,0,0-1.24,2.13Z"/><path class="cls-26" d="M130.13,66.91l.17-.33-.74.57.35-.13-1.52-.86-.08.24A1.24,1.24,0,0,0,130,68.08a5.72,5.72,0,0,0,1.62-1.51l-2.13-1.24a2.61,2.61,0,0,0-.23,2.68c.58,1,1.41.93,2.37.83l-.87-.36c.1.08.12,2.2.18,2.49A9.82,9.82,0,0,0,132,73.71a1.23,1.23,0,0,0,2.13-1.24,7.35,7.35,0,0,1-.9-2.4c-.13-.75,0-1.54-.12-2.28a1.72,1.72,0,0,0-.77-1.16,1.52,1.52,0,0,0-.75-.26l-.34,0q-.82.06.33.17c.8-1.42-1.2-2.48-2.13-1.24a2,2,0,0,1-.74.63l1.69,1.69a3,3,0,0,0,.32-2.14,1.24,1.24,0,0,0-1.52-.86,1.93,1.93,0,0,0-1.26,1c-.75,1.4,1.38,2.65,2.13,1.24Z"/><path class="cls-26" d="M137.06,75l-.15-.16c-1.09-1.16-2.83.59-1.74,1.74l.15.16c1.09,1.16,2.83-.59,1.74-1.74Z"/><path class="cls-26" d="M133.35,75.4l0,.13a1.23,1.23,0,0,0,.86.86l.14,0a1.22,1.22,0,0,0,1.2-.32c.85-.81.8-2.07,1.5-3,1.08-1.36,2.22,1,2.63,1.81l1.69-1.69c-1.11-.73-2.79-2.11-4.18-2.1s-1.9,1.36-2,2.52a1.25,1.25,0,0,0,1.23,1.23,3.21,3.21,0,0,0,1.33-.42c.38-.14.2-.29.55,0a1.29,1.29,0,0,1,.37.73l.36-.87c-.14.14-.81.3-.53.49l.57.74-.82-.19,2.3.62V75.8l-.36.87c.37-.46.79-.75.89-1.37a1.75,1.75,0,0,0-.75-1.74c-1.24-.84-2.54.07-2.95,1.31-.5,1.51,1.88,2.16,2.38.66q-.55-1.52-1.16-.79l-.24.31a1.66,1.66,0,0,0-.27,1,1.24,1.24,0,0,0,2.3.62,2,2,0,0,0-2.62-2.7c-1.62.78-1.45,3.5.61,3.3a4,4,0,0,0,2.41-1.14,2,2,0,0,0,0-2.29,3.3,3.3,0,0,0-2.1-1.94,2.34,2.34,0,0,0-1.27,0c-.25.08-.81.59-1,.59l1.23,1.23,0-.26q-1.08,0-.46.27a4.53,4.53,0,0,0,1,.52c.65.36,1.29.76,1.91,1.17,1.11.73,2.19-.66,1.69-1.69-.89-1.81-2.37-3.81-4.67-3.41A3.22,3.22,0,0,0,135,71.79c-.48.74-.57,2-1.2,2.59l1.2-.32-.14,0,.86.86,0-.13c-.23-1.56-2.6-.9-2.38.66Z"/><path class="cls-26" d="M137.68,79c.36-.86.79-.8,1,.07a4.44,4.44,0,0,1-.08,1.85c-.23,1.12-.67,1.65,0,2.67L140,81.76c-2.73-1.08-2.43,3.45-1.45,4.71,1.56,2,5.15,1.89,5.64-.94.27-1.55-2.11-2.22-2.38-.66q-1.29.63-1.52-.3-.12-.64-1-.44c1,.4,1.93-1,1.39-1.81s0-1.82-1.25-2.35a1.73,1.73,0,0,0-2.31.92c-.84,2,1.86,3.23,3.22,1.78s1.23-5.09-.2-6.42c-2-1.82-4.13.25-4.89,2.07-.61,1.46,1.77,2.1,2.38.66Z"/><path class="cls-26" d="M141.71,85a3,3,0,0,1-1.17.9A3.27,3.27,0,0,1,140,86a1.15,1.15,0,0,1-.3,0q.1.06,0-.05l.32.54a.59.59,0,0,1-.44.55l-1.19-1.56a5.09,5.09,0,0,0,.12,3.58,2.83,2.83,0,0,0,2.52,1.55,1.23,1.23,0,0,0,0-2.46c-.79,0-.35-1.62-.27-2a1.25,1.25,0,0,0-1.19-1.56,1.93,1.93,0,0,0-.93,3.65c1.6.79,3.73-.33,4.78-1.55s-.71-3-1.74-1.74Z"/><path class="cls-26" d="M139,89.72a3,3,0,0,0-.29,1.71c0,.59-.13,1.12-.82,1.15l.87,2.1c.2-.23.47-.45.65-.68l.26-.19q-.7-.64-.71-.17s-.18.47-.23.53a1.14,1.14,0,0,1-.68.36c-1.54.37-.89,2.74.66,2.38a3.41,3.41,0,0,0,2.59-4.14,1.92,1.92,0,0,0-2-1.41A4,4,0,0,0,137,92.95a1.25,1.25,0,0,0,.87,2.1,3.37,3.37,0,0,0,2.65-1.33,3.26,3.26,0,0,0,.59-1.22c.08-.35-.13-1.27,0-1.53.72-1.41-1.41-2.66-2.13-1.24Z"/><path class="cls-26" d="M136.59,96.45a4.3,4.3,0,0,0,.57,3.35,2.3,2.3,0,0,0,1.32,1,1.51,1.51,0,0,0,1.72-.73,1.23,1.23,0,0,0-2.13-1.24c.37-.49,1,.17.55.44l-1.85-1.06a4.51,4.51,0,0,0,.15,1.51,1.23,1.23,0,0,0,2.38-.66,2.43,2.43,0,0,1-.06-.85,1.24,1.24,0,0,0-1.85-1.06,2.11,2.11,0,1,0,2.83,2.93l-2.13-1.24,0,.09.44-.44a.76.76,0,0,1,.79,0,.91.91,0,0,0-.1-.18c0-.12-.1-.21-.15-.34a1.72,1.72,0,0,1,0-.89,1.26,1.26,0,0,0-.86-1.52,1.25,1.25,0,0,0-1.52.86Z"/><path class="cls-26" d="M134.81,119.17c-.12.06-.16-.4-.17-.29L135,118l-.1.12.87-.36h-.23l.62.17a1.93,1.93,0,0,0-2.93,1.12,1.25,1.25,0,0,0,.57,1.39,1.72,1.72,0,0,0,1,.24,1.41,1.41,0,0,0,.56-.13q.4-.08.13-.11c-.15-.13,0,.1-.05.2a1.64,1.64,0,0,1-.63.61c-1.34.84-.11,3,1.24,2.13a3.27,3.27,0,0,0,1.76-3.59,2.62,2.62,0,0,0-1.3-1.54,2.18,2.18,0,0,0-1-.24c-.33,0-.6.21-.9.24l.62.17-.18-.09.57,1.39q-1.19.28-.4.48a4,4,0,0,0,.56.06,1.31,1.31,0,0,0,1-.49,1.61,1.61,0,0,0,.14-1.85,2.49,2.49,0,0,0-3.32-.86c-1.42.7-.18,2.82,1.24,2.13Z"/><path class="cls-26" d="M134.38,120a2.48,2.48,0,0,0-1.7,2.34,2.43,2.43,0,0,0,.59,1.49c.12.15.25.29.38.44.49.55-.12,0,.5,0-1.59-.08-1.58,2.38,0,2.46a2.13,2.13,0,0,0,2.17-2.12,3.37,3.37,0,0,0-1-2.17c-.37-.32,0-.18-.31-.07a1.27,1.27,0,0,0,.86-1.52,1.24,1.24,0,0,0-1.52-.86Z"/><path class="cls-26" d="M108.47,66.05a3.26,3.26,0,0,1-1.67,4.14c-1.46.78-4.18.79-3.23-1.57.42-1.05,1.62-2,.88-3.21a1.56,1.56,0,0,0-2.45-.28,1.24,1.24,0,0,0,.25,1.94,1.92,1.92,0,0,0,1.2.3c1.57-.1,1.59-2.57,0-2.46l0,0,.25,1.94.18-.14-1.2.32.25.06-.74-.57.16.21-.12-.95c-.17,1-1.11,1.85-1.32,2.93a3.68,3.68,0,0,0,4.6,4.37c4-.53,6.78-4.44,5-8.3-.65-1.44-2.77-.19-2.13,1.24Z"/><path class="cls-26" d="M104.9,66.23,106.11,68,108,66.52c-1.66-1.55-5.11-1.41-5.29,1.5a1.57,1.57,0,0,0,1.1,1.79c1,.33,1.63-.92,2.09.07a1.25,1.25,0,0,0,1.94.25c.46-.39,1.5-3.47.81-3.27l-1.2-.32a5.11,5.11,0,0,1,1,2L110,67.07a5.14,5.14,0,0,0-6.86,4.11,1.25,1.25,0,0,0,1.19,1.56c2.06-.07,1.73-2.09.81-3.3a6.83,6.83,0,0,0-7.35-2.19c-6.18,2-5.94,9.63-1.41,13.1,1.26,1,2.49-1.18,1.24-2.13-2.06-1.57-3-4.5-1.47-6.78,2.25-3.32,5.13-1,8.18-1.16l1.19,1.56q.37-3.16,3.83-2.39a1.24,1.24,0,0,0,1.52-1.52c-.44-1.27-1.12-3.72-2.87-3.45-2.3.35-.79,3-1.89,3.9l1.94.25a3.07,3.07,0,0,0-1.93-1.9,2.56,2.56,0,0,0-1.24.09c-1.37.52.35.47,1.4,1.44s2.75-.29,1.94-1.49L107,65c-.89-1.3-3-.07-2.13,1.24Z"/><path class="cls-26" d="M100,77c-1.6-.38-4.78-2.2-3.2-4.35.55-.74,4-2.36,4.49-1.22V70.15l-.14.19,1.69-.44A2.59,2.59,0,0,1,101.61,68L99.8,69.37A10.17,10.17,0,0,1,102.3,71L103.79,69a7.17,7.17,0,0,0-2.75-.68c-1.59-.07-1.58,2.39,0,2.46a3.16,3.16,0,0,1,1.51.34c1.17.53,2.64-.94,1.49-1.94a12.49,12.49,0,0,0-3-2,1.25,1.25,0,0,0-1.81,1.39A4.86,4.86,0,0,0,101.64,72a1.26,1.26,0,0,0,1.69-.44c1.1-1.56-.91-2.61-2.18-2.81a7.27,7.27,0,0,0-5.66,1.74c-3.72,3.33.16,7.95,3.9,8.83,1.54.36,2.2-2,.66-2.38Z"/><path class="cls-26" d="M99.49,68.14A1.94,1.94,0,0,0,98,69.61,1.25,1.25,0,0,0,99.83,71a2.44,2.44,0,0,0,1.22-1.21,3.6,3.6,0,0,0,.15-1.86l-.17.62,0,0-.54.32s-.06-.05,0,0,.57.32.73.37a2,2,0,0,0,1.66-.11,1.24,1.24,0,0,0,.25-1.94l-1.05-.9-.25,1.94A3.29,3.29,0,0,0,102.91,67c.72-1.41-1.41-2.66-2.13-1.24a.84.84,0,0,1-.27.37,1.25,1.25,0,0,0-.25,1.94l1.05.9.25-1.94-.18.08.62-.17-.49-.26a2.65,2.65,0,0,0-.62-.22,1.89,1.89,0,0,0-1.51.28,1.59,1.59,0,0,0-.64,1.44c0,.08,0,.7.11.48-.08.15-.07.13-.27.21l1.81,1.39-.25.25c1.54-.36.89-2.74-.66-2.38Z"/><path class="cls-26" d="M100.08,67.71c-3.7-2-6.6,1.92-6.33,5.38s2.77,8.23,6.9,6.08c1.41-.73.16-2.86-1.24-2.13-3.85,2-4.45-9.27-.57-7.2,1.4.75,2.65-1.38,1.24-2.13Z"/><path class="cls-26" d="M98.07,76.24a1.86,1.86,0,0,0,3.6.24,2.24,2.24,0,0,0-.07-1.43v.66l0-.14-.57.74.06,0-.95.12-.15-.07-.44-.44,0,.05.19-1.49,0,0c-1.17,1.07.57,2.81,1.74,1.74l0,0a1.27,1.27,0,0,0,.19-1.49,1.37,1.37,0,0,0-2.36-.07,1.63,1.63,0,0,0-.19.76s.09.64.15.62v-.29a.39.39,0,0,1,.35-.32.48.48,0,0,1,.65.08q.18.42.11.11a1.24,1.24,0,0,0-1.52-.86,1.26,1.26,0,0,0-.86,1.52Z"/><path class="cls-26" d="M100.25,75.51l-.49,1.07a1.27,1.27,0,0,0,.44,1.69,1.24,1.24,0,0,0,1.69-.44l.49-1.07a1.27,1.27,0,0,0-.44-1.69,1.24,1.24,0,0,0-1.69.44Z"/><path class="cls-26" d="M93.68,72.06c-3.34-2.52-5.77,2.78-5.87,5.37a4.14,4.14,0,0,0,1.81,3.8,3,3,0,0,0,3.81-.64c1-1.23-.76-3-1.74-1.74-.38.48-.78.39-1.15-.09a2.59,2.59,0,0,1-.14-2c.17-.77.84-3.45,2-2.54s2.5-1.18,1.24-2.13Z"/><path class="cls-26" d="M91.08,75.88a2.48,2.48,0,0,1-1.18-.07c-.45-.27,0-.62.38-.91a4.82,4.82,0,0,1,1.5-.77,5.49,5.49,0,0,1,.71-.18,3.27,3.27,0,0,1,.57-.06q.46,0-.12-.29L94,71.74a3.1,3.1,0,0,1-1.21-.26c-1.48-.58-2.12,1.8-.66,2.38A5.24,5.24,0,0,0,94,74.2a1.24,1.24,0,0,0,1.06-1.85c-1.6-2.23-5.81-.25-7.13,1.44a2.73,2.73,0,0,0-.16,3.48,4,4,0,0,0,3.32,1.07c1.58-.06,1.59-2.53,0-2.46Z"/><path class="cls-26" d="M91.27,72.15a4.2,4.2,0,0,0,0,2.78,1.61,1.61,0,0,0,2.33.68c1.85-1.23.48-3.83-1.31-4.19l.29,2.25a6.19,6.19,0,0,1,2.93-1.3c-.3,0-.1-.27-.14.09a4.61,4.61,0,0,0,.19.89,9.27,9.27,0,0,1,.1.93c0,.27-.19,1,.2.53L97,74.5l-.12,0c-1.54-.37-2.2,2-.66,2.38l.12,0a1.24,1.24,0,0,0,1.2-.32c.75-.81.57-2,.46-3a5.06,5.06,0,0,0-1-3c-1.54-1.52-4.33.07-5.74,1a1.25,1.25,0,0,0,.29,2.25.29.29,0,0,1,.3.1q.21.25.23-.32l.95-.12c.41.06.34,1,.42.07a4.24,4.24,0,0,1,.14-.72,1.23,1.23,0,0,0-2.38-.66Z"/><path class="cls-26" d="M97,73.93A18.36,18.36,0,0,0,100,75c.88.27,1.83.68,2.07,1.65a1.23,1.23,0,0,0,2.38-.66c-.77-3.06-3.92-3-6.23-4.2-1.41-.72-2.66,1.4-1.24,2.13Z"/><path class="cls-26" d="M104.35,72.08A1.68,1.68,0,0,0,104,69c-1.59-.48-2.63,1.16-2.65,2.54a2.87,2.87,0,0,0,2.41,2.89,5.05,5.05,0,0,0,4-1.39,1.26,1.26,0,0,0,.5-1.54,1.22,1.22,0,0,0-1.45-.71,2.59,2.59,0,0,1-1.37.25,1.28,1.28,0,0,0-1.52.86,1.24,1.24,0,0,0,.86,1.52,5,5,0,0,0,2.68-.25l-.95-2.25a4.18,4.18,0,0,1-2,1.12.8.8,0,0,1-.63-.18c-.23-.3.49-2.59-.79-1.92s-.16,2.87,1.24,2.13Z"/><path class="cls-26" d="M102.67,71c-1.74.89-4.2,3.78-2.09,5.56,1.07.91,2.67.71,4,.77s3.09.58,2.12,2.13c-.54.88-1.67,1-2.61,1.16-1.56.22-.9,2.6.66,2.38,2.66-.38,5.91-2.58,4.57-5.71A4.2,4.2,0,0,0,106.11,75c-.84-.17-1.7,0-2.54-.16-.29,0-1,0-1.16-.38s1.21-1.2,1.5-1.35c1.41-.72.17-2.85-1.24-2.13Z"/><path class="cls-26" d="M104.62,80.82a1.55,1.55,0,0,0,2.62-.67,1.27,1.27,0,0,0-.57-1.39,1.73,1.73,0,0,0-2.55,1.87,2,2,0,0,0,3.19,1,2.87,2.87,0,0,0,.89-3.28,2.12,2.12,0,0,0-3.07-1,1.25,1.25,0,0,0-.59,1.23,1.22,1.22,0,0,0,.88,1,1.75,1.75,0,0,0,1.63-.43,1.24,1.24,0,0,0,0-1.74,1.26,1.26,0,0,0-1.74,0l.05-.07.62-.17.09,0,.29,2.25c.23-.17-.16,0-.28,0s-.07-.06-.11-.09-.07-.16,0-.14,0,.18,0,.18c0,.21.08-.16-.07.18l-.08.12a0,0,0,0,1,0,0s.29,0,.33,0c.72.21.32,1.93-.71,1.28l-.57-1.39.05-.13.44-.44,1,.16a1.24,1.24,0,0,0-1.74,0,1.26,1.26,0,0,0,0,1.74Z"/><path class="cls-26" d="M107.38,76.83c-.55-1.22.58-2.19,1.73-2.09,1.58.14,1.57-2.33,0-2.46A4,4,0,0,0,105.46,74a4.12,4.12,0,0,0-.21,4.06,1.24,1.24,0,0,0,1.69.44,1.26,1.26,0,0,0,.44-1.69Z"/><path class="cls-26" d="M91.21,79.12,88.89,81a1.24,1.24,0,0,0,0,1.74,1.26,1.26,0,0,0,1.74,0l2.31-1.85a1.24,1.24,0,0,0,0-1.74,1.26,1.26,0,0,0-1.74,0Z"/><path class="cls-26" d="M110.68,68.27a11.59,11.59,0,0,0-1.32,3h2.38c-.25-1.62-1.29-4.37,1-4.77a4.14,4.14,0,0,1,4.16,1.73l-.12-.95-.07.35.57-.74c.4-.19-.25-.07-.42-.09-.5,0-1-.06-1.49-.1-.89-.07-1.78-.18-2.67-.29-1.37-.18-1.68,2.15-.33,2.42s2.82-.76,2-2.28a1.2,1.2,0,0,0-1.06-.61c-3.31.38-2.81,4.86-.12,5.85,2.88,1.06,7.23-1.26,5.86-4.71-.34-.86-1.77-1.37-2.25-.29a2.16,2.16,0,0,0,0,2.13c.7,1.42,2.83.17,2.13-1.24V68l-2.25-.29c.46,1.17-.73,1.85-1.78,1.87a1.89,1.89,0,0,1-1.11-.24,3.4,3.4,0,0,1-.48-1l-1.06-.61.12.23V66.76l-.15.25.74-.57H113l-.33,2.42a22.08,22.08,0,0,0,4.76.42c.73-.07,1.35-.25,1.63-1,.7-1.91-2.11-3.5-3.54-4-1.9-.62-4.56-.5-5.94,1.14s-.58,4.47-.27,6.46c.2,1.26,2.07,1.08,2.38,0a9.22,9.22,0,0,1,1.07-2.39c.84-1.35-1.29-2.59-2.13-1.24Z"/><path class="cls-26" d="M119.45,67l-.4.72a1.24,1.24,0,0,0,.44,1.69,2,2,0,0,0,1.88,0l.28-.15.11-.06q.12-.06,0,0h-.3a.57.57,0,0,1-.27-.15s-.07-.09-.06-.1a1.7,1.7,0,0,0,0,.37c0,.18-.05.37-.05.56a1.55,1.55,0,0,0,.3.93,1.31,1.31,0,0,0,2.2-.16,1.29,1.29,0,0,0-.19-1.49l0,0a1.23,1.23,0,0,0-1.74,1.74l0,0-.19-1.49,0,.07.74-.57-.07,0,1.2.32-.06-.06.32.54c.06.17,0,.14,0,0s0-.25,0-.37a3.17,3.17,0,0,0-.06-.95,2.16,2.16,0,0,0-.91-1.32,1.92,1.92,0,0,0-1.52-.23,3.58,3.58,0,0,0-.7.3,1.25,1.25,0,0,0-.22.12h0a.54.54,0,0,1,.57.06l.44,1.69.4-.72c.77-1.39-1.36-2.63-2.13-1.24Z"/><path class="cls-26" d="M123.13,69.46a4,4,0,0,0,1.3-1.26,1.24,1.24,0,0,0-.74-1.81,5.63,5.63,0,0,0-6.22,5.09c-.13,3.39,4.05,4.33,5.72,1.52s-1.74-5-4.27-3.73c-3.1,1.62-4,5.48-3.66,8.69.17,1.56,2.64,1.58,2.46,0a8,8,0,0,1,.66-4.73,27.39,27.39,0,0,1,1.77-2.45c.68-1,1.43-2.21,2.88-2L122.31,67l-.42.37c-1.33.85-.1,3,1.24,2.13Z"/><path class="cls-26" d="M115.88,72.51A3.28,3.28,0,0,0,113.54,78a1.24,1.24,0,0,0,1.74,0,1.26,1.26,0,0,0,0-1.74.83.83,0,0,1,.6-1.27,1.27,1.27,0,0,0,1.23-1.23,1.24,1.24,0,0,0-1.23-1.23Z"/><path class="cls-26" d="M114.28,71.46c-1.39-1.78-3.88-1.75-4.41.73-.44,2,.36,5.2,2,6.56,1.9,1.58,3.86,0,3.08-2.24-.44-1.27-1.67-2.56-1.7-3.95,0-1.88,3.62-1.26,4.9-1.26a1.24,1.24,0,0,0,.62-2.3,4.52,4.52,0,0,0-6.72,4.5c.51,4,4.93,5.4,8.24,3.75,1.42-.71.17-2.83-1.24-2.13-1.62.81-3.87.46-4.46-1.47a2.06,2.06,0,0,1,2.94-2.52l.62-2.3c-2.28,0-5.79-.57-7.11,1.89a4,4,0,0,0,.07,3.24,33.47,33.47,0,0,0,1.65,3.41l.87-.36c-.62-.07-1-1.55-1.1-2a7.24,7.24,0,0,1-.27-1.41c0-.38-.18-1,.28-.41,1,1.25,2.71-.51,1.74-1.74Z"/><path class="cls-26" d="M117.62,73.6a4.15,4.15,0,0,0-1.17,2.82,4.16,4.16,0,0,0,.57,2.11,1.83,1.83,0,0,0,.21.29q.37.53,0-.07l.36-.87A.58.58,0,0,1,117,78a1.24,1.24,0,0,0-1.69.44,1.26,1.26,0,0,0,.44,1.69c1.11.85,3.7.36,4-1.19.15-.84-.42-1.18-.69-1.88a1.62,1.62,0,0,1,.35-1.7c1.09-1.15-.65-2.9-1.74-1.74Z"/><path class="cls-26" d="M115,77.14a7.24,7.24,0,0,0-2.63,4.33c-.2,1.79,1.18,2.72,2.77,3s2.21-2.08.66-2.38c-.2,0-.85-.08-1-.28s.2-.76.3-1a6.12,6.12,0,0,1,1.6-2c1.21-1-.54-2.76-1.74-1.74Z"/><path class="cls-26" d="M114.44,82.85a1.6,1.6,0,0,0,1.14,2A1.26,1.26,0,0,0,117.1,84a1.25,1.25,0,0,0-.86-1.52l.44.3.17.62,0,.12a1.23,1.23,0,0,0-2.38-.66Z"/><path class="cls-26" d="M116.49,85a2.16,2.16,0,0,0,.6-1,1.23,1.23,0,0,0-2.38-.66,0,0,0,0,0,0,0c-1.14,1.11.61,2.85,1.74,1.74Z"/><path class="cls-26" d="M115.92,81.49c-.35-.56,2-2,2.3-2.21a5.65,5.65,0,0,1,3.27-.46c1.57.2,1.55-2.26,0-2.46a7.79,7.79,0,0,0-5.77,1.6c-1.35,1-3,3-1.93,4.77.84,1.34,3,.11,2.13-1.24Z"/><path class="cls-26" d="M122.41,78.59a1.23,1.23,0,0,0,0-2.46,1.23,1.23,0,0,0,0,2.46Z"/><path class="cls-26" d="M122.34,75.79a4.26,4.26,0,0,0,4.55-.42,2.42,2.42,0,0,0,.36-3.58c-2.33-2.53-7.08-1.13-7,2.52a3.41,3.41,0,0,0,2.42,3.14c1.68.5,3-.45,4.07-1.63,2-2.13,3.31-6.26-.08-7.86-1.43-.67-2.68,1.45-1.24,2.13,1.11.52,1.06,1.74.55,2.71-.38.71-1.44,2.26-2.3,2.34-1.4.13-1-1.77-.06-2.13.27-.1,1.8,0,1.85.34.09.62-1.65.42-1.87.33-1.44-.62-2.7,1.5-1.24,2.13Z"/><path class="cls-26" d="M128.35,71.46l1.72-.63a1.27,1.27,0,0,0,.86-1.52,1.25,1.25,0,0,0-1.52-.86,4.74,4.74,0,0,1-1.95.09,1.89,1.89,0,0,0-1.86.91c-.72,1.29.37,3,1.17,4a1.24,1.24,0,0,0,1.74,0,1.26,1.26,0,0,0,0-1.74,3.61,3.61,0,0,1-.48-.8c0-.09-.07-.19-.11-.29-.18-.43.08-.1-.17.09l-.54.32a5.45,5.45,0,0,1,1.19.07,5.85,5.85,0,0,0,1.66-.27l-.66-2.38-1.72.63a1.27,1.27,0,0,0-.86,1.52,1.24,1.24,0,0,0,1.52.86Z"/><path class="cls-26" d="M131.35,72.73C129,70.09,126.47,73.88,126,76a4.77,4.77,0,0,0,.69,4.12c1,1.27,2.5,1.48,4,1.48a1.23,1.23,0,0,0,0-2.46c-1.39,0-2.53-.31-2.41-2,0-.33,1-3.15,1.36-2.7,1.06,1.19,2.8-.56,1.74-1.74Z"/><path class="cls-26" d="M129.38,78.53a2.66,2.66,0,0,0,1.84,2.8,1.24,1.24,0,0,0,1.52-1.52A2.71,2.71,0,0,0,129.63,78c-1.21.27-2.29,1.61-1.43,2.79s2.58.64,3.5-.17A5.39,5.39,0,0,0,133,78.79c.14-.32.27-.65.39-1s.62-1.2.06-1l-.95-.12a3,3,0,0,1,1.17,1.23l.74-1.81c-.89.21-1.81-.29-2.73-.1a2.85,2.85,0,0,0-1.9,1.37,3.66,3.66,0,0,0,1,4.52c1.18,1.06,2.92-.68,1.74-1.74-.47-.43-1.28-1.53-.22-1.75a5.79,5.79,0,0,1,1.38.19,4.14,4.14,0,0,0,1.34-.12,1.24,1.24,0,0,0,.74-1.81c-.77-1.28-2.84-3.5-4.1-1.42-.48.8-.56,1.81-1,2.64-.23.46-.66.71-.93,1.1a2.22,2.22,0,0,0,.37,1.44s.16,0,.18.05L131.88,79a.37.37,0,0,1,0-.42c.2-1.57-2.27-1.56-2.46,0Z"/><path class="cls-26" d="M131.11,79.76a6.06,6.06,0,0,0,3.69,7.43c1.48.57,2.12-1.81.66-2.38a3.57,3.57,0,0,1-2-4.4c.49-1.51-1.89-2.16-2.38-.66Z"/><path class="cls-26" d="M133.75,85c.42.31,1,.77,1,1.35,0,.1-.07.43,0,.37-.19.28-.25-.06-.13.06-1.13-1.11-2.88.63-1.74,1.74a2.57,2.57,0,0,0,4.18-1c.71-1.92-.61-3.57-2.08-4.64a1.24,1.24,0,0,0-1.69.44,1.26,1.26,0,0,0,.44,1.69Z"/><path class="cls-26" d="M132.93,83.38a8.29,8.29,0,0,0-.15,4.53c.17.49,1.68,3,2.33,2.26-1,1.21.73,3,1.74,1.74a2.25,2.25,0,0,0-.25-3.29c-.51-.46-1.16-.69-1.45-1.37a5.39,5.39,0,0,1,.15-3.22c.36-1.54-2-2.2-2.38-.66Z"/><path class="cls-26" d="M135.7,93.48l.61.36-.44-1.69c-.24.54-.78.73-1.34,1a5.6,5.6,0,0,0-1.89,1.23,1.25,1.25,0,0,0,.87,2.1l.42,0a1.24,1.24,0,0,0,1.23-1.23,1.26,1.26,0,0,0-1.23-1.23l-.42,0,.87,2.1a5.81,5.81,0,0,1,1.84-1.05A3.55,3.55,0,0,0,138,93.4a1.27,1.27,0,0,0-.44-1.69l-.61-.36a1.23,1.23,0,0,0-1.24,2.13Z"/><path class="cls-26" d="M136.73,94.87a9.35,9.35,0,0,0,.87-4.77c-.14-1.57-2.61-1.58-2.46,0a6.88,6.88,0,0,1-.53,3.53,1.27,1.27,0,0,0,.44,1.69,1.24,1.24,0,0,0,1.69-.44Z"/><path class="cls-26" d="M136.71,87.35A4.33,4.33,0,0,1,136,81c1-1.26-1.18-2.49-2.13-1.24a6.7,6.7,0,0,0,1.13,9.3c1.22,1,3-.75,1.74-1.74Z"/><path class="cls-26" d="M136.61,79.05a3.88,3.88,0,0,0-3.93-1.58,2.74,2.74,0,0,0-2,3.36c.44,1.52,2.46,2.36,3.56,1s.08-3-1.31-3.62a1.27,1.27,0,0,0-1.69.44,1.24,1.24,0,0,0,.44,1.69l.56.28a.21.21,0,0,1,0-.13q0-.33.45-.21c.68-.1.19,0,.42-.31.5-.63,1.55.55,1.78.84a1.24,1.24,0,0,0,1.74,0,1.26,1.26,0,0,0,0-1.74Z"/><path class="cls-26" d="M131,72.54c-.88-.62-1.53-1.5-2.65-1.66-.81-.12-1.56.5-2,.53l1.19.9c-.45-1.78-.44-3.63-2.05-4.88a2.63,2.63,0,0,0-3.56.22l2.1.87,0-.51h-2.46c-.2,3.38,3.16,4.45,4.33,1.13.46-1.3-1.65-2.21-2.25-.95a3.39,3.39,0,0,0,.12,3.57,1.24,1.24,0,0,0,2.3-.62c-.05-1.83-.46-4-2.41-4.71a3,3,0,0,0-2.23,0c-1.07.46-.47.77-1,0-.23-.33-.29-1-.53-1.33a1.24,1.24,0,0,0-1.06-.61c-1.14,0,.12,0,.17.34l-2.38.66c.42,1,.4,2,1.53,2.51a3.05,3.05,0,0,0,2.91-.53c1.33-.85.1-3-1.24-2.13-.87.55-.45.39-.82-.5a1.23,1.23,0,0,0-2.38.66c.18,1.26,1.1,1.5,2.2,1.47l-1.06-.61c.67,1.08.36,2.51,1.73,3.1.79.34,1.09,0,1.85-.08a2.46,2.46,0,0,0,.82-.48,2.11,2.11,0,0,1,1.48,2.26l2.3-.62-.12-1.09-2.25-.95.51-.47c.09-1.6-2.32-1.56-2.46,0l0,.51c-.11,1.14,1.38,1.53,2.1.87s1.35,3,1.5,3.56a1.25,1.25,0,0,0,1.19.9c.35,0,1-.4,1.27-.38.92.06,1.41.69,2.11,1.18,1.3.91,2.53-1.22,1.24-2.13Z"/><path class="cls-26" d="M122.11,69.14l1.36,1.12a1.27,1.27,0,0,0,1.74,0,1.24,1.24,0,0,0,0-1.74l-1.36-1.12a1.27,1.27,0,0,0-1.74,0,1.24,1.24,0,0,0,0,1.74Z"/><path class="cls-26" d="M127.72,71.66a6.37,6.37,0,0,1,1.69,2.88,3.86,3.86,0,0,0,1.36,2.29,1.64,1.64,0,0,0,2.28-2.2,1.23,1.23,0,0,0-1.69-.44A4,4,0,0,0,129.51,78a1.56,1.56,0,0,0,2.69.94c1.13-1.11-.61-2.86-1.74-1.74l-.18.17,1.2-.32-.27-.05.74.57c-.22-.35.49-1.12.66-1.25l-1.69-.44.09.2-.12-.95,0-.17.87-.36q.6.47.15-.28l-.31-.86c-.14-.38-.29-.77-.46-1.14a6.76,6.76,0,0,0-1.72-2.39c-1.19-1-2.94.7-1.74,1.74Z"/><path class="cls-26" d="M129.15,75.45a5,5,0,0,0,1.2,2.41,1.24,1.24,0,0,0,1.74,0,1.26,1.26,0,0,0,0-1.74,2.66,2.66,0,0,1-.57-1.33,1.24,1.24,0,0,0-1.52-.86,1.26,1.26,0,0,0-.86,1.52Z"/><path class="cls-26" d="M85.71,77.77a4.09,4.09,0,0,0-1.35,4.37c.56,1.74,2,2.35,3.58,2.85l-.86-.86c.17.48-.72,2.17-.89,2.66-.53,1.5,1.85,2.14,2.38.66.4-1.15,1.57-3.07.76-4.27-.35-.52-.86-.55-1.4-.75a1.59,1.59,0,0,1-.48-2.92c1.21-1-.54-2.76-1.74-1.74Z"/><path class="cls-26" d="M88.46,81c.1-.56.48-.49.53.09s-.4,1.08-.94.8c-1.4-.74-2.65,1.38-1.24,2.13a3.19,3.19,0,0,0,4.52-3.77,2.74,2.74,0,0,0-2.63-2.11,2.82,2.82,0,0,0-2.61,2.21,1.27,1.27,0,0,0,.86,1.52A1.24,1.24,0,0,0,88.46,81Z"/><path class="cls-26" d="M87.59,81.21c.72,1.91-.65,4.11-1.38,5.85-.61,1.46,1.77,2.1,2.38.66.94-2.23,2.3-4.7,1.38-7.16-.55-1.47-2.94-.83-2.38.66Z"/><path class="cls-26" d="M88.57,90l.69.47.62-2.3a1.22,1.22,0,0,1-1.48-1.05,1.24,1.24,0,0,0-1.52-.86A1.26,1.26,0,0,0,86,87.78a3.63,3.63,0,0,0,3.85,2.86,1.29,1.29,0,0,0,1.19-.9,1.28,1.28,0,0,0-.57-1.39l-.69-.47A1.23,1.23,0,0,0,88.57,90Z"/><path class="cls-26" d="M88.3,85.89c0,.22,0-.09,0,0,.06-.14.09-.16.24-.29a1.24,1.24,0,0,0,0-1.74,1.26,1.26,0,0,0-1.74,0,2.85,2.85,0,0,0-.88,2.7,1.24,1.24,0,0,0,1.52.86,1.26,1.26,0,0,0,.86-1.52Z"/><path class="cls-32" d="M80.61,69.51c-3.82,1.42-2.38,6.46.16,8.43a3.64,3.64,0,0,0,4.8,0c1.33-1.33,1.46-3.64,1.24-5.37-.2-1.55-2.66-1.57-2.46,0,.18,1.38.11,5.06-2.17,3.35-.76-.57-2.51-3.45-.91-4s.84-2.93-.66-2.38Z"/><path class="cls-32" d="M82.6,72.54A3.78,3.78,0,0,0,84,75.6a1.27,1.27,0,0,0,1.74,0,1.24,1.24,0,0,0,0-1.74,1.44,1.44,0,0,1-.66-1.32c.05-1.59-2.41-1.58-2.46,0Z"/><path class="cls-32" d="M92.57,61.52A5.41,5.41,0,0,0,94,68.34c1.58,1.21,5.16,1.92,5.73-.76.33-1.55-2-2.21-2.38-.66-.14.65-2.23-.86-2.36-1a2.93,2.93,0,0,1-.28-3.14c.7-1.42-1.42-2.67-2.13-1.24Z"/><path class="cls-32" d="M96.92,66.74h-.08l.87.36.1.12.17.62v-.08l-.17.62,0-.06a1.24,1.24,0,0,0-.44-1.69,1.26,1.26,0,0,0-1.69.44,1.37,1.37,0,0,0,0,1.43,1.46,1.46,0,0,0,1.22.71A1.24,1.24,0,0,0,98.16,68a1.26,1.26,0,0,0-1.23-1.23Z"/><path class="cls-32" d="M99.08,68.23l-.21,1.85a1.24,1.24,0,0,0,1.23,1.23,1.26,1.26,0,0,0,1.23-1.23l.21-1.85A1.24,1.24,0,0,0,100.31,67a1.26,1.26,0,0,0-1.23,1.23Z"/><path class="cls-32" d="M140.66,99.83c-2.1.87-4.51,3-3.69,5.53s3.95,2.76,6.24,2.45c1.56-.21.9-2.59-.66-2.38-.91.12-2.76.37-3.21-.75s1.2-2.14,2-2.47c1.44-.6.81-3-.66-2.38Z"/><path class="cls-32" d="M93.6,74.21c-.2-.18,0,0,.06.2a.44.44,0,0,1,0,.22c.83-1.35-1.3-2.59-2.13-1.24A2,2,0,0,0,91.86,76a1.26,1.26,0,0,0,1.74,0,1.24,1.24,0,0,0,0-1.74Z"/><path class="cls-32" d="M94.18,74.08c.07.06.11.12.06,0l0,.11q0-.2,0,0,0-.17,0,0t0,0c0,.1-.09.11,0,.06a1.23,1.23,0,1,0,1.24,2.13,2.61,2.61,0,0,0,.44-4.06c-1.17-1.07-2.91.67-1.74,1.74Z"/><path class="cls-32" d="M96.3,75.72a.77.77,0,0,1-.08.91,1.23,1.23,0,1,0,2.13,1.24,3.06,3.06,0,0,0,.32-2.81,1.27,1.27,0,0,0-1.52-.86,1.24,1.24,0,0,0-.86,1.52Z"/><path class="cls-32" d="M90.09,77.8a8.33,8.33,0,0,0-5.31,4.81c-1.09,2.76-.06,4.65,2.17,6.33,1.27,1,2.5-1.19,1.24-2.13-.93-.7-1.61-1.3-1.36-2.57a4.83,4.83,0,0,1,.67-1.59,5.87,5.87,0,0,1,3.24-2.47c1.5-.49.86-2.87-.66-2.38Z"/><path class="cls-32" d="M104.3,74c1.63-2.63,3.84,1.88,3.93,3.08a5,5,0,0,1-2.56,4.74c-1.34.84-.11,3,1.24,2.13a7.55,7.55,0,0,0,3-9.84c-1.48-3-5.66-4.73-7.75-1.36-.84,1.35,1.29,2.59,2.13,1.24Z"/><path class="cls-32" d="M102.72,80.06a4,4,0,0,0,4,3.89,1.23,1.23,0,0,0,0-2.46,1.52,1.52,0,0,1-1.49-1.42,1.23,1.23,0,0,0-2.46,0Z"/><path class="cls-33" d="M92.2,153.92s.71,14.76,13,15.82c12.6,1.09,17.14-8.15,17.58-14.62l13.62,3.76-6.71,40.37-24.05,7.26-25.57-8.74-3.81-41Z"/><path class="cls-32" d="M106.8,67.62c-1.9-1.12-3.45-3.82-1.9-5.87s4.39-1.51,6.25-.1c1.27,1,2.5-1.18,1.24-2.13-3-2.24-7.52-2.34-9.7,1.07-2.08,3.25-.19,7.36,2.86,9.16a1.23,1.23,0,0,0,1.24-2.13Z"/><path class="cls-32" d="M109.82,66a1.23,1.23,0,0,0,0-2.46,1.23,1.23,0,0,0,0,2.46Z"/><path class="cls-32" d="M109.53,63.06l-.29-.63a1.24,1.24,0,0,0-1.69-.44,1.26,1.26,0,0,0-.44,1.69l.29.63a1.24,1.24,0,0,0,1.69.44,1.26,1.26,0,0,0,.44-1.69Z"/><path class="cls-32" d="M117.81,66.8c-5.29-4.13-8.57,7.82-6.65,11.41,2.59,4.84,13.78,3.94,11.69-2.72-.47-1.51-2.85-.86-2.38.66,1.07,3.4-6.84,3.77-7.51-.39a7.93,7.93,0,0,1,.36-3.53c.15-.48,1.8-4.41,2.75-3.67,1.24,1,3-.77,1.74-1.74Z"/><path class="cls-32" d="M119.39,73.4a4,4,0,0,0-2.16,2.39,2.62,2.62,0,0,0,1.15,2.89c1.36.83,2.6-1.3,1.24-2.13,0,0,0,0,0,0a.43.43,0,0,1,0-.32c.16-.36.64-.58,1-.75,1.4-.74.16-2.87-1.24-2.13Z"/><path class="cls-32" d="M124.73,68.68c-.85-1-2-3.08-1-4.32s2.87-.63,3.92.3,2.93-.68,1.74-1.74c-2.08-1.86-5.27-2.53-7.39-.33s-.76,5.74,1,7.83c1,1.22,2.75-.53,1.74-1.74Z"/><path class="cls-32" d="M128.54,69.51a1.23,1.23,0,0,0,0-2.46,1.23,1.23,0,0,0,0,2.46Z"/><path class="cls-32" d="M128.76,66.67q.3,1.14-.79,1a1.26,1.26,0,0,0,1.52-.86,1.24,1.24,0,0,0-.86-1.52,1.79,1.79,0,0,0-2,2.57,1.24,1.24,0,0,0,1.69.44,1.26,1.26,0,0,0,.44-1.69Z"/><path class="cls-32" d="M130.63,71.28a2.08,2.08,0,0,1,1.95-2.86,3.74,3.74,0,0,1,3.2,1.8c.91,1.29,3,.06,2.13-1.24-1.48-2.1-3.87-3.55-6.5-2.85a4.48,4.48,0,0,0-3.15,5.81c.54,1.48,2.92.84,2.38-.66Z"/><path class="cls-32" d="M138.94,113.25a1.48,1.48,0,0,1-2.35.1c-.5-.61-.66-1.26-1.58-1.35-1.48-.15-2.19,1.83-1.89,3,.48,1.87,2.48,1.44,3.29.11.43-.72.58-1.56,1-2.28.15-.26.48-.84.87-.76s.38,1.31.39,1.61a1.23,1.23,0,0,0,2.46,0c-.05-2-1-4.56-3.46-4a3.6,3.6,0,0,0-2.13,1.53,6.63,6.63,0,0,0-.67,1.35,6.27,6.27,0,0,1-.55,1.37l.95.12c.8.39,0,.34.38,0l-.87.36.23,0-.87-.36a14.5,14.5,0,0,0,1.2,1.43,3.85,3.85,0,0,0,1.78.78,4,4,0,0,0,3.55-1.32c1.06-1.18-.68-2.93-1.74-1.74Z"/><path class="cls-32" d="M134.65,79c-3.35-2-4.07,3.8-3.79,5.82a6.08,6.08,0,0,0,6.84,5.51c1.56-.21.9-2.59-.66-2.38a3.49,3.49,0,0,1-3.59-2.68,6.13,6.13,0,0,1-.21-1.92c0-.35.54-2,.16-2.23A1.23,1.23,0,0,0,134.65,79Z"/><path class="cls-32" d="M135,85.31a2.91,2.91,0,0,0,.09,2.94,1.26,1.26,0,0,0,1.69.44,1.25,1.25,0,0,0,.44-1.69c-.13-.19-.16-.31-.09-.46a1.26,1.26,0,0,0-.44-1.69,1.24,1.24,0,0,0-1.69.44Z"/><path class="cls-32" d="M136.3,85.88a1,1,0,0,1,1.79.14c.72,1.42,2.84.17,2.13-1.24a3.45,3.45,0,0,0-6-.14,1.23,1.23,0,0,0,2.13,1.24Z"/><path class="cls-32" d="M137.76,92.28c.76-.36,1.19.65,1.11,1.24a2.69,2.69,0,0,1-1.49,1.81,1.23,1.23,0,0,0,1.24,2.13c1.8-1.06,3.18-3,2.59-5.18a3.31,3.31,0,0,0-4.69-2.12c-1.43.68-.18,2.81,1.24,2.13Z"/><path class="cls-32" d="M79.9,87.16a4.15,4.15,0,0,1-2,1.54c-1.13.19-2-1-2.3-2a2.72,2.72,0,0,1,3.12-3.56c1.55.29,2.22-2.08.66-2.38-1.26-.24-2.88.1-2.9,1.71,0,.35.35,1.43.7,1.57.71.29.91-.3.1-.16a2.5,2.5,0,0,0-.86.3c-1.38.77-.14,2.9,1.24,2.13a3,3,0,0,0,1-.06,1.55,1.55,0,0,0,1-.95A2.12,2.12,0,0,0,79.71,84c-.06-.27-.73-1.52-.71-1.57l-.57.74.24,0,.66-2.38c-3.82-.7-7.39,2.58-6.18,6.53a5.53,5.53,0,0,0,3.56,3.76c2,.46,3.66-.82,4.92-2.2C82.71,87.74,81,86,79.9,87.16Z"/><path class="cls-32" d="M80.89,90.18c-3.49-.88-5,4.22-4.57,6.84a5.46,5.46,0,0,0,7,4.33c1.49-.51.85-2.89-.66-2.38a3,3,0,0,1-3.77-1.81,4.18,4.18,0,0,1,0-2.6c.11-.39.71-2.17,1.37-2a1.23,1.23,0,0,0,.66-2.38Z"/><path class="cls-32" d="M84.24,96a2.53,2.53,0,0,0-2.59.51A2.6,2.6,0,0,0,81,99c.37,1.54,2.75.89,2.38-.66,0,.06,0-.17-.06,0,0-.06.22-.07.07,0s.2.05.25.07a1.24,1.24,0,0,0,1.52-.86A1.26,1.26,0,0,0,84.24,96Z"/><path class="cls-32" d="M80.38,105.28c-1.87-2.86-4.53-.16-5.17,2.1-.84,3-.81,7.31,2.26,9,2.08,1.17,5.49.1,5.48-2.64,0-3.13-3.82-2.58-4.84-.37-.66,1.43,1.46,2.68,2.13,1.24q.31-1.07-.87-.17l-1.09-.5a3.86,3.86,0,0,1-1-2.89,10.14,10.14,0,0,1,.2-2.39c.07-.35.85-2.13.82-2.17.86,1.32,3,.09,2.13-1.24Z"/><path class="cls-32" d="M83.38,121.81c1,.43.63,4.17-.48,3.46-1.34-.85-2.58,1.28-1.24,2.13,1.82,1.16,4-.17,4.57-2.07.49-1.67.26-4.85-1.6-5.65-1.44-.62-2.7,1.5-1.24,2.13Z"/><polygon class="cls-34" points="64.42 159.53 63.21 164.41 73.44 195.49 68.48 159.64 64.42 159.53"/><path class="cls-32" d="M82.78,123.7q-.17-.16-.06-.07l0-.09c-.06.17.08-.22,0,0,0,0,.15-.14,0,0l.08,0q.23-.06.08,0a1.23,1.23,0,0,0,0-2.46A2.59,2.59,0,0,0,81,125.44c1.12,1.13,2.86-.61,1.74-1.74Z"/><path class="cls-32" d="M132.65,119.32a10.23,10.23,0,0,0,.52,6.17c.61,1.41,2,2.83,3.66,2.06a2.66,2.66,0,0,0,1.05-3.64,1.76,1.76,0,0,0-3.28.38c-.31,1.55,2.06,2.21,2.38.66l.05-.27-.57.74c-.78.6-1.42-2-1.49-2.36A7.73,7.73,0,0,1,135,120c.32-1.55-2.06-2.21-2.38-.66Z"/><polygon class="cls-27" points="64.05 158.61 73.06 194.57 89.44 202.23 86.49 149.8 64.05 158.61"/><polygon class="cls-27" points="125.77 151.84 122.94 202.42 136.25 197.26 144.13 155.74 125.77 151.84"/><polygon class="cls-35" points="89.44 154.42 89.38 195.4 86.79 154.81 89.44 154.42"/><polygon class="cls-35" points="123.33 155.28 123.12 196.38 125.56 155.59 123.33 155.28"/><path class="cls-33" d="M102.49,122.58l16.68.91s-.13,9.19-8.76,8.59C100.57,131.41,102.49,122.58,102.49,122.58Z"/><line class="cls-36" x1="104.13" y1="122.63" x2="122.45" y2="123.36"/><line class="cls-37" x1="106.43" y1="132.31" x2="114.48" y2="132.63"/><path class="cls-32" d="M126,123.92l-9.09-5.71-12.23-.35-10.05,5.89-9.4-10.67c0,22.37,7.67,29.91,7.67,29.91,6.76,6.12,27.53,5,33.18-.59s7.35-27.85,7.35-27.85Zm-11.57,14.19L112,133.3l-3.18-.09-2.69,4.22L96.38,130l9.38-8,9.42.22,9.37,5.51Z"/><path class="cls-36" d="M104.38,113.82s1.84,4.89,6,5,6-4.67,6-4.67"/></g><text class="cls-38" transform="matrix(1, 0.07, -0.07, 1, 59.53, 208.63)"><tspan class="cls-39">C</tspan><tspan x="14.02" y="0">AR</tspan><tspan class="cls-40" x="45.21" y="0">L</tspan><tspan x="56.16" y="0">OS</tspan></text></g></g></svg>